# Blender v2.83.5 OBJ File: 'tile_set_002.blend'
# www.blender.org
mtllib dungeon_001_sos_001.mtl
o base_model_opening_portal_single_Cube.042
v 0.500000 3.000000 0.500000
v 0.500000 0.000000 0.500000
v 0.500000 3.000000 -0.500000
v 0.500000 0.000000 -0.500000
v -0.250000 0.000000 0.500000
v -0.250000 3.000000 0.500000
v -0.250000 0.000000 -0.500000
v -0.250000 3.000000 -0.500000
v -0.500000 0.000000 0.500000
v -0.500000 3.000000 -0.500000
v -0.500000 3.000000 0.500000
v -0.500000 0.000000 -0.500000
v 0.250000 0.000000 0.500000
v 0.250000 3.000000 -0.500000
v 0.250000 3.000000 0.500000
v 0.250000 0.000000 -0.500000
vt 0.374512 0.001139
vt 0.374146 0.667318
vt 0.124512 0.666341
vt 0.124512 -0.000326
vt 0.500488 0.665690
vt -0.000488 0.665690
vt -0.000488 0.008138
vt 0.500488 0.000326
vt 0.499512 0.667643
vt 0.499512 -0.000326
vt -0.000488 0.666341
vt -0.000488 -0.000326
vt 0.124512 0.666341
vt -0.000488 0.666341
vt -0.000488 -0.000326
vt 0.124512 -0.000326
vt 0.374512 0.001139
vt 0.374146 0.667318
vt 0.499512 0.667643
vt 0.499512 -0.000326
vt 0.500488 0.665690
vt -0.000488 0.665690
vt -0.000488 0.008138
vt 0.500488 0.000326
vt 0.375488 1.000651
vt 0.375244 0.666992
vt 0.500488 0.666992
vt 0.500488 1.000977
vt 0.000488 0.999674
vt -0.000488 0.666992
vt 0.124756 0.666992
vt 0.125488 1.000000
vn -1.0000 0.0000 0.0000
vn 1.0000 0.0000 -0.0000
vn 0.0000 0.0000 1.0000
vn 0.0000 0.0000 -1.0000
vn 0.0000 1.0000 0.0000
usemtl Material.002
s off
f 13/1/1 15/2/1 14/3/1 16/4/1
f 3/5/2 1/6/2 2/7/2 4/8/2
f 1/9/3 15/2/3 13/1/3 2/10/3
f 14/3/4 3/11/4 4/12/4 16/4/4
f 10/13/4 8/14/4 7/15/4 12/16/4
f 9/17/1 11/18/1 10/13/1 12/16/1
f 6/19/3 11/18/3 9/17/3 5/20/3
f 8/21/2 6/22/2 5/23/2 7/24/2
f 14/25/5 15/26/5 1/27/5 3/28/5
f 10/29/5 11/30/5 6/31/5 8/32/5
