# Blender v2.83.5 OBJ File: 'dungeon_2022_001.blend'
# www.blender.org
mtllib tile_set_001_hw_sc_1_001.mtl
o tile_set_001_hw_sc_1_001_Cube.026
v -0.500000 3.000000 0.500000
v -0.500000 0.000000 -0.500000
v -0.500000 3.000000 -0.500000
v 0.500000 0.000000 0.500000
v 0.500000 3.000000 0.500000
v 0.500000 0.000000 -0.500000
v 0.500000 3.000000 -0.500000
vt 0.499996 0.000000
vt 0.499996 0.666665
vt 0.000000 0.666665
vt 0.000000 0.000000
vt 0.499996 0.000000
vt 0.499996 0.666665
vt 0.000000 0.666665
vt 0.000000 0.000000
vt 0.500000 1.000000
vt 0.000000 1.000000
vt 0.000000 0.666667
vt 0.500000 0.666667
vn 0.0000 0.0000 -1.0000
vn 1.0000 0.0000 0.0000
vn 0.0000 1.0000 0.0000
usemtl Material.002
s off
f 2/1/1 3/2/1 7/3/1 6/4/1
f 6/5/2 7/6/2 5/7/2 4/8/2
f 7/9/3 3/10/3 1/11/3 5/12/3
