# Blender v2.83.5 OBJ File: 'tile_set_002.blend'
# www.blender.org
mtllib dungeon_001_scs_001.mtl
o base_model_door_single_Cube.034
v 0.500000 0.000000 0.500000
v 0.500000 3.000000 0.500000
v -0.500000 0.000000 0.500000
v -0.500000 3.000000 0.500000
v 0.500000 0.000000 -0.500000
v 0.500000 3.000000 -0.500000
v -0.500000 0.000000 -0.500000
v -0.500000 3.000000 -0.500000
v -0.250000 3.000000 0.500000
v -0.250000 0.000000 -0.500000
v -0.250000 2.625000 0.500000
v -0.250000 0.000000 0.500000
v -0.250000 3.000000 -0.500000
v -0.250000 1.500000 -0.500000
v -0.250000 2.250000 -0.500000
v -0.250000 0.750000 -0.500000
v -0.250000 2.625000 -0.500000
v 0.250000 0.000000 0.500000
v 0.250000 3.000000 -0.500000
v 0.250000 2.625000 -0.500000
v 0.250000 3.000000 0.500000
v 0.250000 0.000000 -0.500000
v 0.250000 2.625000 0.500000
v -0.250000 1.875000 -0.500000
v -0.250000 1.125000 -0.500000
v -0.250000 0.375000 -0.500000
vt 0.374512 0.001139
vt 0.374512 0.584330
vt 0.124512 0.583008
vt 0.124512 -0.000326
vt 0.374512 0.583008
vt 0.124512 0.584696
vt 0.000000 0.000000
vt 0.000000 0.000000
vt 0.374512 0.166341
vt 0.374512 0.249674
vt 0.000000 0.000000
vt 0.000000 0.000000
vt 0.374512 0.499674
vt 0.374146 0.667318
vt 0.124390 0.667318
vt 0.124512 0.666341
vt -0.000488 0.666341
vt -0.000488 -0.000326
vt 0.374512 0.333008
vt 0.374512 0.416341
vt 0.124512 0.004069
vt 0.374512 -0.000326
vt 0.374512 0.083008
vt 0.499512 0.666341
vt -0.000488 0.666341
vt -0.000488 -0.000326
vt 0.499512 -0.000326
vt 0.374512 0.666341
vt 0.499512 0.666341
vt 0.499512 -0.000326
vt 0.499512 0.667643
vt 0.499512 -0.000326
vt -0.000488 0.667643
vt -0.000488 0.005534
vt 0.000000 0.000000
vt 0.000000 0.000000
vt 0.000000 0.000000
vt 0.000000 0.000000
vt 0.498535 0.666992
vt 0.498535 1.000326
vt 0.373779 1.000326
vt 0.124268 1.000326
vt -0.000488 1.000326
vt -0.000488 0.666992
vt 0.500488 0.665690
vt -0.000488 0.665690
vt -0.000488 0.008138
vt 0.500488 0.000326
vn -1.0000 0.0000 0.0000
vn 0.0000 -1.0000 0.0000
vn 0.0000 0.0000 1.0000
vn 0.0000 0.0000 -1.0000
vn 1.0000 0.0000 -0.0000
vn 0.0000 1.0000 -0.0000
usemtl Material.002
s off
f 18/1/1 23/2/1 20/3/1 22/4/1
f 17/5/2 20/3/2 23/2/2 11/6/2
f 24/7/3 10/8/3 16/9/3 25/10/3 26/11/3 14/12/3 15/13/3 17/5/3
f 23/2/3 21/14/3 9/15/3 11/6/3
f 20/3/4 19/16/4 6/17/4 5/18/4 22/4/4
f 16/9/5 25/10/5 14/19/5 24/20/5 15/13/5 17/5/5 11/6/5 12/21/5 10/22/5 26/23/5
f 4/24/1 8/25/1 7/26/1 3/27/1
f 17/5/4 13/28/4 19/16/4 20/3/4
f 8/29/4 13/28/4 17/5/4 15/13/4 24/20/4 14/19/4 25/10/4 16/9/4 26/23/4 10/22/4 7/30/4
f 2/31/3 21/14/3 23/2/3 18/1/3 1/32/3
f 11/6/3 9/15/3 4/33/3 3/34/3 12/21/3
f 10/8/3 17/35/3 15/36/3 24/7/3 14/12/3 25/37/3 16/38/3 26/11/3
f 21/14/6 2/39/6 6/40/6 19/41/6 13/42/6 8/43/6 4/44/6 9/15/6
f 6/45/5 2/46/5 1/47/5 5/48/5
