# Blender v2.83.5 OBJ File: 'tile_set_002.blend'
# www.blender.org
mtllib dungeon_001_sor_001.mtl
o base_model_opening_portal_single.002_Cube.047
v 0.500000 3.000000 0.500000
v 0.500000 0.000000 0.500000
v 0.500000 3.000000 -0.500000
v 0.500000 0.000000 -0.500000
v 0.250000 0.000000 0.500000
v 0.250000 3.000000 -0.500000
v 0.250000 3.000000 0.500000
v 0.250000 0.000000 -0.500000
v 0.250000 0.000000 0.250000
v 0.250000 0.375000 0.250000
v -0.250000 0.000000 -0.250000
v 0.250000 0.375000 -0.250000
v -0.250000 0.375000 -0.250000
v -0.250000 0.000000 0.250000
v 0.250000 0.000000 -0.250000
v -0.250000 0.375000 0.250000
v -0.500000 0.000000 -0.250000
v -0.500000 0.375000 -0.250000
v -0.500000 0.000000 0.250000
v -0.500000 0.375000 0.250000
vt 0.374512 0.001139
vt 0.374146 0.667318
vt 0.124512 0.666341
vt 0.124512 -0.000326
vt 0.500488 0.665690
vt -0.000488 0.665690
vt -0.000488 0.008138
vt 0.500488 0.000326
vt 0.499512 0.667643
vt 0.499512 -0.000326
vt -0.000488 0.666341
vt -0.000488 -0.000326
vt 0.375488 1.000651
vt 0.375244 0.666992
vt 0.500488 0.666992
vt 0.500488 1.000977
vt 0.250000 0.004232
vt 0.250000 0.086914
vt -0.000488 0.090332
vt -0.000488 0.008138
vt 0.499512 -0.000326
vt 0.499512 0.083171
vt 0.249512 0.085734
vt 0.249512 0.002604
vt 0.499512 -0.000326
vt 0.499512 0.083008
vt 0.249512 0.083008
vt 0.249512 -0.000326
vt 0.249512 -0.000326
vt 0.249512 0.083008
vt -0.000488 0.083008
vt -0.000488 -0.000326
vt 0.249512 -0.000326
vt 0.249512 0.083008
vt -0.000488 0.083008
vt -0.000488 -0.000326
vt 0.374512 0.001139
vt 0.374512 0.084452
vt 0.249512 0.085734
vt 0.249512 0.002604
vt 0.249512 -0.000326
vt 0.124512 0.083008
vt 0.124512 -0.000326
vt 0.499512 -0.000326
vt 0.499512 0.083008
vt 0.374512 0.083008
vt 0.374512 -0.000326
vn -1.0000 0.0000 0.0000
vn 1.0000 0.0000 -0.0000
vn 0.0000 0.0000 1.0000
vn 0.0000 0.0000 -1.0000
vn 0.0000 1.0000 0.0000
usemtl Material.006
s off
f 5/1/1 7/2/1 6/3/1 8/4/1
f 3/5/2 1/6/2 2/7/2 4/8/2
f 1/9/3 7/2/3 5/1/3 2/10/3
f 6/3/4 3/11/4 4/12/4 8/4/4
f 6/13/5 7/14/5 1/15/5 3/16/5
usemtl Material.002
f 15/17/2 12/18/2 10/19/2 9/20/2
f 9/21/3 10/22/3 16/23/3 14/24/3
f 11/25/4 13/26/4 12/27/4 15/28/4
f 13/29/5 16/30/5 10/31/5 12/32/5
usemtl Material.013
f 19/33/1 20/34/1 18/35/1 17/36/1
f 14/37/3 16/38/3 20/39/3 19/40/3
f 18/41/5 20/34/5 16/42/5 13/43/5
f 17/44/4 18/45/4 13/46/4 11/47/4
