# Blender v2.83.5 OBJ File: 'tile_set_001.blend1'
# www.blender.org
mtllib tile_set_001_hw_dc_1_001.mtl
o wall_high_double_corner_Cube.021
v -0.500000 0.000000 0.250000
v -0.500000 3.000000 0.250000
v -0.500000 0.000000 -0.250000
v -0.500000 3.000000 -0.250000
v 0.250000 0.000000 0.500000
v 0.250000 3.000000 0.500000
v -0.250000 0.000000 0.500000
v -0.250000 3.000000 0.500000
v 0.250000 3.000000 -0.250000
v -0.250000 3.000000 0.250000
v -0.250000 3.000000 -0.250000
v 0.250000 3.000000 0.250000
v -0.250000 0.000000 0.250000
v 0.250000 0.000000 -0.250000
v -0.250000 0.000000 -0.250000
v 0.250000 0.000000 0.250000
vt 0.500000 0.666667
vt 0.500000 0.000000
vt 0.666667 0.000000
vt 0.666667 0.666667
vt 0.000000 0.777778
vt 0.083333 0.777778
vt 0.083333 1.000000
vt 0.000000 1.000000
vt 0.500000 0.666667
vt 0.500000 0.888889
vt 0.416667 0.888889
vt 0.416667 0.666667
vt 0.666667 0.666667
vt 0.666667 0.000000
vt 0.833333 0.000000
vt 0.833333 0.666667
vt 0.083333 0.666667
vt 0.250000 0.666667
vt 0.250000 0.777778
vt 0.416667 1.000000
vt 0.250000 1.000000
vt 0.250000 0.888889
vt 0.250000 1.000000
vt 0.250000 0.666667
vt 1.000000 0.666667
vt 0.916667 0.666667
vt 0.916667 0.000000
vt 1.000000 0.000000
vt 0.916667 0.000000
vt 0.916667 0.666667
vt 0.833333 0.666667
vt 0.833333 0.000000
vt 0.500000 0.000000
vt 0.416667 0.000000
vt 0.250000 0.000000
vt 0.000000 0.000000
vt 0.083333 0.000000
vt 0.083333 0.666667
vt 0.000000 0.666667
vn -1.0000 0.0000 0.0000
vn 0.0000 -1.0000 0.0000
vn 0.0000 1.0000 0.0000
vn 0.0000 0.0000 1.0000
vn 0.0000 0.0000 -1.0000
vn 1.0000 0.0000 -0.0000
usemtl None
s off
f 1/1/1 2/2/1 4/3/1 3/4/1
f 7/5/2 13/6/2 16/7/2 5/8/2
f 4/9/3 2/10/3 10/11/3 11/12/3
f 5/13/4 6/14/4 8/15/4 7/16/4
f 1/17/2 3/18/2 15/19/2 13/6/2
f 10/11/3 8/20/3 6/21/3 12/22/3
f 14/23/2 16/7/2 13/6/2 15/19/2
f 9/24/3 11/12/3 10/11/3 12/22/3
f 8/25/1 10/26/1 13/27/1 7/28/1
f 2/29/4 1/30/4 13/31/4 10/32/4
f 3/33/5 4/9/5 11/12/5 15/34/5
f 9/24/5 14/35/5 15/34/5 11/12/5
f 5/36/6 16/37/6 12/38/6 6/39/6
f 9/24/6 12/38/6 16/37/6 14/35/6
