# Blender v2.79 (sub 0) OBJ File: 'arch_1_001.blend'
# www.blender.org
mtllib arch_1_001.mtl
o Cylinder.000_Cylinder.003
v 0.800000 0.000000 -0.500000
v 0.800000 0.000000 0.500000
v -0.800000 0.000001 -0.500000
v -0.800000 0.000001 0.500000
v 0.000000 1.800000 -0.500000
v 0.000000 1.800000 0.500000
v 0.156072 1.782707 -0.500000
v 0.156072 1.782707 0.500000
v 0.306147 1.731492 -0.500000
v 0.306147 1.731492 0.500000
v 0.444456 1.648323 -0.500000
v 0.444456 1.648323 0.500000
v 0.565685 1.536396 -0.500000
v 0.565685 1.536396 0.500000
v 0.665176 1.400013 -0.500000
v 0.665176 1.400013 0.500000
v 0.739104 1.244415 -0.500000
v 0.739104 1.244415 0.500000
v 0.784628 1.075581 -0.500000
v 0.784628 1.075581 0.500000
v 0.800000 0.900000 -0.500000
v 0.800000 0.900000 0.500000
v -0.800000 0.900001 -0.500000
v -0.800000 0.900001 0.500000
v -0.784628 1.075582 -0.500000
v -0.784628 1.075582 0.500000
v -0.739103 1.244416 -0.500000
v -0.739103 1.244416 0.500000
v -0.665175 1.400014 -0.500000
v -0.665175 1.400014 0.500000
v -0.565685 1.536397 -0.500000
v -0.565685 1.536397 0.500000
v -0.444455 1.648323 -0.500000
v -0.444455 1.648323 0.500000
v -0.306146 1.731492 -0.500000
v -0.306146 1.731492 0.500000
v -0.156071 1.782707 -0.500000
v -0.156071 1.782707 0.500000
v 1.000000 0.000000 -0.500000
v 1.000000 0.000000 0.500000
v -1.000000 0.000001 -0.500000
v -1.000000 0.000001 0.500000
v 0.000000 2.000000 -0.500000
v 0.000000 2.000000 0.500000
v 0.195090 1.980785 -0.500000
v 0.195090 1.980785 0.500000
v 0.382683 1.923880 -0.500000
v 0.382683 1.923880 0.500000
v 0.555570 1.831470 -0.500000
v 0.555570 1.831470 0.500000
v 0.707107 1.707107 -0.500000
v 0.707107 1.707107 0.500000
v 0.831470 1.555570 -0.500000
v 0.831470 1.555570 0.500000
v 0.923880 1.382683 -0.500000
v 0.923880 1.382683 0.500000
v 0.980785 1.195090 -0.500000
v 0.980785 1.195090 0.500000
v 1.000000 1.000000 -0.500000
v 1.000000 1.000000 0.500000
v -1.000000 1.000001 -0.500000
v -1.000000 1.000001 0.500000
v -0.980785 1.195091 -0.500000
v -0.980785 1.195091 0.500000
v -0.923879 1.382684 -0.500000
v -0.923879 1.382684 0.500000
v -0.831469 1.555571 -0.500000
v -0.831469 1.555571 0.500000
v -0.707106 1.707108 -0.500000
v -0.707106 1.707108 0.500000
v -0.555569 1.831470 -0.500000
v -0.555569 1.831470 0.500000
v -0.382682 1.923880 -0.500000
v -0.382682 1.923880 0.500000
v -0.195089 1.980786 -0.500000
v -0.195089 1.980786 0.500000
vt 0.663734 0.458754
vt 0.689390 0.458754
vt 0.689390 0.589632
vt 0.663734 0.589632
vt 0.715047 0.458754
vt 0.715047 0.589632
vt 0.740703 0.458754
vt 0.740703 0.589632
vt 0.766360 0.458754
vt 0.766360 0.589632
vt 0.792016 0.458754
vt 0.792016 0.589632
vt 0.817673 0.458754
vt 0.817673 0.589632
vt 0.843329 0.458754
vt 0.843329 0.589632
vt 0.868986 0.458754
vt 0.868986 0.589632
vt 0.458481 0.458755
vt 0.484138 0.458755
vt 0.484138 0.589632
vt 0.458482 0.589632
vt 0.509795 0.458755
vt 0.509795 0.589632
vt 0.535451 0.458755
vt 0.535451 0.589632
vt 0.561108 0.458755
vt 0.561108 0.589632
vt 0.586764 0.458755
vt 0.586764 0.589632
vt 0.612421 0.458754
vt 0.612421 0.589632
vt 0.638077 0.458754
vt 0.638077 0.589632
vt 0.327604 0.458755
vt 0.327604 0.589633
vt 0.999864 0.458754
vt 0.999864 0.589632
vt 0.388077 0.131014
vt 0.388077 0.000136
vt 0.420116 0.000136
vt 0.420116 0.131014
vt 0.451901 0.000136
vt 0.451902 0.131014
vt 0.483215 0.000136
vt 0.483216 0.131014
vt 0.513902 0.000136
vt 0.513902 0.131014
vt 0.543894 0.000136
vt 0.543894 0.131014
vt 0.573231 0.000136
vt 0.573231 0.131014
vt 0.602055 0.000136
vt 0.602055 0.131014
vt 0.630599 0.000136
vt 0.630599 0.131014
vt 0.145556 0.131014
vt 0.145556 0.000137
vt 0.174100 0.000137
vt 0.174100 0.131014
vt 0.202924 0.000137
vt 0.202924 0.131014
vt 0.232261 0.000137
vt 0.232261 0.131014
vt 0.262253 0.000137
vt 0.262253 0.131014
vt 0.292940 0.000137
vt 0.292940 0.131014
vt 0.324253 0.000137
vt 0.324254 0.131014
vt 0.356039 0.000136
vt 0.356039 0.131014
vt 0.000136 0.131014
vt 0.000136 0.000137
vt 0.776018 0.131014
vt 0.776019 0.000136
vt 0.294612 0.262165
vt 0.294612 0.131287
vt 0.327331 0.131287
vt 0.327331 0.276707
vt 0.292097 0.287698
vt 0.324188 0.305077
vt 0.284649 0.312250
vt 0.314878 0.332357
vt 0.272555 0.334877
vt 0.299760 0.357498
vt 0.256278 0.354710
vt 0.279415 0.379534
vt 0.236446 0.370986
vt 0.254624 0.397619
vt 0.213819 0.383080
vt 0.226340 0.411058
vt 0.189267 0.390528
vt 0.195650 0.419333
vt 0.163734 0.393043
vt 0.163734 0.422127
vt 0.138201 0.390528
vt 0.131818 0.419333
vt 0.113649 0.383081
vt 0.101128 0.411058
vt 0.091022 0.370986
vt 0.072844 0.397620
vt 0.071189 0.354710
vt 0.048053 0.379535
vt 0.054913 0.334877
vt 0.027708 0.357499
vt 0.042819 0.312250
vt 0.012590 0.332357
vt 0.035371 0.287699
vt 0.003280 0.305078
vt 0.032856 0.262166
vt 0.000137 0.276708
vt 0.000136 0.131288
vt 0.032856 0.131288
vt 0.487565 0.425762
vt 0.618443 0.425762
vt 0.618443 0.458482
vt 0.473023 0.458482
vt 0.462032 0.423247
vt 0.444653 0.455338
vt 0.437480 0.415800
vt 0.417373 0.446028
vt 0.414853 0.403705
vt 0.392232 0.430910
vt 0.395021 0.387429
vt 0.370196 0.410565
vt 0.378744 0.367596
vt 0.352111 0.385774
vt 0.366650 0.344969
vt 0.338673 0.357490
vt 0.359202 0.320417
vt 0.330398 0.326800
vt 0.356688 0.294884
vt 0.327604 0.294884
vt 0.359202 0.269351
vt 0.330398 0.262968
vt 0.366650 0.244799
vt 0.338673 0.232278
vt 0.378745 0.222172
vt 0.352111 0.203995
vt 0.395021 0.202340
vt 0.370196 0.179204
vt 0.414854 0.186063
vt 0.392233 0.158858
vt 0.437481 0.173969
vt 0.417374 0.143740
vt 0.462032 0.166521
vt 0.444654 0.134431
vt 0.487565 0.164007
vt 0.473023 0.131287
vt 0.618443 0.131287
vt 0.618443 0.164006
vt 0.000136 0.422400
vt 0.032856 0.422400
vt 0.032856 0.553277
vt 0.000136 0.553277
vt 0.065848 0.422400
vt 0.065848 0.553277
vt 0.033128 0.553277
vt 0.033128 0.422400
vn -0.1101 -0.9939 0.0000
vn -0.3230 -0.9464 0.0000
vn -0.5153 -0.8570 0.0000
vn -0.6784 -0.7347 0.0000
vn -0.8079 -0.5893 0.0000
vn -0.9032 -0.4291 0.0000
vn -0.9655 -0.2603 0.0000
vn -0.9962 -0.0872 0.0000
vn 0.9962 -0.0872 0.0000
vn 0.9655 -0.2603 0.0000
vn 0.9032 -0.4291 0.0000
vn 0.8079 -0.5893 0.0000
vn 0.6784 -0.7347 0.0000
vn 0.5153 -0.8570 0.0000
vn 0.3230 -0.9464 0.0000
vn 0.1101 -0.9939 0.0000
vn 1.0000 0.0000 0.0000
vn -1.0000 0.0000 0.0000
vn 0.0980 0.9952 0.0000
vn 0.2903 0.9569 0.0000
vn 0.4714 0.8819 0.0000
vn 0.6344 0.7730 0.0000
vn 0.7730 0.6344 0.0000
vn 0.8819 0.4714 0.0000
vn 0.9569 0.2903 0.0000
vn 0.9952 0.0980 0.0000
vn -0.9952 0.0980 0.0000
vn -0.9569 0.2903 0.0000
vn -0.8819 0.4714 0.0000
vn -0.7730 0.6344 0.0000
vn -0.6344 0.7730 0.0000
vn -0.4714 0.8819 0.0000
vn -0.2903 0.9569 0.0000
vn -0.0980 0.9952 0.0000
vn -0.0000 0.0000 1.0000
vn 0.0000 0.0000 -1.0000
vn 0.0000 -1.0000 -0.0000
usemtl None
s off
f 5/1/1 7/2/1 8/3/1 6/4/1
f 7/2/2 9/5/2 10/6/2 8/3/2
f 9/5/3 11/7/3 12/8/3 10/6/3
f 11/7/4 13/9/4 14/10/4 12/8/4
f 13/9/5 15/11/5 16/12/5 14/10/5
f 15/11/6 17/13/6 18/14/6 16/12/6
f 17/13/7 19/15/7 20/16/7 18/14/7
f 19/15/8 21/17/8 22/18/8 20/16/8
f 23/19/9 25/20/9 26/21/9 24/22/9
f 25/20/10 27/23/10 28/24/10 26/21/10
f 27/23/11 29/25/11 30/26/11 28/24/11
f 29/25/12 31/27/12 32/28/12 30/26/12
f 31/27/13 33/29/13 34/30/13 32/28/13
f 33/29/14 35/31/14 36/32/14 34/30/14
f 35/31/15 37/33/15 38/34/15 36/32/15
f 37/33/16 5/1/16 6/4/16 38/34/16
f 3/35/17 23/19/17 24/22/17 4/36/17
f 1/37/18 2/38/18 22/18/18 21/17/18
f 43/39/19 44/40/19 46/41/19 45/42/19
f 45/42/20 46/41/20 48/43/20 47/44/20
f 47/44/21 48/43/21 50/45/21 49/46/21
f 49/46/22 50/45/22 52/47/22 51/48/22
f 51/48/23 52/47/23 54/49/23 53/50/23
f 53/50/24 54/49/24 56/51/24 55/52/24
f 55/52/25 56/51/25 58/53/25 57/54/25
f 57/54/26 58/53/26 60/55/26 59/56/26
f 61/57/27 62/58/27 64/59/27 63/60/27
f 63/60/28 64/59/28 66/61/28 65/62/28
f 65/62/29 66/61/29 68/63/29 67/64/29
f 67/64/30 68/63/30 70/65/30 69/66/30
f 69/66/31 70/65/31 72/67/31 71/68/31
f 71/68/32 72/67/32 74/69/32 73/70/32
f 73/70/33 74/69/33 76/71/33 75/72/33
f 75/72/34 76/71/34 44/40/34 43/39/34
f 41/73/18 42/74/18 62/58/18 61/57/18
f 39/75/17 59/56/17 60/55/17 40/76/17
f 22/77/35 2/78/35 40/79/35 60/80/35
f 20/81/35 22/77/35 60/80/35 58/82/35
f 18/83/35 20/81/35 58/82/35 56/84/35
f 16/85/35 18/83/35 56/84/35 54/86/35
f 14/87/35 16/85/35 54/86/35 52/88/35
f 12/89/35 14/87/35 52/88/35 50/90/35
f 10/91/35 12/89/35 50/90/35 48/92/35
f 8/93/35 10/91/35 48/92/35 46/94/35
f 6/95/35 8/93/35 46/94/35 44/96/35
f 38/97/35 6/95/35 44/96/35 76/98/35
f 36/99/35 38/97/35 76/98/35 74/100/35
f 34/101/35 36/99/35 74/100/35 72/102/35
f 32/103/35 34/101/35 72/102/35 70/104/35
f 30/105/35 32/103/35 70/104/35 68/106/35
f 28/107/35 30/105/35 68/106/35 66/108/35
f 26/109/35 28/107/35 66/108/35 64/110/35
f 24/111/35 26/109/35 64/110/35 62/112/35
f 24/111/35 62/112/35 42/113/35 4/114/35
f 23/115/36 3/116/36 41/117/36 61/118/36
f 25/119/36 23/115/36 61/118/36 63/120/36
f 27/121/36 25/119/36 63/120/36 65/122/36
f 29/123/36 27/121/36 65/122/36 67/124/36
f 31/125/36 29/123/36 67/124/36 69/126/36
f 33/127/36 31/125/36 69/126/36 71/128/36
f 35/129/36 33/127/36 71/128/36 73/130/36
f 37/131/36 35/129/36 73/130/36 75/132/36
f 5/133/36 37/131/36 75/132/36 43/134/36
f 7/135/36 5/133/36 43/134/36 45/136/36
f 9/137/36 7/135/36 45/136/36 47/138/36
f 11/139/36 9/137/36 47/138/36 49/140/36
f 13/141/36 11/139/36 49/140/36 51/142/36
f 15/143/36 13/141/36 51/142/36 53/144/36
f 17/145/36 15/143/36 53/144/36 55/146/36
f 19/147/36 17/145/36 55/146/36 57/148/36
f 21/149/36 19/147/36 57/148/36 59/150/36
f 21/149/36 59/150/36 39/151/36 1/152/36
f 1/153/37 39/154/37 40/155/37 2/156/37
f 3/157/37 4/158/37 42/159/37 41/160/37
