# Blender v2.79 (sub 0) OBJ File: 'crates.blend'
# www.blender.org
mtllib crate_1_001.mtl
o Plane_Plane.007
v -9.299335 -16.480793 -4.246023
v 2.102420 -16.480793 -4.246023
v -9.299335 -16.480793 7.155732
v 2.102420 -16.480793 7.155732
vn 0.0000 -1.0000 0.0000
usemtl None
s off
f 2//1 4//1 3//1 1//1
o Plane.005_Plane.006
v 0.724295 2.271042 0.884385
v -0.884278 2.271042 -0.728576
v -0.727548 2.271042 -0.884385
v 0.884492 2.271042 0.723267
v 0.724295 2.317796 0.884385
v -0.884278 2.317796 -0.728576
v -0.727548 2.317796 -0.884385
v 0.884492 2.317796 0.723267
v -0.884278 2.317796 -0.884385
v 0.884492 2.317796 0.884385
v 1.098701 2.059266 0.724970
v 1.098701 0.446306 -0.883602
v 1.098701 0.290497 -0.726872
v 1.098701 1.898148 0.885168
v 1.145454 2.059266 0.724970
v 1.145454 0.446306 -0.883602
v 1.145454 0.290497 -0.726872
v 1.145454 1.898148 0.885168
v 1.145454 0.290497 -0.883602
v 1.145454 2.059267 0.885168
v 0.884339 0.450200 -1.098701
v -0.728621 2.058772 -1.098701
v -0.884430 1.902043 -1.098701
v 0.723221 0.290003 -1.098701
v 0.884339 0.450200 -1.145454
v -0.728621 2.058772 -1.145454
v -0.884430 1.902043 -1.145454
v 0.723221 0.290003 -1.145454
v -0.884430 2.058772 -1.145454
v 0.884339 0.290002 -1.145454
v -1.098700 2.057144 -0.723472
v -1.098700 0.444184 0.885100
v -1.098701 0.288375 0.728370
v -1.098700 1.896027 -0.883670
v -1.145454 2.057144 -0.723472
v -1.145454 0.444184 0.885100
v -1.145454 0.288375 0.728370
v -1.145454 1.896027 -0.883670
v -1.145454 0.288375 0.885100
v -1.145454 2.057145 -0.883670
v 0.891272 1.896579 1.100132
v -0.721688 0.288007 1.100132
v -0.877498 0.444736 1.100132
v 0.730154 2.056776 1.100132
v 0.891272 1.896579 1.146885
v -0.721688 0.288007 1.146885
v -0.877498 0.444736 1.146885
v 0.730154 2.056776 1.146885
v -0.877498 0.288007 1.146885
v 0.891272 2.056776 1.146885
v -0.724188 0.073641 0.884385
v 0.884385 0.073641 -0.728576
v 0.727655 0.073641 -0.884385
v -0.884385 0.073641 0.723267
v -0.724188 0.026888 0.884385
v 0.884385 0.026887 -0.728576
v 0.727655 0.026887 -0.884385
v -0.884385 0.026888 0.723267
v 0.884385 0.026887 -0.884385
v -0.884385 0.026888 0.884385
v -1.168831 2.341172 1.168831
v 0.884385 2.341172 0.884385
v -0.884385 2.341172 0.884385
v 0.884385 2.341172 -0.884385
v -0.884385 2.341172 -0.884385
v 0.884385 2.271042 0.884385
v -0.884385 2.271042 0.884385
v 0.884385 2.271042 -0.884385
v -0.884385 2.271042 -0.884385
v -0.884385 2.056726 1.168831
v 0.884385 2.056726 1.168831
v -0.884385 0.287957 1.168831
v 0.884385 0.287956 1.168831
v -0.884385 2.056726 1.098701
v 0.884385 2.056726 1.098701
v -0.884385 0.287957 1.098701
v 0.884385 0.287956 1.098701
v -1.168831 2.341172 -1.168831
v 1.168831 2.341172 -1.168831
v -0.884385 0.287957 -1.168831
v 0.884385 0.287956 -1.168831
v -0.884385 2.056726 -1.168831
v 0.884385 2.056726 -1.168831
v -0.884385 0.287957 -1.098701
v 0.884385 0.287956 -1.098701
v -0.884385 2.056726 -1.098701
v 0.884385 2.056726 -1.098701
v -1.168831 2.056726 0.884385
v -1.168831 0.287957 0.884385
v -1.168831 2.056726 -0.884385
v -1.168831 0.287957 -0.884385
v -1.098701 2.056726 0.884385
v -1.098701 0.287957 0.884385
v -1.098701 2.056726 -0.884385
v -1.098701 0.287957 -0.884385
v 1.168830 0.003510 1.168831
v 1.168831 2.341172 1.168831
v 1.168830 0.003510 -1.168831
v 1.168830 0.287956 0.884385
v 1.168831 2.056726 0.884385
v 1.168830 0.287956 -0.884385
v 1.168831 2.056726 -0.884385
v 1.098700 0.287956 0.884385
v 1.098701 2.056726 0.884385
v 1.098700 0.287956 -0.884385
v 1.098701 2.056726 -0.884385
v -1.168831 0.003511 1.168831
v -1.168831 0.003511 -1.168831
v -0.884385 0.003511 0.884385
v 0.884385 0.003510 0.884385
v -0.884385 0.003511 -0.884385
v 0.884385 0.003510 -0.884385
v -0.884385 0.073640 0.884385
v 0.884385 0.073640 0.884385
v -0.884385 0.073640 -0.884385
v 0.884385 0.073640 -0.884385
vt 0.486517 0.992966
vt 0.485809 0.762042
vt 0.492502 0.762022
vt 0.493211 0.992945
vt 0.479115 0.992834
vt 0.478407 0.762042
vt 0.485101 0.762022
vt 0.485809 0.992814
vt 0.899990 0.446937
vt 0.899990 0.982979
vt 0.874045 0.959369
vt 0.873314 0.471212
vt 0.926819 0.471351
vt 0.926088 0.959230
vt 0.268103 0.762022
vt 0.268811 0.992945
vt 0.262118 0.992966
vt 0.261409 0.762042
vt 0.297710 0.762022
vt 0.298418 0.992814
vt 0.291724 0.992834
vt 0.291016 0.762042
vt 0.834265 0.980002
vt 0.834265 0.443478
vt 0.857692 0.467109
vt 0.858352 0.955705
vt 0.810039 0.955566
vt 0.810699 0.467248
vt 0.499904 0.762022
vt 0.500613 0.992946
vt 0.493919 0.992966
vt 0.493211 0.762042
vt 0.276921 0.992834
vt 0.276213 0.762042
vt 0.282907 0.762022
vt 0.283615 0.992814
vt 0.963888 0.442504
vt 0.963888 0.982438
vt 0.938588 0.958657
vt 0.937876 0.466955
vt 0.990050 0.467096
vt 0.989337 0.958517
vt 0.507306 0.762022
vt 0.508015 0.992945
vt 0.501321 0.992966
vt 0.500613 0.762042
vt 0.291016 0.762042
vt 0.290308 0.992834
vt 0.283615 0.992814
vt 0.284323 0.762022
vt 0.769901 0.985897
vt 0.769901 0.444353
vt 0.793298 0.468205
vt 0.793957 0.961373
vt 0.745706 0.961232
vt 0.746366 0.468346
vt 0.275505 0.762022
vt 0.276213 0.992945
vt 0.269520 0.992966
vt 0.268811 0.762042
vt 0.477699 0.762022
vt 0.478407 0.992814
vt 0.471714 0.992834
vt 0.471005 0.762042
vt 0.705291 0.986957
vt 0.705291 0.446951
vt 0.731613 0.470735
vt 0.732354 0.962503
vt 0.678073 0.962362
vt 0.678814 0.470876
vt 0.260701 0.762022
vt 0.261409 0.992945
vt 0.254716 0.992966
vt 0.254007 0.762042
vt 0.470298 0.762022
vt 0.471005 0.992814
vt 0.464312 0.992834
vt 0.463604 0.762042
vt 0.640418 0.986187
vt 0.640418 0.446989
vt 0.664331 0.470738
vt 0.665004 0.961769
vt 0.615691 0.961629
vt 0.616364 0.470878
vt 0.881011 0.000031
vt 0.880234 0.253261
vt 0.870194 0.253230
vt 0.870971 0.000000
vt 0.031144 0.493759
vt 0.542444 0.492982
vt 0.543220 0.858090
vt 0.031921 0.858867
vt 0.784433 0.253261
vt 0.783656 0.000031
vt 0.793697 0.000000
vt 0.794473 0.253230
vt 0.946691 0.253261
vt 0.945914 0.000031
vt 0.955955 0.000000
vt 0.956731 0.253230
vt 0.925057 0.253261
vt 0.924280 0.000031
vt 0.934320 0.000000
vt 0.935097 0.253230
vt 0.891052 0.000000
vt 0.891828 0.253230
vt 0.881788 0.253261
vt 0.881011 0.000031
vt 0.933439 0.992580
vt 0.413884 0.991803
vt 0.414660 0.625879
vt 0.934216 0.626656
vt 0.762799 0.253261
vt 0.762022 0.000031
vt 0.772062 0.000000
vt 0.772839 0.253230
vt 0.945914 0.000031
vt 0.945138 0.253261
vt 0.935097 0.253230
vt 0.935874 0.000000
vt 0.967549 0.253230
vt 0.968325 0.000000
vt 0.978366 0.000031
vt 0.977589 0.253261
vt 0.795250 0.253261
vt 0.794474 0.000031
vt 0.804514 0.000000
vt 0.805291 0.253230
vt 0.680925 0.990982
vt 0.679608 0.516676
vt 0.731988 0.574212
vt 0.732984 0.933092
vt 0.030317 0.639188
vt 0.542261 0.638154
vt 0.543942 0.977541
vt 0.031998 0.978575
vt 0.816108 0.000031
vt 0.815331 0.253261
vt 0.805291 0.253230
vt 0.806068 0.000000
vt 0.991044 0.254038
vt 0.990267 0.507268
vt 0.980227 0.507238
vt 0.981004 0.254007
vt 0.978366 0.253230
vt 0.979143 0.000000
vt 0.989183 0.000031
vt 0.988406 0.253261
vt 0.826925 0.000031
vt 0.826148 0.253261
vt 0.816108 0.253230
vt 0.816885 0.000000
vt 0.544263 0.206443
vt 0.545039 0.567009
vt 0.031213 0.567786
vt 0.030436 0.207220
vt 0.837742 0.000031
vt 0.836965 0.253261
vt 0.826925 0.253230
vt 0.827702 0.000000
vt 0.860154 0.253261
vt 0.859377 0.000031
vt 0.869417 0.000000
vt 0.870194 0.253231
vt 0.980227 0.865361
vt 0.981004 0.612131
vt 0.991044 0.612162
vt 0.990267 0.865392
vt 0.902646 0.253230
vt 0.903422 0.000000
vt 0.913463 0.000031
vt 0.912686 0.253261
vt 0.485837 0.625397
vt 0.487196 0.210117
vt 0.540932 0.260803
vt 0.539904 0.575021
vt 0.675542 0.588685
vt 0.674516 0.254007
vt 0.715364 0.294606
vt 0.716141 0.547836
vt 0.935761 0.208866
vt 0.934984 0.567237
vt 0.415509 0.566460
vt 0.416286 0.208089
vt 0.837742 0.253230
vt 0.838519 0.000000
vt 0.848560 0.000031
vt 0.847783 0.253261
vt 0.999223 0.000000
vt 1.000000 0.253231
vt 0.989960 0.253261
vt 0.989183 0.000031
vt 0.859377 0.000031
vt 0.858600 0.253261
vt 0.848560 0.253230
vt 0.849336 0.000000
vt 0.782879 0.000000
vt 0.783656 0.253230
vt 0.773616 0.253261
vt 0.772839 0.000031
vt 0.473865 0.077451
vt 0.472662 0.504856
vt 0.425116 0.452690
vt 0.426026 0.129298
vt 0.414907 0.493854
vt 0.933998 0.494631
vt 0.933221 0.860646
vt 0.414130 0.859869
vt 0.901869 0.000000
vt 0.902646 0.253230
vt 0.892605 0.253261
vt 0.891828 0.000031
vt 0.966772 0.000000
vt 0.967549 0.253230
vt 0.957508 0.253261
vt 0.956731 0.000031
vt 0.924280 0.000031
vt 0.923503 0.253261
vt 0.913463 0.253231
vt 0.914240 0.000000
vt 0.798663 0.001534
vt 0.797298 0.424659
vt 0.743353 0.373015
vt 0.744385 0.052862
vt 0.797069 0.512433
vt 0.795789 0.996213
vt 0.745177 0.937166
vt 0.746145 0.571118
vt 0.794508 0.183964
vt 0.795736 0.670431
vt 0.746908 0.611419
vt 0.745979 0.243339
vt 0.743691 0.850220
vt 0.745000 0.393345
vt 0.796746 0.449108
vt 0.795756 0.794798
vt 0.732691 0.303628
vt 0.731412 0.815248
vt 0.680849 0.752803
vt 0.681817 0.365691
vt 0.729820 -0.001274
vt 0.728538 0.476753
vt 0.677810 0.418409
vt 0.678781 0.056714
vt 0.677165 0.994534
vt 0.678579 0.475321
vt 0.734478 0.538692
vt 0.733409 0.931550
vt 0.679931 0.653962
vt 0.681213 0.146560
vt 0.731925 0.208490
vt 0.730954 0.592411
vt 0.733082 0.001983
vt 0.734441 0.406791
vt 0.680373 0.357685
vt 0.679345 0.051391
vt 0.680506 0.871694
vt 0.679171 0.447623
vt 0.732283 0.499066
vt 0.733293 0.819935
vt 0.733030 0.280587
vt 0.734366 0.728828
vt 0.681202 0.674454
vt 0.680191 0.335296
vt 0.342805 0.208398
vt 0.344066 0.653135
vt 0.293902 0.599186
vt 0.292947 0.262680
vt 0.296169 0.804816
vt 0.294949 0.365668
vt 0.343476 0.418940
vt 0.344399 0.751217
vt 0.295236 0.492386
vt 0.293998 0.005105
vt 0.343237 0.064216
vt 0.344173 0.432912
vt 0.343022 0.541075
vt 0.344279 0.993993
vt 0.294260 0.939051
vt 0.293309 0.596355
vt 0.668278 0.206058
vt 0.666983 0.628832
vt 0.615777 0.577231
vt 0.616756 0.257343
vt 0.590238 0.254007
vt 0.591265 0.588685
vt 0.550417 0.548086
vt 0.549640 0.294856
vt 0.423441 0.774025
vt 0.424736 0.316724
vt 0.475961 0.372539
vt 0.474981 0.718551
vt 0.421602 0.468104
vt 0.420304 0.017363
vt 0.471973 0.072040
vt 0.472956 0.413090
vt 0.473353 0.545945
vt 0.472062 0.992432
vt 0.421012 0.937937
vt 0.421989 0.600107
vn -0.7081 0.0000 0.7061
vn 0.7061 0.0000 -0.7081
vn 0.0000 1.0000 -0.0000
vn 0.0000 0.7061 -0.7081
vn 0.0000 -0.7081 0.7061
vn 1.0000 0.0000 -0.0000
vn 0.7061 0.7081 0.0000
vn -0.7081 -0.7061 0.0000
vn -0.0000 0.0000 -1.0000
vn 0.0000 0.7061 0.7081
vn 0.0000 -0.7081 -0.7061
vn -1.0000 0.0000 -0.0000
vn 0.7061 -0.7081 0.0000
vn -0.7081 0.7061 0.0000
vn -0.0000 0.0000 1.0000
vn 0.7081 0.0000 0.7061
vn -0.7061 0.0000 -0.7081
vn -0.0000 -1.0000 0.0000
usemtl box_mat
s off
f 9/1/2 10/2/2 6/3/2 5/4/2
f 11/5/3 12/6/3 8/7/3 7/8/3
f 14/9/4 13/10/4 10/11/4 9/12/4
f 12/13/4 11/14/4 13/10/4 14/9/4
f 19/15/5 20/16/5 16/17/5 15/18/5
f 21/19/6 22/20/6 18/21/6 17/22/6
f 24/23/7 23/24/7 20/25/7 19/26/7
f 22/27/7 21/28/7 23/24/7 24/23/7
f 29/29/8 30/30/8 26/31/8 25/32/8
f 31/33/9 32/34/9 28/35/9 27/36/9
f 34/37/10 33/38/10 30/39/10 29/40/10
f 32/41/10 31/42/10 33/38/10 34/37/10
f 39/43/11 40/44/11 36/45/11 35/46/11
f 41/47/12 42/48/12 38/49/12 37/50/12
f 44/51/13 43/52/13 40/53/13 39/54/13
f 42/55/13 41/56/13 43/52/13 44/51/13
f 49/57/14 50/58/14 46/59/14 45/60/14
f 51/61/15 52/62/15 48/63/15 47/64/15
f 54/65/16 53/66/16 50/67/16 49/68/16
f 52/69/16 51/70/16 53/66/16 54/65/16
f 59/71/17 60/72/17 56/73/17 55/74/17
f 61/75/18 62/76/18 58/77/18 57/78/18
f 64/79/19 63/80/19 60/81/19 59/82/19
f 62/83/19 61/84/19 63/80/19 64/79/19
f 69/85/7 67/86/7 71/87/7 73/88/7
f 71/89/4 70/90/4 72/91/4 73/92/4
f 66/93/13 68/94/13 72/95/13 70/96/13
f 67/97/10 66/98/10 70/99/10 71/100/10
f 68/101/16 69/102/16 73/103/16 72/104/16
f 77/105/13 75/106/13 79/107/13 81/108/13
f 79/109/16 78/110/16 80/111/16 81/112/16
f 74/113/7 76/114/7 80/115/7 78/116/7
f 75/117/19 74/118/19 78/119/19 79/120/19
f 76/121/4 77/122/4 81/123/4 80/124/4
f 87/125/13 85/126/13 89/127/13 91/128/13
f 82/129/10 83/130/10 87/131/10 86/132/10
f 89/133/10 88/134/10 90/135/10 91/136/10
f 84/137/7 86/138/7 90/139/7 88/140/7
f 85/141/4 84/142/4 88/143/4 89/144/4
f 86/145/19 87/146/19 91/147/19 90/148/19
f 95/149/4 93/150/4 97/151/4 99/152/4
f 97/153/13 96/154/13 98/155/13 99/156/13
f 92/157/19 94/158/19 98/159/19 96/160/19
f 93/161/10 92/162/10 96/163/10 97/164/10
f 94/165/16 95/166/16 99/167/16 98/168/16
f 106/169/19 104/170/19 108/171/19 110/172/19
f 100/173/7 102/174/7 105/175/7 103/176/7
f 101/177/7 100/178/7 103/179/7 104/180/7
f 108/181/7 107/182/7 109/183/7 110/184/7
f 103/185/4 105/186/4 109/187/4 107/188/4
f 104/189/10 103/190/10 107/191/10 108/192/10
f 105/193/16 106/194/16 110/195/16 109/196/16
f 116/197/13 114/198/13 118/199/13 120/200/13
f 111/201/19 112/202/19 115/203/19 113/204/19
f 118/205/19 117/206/19 119/207/19 120/208/19
f 113/209/7 115/210/7 119/211/7 117/212/7
f 114/213/10 113/214/10 117/215/10 118/216/10
f 115/217/16 116/218/16 120/219/16 119/220/16
f 82/221/4 65/222/4 67/223/4 69/224/4
f 83/225/4 82/226/4 69/227/4 68/228/4
f 101/229/4 83/230/4 68/231/4 66/232/4
f 65/233/4 101/234/4 66/235/4 67/236/4
f 100/237/16 101/238/16 75/239/16 77/240/16
f 111/241/16 100/242/16 77/243/16 76/244/16
f 65/245/16 111/246/16 76/247/16 74/248/16
f 101/249/16 65/250/16 74/251/16 75/252/16
f 83/253/10 102/254/10 85/255/10 87/256/10
f 112/257/10 82/258/10 86/259/10 84/260/10
f 102/261/10 112/262/10 84/263/10 85/264/10
f 112/265/13 111/266/13 93/267/13 95/268/13
f 82/269/13 112/270/13 95/271/13 94/272/13
f 65/273/13 82/274/13 94/275/13 92/276/13
f 111/277/13 65/278/13 92/279/13 93/280/13
f 83/281/7 101/282/7 104/283/7 106/284/7
f 102/285/7 83/286/7 106/287/7 105/288/7
f 102/289/19 100/290/19 114/291/19 116/292/19
f 112/293/19 102/294/19 116/295/19 115/296/19
f 100/297/19 111/298/19 113/299/19 114/300/19
