# Blender v2.79 (sub 0) OBJ File: 'rocks.blend'
# www.blender.org
mtllib rocks_small_05.mtl
o rocks_small_05_rocks_small_test.036
v 0.388294 0.080116 -0.057098
v 0.332395 0.073135 -0.018686
v 0.283593 -0.001509 0.006086
v 0.293623 -0.041656 -0.013185
v 0.267909 -0.041656 0.027759
v 0.198290 0.047392 -0.034777
v 0.182241 -0.041656 0.013735
v 0.221477 -0.041656 -0.573994
v 0.148528 -0.041656 -0.519310
v 0.248750 0.020325 -0.548507
v 0.266071 -0.041656 -0.540370
v 0.273786 0.113649 -0.053312
v 0.203350 0.139093 -0.108833
v 0.120333 0.077429 -0.093317
v 0.420400 0.128747 -0.189679
v 0.295713 0.164166 -0.200195
v 0.153554 0.145904 -0.182716
v 0.068241 0.087652 -0.171824
v 0.380788 -0.041656 -0.060829
v 0.427141 -0.041656 -0.194159
v 0.142853 0.157335 -0.269917
v 0.059890 0.083292 -0.261395
v 0.283842 0.160727 -0.296344
v 0.400711 0.151119 -0.315807
v 0.426453 -0.041656 -0.326143
v 0.144377 0.148958 -0.331510
v 0.065187 0.080253 -0.353572
v 0.223246 0.137910 -0.422866
v 0.141974 0.063163 -0.450220
v 0.261221 0.151821 -0.369770
v 0.357616 0.144913 -0.405560
v 0.291817 0.115162 -0.492692
v 0.362799 -0.041656 -0.447640
v 0.081333 -0.041656 -0.463215
v 0.024801 -0.041656 -0.397251
v -0.021452 -0.041656 -0.353441
v -0.024963 -0.041656 -0.252835
v -0.017664 -0.041656 -0.160591
v 0.037619 -0.041656 -0.091287
v 0.108150 -0.041656 -0.031516
v -0.240076 0.035660 -0.393930
v -0.244539 -0.023412 -0.427660
v -0.280754 -0.023412 -0.420819
v -0.227681 -0.023412 -0.393898
v -0.257980 0.052941 -0.339413
v -0.249125 -0.023412 -0.308836
v -0.302144 0.072110 -0.256387
v -0.359372 0.080891 -0.178467
v -0.310281 -0.023412 -0.149822
v -0.276886 -0.023412 -0.227621
v -0.335981 -0.023412 -0.399066
v -0.301241 0.059803 -0.361295
v -0.336733 0.070129 -0.305215
v -0.389890 0.078910 -0.142641
v -0.353035 -0.023412 -0.086151
v -0.399451 -0.023412 -0.130464
v -0.386290 0.074604 -0.251155
v -0.427574 0.056805 -0.322924
v -0.500554 -0.023412 -0.250500
v -0.464070 0.058431 -0.214418
v -0.467136 -0.023412 -0.323446
v -0.473724 -0.023412 -0.207443
v -0.435104 -0.023412 -0.173000
v -0.427786 0.077156 -0.177657
v -0.417321 -0.023412 -0.374740
v 0.151383 -0.013518 0.219412
v 0.061602 -0.013518 0.164844
v 0.052795 0.065245 0.152724
v 0.143268 0.062355 0.214337
v -0.039135 0.109584 0.150221
v -0.086048 -0.013518 0.190705
v -0.038380 0.156562 0.219406
v 0.074283 0.133494 0.263037
v 0.200928 0.099953 0.313005
v 0.257850 0.044754 0.273106
v -0.063379 -0.013518 0.256236
v 0.265885 -0.013518 0.277859
v 0.337490 0.025166 0.327061
v 0.328259 -0.013518 0.318607
v 0.043839 0.180005 0.331809
v 0.153410 0.146568 0.380182
v -0.032901 0.196454 0.303649
v 0.338333 0.050857 0.386769
v 0.328122 -0.013518 0.365889
v 0.278306 0.079687 0.357586
v -0.051464 -0.013518 0.310054
v -0.057310 -0.013518 0.369324
v 0.322723 -0.013518 0.417124
v 0.250565 0.111151 0.443630
v 0.320687 0.067648 0.485424
v 0.306413 -0.013518 0.487660
v 0.034087 0.193629 0.447946
v 0.122474 0.163511 0.487334
v -0.035619 0.215735 0.420139
v -0.068233 -0.013518 0.447735
v 0.235163 0.108732 0.517641
v 0.277224 0.052806 0.594010
v 0.278792 -0.013518 0.556973
v -0.046706 0.205654 0.513489
v 0.020161 0.181754 0.529066
v -0.085883 -0.013518 0.523862
v 0.220460 0.090493 0.577670
v 0.098154 0.153880 0.547234
v 0.006159 -0.013518 0.554550
v 0.091359 -0.013518 0.585753
v 0.245811 0.016004 0.622698
v 0.245907 -0.013518 0.613697
v 0.170320 -0.013518 0.616722
v 0.229683 -0.013518 0.649503
v -0.096610 -0.013518 0.100115
v -0.099523 -0.013518 0.122113
v -0.065001 0.006135 0.099410
v -0.043277 -0.013518 0.112140
v -0.058859 -0.013518 0.099740
v -0.019742 0.068372 0.117351
v -0.001674 -0.013518 0.131093
vt 0.616120 0.242405
vt 0.633304 0.219405
vt 0.677662 0.210016
vt 0.694299 0.233330
vt 0.707114 0.204844
vt 0.648818 0.157601
vt 0.707114 0.146107
vt 0.366948 0.189775
vt 0.384518 0.139610
vt 0.403073 0.199990
vt 0.376838 0.222458
vt 0.615665 0.193063
vt 0.594769 0.163468
vt 0.612542 0.119900
vt 0.564855 0.247939
vt 0.559565 0.200237
vt 0.565328 0.143166
vt 0.572010 0.097339
vt 0.656660 0.281776
vt 0.579549 0.327921
vt 0.530582 0.142325
vt 0.528878 0.093146
vt 0.524358 0.197718
vt 0.519610 0.241633
vt 0.500050 0.323568
vt 0.505796 0.144205
vt 0.485940 0.103534
vt 0.472962 0.178765
vt 0.443294 0.141973
vt 0.495706 0.191548
vt 0.485406 0.228982
vt 0.449736 0.209887
vt 0.426891 0.291442
vt 0.402757 0.095251
vt 0.436223 0.056316
vt 0.458191 0.028811
vt 0.521995 0.011688
vt 0.583813 0.011376
vt 0.638554 0.041180
vt 0.683026 0.089892
vt 0.440908 0.360337
vt 0.460532 0.331511
vt 0.484890 0.352301
vt 0.430452 0.326550
vt 0.424291 0.379765
vt 0.376002 0.347775
vt 0.406338 0.418003
vt 0.398450 0.459073
vt 0.331865 0.441991
vt 0.343654 0.391577
vt 0.508640 0.389960
vt 0.452139 0.394522
vt 0.440417 0.422827
vt 0.398213 0.479425
vt 0.336617 0.489824
vt 0.378703 0.521963
vt 0.436416 0.455329
vt 0.481338 0.458581
vt 0.501726 0.539602
vt 0.449230 0.496587
vt 0.530158 0.495523
vt 0.462515 0.544920
vt 0.420812 0.540540
vt 0.422341 0.487154
vt 0.536387 0.445887
vt 0.978129 0.817357
vt 0.980822 0.871954
vt 0.947255 0.887313
vt 0.947806 0.841292
vt 0.921309 0.925145
vt 0.904532 0.986617
vt 0.901501 0.917883
vt 0.912814 0.873411
vt 0.916324 0.822002
vt 0.940456 0.789561
vt 0.875984 0.990483
vt 0.959142 0.762963
vt 0.925726 0.759236
vt 0.938345 0.743608
vt 0.886626 0.883477
vt 0.888011 0.844077
vt 0.882007 0.910205
vt 0.904006 0.765912
vt 0.921578 0.735630
vt 0.908879 0.791538
vt 0.856021 0.990310
vt 0.834640 0.989198
vt 0.899673 0.735425
vt 0.879263 0.808509
vt 0.871673 0.778682
vt 0.868322 0.746340
vt 0.858835 0.884277
vt 0.855435 0.856740
vt 0.858570 0.906117
vt 0.809589 0.979477
vt 0.855861 0.815959
vt 0.835695 0.796672
vt 0.837268 0.764020
vt 0.841833 0.905017
vt 0.837786 0.889728
vt 0.788152 0.957847
vt 0.835315 0.821312
vt 0.836036 0.865609
vt 0.780891 0.919251
vt 0.781778 0.877556
vt 0.815838 0.801905
vt 0.812013 0.789482
vt 0.791240 0.835472
vt 0.798810 0.803870
vt 0.946946 0.970661
vt 0.936967 0.975311
vt 0.947815 0.950808
vt 0.962059 0.939441
vt 0.957209 0.950610
vt 0.939073 0.922030
vt 0.973214 0.913401
vn 0.5406 -0.1031 0.8349
vn 0.5721 -0.1040 0.8136
vn 0.6120 -0.1910 0.7674
vn 0.5626 -0.1438 0.8141
vn 0.8460 -0.0437 0.5313
vn -0.1595 0.4731 0.8665
vn -0.2968 0.5113 0.8065
vn -0.2962 0.5004 0.8136
vn -0.1388 0.5119 0.8478
vn -0.5159 0.5100 -0.6882
vn -0.5283 0.5495 -0.6472
vn -0.4752 0.5281 -0.7038
vn 0.6008 0.0633 -0.7969
vn 0.6719 0.0913 -0.7350
vn 0.6556 0.0876 -0.7500
vn -0.2626 0.5122 0.8177
vn -0.2177 0.4327 0.8748
vn -0.4056 0.6827 0.6078
vn -0.5116 0.6000 0.6151
vn 0.2535 0.8762 0.4098
vn 0.2076 0.9017 0.3792
vn 0.2558 0.8148 0.5203
vn 0.2422 0.9323 0.2685
vn 0.0945 0.9813 0.1677
vn -0.4863 0.7715 0.4102
vn -0.6094 0.6229 0.4906
vn -0.0111 0.9671 0.2542
vn 0.9590 -0.0130 0.2833
vn 0.9424 -0.0681 0.3276
vn 0.9927 0.0447 0.1117
vn 0.9990 0.0390 0.0199
vn -0.6128 0.7831 0.1063
vn -0.6531 0.7563 0.0386
vn -0.7432 0.6691 0.0021
vn -0.7063 0.7071 0.0342
vn -0.1078 0.9827 0.1505
vn 0.0175 0.9965 -0.0814
vn -0.0709 0.9974 -0.0146
vn 0.1231 0.9922 -0.0178
vn 0.9600 0.1412 -0.2419
vn 0.9548 0.1088 -0.2766
vn -0.6314 0.7662 -0.1198
vn -0.7506 0.6574 -0.0662
vn -0.4827 0.7144 -0.5066
vn -0.4431 0.6909 -0.5713
vn -0.5303 0.5600 -0.6365
vn -0.5879 0.5651 -0.5788
vn -0.0451 0.9686 -0.2447
vn -0.0730 0.9861 -0.1492
vn -0.0229 0.9856 -0.1675
vn 0.0161 0.9841 -0.1770
vn -0.0085 0.9483 -0.3173
vn 0.8460 0.1396 -0.5146
vn 0.7981 0.1321 -0.5879
vn 0.7303 0.1370 -0.6693
vn -0.4060 0.6257 -0.6661
vn -0.6188 0.4590 -0.6375
vn -0.6446 0.4443 -0.6222
vn -0.6180 0.4385 -0.6525
vn -0.8148 0.5790 -0.0285
vn -0.8246 0.5656 0.0107
vn -0.8285 0.5561 0.0655
vn -0.6782 0.4975 0.5409
vn -0.6509 0.4696 0.5965
vn -0.5048 0.4505 0.7364
vn 0.4789 -0.0564 0.8761
vn -0.2113 0.5217 -0.8265
vn -0.1609 0.4985 -0.8518
vn -0.2387 0.5077 -0.8278
vn 0.9733 0.2066 -0.0996
vn 0.9745 0.2045 0.0921
vn 0.9176 0.2333 0.3219
vn 0.9140 0.2624 0.3096
vn 0.8793 0.1843 -0.4391
vn 0.8402 0.3646 0.4014
vn 0.6949 0.4753 0.5397
vn 0.7541 0.4607 0.4680
vn 0.8779 0.3351 0.3421
vn -0.2839 0.4962 -0.8205
vn -0.2650 0.5029 -0.8227
vn 0.1418 0.9751 -0.1704
vn -0.0083 0.9883 -0.1522
vn 0.0718 0.9934 -0.0899
vn 0.2342 0.9585 -0.1624
vn 0.6776 0.4886 0.5496
vn 0.7097 0.5188 0.4766
vn -0.6828 0.1489 0.7152
vn -0.6769 0.1490 0.7208
vn -0.7108 0.1273 0.6918
vn -0.1090 0.9873 -0.1154
vn -0.0297 0.9981 -0.0544
vn -0.1600 0.9738 -0.1616
vn -0.8269 0.4589 -0.3250
vn -0.8229 0.4921 -0.2841
vn -0.6192 0.4738 -0.6262
vn -0.7745 0.3852 -0.5018
vn -0.8399 0.1437 0.5234
vn -0.7576 0.1436 0.6367
vn -0.7422 0.1110 0.6609
vn -0.7251 0.1035 0.6808
vn -0.7153 0.1104 0.6900
vn -0.2708 0.9501 -0.1550
vn -0.4193 0.4542 -0.7861
vn -0.1536 0.9828 -0.1026
vn -0.0544 0.9985 0.0088
vn 0.2577 0.9422 -0.2140
vn 0.4972 -0.0181 -0.8675
vn 0.4891 -0.0702 -0.8694
vn 0.4794 -0.0687 -0.8749
vn 0.5174 -0.0019 -0.8558
vn -0.9403 0.3216 -0.1117
vn -0.9330 0.3080 0.1862
vn -0.9804 0.1966 -0.0136
vn 0.3727 0.7418 -0.5575
vn 0.3576 0.7968 -0.4871
vn 0.3713 0.7995 -0.4721
vn 0.3905 0.7470 -0.5380
vn 0.4105 0.8168 -0.4053
vn 0.4413 0.7689 -0.4626
vn -0.9604 0.1511 0.2340
vn 0.5129 0.0067 -0.8584
vn 0.4981 -0.0022 -0.8671
vn 0.5533 0.0345 -0.8323
vn 0.5462 0.0524 -0.8360
vn 0.3350 0.9064 -0.2573
vn 0.3834 0.9066 -0.1764
vn 0.3078 0.8982 -0.3139
vn 0.9788 -0.2016 0.0353
vn 0.9774 -0.1644 0.1328
vn 0.9787 -0.1954 0.0637
vn 0.9725 -0.2327 0.0028
vn 0.4745 0.8278 -0.2993
vn 0.5294 0.8226 -0.2076
vn 0.5078 0.7688 -0.3886
vn -0.9943 0.0896 0.0570
vn -0.9934 0.1138 -0.0115
vn -0.9889 0.1046 -0.1054
vn 0.9714 -0.1646 0.1714
vn 0.4554 0.8899 -0.0248
vn 0.5192 0.8472 0.1123
vn 0.9467 -0.1572 0.2813
vn 0.9414 -0.1573 0.2985
vn 0.3013 0.9521 0.0515
vn 0.3259 0.9362 0.1314
vn -0.9898 0.1170 -0.0811
vn -0.9757 0.1399 -0.1685
vn 0.4316 0.8680 0.2458
vn 0.8756 -0.2034 0.4381
vn 0.8947 -0.1954 0.4018
vn 0.2728 0.9483 0.1621
vn 0.2916 0.9380 0.1874
vn 0.2847 0.9586 -0.0097
vn -0.9614 0.1613 -0.2229
vn -0.9827 0.1347 -0.1272
vn 0.4061 0.8419 0.3553
vn 0.4791 0.8128 0.3313
vn 0.3011 0.9174 0.2603
vn -0.2904 0.1543 0.9444
vn -0.1770 0.1398 0.9742
vn -0.2199 0.1281 0.9671
vn -0.3146 0.1009 0.9438
vn -0.1837 0.1862 0.9652
vn -0.2777 0.2878 0.9165
vn 0.8225 -0.1634 0.5448
vn 0.8551 -0.1833 0.4849
vn -0.2560 0.4455 0.8579
vn -0.1149 0.3313 0.9365
vn -0.3357 0.7404 0.5823
vn -0.3333 0.7319 0.5944
vn -0.3346 0.7365 0.5878
vn 0.9041 -0.1220 0.4096
vn -0.3319 0.7271 0.6010
vn -0.5278 0.8465 -0.0699
vn 0.6127 0.1786 -0.7699
vn -0.0099 -0.0199 -0.9998
vn -0.5840 0.5334 -0.6119
vn -0.4654 0.4077 -0.7856
vn -0.4970 0.4406 -0.7476
vn -0.6484 0.6048 -0.4624
vn 0.4530 -0.0554 -0.8898
vn 0.4110 -0.1301 -0.9023
vn 0.4276 -0.0743 -0.9009
vn 0.4432 -0.0630 -0.8942
vn -0.8990 0.4007 0.1766
vn 0.3452 0.6791 -0.6478
vn 0.3706 0.7365 -0.5659
vn -0.0272 0.3628 0.9315
usemtl mat_rocks_small
s 1
f 1/1/1 2/2/2 3/3/3 4/4/4
f 3/3/5 5/5/5 4/4/5
f 3/3/6 6/6/7 7/7/8 5/5/9
f 8/8/10 9/9/11 10/10/12
f 8/8/13 10/10/14 11/11/15
f 12/12/16 6/6/7 3/3/6 2/2/17
f 6/6/7 12/12/16 13/13/18 14/14/19
f 1/1/20 12/12/21 2/2/22
f 1/1/20 15/15/23 16/16/24 12/12/21
f 14/14/19 13/13/18 17/17/25 18/18/26
f 13/13/27 12/12/21 16/16/24
f 1/1/28 19/19/29 20/20/30 15/15/31
f 17/17/32 21/21/33 22/22/34 18/18/35
f 17/17/36 13/13/27 16/16/24
f 16/16/24 23/23/37 21/21/38 17/17/36
f 24/24/39 23/23/37 16/16/24 15/15/23
f 20/20/30 25/25/40 24/24/41 15/15/31
f 21/21/33 26/26/42 27/27/43 22/22/34
f 26/26/44 28/28/45 29/29/46 27/27/47
f 28/28/48 26/26/49 30/30/50
f 31/31/51 32/32/52 28/28/48 30/30/50
f 31/31/53 33/33/54 32/32/55
f 32/32/56 10/10/12 29/29/46 28/28/45
f 24/24/41 25/25/40 33/33/54 31/31/53
f 10/10/12 9/9/11 34/34/57 29/29/46
f 11/11/15 10/10/14 32/32/55 33/33/54
f 29/29/46 34/34/57 35/35/58 27/27/47
f 35/35/58 36/36/59 27/27/47
f 27/27/43 36/36/60 37/37/61 22/22/34
f 37/37/61 38/38/62 18/18/35 22/22/34
f 18/18/26 38/38/63 39/39/64 14/14/19
f 14/14/19 39/39/64 40/40/65 6/6/7
f 24/24/39 31/31/51 30/30/50 23/23/37
f 30/30/50 26/26/49 21/21/38 23/23/37
f 6/6/7 40/40/65 7/7/8
f 4/4/4 19/19/66 1/1/1
f 41/41/67 42/42/68 43/43/69
f 44/44/70 41/41/71 45/45/72 46/46/73
f 44/44/70 42/42/74 41/41/71
f 47/47/75 48/48/76 49/49/77 50/50/78
f 46/46/73 45/45/72 47/47/75 50/50/78
f 43/43/69 51/51/79 52/52/80 41/41/67
f 52/52/81 53/53/82 47/47/83 45/45/84
f 49/49/77 48/48/76 54/54/85 55/55/86
f 55/55/87 54/54/88 56/56/89
f 57/57/90 48/48/91 47/47/83 53/53/82
f 52/52/81 58/58/92 53/53/82
f 59/59/93 60/60/94 58/58/95 61/61/96
f 59/59/97 62/62/98 60/60/99
f 63/63/100 64/64/101 60/60/99 62/62/98
f 60/60/102 57/57/90 58/58/92
f 58/58/95 65/65/103 61/61/96
f 64/64/104 57/57/90 60/60/102
f 56/56/89 54/54/88 64/64/101 63/63/100
f 48/48/91 57/57/90 64/64/104 54/54/105
f 51/51/79 65/65/103 58/58/95 52/52/80
f 52/52/81 45/45/84 41/41/106
f 58/58/92 57/57/90 53/53/82
f 66/66/107 67/67/108 68/68/109 69/69/110
f 70/70/111 71/71/112 72/72/113
f 68/68/114 72/72/115 73/73/116 69/69/117
f 73/73/116 74/74/118 75/75/119 69/69/117
f 76/76/120 72/72/113 71/71/112
f 77/77/121 75/75/122 78/78/123 79/79/124
f 80/80/125 81/81/126 74/74/118 73/73/116
f 72/72/115 82/82/127 80/80/125 73/73/116
f 78/78/128 83/83/129 84/84/130 79/79/131
f 85/85/132 83/83/133 78/78/134 75/75/119
f 74/74/118 85/85/132 75/75/119
f 86/86/135 82/82/136 76/76/120
f 86/86/135 87/87/137 82/82/136
f 83/83/129 88/88/138 84/84/130
f 89/89/139 90/90/140 83/83/133 85/85/132
f 85/85/132 74/74/118 81/81/126 89/89/139
f 90/90/141 91/91/142 88/88/138 83/83/129
f 92/92/143 93/93/144 81/81/126 80/80/125
f 94/94/145 87/87/137 95/95/146
f 93/93/144 96/96/147 89/89/139 81/81/126
f 90/90/141 97/97/148 98/98/149 91/91/142
f 89/89/139 96/96/147 90/90/140
f 99/99/150 100/100/151 92/92/143 94/94/152
f 95/95/146 101/101/153 99/99/154 94/94/145
f 96/96/147 102/102/155 97/97/156 90/90/140
f 103/103/157 102/102/155 96/96/147 93/93/144
f 104/104/158 100/100/159 99/99/160 101/101/161
f 103/103/162 100/100/159 104/104/158 105/105/163
f 97/97/148 106/106/164 107/107/165 98/98/149
f 105/105/163 108/108/166 102/102/167 103/103/162
f 97/97/168 108/108/169 106/106/170
f 106/106/164 109/109/171 107/107/165
f 109/109/172 106/106/170 108/108/169
f 110/110/173 111/111/173 112/112/173
f 113/113/174 114/114/174 112/112/174
f 114/114/175 110/110/175 112/112/175
f 111/111/176 70/70/177 115/115/178 112/112/179
f 116/116/180 113/113/181 112/112/182 115/115/183
f 115/115/183 68/68/109 67/67/108 116/116/180
f 71/71/112 70/70/111 111/111/184
f 68/68/114 115/115/185 70/70/186
f 103/103/157 93/93/144 92/92/143 100/100/151
f 94/94/152 92/92/143 80/80/125 82/82/127
f 75/75/122 77/77/121 66/66/107 69/69/110
f 68/68/114 70/70/186 72/72/115
f 82/82/136 72/72/113 76/76/120
f 87/87/137 94/94/145 82/82/136
f 97/97/187 102/102/167 108/108/166
