# Blender v2.83.5 OBJ File: 'tile_set_001.blend'
# www.blender.org
mtllib tile_set_001_pw_dx_1_001.mtl
o wall_high_double_X.003_Cube.032
v -0.500000 2.400000 0.250000
v -0.500000 3.000000 0.250000
v -0.500000 2.400000 -0.250000
v -0.500000 3.000000 -0.250000
v 0.500000 2.400000 0.250000
v 0.500000 3.000000 0.250000
v 0.500000 2.400000 -0.250000
v 0.500000 3.000000 -0.250000
v 0.250000 2.400000 0.500000
v 0.250000 3.000000 0.500000
v -0.250000 2.400000 0.500000
v -0.250000 3.000000 0.500000
v 0.250000 2.400000 -0.500000
v 0.250000 3.000000 -0.500000
v -0.250000 2.400000 -0.500000
v -0.250000 3.000000 -0.500000
v 0.250000 3.000000 -0.250000
v -0.250000 3.000000 0.250000
v -0.250000 3.000000 -0.250000
v 0.250000 3.000000 0.250000
v -0.250000 2.400000 0.250000
v 0.250000 2.400000 -0.250000
v -0.250000 2.400000 -0.250000
v 0.250000 2.400000 0.250000
v -0.500000 0.000000 0.250000
v -0.500000 0.600000 0.250000
v -0.500000 0.000000 -0.250000
v -0.500000 0.600000 -0.250000
v 0.500000 0.000000 0.250000
v 0.500000 0.600000 0.250000
v 0.500000 0.000000 -0.250000
v 0.500000 0.600000 -0.250000
v 0.250000 0.000000 0.500000
v 0.250000 0.600000 0.500000
v -0.250000 0.000000 0.500000
v -0.250000 0.600000 0.500000
v 0.250000 0.000000 -0.500000
v 0.250000 0.600000 -0.500000
v -0.250000 0.000000 -0.500000
v -0.250000 0.600000 -0.500000
v 0.250000 0.600000 -0.250000
v -0.250000 0.600000 0.250000
v -0.250000 0.600000 -0.250000
v 0.250000 0.600000 0.250000
v -0.250000 0.000000 0.250000
v 0.250000 0.000000 -0.250000
v -0.250000 0.000000 -0.250000
v 0.250000 0.000000 0.250000
vt 0.500000 0.500000
vt 0.500000 0.000000
vt 0.666667 0.000000
vt 0.666667 0.500000
vt 0.083333 0.000000
vt 0.250000 0.000000
vt 0.250000 0.083333
vt 0.083333 0.083333
vt 0.500000 0.000000
vt 0.500000 0.500000
vt 0.333333 0.500000
vt 0.333333 0.000000
vt 0.333333 0.250000
vt 0.250000 0.250000
vt 0.333333 0.083333
vt 0.083333 0.333333
vt 0.250000 0.333333
vt 0.250000 0.416667
vt 0.083333 0.416667
vt 0.250000 0.666667
vt 0.083333 0.666667
vt 0.083333 0.583333
vt 0.250000 0.583333
vt 0.666667 0.500000
vt 0.666667 0.000000
vt 0.833333 0.000000
vt 0.833333 0.500000
vt 0.250000 0.333333
vt 0.083333 0.333333
vt 0.083333 0.250000
vt 0.833333 0.500000
vt 0.833333 0.000000
vt 1.000000 0.000000
vt 1.000000 0.500000
vt 0.333333 0.583333
vt 0.333333 0.416667
vt 0.000000 0.250000
vt 0.000000 0.083333
vt 0.000000 0.583333
vt 0.000000 0.416667
vt 0.750000 0.500000
vt 0.833333 0.500000
vt 0.833333 1.000000
vt 0.750000 1.000000
vt 0.666667 0.500000
vt 0.666667 1.000000
vt 0.583333 1.000000
vt 0.583333 0.500000
vt 0.916667 1.000000
vt 0.916667 0.500000
vt 1.000000 0.500000
vt 1.000000 1.000000
vt 0.416667 0.500000
vt 0.500000 0.500000
vt 0.500000 1.000000
vt 0.416667 1.000000
vt 0.333333 0.500000
vt 0.416666 0.500000
vt 0.416667 1.000000
vt 0.333333 1.000000
vt 0.833333 1.000000
vt 0.833333 0.500000
vt 0.916667 0.500000
vt 0.916667 1.000000
vt 0.583333 1.000000
vt 0.500000 1.000000
vt 0.500000 0.500000
vt 0.583333 0.500000
vt 0.666667 0.500000
vt 0.750000 0.500000
vt 0.750000 1.000000
vt 0.666667 1.000000
vt 0.500000 0.500000
vt 0.500000 0.000000
vt 0.666667 0.000000
vt 0.666667 0.500000
vt 0.083333 0.000000
vt 0.250000 0.000000
vt 0.250000 0.083333
vt 0.083333 0.083333
vt 0.500000 0.000000
vt 0.500000 0.500000
vt 0.333333 0.500000
vt 0.333333 0.000000
vt 0.333333 0.250000
vt 0.250000 0.250000
vt 0.333333 0.083333
vt 0.083333 0.333333
vt 0.250000 0.333333
vt 0.250000 0.416667
vt 0.083333 0.416667
vt 0.250000 0.666667
vt 0.083333 0.666667
vt 0.083333 0.583333
vt 0.250000 0.583333
vt 0.666667 0.500000
vt 0.666667 0.000000
vt 0.833333 0.000000
vt 0.833333 0.500000
vt 0.250000 0.333333
vt 0.083333 0.333333
vt 0.083333 0.250000
vt 0.833333 0.500000
vt 0.833333 0.000000
vt 1.000000 0.000000
vt 1.000000 0.500000
vt 0.333333 0.583333
vt 0.333333 0.416667
vt 0.000000 0.250000
vt 0.000000 0.083333
vt 0.000000 0.583333
vt 0.000000 0.416667
vt 0.750000 0.500000
vt 0.833333 0.500000
vt 0.833333 1.000000
vt 0.750000 1.000000
vt 0.666667 0.500000
vt 0.666667 1.000000
vt 0.583333 1.000000
vt 0.583333 0.500000
vt 0.916667 1.000000
vt 0.916667 0.500000
vt 1.000000 0.500000
vt 1.000000 1.000000
vt 0.416667 0.500000
vt 0.500000 0.500000
vt 0.500000 1.000000
vt 0.416667 1.000000
vt 0.333333 0.500000
vt 0.416666 0.500000
vt 0.416667 1.000000
vt 0.333333 1.000000
vt 0.833333 1.000000
vt 0.833333 0.500000
vt 0.916667 0.500000
vt 0.916667 1.000000
vt 0.583333 1.000000
vt 0.500000 1.000000
vt 0.500000 0.500000
vt 0.583333 0.500000
vt 0.666667 0.500000
vt 0.750000 0.500000
vt 0.750000 1.000000
vt 0.666667 1.000000
vn -1.0000 0.0000 0.0000
vn 0.0000 -1.0000 0.0000
vn 1.0000 0.0000 0.0000
vn 0.0000 1.0000 0.0000
vn 0.0000 0.0000 1.0000
vn 0.0000 0.0000 -1.0000
usemtl None
s off
f 1/1/1 2/2/1 4/3/1 3/4/1
f 7/5/2 5/6/2 24/7/2 22/8/2
f 7/9/3 8/10/3 6/11/3 5/12/3
f 11/13/2 21/14/2 24/7/2 9/15/2
f 6/16/4 8/17/4 17/18/4 20/19/4
f 4/20/4 2/21/4 18/22/4 19/23/4
f 9/24/5 10/25/5 12/26/5 11/27/5
f 1/28/2 3/29/2 23/30/2 21/14/2
f 15/31/6 16/32/6 14/33/6 13/34/6
f 16/35/4 19/23/4 17/18/4 14/36/4
f 23/30/2 15/37/2 13/38/2 22/8/2
f 18/22/4 12/39/4 10/40/4 20/19/4
f 22/8/2 24/7/2 21/14/2 23/30/2
f 17/18/4 19/23/4 18/22/4 20/19/4
f 12/41/1 18/42/1 21/43/1 11/44/1
f 2/45/5 1/46/5 21/47/5 18/48/5
f 3/49/6 4/50/6 19/51/6 23/52/6
f 19/53/1 16/54/1 15/55/1 23/56/1
f 9/57/3 24/58/3 20/59/3 10/60/3
f 5/61/5 6/62/5 20/63/5 24/64/5
f 14/65/3 17/66/3 22/67/3 13/68/3
f 7/69/6 22/70/6 17/71/6 8/72/6
f 25/73/1 26/74/1 28/75/1 27/76/1
f 31/77/2 29/78/2 48/79/2 46/80/2
f 31/81/3 32/82/3 30/83/3 29/84/3
f 35/85/2 45/86/2 48/79/2 33/87/2
f 30/88/4 32/89/4 41/90/4 44/91/4
f 28/92/4 26/93/4 42/94/4 43/95/4
f 33/96/5 34/97/5 36/98/5 35/99/5
f 25/100/2 27/101/2 47/102/2 45/86/2
f 39/103/6 40/104/6 38/105/6 37/106/6
f 40/107/4 43/95/4 41/90/4 38/108/4
f 47/102/2 39/109/2 37/110/2 46/80/2
f 42/94/4 36/111/4 34/112/4 44/91/4
f 46/80/2 48/79/2 45/86/2 47/102/2
f 41/90/4 43/95/4 42/94/4 44/91/4
f 36/113/1 42/114/1 45/115/1 35/116/1
f 26/117/5 25/118/5 45/119/5 42/120/5
f 27/121/6 28/122/6 43/123/6 47/124/6
f 43/125/1 40/126/1 39/127/1 47/128/1
f 33/129/3 48/130/3 44/131/3 34/132/3
f 29/133/5 30/134/5 44/135/5 48/136/5
f 38/137/3 41/138/3 46/139/3 37/140/3
f 31/141/6 46/142/6 41/143/6 32/144/6
