# Blender v2.83.5 OBJ File: 'tile_set_002.blend'
# www.blender.org
mtllib dungeon_001_sol_001.mtl
o base_model_opening_portal_single.001_Cube.046
v -0.250000 0.000000 0.500000
v -0.250000 3.000000 0.500000
v -0.250000 0.000000 -0.500000
v -0.250000 3.000000 -0.500000
v -0.500000 0.000000 0.500000
v -0.500000 3.000000 -0.500000
v -0.500000 3.000000 0.500000
v -0.500000 0.000000 -0.500000
v 0.250000 0.000000 0.250000
v 0.250000 0.375000 0.250000
v -0.250000 0.000000 -0.250000
v 0.250000 0.375000 -0.250000
v -0.250000 0.375000 -0.250000
v -0.250000 0.000000 0.250000
v 0.250000 0.000000 -0.250000
v -0.250000 0.375000 0.250000
v 0.500000 0.000000 0.250000
v 0.500000 0.375000 0.250000
v 0.500000 0.375000 -0.250000
v 0.500000 0.000000 -0.250000
vt 0.124512 0.666341
vt -0.000488 0.666341
vt -0.000488 -0.000326
vt 0.124512 -0.000326
vt 0.374512 0.001139
vt 0.374146 0.667318
vt 0.499512 0.667643
vt 0.499512 -0.000326
vt 0.500488 0.665690
vt -0.000488 0.665690
vt -0.000488 0.008138
vt 0.500488 0.000326
vt 0.000488 0.999674
vt -0.000488 0.666992
vt 0.124756 0.666992
vt 0.125488 1.000000
vt 0.249512 -0.000326
vt 0.249512 0.083008
vt -0.000488 0.083008
vt -0.000488 -0.000326
vt 0.499512 -0.000326
vt 0.499512 0.083171
vt 0.249512 0.085734
vt 0.249512 0.002604
vt 0.499512 -0.000326
vt 0.499512 0.083008
vt 0.249512 0.083008
vt 0.249512 -0.000326
vt 0.249512 -0.000326
vt -0.000488 0.083008
vt -0.000488 -0.000326
vt 0.250000 0.004232
vt 0.250000 0.086914
vt -0.000488 0.090332
vt -0.000488 0.008138
vt 0.374512 0.001139
vt 0.374512 0.084452
vt 0.249512 0.085734
vt 0.249512 0.002604
vt 0.249512 -0.000326
vt 0.249512 0.083008
vt 0.124512 0.083008
vt 0.124512 -0.000326
vt 0.499512 -0.000326
vt 0.499512 0.083008
vt 0.374512 0.083008
vt 0.374512 -0.000326
vn 0.0000 0.0000 -1.0000
vn -1.0000 0.0000 0.0000
vn 0.0000 0.0000 1.0000
vn 1.0000 0.0000 -0.0000
vn 0.0000 1.0000 -0.0000
usemtl Material.006
s off
f 6/1/1 4/2/1 3/3/1 8/4/1
f 5/5/2 7/6/2 6/1/2 8/4/2
f 2/7/3 7/6/3 5/5/3 1/8/3
f 4/9/4 2/10/4 1/11/4 3/12/4
f 6/13/5 7/14/5 2/15/5 4/16/5
usemtl Material.008
f 14/17/2 16/18/2 13/19/2 11/20/2
f 9/21/3 10/22/3 16/23/3 14/24/3
f 11/25/1 13/26/1 12/27/1 15/28/1
f 13/29/5 16/18/5 10/30/5 12/31/5
usemtl Material.007
f 20/32/4 19/33/4 18/34/4 17/35/4
f 17/36/3 18/37/3 10/38/3 9/39/3
f 12/40/5 10/41/5 18/42/5 19/43/5
f 15/44/1 12/45/1 19/46/1 20/47/1
