# Blender v2.83.5 OBJ File: 'biome_tileset_town_001.blend'
# www.blender.org
mtllib town_1_hw_sw_001.mtl
o town_1_hw_sw_002_tile_set_001_hw_sc_1_001_Cube.002
v -0.500000 0.000000 -0.750000
v -0.500000 3.000000 -0.500000
v 0.500000 3.000000 -0.500000
v 0.500000 0.000000 -0.750000
v 0.500000 3.000000 0.500000
v -0.500000 3.000000 0.500000
v -0.500000 1.500000 -0.757550
v 0.500000 1.500000 -0.757550
v -0.500000 2.250000 -0.654361
v 0.500000 0.750000 -0.659394
v -0.500000 0.750000 -0.659394
v 0.500000 2.250000 -0.654361
v -0.500000 2.625000 -0.697147
v 0.500000 0.375000 -0.666945
v -0.500000 1.125000 -0.787752
v 0.500000 1.875000 -0.719798
v -0.500000 1.875000 -0.719798
v 0.500000 1.125000 -0.787752
v -0.500000 0.375000 -0.666945
v 0.500000 2.625000 -0.697147
vt 0.499512 0.574544
vt 0.499512 0.665690
vt -0.000488 0.665690
vt -0.000488 0.574544
vt -0.000488 0.666992
vt 0.499512 0.666992
vt 0.499512 1.000326
vt -0.000488 1.000326
vt 0.499512 0.251628
vt 0.499512 0.332357
vt -0.000488 0.332357
vt -0.000488 0.251628
vt 0.499512 0.086914
vt 0.499512 0.167643
vt -0.000488 0.167643
vt -0.000488 0.086914
vt 0.499512 0.413086
vt 0.499512 0.493815
vt -0.000488 0.493815
vt -0.000488 0.413086
vt 0.499512 -0.000326
vt -0.000488 -0.000326
vn 0.0000 0.1841 -0.9829
vn 0.0000 0.4653 -0.8851
vn 0.0000 1.0000 0.0000
vn 0.0000 -0.1244 -0.9922
vn 0.0000 0.0902 -0.9959
vn 0.0000 0.1188 -0.9929
vn 0.0000 -0.1542 -0.9880
vn 0.0000 0.1361 -0.9907
vn 0.0000 0.0296 -0.9996
vn 0.0000 0.2162 -0.9763
usemtl town_biome_material.008
s 1
f 13/1/1 2/2/2 3/3/2 20/4/1
f 3/5/3 2/6/3 6/7/3 5/8/3
f 15/9/4 7/10/5 8/11/5 18/12/4
f 19/13/6 11/14/7 10/15/7 14/16/6
f 17/17/8 9/18/9 12/19/9 16/20/8
f 7/10/5 17/17/8 16/20/8 8/11/5
f 1/21/10 19/13/6 14/16/6 4/22/10
f 11/14/7 15/9/4 18/12/4 10/15/7
f 9/18/9 13/1/1 20/4/1 12/19/9
