# Blender v2.83.5 OBJ File: 'biome_tileset_town_001.blend'
# www.blender.org
mtllib town_1_hw_dw_001.mtl
o town_1_hw_dw_001_Cube.063
v -0.500000 3.000000 0.250000
v -0.500000 0.000000 -0.271390
v 0.500000 3.000000 0.250000
v 0.500000 0.000000 -0.271390
v -0.250000 3.000000 -0.263082
v 0.355821 3.000000 0.260617
v 0.250000 0.000000 -0.331689
v -0.500000 0.799845 0.225413
v -0.500000 2.166924 0.209653
v -0.500000 2.625000 0.271390
v -0.500000 2.625000 -0.271390
v -0.500000 2.166924 -0.209653
v -0.500000 1.483385 -0.257035
v -0.500000 0.799845 -0.225413
v 0.500000 2.625000 -0.271390
v 0.500000 2.166924 -0.209653
v 0.500000 1.141615 -0.257035
v 0.500000 0.799845 -0.225413
v 0.500000 0.458076 -0.233495
v 0.500000 2.166924 0.209653
v 0.500000 1.141615 0.257035
v 0.500000 0.458076 0.233495
v -0.315540 0.387965 0.275682
v -0.300592 0.765928 0.306087
v -0.295412 1.131299 0.304528
v -0.242079 2.633281 -0.278334
v -0.244864 2.244544 -0.239613
v -0.236030 1.481358 -0.266411
v -0.262406 1.098852 -0.293797
v -0.275524 0.732030 -0.291402
v -0.272746 0.403383 -0.293897
v 0.289660 2.617914 0.237766
v 0.265651 1.488946 0.256925
v 0.287546 0.397351 0.257667
v 0.241033 2.595928 -0.291445
v 0.239549 2.236726 -0.275171
v 0.248492 1.896441 -0.276938
v 0.248663 0.380218 -0.297404
v -0.500000 0.000000 0.271390
v -0.500000 3.000000 -0.250000
v 0.500000 0.000000 0.271390
v 0.500000 3.000000 -0.250000
v 0.250000 3.000000 -0.263082
v -0.365547 3.000000 0.267240
v -0.365547 0.000000 0.267240
v -0.250000 0.000000 -0.331689
v 0.335650 0.000000 0.244245
v -0.500000 0.458076 0.233495
v -0.500000 1.141615 0.257035
v -0.500000 1.483385 0.257035
v -0.500000 1.825155 0.225413
v -0.500000 1.825155 -0.225413
v -0.500000 1.141615 -0.257035
v -0.500000 0.458076 -0.233495
v 0.500000 1.825155 -0.225413
v 0.500000 1.483385 -0.257035
v 0.500000 2.625000 0.271390
v 0.500000 1.825155 0.225413
v 0.500000 1.483385 0.257035
v 0.500000 0.799845 0.225413
v -0.022616 0.354497 0.282641
v -0.014949 0.000000 0.298234
v -0.015082 0.749305 0.294308
v -0.012763 1.157101 0.302335
v -0.025597 1.493742 0.281264
v -0.033677 1.842489 0.280351
v -0.026897 2.223454 0.279005
v -0.023654 2.595710 0.275405
v -0.004863 3.000000 0.306419
v -0.318914 1.477407 0.267339
v -0.335242 1.821736 0.257941
v -0.333114 2.184395 0.275360
v -0.330695 2.571285 0.287961
v -0.240848 1.863591 -0.240523
v 0.282317 2.233403 0.230135
v 0.267800 1.851956 0.241204
v 0.272377 1.153395 0.270860
v 0.284237 0.767664 0.253021
v 0.257679 1.503895 -0.281517
v 0.253160 1.113363 -0.278665
v 0.252761 0.738870 -0.275760
v 0.000000 3.000000 -0.295533
v 0.000000 0.000000 -0.382452
v -0.011131 0.358597 -0.328803
v -0.006770 0.692868 -0.302004
v 0.000325 1.082224 -0.296515
v 0.012169 1.495031 -0.295662
v -0.006773 1.898941 -0.294517
v -0.012118 2.264321 -0.293020
v -0.000047 2.623314 -0.313340
vt 0.129395 0.667643
vt 0.376465 0.667643
vt 0.376465 0.749023
vt 0.129395 0.749023
vt 0.376465 1.000326
vt 0.129395 1.000326
vt 0.129395 0.915039
vt 0.376465 0.915039
vt 0.130371 0.330404
vt 0.128418 0.405924
vt -0.000488 0.416992
vt -0.000488 0.333659
vt 0.376465 0.832031
vt 0.129395 0.832031
vt 0.493652 0.666341
vt 0.256348 0.665690
vt 0.245605 0.577799
vt 0.484863 0.584961
vt 0.004395 0.102539
vt 0.004395 -0.000326
vt 0.130371 0.002279
vt 0.130371 0.084310
vt 0.130371 0.583659
vt 0.130371 0.667643
vt -0.000488 0.667643
vt -0.000488 0.583659
vt -0.000488 0.513346
vt 0.233887 0.505534
vt 0.006348 0.571289
vt 0.130371 0.583659
vt 0.130371 0.667643
vt -0.000488 0.667643
vt -0.000488 0.583659
vt 0.004395 0.583659
vt 0.130371 0.583659
vt 0.130371 0.667643
vt 0.004395 0.667643
vt -0.000488 -0.000326
vt 0.130371 0.002279
vt 0.130371 0.084310
vt -0.000488 0.102539
vt 0.130371 0.168294
vt 0.004395 0.179362
vt 0.130371 0.251628
vt 0.004395 0.254232
vt 0.130371 0.334310
vt -0.000488 0.330404
vt 0.130371 0.418294
vt -0.000488 0.405924
vt 0.130371 0.500977
vt 0.004395 0.482747
vt 0.258301 -0.000326
vt 0.384277 -0.000326
vt 0.384277 0.084961
vt 0.258301 0.084961
vt 0.128418 -0.000326
vt 0.128418 0.102539
vt -0.000488 0.084310
vt -0.000488 -0.000326
vt 0.130371 0.179362
vt -0.000488 0.168294
vt 0.130371 0.254232
vt -0.000488 0.251628
vt 0.130371 0.482747
vt -0.000488 0.500977
vt -0.000488 0.410482
vt 0.232910 0.409831
vt 0.002441 0.334310
vt 0.245605 0.334310
vt 0.031738 0.247070
vt 0.247559 0.254232
vt 0.020996 0.171549
vt 0.243652 0.162435
vt 0.020020 0.085612
vt 0.257324 0.083008
vt 0.493652 0.079102
vt 0.246582 0.001628
vt 0.477051 -0.000326
vt 0.258301 0.168294
vt 0.132324 0.168294
vt 0.132324 0.084961
vt 0.258301 0.251628
vt 0.132324 0.251628
vt 0.258301 0.334310
vt 0.132324 0.334310
vt 0.258301 0.417643
vt 0.132324 0.417643
vt 0.384277 0.417643
vt 0.384277 0.500977
vt 0.258301 0.500977
vt 0.258301 0.584310
vt 0.132324 0.584310
vt 0.132324 0.500977
vt 0.258301 0.668294
vt 0.132324 0.668294
vt 0.128418 -0.000326
vt 0.128418 0.102539
vt -0.000488 0.084310
vt -0.000488 -0.000326
vt 0.128418 0.179362
vt -0.000488 0.168294
vt 0.128418 0.254232
vt -0.000488 0.251628
vt 0.128418 0.330404
vt -0.000488 0.333659
vt 0.128418 0.405924
vt -0.000488 0.416992
vt 0.130371 0.482747
vt -0.000488 0.500977
vt 0.004395 0.667643
vt -0.000488 0.583659
vt 0.130371 0.583659
vt 0.130371 0.667643
vt -0.000488 0.482747
vt 0.130371 0.500977
vt -0.000488 0.405924
vt 0.130371 0.418294
vt 0.004395 0.330404
vt 0.004395 0.254232
vt 0.130371 0.251628
vt 0.130371 0.334310
vt 0.004395 0.179362
vt 0.130371 0.168294
vt 0.019043 0.666341
vt 0.467285 0.498372
vt 0.465332 0.410482
vt 0.488770 0.334310
vt 0.463379 0.260091
vt 0.467285 0.153320
vt 0.016113 0.001628
vt 0.384277 0.584310
vt 0.384277 0.668294
vt 0.384277 0.334310
vt 0.384277 0.251628
vt 0.384277 0.168294
vt 0.132324 -0.000326
vn -0.0446 0.7252 0.6870
vn 0.0413 0.7400 -0.6713
vn 0.0587 0.7364 -0.6739
vn 0.0145 0.7025 0.7115
vn -0.0272 0.7354 -0.6770
vn -0.0676 0.7503 0.6576
vn -0.0510 0.7119 0.7004
vn -0.0592 0.7317 -0.6790
vn 0.0342 0.0435 0.9984
vn 0.0611 0.0521 0.9968
vn 0.0950 0.0339 0.9949
vn 0.0683 0.0419 0.9968
vn -0.0079 0.6973 -0.7167
vn 0.0340 0.6636 0.7473
vn 0.0586 -0.0272 0.9979
vn 0.0439 -0.0456 0.9980
vn -0.2347 0.0015 0.9720
vn -0.1094 0.0410 0.9931
vn -0.0859 0.0281 0.9959
vn -0.1084 -0.0039 0.9941
vn -0.0462 -0.0362 -0.9983
vn -0.1027 -0.0234 -0.9944
vn -0.1402 -0.0317 0.9896
vn 0.0655 -0.0067 0.9978
vn -0.0986 -0.0227 0.9948
vn -0.0537 -0.0379 0.9978
vn 0.1052 -0.0103 -0.9944
vn 0.1023 -0.0113 -0.9947
vn 0.2273 0.0839 -0.9702
vn 0.1899 0.1019 -0.9765
vn 0.1737 0.0795 -0.9816
vn 0.2185 0.0578 -0.9741
vn 0.1404 0.0172 -0.9899
vn 0.1783 -0.0102 -0.9839
vn 0.0997 -0.0143 -0.9949
vn 0.1212 -0.0246 -0.9923
vn 0.0970 0.0139 -0.9952
vn 0.1259 0.0217 -0.9918
vn 0.1347 0.0226 -0.9906
vn 0.1901 0.0412 -0.9809
vn 0.1290 -0.0322 -0.9911
vn 0.1993 -0.0227 -0.9796
vn 0.0022 0.1166 -0.9932
vn -0.1935 0.0957 -0.9764
vn -0.1819 0.0625 -0.9813
vn 0.0020 0.0891 -0.9960
vn -0.0124 0.0279 0.9995
vn 0.0635 0.0222 0.9977
vn 0.0795 0.0117 0.9967
vn 0.0479 0.0204 0.9986
vn 0.1051 -0.0277 0.9940
vn 0.1118 -0.0205 0.9935
vn 0.0644 -0.0241 0.9976
vn 0.0865 -0.0047 0.9962
vn 0.0353 -0.0121 0.9993
vn 0.0758 -0.0157 0.9970
vn -0.1282 0.0126 0.9916
vn 0.0356 0.0065 0.9993
vn -0.0897 0.0502 0.9947
vn 0.0285 0.0434 0.9986
vn -0.1129 0.0198 0.9934
vn 0.0550 0.0261 0.9981
vn -0.1470 -0.0309 0.9886
vn 0.0654 -0.0260 0.9975
vn 0.0414 -0.0084 0.9991
vn 0.0311 0.0123 0.9994
vn 0.0203 0.0328 -0.9992
vn 0.0163 0.0104 -0.9998
vn -0.0256 0.0177 -0.9995
vn -0.0688 0.0107 -0.9976
vn -0.1353 0.0320 -0.9903
vn -0.1359 -0.0479 -0.9895
vn -0.0674 -0.0324 -0.9972
vn -0.0305 -0.0052 -0.9995
vn -0.2359 0.0789 -0.9686
vn -0.2534 0.0415 -0.9665
vn -0.2429 -0.0192 -0.9698
vn -0.1517 0.0065 -0.9884
vn -0.1503 0.0036 -0.9886
vn -0.1041 0.0086 -0.9945
vn -0.0699 0.0599 -0.9957
vn -0.0931 0.0466 -0.9946
vn -0.0704 0.0532 -0.9961
vn -0.0760 -0.0343 -0.9965
vn -0.1609 -0.0058 0.9869
vn -0.2664 -0.0398 0.9630
vn -0.2051 0.0269 0.9784
vn -0.1333 0.0525 0.9897
vn -0.2250 0.0062 0.9743
vn -0.3080 -0.0313 0.9509
usemtl town_biome_material.019
s 1
f 3/1/1 42/2/2 43/3/3 6/4/4
f 40/5/5 1/6/6 44/7/7 5/8/8
f 59/9/9 58/10/10 76/11/11 33/12/12
f 43/3/3 82/13/13 5/8/8 44/7/7 69/14/14 6/4/4
f 6/15/4 69/16/14 68/17/15 32/18/16
f 48/19/17 39/20/18 45/21/19 23/22/20
f 11/23/21 40/24/5 5/25/8 26/26/22
f 72/27/23 67/28/24 68/17/15 73/29/25
f 57/30/26 3/31/1 6/32/4 32/33/16
f 15/34/27 35/35/28 43/36/3 42/37/2
f 4/38/29 7/39/30 38/40/31 19/41/32
f 19/41/32 38/40/31 81/42/33 18/43/34
f 18/43/34 81/42/33 80/44/35 17/45/36
f 17/45/36 80/44/35 79/46/37 56/47/38
f 56/47/38 79/46/37 37/48/39 55/49/40
f 55/49/40 37/48/39 36/50/41 16/51/42
f 16/51/42 36/50/41 35/35/28 15/34/27
f 83/52/43 46/53/44 31/54/45 84/55/46
f 41/56/47 22/57/48 34/58/49 47/59/50
f 22/57/48 60/60/51 78/61/52 34/58/49
f 60/60/51 21/62/53 77/63/54 78/61/52
f 21/62/53 59/9/9 33/12/12 77/63/54
f 58/10/10 20/64/55 75/65/56 76/11/11
f 20/64/55 57/30/26 32/33/16 75/65/56
f 71/66/57 66/67/58 67/28/24 72/27/23
f 70/68/59 65/69/60 66/67/58 71/66/57
f 25/70/61 64/71/62 65/69/60 70/68/59
f 24/72/63 63/73/64 64/71/62 25/70/61
f 23/74/20 61/75/65 63/73/64 24/72/63
f 34/76/49 61/75/65 62/77/66 47/78/50
f 84/55/46 85/79/67 81/80/33 38/81/31
f 85/79/67 86/82/68 80/83/35 81/80/33
f 86/82/68 87/84/69 79/85/37 80/83/35
f 87/84/69 88/86/70 37/87/39 79/85/37
f 88/86/70 74/88/71 27/89/72 89/90/73
f 89/90/73 90/91/74 35/92/28 36/93/41
f 90/91/74 82/94/13 43/95/3 35/92/28
f 2/96/75 54/97/76 31/98/45 46/99/44
f 54/97/76 14/100/77 30/101/78 31/98/45
f 14/100/77 53/102/79 29/103/80 30/101/78
f 53/102/79 13/104/81 28/105/82 29/103/80
f 13/104/81 52/106/83 74/107/71 28/105/82
f 52/106/83 12/108/84 27/109/72 74/107/71
f 12/108/84 11/23/21 26/26/22 27/109/72
f 1/110/6 10/111/85 73/112/25 44/113/7
f 10/111/85 9/114/86 72/115/23 73/112/25
f 9/114/86 51/116/87 71/117/57 72/115/23
f 50/118/88 49/119/89 25/120/61 70/121/59
f 49/119/89 8/122/90 24/123/63 25/120/61
f 8/122/90 48/19/17 23/22/20 24/123/63
f 69/16/14 44/124/7 73/29/25 68/17/15
f 67/28/24 75/125/56 32/18/16 68/17/15
f 66/67/58 76/126/11 75/125/56 67/28/24
f 65/69/60 33/127/12 76/126/11 66/67/58
f 64/71/62 77/128/54 33/127/12 65/69/60
f 63/73/64 78/129/52 77/128/54 64/71/62
f 51/116/87 50/118/88 70/121/59 71/117/57
f 61/75/65 34/76/49 78/129/52 63/73/64
f 61/75/65 23/74/20 45/130/19 62/77/66
f 26/131/22 5/132/8 82/94/13 90/91/74
f 27/89/72 26/131/22 90/91/74 89/90/73
f 37/87/39 88/86/70 89/90/73 36/93/41
f 28/133/82 74/88/71 88/86/70 87/84/69
f 29/134/80 28/133/82 87/84/69 86/82/68
f 30/135/78 29/134/80 86/82/68 85/79/67
f 31/54/45 30/135/78 85/79/67 84/55/46
f 7/136/30 83/52/43 84/55/46 38/81/31
