# Blender v2.79 (sub 0) OBJ File: 'dungeon_1_002.blend'
# www.blender.org
mtllib dungeon_001_wall_1td_001.mtl
o dungeon_001_wall_1td_001_Cube.016
v -0.200000 0.150000 0.500000
v -0.200000 3.000000 0.500000
v -0.200000 0.150000 -0.500000
v -0.200000 3.000000 -0.500000
v 0.200000 0.150000 0.500000
v 0.200000 3.000000 0.500000
v 0.200000 0.150000 -0.500000
v 0.200000 3.000000 -0.500000
v -0.500000 0.150000 -0.500000
v -0.500000 0.150000 0.500000
v -0.500000 0.000000 -0.500000
v -0.500000 0.000000 0.500000
v 0.500000 0.150000 0.500000
v 0.500000 0.150000 -0.500000
v 0.500000 0.000000 0.500000
v 0.500000 0.000000 -0.500000
v -0.200000 3.150000 0.500000
v -0.200000 3.150000 -0.500000
v 0.200000 3.150000 -0.500000
v 0.200000 3.150000 0.500000
v -0.200000 3.300000 0.500000
v -0.200000 3.300000 -0.500000
v 0.200000 3.300000 -0.500000
v 0.200000 3.300000 0.500000
v -0.500000 3.000000 0.500000
v -0.500000 3.000000 -0.500000
v -0.350000 3.150000 0.500000
v -0.350000 3.150000 -0.500000
v 0.500000 3.000000 -0.500000
v 0.500000 3.000000 0.500000
v 0.350000 3.150000 -0.500000
v 0.350000 3.150000 0.500000
vt 1.000000 0.562500
vt 1.000000 0.958496
vt 0.500000 0.958496
vt 0.500000 0.562500
vt 1.000000 0.562500
vt 1.000000 0.958496
vt 0.500488 0.958496
vt 0.500488 0.562500
vt 0.500000 0.520996
vt 1.000000 0.520996
vt 0.500488 0.520996
vt 1.000000 0.520996
vt 0.500000 0.500000
vt 1.000000 0.500000
vt 0.500488 0.500000
vt 1.000000 0.500000
vt 0.500000 0.627930
vt 1.000000 0.627930
vt 1.000000 0.680176
vt 0.500000 0.680176
vt 1.000000 0.820312
vt 0.500000 0.820312
vt 1.000000 0.873047
vt 0.500000 0.873047
vt 1.000000 1.000000
vt 0.500000 1.000000
vt 0.500000 0.925781
vt 1.000000 0.925781
vt 1.000000 1.000000
vt 0.500000 1.000000
vt 0.500000 0.500977
vt 1.000000 0.500977
vt 1.000000 0.574707
vt 0.500000 0.574707
vt 1.000000 1.000000
vt 0.500488 1.000000
vn -1.0000 0.0000 0.0000
vn 1.0000 0.0000 0.0000
vn 0.0000 1.0000 0.0000
vn -0.7071 0.7071 0.0000
vn 0.0000 -1.0000 0.0000
vn 0.7071 0.7071 0.0000
usemtl None
s off
f 1/1/1 2/2/1 4/3/1 3/4/1
f 7/5/2 8/6/2 6/7/2 5/8/2
f 1/1/3 3/4/3 9/9/3 10/10/3
f 7/5/3 5/8/3 13/11/3 14/12/3
f 10/10/1 9/9/1 11/13/1 12/14/1
f 14/12/2 13/11/2 15/15/2 16/16/2
f 20/17/2 19/18/2 23/19/2 24/20/2
f 23/19/3 22/21/3 21/22/3 24/20/3
f 18/23/1 17/24/1 21/22/1 22/21/1
f 26/25/4 25/26/4 27/27/4 28/28/4
f 17/24/3 18/23/3 28/28/3 27/27/3
f 4/3/5 2/2/5 25/29/5 26/30/5
f 30/31/6 29/32/6 31/33/6 32/34/6
f 19/18/3 20/17/3 32/34/3 31/33/3
f 6/7/5 8/6/5 29/35/5 30/36/5
