# Blender v2.79 (sub 0) OBJ File: 'dungeon_1_002.blend'
# www.blender.org
mtllib dungeon_001_wall_1ts_001.mtl
o dungeon_001_wall_1ts_001_Cube.017
v -0.200000 0.150000 0.500000
v -0.200000 3.000000 0.500000
v -0.200000 0.150000 -0.500000
v -0.200000 3.000000 -0.500000
v 0.200000 0.150000 0.500000
v 0.200000 3.000000 0.500000
v 0.200000 0.150000 -0.500000
v 0.200000 3.000000 -0.500000
v -0.500000 0.150000 -0.500000
v -0.500000 0.150000 0.500000
v -0.500000 0.000000 -0.500000
v -0.500000 0.000000 0.500000
v 0.500000 0.150000 0.500000
v 0.500000 0.150000 -0.500000
v 0.500000 0.000000 0.500000
v 0.500000 0.000000 -0.500000
v -0.200000 3.150000 0.500000
v -0.200000 3.150000 -0.500000
v 0.200000 3.150000 -0.500000
v 0.200000 3.150000 0.500000
v -0.200000 3.300000 0.500000
v -0.200000 3.300000 -0.500000
v 0.200000 3.300000 -0.500000
v 0.200000 3.300000 0.500000
v -0.500000 3.000000 0.500000
v -0.500000 3.000000 -0.500000
v -0.350000 3.150000 0.500000
v -0.350000 3.150000 -0.500000
v 0.500000 3.000000 -0.500000
v 0.500000 3.000000 0.500000
v 0.350000 3.150000 -0.500000
v 0.350000 3.150000 0.500000
vt 1.000000 0.872070
vt 0.500000 0.872070
vt 0.500000 0.819824
vt 1.000000 0.819824
vt 0.500000 0.680664
vt 1.000000 0.680664
vt 0.500000 0.627930
vt 1.000000 0.627930
vt 0.500000 0.500488
vt 1.000000 0.500488
vt 1.000000 0.574219
vt 0.500000 0.574219
vt 1.000000 1.000000
vt 0.500000 1.000000
vt 0.500000 0.925781
vt 1.000000 0.925781
vt 1.000000 0.500488
vt 1.000000 0.525391
vt 0.850098 0.525391
vt 0.651855 0.525391
vt 0.501953 0.525391
vt 0.501953 0.500488
vt 0.850098 1.000000
vt 0.651855 1.000000
vt 0.500488 0.525391
vt 0.500488 0.500488
vt 1.000000 0.500488
vt 1.000000 0.525391
vt 0.848633 0.525391
vt 0.651855 0.525391
vt 0.848633 0.999512
vt 0.651855 0.999512
vt 0.850098 1.000000
vt 0.650391 1.000000
vt 0.500488 1.000000
vt 0.500488 0.502441
vt 0.650391 0.502441
vt 0.850098 0.502441
vt 1.000000 0.502441
vt 1.000000 1.000000
vn 1.0000 0.0000 0.0000
vn 0.0000 1.0000 0.0000
vn -1.0000 0.0000 0.0000
vn -0.7071 0.7071 0.0000
vn 0.7071 0.7071 0.0000
vn 0.0000 0.0000 -1.0000
vn 0.0000 0.0000 1.0000
vn 0.0000 -1.0000 0.0000
usemtl None
s off
f 20/1/1 19/2/1 23/3/1 24/4/1
f 23/3/2 22/5/2 21/6/2 24/4/2
f 18/7/3 17/8/3 21/6/3 22/5/3
f 26/9/4 25/10/4 27/11/4 28/12/4
f 17/8/2 18/7/2 28/12/2 27/11/2
f 30/13/5 29/14/5 31/15/5 32/16/5
f 19/2/2 20/1/2 32/16/2 31/15/2
f 12/17/6 10/18/6 1/19/6 5/20/6 13/21/6 15/22/6
f 1/19/6 2/23/6 6/24/6 5/20/6
f 9/25/7 11/26/7 16/27/7 14/28/7 7/29/7 3/30/7
f 3/30/7 7/29/7 8/31/7 4/32/7
f 4/33/8 8/34/8 29/35/8 30/36/8 6/37/8 2/38/8 25/39/8 26/40/8
