# Blender v2.79 (sub 0) OBJ File: 'dungeon_dev_001.blend'
# www.blender.org
mtllib dungeon_001_wall_tx.mtl
o Cube_Cube.010
v 0.200000 0.150000 0.500000
v 0.500000 0.150000 0.200000
v 0.200000 0.150000 0.200000
v 0.200000 3.000000 -0.200000
v 0.500000 2.850000 -0.200000
v 0.200000 2.850000 -0.200000
v -0.500000 3.000000 -0.200000
v -0.200000 2.850000 -0.200000
v -0.500000 2.850000 -0.200000
v 0.200000 2.700000 -0.200000
v 0.500000 0.150000 -0.200000
v 0.200000 0.150000 -0.200000
v -0.200000 3.000000 0.500000
v -0.200000 2.850000 0.200000
v -0.200000 2.850000 0.500000
v 0.500000 2.700000 -0.500000
v 0.400000 2.850000 -0.500000
v 0.500000 2.850000 -0.400000
v -0.500000 2.700000 -0.200000
v -0.200000 0.150000 -0.200000
v -0.500000 0.150000 -0.200000
v -0.500000 0.150000 0.500000
v -0.200000 0.150000 0.200000
v -0.500000 0.150000 0.200000
v 0.500000 3.000000 0.200000
v 0.200000 2.850000 0.200000
v 0.500000 2.850000 0.200000
v -0.200000 2.700000 0.200000
v -0.200000 2.700000 0.500000
v -0.500000 2.700000 0.200000
v -0.500000 2.700000 -0.200000
v -0.200000 2.700000 -0.500000
v -0.200000 2.700000 -0.200000
v 0.200000 2.700000 0.200000
v 0.500000 0.150000 -0.500000
v 0.200000 0.150000 -0.500000
v -0.500000 2.850000 0.400000
v -0.500000 2.700000 0.500000
v -0.400000 2.850000 0.500000
v -0.200000 3.000000 -0.200000
v -0.200000 2.850000 -0.500000
v 0.200000 3.000000 -0.500000
v 0.200000 2.850000 -0.500000
v -0.200000 3.000000 0.200000
v -0.500000 2.850000 0.200000
v 0.500000 2.700000 0.200000
v -0.200000 2.700000 0.500000
v -0.200000 0.150000 0.500000
v -0.500000 2.850000 -0.400000
v -0.400000 2.850000 -0.500000
v -0.200000 0.150000 -0.500000
v -0.500000 2.700000 -0.500000
v 0.400000 2.850000 0.500000
v 0.500000 2.850000 0.400000
v 0.500000 2.700000 0.500000
v 0.500000 2.700000 0.200000
v 0.200000 2.700000 0.500000
v 0.200000 2.700000 -0.500000
v -0.500000 0.150000 -0.500000
v 0.200000 2.700000 -0.500000
v 0.500000 2.700000 -0.200000
v 0.200000 3.000000 0.200000
v 0.200000 2.850000 0.500000
v 0.500000 0.150000 0.500000
v 0.500000 3.000000 -0.200000
v 0.200000 2.850000 -0.500000
v -0.200000 3.000000 -0.500000
v -0.500000 3.000000 0.200000
v -0.500000 2.850000 -0.200000
v 0.500000 2.850000 0.200000
v -0.200000 2.850000 0.500000
v 0.200000 3.000000 0.500000
vt 0.088497 0.677414
vt 0.176994 0.569885
vt 0.176994 0.677414
vt 0.044248 1.000000
vt 0.088497 0.892471
vt 0.088497 1.000000
vt 0.265491 0.784942
vt 0.221242 0.892471
vt 0.221242 0.784942
vt 0.911503 0.000000
vt 1.000000 0.913995
vt 0.911503 0.913995
vt 0.088497 0.784942
vt 0.044248 0.892471
vt 0.044248 0.784942
vt 0.290035 0.419444
vt 0.290035 0.484060
vt 0.265491 0.464178
vt 0.823006 0.000000
vt 0.911503 0.913995
vt 0.823006 0.913994
vt 0.176994 0.677414
vt 0.235992 0.569885
vt 0.265491 0.605728
vt 0.176994 0.677414
vt 0.265491 0.784942
vt 0.176994 0.784942
vt 0.000000 1.000000
vt 0.044248 0.892471
vt 0.044248 1.000000
vt 0.734509 0.913995
vt 0.646013 0.000000
vt 0.734509 0.000000
vt 0.000000 0.462356
vt 0.088497 0.569885
vt 0.000000 0.569885
vt 0.265490 0.354827
vt 0.176994 0.462356
vt 0.176994 0.354827
vt 0.469019 0.913995
vt 0.380522 0.000000
vt 0.469019 0.000000
vt 0.000000 0.677414
vt 0.088497 0.569885
vt 0.088497 0.677414
vt 0.290035 0.354827
vt 0.290035 0.419444
vt 0.265491 0.374709
vt 0.044248 0.784942
vt 0.000000 0.892471
vt 0.000000 0.784942
vt 0.176994 0.784942
vt 0.132745 0.892471
vt 0.132745 0.784942
vt 0.176994 0.892471
vt 0.221242 0.784942
vt 0.221242 0.892471
vt 0.823006 0.913995
vt 0.734509 0.000000
vt 0.823006 0.000000
vt 0.557516 0.000000
vt 0.646013 0.913995
vt 0.557516 0.913995
vt 0.235992 0.569885
vt 0.176994 0.462356
vt 0.265491 0.534042
vt 0.469019 0.000000
vt 0.557516 0.913995
vt 0.469019 0.913995
vt 0.147495 0.892471
vt 0.147495 0.946236
vt 0.117996 0.946236
vt 0.176994 0.569885
vt 0.088497 0.498199
vt 0.117996 0.462356
vt 0.117996 0.946236
vt 0.088497 0.892471
vt 0.117996 0.892471
vt 0.088497 0.677414
vt 0.029499 0.784942
vt 0.000000 0.749100
vt 0.088497 0.462356
vt 0.176994 0.354827
vt 0.176994 0.462356
vt 0.380522 0.913995
vt 0.292025 0.000000
vt 0.380522 0.000000
vt 0.062577 0.177413
vt 0.229448 0.177413
vt 0.146012 0.278793
vt 0.088497 0.677414
vt 0.176994 0.784942
vt 0.088497 0.784942
vt 0.088497 0.462356
vt 0.000000 0.354827
vt 0.088497 0.354827
vt 0.088497 0.892471
vt 0.132745 0.784942
vt 0.132745 0.892471
vt 0.088497 0.569885
vt 0.044248 0.892471
vt 0.265491 0.892471
vt 1.000000 0.000000
vt 0.088497 0.892471
vt 0.911503 0.000000
vt 0.265491 0.677414
vt 0.176994 0.569885
vt 0.265491 0.677414
vt 0.000000 0.892471
vt 0.646013 0.913995
vt 0.088497 0.462356
vt 0.265491 0.462356
vt 0.380522 0.913995
vt 0.000000 0.569885
vt 0.044248 0.892471
vt 0.176994 0.892471
vt 0.176994 0.784942
vt 0.734509 0.913995
vt 0.646012 0.000000
vt 0.176994 0.569885
vt 0.265491 0.462356
vt 0.557516 0.000000
vt 0.176994 0.462356
vt 0.088497 0.569885
vt 0.000000 0.677414
vt 0.088497 0.784942
vt 0.088497 0.354827
vt 0.292025 0.913995
vt 0.000000 0.101379
vt 0.083436 0.000000
vt 0.146012 0.076034
vt 0.208589 0.000000
vt 0.292025 0.101379
vt 0.083436 0.354827
vt 0.000000 0.253448
vt 0.292025 0.253448
vt 0.208589 0.354827
vt 0.176994 0.677414
vt 0.000000 0.462356
vt 0.088497 0.784942
vn 0.0000 1.0000 0.0000
vn 0.0000 0.0000 -1.0000
vn -1.0000 0.0000 0.0000
vn 0.6396 0.4264 -0.6396
vn 0.0000 -0.0000 1.0000
vn 0.0000 -1.0000 0.0000
vn 1.0000 0.0000 0.0000
vn -0.6396 0.4264 0.6396
vn -0.6396 0.4264 -0.6396
vn 0.6396 0.4264 0.6396
usemtl None.020
s 1
f 1/1/1 2/2/1 3/3/1
f 4/4/2 5/5/2 6/6/2
f 7/7/2 8/8/2 9/9/2
f 10/10/2 11/11/2 12/12/2
f 13/13/3 14/14/3 15/15/3
f 16/16/4 17/17/4 18/18/4
f 19/19/2 20/20/2 21/21/2
f 6/22/1 18/23/1 17/24/1
f 22/25/1 23/26/1 24/27/1
f 25/28/5 26/29/5 27/30/5
f 28/31/5 24/32/5 23/33/5
f 29/34/6 30/35/6 28/36/6
f 31/37/6 32/38/6 33/39/6
f 34/40/7 1/41/7 3/42/7
f 12/43/1 35/44/1 36/45/1
f 37/46/8 38/47/8 39/48/8
f 40/49/3 41/50/3 8/51/3
f 42/52/7 6/53/7 43/54/7
f 44/55/5 45/56/5 14/57/5
f 46/58/5 3/59/5 2/60/5
f 47/61/3 23/62/3 48/63/3
f 49/64/1 8/65/1 50/66/1
f 33/67/3 51/68/3 20/69/3
f 52/70/9 49/71/9 50/72/9
f 26/73/1 53/74/1 54/75/1
f 55/76/10 54/77/10 53/78/10
f 14/79/1 37/80/1 39/81/1
f 56/82/6 57/83/6 34/84/6
f 58/85/7 12/86/7 36/87/7
f 44/88/1 4/89/1 40/90/1
f 21/91/1 51/92/1 59/93/1
f 60/94/6 61/95/6 10/96/6
f 62/97/7 63/98/7 26/99/7
f 1/1/1 64/100/1 2/2/1
f 4/4/2 65/101/2 5/5/2
f 7/7/2 40/102/2 8/8/2
f 10/10/2 61/103/2 11/11/2
f 13/13/3 44/104/3 14/14/3
f 19/19/2 33/105/2 20/20/2
f 17/24/1 66/106/1 6/22/1
f 6/22/1 5/107/1 18/23/1
f 22/25/1 48/108/1 23/26/1
f 25/28/5 62/109/5 26/29/5
f 28/31/5 30/110/5 24/32/5
f 29/34/6 38/111/6 30/35/6
f 31/37/6 52/112/6 32/38/6
f 34/40/7 57/113/7 1/41/7
f 12/43/1 11/114/1 35/44/1
f 40/49/3 67/115/3 41/50/3
f 42/52/7 4/116/7 6/53/7
f 44/55/5 68/117/5 45/56/5
f 46/58/5 34/118/5 3/59/5
f 47/61/3 28/119/3 23/62/3
f 69/120/1 8/65/1 49/64/1
f 8/65/1 41/121/1 50/66/1
f 33/67/3 32/122/3 51/68/3
f 54/75/1 70/123/1 26/73/1
f 26/73/1 63/124/1 53/74/1
f 39/81/1 71/125/1 14/79/1
f 14/79/1 45/126/1 37/80/1
f 56/82/6 55/127/6 57/83/6
f 58/85/7 10/128/7 12/86/7
f 44/88/1 13/129/1 72/130/1
f 62/131/1 25/132/1 65/133/1
f 44/88/1 72/130/1 62/131/1
f 7/134/1 68/135/1 44/88/1
f 42/136/1 67/137/1 40/90/1
f 40/90/1 7/134/1 44/88/1
f 44/88/1 62/131/1 4/89/1
f 62/131/1 65/133/1 4/89/1
f 4/89/1 42/136/1 40/90/1
f 21/91/1 20/138/1 51/92/1
f 60/94/6 16/139/6 61/95/6
f 62/97/7 72/140/7 63/98/7
