# Blender v2.79 (sub 0) OBJ File: 'dungeon_1_002.blend'
# www.blender.org
mtllib dungeon_001_wall_1te_001.mtl
o dungeon_001_wall_1te_001_dungeon_001_wall_1te_001_Cube.014
v -0.200000 0.150000 0.200000
v -0.200000 3.000000 0.200000
v -0.200000 3.000000 -0.500000
v -0.200000 0.150000 -0.500000
v 0.200000 0.150000 -0.500000
v 0.200000 3.000000 -0.500000
v 0.200000 3.000000 0.200000
v 0.200000 0.150000 0.200000
v -0.500000 0.150000 -0.500000
v -0.500000 0.150000 0.500000
v 0.500000 0.150000 0.500000
v 0.500000 0.150000 -0.500000
v -0.500000 0.000000 -0.500000
v -0.500000 -0.000000 0.500000
v 0.500000 -0.000000 0.500000
v 0.500000 0.000000 -0.500000
v 0.200000 3.150000 0.200000
v 0.200000 3.150000 -0.500000
v 0.200000 3.300000 -0.500000
v 0.200000 3.300000 0.200000
v -0.200000 3.300000 -0.500000
v -0.200000 3.300000 0.200000
v -0.200000 3.150000 -0.500000
v -0.200000 3.150000 0.200000
v -0.500000 3.000000 -0.500000
v -0.500000 3.000000 0.500000
v -0.350000 3.150000 0.350000
v -0.350000 3.150000 -0.500000
v 0.500000 3.000000 0.500000
v 0.500000 3.000000 -0.500000
v 0.350000 3.150000 -0.500000
v 0.350000 3.150000 0.350000
vt 0.894531 0.569336
vt 0.894531 1.000000
vt 0.647461 1.000000
vt 0.647461 0.569336
vt 1.000000 0.569336
vt 1.000000 1.000000
vt 0.752930 1.000000
vt 0.752930 0.569336
vt 0.647461 0.523438
vt 1.000000 0.523438
vt 0.647461 0.523438
vt 1.000000 0.523438
vt 0.647461 0.500488
vt 1.000000 0.500488
vt 0.647461 0.500488
vt 1.000000 0.500488
vt 0.576172 0.664551
vt 0.748535 0.664551
vt 0.748535 0.701172
vt 0.576172 0.701172
vt 0.748535 0.800293
vt 0.576172 0.800293
vt 0.748535 0.837402
vt 0.576172 0.837402
vt 0.748535 0.926270
vt 0.502441 0.926270
vt 0.539062 0.873535
vt 0.748535 0.873535
vt 0.748535 1.000000
vt 0.576172 1.000000
vt 0.502441 0.575684
vt 0.748535 0.575684
vt 0.748535 0.627930
vt 0.539062 0.627930
vt 0.576172 0.501465
vt 0.748535 0.501465
vt 0.894043 0.569824
vt 0.894043 1.000000
vt 0.753418 1.000000
vt 0.753418 0.569824
vt 0.647461 0.523926
vt 1.000000 0.523926
vt 0.647461 0.500977
vt 1.000000 0.500977
vt 0.678711 0.705566
vt 0.579102 0.705566
vt 0.579102 0.667969
vt 0.678711 0.667969
vt 0.503906 0.577637
vt 0.753906 0.577637
vt 0.716309 0.630859
vt 0.541504 0.630859
vt 0.579102 0.502930
vt 0.678711 0.502930
vn -1.0000 -0.0000 0.0000
vn 1.0000 -0.0000 0.0000
vn 0.0000 1.0000 0.0000
vn -0.7071 0.7071 0.0000
vn 0.0000 -1.0000 0.0000
vn 0.7071 0.7071 0.0000
vn 0.0000 -0.0000 1.0000
vn 0.0000 0.7071 0.7071
usemtl None.189
s 1
f 1/1/1 2/2/1 3/3/1 4/4/1
f 5/5/2 6/6/2 7/7/2 8/8/2
f 1/1/3 4/4/3 9/9/3 10/10/3
f 5/5/3 8/8/3 11/11/3 12/12/3
f 10/10/1 9/9/1 13/13/1 14/14/1
f 12/12/2 11/11/2 15/15/2 16/16/2
f 17/17/2 18/18/2 19/19/2 20/20/2
f 19/19/3 21/21/3 22/22/3 20/20/3
f 23/23/1 24/24/1 22/22/1 21/21/1
f 25/25/4 26/26/4 27/27/4 28/28/4
f 24/24/3 23/23/3 28/28/3 27/27/3
f 3/29/5 2/30/5 26/26/5 25/25/5
f 29/31/6 30/32/6 31/33/6 32/34/6
f 18/18/3 17/17/3 32/34/3 31/33/3
f 7/35/5 6/36/5 30/32/5 29/31/5
f 8/37/7 7/38/7 2/39/7 1/40/7
f 8/37/3 1/40/3 10/41/3 11/42/3
f 11/42/7 10/41/7 14/43/7 15/44/7
f 20/45/7 22/46/7 24/47/7 17/48/7
f 26/49/8 29/50/8 32/51/8 27/52/8
f 17/48/3 24/47/3 27/52/3 32/51/3
f 2/53/5 7/54/5 29/50/5 26/49/5
