# Blender v2.79 (sub 0) OBJ File: 'dungeon_1_002.blend'
# www.blender.org
mtllib dungeon_001_wall_1tt_001.mtl
o dungeon_001_wall_1tt_001.001_Cube.009
v 0.200000 3.000000 -0.200000
v 0.200000 3.000000 -0.500000
v 0.200000 3.150000 -0.500000
v -0.200000 3.300000 -0.500000
v 0.200000 3.300000 -0.500000
v 0.350000 3.150000 -0.500000
v 0.350000 3.150000 -0.200000
v 0.500000 0.150000 -0.200000
v 0.500000 3.000000 -0.200000
v 0.200000 0.150000 -0.200000
v 0.500000 0.150000 -0.500000
v 0.200000 0.150000 -0.500000
v 0.200000 3.300000 -0.200000
v 0.500000 3.000000 -0.500000
v 0.200000 3.150000 -0.350000
v 0.500000 3.150000 -0.350000
v 0.350000 3.150000 -0.350000
v -0.200000 3.300000 0.500000
v 0.200000 3.150000 0.200000
v 0.200000 3.300000 0.200000
v 0.200000 3.300000 0.500000
v 0.200000 3.000000 0.200000
v 0.500000 3.000000 0.200000
v 0.200000 3.150000 -0.200000
v 0.500000 3.150000 -0.200000
v 0.500000 3.150000 0.200000
v 0.500000 3.300000 -0.200000
v 0.500000 3.300000 0.200000
v 0.500000 3.150000 0.350000
v 0.200000 3.150000 0.350000
v 0.200000 0.150000 0.500000
v 0.200000 3.000000 0.500000
v 0.200000 0.150000 0.200000
v 0.500000 0.150000 0.500000
v 0.500000 0.150000 0.200000
v 0.200000 3.150000 0.500000
v 0.500000 3.000000 0.500000
v 0.350000 3.150000 0.200000
v 0.350000 3.150000 0.500000
v 0.350000 3.150000 0.350000
v -0.200000 0.150000 0.500000
v -0.200000 3.000000 0.500000
v -0.200000 0.150000 -0.500000
v -0.200000 3.000000 -0.500000
v -0.500000 0.150000 -0.500000
v -0.500000 0.150000 0.500000
v -0.500000 0.000000 -0.500000
v -0.500000 0.000000 0.500000
v -0.200000 3.150000 0.500000
v -0.200000 3.150000 -0.500000
v -0.500000 3.000000 0.500000
v -0.500000 3.000000 -0.500000
v -0.350000 3.150000 0.500000
v -0.350000 3.150000 -0.500000
vt 0.793945 0.549316
vt 0.793945 1.000000
vt 0.653809 1.000000
vt 0.653809 0.549316
vt 0.851562 0.598145
vt 1.000000 0.598145
vt 1.000000 0.642090
vt 0.851562 0.642090
vt 0.927246 0.921875
vt 1.000000 0.916016
vt 0.954102 0.954102
vt 0.895020 0.948242
vt 0.868164 0.916016
vt 0.868164 0.916016
vt 0.952148 0.916016
vt 0.952148 1.000000
vt 0.791504 0.547852
vt 0.791504 0.999023
vt 0.650879 0.999023
vt 0.650879 0.547852
vt 0.650879 0.500488
vt 0.791504 0.500488
vt 0.954102 0.942871
vt 1.000000 0.980469
vt 0.927246 0.975098
vt 0.895020 0.948242
vt 0.921875 0.916016
vt 0.921875 0.980957
vt 0.868164 0.980469
vt 0.952148 1.000000
vt 0.868164 1.000000
vt 0.952148 0.916016
vt 0.504395 0.598145
vt 0.652832 0.598145
vt 0.652832 0.642090
vt 0.504395 0.642090
vt 0.790039 0.547852
vt 0.790039 0.998535
vt 0.649902 0.998535
vt 0.649902 0.547852
vt 0.579102 0.594238
vt 0.579102 0.505371
vt 0.652832 0.505371
vt 0.652832 0.594238
vt 0.851562 0.505371
vt 0.851562 0.594238
vt 0.925293 0.505371
vt 0.925293 0.594238
vt 0.927246 0.921387
vt 1.000000 0.916016
vt 0.954102 0.953613
vt 0.895020 0.948242
vt 0.868164 0.916016
vt 0.868164 0.975098
vt 0.927734 0.916016
vt 0.986816 0.975098
vt 0.790039 0.547852
vt 0.790039 0.999023
vt 0.649902 0.999023
vt 0.649902 0.547852
vt 0.649902 0.500488
vt 0.790039 0.500488
vt 0.954102 0.942871
vt 1.000000 0.980957
vt 0.927246 0.975098
vt 0.895020 0.948242
vt 0.921875 0.916016
vt 0.921875 0.980469
vt 0.868164 0.980957
vt 0.952148 1.000000
vt 0.868164 1.000000
vt 0.952148 0.916016
vt 1.000000 0.568359
vt 1.000000 1.000000
vt 0.500488 1.000000
vt 0.500488 0.568359
vt 0.500488 0.522949
vt 1.000000 0.522949
vt 0.500488 0.500488
vt 1.000000 0.500488
vt 0.504395 0.760742
vt 1.000000 0.760742
vt 1.000000 0.804688
vt 0.504395 0.804688
vt 1.000000 0.911621
vt 0.504395 0.911621
vt 0.504395 0.849121
vt 1.000000 0.849121
vt 1.000000 1.000000
vt 0.504395 1.000000
vn 1.0000 0.0000 0.0000
vn 0.7071 0.7071 0.0000
vn 0.0000 1.0000 0.0000
vn 0.0000 -1.0000 0.0000
vn -0.0000 -0.0000 -1.0000
vn 0.0000 0.7071 -0.7071
vn 0.0000 -0.0000 1.0000
vn 0.0000 0.7071 0.7071
vn -1.0000 0.0000 0.0000
vn -0.7071 0.7071 0.0000
usemtl None
s off
f 12/1/1 2/2/1 1/3/1 10/4/1
f 24/5/1 3/6/1 5/7/1 13/8/1
f 17/9/2 14/10/2 6/11/2
f 15/12/3 24/13/3 17/9/3
f 1/14/4 2/15/4 14/16/4
f 10/17/5 1/18/5 9/19/5 8/20/5
f 10/17/3 8/20/3 11/21/3 12/22/3
f 16/23/6 14/24/6 17/25/6
f 17/25/3 7/26/3 25/27/3 16/23/3
f 6/11/3 3/28/3 15/12/3 17/9/3
f 17/25/3 24/29/3 7/26/3
f 9/30/4 1/31/4 14/32/4
f 36/33/1 19/34/1 20/35/1 21/36/1
f 35/37/7 23/38/7 22/39/7 33/40/7
f 19/41/7 26/42/7 28/43/7 20/44/7
f 28/43/3 27/45/3 13/46/3 20/44/3
f 25/47/5 24/48/5 13/46/5 27/45/5
f 40/49/8 37/50/8 29/51/8
f 38/52/3 19/53/3 40/49/3
f 22/54/4 23/55/4 37/56/4
f 33/57/1 22/58/1 32/59/1 31/60/1
f 33/57/3 31/60/3 34/61/3 35/62/3
f 39/63/2 37/64/2 40/65/2
f 40/65/3 30/66/3 36/67/3 39/63/3
f 29/51/3 26/68/3 38/52/3 40/49/3
f 40/65/3 19/69/3 30/66/3
f 32/70/4 22/71/4 37/72/4
f 41/73/9 42/74/9 44/75/9 43/76/9
f 41/73/3 43/76/3 45/77/3 46/78/3
f 46/78/9 45/77/9 47/79/9 48/80/9
f 18/81/9 4/82/9 50/83/9 49/84/9
f 52/85/10 51/86/10 53/87/10 54/88/10
f 49/84/3 50/83/3 54/88/3 53/87/3
f 44/89/4 42/90/4 51/86/4 52/85/4
f 5/7/3 4/82/3 18/81/3 21/36/3 20/35/3 13/8/3
