# Blender v2.79 (sub 0) OBJ File: 'dungeon_1_002.blend'
# www.blender.org
mtllib dungeon_001_wall_1tl_001.mtl
o dungeon_001_wall_1tl_001_Cube.001
v -0.200000 0.150000 0.500000
v -0.200000 3.000000 0.500000
v -0.200000 3.000000 -0.500000
v 0.200000 0.150000 0.500000
v 0.200000 3.000000 0.500000
v 0.200000 3.000000 -0.500000
v -0.500000 0.150000 0.500000
v -0.500000 0.000000 0.500000
v 0.500000 0.150000 0.500000
v 0.500000 0.000000 0.500000
v -0.200000 3.150000 0.500000
v -0.200000 3.150000 -0.500000
v 0.200000 3.150000 -0.500000
v 0.200000 3.150000 0.500000
v -0.200000 3.300000 0.500000
v -0.200000 3.300000 -0.500000
v 0.200000 3.300000 -0.500000
v 0.200000 3.300000 0.500000
v -0.500000 3.000000 0.500000
v -0.500000 3.000000 -0.500000
v -0.350000 3.150000 0.500000
v -0.350000 3.150000 -0.500000
v 0.500000 3.000000 -0.500000
v 0.500000 3.000000 0.500000
v 0.350000 3.150000 -0.500000
v 0.350000 3.150000 0.500000
vt 0.500488 0.627930
vt 1.000000 0.627930
vt 1.000000 0.680176
vt 0.500488 0.680176
vt 1.000000 0.820312
vt 0.500488 0.820312
vt 1.000000 0.872559
vt 0.500488 0.872559
vt 1.000000 1.000000
vt 0.500488 1.000000
vt 0.500488 0.925293
vt 1.000000 0.925293
vt 0.500488 0.500488
vt 1.000000 0.500488
vt 1.000000 0.575195
vt 0.500488 0.575195
vt 1.000000 0.500000
vt 1.000000 0.524902
vt 0.852051 0.524902
vt 0.653320 0.524902
vt 0.505371 0.524902
vt 0.505371 0.500000
vt 0.852051 1.000000
vt 0.653320 1.000000
vt 1.000000 0.649902
vt 1.000000 0.850586
vt 1.000000 1.000000
vt 0.500488 1.000000
vt 0.500488 0.850586
vt 0.500488 0.649902
vt 0.500488 0.500488
vt 1.000000 0.500488
vn 1.0000 0.0000 0.0000
vn 0.0000 1.0000 0.0000
vn -1.0000 0.0000 0.0000
vn -0.7071 0.7071 0.0000
vn 0.7071 0.7071 0.0000
vn 0.0000 0.0000 -1.0000
vn 0.0000 -1.0000 0.0000
usemtl None
s off
f 14/1/1 13/2/1 17/3/1 18/4/1
f 17/3/2 16/5/2 15/6/2 18/4/2
f 12/7/3 11/8/3 15/6/3 16/5/3
f 20/9/4 19/10/4 21/11/4 22/12/4
f 11/8/2 12/7/2 22/12/2 21/11/2
f 24/13/5 23/14/5 25/15/5 26/16/5
f 13/2/2 14/1/2 26/16/2 25/15/2
f 8/17/6 7/18/6 1/19/6 4/20/6 9/21/6 10/22/6
f 1/19/6 2/23/6 5/24/6 4/20/6
f 3/25/7 6/26/7 23/27/7 24/28/7 5/29/7 2/30/7 19/31/7 20/32/7
