# Blender v2.83.5 OBJ File: 'spider_debris_001.blend'
# www.blender.org
mtllib spider_1_debris_010.mtl
o Spider.008_GEO-Spider.001
v -2.340575 0.411980 -0.316571
v -2.426409 0.223995 -3.762239
v -2.852139 0.383696 -3.799915
v -2.397912 -0.027099 -0.319642
v -2.878804 0.179501 -3.801343
v -3.339282 0.295652 3.036212
v -3.546781 0.546176 3.017097
v -5.321105 0.548911 3.828060
v -3.604118 0.107098 3.014027
v -2.133076 0.161457 -0.297457
v -0.302601 0.411980 -2.388467
v -3.740377 0.223995 -2.636844
v -3.819119 0.383696 -2.216766
v -0.311212 -0.027099 -2.331697
v -3.823123 0.179501 -2.190365
v 2.937660 0.295652 -1.069649
v 2.898533 0.546175 -0.864977
v 3.533790 0.548910 0.979565
v 2.889923 0.107098 -0.808208
v -0.263474 0.161457 -2.593138
v -0.074502 0.154294 -0.743541
v 2.893630 0.342280 -2.495735
v 3.151075 0.182579 -2.154579
v -0.041529 0.593372 -0.696533
v 3.166409 0.386774 -2.132718
v -2.389421 0.270619 1.879381
v -2.263305 0.020096 2.045261
v -2.011405 0.017360 3.979799
v -2.230333 0.459173 2.092269
v -0.200618 0.404817 -0.909421
v 0.689130 0.154293 0.447486
v 0.162801 0.342280 3.853799
v -0.264250 0.182579 3.836652
v 0.631871 0.593372 0.443190
v -0.290878 0.386774 3.834654
v 0.127952 0.270619 -3.005578
v -0.080287 0.020096 -3.013190
v -1.736164 0.017360 -4.044671
v -0.137545 0.459173 -3.017487
v 0.897368 0.404817 0.455098
v -1.595072 0.154293 0.719666
v -5.038080 0.342280 0.879953
v -5.106042 0.182579 0.457997
v -1.602227 0.593372 0.662694
v -5.109370 0.386774 0.431502
v 1.677888 0.270619 -0.515768
v 1.644014 0.020096 -0.721374
v 2.326284 0.017361 -2.549048
v 1.636860 0.459174 -0.778346
v -1.561198 0.404817 0.925272
v -4.165204 0.154294 -1.097238
v -3.891027 0.342281 -4.533052
v -3.463874 0.182579 -4.547386
v -4.107785 0.593372 -1.097169
v -3.437171 0.386774 -4.547353
v -3.351384 0.270619 2.305152
v -3.143150 0.020096 2.297416
v -1.415840 0.017360 3.204217
v -3.085731 0.459173 2.297487
v -4.373438 0.404817 -1.089503
v 2.033220 0.154293 -0.300392
v 1.929025 0.342280 3.144770
v 1.503100 0.182579 3.180176
v 1.975868 0.593372 -0.297626
v 1.476428 0.386774 3.181462
v 1.052395 0.270620 -3.658449
v 0.844797 0.020096 -3.640440
v -0.925179 0.017361 -4.460849
v 0.787445 0.459174 -3.637676
v 2.240819 0.404816 -0.318400
v -0.075851 0.154294 -1.042802
v 3.115221 0.342280 0.259910
v 2.999403 0.182579 0.671313
v -0.093322 0.593372 -0.988106
v 2.991279 0.386774 0.696750
v -3.564855 0.270619 -1.298571
v -3.620601 0.020096 -1.097788
v -5.008309 0.017360 0.273399
v -3.638073 0.459174 -1.043092
v -0.020105 0.404817 -1.243585
vt 0.439523 0.692311
vt 0.684431 0.671378
vt 0.689765 0.701377
vt 0.684392 0.745234
vt 0.439378 0.724001
vt 0.689765 0.715231
vt 0.186004 0.670446
vt 0.177391 0.692009
vt 0.034027 0.708155
vt 0.185825 0.746283
vt 0.177245 0.724718
vt 0.440372 0.669015
vt 0.440234 0.747307
vt 0.862409 0.405665
vt 0.862409 0.450026
vt 0.842903 0.445508
vt 0.439523 0.692311
vt 0.684431 0.671378
vt 0.689765 0.701377
vt 0.684392 0.745234
vt 0.439378 0.724001
vt 0.689765 0.715231
vt 0.186004 0.670446
vt 0.177391 0.692009
vt 0.034027 0.708155
vt 0.185825 0.746283
vt 0.177245 0.724718
vt 0.440372 0.669015
vt 0.440234 0.747307
vt 0.862409 0.405665
vt 0.862409 0.450026
vt 0.842903 0.445508
vt 0.439523 0.692311
vt 0.684431 0.671378
vt 0.689765 0.701377
vt 0.684392 0.745234
vt 0.439378 0.724001
vt 0.689765 0.715231
vt 0.186004 0.670446
vt 0.177391 0.692009
vt 0.034027 0.708155
vt 0.185825 0.746283
vt 0.177245 0.724718
vt 0.440372 0.669015
vt 0.440234 0.747307
vt 0.862409 0.405665
vt 0.862409 0.450026
vt 0.842903 0.445508
vt 0.439523 0.692311
vt 0.684431 0.671378
vt 0.689765 0.701377
vt 0.684392 0.745234
vt 0.439378 0.724001
vt 0.689765 0.715231
vt 0.186004 0.670446
vt 0.177391 0.692009
vt 0.034027 0.708155
vt 0.185825 0.746283
vt 0.177245 0.724718
vt 0.440372 0.669015
vt 0.440234 0.747307
vt 0.862409 0.405665
vt 0.862409 0.450026
vt 0.842903 0.445508
vt 0.439523 0.692311
vt 0.684431 0.671378
vt 0.689765 0.701377
vt 0.684392 0.745234
vt 0.439378 0.724001
vt 0.689765 0.715231
vt 0.186004 0.670446
vt 0.177391 0.692009
vt 0.034027 0.708155
vt 0.185825 0.746283
vt 0.177245 0.724718
vt 0.440372 0.669015
vt 0.440234 0.747307
vt 0.862409 0.405665
vt 0.862409 0.450026
vt 0.842903 0.445508
vt 0.439523 0.692311
vt 0.684431 0.671378
vt 0.689765 0.701377
vt 0.684392 0.745234
vt 0.439378 0.724001
vt 0.689765 0.715231
vt 0.186004 0.670446
vt 0.177391 0.692009
vt 0.034027 0.708155
vt 0.185825 0.746283
vt 0.177245 0.724718
vt 0.440372 0.669015
vt 0.440234 0.747307
vt 0.862409 0.405665
vt 0.862409 0.450026
vt 0.842903 0.445508
vt 0.439523 0.692311
vt 0.684431 0.671378
vt 0.689765 0.701377
vt 0.684392 0.745234
vt 0.439378 0.724001
vt 0.689765 0.715231
vt 0.186004 0.670446
vt 0.177391 0.692009
vt 0.034027 0.708155
vt 0.185825 0.746283
vt 0.177245 0.724718
vt 0.440372 0.669015
vt 0.440234 0.747307
vt 0.862409 0.405665
vt 0.862409 0.450026
vt 0.842903 0.445508
vt 0.439523 0.692311
vt 0.684431 0.671378
vt 0.689765 0.701377
vt 0.684392 0.745234
vt 0.439378 0.724001
vt 0.689765 0.715231
vt 0.186004 0.670446
vt 0.177391 0.692009
vt 0.034027 0.708155
vt 0.185825 0.746283
vt 0.177245 0.724718
vt 0.440372 0.669015
vt 0.440234 0.747307
vt 0.862409 0.405665
vt 0.862409 0.450026
vt 0.842903 0.445508
vn 0.3552 0.9329 -0.0597
vn 0.1039 -0.9919 -0.0732
vn -0.9815 0.1272 0.1431
vn 0.3846 0.3826 0.8401
vn 0.7382 0.6298 0.2417
vn 0.5512 -0.8015 0.2317
vn -0.9315 0.1240 -0.3420
vn 0.2719 -0.4800 0.8340
vn -0.4149 0.0605 -0.9079
vn 0.7710 0.6345 -0.0538
vn 0.5824 -0.8104 -0.0639
vn 0.0865 -0.0043 -0.9962
vn -0.0250 0.9329 -0.3593
vn -0.0628 -0.9919 -0.1105
vn 0.0474 0.1272 0.9908
vn 0.8734 0.3826 -0.3014
vn 0.3121 0.6298 -0.7113
vn 0.2840 -0.8015 -0.5262
vn -0.4307 0.1240 0.8940
vn 0.8565 -0.4800 -0.1898
vn -0.9438 0.0605 0.3250
vn 0.0211 0.6345 -0.7726
vn -0.0072 -0.8104 -0.5858
vn -0.9832 -0.0043 -0.1826
vn -0.1375 -0.9329 -0.3330
vn 0.0071 0.9919 -0.1269
vn 0.3985 -0.1272 0.9083
vn -0.9162 -0.3826 0.1188
vn -0.5960 -0.6298 -0.4981
vn -0.4885 0.8015 -0.3448
vn 0.7835 -0.1240 0.6089
vn -0.8515 0.4800 0.2111
vn 0.9898 -0.0605 -0.1290
vn -0.3627 -0.6345 -0.6825
vn -0.2542 0.8104 -0.5278
vn 0.7992 0.0043 -0.6011
vn 0.3447 -0.9329 0.1047
vn 0.0937 0.9919 0.0859
vn -0.9551 -0.1272 -0.2676
vn 0.4890 -0.3826 -0.7839
vn 0.7630 -0.6298 -0.1452
vn 0.5764 0.8015 -0.1592
vn -0.9676 -0.1240 0.2199
vn 0.3765 0.4800 -0.7924
vn -0.5277 -0.0605 0.8473
vn 0.7578 -0.6345 0.1521
vn 0.5694 0.8104 0.1380
vn -0.0417 0.0043 0.9991
vn -0.0342 -0.9329 0.3586
vn -0.0656 0.9919 0.1088
vn 0.0727 -0.1272 -0.9892
vn 0.8654 -0.3826 0.3236
vn 0.2938 -0.6298 0.7190
vn 0.2705 0.8015 0.5333
vn -0.4076 -0.1240 -0.9047
vn 0.8513 0.4800 0.2117
vn -0.9352 -0.0605 -0.3490
vn 0.0013 -0.6345 0.7729
vn -0.0222 0.8104 0.5854
vn -0.9875 0.0043 0.1574
vn -0.3514 -0.9329 -0.0791
vn -0.0997 0.9919 -0.0788
vn 0.9722 -0.1272 0.1966
vn -0.4299 -0.3826 0.8178
vn -0.7503 -0.6298 0.2010
vn -0.5631 0.8015 0.2012
vn 0.9488 -0.1240 -0.2906
vn -0.3171 0.4800 0.8179
vn 0.4639 -0.0605 -0.8838
vn -0.7669 -0.6345 -0.0959
vn -0.5780 0.8104 -0.0957
vn -0.0319 0.0043 -0.9995
vn 0.3549 -0.9329 0.0616
vn 0.1035 0.9919 0.0738
vn -0.9807 -0.1272 -0.1483
vn 0.3890 -0.3826 -0.8380
vn 0.7394 -0.6298 -0.2378
vn 0.5525 0.8015 -0.2288
vn -0.9333 -0.1240 0.3371
vn 0.2763 0.4800 -0.8326
vn -0.4197 -0.0605 0.9056
vn 0.7707 -0.6345 0.0579
vn 0.5820 0.8104 0.0670
vn 0.0812 0.0043 0.9967
vn 0.1819 -0.9329 -0.3109
vn 0.1053 0.9919 -0.0712
vn -0.4820 -0.1272 0.8669
vn -0.6490 -0.3826 -0.6576
vn 0.0359 -0.6298 -0.7759
vn -0.0211 0.8015 -0.5976
vn -0.0107 -0.1240 0.9922
vn -0.6833 0.4800 -0.5501
vn 0.7016 -0.0605 0.7100
vn 0.3239 -0.6345 -0.7018
vn 0.2664 0.8104 -0.5218
vn 0.9621 0.0043 0.2725
usemtl Material_001.019
s 1
f 1/1/1 2/2/1 3/3/1
f 2/4/2 4/5/2 5/6/2
f 3/3/3 4/5/3 1/1/3
f 6/7/4 7/8/4 8/9/4
f 6/7/5 1/1/5 7/8/5
f 4/5/6 6/10/6 9/11/6
f 1/1/7 9/11/7 7/8/7
f 9/11/8 6/10/8 8/9/8
f 7/8/9 9/11/9 8/9/9
f 1/1/10 10/12/10 2/2/10
f 2/4/11 10/13/11 4/5/11
f 3/3/3 5/6/3 4/5/3
f 6/7/5 10/12/5 1/1/5
f 4/5/6 10/13/6 6/10/6
f 1/1/7 4/5/7 9/11/7
f 2/14/12 5/15/12 3/16/12
f 11/17/13 12/18/13 13/19/13
f 12/20/14 14/21/14 15/22/14
f 13/19/15 14/21/15 11/17/15
f 16/23/16 17/24/16 18/25/16
f 16/23/17 11/17/17 17/24/17
f 14/21/18 16/26/18 19/27/18
f 11/17/19 19/27/19 17/24/19
f 19/27/20 16/26/20 18/25/20
f 17/24/21 19/27/21 18/25/21
f 11/17/22 20/28/22 12/18/22
f 12/20/23 20/29/23 14/21/23
f 13/19/15 15/22/15 14/21/15
f 16/23/17 20/28/17 11/17/17
f 14/21/18 20/29/18 16/26/18
f 11/17/19 14/21/19 19/27/19
f 12/30/24 15/31/24 13/32/24
f 21/33/25 22/34/25 23/35/25
f 22/36/26 24/37/26 25/38/26
f 23/35/27 24/37/27 21/33/27
f 26/39/28 27/40/28 28/41/28
f 26/39/29 21/33/29 27/40/29
f 24/37/30 26/42/30 29/43/30
f 21/33/31 29/43/31 27/40/31
f 29/43/32 26/42/32 28/41/32
f 27/40/33 29/43/33 28/41/33
f 21/33/34 30/44/34 22/34/34
f 22/36/35 30/45/35 24/37/35
f 23/35/27 25/38/27 24/37/27
f 26/39/29 30/44/29 21/33/29
f 24/37/30 30/45/30 26/42/30
f 21/33/31 24/37/31 29/43/31
f 22/46/36 25/47/36 23/48/36
f 31/49/37 32/50/37 33/51/37
f 32/52/38 34/53/38 35/54/38
f 33/51/39 34/53/39 31/49/39
f 36/55/40 37/56/40 38/57/40
f 36/55/41 31/49/41 37/56/41
f 34/53/42 36/58/42 39/59/42
f 31/49/43 39/59/43 37/56/43
f 39/59/44 36/58/44 38/57/44
f 37/56/45 39/59/45 38/57/45
f 31/49/46 40/60/46 32/50/46
f 32/52/47 40/61/47 34/53/47
f 33/51/39 35/54/39 34/53/39
f 36/55/41 40/60/41 31/49/41
f 34/53/42 40/61/42 36/58/42
f 31/49/43 34/53/43 39/59/43
f 32/62/48 35/63/48 33/64/48
f 41/65/49 42/66/49 43/67/49
f 42/68/50 44/69/50 45/70/50
f 43/67/51 44/69/51 41/65/51
f 46/71/52 47/72/52 48/73/52
f 46/71/53 41/65/53 47/72/53
f 44/69/54 46/74/54 49/75/54
f 41/65/55 49/75/55 47/72/55
f 49/75/56 46/74/56 48/73/56
f 47/72/57 49/75/57 48/73/57
f 41/65/58 50/76/58 42/66/58
f 42/68/59 50/77/59 44/69/59
f 43/67/51 45/70/51 44/69/51
f 46/71/53 50/76/53 41/65/53
f 44/69/54 50/77/54 46/74/54
f 41/65/55 44/69/55 49/75/55
f 42/78/60 45/79/60 43/80/60
f 51/81/61 52/82/61 53/83/61
f 52/84/62 54/85/62 55/86/62
f 53/83/63 54/85/63 51/81/63
f 56/87/64 57/88/64 58/89/64
f 56/87/65 51/81/65 57/88/65
f 54/85/66 56/90/66 59/91/66
f 51/81/67 59/91/67 57/88/67
f 59/91/68 56/90/68 58/89/68
f 57/88/69 59/91/69 58/89/69
f 51/81/70 60/92/70 52/82/70
f 52/84/71 60/93/71 54/85/71
f 53/83/63 55/86/63 54/85/63
f 56/87/65 60/92/65 51/81/65
f 54/85/66 60/93/66 56/90/66
f 51/81/67 54/85/67 59/91/67
f 52/94/72 55/95/72 53/96/72
f 61/97/73 62/98/73 63/99/73
f 62/100/74 64/101/74 65/102/74
f 63/99/75 64/101/75 61/97/75
f 66/103/76 67/104/76 68/105/76
f 66/103/77 61/97/77 67/104/77
f 64/101/78 66/106/78 69/107/78
f 61/97/79 69/107/79 67/104/79
f 69/107/80 66/106/80 68/105/80
f 67/104/81 69/107/81 68/105/81
f 61/97/82 70/108/82 62/98/82
f 62/100/83 70/109/83 64/101/83
f 63/99/75 65/102/75 64/101/75
f 66/103/77 70/108/77 61/97/77
f 64/101/78 70/109/78 66/106/78
f 61/97/79 64/101/79 69/107/79
f 62/110/84 65/111/84 63/112/84
f 71/113/85 72/114/85 73/115/85
f 72/116/86 74/117/86 75/118/86
f 73/115/87 74/117/87 71/113/87
f 76/119/88 77/120/88 78/121/88
f 76/119/89 71/113/89 77/120/89
f 74/117/90 76/122/90 79/123/90
f 71/113/91 79/123/91 77/120/91
f 79/123/92 76/122/92 78/121/92
f 77/120/93 79/123/93 78/121/93
f 71/113/94 80/124/94 72/114/94
f 72/116/95 80/125/95 74/117/95
f 73/115/87 75/118/87 74/117/87
f 76/119/89 80/124/89 71/113/89
f 74/117/90 80/125/90 76/122/90
f 71/113/91 74/117/91 79/123/91
f 72/126/96 75/127/96 73/128/96
