# Blender v2.83.5 OBJ File: ''
# www.blender.org
mtllib spider_1_debris_002.mtl
o Spider.003_GEO-Spider.003
v 0.554486 0.593372 -0.554331
v 0.606443 0.404817 -0.814967
v 0.567399 0.154294 -0.610279
v 3.767210 0.386774 0.871118
v 3.854803 0.342280 0.425565
v 3.773216 0.182579 0.845099
v -2.982778 0.459174 -0.317587
v -2.930820 0.270619 -0.578222
v -2.969864 0.020096 -0.373535
v -4.240094 0.017360 1.107141
vt 0.439523 0.692311
vt 0.684431 0.671378
vt 0.689765 0.701377
vt 0.684392 0.745234
vt 0.439378 0.724001
vt 0.689765 0.715231
vt 0.186004 0.670446
vt 0.177391 0.692009
vt 0.034027 0.708155
vt 0.185825 0.746283
vt 0.177245 0.724718
vt 0.440372 0.669015
vt 0.440234 0.747307
vt 0.862409 0.405665
vt 0.862409 0.450026
vt 0.842903 0.445508
vn 0.1557 -0.9329 -0.3248
vn 0.0991 0.9919 -0.0796
vn -0.4091 -0.1272 0.9036
vn -0.7009 -0.3826 -0.6020
vn -0.0281 -0.6298 -0.7762
vn -0.0702 0.8015 -0.5938
vn 0.0709 -0.1240 0.9897
vn -0.7263 0.4800 -0.4921
vn 0.7576 -0.0605 0.6499
vn 0.2651 -0.6345 -0.7260
vn 0.2226 0.8104 -0.5419
vn 0.9813 0.0043 0.1925
usemtl Material_001.003
s off
f 3/1/1 5/2/1 6/3/1
f 5/4/2 1/5/2 4/6/2
f 6/3/3 1/5/3 3/1/3
f 8/7/4 9/8/4 10/9/4
f 8/7/5 3/1/5 9/8/5
f 1/5/6 8/10/6 7/11/6
f 3/1/7 7/11/7 9/8/7
f 7/11/8 8/10/8 10/9/8
f 9/8/9 7/11/9 10/9/9
f 3/1/10 2/12/10 5/2/10
f 5/4/11 2/13/11 1/5/11
f 6/3/3 4/6/3 1/5/3
f 8/7/5 2/12/5 3/1/5
f 1/5/6 2/13/6 8/10/6
f 3/1/7 1/5/7 7/11/7
f 5/14/12 4/15/12 6/16/12
