# Blender v2.83.5 OBJ File: ''
# www.blender.org
mtllib spider_1_debris_003.mtl
o Spider.003_GEO-Spider.003
v 0.425063 0.593372 0.658832
v 0.668902 0.404817 0.764535
v 0.477035 0.154294 0.683243
v -1.645277 0.386774 3.499112
v -1.228180 0.342280 3.678612
v -1.621107 0.182579 3.510464
v 0.938899 0.459174 -2.848911
v 1.182737 0.270619 -2.743206
v 0.990871 0.020096 -2.824499
v -0.188944 0.017360 -4.378180
vt 0.439523 0.692311
vt 0.684431 0.671378
vt 0.689765 0.701377
vt 0.684392 0.745234
vt 0.439378 0.724001
vt 0.689765 0.715231
vt 0.186004 0.670446
vt 0.177391 0.692009
vt 0.034027 0.708155
vt 0.185825 0.746283
vt 0.177245 0.724718
vt 0.440372 0.669015
vt 0.440234 0.747307
vt 0.862409 0.405665
vt 0.862409 0.450026
vt 0.842903 0.445508
vn 0.2847 -0.9329 0.2206
vn 0.0569 0.9919 0.1136
vn -0.7971 -0.1272 -0.5903
vn 0.7361 -0.3826 -0.5583
vn 0.7647 -0.6298 0.1361
vn 0.5953 0.8015 0.0565
vn -0.9825 -0.1240 -0.1392
vn 0.6340 0.4800 -0.6063
vn -0.7949 -0.0605 0.6037
vn 0.6539 -0.6345 0.4121
vn 0.4829 0.8104 0.3317
vn -0.3949 0.0043 0.9187
usemtl Material_001.003
s off
f 3/1/1 5/2/1 6/3/1
f 5/4/2 1/5/2 4/6/2
f 6/3/3 1/5/3 3/1/3
f 8/7/4 9/8/4 10/9/4
f 8/7/5 3/1/5 9/8/5
f 1/5/6 8/10/6 7/11/6
f 3/1/7 7/11/7 9/8/7
f 7/11/8 8/10/8 10/9/8
f 9/8/9 7/11/9 10/9/9
f 3/1/10 2/12/10 5/2/10
f 5/4/11 2/13/11 1/5/11
f 6/3/3 4/6/3 1/5/3
f 8/7/5 2/12/5 3/1/5
f 1/5/6 2/13/6 8/10/6
f 3/1/7 1/5/7 7/11/7
f 5/14/12 4/15/12 6/16/12
