# Blender v2.83.5 OBJ File: 'spider_debris_001.blend'
# www.blender.org
mtllib spider_1_debris_013.mtl
o Spider.009_GEO-Spider.001
v -1.595072 0.154294 0.955070
v -5.038080 0.342280 1.115357
v -5.106042 0.182579 0.693401
v -1.602227 0.593372 0.898098
v -5.109370 0.386774 0.666906
v 1.677888 0.270619 -0.280364
v 1.644014 0.020096 -0.485970
v 2.326284 0.017360 -2.313645
v 1.636860 0.459174 -0.542942
v -1.561198 0.404817 1.160676
v 0.689130 0.154293 0.447486
v 0.162800 0.342280 3.853799
v -0.264250 0.182579 3.836652
v 0.631871 0.593372 0.443190
v -0.290878 0.386774 3.834654
v 0.127952 0.270619 -3.005578
v -0.080286 0.020096 -3.013190
v -1.736165 0.017361 -4.044672
v -0.137544 0.459174 -3.017487
v 0.897368 0.404817 0.455098
vt 0.439523 0.692311
vt 0.684431 0.671378
vt 0.689765 0.701377
vt 0.684392 0.745234
vt 0.439378 0.724001
vt 0.689765 0.715231
vt 0.186004 0.670446
vt 0.177391 0.692009
vt 0.034027 0.708155
vt 0.185825 0.746283
vt 0.177245 0.724718
vt 0.440372 0.669015
vt 0.440234 0.747307
vt 0.862409 0.405665
vt 0.862409 0.450026
vt 0.842903 0.445508
vt 0.439523 0.692311
vt 0.684431 0.671378
vt 0.689765 0.701377
vt 0.684392 0.745234
vt 0.439378 0.724001
vt 0.689765 0.715231
vt 0.186004 0.670446
vt 0.177391 0.692009
vt 0.034027 0.708155
vt 0.185825 0.746283
vt 0.177245 0.724718
vt 0.440372 0.669015
vt 0.440234 0.747307
vt 0.862409 0.405665
vt 0.862409 0.450026
vt 0.842903 0.445508
vn -0.0342 -0.9329 0.3586
vn -0.0656 0.9919 0.1088
vn 0.0727 -0.1272 -0.9892
vn 0.8654 -0.3826 0.3236
vn 0.2938 -0.6298 0.7190
vn 0.2705 0.8015 0.5333
vn -0.4076 -0.1240 -0.9047
vn 0.8513 0.4800 0.2117
vn -0.9352 -0.0605 -0.3490
vn 0.0013 -0.6345 0.7729
vn -0.0222 0.8104 0.5854
vn -0.9875 0.0043 0.1574
vn 0.3447 -0.9329 0.1047
vn 0.0937 0.9919 0.0859
vn -0.9551 -0.1272 -0.2676
vn 0.4890 -0.3826 -0.7839
vn 0.7630 -0.6298 -0.1452
vn 0.5764 0.8015 -0.1592
vn -0.9676 -0.1240 0.2199
vn 0.3765 0.4800 -0.7924
vn -0.5277 -0.0605 0.8473
vn 0.7578 -0.6345 0.1521
vn 0.5694 0.8104 0.1380
vn -0.0417 0.0043 0.9991
usemtl Material_001.033
s 1
f 1/1/1 2/2/1 3/3/1
f 2/4/2 4/5/2 5/6/2
f 3/3/3 4/5/3 1/1/3
f 6/7/4 7/8/4 8/9/4
f 6/7/5 1/1/5 7/8/5
f 4/5/6 6/10/6 9/11/6
f 1/1/7 9/11/7 7/8/7
f 9/11/8 6/10/8 8/9/8
f 7/8/9 9/11/9 8/9/9
f 1/1/10 10/12/10 2/2/10
f 2/4/11 10/13/11 4/5/11
f 3/3/3 5/6/3 4/5/3
f 6/7/5 10/12/5 1/1/5
f 4/5/6 10/13/6 6/10/6
f 1/1/7 4/5/7 9/11/7
f 2/14/12 5/15/12 3/16/12
f 11/17/13 12/18/13 13/19/13
f 12/20/14 14/21/14 15/22/14
f 13/19/15 14/21/15 11/17/15
f 16/23/16 17/24/16 18/25/16
f 16/23/17 11/17/17 17/24/17
f 14/21/18 16/26/18 19/27/18
f 11/17/19 19/27/19 17/24/19
f 19/27/20 16/26/20 18/25/20
f 17/24/21 19/27/21 18/25/21
f 11/17/22 20/28/22 12/18/22
f 12/20/23 20/29/23 14/21/23
f 13/19/15 15/22/15 14/21/15
f 16/23/17 20/28/17 11/17/17
f 14/21/18 20/29/18 16/26/18
f 11/17/19 14/21/19 19/27/19
f 12/30/24 15/31/24 13/32/24
