# Blender v2.83.5 OBJ File: ''
# www.blender.org
mtllib spider_1_debris_008.mtl
o Spider.003_GEO-Spider.003
v -0.742175 0.014923 -0.233592
v -0.898562 0.184364 -0.463845
v -0.772603 0.448179 -0.319905
v -3.031471 0.499287 2.397130
v -3.301003 0.512304 2.029226
v -3.045622 0.700775 2.356990
v 2.556640 -0.013400 -1.538700
v 2.400253 0.156040 -1.768953
v 2.526212 0.419856 -1.625012
v 4.308330 0.476438 -0.833336
vt 0.439523 0.692311
vt 0.684431 0.671378
vt 0.689765 0.701377
vt 0.684392 0.745234
vt 0.439378 0.724001
vt 0.689765 0.715231
vt 0.186004 0.670446
vt 0.177391 0.692009
vt 0.034027 0.708155
vt 0.185825 0.746283
vt 0.177245 0.724718
vt 0.440372 0.669015
vt 0.440234 0.747307
vt 0.862409 0.405665
vt 0.862409 0.450026
vt 0.842903 0.445508
vn -0.2688 0.9105 -0.3141
vn -0.1354 -0.9887 0.0642
vn 0.7583 0.1782 0.6271
vn 0.3798 0.2967 -0.8762
vn -0.2998 0.5632 -0.7700
vn -0.2006 -0.8491 -0.4886
vn 0.3615 0.2065 0.9092
vn 0.4396 -0.5545 -0.7066
vn -0.4053 0.1511 0.9016
vn -0.5430 0.5869 -0.6005
vn -0.4429 -0.8388 -0.3165
vn -0.8041 0.0613 0.5913
usemtl Material_001.003
s off
f 3/1/1 5/2/1 6/3/1
f 5/4/2 1/5/2 4/6/2
f 6/3/3 1/5/3 3/1/3
f 8/7/4 9/8/4 10/9/4
f 8/7/5 3/1/5 9/8/5
f 1/5/6 8/10/6 7/11/6
f 3/1/7 7/11/7 9/8/7
f 7/11/8 8/10/8 10/9/8
f 9/8/9 7/11/9 10/9/9
f 3/1/10 2/12/10 5/2/10
f 5/4/11 2/13/11 1/5/11
f 6/3/3 4/6/3 1/5/3
f 8/7/5 2/12/5 3/1/5
f 1/5/6 2/13/6 8/10/6
f 3/1/7 1/5/7 7/11/7
f 5/14/12 4/15/12 6/16/12
