# Blender v2.83.5 OBJ File: ''
# www.blender.org
mtllib spider_1_debris_007.mtl
o Spider.003_GEO-Spider.003
v 0.029398 0.014923 0.777512
v -0.134912 0.184364 1.002180
v -0.041670 0.448179 0.835175
v 3.276441 0.499287 2.049630
v 3.020508 0.512304 2.427119
v 3.243391 0.700775 2.076446
v -2.308368 -0.013400 -1.890885
v -2.472677 0.156040 -1.666216
v -2.379435 0.419856 -1.833221
v -2.232673 0.476438 -3.777740
vt 0.439523 0.692311
vt 0.684431 0.671378
vt 0.689765 0.701377
vt 0.684392 0.745234
vt 0.439378 0.724001
vt 0.689765 0.715231
vt 0.186004 0.670446
vt 0.177391 0.692009
vt 0.034027 0.708155
vt 0.185825 0.746283
vt 0.177245 0.724718
vt 0.440372 0.669015
vt 0.440234 0.747307
vt 0.862409 0.405665
vt 0.862409 0.450026
vt 0.842903 0.445508
vn -0.2056 0.9105 0.3587
vn 0.1060 -0.9887 0.1059
vn 0.3358 0.1782 -0.9249
vn -0.9529 0.2967 -0.0633
vn -0.6245 0.5632 0.5411
vn -0.3928 -0.8491 0.3531
vn 0.7349 0.2065 -0.6460
vn -0.8132 -0.5545 -0.1766
vn 0.9854 0.1511 0.0788
vn -0.3831 0.5869 0.7133
vn -0.1492 -0.8388 0.5235
vn 0.8271 0.0613 0.5587
usemtl Material_001.003
s off
f 3/1/1 5/2/1 6/3/1
f 5/4/2 1/5/2 4/6/2
f 6/3/3 1/5/3 3/1/3
f 8/7/4 9/8/4 10/9/4
f 8/7/5 3/1/5 9/8/5
f 1/5/6 8/10/6 7/11/6
f 3/1/7 7/11/7 9/8/7
f 7/11/8 8/10/8 10/9/8
f 9/8/9 7/11/9 10/9/9
f 3/1/10 2/12/10 5/2/10
f 5/4/11 2/13/11 1/5/11
f 6/3/3 4/6/3 1/5/3
f 8/7/5 2/12/5 3/1/5
f 1/5/6 2/13/6 8/10/6
f 3/1/7 1/5/7 7/11/7
f 5/14/12 4/15/12 6/16/12
