# Blender v2.77 (sub 0) OBJ File: ''
# www.blender.org
mtllib test.mtl
o Cube_Cube.002
v 0.500000 -0.500000 -0.500000
v 0.500000 -0.500000 0.500000
v -0.500000 -0.500000 0.500000
v -0.500000 -0.500000 -0.500000
v 0.500000 0.500000 -0.500000
v 0.500000 0.500000 0.500000
v -0.500000 0.500000 0.500000
v -0.500000 0.500000 -0.500000
vt 0.7500 0.7500
vt 0.2500 0.2500
vt 0.2500 0.7500
vt 0.2500 0.7500
vt 0.7500 0.2500
vt 0.7500 0.7500
vt 0.2500 0.2500
vt 0.7500 0.2500
vt 0.7500 0.7500
vt 0.7500 0.2500
vt 0.7500 0.7500
vt 0.7500 0.2500
vt 0.2500 0.2500
vt 0.2500 0.7500
vt 0.2500 0.7500
vt 0.2500 0.2500
vn 0.0000 -1.0000 0.0000
vn 0.0000 1.0000 0.0000
vn 1.0000 0.0000 0.0000
vn 0.0000 0.0000 1.0000
vn -1.0000 0.0000 0.0000
vn 0.0000 0.0000 -1.0000
usemtl Material_001.001
s off
f 1/1/1 3/2/1 4/3/1
f 8/4/2 6/5/2 5/6/2
f 5/6/3 2/7/3 1/8/3
f 6/9/4 3/2/4 2/10/4
f 3/2/5 8/11/5 4/12/5
f 1/8/6 8/4/6 5/6/6
f 1/1/1 2/10/1 3/2/1
f 8/4/2 7/13/2 6/5/2
f 5/6/3 6/14/3 2/7/3
f 6/9/4 7/15/4 3/2/4
f 3/2/5 7/15/5 8/11/5
f 1/8/6 4/16/6 8/4/6
