# Blender v2.83.5 OBJ File: 'tile_set_001.blend'
# www.blender.org
mtllib tile_set_001_dw_de_1_001.mtl
o wall_high_double_end.002_Cube.017
v -0.500000 2.400000 0.250000
v -0.500000 3.000000 0.250000
v -0.500000 2.400000 -0.250000
v -0.500000 3.000000 -0.250000
v 0.250000 2.400000 0.250000
v 0.250000 3.000000 0.250000
v 0.250000 2.400000 -0.250000
v 0.250000 3.000000 -0.250000
vt 0.600000 0.666667
vt 0.600000 0.000000
vt 0.800000 0.000000
vt 0.800000 0.666667
vt 0.000000 0.666667
vt 0.000000 0.000000
vt 0.300000 0.000000
vt 0.300000 0.666667
vt 1.000000 0.000000
vt 1.000000 0.666667
vt 0.800000 0.666667
vt 0.800000 0.000000
vt 0.300000 0.666667
vt 0.300000 0.000000
vt 0.000000 1.000000
vt 0.000000 0.666667
vt 0.200000 0.666667
vt 0.200000 1.000000
vt 0.200000 1.000000
vt 0.200000 0.666667
vt 0.400000 0.666667
vt 0.400000 1.000000
vn -1.0000 0.0000 0.0000
vn 0.0000 0.0000 -1.0000
vn 1.0000 0.0000 0.0000
vn 0.0000 0.0000 1.0000
vn 0.0000 -1.0000 0.0000
vn 0.0000 1.0000 0.0000
usemtl None
s off
f 1/1/1 2/2/1 4/3/1 3/4/1
f 3/5/2 4/6/2 8/7/2 7/8/2
f 7/9/3 8/10/3 6/11/3 5/12/3
f 5/13/4 6/14/4 2/2/4 1/1/4
f 3/15/5 7/16/5 5/17/5 1/18/5
f 8/19/6 4/20/6 2/21/6 6/22/6
