# Blender v2.79 (sub 0) OBJ File: 'dungeon_004.blend'
# www.blender.org
mtllib dungeon_004_wall_1tx_001.mtl
o Cube.006_Cube.008
v -0.500000 0.000000 0.500000
v -0.500000 0.000000 -0.500000
v 0.500000 0.000000 -0.500000
v 0.500000 0.000000 0.500000
v -0.375000 3.000000 0.500000
v -0.374999 3.000000 -0.500001
v -0.500000 0.375000 0.500000
v -0.500000 0.375000 -0.500000
v 0.500000 0.375000 -0.500000
v -0.375000 2.671875 0.500000
v -0.374999 2.671875 -0.500000
v -0.250000 2.671875 -0.450000
v -0.250000 -0.000000 0.450000
v -0.250000 0.375000 0.450000
v -0.125000 0.425000 0.450000
v -0.250000 2.671875 0.450000
v -0.250000 -0.000000 -0.450000
v -0.250000 0.375000 -0.450000
v -0.125000 2.671875 0.450000
v -0.475000 0.000000 0.475000
v -0.475000 0.000000 -0.475000
v 0.475000 0.000000 -0.475000
v -0.375000 3.000000 0.450000
v -0.375000 3.000000 -0.450001
v 0.475000 0.375000 -0.475000
v -0.475000 0.375000 0.475000
v -0.475000 0.375000 -0.475000
v -0.375000 2.671875 0.450000
v -0.375000 2.671875 -0.450000
v -0.250000 3.000000 -0.450000
v -0.250000 3.000000 0.450000
v -0.125000 0.425000 -0.450000
v -0.125000 2.671875 -0.450000
v -0.375000 1.178906 0.500000
v -0.375000 1.178906 -0.500000
v -0.125000 1.178906 0.450000
v -0.375000 1.178906 0.450000
v -0.375000 1.178906 -0.450000
v -0.125000 1.178906 -0.450000
v 0.375000 3.000000 -0.500000
v 0.375000 3.000000 0.500000
v 0.500000 0.375000 0.500000
v 0.375000 2.671875 -0.500000
v 0.375000 2.671875 0.500000
v 0.250000 2.671875 0.450000
v 0.250000 -0.000000 -0.450000
v 0.250000 0.375000 -0.450000
v 0.125000 0.425000 -0.450000
v 0.250000 2.671875 -0.450000
v 0.250000 -0.000000 0.450000
v 0.250000 0.375000 0.450000
v 0.125000 2.671875 -0.450000
v 0.475000 0.000000 0.475000
v 0.375000 3.000000 -0.450000
v 0.375000 3.000000 0.450000
v 0.475000 0.375000 0.475000
v 0.375000 2.671875 -0.450000
v 0.375000 2.671875 0.450000
v 0.250000 3.000000 0.450000
v 0.250000 3.000000 -0.450000
v 0.125000 0.425000 0.450000
v 0.125000 2.671875 0.450000
v 0.375000 1.178906 -0.500000
v 0.375000 1.178906 0.500000
v 0.125000 1.178906 -0.450000
v 0.375000 1.178906 -0.450000
v 0.375000 1.178906 0.450000
v 0.125000 1.178906 0.450000
v -0.125000 0.425000 0.125000
v -0.125000 0.425000 -0.125000
v -0.125000 2.671875 0.125000
v -0.125000 2.671875 -0.125000
v -0.250000 3.000000 0.250000
v -0.250000 3.000000 -0.250000
v -0.250000 2.671875 0.250000
v -0.250000 2.671875 -0.250000
v -0.250000 -0.000000 0.250000
v -0.250000 -0.000000 -0.250000
v -0.250000 0.375000 0.250000
v -0.250000 0.375000 -0.250000
v -0.125000 1.178906 0.125000
v -0.125000 1.178906 -0.125000
v 0.125000 0.425000 -0.125000
v 0.125000 0.425000 0.125000
v 0.125000 2.671875 -0.125000
v 0.125000 2.671875 0.125000
v 0.250000 3.000000 -0.250000
v 0.250000 3.000000 0.250000
v 0.250000 2.671875 -0.250000
v 0.250000 2.671875 0.250000
v 0.250000 -0.000000 -0.250000
v 0.250000 -0.000000 0.250000
v 0.250000 0.375000 -0.250000
v 0.250000 0.375000 0.250000
v 0.125000 1.178906 -0.125000
v 0.125000 1.178906 0.125000
v -0.500000 3.000000 -0.375000
v -0.500000 2.671875 -0.375000
v -0.450000 -0.000000 -0.250000
v -0.450000 0.375000 -0.250000
v -0.450000 0.425000 -0.125000
v -0.450000 2.671875 -0.250000
v -0.450000 2.671875 -0.125000
v -0.450000 3.000000 -0.375000
v -0.450000 2.671875 -0.375000
v -0.450000 3.000000 -0.250000
v -0.500000 1.178906 -0.375000
v -0.450000 1.178906 -0.125000
v -0.450000 1.178906 -0.375000
v -0.500000 3.000000 0.374999
v -0.500000 2.671875 0.375000
v -0.450000 2.671875 0.250000
v -0.450000 -0.000000 0.250000
v -0.450000 0.375000 0.250000
v -0.450000 3.000000 0.375000
v -0.450000 2.671875 0.375000
v -0.450000 3.000000 0.250000
v -0.450000 0.425000 0.125000
v -0.450000 2.671875 0.125000
v -0.500000 1.178906 0.375000
v -0.450000 1.178906 0.375000
v -0.450000 1.178906 0.125000
v 0.500000 3.000000 0.375000
v 0.500000 2.671875 0.375000
v 0.250000 2.671875 0.250000
v 0.450000 -0.000000 0.250000
v 0.450000 0.375000 0.250000
v 0.450000 0.425000 0.125000
v 0.450000 2.671875 0.250000
v 0.450000 2.671875 0.125000
v 0.450000 3.000000 0.375000
v 0.450000 2.671875 0.375000
v 0.250000 3.000000 0.250000
v 0.450000 3.000000 0.250000
v 0.500000 1.178906 0.375000
v 0.450000 1.178906 0.125000
v 0.450000 1.178906 0.375000
v 0.500000 3.000000 -0.375000
v 0.500000 2.671875 -0.375000
v 0.450000 2.671875 -0.250000
v 0.250000 2.671875 -0.250000
v 0.450000 -0.000000 -0.250000
v 0.450000 0.375000 -0.250000
v 0.450000 3.000000 -0.375000
v 0.450000 2.671875 -0.375000
v 0.450000 3.000000 -0.250000
v 0.250000 3.000000 -0.250000
v 0.450000 0.425000 -0.125000
v 0.450000 2.671875 -0.125000
v 0.500000 1.178906 -0.375000
v 0.450000 1.178906 -0.375000
v 0.450000 1.178906 -0.125000
vt 0.202148 0.403809
vt 0.194336 0.353516
vt 0.202148 0.353516
vt 0.154297 -0.000000
vt 0.307617 0.057617
vt 0.154297 0.057617
vt 0.153320 0.057617
vt 0.000000 0.000000
vt 0.153320 -0.000000
vt 0.194336 0.124512
vt 0.202148 0.124512
vt 0.012695 0.056152
vt 0.029297 -0.000000
vt 0.041992 0.048828
vt 0.452148 0.054199
vt 0.470703 0.169922
vt 0.434570 0.061523
vt 0.102539 0.351562
vt 0.101074 0.352539
vt 0.101074 0.352051
vt 0.484375 0.000000
vt 0.452148 0.000488
vt 0.031738 0.427246
vt 0.102539 0.352051
vt 0.116699 0.403809
vt 0.250977 0.998047
vt 0.180664 0.674805
vt 0.250977 0.674805
vt 0.221680 0.057617
vt 0.190918 0.000000
vt 0.221680 0.000000
vt 0.436035 0.385254
vt 0.435059 0.385742
vt 0.434570 0.385254
vt 0.436035 0.385742
vt 0.435059 0.169922
vt 0.230957 0.353516
vt 0.223633 0.124512
vt 0.230957 0.124512
vt 0.260742 0.057617
vt 0.291504 0.078125
vt 0.241699 0.078125
vt 0.230957 0.403809
vt 0.223633 0.353516
vt 0.474121 0.479492
vt 0.472168 0.384766
vt 0.227051 0.000488
vt 0.232910 -0.000000
vt 0.180664 0.511230
vt 0.250977 0.511230
vt 0.052734 0.157227
vt 0.084961 0.148926
vt 0.198242 0.000488
vt 0.192871 -0.000000
vt 0.134277 0.459961
vt 0.019043 0.409668
vt 0.134277 0.409668
vt 0.288574 0.180664
vt 0.288574 0.409668
vt 0.173340 0.180664
vt 0.173340 0.409668
vt 0.288574 0.459961
vt 0.173340 0.459961
vt 0.235840 0.364746
vt 0.235840 0.356934
vt 0.254883 0.356934
vt 0.331543 0.219238
vt 0.254883 0.219238
vt 0.235840 0.211426
vt 0.254883 0.326172
vt 0.331543 0.356934
vt 0.331543 0.249512
vt 0.254883 0.249512
vt 0.331543 0.326172
vt 0.330566 0.672852
vt 0.260254 0.509277
vt 0.330566 0.509277
vt 0.190918 0.078125
vt 0.240723 0.078125
vt 0.134766 0.343262
vt 0.291504 0.057617
vt 0.260742 0.000000
vt 0.291504 0.000000
vt 0.330566 0.996094
vt 0.260254 0.672852
vt 0.436035 0.387207
vt 0.134277 0.180664
vt 0.000000 0.057617
vt 0.194336 0.403809
vt 0.307617 -0.000000
vt 0.000000 0.007324
vt 0.484863 0.054199
vt 0.017578 0.375488
vt 0.180664 0.998047
vt 0.190918 0.057617
vt 0.223633 0.403809
vt 0.437988 0.479980
vt 0.019043 0.459961
vt 0.350586 0.364746
vt 0.350586 0.356934
vt 0.235840 0.219238
vt 0.350586 0.211426
vt 0.350586 0.219238
vt 0.158203 0.427246
vt 0.260254 0.996094
vt 0.435059 0.387207
vt 0.060059 0.051270
vt 0.019043 0.180664
vt 0.252930 0.403809
vt 0.245605 0.353516
vt 0.252930 0.353516
vt 0.245605 0.124512
vt 0.252930 0.124512
vt 0.012695 0.056152
vt 0.029297 0.000000
vt 0.041992 0.048828
vt 0.400879 0.054199
vt 0.433594 0.054199
vt 0.419434 0.169922
vt 0.102539 0.351562
vt 0.101074 0.352539
vt 0.101074 0.352051
vt 0.400391 0.000488
vt 0.433105 0.000000
vt 0.031738 0.427246
vt 0.102539 0.352051
vt 0.116699 0.403809
vt 0.334473 0.998047
vt 0.264160 0.674805
vt 0.334473 0.674805
vt 0.040039 0.067383
vt 0.024902 0.000000
vt 0.048828 0.005371
vt 0.384277 0.385254
vt 0.383301 0.385742
vt 0.382812 0.385254
vt 0.384277 0.385742
vt 0.383301 0.169922
vt 0.241211 0.353516
vt 0.233887 0.124512
vt 0.241211 0.124512
vt 0.020508 0.102051
vt 0.000000 0.132812
vt -0.000000 0.082520
vt 0.241211 0.403809
vt 0.233887 0.353516
vt 0.422363 0.479492
vt 0.420410 0.384766
vt 0.052734 0.157227
vt 0.237305 0.000488
vt 0.242676 -0.000000
vt 0.264160 0.511230
vt 0.334473 0.511230
vt 0.084961 0.148926
vt 0.249512 0.000488
vt 0.243652 -0.000000
vt 0.406250 0.669922
vt 0.334961 0.503418
vt 0.406250 0.503418
vt 0.000000 0.061523
vt 0.034180 0.096680
vt 0.134766 0.343262
vt 0.020508 0.132812
vt 0.078125 0.102051
vt 0.078125 0.132812
vt 0.406250 0.997559
vt 0.334961 0.669922
vt 0.384277 0.387207
vt 0.245605 0.403809
vt -0.000000 0.007324
vt 0.382812 0.061523
vt 0.017578 0.375488
vt 0.264160 0.998047
vt 0.010742 0.048340
vt 0.233887 0.403809
vt 0.386719 0.479980
vt 0.060059 0.051270
vt 0.158203 0.427246
vt 0.334961 0.997559
vt 0.383301 0.387207
vt 0.154788 0.057984
vt 0.308088 0.000496
vt 0.308088 0.057984
vt 0.349121 0.054199
vt 0.367676 0.169922
vt 0.331543 0.061523
vt 0.381836 0.054199
vt 0.349121 0.000488
vt 0.381348 0.000000
vt 0.333008 0.387207
vt 0.332031 0.385742
vt 0.333008 0.385742
vt 0.257812 0.996094
vt 0.187500 0.672852
vt 0.257812 0.672852
vt 0.128906 0.140137
vt 0.098145 0.082520
vt 0.128906 0.082520
vt 0.333008 0.385254
vt 0.331543 0.385254
vt 0.332031 0.169922
vt 0.275391 0.353516
vt 0.267578 0.124512
vt 0.275391 0.124512
vt 0.098145 0.140137
vt 0.128906 0.160645
vt 0.079102 0.160645
vt 0.275391 0.403809
vt 0.267578 0.353516
vt 0.371094 0.479492
vt 0.369141 0.384766
vt 0.271484 0.000488
vt 0.276855 -0.000000
vt 0.187500 0.509277
vt 0.257812 0.509277
vt 0.333984 0.997559
vt 0.262207 0.669922
vt 0.333984 0.669922
vt 0.288926 0.181222
vt 0.173951 0.181222
vt 0.288926 0.410094
vt 0.173951 0.410094
vt 0.288926 0.460395
vt 0.173951 0.460395
vt 0.224121 0.249512
vt 0.224121 0.326172
vt 0.216309 0.345703
vt 0.154788 0.000496
vt 0.332031 0.387207
vt 0.187500 0.996094
vt 0.267578 0.403809
vt 0.334961 0.479980
vt 0.262207 0.997559
vt 0.224121 0.345703
vt 0.216309 0.230469
vt 0.224121 0.230469
vt 0.212402 0.403809
vt 0.204590 0.353516
vt 0.212402 0.353516
vt 0.204590 0.124512
vt 0.212402 0.124512
vt 0.000000 0.007324
vt 0.041992 0.048828
vt 0.012207 0.056152
vt 0.102539 0.351562
vt 0.101074 0.352539
vt 0.101074 0.352051
vt 0.031738 0.427246
vt 0.102539 0.352051
vt 0.116699 0.403809
vt 0.160645 0.140137
vt 0.129883 0.082520
vt 0.160645 0.082520
vt 0.134766 0.343262
vt 0.129883 0.160645
vt 0.179688 0.160645
vt 0.052734 0.157227
vt 0.262207 0.503418
vt 0.333984 0.503418
vt 0.208496 0.000488
vt 0.203125 -0.000000
vt 0.084961 0.148926
vt 0.204590 0.403809
vt 0.029297 0.000000
vt 0.017578 0.375488
vt 0.129883 0.140137
vt 0.158203 0.427246
vt 0.059570 0.051270
vt 0.000496 0.057984
vt 0.153796 0.000496
vt 0.153796 0.057984
vt 0.384766 0.054199
vt 0.403320 0.171875
vt 0.366699 0.061523
vt 0.417480 0.054199
vt 0.384766 0.000000
vt 0.417480 0.000000
vt 0.367676 0.392578
vt 0.367188 0.390625
vt 0.367676 0.390625
vt 0.188477 0.997559
vt 0.117188 0.669922
vt 0.188477 0.669922
vt 0.073242 0.062500
vt 0.077637 0.007812
vt 0.367676 0.389648
vt 0.366699 0.389648
vt 0.367188 0.171875
vt 0.220703 0.353516
vt 0.213379 0.124512
vt 0.220703 0.124512
vt 0.078125 0.078125
vt 0.220703 0.403809
vt 0.213379 0.353516
vt 0.406738 0.485352
vt 0.404785 0.389648
vt 0.217285 0.000488
vt 0.222656 -0.000000
vt 0.117188 0.503418
vt 0.188477 0.503418
vt 0.261230 0.997559
vt 0.189453 0.669922
vt 0.261230 0.669922
vt 0.134633 0.181222
vt 0.019659 0.181222
vt 0.134633 0.410094
vt 0.019658 0.410094
vt 0.134633 0.460395
vt 0.019658 0.460395
vt 0.128906 0.080566
vt 0.205566 0.080566
vt 0.224609 0.088379
vt 0.205566 0.050293
vt 0.000496 0.000496
vt 0.367188 0.392578
vt 0.117188 0.997559
vt 0.213379 0.403809
vt 0.370117 0.485840
vt 0.189453 0.997559
vt 0.224609 0.080566
vt 0.109863 0.088379
vt 0.109863 0.080566
vt 0.128906 0.050293
vt 0.266602 0.403809
vt 0.258789 0.353516
vt 0.266602 0.353516
vt 0.258789 0.124512
vt 0.266602 0.124512
vt 0.000000 0.007324
vt 0.041992 0.048828
vt 0.012695 0.056152
vt 0.102539 0.351562
vt 0.101074 0.352539
vt 0.101074 0.352051
vt 0.031738 0.427246
vt 0.102539 0.352051
vt 0.116699 0.403809
vt 0.170898 0.057617
vt 0.140137 0.000000
vt 0.170898 0.000000
vt 0.134766 0.343262
vt 0.140137 0.078125
vt 0.189941 0.078125
vt 0.052734 0.157227
vt 0.189453 0.503418
vt 0.261230 0.503418
vt 0.262695 0.000488
vt 0.257324 -0.000000
vt 0.084961 0.148926
vt 0.258789 0.403809
vt 0.029297 -0.000000
vt 0.017578 0.375488
vt 0.140137 0.057617
vt 0.158203 0.427246
vt 0.060059 0.051270
vn -1.0000 0.0000 -0.0000
vn 0.0000 0.0000 1.0000
vn 0.0000 -0.0000 -1.0000
vn -0.1104 0.0000 0.9939
vn -0.1104 -0.0000 -0.9939
vn 0.0000 -1.0000 0.0000
vn -0.3714 0.9285 0.0000
vn -0.7029 0.1093 -0.7029
vn -0.7029 0.1093 0.7029
vn 0.0000 1.0000 0.0000
vn -0.1104 -0.0172 0.9937
vn -0.1104 -0.0172 -0.9937
vn -0.9924 0.1234 -0.0000
vn 1.0000 0.0000 0.0000
vn 0.1104 0.0000 -0.9939
vn 0.1104 -0.0172 0.9937
vn 0.1104 0.0000 0.9939
vn 0.3714 0.9285 -0.0000
vn 0.1104 -0.0172 -0.9937
vn 0.7029 0.1093 0.7029
vn 0.7029 0.1093 -0.7029
vn 0.9924 0.1234 0.0000
vn 0.9939 -0.0000 -0.1104
vn 0.0000 0.9285 -0.3714
vn 0.9937 -0.0172 -0.1104
vn 0.0000 0.1234 -0.9924
vn 0.9939 0.0000 0.1104
vn 0.0000 0.9285 0.3714
vn 0.9937 -0.0172 0.1104
vn -0.0000 0.1234 0.9924
vn -0.9939 -0.0000 0.1104
vn -0.9937 -0.0172 0.1104
vn -0.9939 0.0000 -0.1104
vn -0.9937 -0.0172 -0.1104
usemtl Material.017
s off
f 24/1/1 11/2/1 29/3/1
f 1/4/2 42/5/2 7/6/2
f 8/7/3 3/8/3 2/9/3
f 29/3/1 35/10/1 38/11/1
f 27/12/4 17/13/4 18/14/4
f 14/15/3 37/16/3 15/17/3
f 29/18/2 30/19/2 24/20/2
f 20/21/5 14/15/5 13/22/5
f 74/23/1 12/24/1 76/25/1
f 72/26/1 39/27/1 82/28/1
f 80/29/1 17/30/1 78/31/1
f 19/32/6 75/33/6 71/34/6
f 16/35/3 19/32/3 36/36/3
f 10/37/1 37/38/1 34/39/1
f 79/40/7 15/41/7 69/42/7
f 5/43/1 28/44/1 10/37/1
f 23/45/3 16/35/3 28/46/3
f 34/39/8 26/47/8 7/48/8
f 82/28/1 32/49/1 70/50/1
f 12/24/2 38/51/2 39/52/2
f 27/53/9 35/10/9 8/54/9
f 6/55/3 43/56/3 11/57/3
f 64/58/2 44/59/2 34/60/2
f 10/61/2 41/62/2 5/63/2
f 6/64/10 24/65/10 30/66/10
f 59/67/10 31/68/10 5/69/10
f 74/70/10 60/71/10 30/66/10
f 31/68/10 88/72/10 73/73/10
f 73/73/10 87/74/10 74/70/10
f 36/75/1 69/76/1 15/77/1
f 32/78/7 80/29/7 70/79/7
f 33/80/6 76/25/6 12/24/6
f 14/81/1 77/82/1 13/83/1
f 19/84/1 81/85/1 36/75/1
f 31/86/1 75/33/1 16/35/1
f 38/51/11 27/12/11 18/14/11
f 43/56/3 35/87/3 11/57/3
f 35/87/3 9/88/3 8/7/3
f 24/1/1 6/89/1 11/2/1
f 1/4/2 4/90/2 42/5/2
f 8/7/3 9/88/3 3/8/3
f 29/3/1 11/2/1 35/10/1
f 27/12/4 21/91/4 17/13/4
f 26/92/12 37/16/12 14/15/12
f 37/16/3 36/36/3 15/17/3
f 29/18/2 12/24/2 30/19/2
f 20/21/5 26/92/5 14/15/5
f 74/23/1 30/93/1 12/24/1
f 72/26/1 33/94/1 39/27/1
f 80/29/1 18/95/1 17/30/1
f 19/32/6 16/35/6 75/33/6
f 36/36/3 37/16/3 16/35/3
f 37/16/3 28/46/3 16/35/3
f 10/37/1 28/44/1 37/38/1
f 79/40/7 14/81/7 15/41/7
f 5/43/1 23/96/1 28/44/1
f 23/45/3 31/97/3 16/35/3
f 34/39/13 37/38/13 26/47/13
f 82/28/1 39/27/1 32/49/1
f 39/52/2 33/80/2 12/24/2
f 12/24/2 29/18/2 38/51/2
f 27/53/13 38/11/13 35/10/13
f 6/55/3 40/98/3 43/56/3
f 44/59/2 10/61/2 34/60/2
f 34/60/2 7/6/2 64/58/2
f 7/6/2 42/5/2 64/58/2
f 10/61/2 44/59/2 41/62/2
f 30/66/10 60/71/10 40/99/10
f 60/71/10 54/100/10 40/99/10
f 40/99/10 6/64/10 30/66/10
f 31/68/10 23/101/10 5/69/10
f 5/69/10 41/102/10 59/67/10
f 41/102/10 55/103/10 59/67/10
f 74/70/10 87/74/10 60/71/10
f 31/68/10 59/67/10 88/72/10
f 73/73/10 88/72/10 87/74/10
f 36/75/1 81/85/1 69/76/1
f 32/78/7 18/95/7 80/29/7
f 33/80/6 72/104/6 76/25/6
f 14/81/1 79/40/1 77/82/1
f 19/84/1 71/105/1 81/85/1
f 31/86/1 73/106/1 75/33/1
f 18/14/2 32/107/2 38/51/2
f 32/107/2 39/52/2 38/51/2
f 43/56/3 63/108/3 35/87/3
f 35/87/3 63/108/3 9/88/3
usemtl Material.016
f 55/109/14 44/110/14 58/111/14
f 58/111/14 64/112/14 67/113/14
f 56/114/15 50/115/15 51/116/15
f 47/117/16 25/118/16 66/119/16
f 58/120/3 59/121/3 55/122/3
f 25/118/17 46/123/17 22/124/17
f 88/125/14 45/126/14 90/127/14
f 86/128/14 68/129/14 96/130/14
f 94/131/14 50/132/14 92/133/14
f 52/134/6 89/135/6 85/136/6
f 49/137/2 65/138/2 66/119/2
f 43/139/14 66/140/14 63/141/14
f 93/142/18 48/143/18 83/144/18
f 40/145/14 57/146/14 43/139/14
f 54/147/2 49/137/2 57/148/2
f 67/149/19 56/114/19 51/116/19
f 63/141/20 25/150/20 9/151/20
f 96/130/14 61/152/14 84/153/14
f 45/126/3 67/149/3 68/154/3
f 56/155/21 64/112/21 42/156/21
f 65/157/14 83/158/14 48/159/14
f 61/160/18 94/131/18 84/161/18
f 62/162/6 90/127/6 45/126/6
f 47/163/14 91/164/14 46/165/14
f 52/166/14 95/167/14 65/157/14
f 60/168/14 89/135/14 49/137/14
f 55/109/14 41/169/14 44/110/14
f 58/111/14 44/110/14 64/112/14
f 56/114/15 53/170/15 50/115/15
f 66/119/2 65/138/2 48/171/2
f 48/171/2 47/117/2 66/119/2
f 58/120/3 45/126/3 59/121/3
f 25/118/17 47/117/17 46/123/17
f 88/125/14 59/172/14 45/126/14
f 86/128/14 62/173/14 68/129/14
f 94/131/14 51/174/14 50/132/14
f 52/134/6 49/137/6 89/135/6
f 66/119/2 57/148/2 49/137/2
f 49/137/2 52/134/2 65/138/2
f 43/139/14 57/146/14 66/140/14
f 93/142/18 47/163/18 48/143/18
f 40/145/14 54/175/14 57/146/14
f 54/147/2 60/176/2 49/137/2
f 51/116/3 61/177/3 67/149/3
f 61/177/3 68/154/3 67/149/3
f 63/141/22 66/140/22 25/150/22
f 96/130/14 68/129/14 61/152/14
f 68/154/3 62/162/3 45/126/3
f 45/126/3 58/120/3 67/149/3
f 56/155/22 67/113/22 64/112/22
f 65/157/14 95/167/14 83/158/14
f 61/160/18 51/174/18 94/131/18
f 62/162/6 86/178/6 90/127/6
f 47/163/14 93/142/14 91/164/14
f 52/166/14 85/179/14 95/167/14
f 60/168/14 87/180/14 89/135/14
usemtl Material.015
f 8/181/1 1/182/1 7/183/1
f 100/184/14 109/185/14 101/186/14
f 27/187/23 99/188/23 21/189/23
f 106/190/3 76/191/3 102/192/3
f 103/193/3 82/194/3 108/195/3
f 100/196/3 78/197/3 99/198/3
f 103/199/6 76/191/6 72/200/6
f 102/192/14 103/199/14 108/201/14
f 98/202/3 109/203/3 107/204/3
f 80/205/24 101/206/24 70/207/24
f 97/208/3 105/209/3 98/202/3
f 104/210/14 102/192/14 105/211/14
f 107/204/21 27/212/21 8/213/21
f 108/195/3 70/214/3 101/215/3
f 71/216/2 122/217/2 81/218/2
f 8/181/1 120/219/1 107/220/1
f 107/220/1 111/221/1 98/222/1
f 98/222/1 110/223/1 97/224/1
f 117/225/10 106/226/10 97/227/10
f 106/226/10 73/73/10 74/70/10
f 8/181/1 2/228/1 1/182/1
f 27/187/25 109/185/25 100/184/25
f 109/185/14 108/201/14 101/186/14
f 27/187/23 100/184/23 99/188/23
f 106/190/3 74/229/3 76/191/3
f 103/193/3 72/230/3 82/194/3
f 100/196/3 80/205/3 78/197/3
f 103/199/6 102/192/6 76/191/6
f 108/201/14 109/185/14 102/192/14
f 109/185/14 105/211/14 102/192/14
f 98/202/3 105/209/3 109/203/3
f 80/205/24 100/196/24 101/206/24
f 97/208/3 104/231/3 105/209/3
f 104/210/14 106/232/14 102/192/14
f 107/204/26 109/203/26 27/212/26
f 108/195/3 82/194/3 70/214/3
f 71/216/2 119/233/2 122/217/2
f 8/181/1 7/183/1 120/219/1
f 107/220/1 120/219/1 111/221/1
f 98/222/1 111/221/1 110/223/1
f 106/226/10 104/234/10 97/227/10
f 97/227/10 110/235/10 117/225/10
f 110/235/10 115/236/10 117/225/10
f 106/226/10 117/225/10 73/73/10
usemtl Material.014
f 115/237/2 111/238/2 116/239/2
f 116/239/2 120/240/2 121/241/2
f 20/242/27 114/243/27 26/244/27
f 116/245/14 117/246/14 115/247/14
f 73/248/2 112/249/2 75/250/2
f 79/251/2 113/252/2 77/253/2
f 119/254/6 75/250/6 112/249/6
f 118/255/28 79/251/28 69/256/28
f 121/257/29 26/244/29 114/243/29
f 81/218/2 118/258/2 69/259/2
f 26/260/20 120/240/20 7/261/20
f 112/249/14 121/257/14 122/262/14
f 115/237/2 110/263/2 111/238/2
f 116/239/2 111/238/2 120/240/2
f 20/242/27 113/264/27 114/243/27
f 116/245/14 112/249/14 117/246/14
f 73/248/2 117/265/2 112/249/2
f 79/251/2 114/266/2 113/252/2
f 119/254/6 71/267/6 75/250/6
f 118/255/28 114/266/28 79/251/28
f 114/243/14 118/268/14 121/257/14
f 118/268/14 122/262/14 121/257/14
f 81/218/2 122/217/2 118/258/2
f 26/260/30 121/241/30 120/240/30
f 122/262/14 119/254/14 112/249/14
f 112/249/14 116/245/14 121/257/14
usemtl Material.009
f 42/269/14 3/270/14 9/271/14
f 127/272/1 137/273/1 128/274/1
f 56/275/31 126/276/31 53/277/31
f 134/278/2 125/279/2 129/280/2
f 130/281/2 96/282/2 136/283/2
f 127/284/2 92/133/2 126/285/2
f 130/286/6 125/279/6 86/287/6
f 129/280/1 130/286/1 136/288/1
f 124/289/2 137/290/2 135/291/2
f 94/131/28 128/292/28 84/161/28
f 123/293/2 132/294/2 124/289/2
f 131/295/1 129/280/1 132/296/1
f 135/291/9 56/297/9 42/298/9
f 136/283/2 84/299/2 128/300/2
f 85/301/3 152/302/3 95/303/3
f 42/269/14 150/304/14 135/305/14
f 135/305/14 139/306/14 124/307/14
f 124/307/14 138/308/14 123/309/14
f 146/310/10 134/311/10 123/312/10
f 146/310/10 133/313/10 134/311/10
f 42/269/14 4/314/14 3/270/14
f 56/275/32 137/273/32 127/272/32
f 137/273/1 136/288/1 128/274/1
f 56/275/31 127/272/31 126/276/31
f 134/278/2 133/315/2 125/279/2
f 130/281/2 86/316/2 96/282/2
f 127/284/2 94/131/2 92/133/2
f 130/286/6 129/280/6 125/279/6
f 136/288/1 137/273/1 129/280/1
f 137/273/1 132/296/1 129/280/1
f 124/289/2 132/294/2 137/290/2
f 94/131/28 127/284/28 128/292/28
f 123/293/2 131/317/2 132/294/2
f 131/295/1 134/318/1 129/280/1
f 135/291/30 137/290/30 56/297/30
f 136/283/2 96/282/2 84/299/2
f 85/301/3 149/319/3 152/302/3
f 42/269/14 9/271/14 150/304/14
f 135/305/14 150/304/14 139/306/14
f 124/307/14 139/306/14 138/308/14
f 134/311/10 131/320/10 123/312/10
f 123/312/10 138/321/10 146/310/10
f 138/321/10 144/322/10 146/310/10
f 146/310/10 147/323/10 133/313/10
usemtl Material.008
f 144/324/3 139/325/3 145/326/3
f 145/326/3 150/327/3 151/328/3
f 22/329/33 143/330/33 25/331/33
f 145/332/1 146/333/1 144/334/1
f 147/335/3 140/336/3 141/337/3
f 93/338/3 142/339/3 91/340/3
f 149/341/6 141/337/6 140/336/6
f 148/342/24 93/338/24 83/343/24
f 151/344/34 25/331/34 143/330/34
f 95/303/3 148/345/3 83/346/3
f 25/347/8 150/327/8 9/348/8
f 140/336/1 151/344/1 152/349/1
f 144/324/3 138/350/3 139/325/3
f 145/326/3 139/325/3 150/327/3
f 22/329/33 142/351/33 143/330/33
f 145/332/1 140/336/1 146/333/1
f 147/335/3 146/352/3 140/336/3
f 93/338/3 143/353/3 142/339/3
f 149/341/6 85/354/6 141/337/6
f 148/342/24 143/353/24 93/338/24
f 143/330/1 148/355/1 151/344/1
f 148/355/1 152/349/1 151/344/1
f 95/303/3 152/302/3 148/345/3
f 25/347/26 151/328/26 150/327/26
f 152/349/1 149/341/1 140/336/1
f 140/336/1 145/332/1 151/344/1
