# Blender v2.79 (sub 0) OBJ File: 'dungeon_004.blend'
# www.blender.org
mtllib dungeon_004_wall_1ts_001.mtl
o Cube.011_Cube.017
v 0.500000 0.000000 -0.500000
v 0.500000 0.000000 0.500000
v -0.500000 0.000000 0.500000
v -0.500000 0.000000 -0.500000
v 0.375000 3.000000 -0.499999
v 0.374999 3.000000 0.500001
v 0.500000 0.375000 -0.500000
v 0.500000 0.375000 0.500000
v -0.500000 0.375000 0.500000
v 0.375000 2.671875 -0.500000
v 0.374999 2.671875 0.500001
v 0.250000 2.671875 0.450000
v 0.500000 0.000000 -0.450000
v 0.500000 0.375000 -0.450000
v 0.250000 2.671875 -0.450000
v 0.500000 0.000000 0.450000
v -0.500000 0.000000 0.450000
v 0.375000 3.000000 -0.449999
v 0.375000 3.000000 0.450001
v -0.500000 0.375000 0.450000
v 0.500000 0.375000 0.450000
v 0.375000 2.671875 -0.450000
v 0.375000 2.671875 0.450001
v 0.250000 3.000000 0.450000
v 0.250000 3.000000 -0.450000
v 0.375000 1.178906 -0.500000
v 0.375000 1.178906 0.500000
v 0.375000 1.178906 -0.450000
v 0.375000 1.178906 0.450000
v -0.375000 3.000000 0.500000
v -0.374999 3.000000 -0.500001
v -0.500000 0.375000 -0.500000
v -0.375000 2.671875 0.500000
v -0.374999 2.671875 -0.500000
v -0.250000 2.671875 -0.450000
v -0.250000 2.671875 0.450000
v -0.500000 0.000000 -0.450000
v -0.375000 3.000000 0.450000
v -0.375000 3.000000 -0.450001
v -0.500000 0.375000 -0.450000
v -0.375000 2.671875 0.450000
v -0.375000 2.671875 -0.450000
v -0.250000 3.000000 -0.450000
v -0.250000 3.000000 0.450000
v -0.375000 1.178906 0.500000
v -0.375000 1.178906 -0.500000
v -0.375000 1.178906 0.450000
v -0.375000 1.178906 -0.450000
vt 0.265625 0.497070
vt 0.273926 0.442871
vt 0.273926 0.497070
vt 0.248535 0.196289
vt 0.256836 0.442871
vt 0.248535 0.442871
vt 0.256836 0.442871
vt 0.265137 0.497070
vt 0.256836 0.497070
vt 0.256836 0.497070
vt 0.248535 0.497070
vt 0.171875 0.000000
vt 0.000000 0.062500
vt 0.000000 0.000000
vt 0.239746 0.442871
vt 0.248047 0.497070
vt 0.239746 0.497070
vt 0.150879 0.500000
vt 0.020996 0.445312
vt 0.150879 0.445312
vt 0.150879 0.196289
vt 0.020996 0.196289
vt 0.265137 0.442871
vt 0.256836 0.196289
vt 0.265137 0.196289
vt 0.145508 0.196289
vt 0.020996 0.444336
vt 0.020996 0.196289
vt 0.256836 0.000000
vt 0.265137 0.062012
vt 0.256836 0.062012
vt 0.239746 0.196289
vt 0.248047 0.442871
vt 0.273926 0.196289
vt 0.265625 0.062012
vt 0.273926 0.062012
vt 0.248535 0.062012
vt 0.256836 0.196289
vt 0.166504 0.062500
vt 0.000000 0.000000
vt 0.166504 0.000000
vt 0.419434 0.497559
vt 0.467285 0.362793
vt 0.470703 0.496094
vt 0.150391 0.296387
vt 0.366699 0.416504
vt 0.150391 0.416504
vt 0.145508 0.499023
vt 0.020996 0.499023
vt 0.265625 0.000000
vt 0.273926 0.000000
vt 0.317871 0.253906
vt 0.197754 0.253906
vt 0.167969 0.242188
vt 0.197754 0.470215
vt 0.317871 0.470215
vt 0.348145 0.482422
vt 0.265625 0.196289
vt 0.265625 0.442871
vt 0.239746 0.062012
vt 0.248047 0.000000
vt 0.248047 0.062012
vt 0.248047 0.196289
vt 0.000000 0.062500
vt 0.365234 0.159668
vt 0.467285 0.159668
vt 0.416504 0.363770
vt 0.347656 0.050781
vt 0.484863 0.000000
vt 0.484863 0.050781
vt 0.415039 0.496582
vt 0.365234 0.362793
vt 0.416016 0.362793
vt 0.366699 0.495117
vt 0.150391 0.495117
vt 0.256836 0.062012
vt 0.248535 0.000000
vt 0.256836 0.000000
vt 0.171875 0.062500
vt 0.020996 0.500000
vt 0.145508 0.444336
vt 0.265137 0.000000
vt 0.366699 0.296387
vt 0.167969 0.253906
vt 0.348145 0.242188
vt 0.348145 0.253906
vt 0.348145 0.470215
vt 0.167969 0.482422
vt 0.167969 0.470215
vt 0.239746 0.000000
vt 0.347656 0.000000
vt 0.363770 0.496094
vt 0.483398 0.000000
vt 0.347656 0.050781
vt 0.347656 0.000000
vt 0.415527 0.363770
vt 0.469727 0.496582
vt 0.418945 0.497559
vt 0.483398 0.050781
vt 0.364258 0.159668
vt 0.150391 0.217285
vt 0.366699 0.217285
vt 0.414062 0.497070
vt 0.364258 0.362793
vt 0.415527 0.363281
vt 0.466309 0.362793
vt 0.466309 0.159668
vt 0.363281 0.496582
vn 1.0000 -0.0000 0.0000
vn -1.0000 -0.0000 -0.0000
vn 0.0000 0.0000 -1.0000
vn -0.0000 0.0000 1.0000
vn 0.9881 0.1536 0.0000
vn -0.9881 0.1536 -0.0000
vn 0.0000 -1.0000 0.0000
vn 0.0000 1.0000 -0.0000
usemtl Material.051
s off
f 18/1/1 10/2/1 5/3/1
f 47/4/2 33/5/2 41/6/2
f 11/7/1 19/8/1 6/9/1
f 41/6/2 30/10/2 38/11/2
f 4/12/3 7/13/3 1/14/3
f 34/15/2 39/16/2 31/17/2
f 31/18/3 10/19/3 34/20/3
f 46/21/3 10/19/3 26/22/3
f 23/23/1 27/24/1 29/25/1
f 27/26/4 33/27/4 45/28/4
f 2/29/1 21/30/1 8/31/1
f 46/32/2 42/33/2 34/15/2
f 26/34/5 14/35/5 7/36/5
f 20/37/6 45/38/6 47/4/6
f 7/13/3 46/21/3 26/22/3
f 8/39/4 3/40/4 2/41/4
f 44/42/3 41/43/3 38/44/3
f 36/45/7 15/46/7 12/47/7
f 33/27/4 6/48/4 30/49/4
f 7/36/1 13/50/1 1/51/1
f 43/52/8 25/53/8 5/54/8
f 24/55/8 44/56/8 30/57/8
f 28/58/1 10/2/1 22/59/1
f 32/60/2 37/61/2 40/62/2
f 32/60/6 48/63/6 46/32/6
f 21/30/5 27/24/5 8/31/5
f 9/64/4 27/26/4 45/28/4
f 29/65/3 47/66/3 36/67/3
f 21/68/3 17/69/3 20/70/3
f 24/71/3 23/72/3 12/73/3
f 12/47/1 25/74/1 24/75/1
f 47/66/3 21/68/3 20/70/3
f 44/56/8 25/53/8 43/52/8
f 9/76/2 17/77/2 3/78/2
f 18/1/1 22/59/1 10/2/1
f 47/4/2 45/38/2 33/5/2
f 11/7/1 23/23/1 19/8/1
f 41/6/2 33/5/2 30/10/2
f 4/12/3 32/79/3 7/13/3
f 34/15/2 42/33/2 39/16/2
f 31/18/3 5/80/3 10/19/3
f 46/21/3 34/20/3 10/19/3
f 23/23/1 11/7/1 27/24/1
f 27/26/4 11/81/4 33/27/4
f 2/29/1 16/82/1 21/30/1
f 46/32/2 48/63/2 42/33/2
f 26/34/5 28/58/5 14/35/5
f 20/37/6 9/76/6 45/38/6
f 7/13/3 32/79/3 46/21/3
f 8/39/4 9/64/4 3/40/4
f 44/42/3 36/67/3 41/43/3
f 36/45/7 35/83/7 15/46/7
f 33/27/4 11/81/4 6/48/4
f 7/36/1 14/35/1 13/50/1
f 18/84/8 5/54/8 25/53/8
f 5/54/8 31/85/8 43/52/8
f 31/85/8 39/86/8 43/52/8
f 38/87/8 30/57/8 44/56/8
f 30/57/8 6/88/8 24/55/8
f 6/88/8 19/89/8 24/55/8
f 28/58/1 26/34/1 10/2/1
f 32/60/2 4/90/2 37/61/2
f 32/60/6 40/62/6 48/63/6
f 21/30/5 29/25/5 27/24/5
f 9/64/4 8/39/4 27/26/4
f 41/43/3 36/67/3 47/66/3
f 36/67/3 12/73/3 29/65/3
f 12/73/3 23/72/3 29/65/3
f 21/68/3 16/91/3 17/69/3
f 24/71/3 19/92/3 23/72/3
f 12/47/1 15/46/1 25/74/1
f 47/66/3 29/65/3 21/68/3
f 44/56/8 24/55/8 25/53/8
f 9/76/2 20/37/2 17/77/2
usemtl Material.050
f 13/93/4 40/94/4 37/95/4
f 15/96/4 18/97/4 25/98/4
f 14/99/4 48/100/4 40/94/4
f 35/83/2 44/101/2 43/102/2
f 43/103/4 42/104/4 35/105/4
f 35/105/4 42/104/4 48/100/4
f 13/93/4 14/99/4 40/94/4
f 15/96/4 22/106/4 18/97/4
f 14/99/4 28/107/4 48/100/4
f 35/83/2 36/45/2 44/101/2
f 43/103/4 39/108/4 42/104/4
f 48/100/4 28/107/4 15/96/4
f 28/107/4 22/106/4 15/96/4
f 15/96/4 35/105/4 48/100/4
