# Blender v2.79 (sub 0) OBJ File: 'dungeon_004.blend'
# www.blender.org
mtllib dungeon_004_wall_1tp_001.mtl
o Cube.005_Cube.006
v -0.125000 0.425000 0.125000
v 0.125000 0.425000 0.125000
v -0.125000 2.671875 0.125000
v 0.125000 2.671875 0.125000
v -0.250000 3.000000 0.250000
v 0.250000 3.000000 0.250000
v -0.250000 2.671875 0.250000
v 0.250000 2.671875 0.250000
v -0.250000 -0.000000 0.250000
v 0.250000 -0.000000 0.250000
v -0.250000 0.375000 0.250000
v 0.250000 0.375000 0.250000
v 0.250000 -0.000000 -0.250000
v 0.250000 0.375000 -0.250000
v 0.125000 0.425000 -0.125000
v 0.250000 2.671875 -0.250000
v 0.125000 2.671875 -0.125000
v 0.250000 3.000000 -0.250000
v -0.250000 2.671875 -0.250000
v -0.250000 -0.000000 -0.250000
v -0.250000 0.375000 -0.250000
v -0.250000 3.000000 -0.250001
v -0.125000 0.425000 -0.125000
v -0.125000 2.671875 -0.125000
vt 0.204102 0.152344
vt 0.356445 0.207520
vt 0.254883 0.207520
vt 0.050781 0.184082
vt 0.203125 0.133301
vt 0.152344 0.184082
vt 0.407227 0.152344
vt 0.204102 0.000000
vt 0.407227 0.000000
vt 0.249023 0.501465
vt 0.123535 1.000000
vt 0.123535 0.501465
vt 0.000000 0.000000
vt 0.000000 0.133301
vt 0.000000 0.501465
vt 0.249023 1.000000
vt 0.203125 0.000000
vt 0.000000 1.000000
vt 0.204102 0.000000
vt 0.407715 0.133301
vt 0.204102 0.133301
vt 0.407227 0.152344
vt 0.204102 0.000000
vt 0.407227 -0.000000
vt 0.255371 0.184082
vt 0.356934 0.184082
vt 0.254883 0.207520
vt 0.356445 0.207520
vt 0.375000 0.501465
vt 0.406250 0.133789
vt 0.253418 0.184570
vt 0.202637 0.133789
vt 0.499512 0.501465
vt 0.375000 1.000000
vt 0.147949 0.168457
vt 0.351074 0.372070
vt 0.147949 0.372070
vt 0.000000 0.152344
vt 0.152344 0.207520
vt 0.050781 0.207520
vt 0.203613 -0.000000
vt 0.000000 0.000000
vt 0.406250 0.000000
vt 0.407715 0.000000
vt 0.204102 0.152344
vt 0.355469 0.184570
vt 0.499512 1.000000
vt 0.351074 0.168457
vt 0.203613 0.152344
vt 0.202637 0.000000
vt 0.000000 0.000000
vt 0.203613 0.133301
vt 0.000000 0.133301
vt 0.203613 0.152344
vt 0.000000 0.000000
vt 0.203613 0.000000
vt 0.050781 0.184570
vt 0.152344 0.184570
vt 0.050781 0.207520
vt 0.152344 0.207520
vt 0.203613 0.000000
vt 0.000000 0.152344
vn 0.0000 0.9285 0.3714
vn 0.0000 -1.0000 0.0000
vn 0.0000 0.0000 1.0000
vn -1.0000 -0.0000 0.0000
vn 1.0000 0.0000 0.0000
vn 0.3714 0.9285 -0.0000
vn 0.0000 0.0000 -1.0000
vn 0.0000 1.0000 0.0000
vn 0.0000 0.9285 -0.3714
vn -0.3714 0.9285 0.0000
usemtl Material.010
s off
f 11/1/1 2/2/1 1/3/1
f 4/4/2 7/5/2 3/6/2
f 12/7/3 9/8/3 10/9/3
f 2/10/3 3/11/3 1/12/3
f 6/13/3 7/5/3 8/14/3
f 3/11/4 23/15/4 1/12/4
f 11/1/1 12/7/1 2/2/1
f 4/4/2 8/14/2 7/5/2
f 12/7/3 11/1/3 9/8/3
f 2/10/3 4/16/3 3/11/3
f 6/13/3 5/17/3 7/5/3
f 3/11/4 24/18/4 23/15/4
usemtl Material.013
f 18/19/5 8/20/5 16/21/5
f 14/22/5 10/23/5 13/24/5
f 17/25/2 8/20/2 4/26/2
f 2/27/6 14/22/6 15/28/6
f 15/29/5 4/16/5 2/10/5
f 16/30/2 24/31/2 19/32/2
f 23/33/7 17/34/7 15/29/7
f 22/35/8 6/36/8 18/37/8
f 14/38/9 23/39/9 15/40/9
f 20/41/7 14/38/7 13/42/7
f 19/32/7 18/43/7 16/30/7
f 18/19/5 6/44/5 8/20/5
f 14/22/5 12/45/5 10/23/5
f 17/25/2 16/21/2 8/20/2
f 2/27/6 12/45/6 14/22/6
f 15/29/5 17/34/5 4/16/5
f 16/30/2 17/46/2 24/31/2
f 23/33/7 24/47/7 17/34/7
f 22/35/8 5/48/8 6/36/8
f 14/38/9 21/49/9 23/39/9
f 20/41/7 21/49/7 14/38/7
f 19/32/7 22/50/7 18/43/7
usemtl Material.012
f 5/51/4 19/52/4 7/53/4
f 11/54/4 20/55/4 9/56/4
f 3/57/2 19/52/2 24/58/2
f 23/59/10 11/54/10 1/60/10
f 5/51/4 22/61/4 19/52/4
f 11/54/4 21/62/4 20/55/4
f 3/57/2 7/53/2 19/52/2
f 23/59/10 21/62/10 11/54/10
