# Blender v2.79 (sub 0) OBJ File: 'dungeon_004.blend'
# www.blender.org
mtllib dungeon_004_wall_1te_001.mtl
o Cube.007_Cube.013
v -0.500000 0.000000 -0.500000
v 0.500000 0.000000 -0.500000
v -0.500000 0.375000 -0.500000
v 0.500000 0.375000 -0.500000
v -0.500000 0.000000 -0.450000
v 0.500000 0.000000 -0.450000
v -0.500000 0.375000 -0.450000
v 0.500000 0.375000 -0.450000
v -0.125000 0.425000 0.125000
v 0.125000 0.425000 0.125000
v -0.125000 2.671875 0.125000
v 0.125000 2.671875 0.125000
v -0.250000 3.000000 0.250000
v 0.250000 3.000000 0.250000
v -0.250000 2.671875 0.250000
v 0.250000 2.671875 0.250000
v -0.250000 -0.000000 0.250000
v 0.250000 -0.000000 0.250000
v -0.250000 0.375000 0.250000
v 0.250000 0.375000 0.250000
v 0.375001 3.000000 -0.500000
v 0.375000 2.671875 -0.500000
v 0.250000 -0.000000 -0.450000
v 0.250000 0.375000 -0.450000
v 0.125000 0.425000 -0.450000
v 0.250000 2.671875 -0.450000
v 0.125000 2.671875 -0.450000
v 0.375000 3.000000 -0.449999
v 0.375000 2.671875 -0.450000
v 0.250000 3.000000 -0.450000
v 0.375000 1.178906 -0.500000
v 0.125000 1.178906 -0.450000
v 0.375000 1.178906 -0.450000
v -0.374999 3.000000 -0.500000
v -0.374999 2.671875 -0.500000
v -0.250000 2.671875 -0.450000
v -0.250000 -0.000000 -0.450000
v -0.250000 0.375000 -0.450000
v -0.375000 3.000000 -0.450001
v -0.375000 2.671875 -0.450001
v -0.250000 3.000000 -0.450001
v -0.125000 0.425000 -0.450000
v -0.125000 2.671875 -0.450000
v -0.375000 1.178906 -0.500000
v -0.375000 1.178906 -0.450000
v -0.125000 1.178906 -0.450000
vt 0.377930 0.452637
vt 0.449219 0.478516
vt 0.401855 0.478516
vt 0.400391 0.477051
vt 0.471680 0.453613
vt 0.447754 0.477051
vt 0.473145 0.452637
vt 0.377930 0.381348
vt 0.473145 0.381348
vt 0.294922 0.501465
vt 0.205566 1.000000
vt 0.205566 0.501465
vt 0.376465 0.391113
vt 0.376465 0.453613
vt 0.000000 1.000000
vt 0.000000 0.668945
vt 0.294922 1.000000
vt 0.471680 0.391113
vt 0.000000 0.501465
vt 0.238281 0.000000
vt 0.246094 0.060059
vt 0.238281 0.060059
vt 0.000000 0.061523
vt 0.164062 0.000000
vt 0.164062 0.061523
vt 0.197754 0.054688
vt 0.216309 0.172852
vt 0.179688 0.062012
vt 0.234375 0.000000
vt 0.197754 0.000000
vt 0.348145 0.000000
vt 0.480957 0.062500
vt 0.348145 0.062500
vt 0.474609 0.071289
vt 0.341797 0.000000
vt 0.474609 0.000000
vt 0.457520 0.086426
vt 0.179688 0.393066
vt 0.179688 0.392090
vt 0.179688 0.172852
vt 0.237793 0.430664
vt 0.229492 0.190918
vt 0.237793 0.190918
vt 0.365234 0.096680
vt 0.474609 0.096680
vt 0.237793 0.483398
vt 0.229492 0.430664
vt 0.217773 0.488770
vt 0.216309 0.392090
vt 0.229492 0.060059
vt 0.237793 0.060059
vt 0.500488 0.668945
vt 0.500488 1.000000
vt 0.143555 0.193359
vt 0.020508 0.193359
vt 0.143555 0.438965
vt 0.020508 0.438965
vt 0.143555 0.492676
vt 0.020508 0.492676
vt 0.480469 0.204590
vt 0.480469 0.109375
vt 0.489746 0.085449
vt 0.347168 0.109375
vt 0.229492 0.000000
vt 0.237793 0.000000
vt 0.246094 0.000000
vt 0.000000 0.000000
vt 0.234375 0.054688
vt 0.480957 0.000000
vt 0.341797 0.071289
vt 0.348145 0.086426
vt 0.229492 0.483398
vt 0.181152 0.489258
vt 0.500488 0.501465
vt 0.480469 0.085449
vt 0.489746 0.228027
vt 0.480469 0.228027
vt 0.347168 0.204590
vt 0.246094 0.483398
vt 0.238281 0.430664
vt 0.246094 0.430664
vt 0.238281 0.190918
vt 0.246094 0.190918
vt 0.249512 0.000000
vt 0.293457 0.068359
vt 0.249023 0.067383
vt 0.263672 0.482910
vt 0.262207 0.483887
vt 0.262207 0.482910
vt 0.342285 0.000000
vt 0.475098 0.062500
vt 0.342285 0.062500
vt 0.477051 0.071289
vt 0.344238 0.000000
vt 0.477051 0.000000
vt 0.366211 0.085938
vt 0.475098 0.085938
vt 0.344238 0.071289
vt 0.453613 0.096680
vt 0.344238 0.096680
vt 0.268555 0.213379
vt 0.263672 0.483887
vt 0.313965 0.213867
vt 0.238281 0.483398
vt 0.294922 0.000488
vt 0.475098 0.000000
vt 0.315918 0.077637
vt 0.309082 0.483887
vn 0.0000 0.9285 0.3714
vn 0.0000 -1.0000 0.0000
vn 0.0000 0.0000 1.0000
vn -1.0000 0.0000 -0.0000
vn 0.0000 -0.0000 -1.0000
vn 1.0000 0.0000 0.0000
vn 0.3714 0.9285 -0.0000
vn 0.9881 0.1536 0.0000
vn 0.0000 1.0000 -0.0000
vn -0.3714 0.9285 -0.0000
vn -0.9881 0.1536 0.0000
usemtl Material.042
s off
f 19/1/1 10/2/1 9/3/1
f 12/4/2 15/5/2 11/6/2
f 20/7/3 17/8/3 18/9/3
f 10/10/3 11/11/3 9/12/3
f 14/13/3 15/5/3 16/14/3
f 11/11/4 43/15/4 46/16/4
f 19/1/1 20/7/1 10/2/1
f 12/4/2 16/14/2 15/5/2
f 20/7/3 19/1/3 17/8/3
f 10/10/3 12/17/3 11/11/3
f 14/13/3 13/18/3 15/5/3
f 42/19/4 9/12/4 46/16/4
f 9/12/4 11/11/4 46/16/4
usemtl Material.041
f 1/20/4 7/21/4 3/22/4
f 4/23/5 1/24/5 3/25/5
f 24/26/3 33/27/3 25/28/3
f 6/29/3 24/26/3 23/30/3
f 30/31/6 16/32/6 26/33/6
f 24/34/6 18/35/6 23/36/6
f 12/37/2 26/33/2 16/32/2
f 26/38/3 27/39/3 32/40/3
f 22/41/6 33/42/6 31/43/6
f 10/44/7 24/34/7 25/45/7
f 21/46/6 29/47/6 22/41/6
f 28/48/3 26/38/3 29/49/3
f 31/43/8 8/50/8 4/51/8
f 32/52/6 27/53/6 12/17/6
f 4/23/5 44/54/5 31/55/5
f 31/55/5 35/56/5 22/57/5
f 22/57/5 34/58/5 21/59/5
f 41/60/9 30/61/9 21/62/9
f 41/60/9 14/63/9 30/61/9
f 4/51/6 6/64/6 2/65/6
f 1/20/4 5/66/4 7/21/4
f 4/23/5 2/67/5 1/24/5
f 8/68/3 33/27/3 24/26/3
f 33/27/3 32/40/3 25/28/3
f 6/29/3 8/68/3 24/26/3
f 30/31/6 14/69/6 16/32/6
f 24/34/6 20/70/6 18/35/6
f 12/37/2 27/71/2 26/33/2
f 32/40/3 33/27/3 26/38/3
f 33/27/3 29/49/3 26/38/3
f 22/41/6 29/47/6 33/42/6
f 10/44/7 20/70/7 24/34/7
f 21/46/6 28/72/6 29/47/6
f 28/48/3 30/73/3 26/38/3
f 31/43/8 33/42/8 8/50/8
f 12/17/6 10/10/6 32/52/6
f 10/10/6 25/74/6 32/52/6
f 4/23/5 3/25/5 44/54/5
f 31/55/5 44/54/5 35/56/5
f 22/57/5 35/56/5 34/58/5
f 30/61/9 28/75/9 21/62/9
f 21/62/9 34/76/9 41/60/9
f 34/76/9 39/77/9 41/60/9
f 41/60/9 13/78/9 14/63/9
f 4/51/6 8/50/6 6/64/6
usemtl Material.040
f 39/79/4 35/80/4 40/81/4
f 40/81/4 44/82/4 45/83/4
f 5/84/3 38/85/3 7/86/3
f 40/87/3 41/88/3 39/89/3
f 13/90/4 36/91/4 15/92/4
f 19/93/4 37/94/4 17/95/4
f 11/96/2 36/91/2 43/97/2
f 38/98/10 9/99/10 42/100/10
f 45/101/3 7/86/3 38/85/3
f 45/83/11 3/22/11 7/21/11
f 36/102/3 45/101/3 46/103/3
f 39/79/4 34/104/4 35/80/4
f 40/81/4 35/80/4 44/82/4
f 5/84/3 37/105/3 38/85/3
f 40/87/3 36/102/3 41/88/3
f 13/90/4 41/106/4 36/91/4
f 19/93/4 38/98/4 37/94/4
f 11/96/2 15/92/2 36/91/2
f 38/98/10 19/93/10 9/99/10
f 38/85/3 42/107/3 45/101/3
f 42/107/3 46/103/3 45/101/3
f 45/83/11 44/82/11 3/22/11
f 46/103/3 43/108/3 36/102/3
f 36/102/3 40/87/3 45/101/3
