# Blender v2.79 (sub 0) OBJ File: 'dungeon_004.blend'
# www.blender.org
mtllib dungeon_004_wall_2tus_001.mtl
o Cube.000_Cube.002
v 0.500000 0.000000 -1.500000
v 0.500000 0.000000 0.500000
v -0.500000 0.000000 0.500000
v -0.500000 0.000000 -1.500000
v 0.375000 3.000000 -1.500000
v 0.374999 3.000000 0.500001
v -0.500000 0.375000 0.500000
v 0.375000 1.178906 -1.500000
v 0.375000 1.178906 0.500000
v 0.250000 2.670000 0.450000
v 0.250000 2.670000 -1.450000
v -0.500000 0.000000 0.450000
v 0.375000 3.000000 -1.449999
v 0.375000 3.000000 0.450001
v -0.500000 0.375000 0.450000
v 0.375000 2.671875 -1.450000
v 0.375000 2.671875 0.450001
v 0.250000 3.000000 0.450000
v 0.250000 3.000000 -1.450000
v -0.375000 3.000000 0.500000
v -0.374999 3.000000 -1.500000
v -0.500000 0.375000 -1.500000
v -0.375000 2.671875 0.500000
v -0.374999 2.671875 -1.500000
v -0.250000 2.671875 -1.450000
v -0.250000 -0.000000 0.450000
v -0.250000 0.375000 0.450000
v -0.125000 0.425000 0.450000
v -0.250000 2.671875 0.450000
v -0.250000 -0.000000 -1.450000
v -0.250000 0.375000 -1.450000
v -0.125000 2.671875 0.450000
v -0.500000 0.000000 -1.450000
v -0.375000 3.000000 0.450000
v -0.375000 3.000000 -1.450001
v -0.500000 0.375000 -1.450000
v -0.375000 2.671875 0.450000
v -0.375000 2.671875 -1.450001
v -0.250000 3.000000 -1.450001
v -0.250000 3.000000 0.450000
v -0.125000 0.425000 -1.450000
v -0.125000 2.671875 -1.450000
v -0.375000 1.178906 0.500000
v -0.375000 1.178906 -1.500000
v -0.125000 1.178906 0.450000
v -0.375000 1.178906 0.450000
v -0.375000 1.178906 -1.450000
v -0.125000 1.178906 -1.450000
v 2.500000 0.000000 0.500000
v 2.500000 0.000000 -1.500000
v 2.500000 -0.000000 -1.450000
v 2.500000 -0.000000 0.450000
v 0.500000 0.375000 -1.500000
v 0.500000 0.375000 0.500000
v 2.500000 0.375000 0.500000
v 2.500000 0.375000 -1.450000
v 2.500000 0.375000 -1.500000
v 2.500000 0.375000 0.450000
v 2.178571 0.375000 0.450000
v 2.178571 0.375000 -1.450000
v 2.178571 0.750000 -1.450000
v 1.857143 0.750000 -1.450000
v 1.857143 0.750000 0.450000
v 2.178571 0.750000 0.450000
v 1.857143 1.125000 -1.450000
v 1.535714 1.125000 -1.450000
v 1.535714 1.125000 0.450000
v 1.857143 1.125000 0.450000
v 1.535714 1.500000 -1.450000
v 1.214286 1.500000 -1.450000
v 1.214286 1.500000 0.450000
v 1.535714 1.500000 0.450000
v 1.214286 1.875000 -1.450000
v 0.892857 1.875000 -1.450000
v 0.892857 1.875000 0.450000
v 1.214286 1.875000 0.450000
v 0.571429 2.250000 -1.450000
v 0.892857 2.250000 -1.450000
v 0.571429 2.250000 0.450000
v 0.892857 2.250000 0.450000
v 0.571429 2.670000 -1.450000
v 0.571429 2.670000 0.450000
vt 0.229980 0.051270
vt 0.223145 0.000000
vt 0.229980 -0.000000
vt 0.057129 0.416992
vt 0.074219 0.461426
vt 0.057129 0.461426
vt 0.499023 0.955566
vt 0.000000 0.927246
vt 0.499023 0.927246
vt 0.243164 0.051270
vt 0.236328 0.000000
vt 0.243164 0.000000
vt 0.074219 0.371094
vt 0.057129 0.416016
vt 0.057129 0.371094
vt 0.448730 0.160645
vt 0.448730 0.363770
vt 0.346191 0.160645
vt 0.124512 0.474609
vt 0.124512 0.481445
vt 0.107422 0.481445
vt 0.074219 0.467285
vt 0.142090 0.467285
vt 0.159180 0.473633
vt 0.000000 0.999512
vt 0.000000 0.955566
vt 0.000000 0.172852
vt 0.272461 0.122070
vt 0.272461 0.172852
vt 0.000000 0.562012
vt 0.499023 0.533203
vt 0.499023 0.562012
vt 0.043945 0.291992
vt 0.000000 0.356934
vt 0.041016 0.307617
vt 0.499023 0.500977
vt 0.000000 0.533203
vt 0.000000 0.500977
vt 0.272461 0.070312
vt 0.000000 0.121094
vt 0.000000 0.070312
vt 0.099609 0.371094
vt 0.092773 0.421875
vt 0.092773 0.371094
vt 0.106934 0.371094
vt 0.100098 0.421875
vt 0.100098 0.371094
vt 0.499023 0.622070
vt 0.000000 0.654785
vt 0.000000 0.622070
vt 0.499023 0.593262
vt 0.000000 0.593262
vt 0.499023 0.682129
vt 0.000000 0.714355
vt 0.000000 0.682129
vt 0.499023 0.654785
vt 0.000000 0.742676
vt 0.499023 0.714355
vt 0.499023 0.742676
vt 0.000000 0.802246
vt 0.499023 0.774902
vt 0.499023 0.802246
vt 0.000000 0.774902
vt 0.499023 0.863770
vt 0.000000 0.899902
vt 0.000000 0.863770
vt 0.499023 0.835449
vt 0.000000 0.835449
vt 0.258789 0.423340
vt 0.251465 0.000000
vt 0.258789 0.000000
vt 0.499023 0.899902
vt 0.499023 0.916016
vt 0.055664 0.267090
vt 0.211426 -0.000000
vt 0.211426 0.459961
vt 0.055664 0.267090
vt 0.211426 0.000000
vt 0.000000 0.171387
vt 0.330566 0.051270
vt 0.330566 0.000000
vt 0.466797 0.051270
vt 0.261230 0.423340
vt 0.268555 0.000000
vt 0.268555 0.423340
vt 0.039551 0.304688
vt 0.038086 0.304688
vt 0.000000 0.342773
vt 0.223145 0.051270
vt 0.074219 0.416504
vt 0.236328 0.051270
vt 0.074219 0.416016
vt 0.448730 0.408691
vt 0.346191 0.408691
vt 0.329590 0.051270
vt 0.329590 0.000000
vt 0.465332 0.051270
vt 0.465332 0.000000
vt 0.039551 0.481445
vt 0.022461 0.474609
vt 0.022461 0.481445
vt 0.159180 0.467285
vt 0.057129 0.473633
vt 0.057129 0.467285
vt 0.499023 0.999512
vt 0.000000 0.122070
vt 0.021973 0.330078
vt 0.038086 0.317383
vt 0.041504 0.314941
vt 0.039551 0.312500
vt 0.042480 0.310059
vt 0.050293 0.300293
vt 0.168457 0.159668
vt 0.055176 0.053223
vt 0.052734 0.050781
vt 0.050293 0.052734
vt 0.026367 0.021484
vt 0.000000 0.000000
vt 0.272461 0.121094
vt 0.099609 0.421875
vt 0.106934 0.421875
vt 0.251465 0.423340
vt 0.000000 0.916016
vt 0.000000 0.171387
vt 0.211426 0.459473
vt 0.449707 0.160645
vt 0.449707 0.408691
vt 0.347656 0.363770
vt 0.347656 0.408691
vt 0.347656 0.160645
vt 0.466797 0.000000
vt 0.261230 0.000000
vt 0.000000 -0.000000
vt 0.025391 0.020508
vt 0.048340 0.050781
vt 0.170898 0.162109
vt 0.041016 0.304688
vt 0.041016 0.305176
vt 0.040527 0.304688
vt 0.040039 0.305176
vt 0.038574 0.305176
vt 0.037598 0.305176
vt 0.036621 0.304688
vt 0.020996 0.316895
vt 0.229980 0.409668
vt 0.223145 0.365234
vt 0.229980 0.365234
vt 0.223145 0.161621
vt 0.229980 0.161621
vt 0.022461 0.422852
vt 0.056641 0.473633
vt 0.022461 0.473633
vt 0.291992 0.000000
vt 0.309082 0.109375
vt 0.274902 0.006836
vt 0.074707 0.371094
vt 0.091797 0.415527
vt 0.074707 0.415527
vt 0.056641 0.421875
vt 0.022461 0.371094
vt 0.056641 0.371094
vt 0.000000 0.000000
vt 0.258789 0.044434
vt -0.000000 0.044434
vt 0.000000 0.018555
vt 0.258789 0.069336
vt 0.000000 0.069336
vt 0.258789 0.061523
vt 0.274902 0.312988
vt 0.274902 0.312500
vt 0.274902 0.109375
vt 0.243164 0.365234
vt 0.236328 0.161621
vt 0.243164 0.161621
vt 0.258789 0.018555
vt 0.000000 0.000000
vt 0.258789 0.000000
vt 0.243164 0.409668
vt 0.236328 0.365234
vt 0.091797 0.461426
vt 0.074707 0.416504
vt 0.091797 0.416504
vt 0.305664 0.109863
vt 0.320801 0.000000
vt 0.287109 0.000488
vt 0.000000 1.000000
vt 0.000000 0.501953
vt 0.331055 0.501953
vt 0.309570 0.313477
vt 0.271973 0.110352
vt 0.223145 0.409668
vt 0.056641 0.422852
vt 0.325684 0.000000
vt 0.091797 0.371094
vt 0.022461 0.421875
vt 0.258789 0.000000
vt -0.000000 0.061523
vt 0.309082 0.312500
vt 0.236328 0.409668
vt 0.074707 0.461426
vt 0.270020 0.007812
vt 0.498535 0.501953
vt 0.498535 1.000000
vt 0.331055 1.000000
vt 0.275391 0.313477
vt 0.309570 0.312988
vn -1.0000 0.0000 -0.0000
vn 0.0000 0.0000 -1.0000
vn 1.0000 -0.0000 0.0000
vn -0.0000 -0.0000 1.0000
vn 0.0000 1.0000 0.0000
vn 0.7772 0.6292 0.0000
vn 0.0095 1.0000 0.0000
vn -0.0150 0.9999 0.0000
vn 0.0000 -1.0000 0.0000
vn -0.3714 0.9285 0.0000
vn -0.9881 0.1536 -0.0000
usemtl Material.003
s off
f 36/1/1 4/2/1 33/3/1
f 17/4/2 18/5/2 14/6/2
f 19/7/3 10/8/3 11/9/3
f 7/10/1 12/11/1 3/12/1
f 16/13/4 19/14/4 11/15/4
f 44/16/2 24/17/2 8/18/2
f 6/19/5 14/20/5 18/21/5
f 39/22/5 19/23/5 5/24/5
f 19/7/5 40/25/5 18/26/5
f 1/27/2 57/28/2 50/29/2
f 59/30/5 56/31/5 60/32/5
f 69/33/4 13/34/4 73/35/4
f 51/36/3 58/37/3 52/38/3
f 49/39/4 54/40/4 2/41/4
f 50/42/3 56/43/3 51/44/3
f 52/45/3 55/46/3 49/47/3
f 62/48/3 68/49/3 63/50/3
f 63/50/5 61/51/5 62/48/5
f 60/32/3 64/52/3 59/30/3
f 66/53/3 72/54/3 67/55/3
f 67/55/5 65/56/5 66/53/5
f 71/57/5 69/58/5 70/59/5
f 75/60/5 73/61/5 74/62/5
f 70/59/3 76/63/3 71/57/3
f 77/64/3 82/65/3 79/66/3
f 79/66/5 78/67/5 77/64/5
f 74/62/3 80/68/3 75/60/3
f 5/69/6 56/70/6 57/71/6
f 82/65/7 81/72/7 16/73/7
f 9/74/4 55/75/4 6/76/4
f 8/77/2 57/78/2 53/79/2
f 7/80/4 3/81/4 54/82/4
f 6/83/6 58/84/6 14/85/6
f 76/86/2 80/87/2 14/88/2
f 36/1/1 22/89/1 4/2/1
f 17/4/2 10/90/2 18/5/2
f 19/7/3 18/26/3 10/8/3
f 7/10/1 15/91/1 12/11/1
f 16/13/4 13/92/4 19/14/4
f 21/93/2 5/94/2 24/17/2
f 5/94/2 8/18/2 24/17/2
f 8/18/2 53/95/2 44/16/2
f 53/95/2 1/96/2 22/97/2
f 44/16/2 53/95/2 22/97/2
f 1/96/2 4/98/2 22/97/2
f 18/21/5 40/99/5 20/100/5
f 40/99/5 34/101/5 20/100/5
f 20/100/5 6/19/5 18/21/5
f 19/23/5 13/102/5 5/24/5
f 5/24/5 21/103/5 39/22/5
f 21/103/5 35/104/5 39/22/5
f 19/7/5 39/105/5 40/25/5
f 1/27/2 53/106/2 57/28/2
f 59/30/5 58/37/5 56/31/5
f 13/34/4 16/107/4 81/108/4
f 81/108/4 77/109/4 78/110/4
f 78/110/4 74/111/4 73/35/4
f 73/35/4 70/112/4 69/33/4
f 69/33/4 66/113/4 65/114/4
f 65/114/4 62/115/4 61/116/4
f 61/116/4 60/117/4 56/118/4
f 56/118/4 13/34/4 61/116/4
f 13/34/4 81/108/4 78/110/4
f 61/116/4 13/34/4 65/114/4
f 78/110/4 73/35/4 13/34/4
f 69/33/4 65/114/4 13/34/4
f 51/36/3 56/31/3 58/37/3
f 49/39/4 55/119/4 54/40/4
f 50/42/3 57/120/3 56/43/3
f 52/45/3 58/121/3 55/46/3
f 62/48/3 65/56/3 68/49/3
f 63/50/5 64/52/5 61/51/5
f 60/32/3 61/51/3 64/52/3
f 66/53/3 69/58/3 72/54/3
f 67/55/5 68/49/5 65/56/5
f 71/57/5 72/54/5 69/58/5
f 75/60/5 76/63/5 73/61/5
f 70/59/3 73/61/3 76/63/3
f 77/64/3 81/72/3 82/65/3
f 79/66/5 80/68/5 78/67/5
f 74/62/3 78/67/3 80/68/3
f 5/69/6 13/122/6 56/70/6
f 16/73/8 11/9/8 10/8/8
f 10/8/8 17/123/8 16/73/8
f 17/123/7 82/65/7 16/73/7
f 9/74/4 54/124/4 55/75/4
f 8/77/2 5/125/2 57/78/2
f 9/126/4 6/127/4 23/128/4
f 6/127/4 20/129/4 23/128/4
f 23/128/4 43/130/4 9/126/4
f 9/126/4 43/130/4 54/82/4
f 3/81/4 2/131/4 54/82/4
f 43/130/4 7/80/4 54/82/4
f 6/83/6 55/132/6 58/84/6
f 58/133/2 59/134/2 64/135/2
f 64/135/2 63/136/2 68/137/2
f 68/137/2 67/138/2 72/139/2
f 72/139/2 71/140/2 76/86/2
f 76/86/2 75/141/2 80/87/2
f 80/87/2 79/142/2 82/143/2
f 82/143/2 17/144/2 14/88/2
f 14/88/2 58/133/2 64/135/2
f 68/137/2 72/139/2 14/88/2
f 72/139/2 76/86/2 14/88/2
f 14/88/2 64/135/2 68/137/2
f 80/87/2 82/143/2 14/88/2
usemtl Material.002
f 35/145/1 24/146/1 38/147/1
f 38/147/1 44/148/1 47/149/1
f 33/150/4 31/151/4 36/152/4
f 27/153/2 46/154/2 28/155/2
f 38/156/4 39/157/4 35/158/4
f 15/159/2 26/160/2 12/161/2
f 40/162/1 25/163/1 29/164/1
f 27/165/1 30/166/1 26/167/1
f 42/168/9 29/164/9 25/163/9
f 29/169/2 32/170/2 45/171/2
f 23/172/1 46/173/1 43/174/1
f 31/175/10 28/176/10 41/177/10
f 20/178/1 37/179/1 23/172/1
f 34/180/2 29/181/2 37/182/2
f 47/183/4 36/184/4 31/185/4
f 43/174/11 15/91/11 7/10/11
f 32/186/1 42/187/1 48/188/1
f 25/189/4 47/183/4 48/190/4
f 47/149/11 22/89/11 36/1/11
f 35/145/1 21/191/1 24/146/1
f 38/147/1 24/146/1 44/148/1
f 33/150/4 30/192/4 31/151/4
f 15/193/2 46/154/2 27/153/2
f 46/154/2 45/171/2 28/155/2
f 38/156/4 25/194/4 39/157/4
f 15/159/2 27/195/2 26/160/2
f 40/162/1 39/196/1 25/163/1
f 27/165/1 31/175/1 30/166/1
f 42/168/9 32/197/9 29/164/9
f 45/171/2 46/154/2 29/169/2
f 46/154/2 37/198/2 29/169/2
f 23/172/1 37/179/1 46/173/1
f 31/175/10 27/165/10 28/176/10
f 20/178/1 34/199/1 37/179/1
f 34/180/2 40/200/2 29/181/2
f 31/185/4 41/201/4 47/183/4
f 41/201/4 48/190/4 47/183/4
f 43/174/11 46/173/11 15/91/11
f 48/188/1 41/202/1 28/203/1
f 28/203/1 45/204/1 48/188/1
f 45/204/1 32/186/1 48/188/1
f 48/190/4 42/205/4 25/189/4
f 25/189/4 38/206/4 47/183/4
f 47/149/11 44/148/11 22/89/11
