# Blender v2.79 (sub 0) OBJ File: 'dungeon_004.blend'
# www.blender.org
mtllib dungeon_004_wall_1tp_002.mtl
o Cube.013_Cube.019
v -0.125000 0.425000 0.125000
v 0.125000 0.425000 0.125000
v -0.125000 1.352935 0.125000
v 0.125000 0.900002 0.125000
v -0.250000 -0.000000 0.250000
v 0.250000 -0.000000 0.250000
v -0.250000 0.375000 0.250000
v 0.250000 0.375000 0.250000
v 0.250000 -0.000000 -0.250000
v 0.250000 0.375000 -0.250000
v 0.125000 0.425000 -0.125000
v 0.125000 1.352935 -0.125000
v -0.250000 -0.000000 -0.250000
v -0.250000 0.375000 -0.250000
v -0.125000 0.425000 -0.125000
v -0.125000 1.519614 -0.125000
vt 0.000000 0.210938
vt 0.210449 0.286133
vt 0.069824 0.286133
vt 0.280273 0.210938
vt 0.000000 0.000000
vt 0.280273 0.000000
vt 0.293945 0.500977
vt 0.340820 0.590332
vt 0.293945 0.675293
vt 0.247070 0.500977
vt 0.340820 0.500977
vt 0.247070 0.707031
vt 0.280762 0.210449
vt 0.000000 0.000000
vt 0.280762 0.000000
vt 0.070312 0.286133
vt 0.210449 0.286133
vt 0.199707 0.500977
vt 0.153320 0.590332
vt 0.153320 0.500977
vt 0.376953 0.619629
vt 0.371094 0.597656
vt 0.396484 0.606445
vt 0.199707 0.675293
vt 0.000000 0.210449
vt 0.210449 0.286133
vt 0.070312 0.286133
vt 0.280762 0.000000
vt 0.000000 0.000000
vt 0.396484 0.566406
vt 0.000000 0.210449
vt 0.280762 0.210449
vt 0.280762 0.210938
vt 0.000000 0.000000
vt 0.280762 0.000000
vt 0.070312 0.286133
vt 0.210449 0.286133
vt 0.000000 0.210938
vn 0.0000 0.9285 0.3714
vn 0.0000 0.0000 1.0000
vn -1.0000 -0.0000 0.0000
vn 1.0000 0.0000 -0.0000
vn 0.3714 0.9285 -0.0000
vn 0.4851 0.7276 0.4851
vn 0.0000 0.0000 -1.0000
vn 0.0000 0.9285 -0.3714
vn 0.6587 0.3636 0.6587
vn -0.3714 0.9285 0.0000
usemtl Material.056
s off
f 7/1/1 2/2/1 1/3/1
f 8/4/2 5/5/2 6/6/2
f 1/7/2 4/8/2 3/9/2
f 3/9/3 15/10/3 1/7/3
f 7/1/1 8/4/1 2/2/1
f 8/4/2 7/1/2 5/5/2
f 1/7/2 2/11/2 4/8/2
f 3/9/3 16/12/3 15/10/3
usemtl Material.055
f 10/13/4 6/14/4 9/15/4
f 2/16/5 10/13/5 11/17/5
f 11/18/4 4/19/4 2/20/4
f 16/21/6 3/22/6 12/23/6
f 15/10/7 12/24/7 11/18/7
f 10/25/8 15/26/8 11/27/8
f 13/28/7 10/25/7 9/29/7
f 4/30/9 12/23/9 3/22/9
f 10/13/4 8/31/4 6/14/4
f 2/16/5 8/31/5 10/13/5
f 11/18/4 12/24/4 4/19/4
f 15/10/7 16/12/7 12/24/7
f 10/25/8 14/32/8 15/26/8
f 13/28/7 14/32/7 10/25/7
usemtl Material.054
f 7/33/3 13/34/3 5/35/3
f 15/36/10 7/33/10 1/37/10
f 7/33/3 14/38/3 13/34/3
f 15/36/10 14/38/10 7/33/10
