# Blender v2.79 (sub 0) OBJ File: 'dungeon_004.blend'
# www.blender.org
mtllib dungeon_004_wall_1td_001.mtl
o Cube.010_Cube.016
v 0.500000 0.000000 -0.500000
v 0.500000 0.000000 0.500000
v -0.500000 0.000000 0.500000
v -0.500000 0.000000 -0.500000
v 0.375000 3.000000 -0.500000
v 0.375000 3.000000 0.500000
v 0.500000 0.375000 -0.500000
v 0.500000 0.375000 0.500000
v -0.500000 0.375000 0.500000
v 0.250000 2.671875 0.450000
v 0.250000 0.000000 -0.450000
v 0.250000 0.375000 -0.450000
v 0.125000 0.425000 -0.450000
v 0.250000 2.671875 -0.450000
v 0.250000 0.000000 0.450000
v 0.250000 0.375000 0.450000
v 0.125000 2.671875 -0.450000
v 0.500000 0.000000 -0.450000
v 0.500000 0.000000 0.450000
v -0.500000 0.000000 0.450000
v 0.375000 3.000000 -0.450000
v 0.375000 3.000000 0.450000
v -0.500000 0.375000 0.450000
v 0.500000 0.375000 -0.450000
v 0.500000 0.375000 0.450000
v 0.375000 2.671875 -0.450000
v 0.375000 2.671875 0.450000
v 0.250000 3.000000 0.450000
v 0.250000 3.000000 -0.450000
v 0.125000 0.425000 0.450000
v 0.125000 2.671875 0.450000
v 0.375000 1.178906 -0.500000
v 0.375000 1.178906 0.500000
v 0.125000 1.178906 -0.450000
v 0.375000 1.178906 -0.450000
v 0.375000 1.178906 0.450000
v 0.125000 1.178906 0.450000
v -0.375000 3.000000 0.499999
v -0.375000 3.000000 -0.500001
v -0.500000 0.375000 -0.500000
v -0.250000 2.671875 -0.450001
v -0.250000 0.000000 0.450000
v -0.250000 0.375000 0.450000
v -0.125000 0.425000 0.450000
v -0.250000 2.671875 0.449999
v -0.250000 0.000000 -0.450000
v -0.250000 0.375000 -0.450000
v -0.125000 2.671875 0.449999
v -0.500000 0.000000 -0.450000
v -0.375000 3.000000 0.449999
v -0.375000 3.000000 -0.450001
v -0.500000 0.375000 -0.450000
v -0.375000 2.671875 0.449999
v -0.375000 2.671875 -0.450001
v -0.250000 3.000000 -0.450001
v -0.250000 3.000000 0.449999
v -0.125000 0.425000 -0.450000
v -0.125000 2.671875 -0.450001
v -0.375000 1.178906 0.500000
v -0.375000 1.178906 -0.500000
v -0.125000 1.178906 0.450000
v -0.375000 1.178906 0.450000
v -0.375000 1.178906 -0.450000
v -0.125000 1.178906 -0.450000
vt 0.267578 0.487793
vt 0.259766 0.487793
vt 0.259766 0.434570
vt 0.198242 0.226074
vt 0.295898 0.402344
vt 0.198242 0.402344
vt 0.250977 0.192383
vt 0.259277 0.060547
vt 0.259277 0.192383
vt 0.250977 0.060547
vt 0.259277 0.000000
vt 0.361328 0.000977
vt 0.320801 0.061035
vt 0.321289 0.000488
vt 0.284668 0.073242
vt 0.108398 0.099609
vt 0.108398 0.073242
vt 0.380859 0.069824
vt 0.337891 0.190430
vt 0.360840 0.061523
vt 0.393555 0.192871
vt 0.270996 0.490723
vt 0.270996 0.192871
vt 0.108398 0.000000
vt 0.284668 0.000000
vt 0.267090 0.484375
vt 0.301758 0.388672
vt 0.303223 0.483887
vt 0.267578 0.060547
vt 0.259766 0.000000
vt 0.267578 0.000000
vt 0.333984 0.431152
vt 0.378418 0.191406
vt 0.242188 0.060547
vt 0.250488 0.000000
vt 0.250488 0.060547
vt 0.259766 0.192383
vt 0.267578 0.192383
vt 0.284180 0.054688
vt 0.319824 0.000488
vt 0.319824 0.054688
vt 0.414062 0.061523
vt 0.250488 0.061523
vt 0.346680 0.669434
vt 0.148438 0.503418
vt 0.346680 0.503418
vt 0.332520 0.430176
vt 0.333984 0.430176
vt 0.134277 0.402344
vt 0.134277 0.226074
vt 0.106934 0.490723
vt 0.229492 0.192871
vt 0.229492 0.490723
vt 0.259277 0.434570
vt 0.250977 0.487793
vt 0.265137 0.171387
vt 0.265137 0.388672
vt 0.265137 0.388672
vt 0.414062 0.000000
vt 0.250488 0.000000
vt 0.086426 0.061523
vt 0.250000 0.061523
vt 0.325195 0.201660
vt 0.325195 0.211426
vt 0.300781 0.211426
vt 0.203125 0.191406
vt 0.300781 0.191406
vt 0.325195 0.201172
vt 0.233887 0.060547
vt 0.241699 0.000000
vt 0.241699 0.060547
vt 0.301758 0.171387
vt 0.346680 0.997559
vt 0.148438 0.669434
vt 0.374023 0.431152
vt 0.259277 0.487793
vt 0.265137 0.062012
vt 0.203125 0.211426
vt 0.178711 0.201660
vt 0.178711 0.211426
vt 0.325195 0.191406
vt 0.178711 0.201172
vt 0.178711 0.191406
vt 0.109863 0.402344
vt 0.109863 0.226074
vt 0.250000 0.000000
vt 0.295898 0.226074
vt 0.250977 0.000000
vt 0.284668 0.099609
vt 0.393555 0.490723
vt 0.259766 0.060547
vt 0.242188 0.000000
vt 0.284180 0.000488
vt 0.332520 0.431152
vt 0.106934 0.192871
vt 0.233887 0.000000
vt 0.148438 0.997559
vt 0.086426 0.000000
vt 0.169922 0.000977
vt 0.128418 0.060547
vt 0.129395 0.000000
vt 0.360352 0.402344
vt 0.384766 0.226074
vt 0.384766 0.402344
vt 0.142090 0.431152
vt 0.140625 0.430176
vt 0.142090 0.430176
vt 0.233887 0.192383
vt 0.241699 0.192383
vt 0.210938 0.171387
vt 0.210938 0.388672
vt 0.210938 0.388672
vt 0.250488 0.487793
vt 0.242188 0.487793
vt 0.242188 0.434570
vt 0.188477 0.069824
vt 0.146484 0.189941
vt 0.168945 0.061035
vt 0.228516 0.054688
vt 0.265137 0.000488
vt 0.265137 0.054688
vt 0.358398 0.000000
vt 0.384766 0.176270
vt 0.358398 0.176270
vt 0.285156 0.000000
vt 0.187012 0.190918
vt 0.212402 0.484375
vt 0.247070 0.388672
vt 0.248535 0.483887
vt 0.242188 0.192383
vt 0.250488 0.192383
vt 0.360352 0.226074
vt 0.346191 0.997559
vt 0.147461 0.669434
vt 0.346191 0.669434
vt 0.247070 0.171387
vt 0.210938 0.062012
vt 0.241699 0.434570
vt 0.147461 0.503418
vt 0.346191 0.503418
vt 0.182617 0.431152
vt 0.241699 0.487793
vt 0.233887 0.487793
vt 0.140137 0.431152
vt 0.228516 0.000488
vt 0.384766 0.000000
vt 0.285156 0.176270
vt 0.147461 0.997559
vn 1.0000 0.0000 0.0000
vn 0.0000 1.0000 0.0000
vn 0.9881 0.1536 0.0000
vn 0.0000 0.0000 -1.0000
vn 0.3714 0.9285 0.0000
vn -0.0000 -0.0000 1.0000
vn -1.0000 0.0000 0.0000
vn 0.0000 -1.0000 0.0000
vn -0.9881 0.1536 0.0000
vn -0.3714 0.9285 0.0000
usemtl Material.049
s off
f 5/1/1 21/2/1 26/3/1
f 29/4/2 56/5/2 28/6/2
f 33/7/3 25/8/3 36/9/3
f 8/10/1 19/11/1 25/8/1
f 15/12/4 25/13/4 19/14/4
f 12/15/5 30/16/5 16/17/5
f 30/18/4 36/19/4 16/20/4
f 60/21/4 5/22/4 32/23/4
f 12/15/1 15/24/1 11/25/1
f 29/26/6 26/27/6 21/28/6
f 7/29/1 18/30/1 1/31/1
f 10/32/4 36/19/4 37/33/4
f 23/34/7 3/35/7 9/36/7
f 35/37/3 7/29/3 32/38/3
f 36/19/4 25/13/4 16/20/4
f 12/39/6 18/40/6 24/41/6
f 40/42/4 32/23/4 7/43/4
f 34/44/1 30/45/1 13/46/1
f 10/32/4 22/47/4 27/48/4
f 29/4/1 10/49/1 14/50/1
f 38/51/6 33/52/6 6/53/6
f 33/7/1 27/54/1 6/55/1
f 34/56/6 14/57/6 17/58/6
f 4/59/4 7/43/4 1/60/4
f 33/52/6 9/61/6 8/62/6
f 6/63/2 22/64/2 28/65/2
f 55/66/2 29/67/2 5/68/2
f 40/69/7 49/70/7 52/71/7
f 35/37/1 32/38/1 26/3/1
f 32/38/1 5/1/1 26/3/1
f 24/41/6 35/72/6 12/39/6
f 17/73/1 37/74/1 34/44/1
f 35/72/6 26/27/6 14/57/6
f 37/33/4 31/75/4 10/32/4
f 36/9/1 27/54/1 33/7/1
f 27/54/1 22/76/1 6/55/1
f 35/72/6 13/77/6 12/39/6
f 28/65/2 56/78/2 38/79/2
f 56/78/2 50/80/2 38/79/2
f 38/79/2 6/63/2 28/65/2
f 29/67/2 21/81/2 5/68/2
f 5/68/2 39/82/2 55/66/2
f 39/82/2 51/83/2 55/66/2
f 14/50/8 31/84/8 17/85/8
f 9/61/6 2/86/6 8/62/6
f 29/4/2 55/87/2 56/5/2
f 33/7/3 8/10/3 25/8/3
f 8/10/1 2/88/1 19/11/1
f 15/12/4 16/20/4 25/13/4
f 12/15/5 13/89/5 30/16/5
f 30/18/4 37/33/4 36/19/4
f 60/21/4 39/90/4 5/22/4
f 12/15/1 16/17/1 15/24/1
f 29/26/6 14/57/6 26/27/6
f 7/29/1 24/91/1 18/30/1
f 10/32/4 27/48/4 36/19/4
f 23/34/7 20/92/7 3/35/7
f 35/37/3 24/91/3 7/29/3
f 12/39/6 11/93/6 18/40/6
f 40/42/4 60/21/4 32/23/4
f 34/44/1 37/74/1 30/45/1
f 10/32/4 28/94/4 22/47/4
f 29/4/1 28/6/1 10/49/1
f 38/51/6 59/95/6 33/52/6
f 34/56/6 35/72/6 14/57/6
f 4/59/4 40/42/4 7/43/4
f 33/52/6 59/95/6 9/61/6
f 40/69/7 4/96/7 49/70/7
f 17/73/1 31/97/1 37/74/1
f 35/72/6 34/56/6 13/77/6
f 14/50/8 10/49/8 31/84/8
f 9/61/6 3/98/6 2/86/6
usemtl Material.048
f 46/99/6 52/100/6 49/101/6
f 45/102/8 58/103/8 48/104/8
f 41/105/6 51/106/6 54/107/6
f 60/108/9 52/71/9 63/109/9
f 61/110/4 45/111/4 48/112/4
f 38/113/7 50/114/7 53/115/7
f 57/116/6 63/117/6 47/118/6
f 43/119/4 20/120/4 23/121/4
f 43/122/10 57/123/10 47/124/10
f 47/124/7 42/125/7 43/122/7
f 41/105/6 63/117/6 64/126/6
f 56/127/4 53/128/4 50/129/4
f 62/130/9 9/36/9 59/131/9
f 63/117/6 52/100/6 47/118/6
f 56/5/7 41/132/7 45/102/7
f 48/133/7 64/134/7 61/135/7
f 62/136/4 44/137/4 43/119/4
f 60/108/7 63/109/7 54/138/7
f 61/135/7 57/139/7 44/140/7
f 62/130/7 59/131/7 53/115/7
f 59/131/7 38/113/7 53/115/7
f 23/121/4 62/136/4 43/119/4
f 62/136/4 53/128/4 45/111/4
f 64/126/6 58/141/6 41/105/6
f 54/138/7 51/142/7 39/143/7
f 39/143/7 60/108/7 54/138/7
f 46/99/6 47/118/6 52/100/6
f 45/102/8 41/132/8 58/103/8
f 41/105/6 55/144/6 51/106/6
f 60/108/9 40/69/9 52/71/9
f 61/110/4 62/136/4 45/111/4
f 57/116/6 64/126/6 63/117/6
f 43/119/4 42/145/4 20/120/4
f 43/122/10 44/146/10 57/123/10
f 47/124/7 46/147/7 42/125/7
f 41/105/6 54/107/6 63/117/6
f 56/127/4 45/111/4 53/128/4
f 62/130/9 23/34/9 9/36/9
f 56/5/7 55/87/7 41/132/7
f 48/133/7 58/148/7 64/134/7
f 62/136/4 61/110/4 44/137/4
f 61/135/7 64/134/7 57/139/7
