# Blender v2.79 (sub 0) OBJ File: 'dungeon_004.blend'
# www.blender.org
mtllib dungeon_004_wall_1tt_001.mtl
o Cube.003_Cube.012
v 0.500000 0.000000 -0.500000
v 0.500000 0.000000 0.500000
v -0.500000 0.000000 0.500000
v -0.500000 0.000000 -0.500000
v 0.375000 3.000000 -0.500000
v 0.374999 3.000000 0.500001
v 0.500000 0.375000 -0.500000
v 0.500000 0.375000 0.500000
v -0.500000 0.375000 0.500000
v 0.375000 2.671875 -0.500000
v 0.375000 2.671875 0.500000
v 0.250000 2.671875 0.450000
v 0.250000 -0.000000 -0.450000
v 0.250000 0.375000 -0.450000
v 0.125000 0.425000 -0.450000
v 0.250000 2.671875 -0.450000
v 0.250000 -0.000000 0.450000
v 0.250000 0.375000 0.450000
v 0.125000 2.671875 -0.450000
v 0.475000 0.000000 -0.475000
v 0.475000 0.000000 0.475000
v -0.500000 0.000000 0.450000
v 0.375000 3.000000 -0.450000
v 0.375000 3.000000 0.450000
v -0.500000 0.375000 0.450000
v 0.475000 0.375000 -0.475000
v 0.475000 0.375000 0.475000
v 0.375000 2.671875 -0.450000
v 0.375000 2.671875 0.450000
v 0.250000 3.000000 0.450000
v 0.250000 3.000000 -0.450000
v 0.125000 0.425000 0.450000
v 0.125000 2.671875 0.450000
v 0.375000 1.178906 -0.500000
v 0.375000 1.178906 0.500000
v 0.125000 1.178906 -0.450000
v 0.375000 1.178906 -0.450000
v 0.375000 1.178906 0.450000
v 0.125000 1.178906 0.450000
v -0.375000 3.000000 0.500000
v -0.375000 3.000000 -0.500000
v -0.500000 0.375000 -0.500000
v -0.375000 2.671875 0.500000
v -0.375000 2.671875 -0.500000
v -0.250000 2.671875 -0.450000
v -0.250000 -0.000000 0.450000
v -0.250000 0.375000 0.450000
v -0.125000 0.425000 0.450000
v -0.250000 2.671875 0.450000
v -0.250000 -0.000000 -0.450000
v -0.250000 0.375000 -0.450000
v -0.125000 2.671875 0.450000
v -0.500000 0.000000 -0.450000
v -0.375000 3.000000 0.450000
v -0.375000 3.000000 -0.450000
v -0.500000 0.375000 -0.450000
v -0.375000 2.671875 0.450000
v -0.375000 2.671875 -0.450000
v -0.250000 3.000000 -0.450000
v -0.250000 3.000000 0.450000
v -0.125000 0.425000 -0.450000
v -0.125000 2.671875 -0.450000
v -0.375000 1.178906 0.500000
v -0.375000 1.178906 -0.500000
v -0.125000 1.178906 0.450000
v -0.375000 1.178906 0.450000
v -0.375000 1.178906 -0.450000
v -0.125000 1.178906 -0.450000
v 0.125000 0.425000 -0.125000
v 0.125000 0.425000 0.125000
v 0.125000 2.671875 -0.125000
v 0.125000 2.671875 0.125000
v 0.250000 3.000000 -0.250000
v 0.250000 3.000000 0.250000
v 0.250000 2.671875 -0.250000
v 0.250000 2.671875 0.250000
v 0.250000 -0.000000 -0.250000
v 0.250000 -0.000000 0.250000
v 0.250000 0.375000 -0.250000
v 0.250000 0.375000 0.250000
v 0.125000 1.178906 -0.125000
v 0.125000 1.178906 0.125000
v -0.125000 0.425000 0.250000
v -0.125000 0.425000 -0.250000
v -0.125000 2.671875 0.250000
v -0.125000 2.671875 -0.250000
v -0.250000 3.000000 0.250000
v -0.250000 3.000000 -0.250000
v -0.250000 2.671875 0.250000
v -0.250000 2.671875 -0.250000
v -0.250000 -0.000000 0.250000
v -0.250000 -0.000000 -0.250000
v -0.250000 0.375000 0.250000
v -0.250000 0.375000 -0.250000
v -0.125000 1.178906 0.250000
v -0.125000 1.178906 -0.250000
v 0.500000 3.000000 0.375000
v 0.500000 2.671875 0.375000
v 0.450000 -0.000000 0.250000
v 0.450000 0.375000 0.250000
v 0.450000 0.425000 0.125000
v 0.450000 2.671875 0.250000
v 0.450000 2.671875 0.125000
v 0.450000 3.000000 0.375000
v 0.450000 2.671875 0.375000
v 0.450000 3.000000 0.250000
v 0.500000 1.178906 0.375000
v 0.450000 1.178906 0.125000
v 0.450000 1.178906 0.375000
v 0.500000 3.000000 -0.375000
v 0.500000 2.671875 -0.375000
v 0.450000 2.671875 -0.250000
v 0.450000 -0.000000 -0.250000
v 0.450000 0.375000 -0.250000
v 0.450000 3.000000 -0.375000
v 0.450000 2.671875 -0.375000
v 0.450000 3.000000 -0.250000
v 0.450000 0.425000 -0.125000
v 0.450000 2.671875 -0.125000
v 0.500000 1.178906 -0.375000
v 0.450000 1.178906 -0.375000
v 0.450000 1.178906 -0.125000
vt 0.010254 0.448242
vt 0.001953 0.392578
vt 0.010254 0.392578
vt 0.167480 0.000000
vt 0.333984 0.062500
vt 0.167480 0.062500
vt 0.180664 0.000000
vt 0.172852 0.060059
vt 0.172852 0.000000
vt 0.501465 0.062500
vt 0.334961 0.000000
vt 0.501465 0.000000
vt 0.001953 0.139648
vt 0.010254 0.139648
vt 0.013672 0.062500
vt 0.032715 -0.000000
vt 0.046387 0.053711
vt 0.352539 0.054688
vt 0.371094 0.172363
vt 0.333984 0.062500
vt 0.113281 0.388672
vt 0.111816 0.389648
vt 0.111816 0.389160
vt 0.385254 0.000000
vt 0.352051 0.000000
vt 0.035156 0.472656
vt 0.113281 0.389648
vt 0.129395 0.446777
vt 0.123047 1.000000
vt 0.000000 0.667969
vt 0.123047 0.667969
vt 0.044434 0.074219
vt 0.027344 0.000000
vt 0.053711 0.005859
vt 0.335938 0.391113
vt 0.334961 0.391602
vt 0.333984 0.391113
vt 0.335938 0.391602
vt 0.334473 0.172852
vt 0.250000 0.391113
vt 0.241699 0.138184
vt 0.250000 0.138184
vt 0.044434 0.074219
vt 0.085938 0.086426
vt 0.037598 0.106934
vt 0.171875 0.060059
vt 0.164062 0.000000
vt 0.171875 0.000000
vt 0.250000 0.446777
vt 0.241699 0.391113
vt 0.374512 0.486816
vt 0.372559 0.391113
vt 0.246094 0.000488
vt 0.251953 0.000000
vt 0.000000 0.500977
vt 0.123047 0.500977
vt 0.058105 0.174316
vt 0.094238 0.165039
vt 0.005859 0.001953
vt 0.000000 0.001465
vt 0.480469 0.500000
vt 0.355469 0.445312
vt 0.480469 0.445312
vt 0.312988 0.196289
vt 0.187988 0.196289
vt 0.312988 0.445312
vt 0.187988 0.445312
vt 0.312988 0.500000
vt 0.187988 0.500000
vt 0.344238 0.403320
vt 0.344238 0.395020
vt 0.365234 0.395020
vt 0.450195 0.242676
vt 0.365234 0.242676
vt 0.344238 0.233887
vt 0.365234 0.361328
vt 0.450195 0.395020
vt 0.450195 0.276367
vt 0.365234 0.276367
vt 0.450195 0.361328
vt 0.373535 0.667969
vt 0.250488 0.500977
vt 0.373535 0.500977
vt -0.000000 0.068359
vt 0.037598 0.106934
vt 0.149414 0.379395
vt 0.081055 0.068848
vt 0.053711 0.005859
vt 0.085938 0.008301
vt 0.373535 1.000000
vt 0.250488 0.667969
vt 0.335938 0.393555
vt 0.480469 0.196289
vt 0.334961 0.062500
vt 0.001953 0.448242
vt 0.333984 0.000000
vt 0.180664 0.060059
vt 0.000000 0.008301
vt 0.385742 0.054688
vt 0.019531 0.415527
vt 0.000000 1.000000
vt 0.011719 0.053711
vt 0.164062 0.060059
vt 0.241699 0.446777
vt 0.337891 0.487793
vt 0.355469 0.500000
vt 0.471191 0.403320
vt 0.471191 0.395020
vt 0.344238 0.242676
vt 0.471191 0.233887
vt 0.471191 0.242676
vt 0.174805 0.472656
vt 0.250488 1.000000
vt 0.334961 0.393555
vt 0.066406 0.056641
vt 0.355469 0.196289
vt 0.180664 0.480957
vt 0.172852 0.428711
vt 0.180664 0.428711
vt 0.172852 0.189941
vt 0.180664 0.189941
vt 0.072266 0.066895
vt 0.117188 0.002441
vt 0.115723 0.067871
vt 0.155762 0.052734
vt 0.173340 0.164551
vt 0.138672 0.060059
vt 0.086914 0.467773
vt 0.084961 0.468262
vt 0.084961 0.467773
vt 0.190918 0.052734
vt 0.155762 0.000000
vt 0.190918 0.000000
vt 0.435059 0.000000
vt 0.468750 0.055664
vt 0.435059 0.055664
vt 0.109375 1.000000
vt 0.000000 0.668945
vt 0.109375 0.668945
vt 0.348145 0.063477
vt 0.314453 0.000000
vt 0.348145 0.000000
vt 0.316406 0.076660
vt 0.350098 0.055664
vt 0.350098 0.076660
vt 0.138672 0.373535
vt 0.138672 0.372559
vt 0.138672 0.164551
vt 0.171875 0.428711
vt 0.164062 0.189941
vt 0.171875 0.189941
vt 0.433105 0.086426
vt 0.466797 0.063477
vt 0.466797 0.086426
vt 0.171875 0.480957
vt 0.164062 0.428711
vt 0.175293 0.464844
vt 0.173340 0.372559
vt 0.091797 0.207520
vt 0.000000 0.500977
vt 0.109375 0.500977
vt 0.086914 0.468262
vt 0.135254 0.208008
vt 0.498535 0.668945
vt 0.387695 0.500977
vt 0.498535 0.500977
vt 0.387695 0.668945
vt 0.314453 0.086426
vt 0.348145 0.086426
vt 0.435059 0.076660
vt 0.468750 0.076660
vt 0.433105 0.000000
vt 0.466797 0.000000
vt 0.433105 0.063477
vt 0.498535 1.000000
vt 0.387695 1.000000
vt 0.316406 0.000000
vt 0.316406 0.055664
vt 0.350098 0.000000
vt 0.172852 0.480957
vt 0.073242 0.001465
vt 0.468750 0.000000
vt 0.000000 1.000000
vt 0.314453 0.063477
vt 0.164062 0.480957
vt 0.140137 0.465332
vt 0.137695 0.076660
vt 0.130859 0.468262
vt 0.000000 0.062500
vt 0.166504 0.000000
vt 0.166504 0.062500
vt 0.404297 0.054688
vt 0.423340 0.172363
vt 0.386230 0.062500
vt 0.437500 0.054688
vt 0.404297 0.000000
vt 0.437500 0.000000
vt 0.387695 0.393555
vt 0.386719 0.391602
vt 0.387695 0.391602
vt 0.248535 1.000000
vt 0.124023 0.667969
vt 0.248535 0.667969
vt 0.081055 0.068848
vt 0.085938 0.008301
vt 0.387695 0.391113
vt 0.386230 0.391113
vt 0.386719 0.172852
vt 0.431641 0.391113
vt 0.422852 0.138184
vt 0.431641 0.138184
vt 0.085938 0.086426
vt 0.431641 0.446777
vt 0.422852 0.391113
vt 0.426758 0.486816
vt 0.424316 0.391113
vt 0.427246 0.000488
vt 0.433105 0.000000
vt 0.124023 0.500977
vt 0.248535 0.500977
vt 0.499023 0.999512
vt 0.375977 0.667969
vt 0.499023 0.667969
vt 0.145508 0.196289
vt 0.020508 0.196289
vt 0.145508 0.445312
vt 0.020508 0.445312
vt 0.145508 0.500000
vt 0.020508 0.500000
vt 0.331543 0.276367
vt 0.331543 0.361328
vt 0.322754 0.382324
vt 0.000000 0.000000
vt 0.386719 0.393555
vt 0.124023 1.000000
vt 0.422852 0.446777
vt 0.390137 0.487793
vt 0.375977 0.999512
vt 0.331543 0.382324
vt 0.322754 0.255371
vt 0.331543 0.255371
vt 0.262695 0.446777
vt 0.254395 0.391113
vt 0.262695 0.391113
vt 0.254395 0.138184
vt 0.262695 0.138184
vt 0.175781 0.008301
vt 0.222168 0.053711
vt 0.189453 0.062500
vt 0.289062 0.388672
vt 0.287598 0.389648
vt 0.287598 0.389160
vt 0.210938 0.472656
vt 0.289062 0.389648
vt 0.305176 0.446777
vt 0.027344 0.000000
vt 0.325195 0.379395
vt 0.000000 0.068359
vt 0.233887 0.174316
vt 0.375977 0.500488
vt 0.499023 0.500488
vt 0.258789 0.000488
vt 0.252441 0.000000
vt 0.270020 0.165039
vt 0.254395 0.446777
vt 0.208496 -0.000000
vt 0.195312 0.415527
vt 0.011719 0.053711
vt 0.350586 0.472656
vt 0.241699 0.056641
vn 1.0000 0.0000 0.0000
vn -0.0000 0.0000 -1.0000
vn -1.0000 -0.0000 -0.0000
vn 0.0000 -0.0000 1.0000
vn 0.1104 0.0000 -0.9939
vn 0.1104 -0.0000 0.9939
vn 0.0000 -1.0000 0.0000
vn 0.3714 0.9285 -0.0000
vn 0.7029 0.1093 0.7029
vn 0.7029 0.1093 -0.7029
vn 0.0000 1.0000 0.0000
vn 0.1104 -0.0172 -0.9937
vn 0.1104 -0.0172 0.9937
vn 0.9924 0.1234 0.0000
vn -0.3714 0.9285 0.0000
vn -0.9881 0.1536 -0.0000
vn -0.9939 0.0000 0.1104
vn 0.0000 0.9285 0.3714
vn -0.7029 0.1093 0.7029
vn -0.9937 -0.0172 0.1104
vn -0.0000 0.1234 0.9924
vn -0.9939 0.0000 -0.1104
vn -0.0000 0.9285 -0.3714
vn -0.9937 -0.0172 -0.1104
vn -0.7029 0.1093 -0.7029
vn 0.0000 0.1234 -0.9924
usemtl Material.039
s off
f 24/1/1 11/2/1 29/3/1
f 1/4/2 42/5/2 7/6/2
f 53/7/3 42/8/3 4/9/3
f 8/10/4 3/11/4 2/12/4
f 29/3/1 35/13/1 38/14/1
f 27/15/5 17/16/5 18/17/5
f 14/18/4 37/19/4 15/20/4
f 29/21/2 30/22/2 24/23/2
f 20/24/6 14/18/6 13/25/6
f 74/26/1 12/27/1 76/28/1
f 72/29/1 39/30/1 82/31/1
f 80/32/1 17/33/1 78/34/1
f 19/35/7 75/36/7 71/37/7
f 16/38/4 19/35/4 36/39/4
f 10/40/1 37/41/1 34/42/1
f 79/43/8 15/44/8 69/45/8
f 9/46/3 22/47/3 3/48/3
f 5/49/1 28/50/1 10/40/1
f 23/51/4 16/38/4 28/52/4
f 34/42/9 26/53/9 7/54/9
f 82/31/1 32/55/1 70/56/1
f 12/27/2 38/57/2 39/58/2
f 27/59/10 35/13/10 8/60/10
f 6/61/4 43/62/4 11/63/4
f 7/6/2 64/64/2 34/65/2
f 34/65/2 44/66/2 10/67/2
f 10/67/2 41/68/2 5/69/2
f 6/70/11 24/71/11 30/72/11
f 59/73/11 31/74/11 5/75/11
f 74/76/11 60/77/11 30/72/11
f 31/74/11 88/78/11 73/79/11
f 73/79/11 87/80/11 74/76/11
f 36/81/1 69/82/1 15/83/1
f 32/84/8 80/32/8 70/85/8
f 33/86/7 76/28/7 12/27/7
f 14/87/1 77/88/1 13/89/1
f 19/90/1 81/91/1 36/81/1
f 31/92/1 75/36/1 16/38/1
f 38/57/12 27/15/12 18/17/12
f 35/93/4 9/94/4 8/10/4
f 43/62/4 35/93/4 11/63/4
f 24/1/1 6/95/1 11/2/1
f 1/4/2 4/96/2 42/5/2
f 53/7/3 56/97/3 42/8/3
f 8/10/4 9/94/4 3/11/4
f 29/3/1 11/2/1 35/13/1
f 27/15/5 21/98/5 17/16/5
f 26/99/13 37/19/13 14/18/13
f 37/19/4 36/39/4 15/20/4
f 29/21/2 12/27/2 30/22/2
f 20/24/6 26/99/6 14/18/6
f 74/26/1 30/100/1 12/27/1
f 72/29/1 33/101/1 39/30/1
f 80/32/1 18/102/1 17/33/1
f 19/35/7 16/38/7 75/36/7
f 36/39/4 37/19/4 16/38/4
f 37/19/4 28/52/4 16/38/4
f 10/40/1 28/50/1 37/41/1
f 79/43/8 14/87/8 15/44/8
f 9/46/3 25/103/3 22/47/3
f 5/49/1 23/104/1 28/50/1
f 23/51/4 31/105/4 16/38/4
f 34/42/14 37/41/14 26/53/14
f 82/31/1 39/30/1 32/55/1
f 39/58/2 33/86/2 12/27/2
f 12/27/2 29/21/2 38/57/2
f 27/59/14 38/14/14 35/13/14
f 6/61/4 40/106/4 43/62/4
f 7/6/2 42/5/2 64/64/2
f 34/65/2 64/64/2 44/66/2
f 10/67/2 44/66/2 41/68/2
f 30/72/11 60/77/11 40/107/11
f 60/77/11 54/108/11 40/107/11
f 40/107/11 6/70/11 30/72/11
f 31/74/11 23/109/11 5/75/11
f 5/75/11 41/110/11 59/73/11
f 41/110/11 55/111/11 59/73/11
f 74/76/11 87/80/11 60/77/11
f 31/74/11 59/73/11 88/78/11
f 73/79/11 88/78/11 87/80/11
f 36/81/1 81/91/1 69/82/1
f 32/84/8 18/102/8 80/32/8
f 33/86/7 72/112/7 76/28/7
f 14/87/1 79/43/1 77/88/1
f 19/90/1 71/113/1 81/91/1
f 31/92/1 73/114/1 75/36/1
f 18/17/2 32/115/2 38/57/2
f 32/115/2 39/58/2 38/57/2
f 35/93/4 63/116/4 9/94/4
f 43/62/4 63/116/4 35/93/4
usemtl Material.038
f 55/117/3 44/118/3 58/119/3
f 58/119/3 64/120/3 67/121/3
f 56/122/4 50/123/4 51/124/4
f 47/125/2 66/126/2 48/127/2
f 58/128/4 59/129/4 55/130/4
f 25/131/2 46/132/2 22/133/2
f 88/134/3 45/135/3 90/136/3
f 86/137/3 68/138/3 96/139/3
f 94/140/3 50/141/3 92/142/3
f 52/143/7 89/144/7 85/145/7
f 49/146/2 52/147/2 65/148/2
f 43/149/3 66/150/3 63/151/3
f 83/152/15 47/153/15 48/154/15
f 40/155/3 57/156/3 43/149/3
f 54/157/2 49/146/2 57/158/2
f 67/159/4 56/122/4 51/124/4
f 63/151/16 25/103/16 9/46/16
f 96/139/3 61/160/3 84/161/3
f 45/162/4 67/159/4 68/163/4
f 67/121/16 42/8/16 56/97/16
f 65/164/3 83/165/3 48/166/3
f 95/167/3 84/161/3 83/165/3
f 61/168/15 94/140/15 84/169/15
f 94/140/15 83/152/15 84/169/15
f 86/170/7 45/135/7 62/171/7
f 85/145/7 90/136/7 86/170/7
f 47/153/3 91/172/3 46/173/3
f 93/174/3 92/142/3 91/172/3
f 52/175/3 95/167/3 65/164/3
f 85/176/3 96/139/3 95/167/3
f 60/177/3 89/144/3 49/178/3
f 87/179/3 90/136/3 89/144/3
f 55/117/3 41/180/3 44/118/3
f 58/119/3 44/118/3 64/120/3
f 56/122/4 53/181/4 50/123/4
f 25/131/2 66/126/2 47/125/2
f 66/126/2 65/148/2 48/127/2
f 58/128/4 45/162/4 59/129/4
f 25/131/2 47/125/2 46/132/2
f 88/134/3 59/182/3 45/135/3
f 86/137/3 62/183/3 68/138/3
f 94/140/3 51/184/3 50/141/3
f 52/143/7 49/178/7 89/144/7
f 65/148/2 66/126/2 49/146/2
f 66/126/2 57/158/2 49/146/2
f 43/149/3 57/156/3 66/150/3
f 83/152/15 93/174/15 47/153/15
f 40/155/3 54/185/3 57/156/3
f 54/157/2 60/186/2 49/146/2
f 51/124/4 61/187/4 67/159/4
f 61/187/4 68/163/4 67/159/4
f 63/151/16 66/150/16 25/103/16
f 96/139/3 68/138/3 61/160/3
f 68/163/4 62/188/4 45/162/4
f 45/162/4 58/128/4 67/159/4
f 67/121/16 64/120/16 42/8/16
f 65/164/3 95/167/3 83/165/3
f 95/167/3 96/139/3 84/161/3
f 61/168/15 51/184/15 94/140/15
f 94/140/15 93/174/15 83/152/15
f 86/170/7 90/136/7 45/135/7
f 85/145/7 89/144/7 90/136/7
f 47/153/3 93/174/3 91/172/3
f 93/174/3 94/140/3 92/142/3
f 52/175/3 85/176/3 95/167/3
f 85/176/3 86/137/3 96/139/3
f 60/177/3 87/179/3 89/144/3
f 87/179/3 88/134/3 90/136/3
usemtl Material.037
f 8/189/1 1/190/1 7/191/1
f 100/192/3 109/193/3 101/194/3
f 27/195/17 99/196/17 21/197/17
f 106/198/4 76/199/4 102/200/4
f 103/201/4 82/202/4 108/203/4
f 100/204/4 78/34/4 99/205/4
f 103/206/7 76/199/7 72/207/7
f 102/200/3 103/206/3 108/208/3
f 98/209/4 109/210/4 107/211/4
f 80/32/18 101/212/18 70/85/18
f 97/213/4 105/214/4 98/209/4
f 104/215/3 102/200/3 105/216/3
f 107/211/19 27/217/19 8/218/19
f 108/203/4 70/219/4 101/220/4
f 71/221/2 122/222/2 81/223/2
f 8/189/1 120/224/1 107/225/1
f 107/225/1 111/226/1 98/227/1
f 98/227/1 110/228/1 97/229/1
f 117/230/11 106/231/11 97/232/11
f 106/231/11 73/79/11 74/76/11
f 8/189/1 2/233/1 1/190/1
f 27/195/20 109/193/20 100/192/20
f 109/193/3 108/208/3 101/194/3
f 27/195/17 100/192/17 99/196/17
f 106/198/4 74/234/4 76/199/4
f 103/201/4 72/235/4 82/202/4
f 100/204/4 80/32/4 78/34/4
f 103/206/7 102/200/7 76/199/7
f 108/208/3 109/193/3 102/200/3
f 109/193/3 105/216/3 102/200/3
f 98/209/4 105/214/4 109/210/4
f 80/32/18 100/204/18 101/212/18
f 97/213/4 104/236/4 105/214/4
f 104/215/3 106/237/3 102/200/3
f 107/211/21 109/210/21 27/217/21
f 108/203/4 82/202/4 70/219/4
f 71/221/2 119/238/2 122/222/2
f 8/189/1 7/191/1 120/224/1
f 107/225/1 120/224/1 111/226/1
f 98/227/1 111/226/1 110/228/1
f 106/231/11 104/239/11 97/232/11
f 97/232/11 110/240/11 117/230/11
f 110/240/11 115/241/11 117/230/11
f 106/231/11 117/230/11 73/79/11
usemtl Material.036
f 115/242/2 111/243/2 116/244/2
f 116/244/2 120/245/2 121/246/2
f 20/247/22 114/248/22 26/249/22
f 116/250/3 117/251/3 115/252/3
f 73/253/2 112/254/2 75/255/2
f 79/43/2 113/256/2 77/88/2
f 119/257/7 75/255/7 112/254/7
f 118/258/23 79/43/23 69/45/23
f 121/259/24 26/249/24 114/248/24
f 81/223/2 118/260/2 69/261/2
f 26/262/25 120/245/25 7/263/25
f 112/254/3 121/259/3 122/264/3
f 115/242/2 110/265/2 111/243/2
f 116/244/2 111/243/2 120/245/2
f 20/247/22 113/266/22 114/248/22
f 116/250/3 112/254/3 117/251/3
f 73/253/2 117/267/2 112/254/2
f 79/43/2 114/268/2 113/256/2
f 119/257/7 71/269/7 75/255/7
f 118/258/23 114/268/23 79/43/23
f 114/248/3 118/270/3 121/259/3
f 118/270/3 122/264/3 121/259/3
f 81/223/2 122/222/2 118/260/2
f 26/262/26 121/246/26 120/245/26
f 122/264/3 119/257/3 112/254/3
f 112/254/3 116/250/3 121/259/3
