# Blender v2.79 (sub 0) OBJ File: 'dungeon_004.blend'
# www.blender.org
mtllib dungeon_004_wall_3td_001.mtl
o Cube.002_Cube.003
v 0.500000 0.000000 -1.500000
v 0.500000 0.000000 1.500000
v -0.500000 0.000000 1.500000
v -0.500000 0.000000 -1.500000
v 0.375000 3.000000 -1.500000
v 0.374999 3.000000 1.500001
v 0.500000 0.375000 -1.500000
v 0.500000 0.375000 1.500000
v -0.500000 0.375000 1.500000
v 0.375000 2.671875 -1.500000
v 0.374999 2.671875 1.500000
v 0.250000 2.671875 1.450000
v 0.250000 -0.000000 -1.450000
v 0.250000 0.375000 -1.450000
v 0.125000 0.425000 -1.450000
v 0.250000 2.671875 -1.450000
v 0.250000 -0.000000 1.450000
v 0.250000 0.375000 1.450000
v 0.125000 2.671875 -1.450000
v 0.500000 0.000000 -1.450000
v 0.500000 0.000000 1.450000
v -0.500000 0.000000 1.450000
v 0.375000 3.000000 -1.449999
v 0.375000 3.000000 1.450001
v -0.500000 0.375000 1.450000
v 0.500000 0.375000 -1.450000
v 0.500000 0.375000 1.450000
v 0.375000 2.671875 -1.450000
v 0.375000 2.671875 1.450001
v 0.250000 3.000000 1.450001
v 0.250000 3.000000 -1.450000
v 0.125000 0.425000 1.450000
v 0.125000 2.671875 1.450000
v 0.375000 1.178906 -1.500000
v 0.375000 1.178906 1.500000
v 0.125000 1.178906 -1.450000
v 0.375000 1.178906 -1.450000
v 0.375000 1.178906 1.450000
v 0.125000 1.178906 1.450000
v -0.375000 3.000000 1.500000
v -0.374999 3.000000 -1.500000
v -0.500000 0.375000 -1.500000
v -0.375000 2.671875 1.500000
v -0.374999 2.671875 -1.500000
v -0.250000 2.671875 -1.450000
v -0.250000 -0.000000 1.450000
v -0.250000 0.375000 1.450000
v -0.125000 0.425000 1.450000
v -0.250000 2.671875 1.450000
v -0.250000 -0.000000 -1.450000
v -0.250000 0.375000 -1.450000
v -0.125000 2.671875 1.450000
v -0.500000 0.000000 -1.450000
v -0.375000 3.000000 1.450000
v -0.375000 3.000000 -1.450001
v -0.500000 0.375000 -1.450000
v -0.375000 2.671875 1.450000
v -0.375000 2.671875 -1.450001
v -0.250000 3.000000 -1.450001
v -0.250000 3.000000 1.450000
v -0.125000 0.425000 -1.450000
v -0.125000 2.671875 -1.450000
v -0.375000 1.178906 1.500000
v -0.375000 1.178906 -1.500000
v -0.125000 1.178906 1.450000
v -0.375000 1.178906 1.450000
v -0.375000 1.178906 -1.450000
v -0.125000 1.178906 -1.450000
v 0.125000 0.425000 -0.483333
v 0.125000 0.425000 0.483333
v 0.125000 2.671875 -0.483333
v 0.125000 2.671875 0.483334
v 0.250000 3.000000 -0.483333
v 0.250000 3.000000 0.483334
v 0.250000 2.671875 -0.483333
v 0.250000 2.671875 0.483334
v 0.250000 -0.000000 -0.483333
v 0.250000 -0.000000 0.483333
v 0.250000 0.375000 -0.483333
v 0.250000 0.375000 0.483333
v -0.125000 0.425000 0.483333
v -0.125000 0.425000 -0.483333
v -0.125000 2.671875 0.483333
v -0.125000 2.671875 -0.483334
v -0.250000 3.000000 0.483333
v -0.250000 3.000000 -0.483334
v -0.250000 2.671875 0.483333
v -0.250000 2.671875 -0.483334
v -0.250000 -0.000000 0.483333
v -0.250000 -0.000000 -0.483333
v -0.250000 0.375000 0.483333
v -0.250000 0.375000 -0.483333
vt 0.347656 0.489746
vt 0.339355 0.436523
vt 0.347656 0.436523
vt 0.000425 0.000424
vt 0.163156 0.061449
vt 0.000424 0.061449
vt 0.365723 0.061035
vt 0.357422 0.000000
vt 0.365723 0.000000
vt 0.326737 0.061449
vt 0.164005 0.000425
vt 0.326737 0.000424
vt 0.347656 0.061035
vt 0.339355 0.000000
vt 0.347656 0.000000
vt 0.339355 0.193359
vt 0.347656 0.193359
vt 0.363770 0.062500
vt 0.406250 0.000488
vt 0.405273 0.063477
vt 0.396973 0.055664
vt 0.415039 0.173828
vt 0.378418 0.062500
vt 0.377930 0.447266
vt 0.375977 0.447754
vt 0.375977 0.447266
vt 0.433594 0.055664
vt 0.396973 0.000000
vt 0.433594 0.000000
vt 0.073730 0.319336
vt 0.020508 0.476562
vt 0.020508 0.319336
vt 0.157227 0.312500
vt 0.000000 0.251465
vt 0.157227 0.251465
vt 0.000000 0.158203
vt 0.020508 0.315430
vt 0.000000 0.315430
vt 0.378418 0.395020
vt 0.378418 0.394531
vt 0.378418 0.173828
vt 0.356445 0.436523
vt 0.348633 0.193359
vt 0.356445 0.193359
vt 0.000000 0.228516
vt 0.157227 0.250488
vt 0.000000 0.250488
vt 0.356445 0.061035
vt 0.348633 0.000000
vt 0.356445 0.000000
vt 0.374512 0.061035
vt 0.366699 0.000000
vt 0.374512 0.000000
vt 0.356445 0.489746
vt 0.348633 0.436523
vt 0.416992 0.491211
vt 0.415039 0.394531
vt 0.382324 0.197754
vt 0.348633 0.061035
vt 0.377930 0.447754
vt 0.423828 0.198242
vt 0.339355 0.061035
vt 0.306395 0.192270
vt 0.164005 0.061449
vt 0.184347 0.435223
vt 0.306396 0.435223
vt 0.306396 0.488620
vt 0.142815 0.192270
vt 0.020766 0.192270
vt 0.142815 0.435223
vt 0.020766 0.435223
vt 0.142815 0.488620
vt 0.020766 0.488620
vt 0.144043 0.343750
vt 0.144043 0.352051
vt 0.124023 0.352051
vt 0.042480 0.353027
vt 0.124023 0.353027
vt 0.144043 0.360840
vt 0.155273 0.476562
vt 0.073730 0.476562
vt 0.073730 0.158203
vt 0.155273 0.315430
vt 0.073730 0.315430
vt 0.073730 0.000000
vt 0.155273 0.157227
vt 0.073730 0.157227
vt 0.000000 0.312500
vt 0.157227 0.334473
vt 0.000000 0.334473
vt 0.000000 0.394531
vt 0.157227 0.416504
vt -0.000000 0.416504
vt 0.000000 0.319336
vt 0.000000 0.476562
vt 0.000000 0.000000
vt 0.020508 0.157227
vt 0.000000 0.157227
vt 0.157227 0.228516
vt 0.000000 0.167480
vt 0.157227 0.167480
vt 0.157227 0.394531
vt 0.000000 0.333496
vt 0.157227 0.333496
vt 0.498535 1.000000
vt 0.000000 0.500488
vt 0.498535 0.500488
vt 0.020508 0.158203
vt 0.020508 0.000000
vt 0.000000 0.832520
vt 0.499023 0.500488
vt 0.499023 1.000000
vt 0.499023 1.000000
vt 0.000000 1.000000
vt 0.000000 0.667969
vt 0.339355 0.489746
vt 0.163156 0.000424
vt 0.357422 0.061035
vt 0.364746 0.000000
vt 0.366699 0.061035
vt 0.348633 0.489746
vt 0.379883 0.492188
vt 0.426270 0.072266
vt 0.419434 0.447754
vt 0.184347 0.192270
vt 0.184347 0.488620
vt 0.042480 0.352051
vt 0.022461 0.343750
vt 0.022461 0.352051
vt 0.144043 0.353027
vt 0.022461 0.360840
vt 0.022461 0.353027
vt 0.155273 0.319336
vt 0.155273 0.158203
vt 0.155273 0.000000
vt 0.000000 1.000000
vt 0.000000 1.000000
vt 0.000000 0.500488
vt 0.000000 0.500488
vt 0.499023 0.500488
vt 0.365723 0.489746
vt 0.357422 0.436523
vt 0.365723 0.436523
vt 0.357422 0.193359
vt 0.365723 0.193359
vt 0.428223 0.000000
vt 0.468750 0.063477
vt 0.426758 0.062500
vt 0.452637 0.055664
vt 0.471191 0.173828
vt 0.434570 0.062500
vt 0.441406 0.447266
vt 0.439453 0.447754
vt 0.439453 0.447266
vt 0.489746 0.055664
vt 0.452637 0.000000
vt 0.489746 0.000000
vt 0.208496 0.158203
vt 0.208496 0.315430
vt 0.000000 0.021973
vt 0.157227 0.083008
vt 0.000000 0.083008
vt 0.229004 0.476562
vt 0.208496 0.319336
vt 0.229004 0.319336
vt 0.434570 0.395020
vt 0.434570 0.394531
vt 0.434570 0.173828
vt 0.374512 0.436523
vt 0.366699 0.193359
vt 0.374512 0.193359
vt 0.157227 0.105469
vt 0.000000 0.083984
vt 0.157227 0.083984
vt 0.374512 0.489746
vt 0.366699 0.436523
vt 0.472656 0.491211
vt 0.471191 0.394531
vt 0.445312 0.197754
vt 0.441406 0.447754
vt 0.487305 0.198242
vt 0.499023 1.000000
vt -0.000000 1.000000
vt -0.000000 0.667969
vt 0.498535 0.667969
vt 0.000000 1.000000
vt 0.000000 0.500488
vt 0.157227 0.021973
vt 0.000000 0.000000
vt 0.157227 0.000000
vt 0.061035 0.157227
vt 0.083008 0.000000
vt 0.083008 0.157227
vt 0.229004 0.315430
vt 0.229004 0.158203
vt 0.229004 0.157227
vt 0.208496 0.000000
vt 0.229004 0.000000
vt 0.000000 0.105469
vt 0.157227 0.166504
vt 0.000000 0.166504
vt 0.061035 0.000000
vt 0.000000 0.157227
vt 0.000000 0.000000
vt 0.499023 1.000000
vt 0.000000 0.500488
vt 0.499023 0.500488
vt 0.208496 0.476562
vt 0.208496 0.157227
vt 0.357422 0.489746
vt 0.469727 0.000488
vt 0.366699 0.489746
vt 0.436035 0.492188
vt 0.489746 0.072266
vt 0.482910 0.447754
vt -0.000000 0.500488
vt 0.499023 0.500488
vt 0.498535 0.500488
vt 0.498535 1.000000
vt 0.000000 1.000000
vn 1.0000 0.0000 0.0000
vn 0.0000 0.0000 -1.0000
vn -1.0000 0.0000 -0.0000
vn -0.0000 -0.0000 1.0000
vn 0.0000 -1.0000 0.0000
vn 0.3714 0.9285 0.0000
vn 0.9881 0.1536 0.0000
vn 0.0000 1.0000 0.0000
vn -0.3714 0.9285 -0.0000
vn -0.9881 0.1536 -0.0000
usemtl Material.005
s off
f 24/1/1 11/2/1 29/3/1
f 1/4/2 42/5/2 7/6/2
f 56/7/3 4/8/3 53/9/3
f 8/10/4 3/11/4 2/12/4
f 27/13/1 2/14/1 21/15/1
f 29/3/1 35/16/1 38/17/1
f 27/18/2 17/19/2 18/20/2
f 14/21/4 37/22/4 15/23/4
f 29/24/2 30/25/2 24/26/2
f 26/27/4 13/28/4 20/29/4
f 74/30/1 12/31/1 76/32/1
f 80/33/1 17/34/1 78/35/1
f 19/36/5 75/37/5 71/38/5
f 16/39/4 19/40/4 36/41/4
f 10/42/1 37/43/1 34/44/1
f 79/45/6 15/46/6 69/47/6
f 7/48/1 20/49/1 1/50/1
f 9/51/3 22/52/3 3/53/3
f 5/54/1 28/55/1 10/42/1
f 23/56/4 16/39/4 28/57/4
f 38/58/2 27/18/2 18/20/2
f 34/44/7 26/59/7 7/48/7
f 12/60/2 38/58/2 39/61/2
f 38/17/7 8/62/7 27/13/7
f 35/63/4 9/64/4 8/10/4
f 43/65/4 35/63/4 11/66/4
f 6/67/4 43/65/4 11/66/4
f 7/6/2 64/68/2 34/69/2
f 34/69/2 44/70/2 10/71/2
f 10/71/2 41/72/2 5/73/2
f 6/74/8 24/75/8 30/76/8
f 59/77/8 31/78/8 5/79/8
f 74/30/8 60/80/8 30/81/8
f 31/82/8 86/83/8 73/84/8
f 73/85/8 85/86/8 74/87/8
f 18/88/6 70/89/6 32/90/6
f 80/91/6 69/92/6 70/93/6
f 72/94/5 12/31/5 33/95/5
f 71/96/5 76/97/5 72/98/5
f 14/99/1 77/100/1 13/101/1
f 79/102/1 78/103/1 77/104/1
f 71/105/1 70/106/1 69/107/1
f 31/82/1 75/37/1 16/108/1
f 73/85/1 76/97/1 75/109/1
f 36/110/1 71/111/1 69/112/1
f 72/113/1 33/114/1 39/115/1
f 24/1/1 6/116/1 11/2/1
f 1/4/2 4/117/2 42/5/2
f 56/7/3 42/118/3 4/8/3
f 8/10/4 9/64/4 3/11/4
f 27/13/1 8/62/1 2/14/1
f 29/3/1 11/2/1 35/16/1
f 27/18/2 21/119/2 17/19/2
f 26/27/4 37/22/4 14/21/4
f 37/22/4 36/41/4 15/23/4
f 29/24/2 12/60/2 30/25/2
f 26/27/4 14/21/4 13/28/4
f 74/30/1 30/81/1 12/31/1
f 80/33/1 18/88/1 17/34/1
f 19/36/5 16/108/5 75/37/5
f 36/41/4 37/22/4 16/39/4
f 37/22/4 28/57/4 16/39/4
f 10/42/1 28/55/1 37/43/1
f 79/45/6 14/99/6 15/46/6
f 7/48/1 26/59/1 20/49/1
f 9/51/3 25/120/3 22/52/3
f 5/54/1 23/121/1 28/55/1
f 23/56/4 31/122/4 16/39/4
f 18/20/2 32/123/2 38/58/2
f 32/123/2 39/61/2 38/58/2
f 34/44/7 37/43/7 26/59/7
f 39/61/2 33/124/2 12/60/2
f 12/60/2 29/24/2 38/58/2
f 38/17/7 35/16/7 8/62/7
f 35/63/4 63/125/4 9/64/4
f 43/65/4 63/125/4 35/63/4
f 6/67/4 40/126/4 43/65/4
f 7/6/2 42/5/2 64/68/2
f 34/69/2 64/68/2 44/70/2
f 10/71/2 44/70/2 41/72/2
f 30/76/8 60/127/8 40/128/8
f 60/127/8 54/129/8 40/128/8
f 40/128/8 6/74/8 30/76/8
f 31/78/8 23/130/8 5/79/8
f 5/79/8 41/131/8 59/77/8
f 41/131/8 55/132/8 59/77/8
f 74/30/8 85/133/8 60/80/8
f 31/82/8 59/134/8 86/83/8
f 73/85/8 86/135/8 85/86/8
f 18/88/6 80/33/6 70/89/6
f 80/91/6 79/102/6 69/92/6
f 72/94/5 76/32/5 12/31/5
f 71/96/5 75/109/5 76/97/5
f 14/99/1 79/45/1 77/100/1
f 79/102/1 80/91/1 78/103/1
f 71/105/1 72/136/1 70/106/1
f 31/82/1 73/84/1 75/37/1
f 73/85/1 74/87/1 76/97/1
f 69/112/1 15/137/1 36/110/1
f 36/110/1 19/138/1 71/111/1
f 32/139/1 70/140/1 39/115/1
f 70/140/1 72/113/1 39/115/1
usemtl Material.004
f 55/141/3 44/142/3 58/143/3
f 58/143/3 64/144/3 67/145/3
f 53/146/4 51/147/4 56/148/4
f 47/149/2 66/150/2 48/151/2
f 58/152/4 59/153/4 55/154/4
f 25/155/2 46/156/2 22/157/2
f 86/83/3 45/158/3 88/159/3
f 92/160/3 50/161/3 90/162/3
f 52/163/5 87/164/5 83/165/5
f 49/166/2 52/167/2 65/168/2
f 43/169/3 66/170/3 63/171/3
f 91/172/9 48/173/9 81/174/9
f 40/175/3 57/176/3 43/169/3
f 54/177/2 49/166/2 57/178/2
f 67/179/4 56/148/4 51/147/4
f 63/171/10 25/120/10 9/51/10
f 45/180/4 67/179/4 68/181/4
f 67/145/10 42/118/10 56/7/10
f 84/182/3 62/183/3 68/184/3
f 65/185/3 83/186/3 81/187/3
f 51/188/9 82/189/9 61/190/9
f 92/191/9 81/192/9 82/193/9
f 84/194/5 45/158/5 62/195/5
f 83/196/5 88/197/5 84/198/5
f 47/199/3 89/200/3 46/201/3
f 91/202/3 90/203/3 89/204/3
f 83/205/3 82/206/3 81/207/3
f 60/80/3 87/164/3 49/208/3
f 85/86/3 88/197/3 87/209/3
f 55/141/3 41/210/3 44/142/3
f 58/143/3 44/142/3 64/144/3
f 53/146/4 50/211/4 51/147/4
f 25/155/2 66/150/2 47/149/2
f 66/150/2 65/168/2 48/151/2
f 58/152/4 45/180/4 59/153/4
f 25/155/2 47/149/2 46/156/2
f 86/83/3 59/134/3 45/158/3
f 92/160/3 51/188/3 50/161/3
f 52/163/5 49/208/5 87/164/5
f 65/168/2 66/150/2 49/166/2
f 66/150/2 57/178/2 49/166/2
f 43/169/3 57/176/3 66/170/3
f 91/172/9 47/199/9 48/173/9
f 40/175/3 54/212/3 57/176/3
f 54/177/2 60/213/2 49/166/2
f 51/147/4 61/214/4 67/179/4
f 61/214/4 68/181/4 67/179/4
f 63/171/10 66/170/10 25/120/10
f 68/181/4 62/215/4 45/180/4
f 45/180/4 58/152/4 67/179/4
f 67/145/10 64/144/10 42/118/10
f 61/216/3 82/217/3 68/184/3
f 82/217/3 84/182/3 68/184/3
f 81/187/3 48/218/3 65/185/3
f 65/185/3 52/219/3 83/186/3
f 51/188/9 92/160/9 82/189/9
f 92/191/9 91/202/9 81/192/9
f 84/194/5 88/159/5 45/158/5
f 83/196/5 87/209/5 88/197/5
f 47/199/3 91/172/3 89/200/3
f 91/202/3 92/191/3 90/203/3
f 83/205/3 84/220/3 82/206/3
f 60/80/3 85/133/3 87/164/3
f 85/86/3 86/135/3 88/197/3
