# Blender v2.79 (sub 0) OBJ File: 'dungeon_004.blend'
# www.blender.org
mtllib dungeon_004_wall_1ta_001.mtl
o Cube.012_Cube.018
v 0.250000 3.000000 -0.499999
v 0.249999 3.000000 0.500001
v 0.250000 2.671875 -0.500000
v 0.249999 2.671875 0.500001
v -0.250000 3.000000 0.500000
v -0.249999 3.000000 -0.500001
v -0.250000 2.671875 0.500000
v -0.249999 2.671875 -0.500000
vt 0.492188 0.097656
vt 0.368652 -0.000000
vt 0.492188 -0.000000
vt 0.368652 0.097656
vt 0.123535 0.245605
vt 0.123535 0.097656
vt 0.123535 0.343262
vt 0.368652 0.491211
vt 0.123535 0.491211
vt 0.000000 -0.000000
vt 0.000000 0.097656
vt 0.123535 -0.000000
vt 0.368652 0.245605
vt 0.368652 0.343262
vn 0.0000 -0.0000 -1.0000
vn 0.0000 1.0000 -0.0000
vn 0.0000 -1.0000 0.0000
vn -0.0000 0.0000 1.0000
vn 1.0000 0.0000 0.0000
vn -1.0000 0.0000 -0.0000
usemtl Material.053
s off
f 6/1/1 3/2/1 8/3/1
f 1/4/2 5/5/2 2/6/2
f 7/7/3 3/8/3 4/9/3
f 7/10/4 2/6/4 5/11/4
f 4/12/5 1/4/5 2/6/5
f 6/1/1 1/4/1 3/2/1
f 1/4/2 6/13/2 5/5/2
f 7/7/3 8/14/3 3/8/3
f 7/10/4 4/12/4 2/6/4
f 4/12/5 3/2/5 1/4/5
usemtl Material.052
f 8/14/6 5/5/6 6/13/6
f 8/14/6 7/7/6 5/5/6
