# Blender v2.83.5 OBJ File: 'biome_tileset_town_001.blend'
# www.blender.org
mtllib town_1_hw_dc_001.mtl
o town_1_hw_dc_001_Cube.062
v -0.500000 3.000000 0.250000
v -0.500000 0.000000 -0.271390
v -0.250000 3.000000 -0.302842
v 0.355821 3.000000 0.363320
v 0.250000 0.000000 -0.237006
v -0.500000 0.799845 0.225413
v -0.500000 2.166924 0.209653
v -0.500000 2.625000 0.271390
v -0.500000 2.625000 -0.271390
v -0.500000 2.166924 -0.209653
v -0.500000 1.483385 -0.257035
v -0.500000 0.799845 -0.225413
v 0.373931 0.362253 0.012062
v 0.233496 0.458076 0.500000
v 0.209653 2.166924 0.500000
v -0.209653 2.166924 0.500000
v -0.257035 1.141615 0.500000
v -0.225413 0.799845 0.500000
v -0.359464 0.383538 0.365732
v -0.355956 0.763458 0.411860
v -0.342096 1.106832 0.393720
v -0.243917 2.633538 -0.343536
v -0.240409 2.263458 -0.297408
v -0.226548 1.481832 -0.315548
v -0.272466 1.116960 -0.368770
v -0.275308 0.714872 -0.359136
v -0.274983 0.428604 -0.326439
v 0.341733 2.633538 0.342737
v 0.345241 1.513458 0.388865
v 0.359102 0.356832 0.370725
v 0.231015 2.565325 -0.210292
v 0.245767 2.250994 -0.208354
v 0.257593 1.927204 -0.196560
v 0.249526 0.367673 -0.212158
v -0.500000 0.000000 0.271390
v -0.500000 3.000000 -0.250000
v 0.362442 0.000000 -0.012250
v 0.355712 0.720616 0.003806
v 0.271390 0.000000 0.500000
v 0.250000 3.000000 0.500000
v -0.271390 0.000000 0.500000
v -0.250000 3.000000 0.500000
v 0.250000 3.000000 -0.168400
v -0.365547 3.000000 0.369943
v -0.365547 0.000000 0.369943
v -0.250000 0.000000 -0.371449
v 0.335650 0.000000 0.346948
v -0.500000 0.458076 0.233495
v -0.500000 1.141615 0.257035
v -0.500000 1.483385 0.257035
v -0.500000 1.825155 0.225413
v -0.500000 1.825155 -0.225413
v -0.500000 1.141615 -0.257035
v -0.500000 0.458076 -0.233495
v 0.349610 1.150918 0.009943
v 0.368870 1.501397 0.025409
v 0.353585 1.883538 -0.001933
v 0.349093 2.246477 -0.012647
v 0.355991 2.599432 -0.000998
v 0.372528 3.000000 0.030239
v 0.225414 0.799845 0.500000
v 0.257035 1.141615 0.500000
v 0.257035 1.483385 0.500000
v 0.225414 1.825155 0.500000
v 0.271390 2.625000 0.500000
v -0.271390 2.625000 0.500000
v -0.225413 1.825155 0.500000
v -0.257035 1.483385 0.500000
v -0.233495 0.458076 0.500000
v -0.388013 1.491960 0.340498
v -0.390855 1.839872 0.350132
v -0.390530 2.303604 0.382829
v -0.384532 2.565325 0.364534
v -0.238755 1.863157 -0.294902
v 0.313184 2.241960 0.317502
v 0.310342 1.839872 0.327137
v 0.310668 1.178604 0.359833
v 0.316665 0.690325 0.341539
v 0.253264 1.489336 -0.203605
v 0.249318 1.123231 -0.205505
v 0.255524 0.750908 -0.199485
v 0.000000 3.000000 -0.321851
v 0.000000 0.000000 -0.408770
v -0.007383 0.354667 -0.375818
v 0.003143 0.689531 -0.334700
v 0.002158 1.085317 -0.329267
v 0.017780 1.512255 -0.349962
v -0.021436 1.893835 -0.367437
v -0.020211 2.259314 -0.336088
v 0.014428 2.637257 -0.375399
vt 0.376465 1.000326
vt 0.129395 1.000326
vt 0.129395 0.915039
vt 0.376465 0.915039
vt 0.039551 0.585612
vt 0.268066 0.574544
vt 0.249512 0.662435
vt 0.027832 0.666341
vt 0.007324 0.915039
vt -0.000488 0.749023
vt 0.129395 0.749023
vt 0.376465 0.749023
vt 0.376465 0.832031
vt 0.252930 0.749023
vt 0.128418 0.102539
vt -0.000488 0.084310
vt -0.000488 -0.000326
vt 0.128418 -0.000326
vt 0.004395 0.102539
vt 0.004395 -0.000326
vt 0.130371 0.002279
vt 0.130371 0.084310
vt 0.130371 0.583659
vt 0.130371 0.667643
vt -0.000488 0.667643
vt -0.000488 0.583659
vt -0.000488 0.583659
vt 0.130371 0.583659
vt 0.130371 0.667643
vt -0.000488 0.667643
vt 0.492676 0.493815
vt 0.497559 0.563477
vt 0.273926 0.496419
vt 0.480957 0.422852
vt 0.263184 0.416992
vt -0.000488 0.338867
vt 0.241699 0.333008
vt 0.045410 0.411133
vt 0.481934 0.246419
vt 0.482910 0.327148
vt 0.250488 0.255534
vt 0.028809 0.156576
vt 0.252441 0.160482
vt 0.020020 0.263997
vt 0.004395 0.081706
vt 0.243652 0.081706
vt 0.497559 -0.000326
vt 0.481934 0.081055
vt 0.259277 0.002279
vt 0.471191 0.659180
vt 0.055176 0.499023
vt 0.258301 -0.000326
vt 0.384277 -0.000326
vt 0.384277 0.084961
vt 0.258301 0.084961
vt 0.476074 0.165039
vt 0.020996 0.002930
vt -0.000488 -0.000326
vt 0.128418 -0.000326
vt 0.128418 0.084310
vt -0.000488 0.102539
vt 0.128418 0.168294
vt -0.000488 0.179362
vt -0.000488 0.254232
vt 0.128418 0.251628
vt 0.128418 0.333659
vt -0.000488 0.330404
vt 0.128418 0.416992
vt -0.000488 0.405924
vt 0.130371 0.500977
vt -0.000488 0.482747
vt 0.258301 0.168294
vt 0.132324 0.168294
vt 0.132324 0.084961
vt 0.258301 0.251628
vt 0.132324 0.251628
vt 0.258301 0.334310
vt 0.132324 0.334310
vt 0.258301 0.417643
vt 0.132324 0.417643
vt 0.384277 0.417643
vt 0.384277 0.500977
vt 0.258301 0.500977
vt 0.258301 0.584310
vt 0.132324 0.584310
vt 0.132324 0.500977
vt 0.258301 0.668294
vt 0.132324 0.668294
vt 0.128418 -0.000326
vt 0.128418 0.102539
vt -0.000488 0.084310
vt -0.000488 -0.000326
vt 0.128418 0.179362
vt -0.000488 0.168294
vt 0.128418 0.254232
vt -0.000488 0.251628
vt 0.128418 0.330404
vt -0.000488 0.333659
vt 0.128418 0.405924
vt -0.000488 0.416992
vt 0.130371 0.482747
vt -0.000488 0.500977
vt 0.004395 0.667643
vt -0.000488 0.583659
vt 0.130371 0.583659
vt 0.130371 0.667643
vt -0.000488 0.482747
vt 0.130371 0.500977
vt -0.000488 0.405924
vt 0.130371 0.418294
vt 0.004395 0.330404
vt 0.004395 0.254232
vt 0.130371 0.251628
vt 0.130371 0.334310
vt 0.004395 0.179362
vt 0.130371 0.168294
vt 0.128418 0.583659
vt -0.000488 0.583659
vt -0.000488 0.500977
vt 0.128418 0.482747
vt -0.000488 0.416992
vt 0.130371 0.405924
vt 0.128418 0.330404
vt -0.000488 0.333659
vt -0.000488 0.251628
vt 0.128418 0.254232
vt -0.000488 0.168294
vt 0.128418 0.179362
vt 0.128418 0.667643
vt -0.000488 0.667643
vt 0.384277 0.584310
vt 0.384277 0.668294
vt 0.384277 0.334310
vt 0.384277 0.251628
vt 0.384277 0.168294
vt 0.132324 -0.000326
vn -0.1525 0.7744 -0.6140
vn -0.3525 0.8372 0.4181
vn -0.4817 0.7318 0.4820
vn -0.1184 0.7285 -0.6747
vn 0.9604 -0.0528 0.2737
vn 0.9714 -0.0177 -0.2367
vn 0.7488 0.6384 -0.1779
vn 0.7403 0.6321 0.2290
vn -0.4160 0.8375 0.3542
vn 0.4880 0.8224 0.2923
vn 0.5445 0.6758 -0.4967
vn 0.1827 0.6896 -0.7007
vn -0.6952 -0.0085 0.7187
vn -0.7073 0.0139 0.7067
vn -0.7078 0.0436 0.7050
vn -0.7737 0.0436 0.6320
vn -0.7108 -0.0037 0.7034
vn -0.6354 0.0432 0.7710
vn -0.2571 -0.0261 -0.9660
vn -0.1893 -0.0061 -0.9819
vn 0.8795 -0.0591 0.4722
vn 0.7146 -0.0013 -0.6995
vn 0.7141 0.0084 -0.6999
vn 0.9793 -0.0056 -0.2022
vn 0.7313 0.0136 -0.6819
vn 0.9832 0.0220 -0.1811
vn 0.9462 0.0256 0.3226
vn 0.9857 -0.0051 -0.1686
vn 0.9509 0.0614 0.3032
vn 0.7213 -0.0091 -0.6925
vn 0.7324 -0.0108 -0.6808
vn 0.9843 -0.0193 -0.1755
vn 0.9487 0.0513 0.3120
vn 0.9818 0.0332 -0.1867
vn 0.9570 -0.0478 0.2861
vn 0.9434 0.0239 0.3307
vn 0.9802 0.0193 -0.1968
vn 0.7348 0.0477 -0.6766
vn 0.7311 0.0415 -0.6809
vn 0.9744 -0.0161 -0.2243
vn 0.9608 -0.0407 0.2743
vn 0.2127 0.0880 -0.9731
vn -0.2574 0.0848 -0.9626
vn -0.2588 0.0357 -0.9652
vn 0.2162 0.0652 -0.9742
vn 0.7229 0.0211 -0.6906
vn 0.9498 -0.0287 0.3114
vn 0.8295 -0.0016 0.5584
vn 0.8271 0.0576 0.5591
vn 0.8754 0.0034 0.4834
vn 0.8877 -0.0491 0.4577
vn 0.8635 0.0226 0.5038
vn 0.8602 0.0787 0.5038
vn 0.8885 -0.0279 0.4581
vn 0.2698 0.0194 -0.9627
vn 0.2745 0.0016 -0.9616
vn 0.2217 0.0017 -0.9751
vn 0.1295 0.0188 -0.9914
vn -0.2515 0.0254 -0.9675
vn -0.2390 -0.0533 -0.9695
vn 0.1531 -0.0284 -0.9878
vn 0.2330 0.0204 -0.9722
vn -0.3713 0.0761 -0.9254
vn -0.4190 0.0155 -0.9078
vn -0.4738 -0.0419 -0.8796
vn -0.2212 -0.0186 -0.9750
vn -0.3992 0.0260 -0.9165
vn -0.1842 0.0195 -0.9827
vn -0.2762 0.0788 -0.9579
vn -0.1838 0.0469 -0.9818
vn -0.2627 0.0432 -0.9639
vn -0.2849 -0.0385 -0.9578
vn -0.6915 0.0056 0.7223
vn -0.7088 -0.0074 0.7053
vn -0.7907 -0.0182 0.6119
vn -0.7093 -0.0273 0.7044
vn -0.7464 0.0045 0.6654
vn -0.7124 0.0014 0.7017
vn -0.6586 0.0186 0.7523
vn -0.6781 0.0098 0.7349
vn -0.7065 0.0037 0.7077
vn -0.7015 0.0145 0.7125
vn -0.7400 -0.0136 0.6724
vn -0.6986 -0.0189 0.7152
vn -0.7205 0.0070 0.6934
vn -0.6281 -0.0233 0.7778
vn -0.6708 0.0005 0.7416
vn -0.7494 0.0087 0.6621
vn -0.7324 -0.0006 0.6809
vn -0.6594 -0.0154 0.7516
usemtl town_biome_material.018
s 1
f 36/1/1 1/2/2 44/3/3 3/4/4
f 28/5/5 59/6/6 60/7/7 4/8/8
f 44/3/3 42/9/9 40/10/10 4/11/8
f 43/12/11 82/13/12 3/4/4 44/3/3 4/11/8 60/14/7
f 69/15/13 19/16/14 45/17/15 41/18/16
f 48/19/17 35/20/18 45/21/15 19/22/14
f 9/23/19 36/24/1 3/25/4 22/26/20
f 65/27/21 28/28/5 4/29/8 40/30/10
f 32/31/22 31/32/23 59/6/6 58/33/24
f 33/34/25 32/31/22 58/33/24 57/35/26
f 29/36/27 56/37/28 57/35/26 76/38/29
f 80/39/30 79/40/31 56/37/28 55/41/32
f 78/42/33 38/43/34 55/41/32 77/44/35
f 30/45/36 13/46/37 38/43/34 78/42/33
f 5/47/38 34/48/39 13/46/37 37/49/40
f 59/6/6 31/32/23 43/50/11 60/7/7
f 58/33/24 59/6/6 28/5/5 75/51/41
f 83/52/42 46/53/43 27/54/44 84/55/45
f 57/35/26 58/33/24 75/51/41 76/38/29
f 56/37/28 79/40/31 33/34/25 57/35/26
f 55/41/32 56/37/28 29/36/27 77/44/35
f 38/43/34 81/56/46 80/39/30 55/41/32
f 13/46/37 34/48/39 81/56/46 38/43/34
f 37/49/40 13/46/37 30/45/36 47/57/47
f 39/58/48 47/59/47 30/60/36 14/61/49
f 14/61/49 30/60/36 78/62/33 61/63/50
f 62/64/51 77/65/35 29/66/27 63/67/52
f 63/67/52 29/66/27 76/68/29 64/69/53
f 64/69/53 76/68/29 75/70/41 15/71/54
f 15/71/54 75/70/41 28/28/5 65/27/21
f 84/55/45 85/72/55 81/73/46 34/74/39
f 85/72/55 86/75/56 80/76/30 81/73/46
f 86/75/56 87/77/57 79/78/31 80/76/30
f 87/77/57 88/79/58 33/80/25 79/78/31
f 88/79/58 74/81/59 23/82/60 89/83/61
f 89/83/61 90/84/62 31/85/23 32/86/22
f 90/84/62 82/87/12 43/88/11 31/85/23
f 2/89/63 54/90/64 27/91/44 46/92/43
f 54/90/64 12/93/65 26/94/66 27/91/44
f 12/93/65 53/95/67 25/96/68 26/94/66
f 53/95/67 11/97/69 24/98/70 25/96/68
f 11/97/69 52/99/71 74/100/59 24/98/70
f 52/99/71 10/101/72 23/102/60 74/100/59
f 10/101/72 9/23/19 22/26/20 23/102/60
f 1/103/2 8/104/73 73/105/74 44/106/3
f 8/104/73 7/107/75 72/108/76 73/105/74
f 7/107/75 51/109/77 71/110/78 72/108/76
f 50/111/79 49/112/80 21/113/81 70/114/82
f 49/112/80 6/115/83 20/116/84 21/113/81
f 6/115/83 48/19/17 19/22/14 20/116/84
f 66/117/85 73/118/74 72/119/76 16/120/86
f 16/120/86 72/119/76 71/121/78 67/122/87
f 68/123/88 70/124/82 21/125/81 17/126/89
f 17/126/89 21/125/81 20/127/84 18/128/90
f 18/128/90 20/127/84 19/16/14 69/15/13
f 61/63/50 78/62/33 77/65/35 62/64/51
f 51/109/77 50/111/79 70/114/82 71/110/78
f 42/129/9 44/130/3 73/118/74 66/117/85
f 67/122/87 71/121/78 70/124/82 68/123/88
f 22/131/20 3/132/4 82/87/12 90/84/62
f 23/82/60 22/131/20 90/84/62 89/83/61
f 33/80/25 88/79/58 89/83/61 32/86/22
f 24/133/70 74/81/59 88/79/58 87/77/57
f 25/134/68 24/133/70 87/77/57 86/75/56
f 26/135/66 25/134/68 86/75/56 85/72/55
f 27/54/44 26/135/66 85/72/55 84/55/45
f 5/136/38 83/52/42 84/55/45 34/74/39
