# Blender v2.79 (sub 0) OBJ File: 'medieval_props_pack.blend'
# www.blender.org
mtllib barrel_2_001.mtl
o barrel_2
v -0.000000 0.000000 0.000000
v -0.000000 0.000000 -2.423520
v -0.000000 2.340000 -2.223937
v 1.424509 0.000000 -1.960669
v 1.307197 2.340000 -1.799202
v 2.304905 0.000000 -0.748909
v 2.115089 2.340000 -0.687234
v 2.304905 0.000000 0.748909
v 2.115089 2.340000 0.687234
v 1.424509 0.000000 1.960669
v 1.307197 2.340000 1.799203
v -0.000000 0.000000 2.423520
v -0.000000 2.340000 2.223937
v -1.424510 0.000000 1.960669
v -1.307197 2.340000 1.799202
v -2.304905 0.000000 0.748909
v -2.115089 2.340000 0.687234
v -2.304905 0.000000 -0.748909
v -2.115089 2.340000 -0.687234
v -1.424509 0.000000 -1.960670
v -1.307196 2.340000 -1.799203
v -0.000000 0.200000 0.000000
v -0.000000 0.187178 -2.203087
v -0.000000 2.304467 -2.036187
v 1.294942 0.187176 -1.782332
v 1.196839 2.304467 -1.647311
v 2.095257 0.187175 -0.680792
v 1.936528 2.304467 -0.629218
v 2.095256 0.187175 0.680792
v 1.936528 2.304467 0.629218
v 1.294942 0.187176 1.782332
v 1.196839 2.304467 1.647312
v -0.000000 0.187178 2.203087
v -0.000000 2.304467 2.036187
v -1.294942 0.187176 1.782332
v -1.196839 2.304467 1.647311
v -2.095256 0.187175 0.680793
v -1.936528 2.304467 0.629218
v -2.095256 0.187175 -0.680793
v -1.936528 2.304467 -0.629218
v -1.294941 0.187176 -1.782332
v -1.196838 2.304467 -1.647312
vt 0.274564 0.795432
vt 0.460293 0.735068
vt 0.389341 0.637428
vt 0.990890 0.009816
vt 0.990890 0.276668
vt 0.892683 0.276668
vt 0.892683 0.009816
vt 0.274548 0.600140
vt 0.794476 0.276668
vt 0.794476 0.009816
vt 0.159761 0.637447
vt 0.696269 0.276668
vt 0.696269 0.009816
vt 0.088825 0.735098
vt 0.598062 0.276668
vt 0.598062 0.009816
vt 0.088835 0.855796
vt 0.499854 0.276668
vt 0.499854 0.009816
vt 0.159787 0.953436
vt 0.401647 0.276668
vt 0.401647 0.009816
vt 0.274580 0.990724
vt 0.303440 0.276668
vt 0.303440 0.009816
vt 0.389367 0.953417
vt 0.205233 0.276668
vt 0.205233 0.009816
vt 0.460303 0.855765
vt 0.107026 0.276668
vt 0.107026 0.009816
vt 0.008818 0.276668
vt 0.008818 0.009816
vt 0.736867 0.795432
vt 0.851644 0.637428
vt 0.922596 0.735068
vt 0.990890 0.588837
vt 0.892683 0.588837
vt 0.892683 0.321985
vt 0.990890 0.321985
vt 0.736851 0.600140
vt 0.794476 0.588837
vt 0.794476 0.321985
vt 0.622064 0.637447
vt 0.696269 0.588837
vt 0.696269 0.321985
vt 0.551129 0.735098
vt 0.598062 0.588837
vt 0.598062 0.321985
vt 0.551138 0.855796
vt 0.499854 0.588837
vt 0.499854 0.321985
vt 0.622090 0.953436
vt 0.401647 0.588837
vt 0.401647 0.321985
vt 0.736883 0.990724
vt 0.303440 0.588837
vt 0.303440 0.321985
vt 0.851670 0.953417
vt 0.205233 0.588837
vt 0.205233 0.321985
vt 0.922606 0.855765
vt 0.107026 0.588837
vt 0.107026 0.321985
vt 0.008818 0.588837
vt 0.008818 0.321985
vn 0.0000 -1.0000 0.0000
vn 0.0000 -0.6116 -0.7912
vn 0.4650 -0.6116 -0.6401
vn 0.0000 0.7301 -0.6833
vn 0.4017 0.7301 -0.5528
vn 0.7524 -0.6116 -0.2445
vn 0.6499 0.7301 -0.2112
vn 0.7524 -0.6116 0.2445
vn 0.6499 0.7301 0.2112
vn 0.4650 -0.6116 0.6401
vn 0.4017 0.7301 0.5528
vn 0.0000 -0.6116 0.7912
vn 0.0000 0.7301 0.6833
vn -0.4650 -0.6116 0.6401
vn -0.4017 0.7301 0.5528
vn -0.7524 -0.6116 0.2445
vn -0.6499 0.7301 0.2112
vn -0.7524 -0.6116 -0.2445
vn -0.6499 0.7301 -0.2112
vn -0.4650 -0.6116 -0.6401
vn -0.4017 0.7301 -0.5528
vn 0.0000 1.0000 0.0000
vn -0.4630 0.6159 0.6373
vn 0.0000 0.6159 0.7878
vn -0.4313 0.6794 0.5936
vn 0.0000 0.6794 0.7337
vn -0.7492 0.6159 0.2434
vn -0.6978 0.6794 0.2267
vn -0.7492 0.6159 -0.2434
vn -0.6978 0.6794 -0.2267
vn -0.4630 0.6159 -0.6373
vn -0.4313 0.6794 -0.5936
vn 0.0000 0.6159 -0.7878
vn 0.0000 0.6794 -0.7337
vn 0.4630 0.6159 -0.6373
vn 0.4313 0.6794 -0.5936
vn 0.7492 0.6159 -0.2434
vn 0.6978 0.6794 -0.2267
vn 0.7492 0.6159 0.2434
vn 0.6978 0.6794 0.2267
vn 0.4630 0.6159 0.6373
vn 0.4313 0.6794 0.5936
usemtl mat_barrel_2
s 1
f 1/1/1 2/2/2 4/3/3
f 2/4/2 3/5/4 5/6/5 4/7/3
f 1/1/1 4/3/3 6/8/6
f 4/7/3 5/6/5 7/9/7 6/10/6
f 1/1/1 6/8/6 8/11/8
f 6/10/6 7/9/7 9/12/9 8/13/8
f 1/1/1 8/11/8 10/14/10
f 8/13/8 9/12/9 11/15/11 10/16/10
f 1/1/1 10/14/10 12/17/12
f 10/16/10 11/15/11 13/18/13 12/19/12
f 1/1/1 12/17/12 14/20/14
f 12/19/12 13/18/13 15/21/15 14/22/14
f 1/1/1 14/20/14 16/23/16
f 14/22/14 15/21/15 17/24/17 16/25/16
f 1/1/1 16/23/16 18/26/18
f 16/25/16 17/24/17 19/27/19 18/28/18
f 1/1/1 18/26/18 20/29/20
f 18/28/18 19/27/19 21/30/21 20/31/20
f 1/1/1 20/29/20 2/2/2
f 20/31/20 21/30/21 3/32/4 2/33/2
f 22/34/22 25/35/23 23/36/24
f 23/37/24 25/38/23 26/39/25 24/40/26
f 22/34/22 27/41/27 25/35/23
f 25/38/23 27/42/27 28/43/28 26/39/25
f 22/34/22 29/44/29 27/41/27
f 27/42/27 29/45/29 30/46/30 28/43/28
f 22/34/22 31/47/31 29/44/29
f 29/45/29 31/48/31 32/49/32 30/46/30
f 22/34/22 33/50/33 31/47/31
f 31/48/31 33/51/33 34/52/34 32/49/32
f 22/34/22 35/53/35 33/50/33
f 33/51/33 35/54/35 36/55/36 34/52/34
f 22/34/22 37/56/37 35/53/35
f 35/54/35 37/57/37 38/58/38 36/55/36
f 22/34/22 39/59/39 37/56/37
f 37/57/37 39/60/39 40/61/40 38/58/38
f 22/34/22 41/62/41 39/59/39
f 39/60/39 41/63/41 42/64/42 40/61/40
f 22/34/22 23/36/24 41/62/41
f 41/63/41 23/65/24 24/66/26 42/64/42
f 5/6/5 3/5/4 24/40/26 26/39/25
f 7/9/7 5/6/5 26/39/25 28/43/28
f 9/12/9 7/9/7 28/43/28 30/46/30
f 11/15/11 9/12/9 30/46/30 32/49/32
f 13/18/13 11/15/11 32/49/32 34/52/34
f 15/21/15 13/18/13 34/52/34 36/55/36
f 17/24/17 15/21/15 36/55/36 38/58/38
f 19/27/19 17/24/17 38/58/38 40/61/40
f 21/30/21 19/27/19 40/61/40 42/64/42
f 3/32/4 21/30/21 42/64/42 24/66/26
