# Blender v2.79 (sub 0) OBJ File: 'medieval_props_pack.blend'
# www.blender.org
mtllib basket_1_001.mtl
o basket_2
v -0.000000 0.000000 -0.528000
v -0.310351 0.000000 -0.427161
v -0.502158 0.000000 -0.163161
v -0.502158 0.000000 0.163161
v -0.310351 0.000000 0.427161
v 0.000000 0.000000 0.528000
v 0.310351 0.000000 0.427161
v 0.502158 0.000000 0.163161
v 0.502158 0.000000 -0.163161
v 0.310351 0.000000 -0.427161
v 0.000000 0.840000 -0.924000
v -0.543114 0.840000 -0.747532
v -0.878776 0.840000 -0.285532
v -0.878776 0.840000 0.285532
v -0.543114 0.840000 0.747532
v 0.000000 0.840000 0.924000
v 0.543114 0.840000 0.747532
v 0.878776 0.840000 0.285532
v 0.878776 0.840000 -0.285532
v 0.543113 0.840000 -0.747532
v 0.000000 0.000000 0.000000
v -0.000000 0.075918 -0.470560
v -0.276590 0.075919 -0.380692
v -0.447530 0.075919 -0.145412
v -0.447530 0.075919 0.145412
v -0.276590 0.075919 0.380692
v 0.000000 0.075918 0.470560
v 0.276590 0.075919 0.380692
v 0.447530 0.075919 0.145412
v 0.447530 0.075919 -0.145412
v 0.276590 0.075919 -0.380692
v 0.000000 0.874667 -0.850463
v -0.499889 0.874667 -0.688039
v -0.808838 0.874668 -0.262809
v -0.808838 0.874668 0.262809
v -0.499889 0.874667 0.688039
v 0.000000 0.874667 0.850463
v 0.499890 0.874667 0.688039
v 0.808838 0.874668 0.262809
v 0.808838 0.874668 -0.262809
v 0.499889 0.874667 -0.688039
v 0.000000 0.078000 0.000000
vt 0.408581 0.007937
vt 0.408581 0.459701
vt 0.307281 0.459701
vt 0.307281 0.007937
vt 0.100420 0.007937
vt 0.100420 0.459701
vt 0.008074 0.459701
vt 0.008074 0.007937
vt 0.801254 0.007937
vt 0.801254 0.459701
vt 0.709117 0.459701
vt 0.709117 0.007937
vt 0.507917 0.007937
vt 0.507917 0.459701
vt 0.201817 0.007937
vt 0.201817 0.459701
vt 0.896669 0.007937
vt 0.896669 0.459701
vt 0.611667 0.007937
vt 0.611667 0.459701
vt 0.992087 0.007937
vt 0.992087 0.459701
vt 0.061062 0.628479
vt 0.174172 0.546300
vt 0.244077 0.761448
vt 0.427092 0.628479
vt 0.470296 0.761448
vt 0.313983 0.976595
vt 0.174172 0.976595
vt 0.017858 0.761448
vt 0.313983 0.546300
vt 0.427093 0.894416
vt 0.061062 0.894416
vt 0.611667 0.007937
vt 0.709117 0.007937
vt 0.709117 0.459701
vt 0.611667 0.459701
vt 0.896669 0.007937
vt 0.992087 0.007937
vt 0.992087 0.459701
vt 0.896669 0.459701
vt 0.201817 0.007937
vt 0.307281 0.007937
vt 0.307281 0.459701
vt 0.201817 0.459701
vt 0.507917 0.007937
vt 0.507917 0.459701
vt 0.801254 0.007937
vt 0.801254 0.459701
vt 0.100420 0.007937
vt 0.100420 0.459701
vt 0.408581 0.007937
vt 0.408581 0.459701
vt 0.008074 0.007937
vt 0.008074 0.459701
vt 0.061062 0.894416
vt 0.244077 0.761448
vt 0.174172 0.976595
vt 0.427093 0.894416
vt 0.470296 0.761448
vt 0.313983 0.546300
vt 0.174172 0.546300
vt 0.017858 0.761448
vt 0.313983 0.976595
vt 0.427092 0.628479
vt 0.061062 0.628479
vt 0.100420 0.531389
vt 0.008074 0.531389
vt 0.201817 0.531389
vt 0.307281 0.531389
vt 0.408581 0.531389
vt 0.507917 0.531389
vt 0.611667 0.531389
vt 0.709117 0.531389
vt 0.801254 0.531389
vt 0.896669 0.531389
vt 0.992087 0.531389
vn -0.3546 -0.7974 0.4881
vn -0.5606 0.3006 0.7716
vn -0.9070 0.3006 0.2947
vn -0.5738 -0.7974 0.1864
vn -0.3546 -0.7974 -0.4881
vn -0.5606 0.3006 -0.7716
vn 0.0000 0.3006 -0.9537
vn 0.0000 -0.7974 -0.6034
vn 0.5738 -0.7974 -0.1864
vn 0.9070 0.3006 -0.2947
vn 0.9070 0.3006 0.2947
vn 0.5738 -0.7974 0.1864
vn 0.0000 -0.7974 0.6034
vn 0.0000 0.3006 0.9537
vn -0.5738 -0.7974 -0.1864
vn -0.9070 0.3006 -0.2947
vn 0.3546 -0.7974 -0.4881
vn 0.5606 0.3006 -0.7716
vn 0.3546 -0.7974 0.4881
vn 0.5606 0.3006 0.7716
vn 0.0000 -1.0000 0.0000
vn 0.3529 0.7996 -0.4858
vn 0.5711 0.7996 -0.1856
vn 0.1912 0.9796 -0.0621
vn 0.1182 0.9796 -0.1627
vn 0.3529 0.7996 0.4858
vn 0.0000 0.7996 0.6005
vn 0.0000 0.9796 0.2011
vn 0.1182 0.9796 0.1627
vn -0.5711 0.7996 0.1856
vn -0.5711 0.7996 -0.1856
vn -0.1912 0.9796 -0.0621
vn -0.1912 0.9796 0.0621
vn 0.0000 0.7996 -0.6005
vn 0.0000 0.9796 -0.2011
vn 0.5711 0.7996 0.1856
vn 0.1912 0.9796 0.0621
vn -0.3529 0.7996 0.4858
vn -0.1182 0.9796 0.1627
vn -0.3529 0.7996 -0.4858
vn -0.1182 0.9796 -0.1627
vn 0.0000 1.0000 0.0000
usemtl mat_basket_2
s 1
f 5/1/1 15/2/2 14/3/3 4/4/4
f 2/5/5 12/6/6 11/7/7 1/8/8
f 9/9/9 19/10/10 18/11/11 8/12/12
f 6/13/13 16/14/14 15/2/2 5/1/1
f 3/15/15 13/16/16 12/6/6 2/5/5
f 10/17/17 20/18/18 19/10/10 9/9/9
f 7/19/19 17/20/20 16/14/14 6/13/13
f 4/4/4 14/3/3 13/16/16 3/15/15
f 1/21/8 11/22/7 20/18/18 10/17/17
f 8/12/12 18/11/11 17/20/20 7/19/19
f 5/23/1 4/24/4 21/25/21
f 2/26/5 1/27/8 21/25/21
f 9/28/9 8/29/12 21/25/21
f 6/30/13 5/23/1 21/25/21
f 3/31/15 2/26/5 21/25/21
f 10/32/17 9/28/9 21/25/21
f 7/33/19 6/30/13 21/25/21
f 4/24/4 3/31/15 21/25/21
f 1/27/8 10/32/17 21/25/21
f 8/29/12 7/33/19 21/25/21
f 26/34/22 25/35/23 35/36/24 36/37/25
f 23/38/26 22/39/27 32/40/28 33/41/29
f 30/42/30 29/43/31 39/44/32 40/45/33
f 27/46/34 26/34/22 36/37/25 37/47/35
f 24/48/36 23/38/26 33/41/29 34/49/37
f 31/50/38 30/42/30 40/45/33 41/51/39
f 28/52/40 27/46/34 37/47/35 38/53/41
f 25/35/23 24/48/36 34/49/37 35/36/24
f 22/54/27 31/50/38 41/51/39 32/55/28
f 29/43/31 28/52/40 38/53/41 39/44/32
f 26/56/22 42/57/42 25/58/23
f 23/59/26 42/57/42 22/60/27
f 30/61/30 42/57/42 29/62/31
f 27/63/34 42/57/42 26/56/22
f 24/64/36 42/57/42 23/59/26
f 31/65/38 42/57/42 30/61/30
f 28/66/40 42/57/42 27/63/34
f 25/58/23 42/57/42 24/64/36
f 22/60/27 42/57/42 31/65/38
f 29/62/31 42/57/42 28/66/40
f 11/7/7 12/6/6 33/67/29 32/68/28
f 12/6/6 13/16/16 34/69/37 33/67/29
f 13/16/16 14/3/3 35/70/24 34/69/37
f 14/3/3 15/2/2 36/71/25 35/70/24
f 15/2/2 16/14/14 37/72/35 36/71/25
f 16/14/14 17/20/20 38/73/41 37/72/35
f 17/20/20 18/11/11 39/74/32 38/73/41
f 18/11/11 19/10/10 40/75/33 39/74/32
f 19/10/10 20/18/18 41/76/39 40/75/33
f 20/18/18 11/22/7 32/77/28 41/76/39
