# Blender v2.79 (sub 0) OBJ File: 'medieval_props_pack.blend'
# www.blender.org
mtllib crate_1_001.mtl
o crate
v -0.900000 0.000000 0.900000
v -0.900000 1.800000 0.900000
v -0.900000 0.000000 -0.900000
v -0.900000 1.800000 -0.900000
v 0.900000 0.000000 0.900000
v 0.900000 1.800000 0.900000
v 0.900000 0.000000 -0.900000
v 0.900000 1.800000 -0.900000
vt 0.956520 0.957668
vt 0.043479 0.957668
vt 0.043479 0.044627
vt 0.956521 0.044627
vt 0.043480 0.957668
vt 0.956521 0.957668
vt 0.956521 0.044627
vt 0.043479 0.044627
vt 0.956520 0.957668
vt 0.043479 0.957668
vt 0.956521 0.044627
vt 0.043479 0.044627
vt 0.043479 0.957668
vt 0.956521 0.044627
vn -0.5773 -0.5773 0.5773
vn -0.5773 0.5773 0.5773
vn -0.5773 0.5773 -0.5773
vn -0.5773 -0.5773 -0.5773
vn 0.5773 0.5773 -0.5773
vn 0.5773 -0.5773 -0.5773
vn 0.5773 0.5773 0.5773
vn 0.5773 -0.5773 0.5773
usemtl mat_crate
s 1
f 1/1/1 2/2/2 4/3/3 3/4/4
f 3/5/4 4/6/3 8/7/5 7/8/6
f 7/8/6 8/7/5 6/9/7 5/10/8
f 5/11/8 6/12/7 2/2/2 1/1/1
f 3/5/4 7/8/6 5/11/8 1/1/1
f 8/13/5 4/3/3 2/14/2 6/9/7
