# Blender v2.79 (sub 0) OBJ File: ''
# www.blender.org
mtllib grass_patch_1_001a.mtl
o grass_batch_B-lod_grass_patch_d.009
v 0.936713 -0.006797 0.539602
v 0.904046 0.446924 0.539601
v -0.017008 0.446924 0.539601
v -0.036064 -0.017686 0.539602
v -0.905394 0.444202 0.539601
v -0.948951 0.001370 0.539602
v -0.539813 0.230889 0.541416
v -0.478887 0.446443 0.509315
v -0.879645 0.434206 0.388730
v -0.558263 -0.008701 0.496562
v -0.944226 0.230526 0.428715
v 0.522250 -0.007699 0.473424
v 0.936184 -0.006935 0.444168
v 0.925743 0.230546 0.379292
v 0.515063 0.231024 0.426613
v 0.868489 0.434219 0.436614
v 0.020595 0.231123 0.527161
v 0.469608 0.446512 0.473198
v 0.016577 -0.009503 0.529117
v 0.025110 0.446548 0.526324
v -0.944314 -0.006039 0.370353
v -0.790975 -0.000034 -0.073799
v -0.087207 -0.010759 0.020106
v -0.024123 0.428682 0.084048
v -0.796314 0.399145 -0.144075
v 0.930071 -0.002159 -0.005129
v 0.959184 0.427515 -0.028144
v -0.462829 0.218849 0.096213
v -0.427234 0.436710 -0.005742
v -0.814288 0.425363 -0.220006
v -0.814080 -0.007270 -0.187725
v -0.427508 -0.007525 0.044925
v -0.006151 0.218144 0.102887
v 0.446121 0.220725 0.014467
v 0.404787 0.454894 -0.029799
v 0.405523 -0.007295 -0.026255
v 0.681202 -0.007610 -0.022169
v 0.712952 0.221070 -0.009329
v 0.662258 0.453939 -0.077094
v 0.876917 -0.007138 -0.007691
v 0.926677 0.220494 -0.035098
v 0.869616 0.429049 -0.098025
v -0.016577 0.432749 0.036248
v 0.008454 -0.007563 0.024665
v -0.890780 0.212722 -0.172210
v -0.644468 0.214523 0.548357
v -0.537704 0.432384 0.532130
v -0.398324 0.421037 0.952004
v -0.430015 -0.011596 0.945859
v -0.587556 -0.011851 0.523076
v -0.566991 0.213818 0.098249
v -0.396855 0.216399 -0.330028
v -0.360951 0.450569 -0.281255
v -0.364299 -0.011621 -0.282630
v -0.317586 -0.011936 -0.554354
v -0.324364 0.216744 -0.587925
v -0.267085 0.449613 -0.525626
v -0.295802 -0.011464 -0.749391
v -0.259706 0.216169 -0.793258
v -0.208354 0.424723 -0.725591
v -0.503409 0.428423 0.120760
v -0.487417 -0.011889 0.098287
v -0.459380 0.208396 1.018394
v 0.552717 0.214523 -0.147870
v 0.485595 0.432384 -0.232466
v 0.780745 0.421037 -0.562022
v 0.791156 -0.011596 -0.531465
v 0.502503 -0.011851 -0.184703
v 0.123593 0.213818 0.008502
v -0.332618 0.216399 0.073614
v -0.308126 0.450569 0.018224
v -0.307656 -0.011621 0.021812
v -0.566683 -0.011936 0.116263
v -0.592450 0.216744 0.138824
v -0.566840 0.449613 0.058164
v -0.746771 -0.011464 0.194251
v -0.802774 0.216169 0.184718
v -0.769560 0.424723 0.106535
v 0.111542 0.428423 -0.057862
v 0.084094 -0.011889 -0.060576
v 0.868695 0.208396 -0.542016
v 0.466817 0.237347 -0.524004
v 0.402249 0.454219 -0.522140
v 0.784025 0.462461 -0.693828
v 0.479306 0.005032 -0.599032
v 0.853238 0.256505 -0.686987
v -0.595111 -0.007881 -0.482810
v -1.009348 -0.010044 -0.458319
v -1.007394 0.233562 -0.495289
v -0.594044 0.234780 -0.501429
v -0.943201 0.429912 -0.421988
v -0.090720 0.230633 -0.465979
v -0.542940 0.443944 -0.435777
v -0.086483 -0.008455 -0.493189
v -0.095305 0.444558 -0.440601
v 0.845770 0.028503 -0.772594
v 0.096794 0.214523 -0.556452
v 0.186915 0.432384 -0.496955
v 0.489504 0.421037 -0.819694
v 0.458156 -0.011596 -0.827403
v 0.137861 -0.011851 -0.509638
v -0.021598 0.213818 -0.115336
v -0.046716 0.216399 0.344813
v 0.006329 0.450569 0.315588
v 0.002713 -0.011621 0.315433
v -0.068811 -0.011936 0.581704
v -0.089042 0.216744 0.609339
v -0.010919 0.449613 0.576798
v -0.130814 -0.011464 0.767902
v -0.116437 0.216169 0.822861
v -0.041445 0.424723 0.782962
v 0.045564 0.428423 -0.109113
v 0.050658 -0.011889 -0.082006
v 0.461912 0.208396 -0.905567
v -0.455298 0.230889 -0.251955
v -0.391566 0.446443 -0.225869
v -0.556497 0.434206 -0.610505
v -0.432765 -0.008701 -0.294904
v -0.628621 0.230526 -0.634330
v 0.278872 -0.007699 0.518496
v 0.567124 -0.006935 0.817004
v 0.610149 0.230546 0.767338
v 0.310139 0.231024 0.482925
v 0.529442 0.434219 0.760262
v -0.084480 0.231123 0.168466
v 0.245238 0.446512 0.477997
v -0.088560 -0.009503 0.166642
v -0.080939 0.446548 0.171389
v -0.583941 -0.006039 -0.671877
vt 1.000000 -0.002155
vt 1.000000 0.483511
vt 0.500000 0.483511
vt 0.500000 -0.002155
vt 0.000000 0.483511
vt 0.000000 -0.002155
vt 0.000000 0.492188
vt 0.461723 0.492188
vt 0.500000 0.990625
vt 0.000000 0.990625
vt 1.000000 0.492188
vt 1.000000 0.990625
vt 0.213122 0.240678
vt 0.247190 0.483511
vt 0.000000 0.483511
vt 0.217640 -0.002155
vt 0.000000 0.240678
vt 0.753684 -0.002155
vt 1.000000 -0.002155
vt 1.000000 0.240678
vt 0.768025 0.240678
vt 1.000000 0.483511
vt 0.506955 0.240678
vt 0.740812 0.483511
vt 0.512473 -0.002155
vt 0.516067 0.483511
vt 0.000000 -0.002155
vt 0.276795 0.741406
vt 0.278491 0.990625
vt 0.000000 0.990625
vt 0.000000 0.492188
vt 0.275098 0.492188
vt 0.513332 0.741406
vt 0.754390 0.741406
vt 0.771956 0.990625
vt 0.736823 0.492188
vt 0.880899 0.492188
vt 0.877488 0.741406
vt 0.874076 0.990625
vt 1.000000 0.492188
vt 1.000000 0.741406
vt 1.000000 0.990625
vt 0.504247 0.990625
vt 0.522418 0.492188
vt 0.000000 0.741406
vt 0.276795 0.741406
vt 0.278491 0.990625
vt 0.000000 0.990625
vt 0.000000 0.492188
vt 0.275098 0.492188
vt 0.513332 0.741406
vt 0.754390 0.741406
vt 0.771956 0.990625
vt 0.736823 0.492188
vt 0.880899 0.492188
vt 0.877488 0.741406
vt 0.874076 0.990625
vt 1.000000 0.492188
vt 1.000000 0.741406
vt 1.000000 0.990625
vt 0.504247 0.990625
vt 0.522418 0.492188
vt 0.000000 0.741406
vt 0.276795 0.741406
vt 0.278491 0.990625
vt 0.000000 0.990625
vt 0.000000 0.492188
vt 0.275098 0.492188
vt 0.513332 0.741406
vt 0.754390 0.741406
vt 0.771956 0.990625
vt 0.736823 0.492188
vt 0.880899 0.492188
vt 0.877488 0.741406
vt 0.874076 0.990625
vt 1.000000 0.492188
vt 1.000000 0.741406
vt 1.000000 0.990625
vt 0.504247 0.990625
vt 0.522418 0.492188
vt 0.000000 0.741406
vt 0.213122 0.240678
vt 0.247190 0.483511
vt 0.000000 0.483511
vt 0.217640 -0.002155
vt 0.000000 0.240678
vt 0.753684 -0.002155
vt 1.000000 -0.002155
vt 1.000000 0.240678
vt 0.768025 0.240678
vt 1.000000 0.483511
vt 0.506955 0.240678
vt 0.740812 0.483511
vt 0.512473 -0.002155
vt 0.516067 0.483511
vt 0.000000 -0.002155
vt 0.276795 0.741406
vt 0.278491 0.990625
vt 0.000000 0.990625
vt 0.000000 0.492188
vt 0.275098 0.492188
vt 0.513332 0.741406
vt 0.754390 0.741406
vt 0.771956 0.990625
vt 0.736823 0.492188
vt 0.880899 0.492188
vt 0.877488 0.741406
vt 0.874076 0.990625
vt 1.000000 0.492188
vt 1.000000 0.741406
vt 1.000000 0.990625
vt 0.504247 0.990625
vt 0.522418 0.492188
vt 0.000000 0.741406
vt 0.213122 0.240678
vt 0.247190 0.483511
vt 0.000000 0.483511
vt 0.217640 -0.002155
vt 0.000000 0.240678
vt 0.753684 -0.002155
vt 1.000000 -0.002155
vt 1.000000 0.240678
vt 0.768025 0.240678
vt 1.000000 0.483511
vt 0.506955 0.240678
vt 0.740812 0.483511
vt 0.512473 -0.002155
vt 0.516067 0.483511
vt 0.000000 -0.002155
vn 0.0000 0.0000 1.0000
vn -0.2134 0.0221 0.9767
vn 0.0686 -0.0542 0.9962
vn -0.2872 0.2200 0.9323
vn -0.2650 -0.1577 0.9513
vn 0.0675 0.2657 0.9617
vn 0.1108 -0.2403 0.9644
vn 0.1955 0.1944 0.9612
vn 0.1964 -0.1674 0.9661
vn 0.0254 0.0077 0.9996
vn -0.0337 0.0046 0.9994
vn -0.2591 0.2645 0.9289
vn -0.3040 -0.2281 0.9250
vn 0.1125 0.1945 0.9744
vn 0.0837 -0.1937 0.9775
vn 0.1095 0.0063 0.9940
vn 0.1187 0.0014 0.9929
vn -0.0559 -0.1796 0.9822
vn 0.0251 0.1403 0.9898
vn -0.4451 0.4382 0.7809
vn -0.4974 -0.2648 0.8261
vn 0.1862 0.2141 0.9589
vn 0.1889 -0.2051 0.9603
vn 0.0887 -0.0681 0.9937
vn 0.0845 0.2953 0.9517
vn 0.1194 0.0929 0.9885
vn 0.1144 0.3155 0.9420
vn -0.0945 0.2910 0.9520
vn 0.0439 -0.3246 0.9448
vn -0.5000 0.3572 0.7890
vn -0.5137 -0.2373 0.8245
vn 0.1323 0.2998 0.9448
vn 0.1208 -0.3181 0.9403
vn -0.0148 -0.1732 0.9848
vn 0.1773 0.2129 0.9608
vn -0.0736 -0.0457 0.9962
vn 0.1317 0.3033 0.9438
vn -0.0126 0.4255 0.9049
vn -0.0146 -0.2231 0.9747
vn 0.8495 -0.4382 -0.2938
vn 0.9036 0.2648 -0.3369
vn 0.9082 -0.2141 0.3595
vn 0.9092 0.2051 0.3624
vn 0.9604 0.0681 0.2701
vn 0.9199 -0.2953 0.2582
vn 0.9496 -0.0929 0.2993
vn 0.9048 -0.3155 0.2858
vn 0.9532 -0.2910 0.0823
vn 0.9206 0.3246 0.2170
vn 0.8675 -0.3572 -0.3462
vn 0.9049 0.2373 -0.3532
vn 0.9043 -0.2998 0.3039
vn 0.9021 0.3181 0.2918
vn 0.9707 0.1732 0.1667
vn 0.9118 -0.2129 0.3511
vn 0.9928 0.0457 0.1110
vn 0.9034 -0.3033 0.3031
vn 0.8917 -0.4255 0.1542
vn 0.9607 0.2231 0.1650
vn -0.6770 -0.4382 -0.5913
vn -0.7412 0.2648 -0.6168
vn -0.1392 -0.2141 -0.9668
vn -0.1371 0.2051 -0.9691
vn -0.2428 0.0681 -0.9677
vn -0.2329 -0.2953 -0.9266
vn -0.2120 -0.0929 -0.9728
vn -0.2015 -0.3155 -0.9273
vn -0.4021 -0.2910 -0.8681
vn -0.2690 0.3246 -0.9068
vn -0.7315 -0.3572 -0.5808
vn -0.7561 0.2373 -0.6099
vn -0.1855 -0.2998 -0.9358
vn -0.1949 0.3181 -0.9278
vn -0.3376 0.1732 -0.9252
vn -0.1483 -0.2129 -0.9657
vn -0.3969 0.0457 -0.9167
vn -0.1858 -0.3033 -0.9346
vn -0.3092 -0.4255 -0.8505
vn -0.3341 0.2231 -0.9158
vn -0.4055 -0.1129 -0.9071
vn -0.3859 0.2647 -0.8838
vn -0.0576 -0.1493 -0.9871
vn -0.0149 0.3540 -0.9351
vn 0.0694 -0.0766 -0.9946
vn 0.0697 0.2832 -0.9565
vn -0.1042 0.1106 -0.9884
vn -0.1628 0.1128 -0.9802
vn -0.3772 -0.1571 -0.9127
vn -0.4212 0.3309 -0.8445
vn -0.0146 -0.0764 -0.9970
vn -0.0436 0.3089 -0.9501
vn -0.0201 0.1127 -0.9934
vn -0.0109 0.1176 -0.9930
vn -0.1825 0.2933 -0.9384
vn -0.1032 -0.0222 -0.9944
vn -0.6480 0.4382 -0.6230
vn -0.6791 -0.2648 -0.6847
vn -0.9753 0.2141 -0.0544
vn -0.9773 -0.2051 -0.0522
vn -0.9852 -0.0681 -0.1575
vn -0.9433 0.2953 -0.1513
vn -0.9876 0.0929 -0.1265
vn -0.9413 0.3155 -0.1199
vn -0.8998 0.2910 -0.3250
vn -0.9268 -0.3246 -0.1890
vn -0.6424 0.3572 -0.6781
vn -0.6734 -0.2373 -0.7001
vn -0.9484 0.2998 -0.1032
vn -0.9413 -0.3181 -0.1133
vn -0.9511 -0.1732 -0.2557
vn -0.9750 0.2129 -0.0636
vn -0.9478 -0.0457 -0.3155
vn -0.9472 0.3033 -0.1036
vn -0.8742 0.4255 -0.2339
vn -0.9414 -0.2231 -0.2530
vn -0.8991 0.2200 0.3785
vn -0.8993 -0.1577 0.4078
vn -0.6938 0.2657 0.6693
vn -0.6680 -0.2402 0.7043
vn -0.6113 0.1944 0.7672
vn -0.6144 -0.1674 0.7710
vn -0.7499 0.0077 0.6615
vn -0.7878 0.0046 0.6160
vn -0.8785 0.2645 0.3979
vn -0.9042 -0.2281 0.3610
vn -0.6747 0.1945 0.7120
vn -0.6955 -0.1937 0.6919
vn -0.6916 0.0063 0.7222
vn -0.6849 0.0014 0.7286
vn -0.7887 -0.1796 0.5879
vn -0.7426 0.1403 0.6549
usemtl 001.grass_patch_d-alpha
s off
f 1/1/1 2/2/1 3/3/1
f 4/4/1 3/3/1 5/5/1
f 4/4/1 1/1/1 3/3/1
f 6/6/1 4/4/1 5/5/1
f 22/7/2 23/8/2 24/9/2 25/10/2
f 23/8/3 26/11/3 27/12/3 24/9/3
usemtl grass_patch_d-alpha
f 7/13/4 8/14/4 9/15/4
f 10/16/5 7/13/5 11/17/5
f 12/18/6 13/19/6 14/20/6
f 15/21/7 14/20/7 16/22/7
f 12/18/8 15/21/8 17/23/8
f 17/23/9 15/21/9 18/24/9
f 19/25/10 17/23/10 7/13/10
f 17/23/11 20/26/11 8/14/11
f 11/17/12 7/13/12 9/15/12
f 21/27/13 10/16/13 11/17/13
f 15/21/14 12/18/14 14/20/14
f 18/24/15 15/21/15 16/22/15
f 19/25/16 12/18/16 17/23/16
f 20/26/17 17/23/17 18/24/17
f 10/16/18 19/25/18 7/13/18
f 7/13/19 17/23/19 8/14/19
f 28/28/20 29/29/20 30/30/20
f 31/31/21 32/32/21 28/28/21
f 33/33/22 34/34/22 35/35/22
f 36/36/23 34/34/23 33/33/23
f 37/37/24 38/38/24 34/34/24
f 34/34/25 38/38/25 39/39/25
f 40/40/26 41/41/26 38/38/26
f 38/38/27 41/41/27 42/42/27
f 33/33/28 43/43/28 29/29/28
f 32/32/29 44/44/29 33/33/29
f 45/45/30 28/28/30 30/30/30
f 45/45/31 31/31/31 28/28/31
f 43/43/32 33/33/32 35/35/32
f 44/44/33 36/36/33 33/33/33
f 36/36/34 37/37/34 34/34/34
f 35/35/35 34/34/35 39/39/35
f 37/37/36 40/40/36 38/38/36
f 39/39/37 38/38/37 42/42/37
f 28/28/38 33/33/38 29/29/38
f 28/28/39 32/32/39 33/33/39
f 46/46/40 47/47/40 48/48/40
f 49/49/41 50/50/41 46/46/41
f 51/51/42 52/52/42 53/53/42
f 54/54/43 52/52/43 51/51/43
f 55/55/44 56/56/44 52/52/44
f 52/52/45 56/56/45 57/57/45
f 58/58/46 59/59/46 56/56/46
f 56/56/47 59/59/47 60/60/47
f 51/51/48 61/61/48 47/47/48
f 50/50/49 62/62/49 51/51/49
f 63/63/50 46/46/50 48/48/50
f 63/63/51 49/49/51 46/46/51
f 61/61/52 51/51/52 53/53/52
f 62/62/53 54/54/53 51/51/53
f 54/54/54 55/55/54 52/52/54
f 53/53/55 52/52/55 57/57/55
f 55/55/56 58/58/56 56/56/56
f 57/57/57 56/56/57 60/60/57
f 46/46/58 51/51/58 47/47/58
f 46/46/59 50/50/59 51/51/59
f 64/64/60 65/65/60 66/66/60
f 67/67/61 68/68/61 64/64/61
f 69/69/62 70/70/62 71/71/62
f 72/72/63 70/70/63 69/69/63
f 73/73/64 74/74/64 70/70/64
f 70/70/65 74/74/65 75/75/65
f 76/76/66 77/77/66 74/74/66
f 74/74/67 77/77/67 78/78/67
f 69/69/68 79/79/68 65/65/68
f 68/68/69 80/80/69 69/69/69
f 81/81/70 64/64/70 66/66/70
f 81/81/71 67/67/71 64/64/71
f 79/79/72 69/69/72 71/71/72
f 80/80/73 72/72/73 69/69/73
f 72/72/74 73/73/74 70/70/74
f 71/71/75 70/70/75 75/75/75
f 73/73/76 76/76/76 74/74/76
f 75/75/77 74/74/77 78/78/77
f 64/64/78 69/69/78 65/65/78
f 64/64/79 68/68/79 69/69/79
f 82/82/80 83/83/80 84/84/80
f 85/85/81 82/82/81 86/86/81
f 87/87/82 88/88/82 89/89/82
f 90/90/83 89/89/83 91/91/83
f 87/87/84 90/90/84 92/92/84
f 92/92/85 90/90/85 93/93/85
f 94/94/86 92/92/86 82/82/86
f 92/92/87 95/95/87 83/83/87
f 86/86/88 82/82/88 84/84/88
f 96/96/89 85/85/89 86/86/89
f 90/90/90 87/87/90 89/89/90
f 93/93/91 90/90/91 91/91/91
f 94/94/92 87/87/92 92/92/92
f 95/95/93 92/92/93 93/93/93
f 85/85/94 94/94/94 82/82/94
f 82/82/95 92/92/95 83/83/95
f 97/97/96 98/98/96 99/99/96
f 100/100/97 101/101/97 97/97/97
f 102/102/98 103/103/98 104/104/98
f 105/105/99 103/103/99 102/102/99
f 106/106/100 107/107/100 103/103/100
f 103/103/101 107/107/101 108/108/101
f 109/109/102 110/110/102 107/107/102
f 107/107/103 110/110/103 111/111/103
f 102/102/104 112/112/104 98/98/104
f 101/101/105 113/113/105 102/102/105
f 114/114/106 97/97/106 99/99/106
f 114/114/107 100/100/107 97/97/107
f 112/112/108 102/102/108 104/104/108
f 113/113/109 105/105/109 102/102/109
f 105/105/110 106/106/110 103/103/110
f 104/104/111 103/103/111 108/108/111
f 106/106/112 109/109/112 107/107/112
f 108/108/113 107/107/113 111/111/113
f 97/97/114 102/102/114 98/98/114
f 97/97/115 101/101/115 102/102/115
f 115/115/116 116/116/116 117/117/116
f 118/118/117 115/115/117 119/119/117
f 120/120/118 121/121/118 122/122/118
f 123/123/119 122/122/119 124/124/119
f 120/120/120 123/123/120 125/125/120
f 125/125/121 123/123/121 126/126/121
f 127/127/122 125/125/122 115/115/122
f 125/125/123 128/128/123 116/116/123
f 119/119/124 115/115/124 117/117/124
f 129/129/125 118/118/125 119/119/125
f 123/123/126 120/120/126 122/122/126
f 126/126/127 123/123/127 124/124/127
f 127/127/128 120/120/128 125/125/128
f 128/128/129 125/125/129 126/126/129
f 118/118/130 127/127/130 115/115/130
f 115/115/131 125/125/131 116/116/131
l 22 24
l 26 24
