# Blender v2.79 (sub 0) OBJ File: 'dungeon_002.blend'
# www.blender.org
mtllib dungeon_002_wall_2tus_001.mtl
o Plane.002_Plane.002
v -0.250000 2.750000 1.000000
v -0.250000 3.000000 -3.000000
v -0.250000 2.750000 -3.000000
v -0.125000 0.500000 1.000000
v -0.125000 2.500000 -1.000000
v -0.125000 0.500000 -1.000000
v -0.250000 -0.000000 1.000000
v -0.250000 0.250000 -3.000000
v -0.250000 0.000000 -3.000000
v 0.250000 0.250000 1.000000
v 0.125000 0.500000 1.000000
v 0.250000 2.750000 1.000000
v 0.125000 2.500000 1.000000
v -0.125000 0.500000 -3.000000
v 0.250000 -0.000000 1.000000
v 0.250000 3.000000 1.000000
v 0.125000 0.500000 -3.000000
v 0.125000 2.500000 -3.000000
v 0.250000 0.250000 -3.000000
v 0.250000 0.000000 -3.000000
v 0.250000 3.000000 -3.000000
v 0.250000 2.750000 -3.000000
v 5.000000 0.250000 -3.000000
v 5.000000 -0.000000 1.000000
v 5.000000 0.000000 -3.000000
v 4.645834 0.250000 -3.000000
v 5.000000 0.250000 1.000000
v 4.645833 0.500000 1.000000
v 4.645833 0.250000 1.000000
v 4.291667 0.500000 -3.000000
v 4.645834 0.500000 -3.000000
v 3.937500 0.750000 -3.000000
v 4.291667 0.750000 1.000000
v 4.291667 0.750000 -3.000000
v 3.937500 1.000000 1.000000
v 3.937500 0.750000 1.000000
v 4.291667 0.500000 1.000000
v 3.583334 1.000000 -3.000000
v 3.937500 1.000000 -3.000000
v 3.229167 1.250000 -3.000000
v 3.583333 1.250000 1.000000
v 3.583334 1.250000 -3.000000
v 3.583333 1.000000 1.000000
v 2.875000 1.500000 -3.000000
v 3.229167 1.500000 1.000000
v 3.229167 1.500000 -3.000000
v 3.229167 1.250000 1.000000
v 2.520834 1.750000 -3.000000
v 2.875000 1.750000 1.000000
v 2.875000 1.750000 -3.000000
v 2.875000 1.500000 1.000000
v 2.166667 2.000000 -3.000000
v 2.166666 2.250000 1.000000
v 2.166666 2.000000 1.000000
v 2.520833 2.000000 1.000000
v 2.520834 2.000000 -3.000000
v 2.520833 1.750000 1.000000
v 1.812500 2.250000 -3.000000
v 2.166667 2.250000 -3.000000
v 1.812500 2.500000 1.000000
v 1.812500 2.250000 1.000000
v 1.458333 2.500000 -3.000000
v 1.812500 2.500000 -3.000000
v 1.104167 2.750000 -3.000000
v 1.104167 3.000000 1.000000
v 1.104167 2.750000 1.000000
v 1.458333 2.750000 1.000000
v 1.458333 2.750000 -3.000000
v 1.458333 2.500000 1.000000
v 1.104167 3.000000 -3.000000
v -0.125000 2.500000 -3.000000
v -0.250000 3.000000 1.000000
v -0.125000 2.500000 1.000000
v -0.250000 0.250000 1.000000
vt 0.366211 0.678223
vt 0.024414 0.649902
vt 0.366211 0.649902
vt 0.366211 0.815918
vt 0.024414 0.787598
vt 0.366211 0.787598
vt 0.374512 0.935547
vt 0.000000 0.561523
vt 0.374512 0.561523
vt 0.227783 0.000000
vt 0.455566 0.031738
vt 0.000000 0.031738
vt 0.228039 0.973200
vt 0.000246 0.973200
vt 0.000246 0.941365
vt 0.013672 0.301270
vt 0.052246 0.328613
vt 0.013672 0.328613
vt 0.000000 0.935547
vt 0.000000 0.561523
vt 0.024414 0.609375
vt 0.366211 0.609375
vt 0.024414 0.581055
vt 0.366211 0.581055
vt 0.367188 0.855957
vt 0.025391 0.815430
vt 0.367188 0.815430
vt 0.367188 0.678223
vt 0.025391 0.649414
vt 0.367188 0.649414
vt 0.455566 0.060547
vt 0.057129 0.117188
vt 0.000000 0.060547
vt 0.367188 0.953125
vt 0.025391 0.924805
vt 0.367188 0.924805
vt 0.366211 0.540527
vt 0.367188 0.993652
vt 0.025391 0.953125
vt 0.024414 0.718750
vt 0.366211 0.718750
vt 0.367188 0.884277
vt 0.025391 0.855957
vt 0.025391 0.787109
vt 0.367188 0.787109
vt 0.025391 0.746582
vt 0.367188 0.746582
vt 0.455831 0.941365
vt 0.000246 0.912892
vt 0.455831 0.912891
vt 0.366211 0.747070
vt 0.483887 0.028320
vt 0.282227 0.199219
vt 0.242188 0.170898
vt 0.024414 0.856445
vt 0.366211 0.856445
vt 0.025391 0.609375
vt 0.367188 0.609375
vt 0.024414 0.512207
vt 0.366211 0.512207
vt 0.025391 0.580566
vt 0.367188 0.580566
vt 0.025391 0.718262
vt 0.367188 0.718262
vt 0.246094 0.164062
vt 0.226074 0.224609
vt 0.013672 0.027344
vt 0.025391 0.540527
vt 0.367188 0.511719
vt 0.367188 0.540527
vt 0.056641 0.310059
vt 0.000000 0.054688
vt 0.025391 0.884277
vt 0.025391 0.678223
vt 0.000000 0.000000
vt 0.455566 0.000000
vt 0.455831 0.973200
vt 0.024414 0.678223
vt 0.443848 0.312988
vt 0.483887 0.341797
vt 0.443848 0.341797
vt 0.483887 0.312988
vt 0.024414 0.540527
vt 0.024414 0.747070
vt 0.398438 0.117188
vt 0.025391 0.511719
vt 0.024414 0.815918
vt 0.013672 0.000000
vt 0.323730 0.109375
vt 0.285156 0.136719
vt 0.498535 0.057129
vt 0.483887 0.000000
vt 0.479004 0.000000
vt 0.440430 0.027344
vt 0.479004 0.027344
vt 0.440430 0.054688
vt 0.401367 0.054688
vt 0.401367 0.082031
vt 0.362793 0.082031
vt 0.362793 0.109375
vt 0.323730 0.136719
vt 0.285156 0.164062
vt 0.246094 0.191406
vt 0.209961 0.333008
vt 0.054688 0.310059
vt 0.055176 0.307129
vt 0.053223 0.306641
vt 0.053711 0.304199
vt 0.051758 0.303711
vt 0.052246 0.301270
vt 0.000000 0.273926
vt 0.025391 0.993652
vt 0.000000 0.935547
vt 0.201660 0.142578
vt 0.000000 0.000000
vt 0.040527 0.028320
vt 0.080566 0.057129
vt 0.121094 0.085449
vt 0.498535 0.284668
vt 0.363281 0.256348
vt 0.322754 0.228027
vt 0.000000 0.028320
vt 0.040527 0.057129
vt 0.080566 0.085449
vt 0.161133 0.113770
vt 0.121094 0.113770
vt 0.161133 0.142578
vt 0.201660 0.170898
vt 0.242188 0.199219
vt 0.282227 0.228027
vt 0.322754 0.256348
vt 0.403320 0.284668
vt 0.363281 0.284668
vt 0.403320 0.312988
vn 1.0000 0.0000 0.0000
vn -1.0000 0.0000 0.0000
vn -0.8944 -0.4472 0.0000
vn -0.8944 0.4472 0.0000
vn 0.0000 0.0000 1.0000
vn 0.0000 1.0000 0.0000
vn 0.0000 0.0000 -1.0000
usemtl None_dungeon_wall_2_001_d.png.003
s off
f 63/1/1 61/2/1 58/3/1
f 70/4/1 66/5/1 64/6/1
f 5/7/2 14/8/2 6/9/2
f 5/10/3 1/11/3 3/12/3
f 6/13/4 14/14/4 8/15/4
f 12/16/5 65/17/5 16/18/5
f 73/19/2 6/9/2 4/20/2
f 58/3/6 53/21/6 59/22/6
f 59/22/1 54/23/1 52/24/1
f 40/25/6 41/26/6 42/27/6
f 34/28/1 37/29/1 30/30/1
f 72/31/6 21/32/6 2/33/6
f 50/34/1 51/35/1 44/36/1
f 54/23/6 56/37/6 52/24/6
f 48/38/6 49/39/6 50/34/6
f 69/40/6 63/1/6 62/41/6
f 46/42/1 47/43/1 40/25/1
f 42/27/1 43/44/1 38/45/1
f 38/45/6 35/46/6 39/47/6
f 74/48/2 9/49/2 7/50/2
f 66/5/6 68/51/6 64/6/6
f 19/52/7 48/53/7 44/54/7
f 16/55/6 70/4/6 21/56/6
f 30/30/6 28/57/6 31/58/6
f 56/37/1 57/59/1 48/60/1
f 31/58/1 29/61/1 26/62/1
f 36/63/6 34/28/6 32/64/6
f 68/51/1 69/40/1 62/41/1
f 39/47/1 36/63/1 32/64/1
f 51/65/5 57/66/5 10/67/5
f 27/68/1 25/69/1 23/70/1
f 10/67/5 54/71/5 11/72/5
f 51/35/6 46/42/6 44/36/6
f 72/31/2 2/33/2 3/12/2
f 51/35/6 45/73/6 46/42/6
f 36/63/6 33/74/6 34/28/6
f 3/12/3 71/75/3 5/10/3
f 5/10/3 73/76/3 1/11/3
f 8/15/4 74/48/4 6/13/4
f 74/48/4 4/77/4 6/13/4
f 69/40/6 60/78/6 63/1/6
f 64/79/7 21/80/7 70/81/7
f 64/79/7 22/82/7 21/80/7
f 54/23/6 55/83/6 56/37/6
f 66/5/6 67/84/6 68/51/6
f 72/31/6 16/85/6 21/32/6
f 27/68/1 24/86/1 25/69/1
f 46/42/1 45/73/1 47/43/1
f 39/47/1 35/46/1 36/63/1
f 59/22/1 53/21/1 54/23/1
f 34/28/1 33/74/1 37/29/1
f 16/55/6 65/87/6 70/4/6
f 56/37/1 55/83/1 57/59/1
f 30/30/6 37/29/6 28/57/6
f 40/25/6 47/43/6 41/26/6
f 68/51/1 67/84/1 69/40/1
f 74/48/2 8/15/2 9/49/2
f 58/3/6 61/2/6 53/21/6
f 26/62/6 29/61/6 27/68/6
f 50/34/1 49/39/1 51/35/1
f 15/88/5 43/89/5 47/90/5
f 19/52/7 17/91/7 48/53/7
f 10/67/5 57/66/5 54/71/5
f 38/45/6 43/44/6 35/46/6
f 42/27/1 41/26/1 43/44/1
f 44/54/7 20/92/7 19/52/7
f 15/88/5 24/93/5 29/94/5
f 24/93/5 27/95/5 29/94/5
f 29/94/5 28/96/5 37/97/5
f 37/97/5 33/98/5 36/99/5
f 36/99/5 35/100/5 43/89/5
f 43/89/5 41/101/5 47/90/5
f 47/90/5 45/102/5 51/65/5
f 51/65/5 49/103/5 57/66/5
f 57/66/5 55/104/5 54/71/5
f 54/71/5 53/105/5 61/106/5
f 61/106/5 60/107/5 69/108/5
f 69/108/5 67/109/5 66/110/5
f 26/62/6 27/68/6 23/70/6
f 12/16/5 13/111/5 66/110/5
f 13/111/5 11/72/5 61/106/5
f 69/108/5 13/111/5 61/106/5
f 48/38/6 57/112/6 49/39/6
f 54/71/5 61/106/5 11/72/5
f 15/88/5 47/90/5 10/67/5
f 69/108/5 66/110/5 13/111/5
f 12/16/5 66/110/5 65/17/5
f 15/88/5 29/94/5 37/97/5
f 37/97/5 36/99/5 15/88/5
f 36/99/5 43/89/5 15/88/5
f 5/7/2 71/113/2 14/8/2
f 47/90/5 51/65/5 10/67/5
f 44/54/7 40/114/7 20/92/7
f 25/115/7 20/92/7 26/116/7
f 63/1/1 60/78/1 61/2/1
f 30/117/7 20/92/7 32/118/7
f 73/19/2 5/7/2 6/9/2
f 17/91/7 18/119/7 58/120/7
f 52/121/7 17/91/7 58/120/7
f 72/31/2 3/12/2 1/11/2
f 17/91/7 52/121/7 48/53/7
f 18/119/7 22/82/7 64/79/7
f 26/116/7 23/122/7 25/115/7
f 30/117/7 31/123/7 26/116/7
f 32/118/7 34/124/7 30/117/7
f 38/125/7 39/126/7 32/118/7
f 40/114/7 42/127/7 38/125/7
f 44/54/7 46/128/7 40/114/7
f 48/53/7 50/129/7 44/54/7
f 52/121/7 56/130/7 48/53/7
f 58/120/7 59/131/7 52/121/7
f 62/132/7 63/133/7 58/120/7
f 64/79/7 68/134/7 62/132/7
f 20/92/7 30/117/7 26/116/7
f 20/92/7 38/125/7 32/118/7
f 64/79/7 62/132/7 18/119/7
f 58/120/7 18/119/7 62/132/7
f 38/125/7 20/92/7 40/114/7
f 70/4/1 65/87/1 66/5/1
f 31/58/1 28/57/1 29/61/1
