# Blender v2.79 (sub 0) OBJ File: 'dungeon_003.blend'
# www.blender.org
mtllib dungeon_003_x-juntion_1.mtl
o Plane.004_Plane.012
v 0.500000 0.000000 0.500000
v 0.500000 0.000000 -0.500000
v -0.500000 0.000000 0.500000
v -0.500000 0.000000 -0.500000
v -0.500000 0.250000 0.500000
v 0.500000 0.250000 0.500000
v 0.500000 0.250000 -0.500000
v -0.500000 0.250000 -0.500000
v -0.250000 0.500000 0.250000
v 0.250000 0.500000 0.250000
v 0.250000 0.500000 -0.250000
v -0.250000 0.500000 -0.250000
v -0.250000 2.500000 0.250000
v 0.250000 2.500000 0.250000
v 0.250000 2.500000 -0.250000
v -0.250000 2.500000 -0.250000
v -0.500000 2.750000 0.500000
v 0.500000 2.750000 0.500000
v 0.500000 2.750000 -0.500000
v -0.500000 2.750000 -0.500000
v -0.500000 3.000000 0.500000
v 0.500000 3.000000 0.500000
v 0.500000 3.000000 -0.500000
v -0.500000 3.000000 -0.500000
v 0.500000 0.000000 0.250000
v 0.500000 0.000000 -0.250000
v 1.000000 3.000000 -0.250000
v 0.500000 0.250000 0.250000
v 0.500000 0.250000 -0.250000
v 1.000000 0.000000 -0.250000
v 1.000000 3.000000 0.250000
v 0.250000 0.500000 0.125000
v 0.250000 0.500000 -0.125000
v 1.000000 0.000000 0.250000
v 1.000000 2.500000 0.125000
v 0.250000 2.500000 0.125000
v 0.250000 2.500000 -0.125000
v 1.000000 2.750000 0.250000
v 1.000000 0.500000 -0.125000
v 0.500000 2.750000 0.250000
v 0.500000 2.750000 -0.250000
v 1.000000 2.500000 -0.125000
v 1.000000 2.750000 -0.250000
v 0.500000 3.000000 0.250000
v 0.500000 3.000000 -0.250000
v 1.000000 0.250000 -0.250000
v 1.000000 0.250000 0.250000
v 1.000000 0.500000 0.125000
v -0.500000 0.000000 -0.250000
v -0.500000 0.000000 0.250000
v -1.000000 3.000000 0.250000
v -0.500000 0.250000 -0.250000
v -0.500000 0.250000 0.250000
v -1.000000 0.000000 0.250000
v -1.000000 3.000000 -0.250000
v -0.250000 0.500000 -0.125000
v -0.250000 0.500000 0.125000
v -1.000000 0.000000 -0.250000
v -1.000000 2.500000 -0.125000
v -0.250000 2.500000 -0.125000
v -0.250000 2.500000 0.125000
v -1.000000 2.750000 -0.250000
v -1.000000 0.500000 0.125000
v -0.500000 2.750000 -0.250000
v -0.500000 2.750000 0.250000
v -1.000000 2.500000 0.125000
v -1.000000 2.750000 0.250000
v -0.500000 3.000000 -0.250000
v -0.500000 3.000000 0.250000
v -1.000000 0.250000 0.250000
v -1.000000 0.250000 -0.250000
v -1.000000 0.500000 -0.125000
v 0.250000 0.000000 -0.500000
v -0.250000 0.000000 -0.500000
v -0.250000 3.000000 -1.000000
v 0.250000 0.250000 -0.500000
v -0.250000 0.250000 -0.500000
v -0.250000 0.000000 -1.000000
v 0.250000 3.000000 -1.000000
v 0.125000 0.500000 -0.250000
v -0.125000 0.500000 -0.250000
v 0.250000 0.000000 -1.000000
v 0.125000 2.500000 -1.000000
v 0.125000 2.500000 -0.250000
v -0.125000 2.500000 -0.250000
v 0.250000 2.750000 -1.000000
v -0.125000 0.500000 -1.000000
v 0.250000 2.750000 -0.500000
v -0.250000 2.750000 -0.500000
v -0.125000 2.500000 -1.000000
v -0.250000 2.750000 -1.000000
v 0.250000 3.000000 -0.500000
v -0.250000 3.000000 -0.500000
v -0.250000 0.250000 -1.000000
v 0.250000 0.250000 -1.000000
v 0.125000 0.500000 -1.000000
v -0.250000 0.000000 0.500000
v 0.250000 0.000000 0.500000
v 0.250000 3.000000 1.000000
v -0.250000 0.250000 0.500000
v 0.250000 0.250000 0.500000
v 0.250000 0.000000 1.000000
v -0.250000 3.000000 1.000000
v -0.125000 0.500000 0.250000
v 0.125000 0.500000 0.250000
v -0.250000 0.000000 1.000000
v -0.125000 2.500000 1.000000
v -0.125000 2.500000 0.250000
v 0.125000 2.500000 0.250000
v -0.250000 2.750000 1.000000
v 0.125000 0.500000 1.000000
v -0.250000 2.750000 0.500000
v 0.250000 2.750000 0.500000
v 0.125000 2.500000 1.000000
v 0.250000 2.750000 1.000000
v -0.250000 3.000000 0.500000
v 0.250000 3.000000 0.500000
v 0.250000 0.250000 1.000000
v -0.250000 0.250000 1.000000
v -0.125000 0.500000 1.000000
vt 0.000000 0.000000
vt 0.038574 0.038574
vt 0.000000 0.038574
vt 0.174805 0.038574
vt 0.136230 0.000000
vt 0.174805 0.000000
vt 0.136719 0.455078
vt 0.175293 0.493652
vt 0.136719 0.493652
vt 0.116211 0.038574
vt 0.077637 0.000000
vt 0.116211 0.000000
vt 0.175781 0.455078
vt 0.214355 0.493652
vt 0.175781 0.493652
vt 0.234375 0.493652
vt 0.272949 0.455078
vt 0.272949 0.493652
vt 0.272949 0.400879
vt 0.291992 0.400879
vt 0.214355 0.455078
vt 0.214355 0.400879
vt 0.233398 0.400879
vt 0.059082 0.493652
vt 0.097168 0.455078
vt 0.097168 0.493652
vt 0.097168 0.400879
vt 0.116699 0.400879
vt 0.233398 0.093262
vt 0.116699 0.093262
vt 0.136719 0.400879
vt 0.175293 0.455078
vt 0.097168 0.038574
vt 0.097168 0.093262
vt 0.059082 0.038574
vt 0.117676 0.093262
vt 0.117676 0.400879
vt 0.291992 0.093262
vt 0.214355 0.093262
vt 0.214355 0.038574
vt 0.234375 0.000000
vt 0.272949 0.038574
vt 0.234375 0.038574
vt 0.136719 0.093262
vt 0.136719 0.038574
vt 0.175293 0.038574
vt 0.272949 0.093262
vt 0.175781 0.000000
vt 0.175781 0.038574
vt 0.312988 0.562500
vt 0.453613 0.937988
vt 0.312988 0.937988
vt 0.232422 0.042969
vt 0.309570 0.081543
vt 0.232422 0.081543
vt 0.312988 0.563477
vt 0.453613 0.938477
vt 0.312988 0.938477
vt 0.116211 0.000000
vt 0.193359 0.038086
vt 0.116211 0.038086
vt 0.197754 0.082031
vt 0.154785 0.159180
vt 0.154785 0.082031
vt 0.232422 0.239746
vt 0.309570 0.196777
vt 0.348145 0.239746
vt 0.232422 0.000000
vt 0.309570 0.042969
vt 0.309570 0.158203
vt 0.116211 0.081055
vt 0.116211 0.159180
vt 0.232422 0.158203
vt 0.058105 0.493652
vt 0.019531 0.455078
vt 0.058105 0.455078
vt 0.019531 0.400879
vt 0.000000 0.400879
vt 0.019531 0.093262
vt 0.019531 0.038574
vt 0.058105 0.038574
vt 0.019531 0.000000
vt 0.058105 0.000000
vt 0.168457 0.562988
vt 0.309570 0.938477
vt 0.168457 0.938477
vt 0.231445 0.196777
vt 0.154785 0.158203
vt 0.231445 0.158203
vt 0.170410 0.562500
vt 0.311523 0.937988
vt 0.170410 0.937988
vt 0.464355 0.267090
vt 0.387207 0.228516
vt 0.464355 0.228516
vt 0.231445 0.404785
vt 0.154785 0.361816
vt 0.231445 0.361816
vt 0.231445 0.000000
vt 0.154785 0.042969
vt 0.116211 0.000000
vt 0.231445 0.239746
vt 0.154785 0.196777
vt 0.231445 0.081543
vt 0.154785 0.081543
vt 0.464355 0.185547
vt 0.154785 0.323242
vt 0.077637 0.093262
vt 0.077637 0.038574
vt 0.058594 0.400879
vt 0.077637 0.400879
vt 0.077637 0.455078
vt 0.116211 0.493652
vt 0.116211 0.455078
vt 0.059082 0.000000
vt 0.172852 0.562500
vt 0.313477 0.937988
vt 0.172852 0.937988
vt 0.348145 0.196777
vt 0.270996 0.158203
vt 0.348145 0.158203
vt 0.028809 0.564941
vt 0.169434 0.940430
vt 0.028809 0.940430
vt 0.430176 0.124512
vt 0.392090 0.201172
vt 0.392090 0.124512
vt 0.115234 0.390137
vt 0.038086 0.347168
vt 0.115234 0.347168
vt 0.348145 0.000000
vt 0.270996 0.042969
vt 0.232422 0.000000
vt 0.348145 0.239746
vt 0.270996 0.196777
vt 0.270996 0.081055
vt 0.348633 0.124512
vt 0.038086 0.308594
vt 0.348145 0.081055
vt 0.136230 0.093262
vt 0.136230 0.038574
vt 0.117188 0.400879
vt 0.136230 0.400879
vt 0.136230 0.455078
vt 0.174805 0.493652
vt 0.174805 0.455078
vt 0.136719 0.000000
vt 0.175293 0.000000
vt 0.029297 0.563477
vt 0.170410 0.938477
vt 0.029297 0.938477
vt 0.000000 0.042969
vt 0.077148 0.081055
vt 0.000000 0.081055
vt 0.171387 0.563477
vt 0.312012 0.938477
vt 0.171387 0.938477
vt 0.116211 0.240723
vt 0.192871 0.279297
vt 0.116211 0.279297
vt 0.116211 0.198242
vt 0.193359 0.241699
vt 0.116211 0.241699
vt 0.000000 0.239746
vt 0.077148 0.196777
vt 0.115234 0.239746
vt 0.000000 0.000000
vt 0.077148 0.042969
vt 0.000000 0.158203
vt 0.077148 0.158203
vt 0.116211 0.322266
vt 0.193359 0.279785
vt 0.038574 0.093262
vt 0.057617 0.093262
vt 0.038574 0.400879
vt 0.038574 0.455078
vt 0.000000 0.455078
vt 0.038574 0.493652
vt 0.000000 0.493652
vt 0.331055 0.290527
vt 0.292969 0.329102
vt 0.177246 0.290527
vt 0.038574 0.000000
vt 0.234375 0.455078
vt 0.059082 0.455078
vt 0.272949 0.000000
vt 0.214355 0.000000
vt 0.453613 0.562500
vt 0.453613 0.563477
vt 0.193359 0.000000
vt 0.197754 0.197754
vt 0.232422 0.196777
vt 0.348145 0.000000
vt 0.231445 0.081055
vt 0.116211 0.082031
vt 0.019531 0.493652
vt 0.000000 0.093262
vt 0.309570 0.562988
vt 0.311523 0.562500
vt 0.387207 0.267090
vt 0.116211 0.404785
vt 0.231445 0.042969
vt 0.116211 0.239746
vt 0.348633 0.185547
vt 0.231445 0.323242
vt 0.058594 0.093262
vt 0.077637 0.493652
vt 0.097168 0.000000
vt 0.313477 0.562500
vt 0.169434 0.564941
vt 0.430176 0.201172
vt 0.000000 0.390137
vt 0.348145 0.042969
vt 0.232422 0.239746
vt 0.348633 0.239746
vt 0.115234 0.308594
vt 0.117188 0.093262
vt 0.136230 0.493652
vt 0.170410 0.563477
vt 0.312012 0.563477
vt 0.192871 0.240723
vt 0.231445 0.198242
vt 0.000000 0.196777
vt 0.115234 0.000000
vt 0.231445 0.322266
vt 0.116211 0.279785
vt 0.057617 0.400879
vt 0.177246 0.213867
vt 0.177246 0.175293
vt 0.215820 0.175293
vt 0.292969 0.175293
vt 0.331055 0.175293
vt 0.331055 0.213867
vt 0.215820 0.329102
vt 0.177246 0.329102
vt 0.331055 0.329102
vn 0.0000 0.0000 1.0000
vn 0.0000 0.0000 -1.0000
vn -1.0000 0.0000 0.0000
vn 1.0000 0.0000 0.0000
vn -0.7071 -0.7071 0.0000
vn 0.7071 -0.7071 0.0000
vn 0.0000 -0.7071 -0.7071
vn 0.0000 -0.7071 0.7071
vn 0.0000 0.7071 -0.7071
vn 0.7071 0.7071 0.0000
vn 0.0000 0.7071 0.7071
vn -0.7071 0.7071 0.0000
vn 0.0000 0.4472 0.8944
vn -0.0000 -0.4472 0.8944
vn 0.0000 -0.4472 -0.8944
vn 0.0000 1.0000 0.0000
vn 0.0000 0.4472 -0.8944
vn 0.8944 0.4472 -0.0000
vn 0.8944 -0.4472 0.0000
vn -0.8944 -0.4472 0.0000
vn -0.8944 0.4472 0.0000
usemtl None
s off
f 3/1/1 100/2/1 5/3/1
f 8/4/2 74/5/2 4/6/2
f 113/7/1 22/8/1 117/9/1
f 5/10/3 50/11/3 3/12/3
f 18/13/4 44/14/4 22/15/4
f 24/16/3 64/17/3 68/18/3
f 64/17/5 16/19/5 60/20/5
f 40/21/6 14/22/6 36/23/6
f 23/24/2 88/25/2 92/26/2
f 88/25/7 15/27/7 84/28/7
f 14/22/4 32/29/4 36/23/4
f 15/27/2 80/30/2 84/28/2
f 113/7/8 14/31/8 18/32/8
f 76/33/9 11/34/9 7/35/9
f 105/36/1 14/31/1 109/37/1
f 16/19/3 56/38/3 60/20/3
f 10/39/10 28/40/10 32/29/10
f 4/41/3 52/42/3 8/43/3
f 10/44/11 101/45/11 6/46/11
f 52/42/12 12/47/12 8/43/12
f 1/48/4 28/40/4 6/49/4
f 32/50/1 35/51/1 36/52/1
f 43/53/2 45/54/2 27/55/2
f 39/56/2 37/57/2 42/58/2
f 30/59/2 29/60/2 46/61/2
f 48/62/13 28/63/13 47/64/13
f 35/65/14 40/66/14 36/67/14
f 42/68/15 41/69/15 43/53/15
f 44/70/16 27/55/16 45/54/16
f 29/60/17 39/71/17 46/61/17
f 25/72/1 47/64/1 28/63/1
f 40/66/1 31/73/1 44/70/1
f 23/74/4 41/75/4 19/76/4
f 15/77/6 41/75/6 37/78/6
f 37/78/4 11/79/4 15/77/4
f 11/79/10 29/80/10 7/81/10
f 7/81/4 26/82/4 2/83/4
f 56/84/2 59/85/2 60/86/2
f 67/87/1 69/88/1 51/89/1
f 63/90/1 61/91/1 66/92/1
f 54/93/1 53/94/1 70/95/1
f 72/96/17 52/97/17 71/98/17
f 59/99/15 64/100/15 60/101/15
f 66/102/14 65/103/14 67/87/14
f 55/104/16 69/88/16 68/105/16
f 53/94/13 63/106/13 70/95/13
f 49/107/2 71/98/2 52/97/2
f 64/100/2 55/104/2 68/105/2
f 9/108/12 53/109/12 5/10/12
f 61/110/3 9/108/3 13/111/3
f 13/111/5 65/112/5 61/110/5
f 21/113/3 65/112/3 17/114/3
f 2/115/2 76/33/2 7/35/2
f 80/116/4 83/117/4 84/118/4
f 91/119/3 93/120/3 75/121/3
f 87/122/3 85/123/3 90/124/3
f 78/125/3 77/126/3 94/127/3
f 96/128/18 76/129/18 95/130/18
f 83/131/19 88/132/19 84/133/19
f 90/134/20 89/135/20 91/119/20
f 92/136/16 75/121/16 93/120/16
f 77/126/21 87/137/21 94/127/21
f 73/138/4 95/130/4 76/129/4
f 88/132/4 79/139/4 92/136/4
f 12/140/9 77/141/9 8/4/9
f 85/142/2 12/140/2 16/143/2
f 16/143/7 89/144/7 85/142/7
f 24/145/2 89/144/2 20/146/2
f 6/46/1 98/147/1 1/148/1
f 104/149/3 107/150/3 108/151/3
f 115/152/4 117/153/4 99/154/4
f 111/155/4 109/156/4 114/157/4
f 102/158/4 101/159/4 118/160/4
f 120/161/21 100/162/21 119/163/21
f 107/164/20 112/165/20 108/166/20
f 114/167/19 113/168/19 115/152/19
f 103/169/16 117/153/16 116/170/16
f 101/159/18 111/171/18 118/160/18
f 97/172/3 119/163/3 100/162/3
f 112/165/3 103/169/3 116/170/3
f 100/2/11 9/173/11 5/3/11
f 104/174/1 13/175/1 9/173/1
f 13/175/8 112/176/8 17/177/8
f 17/177/1 116/178/1 21/179/1
f 93/180/16 68/181/16 116/182/16
f 3/1/1 97/183/1 100/2/1
f 8/4/2 77/141/2 74/5/2
f 113/7/1 18/32/1 22/8/1
f 5/10/3 53/109/3 50/11/3
f 18/13/4 40/21/4 44/14/4
f 24/16/3 20/184/3 64/17/3
f 64/17/5 20/184/5 16/19/5
f 40/21/6 18/13/6 14/22/6
f 23/24/2 19/185/2 88/25/2
f 88/25/7 19/185/7 15/27/7
f 14/22/4 10/39/4 32/29/4
f 15/27/2 11/34/2 80/30/2
f 113/7/8 109/37/8 14/31/8
f 76/33/9 80/30/9 11/34/9
f 105/36/1 10/44/1 14/31/1
f 16/19/3 12/47/3 56/38/3
f 10/39/10 6/49/10 28/40/10
f 4/41/3 49/186/3 52/42/3
f 10/44/11 105/36/11 101/45/11
f 52/42/12 56/38/12 12/47/12
f 1/48/4 25/187/4 28/40/4
f 32/50/1 48/188/1 35/51/1
f 43/53/2 41/69/2 45/54/2
f 39/56/2 33/189/2 37/57/2
f 30/59/2 26/190/2 29/60/2
f 48/62/13 32/191/13 28/63/13
f 35/65/14 38/192/14 40/66/14
f 42/68/15 37/193/15 41/69/15
f 44/70/16 31/73/16 27/55/16
f 29/60/17 33/194/17 39/71/17
f 25/72/1 34/195/1 47/64/1
f 40/66/1 38/192/1 31/73/1
f 23/74/4 45/196/4 41/75/4
f 15/77/6 19/76/6 41/75/6
f 37/78/4 33/197/4 11/79/4
f 11/79/10 33/197/10 29/80/10
f 7/81/4 29/80/4 26/82/4
f 56/84/2 72/198/2 59/85/2
f 67/87/1 65/103/1 69/88/1
f 63/90/1 57/199/1 61/91/1
f 54/93/1 50/200/1 53/94/1
f 72/96/17 56/201/17 52/97/17
f 59/99/15 62/202/15 64/100/15
f 66/102/14 61/203/14 65/103/14
f 55/104/16 51/89/16 69/88/16
f 53/94/13 57/204/13 63/106/13
f 49/107/2 58/205/2 71/98/2
f 64/100/2 62/202/2 55/104/2
f 9/108/12 57/206/12 53/109/12
f 61/110/3 57/206/3 9/108/3
f 13/111/5 17/114/5 65/112/5
f 21/113/3 69/207/3 65/112/3
f 2/115/2 73/208/2 76/33/2
f 80/116/4 96/209/4 83/117/4
f 91/119/3 89/135/3 93/120/3
f 87/122/3 81/210/3 85/123/3
f 78/125/3 74/211/3 77/126/3
f 96/128/18 80/212/18 76/129/18
f 83/131/19 86/213/19 88/132/19
f 90/134/20 85/214/20 89/135/20
f 92/136/16 79/139/16 75/121/16
f 77/126/21 81/215/21 87/137/21
f 73/138/4 82/216/4 95/130/4
f 88/132/4 86/213/4 79/139/4
f 12/140/9 81/217/9 77/141/9
f 85/142/2 81/217/2 12/140/2
f 16/143/7 20/146/7 89/144/7
f 24/145/2 93/218/2 89/144/2
f 6/46/1 101/45/1 98/147/1
f 104/149/3 120/219/3 107/150/3
f 115/152/4 113/168/4 117/153/4
f 111/155/4 105/220/4 109/156/4
f 102/158/4 98/221/4 101/159/4
f 120/161/21 104/222/21 100/162/21
f 107/164/20 110/223/20 112/165/20
f 114/167/19 109/224/19 113/168/19
f 103/169/16 99/154/16 117/153/16
f 101/159/18 105/225/18 111/171/18
f 97/172/3 106/226/3 119/163/3
f 112/165/3 110/223/3 103/169/3
f 100/2/11 104/174/11 9/173/11
f 104/174/1 108/227/1 13/175/1
f 13/175/8 108/227/8 112/176/8
f 17/177/1 112/176/1 116/178/1
f 117/228/16 22/229/16 44/230/16
f 45/231/16 23/232/16 92/233/16
f 117/228/16 44/230/16 45/231/16
f 69/234/16 21/235/16 116/182/16
f 116/182/16 117/228/16 45/231/16
f 45/231/16 92/233/16 93/180/16
f 93/180/16 24/236/16 68/181/16
f 68/181/16 69/234/16 116/182/16
f 116/182/16 45/231/16 93/180/16
