# Blender v2.79 (sub 0) OBJ File: 'dungeon_002.blend'
# www.blender.org
mtllib dungeon_002_wall_1tl_001.mtl
o Torus.001
v -0.107480 1.525829 0.962480
v -0.152000 1.525829 0.855000
v -0.107480 1.525829 0.747520
v 0.000000 1.525829 0.703000
v 0.107480 1.525829 0.747520
v 0.152000 1.525829 0.855000
v 0.107480 1.525829 0.962480
v -0.107480 1.823252 0.915373
v -0.152000 1.790038 0.813153
v -0.107480 1.756825 0.710934
v 0.000000 1.743068 0.668593
v 0.107480 1.756825 0.710934
v 0.152000 1.790038 0.813153
v 0.107480 1.823252 0.915373
v -0.107480 2.091561 0.778663
v -0.152000 2.028385 0.691710
v -0.107480 1.965210 0.604756
v 0.000000 1.939042 0.568739
v 0.107480 1.965210 0.604756
v 0.152000 2.028385 0.691710
v 0.107480 2.091561 0.778663
v -0.107480 2.304492 0.565732
v -0.152000 2.217539 0.502556
v -0.107480 2.130585 0.439381
v 0.000000 2.094568 0.413213
v 0.107480 2.130585 0.439381
v 0.152000 2.217539 0.502556
v 0.107480 2.304492 0.565732
v -0.107480 2.441202 0.297423
v -0.152000 2.338982 0.264210
v -0.107480 2.236763 0.230996
v -0.000000 2.194422 0.217239
v 0.107480 2.236763 0.230996
v 0.152000 2.338982 0.264210
v 0.107480 2.441202 0.297423
v -0.107480 2.488309 -1.000297
v -0.152000 2.380829 -1.000297
v -0.107480 2.273349 -1.000297
v -0.000000 2.228829 -1.000297
v 0.107480 2.273349 -1.000297
v 0.152000 2.380829 -1.000297
v 0.107480 2.488309 -1.000297
v -0.107480 -0.000001 0.962480
v -0.152000 -0.000001 0.855000
v -0.107480 -0.000001 0.747520
v 0.000000 -0.000001 0.703000
v 0.107480 -0.000001 0.747520
v 0.152000 -0.000001 0.855000
v 0.107480 -0.000001 0.962480
v -0.250000 0.000000 0.850000
v 0.250000 0.000000 0.850000
v 0.250000 3.000000 1.000000
v -0.250000 0.250000 0.850000
v 0.250000 0.250000 0.850000
v 0.250000 0.000000 1.000000
v -0.250000 3.000000 1.000000
v -0.125000 0.500000 0.850000
v 0.125000 0.500000 0.850000
v -0.250000 0.000000 1.000000
v -0.125000 2.500000 1.000000
v -0.125000 2.500000 -1.000216
v 0.125000 2.500000 -0.997496
v -0.250000 2.750000 1.000000
v 0.125000 0.500000 1.000000
v -0.250000 2.750000 -1.000216
v 0.250000 2.750000 -1.000216
v 0.125000 2.500000 1.000000
v 0.250000 2.750000 1.000000
v -0.250000 3.000000 -1.000216
v 0.250000 3.000000 -1.000216
v 0.250000 0.250000 1.000000
v -0.250000 0.250000 1.000000
v -0.125000 0.500000 1.000000
v 0.125000 1.812321 1.000000
v 0.125000 1.812321 0.832470
v -0.125000 1.815186 1.000000
v -0.125000 1.815186 0.821006
v -0.125000 2.073738 1.000000
v -0.125000 2.073738 0.656646
v -0.125000 2.286869 1.000000
v -0.125000 2.286869 0.405415
v 0.125000 2.074847 1.000000
v 0.125000 2.074847 0.656646
v 0.125000 2.287424 1.000000
v 0.125000 2.287424 0.405415
v -0.125000 2.393955 -0.938787
v 0.125000 2.394956 -0.999123
vt 0.429688 0.105469
vt 0.429688 0.125000
vt 0.382812 0.125000
vt 0.292969 0.000000
vt 0.250000 0.023438
vt 0.246094 0.007812
vt 0.292969 0.019531
vt 0.253906 0.042969
vt 0.296875 0.042969
vt 0.253906 0.062500
vt 0.296875 0.062500
vt 0.253906 0.085938
vt 0.296875 0.085938
vt 0.250000 0.101562
vt 0.292969 0.105469
vt 0.250000 0.121094
vt 0.429688 0.085938
vt 0.382812 0.105469
vt 0.429688 0.062500
vt 0.382812 0.085938
vt 0.339844 0.000000
vt 0.339844 0.019531
vt 0.339844 0.062500
vt 0.339844 0.085938
vt 0.339844 0.105469
vt 0.292969 0.125000
vt 0.386719 0.039062
vt 0.429688 0.039062
vt 0.429688 0.019531
vt 0.386719 0.000000
vt 0.386719 0.019531
vt 0.339844 0.039062
vt 0.386719 0.062500
vt 0.339844 0.125000
vt 0.429688 0.000000
vt 0.476562 0.000000
vt 0.476562 0.019531
vt 0.476562 0.039062
vt 0.476562 0.062500
vt 0.476562 0.085938
vt 0.476562 0.105469
vt 0.000000 0.050781
vt 0.000000 0.031250
vt 0.000000 0.011719
vt 0.003906 0.066406
vt 0.003906 0.085938
vt 0.003906 0.105469
vt 0.437500 0.937500
vt 0.062500 0.750000
vt 0.437500 0.750000
vt 0.000000 0.063477
vt 0.457031 0.122070
vt 0.000000 0.122070
vt 0.061035 0.750000
vt 0.438965 0.561035
vt 0.438965 0.750000
vt 0.000000 0.000000
vt 0.457031 0.058594
vt 0.000000 0.058594
vt 0.000000 0.000000
vt 0.457031 0.066406
vt 0.000000 0.066406
vt 0.000000 0.292969
vt 0.457031 0.356445
vt 0.000000 0.356445
vt 0.000000 0.000000
vt 0.457031 0.063477
vt 0.000000 0.236816
vt 0.457031 0.236816
vt 0.000000 0.125000
vt 0.457031 0.125000
vt 0.457031 0.292969
vt 0.457031 0.000000
vt 0.457031 0.125000
vt 0.457031 0.000000
vt 0.061035 0.844482
vt 0.438965 0.844482
vt 0.062500 0.656250
vt 0.437500 0.656250
vt 0.062500 0.609375
vt 0.437500 0.609375
vt 0.062500 0.562500
vt 0.061035 0.891724
vt 0.438965 0.891724
vt 0.438965 0.915344
vt 0.438965 0.938965
vt 0.476562 0.125000
vt 0.003906 0.125000
vt 0.062500 0.937500
vt 0.061035 0.561035
vt 0.457031 0.000000
vt 0.000000 0.125000
vt 0.437500 0.562500
vt 0.437500 0.585938
vt 0.061035 0.938965
vn 0.9222 0.3446 0.1756
vn -0.9222 0.0605 0.3820
vn -0.9222 -0.0605 -0.3820
vn -0.3787 -0.1448 -0.9141
vn 0.3786 -0.1448 -0.9141
vn 0.9222 -0.0605 -0.3820
vn 0.9222 0.0605 0.3820
vn 0.9222 -0.3446 -0.1756
vn 0.3787 -0.8247 -0.4202
vn -0.9222 0.1756 0.3446
vn -0.9222 -0.1756 -0.3446
vn -0.3787 -0.4202 -0.8247
vn 0.3787 -0.4202 -0.8247
vn 0.9222 -0.1756 -0.3446
vn 0.9222 0.1756 0.3446
vn -0.3787 -0.8247 -0.4202
vn -0.9222 -0.3446 -0.1756
vn -0.9222 0.2735 0.2735
vn -0.9222 -0.2735 -0.2735
vn -0.3787 -0.6545 -0.6545
vn 0.3787 -0.6545 -0.6545
vn 0.9222 -0.2735 -0.2735
vn 0.9222 0.2735 0.2735
vn -0.9222 0.3446 0.1756
vn -0.9184 0.3953 0.0144
vn -0.9183 -0.3957 -0.0131
vn -0.3694 -0.9288 -0.0276
vn 0.3693 -0.9289 -0.0263
vn 0.9181 -0.3961 -0.0118
vn 0.9183 0.3957 0.0131
vn 0.3787 -0.1448 -0.9141
vn -0.3827 0.0000 -0.9239
vn -0.9239 0.0000 0.3827
vn -0.9239 -0.0000 -0.3827
vn 0.3827 0.0000 -0.9239
vn 0.9239 0.0000 -0.3827
vn 0.9239 0.0000 0.3827
vn -1.0000 0.0000 0.0000
vn 1.0000 0.0000 -0.0000
vn -0.8944 0.4472 0.0000
vn -0.8944 -0.4472 0.0000
vn 0.8944 -0.4472 -0.0000
vn 0.0000 1.0000 0.0000
vn 0.8944 0.4472 -0.0000
vn 0.0000 0.0000 -1.0000
vn -0.9238 0.3827 0.0127
vn -0.9238 -0.3827 -0.0114
vn -0.3826 -0.9236 -0.0261
vn 0.3825 -0.9235 -0.0274
vn 0.9238 -0.3827 -0.0127
vn 0.9238 0.3826 0.0139
usemtl None
s off
f 34/1/1 35/2/1 28/3/1
f 8/4/2 2/5/2 1/6/2
f 9/7/3 3/8/3 2/5/3
f 10/9/4 4/10/4 3/8/4
f 11/11/5 5/12/5 4/10/5
f 12/13/6 6/14/6 5/12/6
f 13/15/7 7/16/7 6/14/7
f 33/17/8 34/1/8 27/18/8
f 32/19/9 33/17/9 26/20/9
f 15/21/10 9/7/10 8/4/10
f 16/22/11 10/9/11 9/7/11
f 10/9/12 18/23/12 11/11/12
f 18/23/13 12/13/13 11/11/13
f 19/24/14 13/15/14 12/13/14
f 20/25/15 14/26/15 13/15/15
f 24/27/16 31/28/16 32/19/16
f 30/29/17 31/28/17 24/27/17
f 22/30/18 16/22/18 15/21/18
f 23/31/19 17/32/19 16/22/19
f 17/32/20 25/33/20 18/23/20
f 25/33/21 19/24/21 18/23/21
f 26/20/22 20/25/22 19/24/22
f 20/25/23 28/3/23 21/34/23
f 22/30/24 29/35/24 30/29/24
f 20/25/23 27/18/23 28/3/23
f 22/30/24 30/29/24 23/31/24
f 30/29/17 24/27/17 23/31/17
f 24/27/16 32/19/16 25/33/16
f 32/19/9 26/20/9 25/33/9
f 33/17/8 27/18/8 26/20/8
f 34/1/1 28/3/1 27/18/1
f 26/20/22 27/18/22 20/25/22
f 25/33/21 26/20/21 19/24/21
f 36/36/25 30/29/25 29/35/25
f 37/37/26 31/28/26 30/29/26
f 38/38/27 32/19/27 31/28/27
f 39/39/28 33/17/28 32/19/28
f 40/40/29 34/1/29 33/17/29
f 41/41/30 35/2/30 34/1/30
f 17/32/20 24/27/20 25/33/20
f 23/31/19 24/27/19 17/32/19
f 22/30/18 23/31/18 16/22/18
f 20/25/15 21/34/15 14/26/15
f 19/24/14 20/25/14 13/15/14
f 18/23/13 19/24/13 12/13/13
f 10/9/12 17/32/12 18/23/12
f 16/22/11 17/32/11 10/9/11
f 15/21/10 16/22/10 9/7/10
f 13/15/7 14/26/7 7/16/7
f 12/13/6 13/15/6 6/14/6
f 11/11/31 12/13/31 5/12/31
f 4/10/32 45/42/32 3/8/32
f 10/9/4 11/11/4 4/10/4
f 9/7/3 10/9/3 3/8/3
f 1/6/33 44/43/33 43/44/33
f 8/4/2 9/7/2 2/5/2
f 3/8/34 44/43/34 2/5/34
f 5/12/35 46/45/35 4/10/35
f 6/14/36 47/46/36 5/12/36
f 7/16/37 48/47/37 6/14/37
f 57/48/38 76/49/38 77/50/38
f 68/51/39 70/52/39 52/53/39
f 74/54/39 58/55/39 75/56/39
f 55/57/39 54/58/39 71/59/39
f 73/60/40 53/61/40 72/62/40
f 63/63/41 61/64/41 60/65/41
f 67/66/42 66/67/42 68/51/42
f 56/68/43 70/52/43 69/69/43
f 54/58/44 64/70/44 71/59/44
f 50/71/38 72/62/38 53/61/38
f 65/72/38 56/68/38 69/69/38
f 51/73/45 53/61/45 54/58/45
f 58/74/45 53/61/45 57/75/45
f 82/76/39 75/56/39 83/77/39
f 77/50/38 78/78/38 79/79/38
f 79/79/38 80/80/38 81/81/38
f 81/81/38 80/80/38 60/82/38
f 84/83/39 83/77/39 85/84/39
f 85/84/39 87/85/39 62/86/39
f 36/36/46 37/37/46 30/29/46
f 37/37/47 38/38/47 31/28/47
f 38/38/48 39/39/48 32/19/48
f 39/39/49 40/40/49 33/17/49
f 40/40/50 41/41/50 34/1/50
f 41/41/51 42/87/51 35/2/51
f 4/10/32 46/45/32 45/42/32
f 1/6/33 2/5/33 44/43/33
f 3/8/34 45/42/34 44/43/34
f 5/12/35 47/46/35 46/45/35
f 6/14/36 48/47/36 47/46/36
f 7/16/37 49/88/37 48/47/37
f 57/48/38 73/89/38 76/49/38
f 68/51/39 66/67/39 70/52/39
f 74/54/39 64/90/39 58/55/39
f 55/57/39 51/73/39 54/58/39
f 73/60/40 57/75/40 53/61/40
f 63/63/41 65/72/41 61/64/41
f 67/66/42 62/91/42 66/67/42
f 56/68/43 52/53/43 70/52/43
f 54/58/44 58/74/44 64/70/44
f 50/71/38 59/92/38 72/62/38
f 65/72/38 63/63/38 56/68/38
f 51/73/45 50/71/45 53/61/45
f 58/74/45 54/58/45 53/61/45
f 82/76/39 74/54/39 75/56/39
f 77/50/38 76/49/38 78/78/38
f 79/79/38 78/78/38 80/80/38
f 60/82/38 61/93/38 81/81/38
f 61/93/38 86/94/38 81/81/38
f 84/83/39 82/76/39 83/77/39
f 62/86/39 67/95/39 85/84/39
f 67/95/39 84/83/39 85/84/39
