# Blender v2.79 (sub 0) OBJ File: 'dungeon_002.blend'
# www.blender.org
mtllib dungeon_002_wall_1tc_001.mtl
o Plane.007_Plane.014
v 0.500000 0.000000 -0.500000
v -0.500000 0.000000 -0.500000
v 0.500000 0.000000 0.500000
v -0.500000 0.000000 0.500000
v 0.500000 0.250000 0.500000
v 0.500000 0.250000 -0.500000
v -0.500000 0.250000 -0.500000
v -0.500000 0.250000 0.500000
v 0.250000 0.500000 0.250000
v 0.250000 0.500000 -0.250000
v -0.250000 0.500000 -0.250000
v -0.250000 0.500000 0.250000
v 0.250000 2.500000 0.250000
v 0.250000 2.500000 -0.250000
v -0.250000 2.500000 -0.250000
v -0.250000 2.500000 0.250000
v 0.500000 2.750000 0.500000
v 0.500000 2.750000 -0.500000
v -0.500000 2.750000 -0.500000
v -0.500000 2.750000 0.500000
v 0.500000 3.000000 0.500000
v 0.500000 3.000000 -0.500000
v -0.500000 3.000000 -0.500000
v -0.500000 3.000000 0.500000
v 0.250000 0.000000 -0.500000
v -0.250000 0.000000 -0.500000
v -0.250000 3.000000 -1.000000
v 0.250000 0.250000 -0.500000
v -0.250000 0.250000 -0.500000
v -0.250000 0.000000 -1.000000
v 0.250000 3.000000 -1.000000
v 0.125000 0.500000 -0.250000
v -0.125000 0.500000 -0.250000
v 0.250000 0.000000 -1.000000
v 0.125000 2.500000 -1.000000
v 0.125000 2.500000 -0.250000
v -0.125000 2.500000 -0.250000
v 0.250000 2.750000 -1.000000
v -0.125000 0.500000 -1.000000
v 0.250000 2.750000 -0.500000
v -0.250000 2.750000 -0.500000
v -0.125000 2.500000 -1.000000
v -0.250000 2.750000 -1.000000
v 0.250000 3.000000 -0.500000
v -0.250000 3.000000 -0.500000
v -0.250000 0.250000 -1.000000
v 0.250000 0.250000 -1.000000
v 0.125000 0.500000 -1.000000
v 0.500000 0.000000 0.250000
v 0.500000 0.000000 -0.250000
v 1.000000 3.000000 -0.250000
v 0.500000 0.250000 0.250000
v 0.500000 0.250000 -0.250000
v 1.000000 0.000000 -0.250000
v 1.000000 3.000000 0.250000
v 0.250000 0.500000 0.125000
v 0.250000 0.500000 -0.125000
v 1.000000 0.000000 0.250000
v 1.000000 2.500000 0.125000
v 0.250000 2.500000 0.125000
v 0.250000 2.500000 -0.125000
v 1.000000 2.750000 0.250000
v 1.000000 0.500000 -0.125000
v 0.500000 2.750000 0.250000
v 0.500000 2.750000 -0.250000
v 1.000000 2.500000 -0.125000
v 1.000000 2.750000 -0.250000
v 0.500000 3.000000 0.250000
v 0.500000 3.000000 -0.250000
v 1.000000 0.250000 -0.250000
v 1.000000 0.250000 0.250000
v 1.000000 0.500000 0.125000
vt 0.000000 0.440918
vt 0.037109 0.478516
vt 0.000000 0.478516
vt 0.148926 0.000000
vt 0.000000 0.037598
vt 0.000000 0.000000
vt 0.187988 0.440918
vt 0.225098 0.478516
vt 0.187988 0.478516
vt 0.298340 0.000000
vt 0.149414 0.037598
vt 0.149414 0.000000
vt 0.112793 0.440918
vt 0.150391 0.478516
vt 0.112793 0.478516
vt 0.261230 0.090332
vt 0.186523 0.388184
vt 0.186523 0.090332
vt 0.298340 0.037598
vt 0.150391 0.440918
vt 0.150391 0.388184
vt 0.168945 0.388184
vt 0.148926 0.037598
vt 0.037109 0.090332
vt 0.111816 0.388184
vt 0.000000 0.440918
vt 0.037109 0.388184
vt 0.168945 0.090332
vt 0.111816 0.090332
vt 0.187988 0.388184
vt 0.225098 0.440918
vt 0.148926 0.440918
vt 0.000000 0.478516
vt 0.169434 0.090332
vt 0.169434 0.388184
vt 0.261230 0.388184
vt 0.149414 0.440918
vt 0.150391 0.090332
vt 0.150391 0.037598
vt 0.187988 0.090332
vt 0.187988 0.037598
vt 0.225098 0.037598
vt 0.187988 0.000000
vt 0.225098 0.000000
vt 0.298340 0.440918
vt 0.149414 0.478516
vt 0.112793 0.000000
vt 0.112793 0.037598
vt 0.109375 0.562988
vt 0.249512 0.937012
vt 0.109375 0.937012
vt 0.112305 0.041504
vt 0.186523 0.079102
vt 0.112305 0.079102
vt 0.250488 0.562500
vt 0.390625 0.937012
vt 0.250488 0.937012
vt 0.000000 0.000000
vt 0.074707 0.037109
vt 0.000000 0.037109
vt 0.224121 0.079102
vt 0.149902 0.037109
vt 0.224121 0.037109
vt 0.112305 0.232422
vt 0.186523 0.190918
vt 0.224121 0.232422
vt 0.112305 0.000000
vt 0.186523 0.041504
vt 0.186523 0.153320
vt 0.000000 0.079102
vt 0.149902 0.000000
vt 0.112305 0.153320
vt 0.112305 0.478516
vt 0.075195 0.440918
vt 0.112305 0.440918
vt 0.075195 0.388184
vt 0.056641 0.388184
vt 0.075195 0.090332
vt 0.075195 0.037598
vt 0.112305 0.037598
vt 0.075195 0.000000
vt 0.112305 0.000000
vt 0.250488 0.562988
vt 0.390625 0.937012
vt 0.250488 0.937012
vt 0.000000 0.041504
vt 0.074219 0.079102
vt 0.000000 0.079102
vt 0.109375 0.562500
vt 0.249512 0.937012
vt 0.109375 0.937012
vt 0.112793 0.000000
vt 0.187012 0.037109
vt 0.112793 0.037109
vt 0.111816 0.079102
vt 0.037109 0.037109
vt 0.111816 0.037109
vt 0.000000 0.232422
vt 0.074219 0.190918
vt 0.111816 0.232422
vt 0.000000 0.000000
vt 0.074219 0.041504
vt 0.000000 0.153320
vt 0.074219 0.153320
vt 0.112793 0.079102
vt 0.037109 0.000000
vt 0.037109 0.388184
vt 0.037109 0.440918
vt 0.056152 0.090332
vt 0.037109 0.090332
vt 0.037109 0.037598
vt 0.000000 0.037598
vt 0.000000 0.000000
vt 0.276367 0.180176
vt 0.313477 0.329102
vt 0.164551 0.291992
vt 0.148926 0.478516
vt 0.298340 0.478516
vt 0.150391 0.000000
vt 0.249512 0.562988
vt 0.390625 0.562500
vt 0.074707 0.000000
vt 0.112305 0.079102
vt 0.112305 0.190918
vt 0.224121 0.000000
vt 0.111816 0.079102
vt 0.224121 0.000000
vt 0.075195 0.478516
vt 0.056641 0.090332
vt 0.390625 0.562988
vt 0.249512 0.562500
vt 0.187012 0.000000
vt 0.000000 0.079102
vt 0.000000 0.190918
vt 0.111816 0.000000
vt 0.224609 0.079102
vt 0.111816 0.000000
vt 0.055664 0.388184
vt 0.037109 0.000488
vt 0.164551 0.217285
vt 0.201660 0.180176
vt 0.164551 0.180176
vt 0.313477 0.180176
vt 0.164551 0.329102
vn 1.0000 0.0000 -0.0000
vn -1.0000 0.0000 0.0000
vn 0.0000 0.0000 1.0000
vn -0.0000 0.0000 -1.0000
vn 0.0000 0.7071 0.7071
vn 0.0000 -0.7071 -0.7071
vn -0.7071 0.7071 0.0000
vn -0.7071 -0.7071 -0.0000
vn 0.7071 -0.7071 -0.0000
vn 0.0000 -0.7071 0.7071
vn 0.0000 0.7071 -0.7071
vn 0.7071 0.7071 -0.0000
vn 0.8944 0.4472 -0.0000
vn 0.8944 -0.4472 0.0000
vn -0.8944 -0.4472 0.0000
vn 0.0000 1.0000 0.0000
vn -0.8944 0.4472 0.0000
vn 0.0000 0.4472 0.8944
vn 0.0000 -0.4472 0.8944
vn -0.0000 -0.4472 -0.8944
vn -0.0000 0.4472 -0.8944
usemtl None
s off
f 17/1/1 68/2/1 21/3/1
f 4/4/2 7/5/2 2/6/2
f 65/7/1 22/8/1 69/9/1
f 3/10/3 8/11/3 4/12/3
f 18/13/4 44/14/4 22/15/4
f 9/16/3 16/17/3 12/18/3
f 5/19/5 12/18/5 8/11/5
f 40/20/6 14/21/6 36/22/6
f 8/23/7 11/24/7 7/5/7
f 16/25/8 19/26/8 15/27/8
f 14/21/4 32/28/4 36/22/4
f 12/29/2 15/27/2 11/24/2
f 65/7/9 14/30/9 18/31/9
f 20/32/2 23/33/2 19/26/2
f 57/34/1 14/30/1 61/35/1
f 13/36/10 20/37/10 16/17/10
f 10/38/11 28/39/11 32/28/11
f 10/40/12 53/41/12 6/42/12
f 6/42/1 50/43/1 1/44/1
f 17/45/3 24/46/3 20/37/3
f 1/47/4 28/39/4 6/48/4
f 32/49/1 35/50/1 36/51/1
f 43/52/2 45/53/2 27/54/2
f 39/55/2 37/56/2 42/57/2
f 30/58/2 29/59/2 46/60/2
f 48/61/13 28/62/13 47/63/13
f 35/64/14 40/65/14 36/66/14
f 42/67/15 41/68/15 43/52/15
f 44/69/16 27/54/16 45/53/16
f 29/59/17 39/70/17 46/60/17
f 25/71/1 47/63/1 28/62/1
f 40/65/1 31/72/1 44/69/1
f 23/73/4 41/74/4 19/75/4
f 15/76/6 41/74/6 37/77/6
f 37/77/4 11/78/4 15/76/4
f 11/78/11 29/79/11 7/80/11
f 7/80/4 26/81/4 2/82/4
f 56/83/3 59/84/3 60/85/3
f 67/86/4 69/87/4 51/88/4
f 63/89/4 61/90/4 66/91/4
f 54/92/4 53/93/4 70/94/4
f 72/95/18 52/96/18 71/97/18
f 59/98/19 64/99/19 60/100/19
f 66/101/20 65/102/20 67/86/20
f 55/103/16 69/87/16 68/104/16
f 53/93/21 63/105/21 70/94/21
f 49/106/3 71/97/3 52/96/3
f 64/99/3 55/103/3 68/104/3
f 13/107/9 64/108/9 17/1/9
f 56/109/1 13/107/1 9/110/1
f 52/111/12 9/110/12 5/112/12
f 3/113/1 52/111/1 5/112/1
f 45/114/16 24/115/16 68/116/16
f 17/1/1 64/108/1 68/2/1
f 4/4/2 8/23/2 7/5/2
f 65/7/1 18/31/1 22/8/1
f 3/10/3 5/19/3 8/11/3
f 18/13/4 40/20/4 44/14/4
f 9/16/3 13/36/3 16/17/3
f 5/19/5 9/16/5 12/18/5
f 40/20/6 18/13/6 14/21/6
f 8/23/7 12/29/7 11/24/7
f 16/25/8 20/32/8 19/26/8
f 14/21/4 10/38/4 32/28/4
f 12/29/2 16/25/2 15/27/2
f 65/7/9 61/35/9 14/30/9
f 20/32/2 24/117/2 23/33/2
f 57/34/1 10/40/1 14/30/1
f 13/36/10 17/45/10 20/37/10
f 10/38/11 6/48/11 28/39/11
f 10/40/12 57/34/12 53/41/12
f 6/42/1 53/41/1 50/43/1
f 17/45/3 21/118/3 24/46/3
f 1/47/4 25/119/4 28/39/4
f 32/49/1 48/120/1 35/50/1
f 43/52/2 41/68/2 45/53/2
f 39/55/2 33/121/2 37/56/2
f 30/58/2 26/122/2 29/59/2
f 48/61/13 32/123/13 28/62/13
f 35/64/14 38/124/14 40/65/14
f 42/67/15 37/125/15 41/68/15
f 44/69/16 31/72/16 27/54/16
f 29/59/17 33/126/17 39/70/17
f 25/71/1 34/127/1 47/63/1
f 40/65/1 38/124/1 31/72/1
f 23/73/4 45/128/4 41/74/4
f 15/76/6 19/75/6 41/74/6
f 37/77/4 33/129/4 11/78/4
f 11/78/11 33/129/11 29/79/11
f 7/80/4 29/79/4 26/81/4
f 56/83/3 72/130/3 59/84/3
f 67/86/4 65/102/4 69/87/4
f 63/89/4 57/131/4 61/90/4
f 54/92/4 50/132/4 53/93/4
f 72/95/18 56/133/18 52/96/18
f 59/98/19 62/134/19 64/99/19
f 66/101/20 61/135/20 65/102/20
f 55/103/16 51/88/16 69/87/16
f 53/93/21 57/136/21 63/105/21
f 49/106/3 58/137/3 71/97/3
f 64/99/3 62/134/3 55/103/3
f 13/107/9 60/138/9 64/108/9
f 56/109/1 60/138/1 13/107/1
f 52/111/12 56/109/12 9/110/12
f 3/113/1 49/139/1 52/111/1
f 68/116/16 69/140/16 44/141/16
f 69/140/16 22/142/16 44/141/16
f 44/141/16 45/114/16 68/116/16
f 45/114/16 23/143/16 24/115/16
f 24/115/16 21/144/16 68/116/16
