# Blender v2.79 (sub 0) OBJ File: 'dungeon_002.blend'
# www.blender.org
mtllib dungeon_002_wall_1tt_001.mtl
o Plane.005_Plane.010
v -0.500000 0.000000 0.500000
v 0.500000 0.000000 0.500000
v -0.500000 0.000000 -0.500000
v 0.500000 0.000000 -0.500000
v -0.500000 0.250000 -0.500000
v -0.500000 0.250000 0.500000
v 0.500000 0.250000 0.500000
v 0.500000 0.250000 -0.500000
v -0.250000 0.500000 -0.250000
v -0.250000 0.500000 0.250000
v 0.250000 0.500000 0.250000
v 0.250000 0.500000 -0.250000
v -0.250000 2.500000 -0.250000
v -0.250000 2.500000 0.250000
v 0.250000 2.500000 0.250000
v 0.250000 2.500000 -0.250000
v -0.500000 2.750000 -0.500000
v -0.500000 2.750000 0.500000
v 0.500000 2.750000 0.500000
v 0.500000 2.750000 -0.500000
v -0.500000 3.000000 -0.500000
v -0.500000 3.000000 0.500000
v 0.500000 3.000000 0.500000
v 0.500000 3.000000 -0.500000
v -0.250000 0.000000 0.500000
v 0.250000 0.000000 0.500000
v 0.250000 3.000000 1.000000
v -0.250000 0.250000 0.500000
v 0.250000 0.250000 0.500000
v 0.250000 0.000000 1.000000
v -0.250000 3.000000 1.000000
v -0.125000 0.500000 0.250000
v 0.125000 0.500000 0.250000
v -0.250000 0.000000 1.000000
v -0.125000 2.500000 1.000000
v -0.125000 2.500000 0.250000
v 0.125000 2.500000 0.250000
v -0.250000 2.750000 1.000000
v 0.125000 0.500000 1.000000
v -0.250000 2.750000 0.500000
v 0.250000 2.750000 0.500000
v 0.125000 2.500000 1.000000
v 0.250000 2.750000 1.000000
v -0.250000 3.000000 0.500000
v 0.250000 3.000000 0.500000
v 0.250000 0.250000 1.000000
v -0.250000 0.250000 1.000000
v -0.125000 0.500000 1.000000
v 0.250000 0.000000 -0.500000
v -0.250000 0.000000 -0.500000
v -0.250000 3.000000 -1.000000
v 0.250000 0.250000 -0.500000
v -0.250000 0.250000 -0.500000
v -0.250000 0.000000 -1.000000
v 0.250000 3.000000 -1.000000
v 0.125000 0.500000 -0.250000
v -0.125000 0.500000 -0.250000
v 0.250000 0.000000 -1.000000
v 0.125000 2.500000 -1.000000
v 0.125000 2.500000 -0.250000
v -0.125000 2.500000 -0.250000
v 0.250000 2.750000 -1.000000
v -0.125000 0.500000 -1.000000
v 0.250000 2.750000 -0.500000
v -0.250000 2.750000 -0.500000
v -0.125000 2.500000 -1.000000
v -0.250000 2.750000 -1.000000
v 0.250000 3.000000 -0.500000
v -0.250000 3.000000 -0.500000
v -0.250000 0.250000 -1.000000
v 0.250000 0.250000 -1.000000
v 0.125000 0.500000 -1.000000
v 0.500000 0.000000 0.250000
v 0.500000 0.000000 -0.250000
v 1.000000 3.000000 -0.250000
v 0.500000 0.250000 0.250000
v 0.500000 0.250000 -0.250000
v 1.000000 0.000000 -0.250000
v 1.000000 3.000000 0.250000
v 0.250000 0.500000 0.125000
v 0.250000 0.500000 -0.125000
v 1.000000 0.000000 0.250000
v 1.000000 2.500000 0.125000
v 0.250000 2.500000 0.125000
v 0.250000 2.500000 -0.125000
v 1.000000 2.750000 0.250000
v 1.000000 0.500000 -0.125000
v 0.500000 2.750000 0.250000
v 0.500000 2.750000 -0.250000
v 1.000000 2.500000 -0.125000
v 1.000000 2.750000 -0.250000
v 0.500000 3.000000 0.250000
v 0.500000 3.000000 -0.250000
v 1.000000 0.250000 -0.250000
v 1.000000 0.250000 0.250000
v 1.000000 0.500000 0.125000
vt 0.144043 0.036133
vt 0.035645 0.086914
vt 0.000000 0.036133
vt 0.108887 0.036133
vt 0.072754 0.000000
vt 0.108887 0.000000
vt 0.144043 0.000000
vt 0.000000 0.000000
vt 0.054199 0.036133
vt 0.018066 0.000000
vt 0.054199 0.000000
vt 0.219238 0.426270
vt 0.254883 0.462402
vt 0.219238 0.462402
vt 0.273926 0.462402
vt 0.310059 0.426270
vt 0.310059 0.462402
vt 0.310059 0.375488
vt 0.327637 0.375488
vt 0.254883 0.426270
vt 0.254883 0.375488
vt 0.272949 0.375488
vt 0.109375 0.462402
vt 0.145508 0.426270
vt 0.145508 0.462402
vt 0.145508 0.375488
vt 0.163574 0.375488
vt 0.272949 0.086914
vt 0.163574 0.086914
vt 0.107910 0.086914
vt 0.035645 0.375488
vt 0.145508 0.036133
vt 0.145508 0.086914
vt 0.109375 0.036133
vt 0.107910 0.375488
vt 0.000000 0.426270
vt 0.327637 0.086914
vt 0.254883 0.086914
vt 0.254883 0.036133
vt 0.273926 0.000000
vt 0.310059 0.036133
vt 0.273926 0.036133
vt 0.144043 0.426270
vt 0.000000 0.462402
vt 0.310059 0.086914
vt 0.219238 0.000000
vt 0.219238 0.036133
vt 0.179199 0.565430
vt 0.318848 0.937012
vt 0.179199 0.937012
vt 0.000000 0.040527
vt 0.072266 0.076660
vt 0.000000 0.076660
vt 0.179199 0.564941
vt 0.318359 0.936523
vt 0.179199 0.936523
vt 0.000000 0.000000
vt 0.072266 0.036133
vt 0.000000 0.036133
vt 0.076172 0.077148
vt 0.036133 0.148926
vt 0.036133 0.077148
vt 0.000000 0.225098
vt 0.072266 0.184570
vt 0.107910 0.225098
vt 0.000000 0.000000
vt 0.072266 0.040527
vt 0.072266 0.148438
vt 0.000000 0.076172
vt 0.000000 0.148926
vt 0.000000 0.148438
vt 0.218262 0.462402
vt 0.182129 0.426270
vt 0.218262 0.426270
vt 0.182129 0.375488
vt 0.164062 0.375488
vt 0.182129 0.086914
vt 0.182129 0.036133
vt 0.218262 0.036133
vt 0.182129 0.000000
vt 0.218262 0.000000
vt 0.180176 0.565430
vt 0.319824 0.937012
vt 0.180176 0.937012
vt 0.107910 0.184570
vt 0.035645 0.148438
vt 0.107910 0.148438
vt 0.179199 0.564941
vt 0.318848 0.936523
vt 0.179199 0.936523
vt 0.107910 0.302246
vt 0.036133 0.266113
vt 0.107910 0.266113
vt 0.107910 0.302246
vt 0.035645 0.261719
vt 0.107910 0.261719
vt 0.107910 0.000000
vt 0.035645 0.040527
vt 0.000000 0.000000
vt 0.107910 0.225098
vt 0.035645 0.184570
vt 0.107910 0.076660
vt 0.035645 0.076660
vt 0.107910 0.225586
vt 0.035645 0.225586
vt 0.018066 0.086914
vt 0.018066 0.036133
vt 0.000000 0.375488
vt 0.018066 0.375488
vt 0.018066 0.426270
vt 0.054199 0.462402
vt 0.054199 0.426270
vt 0.109375 0.000000
vt 0.179199 0.565430
vt 0.318359 0.937012
vt 0.179199 0.937012
vt 0.218262 0.184570
vt 0.146484 0.148438
vt 0.218262 0.148438
vt 0.180176 0.564941
vt 0.319824 0.936523
vt 0.180176 0.936523
vt 0.153320 0.077148
vt 0.117188 0.148926
vt 0.117188 0.077148
vt 0.218262 0.302246
vt 0.146484 0.261719
vt 0.218262 0.261719
vt 0.218262 0.000000
vt 0.146484 0.040527
vt 0.110352 0.000000
vt 0.218262 0.225098
vt 0.146484 0.184570
vt 0.146484 0.076660
vt 0.077148 0.077148
vt 0.146484 0.225586
vt 0.218262 0.076660
vt 0.072754 0.086914
vt 0.072754 0.036133
vt 0.054688 0.375488
vt 0.072754 0.375488
vt 0.072754 0.426270
vt 0.108887 0.462402
vt 0.108887 0.426270
vt 0.206543 0.184570
vt 0.278809 0.184570
vt 0.314941 0.292480
vt 0.273926 0.426270
vt 0.109375 0.426270
vt 0.310059 0.000000
vt 0.144043 0.462402
vt 0.254883 0.000000
vt 0.318848 0.565430
vt 0.318359 0.564941
vt 0.072266 0.000000
vt 0.076172 0.185059
vt 0.000000 0.184570
vt 0.107910 0.000000
vt 0.107910 0.076172
vt 0.000000 0.077148
vt 0.182129 0.462402
vt 0.164062 0.086914
vt 0.319824 0.565430
vt 0.318848 0.564941
vt 0.036133 0.302246
vt 0.000000 0.302246
vt 0.107910 0.040527
vt 0.000000 0.225098
vt 0.000000 0.225586
vt 0.107910 0.225586
vt 0.000000 0.086914
vt 0.018066 0.462402
vt 0.145508 0.000000
vt 0.318359 0.565430
vt 0.319824 0.564941
vt 0.153320 0.148926
vt 0.110352 0.302246
vt 0.218262 0.040527
vt 0.110352 0.225098
vt 0.077148 0.185059
vt 0.218262 0.225586
vt 0.054688 0.086914
vt 0.072754 0.462402
vt 0.314941 0.184570
vt 0.314941 0.220703
vt 0.314941 0.328613
vt 0.278809 0.328613
vt 0.206543 0.328613
vt 0.170410 0.328613
vt 0.170410 0.184570
vn -0.7071 0.7071 0.0000
vn 1.0000 0.0000 0.0000
vn -1.0000 0.0000 0.0000
vn -0.0000 0.0000 -1.0000
vn 0.0000 0.0000 1.0000
vn 0.0000 -0.7071 -0.7071
vn 0.0000 -0.7071 0.7071
vn 0.7071 -0.7071 0.0000
vn 0.7071 0.7071 0.0000
vn -0.7071 -0.7071 -0.0000
vn 0.0000 0.7071 0.7071
vn 0.0000 0.7071 -0.7071
vn -0.8944 0.4472 0.0000
vn -0.8944 -0.4472 0.0000
vn 0.8944 -0.4472 0.0000
vn 0.0000 1.0000 0.0000
vn 0.8944 0.4472 0.0000
vn 0.0000 0.4472 0.8944
vn 0.0000 -0.4472 0.8944
vn -0.0000 -0.4472 -0.8944
vn -0.0000 0.4472 -0.8944
usemtl None
s off
f 6/1/1 9/2/1 5/3/1
f 8/4/2 74/5/2 4/6/2
f 1/7/3 5/3/3 3/8/3
f 5/9/4 50/10/4 3/11/4
f 18/12/5 44/13/5 22/14/5
f 24/15/4 64/16/4 68/17/4
f 64/16/6 16/18/6 60/19/6
f 40/20/7 14/21/7 36/22/7
f 23/23/2 88/24/2 92/25/2
f 88/24/8 15/26/8 84/27/8
f 14/21/5 32/28/5 36/22/5
f 15/26/2 80/29/2 84/27/2
f 10/30/3 13/31/3 9/2/3
f 76/32/9 11/33/9 7/34/9
f 14/35/10 17/36/10 13/31/10
f 16/18/4 56/37/4 60/19/4
f 10/38/11 28/39/11 32/28/11
f 4/40/4 52/41/4 8/42/4
f 18/43/3 21/44/3 17/36/3
f 52/41/12 12/45/12 8/42/12
f 1/46/5 28/39/5 6/47/5
f 32/48/3 35/49/3 36/50/3
f 43/51/2 45/52/2 27/53/2
f 39/54/2 37/55/2 42/56/2
f 30/57/2 29/58/2 46/59/2
f 48/60/13 28/61/13 47/62/13
f 35/63/14 40/64/14 36/65/14
f 42/66/15 41/67/15 43/51/15
f 44/68/16 27/53/16 45/52/16
f 29/58/17 39/69/17 46/59/17
f 25/70/3 47/62/3 28/61/3
f 40/64/3 31/71/3 44/68/3
f 23/72/5 41/73/5 19/74/5
f 15/75/7 41/73/7 37/76/7
f 37/76/5 11/77/5 15/75/5
f 11/77/11 29/78/11 7/79/11
f 7/79/5 26/80/5 2/81/5
f 56/82/2 59/83/2 60/84/2
f 67/85/3 69/86/3 51/87/3
f 63/88/3 61/89/3 66/90/3
f 54/91/3 53/92/3 70/93/3
f 72/94/17 52/95/17 71/96/17
f 59/97/15 64/98/15 60/99/15
f 66/100/14 65/101/14 67/85/14
f 55/102/16 69/86/16 68/103/16
f 53/92/13 63/104/13 70/93/13
f 49/105/2 71/96/2 52/95/2
f 64/98/2 55/102/2 68/103/2
f 9/106/12 53/107/12 5/9/12
f 61/108/4 9/106/4 13/109/4
f 13/109/6 65/110/6 61/108/6
f 21/111/4 65/110/4 17/112/4
f 2/113/2 76/32/2 7/34/2
f 80/114/5 83/115/5 84/116/5
f 91/117/4 93/118/4 75/119/4
f 87/120/4 85/121/4 90/122/4
f 78/123/4 77/124/4 94/125/4
f 96/126/18 76/127/18 95/128/18
f 83/129/19 88/130/19 84/131/19
f 90/132/20 89/133/20 91/117/20
f 92/134/16 75/119/16 93/118/16
f 77/124/21 87/135/21 94/125/21
f 73/136/5 95/128/5 76/127/5
f 88/130/5 79/137/5 92/134/5
f 12/138/9 77/139/9 8/4/9
f 85/140/2 12/138/2 16/141/2
f 16/141/8 89/142/8 85/140/8
f 24/143/2 89/142/2 20/144/2
f 44/145/16 45/146/16 93/147/16
f 6/1/1 10/30/1 9/2/1
f 8/4/2 77/139/2 74/5/2
f 1/7/3 6/1/3 5/3/3
f 5/9/4 53/107/4 50/10/4
f 18/12/5 40/20/5 44/13/5
f 24/15/4 20/148/4 64/16/4
f 64/16/6 20/148/6 16/18/6
f 40/20/7 18/12/7 14/21/7
f 23/23/2 19/149/2 88/24/2
f 88/24/8 19/149/8 15/26/8
f 14/21/5 10/38/5 32/28/5
f 15/26/2 11/33/2 80/29/2
f 10/30/3 14/35/3 13/31/3
f 76/32/9 80/29/9 11/33/9
f 14/35/10 18/43/10 17/36/10
f 16/18/4 12/45/4 56/37/4
f 10/38/11 6/47/11 28/39/11
f 4/40/4 49/150/4 52/41/4
f 18/43/3 22/151/3 21/44/3
f 52/41/12 56/37/12 12/45/12
f 1/46/5 25/152/5 28/39/5
f 32/48/3 48/153/3 35/49/3
f 43/51/2 41/67/2 45/52/2
f 39/54/2 33/154/2 37/55/2
f 30/57/2 26/155/2 29/58/2
f 48/60/13 32/156/13 28/61/13
f 35/63/14 38/157/14 40/64/14
f 42/66/15 37/158/15 41/67/15
f 44/68/16 31/71/16 27/53/16
f 29/58/17 33/159/17 39/69/17
f 25/70/3 34/160/3 47/62/3
f 40/64/3 38/157/3 31/71/3
f 23/72/5 45/161/5 41/73/5
f 15/75/7 19/74/7 41/73/7
f 37/76/5 33/162/5 11/77/5
f 11/77/11 33/162/11 29/78/11
f 7/79/5 29/78/5 26/80/5
f 56/82/2 72/163/2 59/83/2
f 67/85/3 65/101/3 69/86/3
f 63/88/3 57/164/3 61/89/3
f 54/91/3 50/165/3 53/92/3
f 72/94/17 56/166/17 52/95/17
f 59/97/15 62/167/15 64/98/15
f 66/100/14 61/168/14 65/101/14
f 55/102/16 51/87/16 69/86/16
f 53/92/13 57/169/13 63/104/13
f 49/105/2 58/170/2 71/96/2
f 64/98/2 62/167/2 55/102/2
f 9/106/12 57/171/12 53/107/12
f 61/108/4 57/171/4 9/106/4
f 13/109/6 17/112/6 65/110/6
f 21/111/4 69/172/4 65/110/4
f 2/113/2 73/173/2 76/32/2
f 80/114/5 96/174/5 83/115/5
f 91/117/4 89/133/4 93/118/4
f 87/120/4 81/175/4 85/121/4
f 78/123/4 74/176/4 77/124/4
f 96/126/18 80/177/18 76/127/18
f 83/129/19 86/178/19 88/130/19
f 90/132/20 85/179/20 89/133/20
f 92/134/16 79/137/16 75/119/16
f 77/124/21 81/180/21 87/135/21
f 73/136/5 82/181/5 95/128/5
f 88/130/5 86/178/5 79/137/5
f 12/138/9 81/182/9 77/139/9
f 85/140/2 81/182/2 12/138/2
f 16/141/8 20/144/8 89/142/8
f 24/143/2 93/183/2 89/142/2
f 23/184/16 92/185/16 45/146/16
f 92/185/16 93/147/16 45/146/16
f 93/147/16 24/186/16 68/187/16
f 69/188/16 21/189/16 22/190/16
f 93/147/16 68/187/16 44/145/16
f 68/187/16 69/188/16 44/145/16
f 69/188/16 22/190/16 44/145/16
