# Blender v2.79 (sub 0) OBJ File: 'dungeon_002.blend'
# www.blender.org
mtllib dungeon_002_wall_1te_001.mtl
o Plane.006_Plane.013
v 0.500000 0.000000 -0.500000
v -0.500000 0.000000 -0.500000
v 0.500000 0.000000 0.500000
v -0.500000 0.000000 0.500000
v 0.500000 0.250000 0.500000
v 0.500000 0.250000 -0.500000
v -0.500000 0.250000 -0.500000
v -0.500000 0.250000 0.500000
v 0.250000 0.500000 0.250000
v 0.250000 0.500000 -0.250000
v -0.250000 0.500000 -0.250000
v -0.250000 0.500000 0.250000
v 0.250000 2.500000 0.250000
v 0.250000 2.500000 -0.250000
v -0.250000 2.500000 -0.250000
v -0.250000 2.500000 0.250000
v 0.500000 2.750000 0.500000
v 0.500000 2.750000 -0.500000
v -0.500000 2.750000 -0.500000
v -0.500000 2.750000 0.500000
v 0.500000 3.000000 0.500000
v 0.500000 3.000000 -0.500000
v -0.500000 3.000000 -0.500000
v -0.500000 3.000000 0.500000
v 0.250000 0.000000 -0.500000
v -0.250000 0.000000 -0.500000
v -0.250000 3.000000 -1.000000
v 0.250000 0.250000 -0.500000
v -0.250000 0.250000 -0.500000
v -0.250000 0.000000 -1.000000
v 0.250000 3.000000 -1.000000
v 0.125000 0.500000 -0.250000
v -0.125000 0.500000 -0.250000
v 0.250000 0.000000 -1.000000
v 0.125000 2.500000 -1.000000
v 0.125000 2.500000 -0.250000
v -0.125000 2.500000 -0.250000
v 0.250000 2.750000 -1.000000
v -0.125000 0.500000 -1.000000
v 0.250000 2.750000 -0.500000
v -0.250000 2.750000 -0.500000
v -0.125000 2.500000 -1.000000
v -0.250000 2.750000 -1.000000
v 0.250000 3.000000 -0.500000
v -0.250000 3.000000 -0.500000
v -0.250000 0.250000 -1.000000
v 0.250000 0.250000 -1.000000
v 0.125000 0.500000 -1.000000
vt 0.155982 0.039152
vt 0.039152 0.094226
vt 0.000208 0.039152
vt 0.312172 0.000208
vt 0.156398 0.039152
vt 0.156398 0.000208
vt 0.155982 0.000208
vt 0.000208 0.000208
vt 0.468363 0.000208
vt 0.312589 0.039152
vt 0.312589 0.000208
vt 0.058594 0.460449
vt 0.097656 0.499512
vt 0.058594 0.499512
vt 0.429419 0.094226
vt 0.351532 0.405774
vt 0.351532 0.094226
vt 0.468362 0.039152
vt 0.097656 0.460449
vt 0.097656 0.405762
vt 0.117188 0.405762
vt 0.312172 0.039152
vt 0.195342 0.094226
vt 0.273229 0.405774
vt 0.156398 0.460848
vt 0.195342 0.405774
vt 0.117188 0.094238
vt 0.273229 0.094226
vt 0.117039 0.094226
vt 0.039152 0.405774
vt 0.312172 0.460848
vt 0.156398 0.499792
vt 0.117038 0.405774
vt 0.000208 0.460848
vt 0.429419 0.405774
vt 0.312589 0.460848
vt 0.097656 0.094238
vt 0.097656 0.039062
vt 0.321289 0.175781
vt 0.321289 0.330566
vt 0.166016 0.330566
vt 0.155982 0.460848
vt 0.000208 0.499792
vt 0.468362 0.460848
vt 0.312589 0.499792
vt 0.058594 0.000000
vt 0.058594 0.039062
vt 0.271973 0.563965
vt 0.411621 0.937500
vt 0.271973 0.937500
vt 0.000000 0.043457
vt 0.078125 0.082520
vt 0.000000 0.082520
vt 0.272461 0.564453
vt 0.412109 0.937988
vt 0.272461 0.937988
vt 0.000000 0.000000
vt 0.078125 0.039062
vt 0.000000 0.039062
vt 0.116699 0.082520
vt 0.039062 0.039062
vt 0.116699 0.039062
vt 0.000000 0.242676
vt 0.078125 0.199219
vt 0.116699 0.242676
vt 0.000000 0.000000
vt 0.078125 0.043457
vt 0.078125 0.160156
vt 0.000000 0.082520
vt 0.039062 0.000000
vt 0.000000 0.160156
vt 0.058594 0.499512
vt 0.019531 0.460449
vt 0.058594 0.460449
vt 0.019531 0.405762
vt -0.000000 0.405762
vt 0.019531 0.094238
vt 0.019531 0.039062
vt 0.058594 0.039062
vt 0.019531 0.000000
vt 0.058594 0.000000
vt 0.312172 0.499792
vt 0.166016 0.175781
vt 0.321289 0.172852
vt 0.321289 0.175781
vt 0.155982 0.499792
vt 0.468362 0.499792
vt 0.097656 0.000000
vt 0.411621 0.563965
vt 0.412109 0.564453
vt 0.078125 0.000000
vt 0.000000 0.082520
vt 0.000000 0.199219
vt 0.116699 -0.000000
vt 0.116699 0.082520
vt 0.116699 0.000000
vt 0.019531 0.499512
vt 0.000000 0.094238
vn 0.7071 0.7071 -0.0000
vn -1.0000 0.0000 0.0000
vn 1.0000 0.0000 -0.0000
vn 0.0000 0.0000 1.0000
vn -0.0000 0.0000 -1.0000
vn 0.0000 0.7071 0.7071
vn 0.0000 -0.7071 -0.7071
vn -0.7071 0.7071 0.0000
vn -0.7071 -0.7071 -0.0000
vn 0.7071 -0.7071 0.0000
vn 0.0000 -0.7071 0.7071
vn 0.0000 0.7071 -0.7071
vn 0.0000 1.0000 0.0000
vn 0.8944 0.4472 -0.0000
vn 0.8944 -0.4472 0.0000
vn -0.8944 -0.4472 0.0000
vn -0.8944 0.4472 0.0000
usemtl None
s off
f 6/1/1 9/2/1 5/3/1
f 4/4/2 7/5/2 2/6/2
f 1/7/3 5/3/3 3/8/3
f 3/9/4 8/10/4 4/11/4
f 18/12/5 44/13/5 22/14/5
f 9/15/4 16/16/4 12/17/4
f 5/18/6 12/17/6 8/10/6
f 40/19/7 14/20/7 36/21/7
f 8/22/8 11/23/8 7/5/8
f 16/24/9 19/25/9 15/26/9
f 14/20/5 32/27/5 36/21/5
f 12/28/2 15/26/2 11/23/2
f 10/29/3 13/30/3 9/2/3
f 20/31/2 23/32/2 19/25/2
f 14/33/10 17/34/10 13/30/10
f 13/35/11 20/36/11 16/16/11
f 10/37/12 28/38/12 32/27/12
f 45/39/13 24/40/13 21/41/13
f 18/42/3 21/43/3 17/34/3
f 17/44/4 24/45/4 20/36/4
f 1/46/5 28/38/5 6/47/5
f 32/48/3 35/49/3 36/50/3
f 43/51/2 45/52/2 27/53/2
f 39/54/2 37/55/2 42/56/2
f 30/57/2 29/58/2 46/59/2
f 48/60/14 28/61/14 47/62/14
f 35/63/15 40/64/15 36/65/15
f 42/66/16 41/67/16 43/51/16
f 44/68/13 27/53/13 45/52/13
f 29/58/17 39/69/17 46/59/17
f 25/70/3 47/62/3 28/61/3
f 40/64/3 31/71/3 44/68/3
f 23/72/5 41/73/5 19/74/5
f 15/75/7 41/73/7 37/76/7
f 37/76/5 11/77/5 15/75/5
f 11/77/12 29/78/12 7/79/12
f 7/79/5 26/80/5 2/81/5
f 6/1/1 10/29/1 9/2/1
f 4/4/2 8/22/2 7/5/2
f 1/7/3 6/1/3 5/3/3
f 3/9/4 5/18/4 8/10/4
f 18/12/5 40/19/5 44/13/5
f 9/15/4 13/35/4 16/16/4
f 5/18/6 9/15/6 12/17/6
f 40/19/7 18/12/7 14/20/7
f 8/22/8 12/28/8 11/23/8
f 16/24/9 20/31/9 19/25/9
f 14/20/5 10/37/5 32/27/5
f 12/28/2 16/24/2 15/26/2
f 10/29/3 14/33/3 13/30/3
f 20/31/2 24/82/2 23/32/2
f 14/33/10 18/42/10 17/34/10
f 13/35/11 17/44/11 20/36/11
f 10/37/12 6/47/12 28/38/12
f 21/41/13 22/83/13 44/84/13
f 45/39/13 23/85/13 24/40/13
f 21/41/13 44/84/13 45/39/13
f 18/42/3 22/86/3 21/43/3
f 17/44/4 21/87/4 24/45/4
f 1/46/5 25/88/5 28/38/5
f 32/48/3 48/89/3 35/49/3
f 43/51/2 41/67/2 45/52/2
f 39/54/2 33/90/2 37/55/2
f 30/57/2 26/91/2 29/58/2
f 48/60/14 32/92/14 28/61/14
f 35/63/15 38/93/15 40/64/15
f 42/66/16 37/94/16 41/67/16
f 44/68/13 31/71/13 27/53/13
f 29/58/17 33/95/17 39/69/17
f 25/70/3 34/96/3 47/62/3
f 40/64/3 38/93/3 31/71/3
f 23/72/5 45/97/5 41/73/5
f 15/75/7 19/74/7 41/73/7
f 37/76/5 33/98/5 11/77/5
f 11/77/12 33/98/12 29/78/12
f 7/79/5 29/78/5 26/80/5
