# Blender v2.79 (sub 0) OBJ File: 'dungeon_002.blend'
# www.blender.org
mtllib dungeon_002_wall_1td_001.mtl
o Plane.002_Plane.052
v 0.250000 0.000000 1.000000
v -0.250000 0.000000 1.000000
v -0.250000 3.000000 -1.000000
v 0.250000 0.250000 1.000000
v -0.250000 0.250000 1.000000
v -0.250000 0.000000 -1.000000
v 0.250000 3.000000 -1.000000
v 0.125000 0.500000 1.000000
v -0.125000 0.500000 1.000000
v 0.250000 0.000000 -1.000000
v 0.125000 2.500000 -1.000000
v 0.125000 2.500000 1.000000
v -0.125000 2.500000 1.000000
v 0.250000 2.750000 -1.000000
v -0.125000 0.500000 -1.000000
v 0.250000 2.750000 1.000000
v -0.250000 2.750000 1.000000
v -0.125000 2.500000 -1.000000
v -0.250000 2.750000 -1.000000
v 0.250000 3.000000 1.000000
v -0.250000 3.000000 1.000000
v -0.250000 0.250000 -1.000000
v 0.250000 0.250000 -1.000000
v 0.125000 0.500000 -1.000000
vt 0.437500 0.937500
vt 0.062500 0.562500
vt 0.437500 0.562500
vt 0.000000 0.063477
vt 0.457031 0.122070
vt 0.000000 0.122070
vt 0.061035 0.561035
vt 0.438965 0.938965
vt 0.061035 0.938965
vt 0.457031 0.000000
vt 0.000000 0.066406
vt 0.000000 0.000000
vt 0.000000 0.292969
vt 0.457031 0.356445
vt 0.000000 0.356445
vt 0.000000 0.000000
vt 0.457031 0.063477
vt 0.000000 0.236816
vt 0.457031 0.236816
vt 0.457031 0.125000
vt 0.457031 0.066406
vt 0.457031 0.292969
vt 0.062500 0.937500
vt 0.438965 0.561035
vt 0.457031 0.000000
vt 0.000000 0.125000
vt 0.000000 0.000000
vt 0.457031 0.058594
vt 0.000000 0.058594
vt 0.000000 0.125000
vt 0.457031 0.000000
vt 0.457031 0.125000
vn 1.0000 0.0000 -0.0000
vn -1.0000 0.0000 0.0000
vn 0.8944 0.4472 -0.0000
vn 0.8944 -0.4472 -0.0000
vn -0.8944 -0.4472 0.0000
vn 0.0000 1.0000 0.0000
vn -0.8944 0.4472 0.0000
usemtl None
s off
f 8/1/1 11/2/1 12/3/1
f 19/4/2 21/5/2 3/6/2
f 15/7/2 13/8/2 18/9/2
f 8/10/3 23/11/3 24/12/3
f 14/13/4 12/14/4 11/15/4
f 18/16/5 17/17/5 19/4/5
f 7/18/6 21/5/6 20/19/6
f 1/20/1 23/11/1 4/21/1
f 16/22/1 7/18/1 20/19/1
f 8/1/1 24/23/1 11/2/1
f 19/4/2 17/17/2 21/5/2
f 15/7/2 9/24/2 13/8/2
f 8/10/3 4/21/3 23/11/3
f 14/13/4 16/22/4 12/14/4
f 18/16/5 13/25/5 17/17/5
f 7/18/6 3/6/6 21/5/6
f 1/20/1 10/26/1 23/11/1
f 16/22/1 14/13/1 7/18/1
usemtl None_NONE
f 6/27/2 5/28/2 22/29/2
f 5/28/7 15/30/7 22/29/7
f 6/27/2 2/31/2 5/28/2
f 5/28/7 9/32/7 15/30/7
