# Blender v2.79 (sub 0) OBJ File: 'dungeon_002.blend'
# www.blender.org
mtllib dungeon_002_wall_1ta_001.mtl
o Torus.009
v -0.116240 2.441132 1.000240
v -0.152000 2.380829 0.999703
v -0.107480 2.273349 0.999703
v 0.000000 2.228829 0.999703
v 0.107480 2.273349 0.999703
v 0.152000 2.380829 0.999703
v 0.250000 3.000000 0.999784
v -0.125000 2.500000 0.999784
v 0.250000 2.750000 0.999784
v -0.250000 3.000000 0.999784
v -0.250000 2.750000 0.999784
v 0.116240 2.441633 1.000290
v 0.125000 2.500000 1.002504
v -0.116240 2.441132 -0.999760
v -0.152000 2.380829 -1.000297
v -0.107480 2.273349 -1.000297
v 0.000000 2.228829 -1.000297
v 0.107480 2.273349 -1.000297
v 0.152000 2.380829 -1.000297
v 0.250000 3.000000 -1.000216
v -0.125000 2.500000 -1.000216
v 0.250000 2.750000 -1.000216
v -0.250000 3.000000 -1.000216
v -0.250000 2.750000 -1.000216
v 0.116240 2.441633 -0.999710
v 0.125000 2.500000 -0.997496
vt 0.285645 0.234375
vt 0.000488 0.274414
vt 0.000000 0.234375
vt 0.285645 0.091797
vt 0.000000 0.051758
vt 0.285645 0.051758
vt 0.285645 0.326172
vt 0.000000 0.309570
vt 0.285645 0.309570
vt 0.285645 0.016602
vt 0.000000 0.000000
vt 0.285645 0.000000
vt 0.285645 0.282715
vt 0.286133 0.274414
vt 0.285645 0.033203
vt 0.000000 0.016602
vt 0.000000 0.198730
vt 0.285645 0.198730
vt 0.000000 0.042969
vt 0.285645 0.042969
vt 0.285645 0.292969
vt 0.000000 0.282715
vt 0.285645 0.127441
vt 0.000000 0.091797
vt 0.000000 0.127441
vt 0.000000 0.033203
vt 0.000000 0.292969
vt 0.000000 0.326172
vn 0.9731 -0.2305 0.0000
vn 0.9539 -0.3002 0.0000
vn 0.9734 -0.2290 0.0000
vn -0.9732 -0.2298 0.0000
vn -0.9535 -0.3013 0.0000
vn -0.9538 -0.3006 0.0000
vn 0.0000 -1.0000 0.0000
vn 0.7071 -0.7071 0.0000
vn -0.7071 -0.7071 0.0000
vn 0.9827 0.1851 0.0000
vn 0.9530 -0.3029 0.0000
vn -0.9974 0.0724 0.0000
vn 0.7071 0.7071 0.0000
vn -0.9817 0.1906 -0.0037
vn -0.9810 0.1938 0.0045
vn 0.9975 0.0707 0.0000
vn 0.9807 0.1953 0.0000
vn -0.7071 0.7071 -0.0000
vn -0.9975 0.0700 0.0000
vn 0.9977 0.0681 0.0000
usemtl None.001
s 1
f 9/1/1 26/2/2 22/3/3
f 11/4/4 21/5/5 8/6/6
f 4/7/7 18/8/8 5/9/8
f 3/10/9 17/11/7 4/12/7
f 12/13/10 26/2/2 13/14/11
f 2/15/12 16/16/9 3/10/9
f 9/1/1 20/17/13 7/18/13
f 8/6/6 14/19/14 1/20/15
f 6/21/16 25/22/17 12/13/10
f 10/23/18 24/24/4 11/4/4
f 7/18/13 23/25/18 10/23/18
f 2/15/12 14/19/14 15/26/19
f 5/9/8 19/27/20 6/21/16
f 9/1/1 13/14/11 26/2/2
f 11/4/4 24/24/4 21/5/5
f 4/7/7 17/28/7 18/8/8
f 3/10/9 16/16/9 17/11/7
f 12/13/10 25/22/17 26/2/2
f 2/15/12 15/26/19 16/16/9
f 9/1/1 22/3/3 20/17/13
f 8/6/6 21/5/5 14/19/14
f 6/21/16 19/27/20 25/22/17
f 10/23/18 23/25/18 24/24/4
f 7/18/13 20/17/13 23/25/18
f 2/15/12 1/20/15 14/19/14
f 5/9/8 18/8/8 19/27/20
