# Blender v2.83.5 OBJ File: ''
# www.blender.org
mtllib barrel_2_004.mtl
o Barrel_Ring_Cylinder.005
v -0.172518 0.010799 -0.416501
v -0.172730 0.079286 -0.417013
v 0.000000 0.089877 -0.451370
v 0.000000 0.000209 -0.450816
v -0.318773 0.000209 -0.318773
v -0.319165 0.089877 -0.319165
v -0.416501 0.000209 -0.172518
v -0.417013 0.089877 -0.172730
v -0.450816 0.000209 0.000000
v -0.451370 0.089877 0.000000
v -0.416501 0.000209 0.172518
v -0.417013 0.089877 0.172730
v -0.318773 0.000209 0.318773
v -0.319165 0.089877 0.319165
v -0.172518 0.000209 0.416501
v -0.172730 0.089877 0.417013
v 0.000000 0.006729 0.450816
v 0.000000 0.083356 0.451370
v 0.172518 0.000209 0.416501
v 0.172730 0.089877 0.417013
v 0.318773 0.000209 0.318773
v 0.319165 0.089877 0.319165
v 0.416501 0.009936 0.172518
v 0.417013 0.080150 0.172730
v 0.450816 0.000209 0.000000
v 0.451370 0.089877 0.000000
v 0.416501 0.000209 -0.172518
v 0.417013 0.089877 -0.172730
v 0.318773 0.011493 -0.318773
v 0.319165 0.078593 -0.319165
v 0.172518 0.000209 -0.416501
v 0.172730 0.089877 -0.417013
v -0.388561 0.089877 0.160945
v -0.420574 0.089877 0.000000
v 0.420574 0.089877 0.000000
v 0.388561 0.080150 0.160945
v -0.388084 0.000209 0.160747
v -0.297024 0.000209 0.297024
v 0.420057 0.000209 0.000000
v 0.388084 0.000209 -0.160747
v -0.297389 0.089877 0.297389
v 0.388561 0.089877 -0.160945
v -0.160747 0.000209 0.388084
v 0.297024 0.011493 -0.297024
v -0.160945 0.089877 0.388561
v 0.000000 0.000209 -0.420057
v -0.160747 0.010799 -0.388084
v 0.297389 0.078593 -0.297389
v 0.000000 0.006729 0.420057
v -0.160945 0.079286 -0.388561
v 0.000000 0.089877 -0.420574
v 0.160747 0.000209 -0.388084
v 0.000000 0.083356 0.420574
v -0.297024 0.000209 -0.297024
v 0.160945 0.089877 -0.388561
v 0.160747 0.000209 0.388084
v -0.297389 0.089877 -0.297389
v 0.160945 0.089877 0.388561
v -0.388084 0.000209 -0.160747
v 0.297024 0.000209 0.297024
v -0.388561 0.089877 -0.160945
v 0.297389 0.089877 0.297389
v -0.420057 0.000209 0.000000
v 0.388084 0.009936 0.160747
vt 0.482798 0.167400
vt 0.482827 0.148510
vt 0.544585 0.145821
vt 0.543910 0.169606
vt 0.422750 0.169056
vt 0.423026 0.146013
vt 0.363637 0.169580
vt 0.364228 0.146200
vt 0.304033 0.170071
vt 0.304571 0.146544
vt 0.244628 0.170465
vt 0.244687 0.147006
vt 0.185019 0.170012
vt 0.185077 0.146424
vt 0.125373 0.170249
vt 0.125943 0.147109
vt 0.064812 0.169481
vt 0.065124 0.148939
vt 0.000681 0.173277
vt 0.000000 0.146462
vt 0.920844 0.170308
vt 0.921372 0.146300
vt 0.988311 0.145797
vt 0.986762 0.174005
vt 0.857483 0.167913
vt 0.858115 0.147975
vt 0.794335 0.169804
vt 0.795376 0.145614
vt 0.732875 0.169728
vt 0.733896 0.145590
vt 0.669220 0.167230
vt 0.669710 0.147732
vt 0.605093 0.169424
vt 0.606055 0.145336
vt 0.244702 0.138472
vt 0.304476 0.138684
vt 0.795644 0.137466
vt 0.858189 0.138926
vt 0.244619 0.178967
vt 0.184994 0.177878
vt 0.794534 0.177975
vt 0.732571 0.178617
vt 0.185063 0.138614
vt 0.733640 0.136660
vt 0.125329 0.178756
vt 0.669180 0.175696
vt 0.125641 0.138596
vt 0.543663 0.177623
vt 0.482732 0.176099
vt 0.669744 0.139259
vt 0.065174 0.177571
vt 0.482805 0.140114
vt 0.544171 0.137450
vt 0.605372 0.178321
vt 0.065218 0.140774
vt 0.422986 0.176859
vt 0.606298 0.136417
vt 0.004030 0.181893
vt 0.423311 0.138264
vt 0.003078 0.137652
vt 0.363768 0.178099
vt 0.983274 0.183078
vt 0.920131 0.178620
vt 0.364163 0.137678
vt 0.921096 0.137947
vt 0.985547 0.136417
vt 0.304136 0.177911
vt 0.857400 0.176970
vt 0.482798 0.167400
vt 0.543910 0.169606
vt 0.544585 0.145821
vt 0.482827 0.148510
vt 0.422750 0.169056
vt 0.423026 0.146013
vt 0.363637 0.169580
vt 0.364228 0.146200
vt 0.304033 0.170071
vt 0.304571 0.146544
vt 0.244628 0.170465
vt 0.244687 0.147006
vt 0.185019 0.170012
vt 0.185077 0.146424
vt 0.125373 0.170249
vt 0.125943 0.147109
vt 0.920844 0.170308
vt 0.986762 0.174005
vt 0.988311 0.145797
vt 0.921372 0.146300
vt 0.732875 0.169728
vt 0.794335 0.169804
vt 0.795376 0.145614
vt 0.733896 0.145590
vt 0.605093 0.169424
vt 0.606055 0.145336
vt 0.857483 0.167913
vt 0.858115 0.147975
vt 0.000681 0.173277
vt 0.064812 0.169481
vt 0.065124 0.148939
vt 0.000000 0.146462
vt 0.669220 0.167230
vt 0.669710 0.147732
vn -0.3827 -0.0070 -0.9239
vn 0.0039 -0.0066 -1.0000
vn -0.7098 -0.0066 -0.7043
vn -0.9239 -0.0062 -0.3827
vn -1.0000 -0.0062 -0.0000
vn -0.9239 -0.0062 0.3827
vn -0.7071 -0.0062 0.7071
vn -0.3849 -0.0064 0.9229
vn 0.0000 -0.0067 1.0000
vn 0.3849 -0.0064 0.9229
vn 0.7046 -0.0066 0.7096
vn 0.9239 -0.0069 0.3827
vn 1.0000 -0.0065 -0.0036
vn 0.9254 -0.0066 -0.3789
vn 0.7071 -0.0071 -0.7071
vn 0.3789 -0.0066 -0.9254
vn 0.0000 1.0000 -0.0000
vn -0.0056 0.9996 0.0280
vn 0.0103 0.9999 0.0043
vn -0.0000 -1.0000 -0.0000
vn -0.0056 -0.9996 0.0280
vn -0.0184 -0.9995 -0.0276
vn -0.0184 0.9995 -0.0275
vn 0.0188 -0.9998 0.0037
vn 0.0092 -0.9999 -0.0092
vn 0.0188 0.9998 0.0037
vn -0.0305 -0.9995 0.0061
vn -0.0047 -0.9999 -0.0112
vn 0.0092 0.9999 -0.0092
vn 0.0000 -1.0000 0.0075
vn -0.0046 0.9999 -0.0112
vn -0.0305 0.9995 0.0061
vn 0.0276 -0.9995 0.0184
vn 0.0000 1.0000 0.0075
vn 0.0259 -0.9995 -0.0173
vn 0.0275 0.9995 0.0184
vn -0.0188 -0.9998 0.0037
vn 0.0258 0.9995 -0.0173
vn -0.0188 0.9998 0.0037
vn 0.0159 -0.9996 -0.0238
vn 0.0159 0.9996 -0.0237
vn 0.0103 -0.9999 0.0043
vn 0.3827 0.0065 0.9239
vn -0.0042 0.0061 1.0000
vn 0.7100 0.0061 0.7041
vn 0.9239 0.0058 0.3827
vn 1.0000 0.0058 -0.0000
vn 0.9239 0.0058 -0.3827
vn 0.7071 0.0058 -0.7071
vn 0.2940 0.0062 -0.9558
vn -0.7693 0.0063 -0.6389
vn -0.2940 0.0062 -0.9558
vn -0.8851 0.0064 0.4654
vn -0.9957 0.0063 -0.0922
vn -0.4654 0.0064 0.8851
vn -0.9239 0.0065 -0.3827
vn 0.0000 0.0062 -1.0000
vn -0.7071 0.0066 0.7071
usemtl BarrelMaterial.002
s 1
f 1/1/1 2/2/1 3/3/2 4/4/2
f 5/5/3 6/6/3 2/2/1 1/1/1
f 7/7/4 8/8/4 6/6/3 5/5/3
f 9/9/5 10/10/5 8/8/4 7/7/4
f 11/11/6 12/12/6 10/10/5 9/9/5
f 13/13/7 14/14/7 12/12/6 11/11/6
f 15/15/8 16/16/8 14/14/7 13/13/7
f 17/17/9 18/18/9 16/16/8 15/15/8
f 19/19/10 20/20/10 18/18/9 17/17/9
f 21/21/11 22/22/11 20/23/10 19/24/10
f 23/25/12 24/26/12 22/22/11 21/21/11
f 25/27/13 26/28/13 24/26/12 23/25/12
f 27/29/14 28/30/14 26/28/13 25/27/13
f 29/31/15 30/32/15 28/30/14 27/29/14
f 31/33/16 32/34/16 30/32/15 29/31/15
f 4/4/2 3/3/2 32/34/16 31/33/16
f 33/35/17 34/36/17 10/10/17 12/12/17
f 35/37/18 36/38/19 24/26/19 26/28/18
f 37/39/20 38/40/20 13/13/20 11/11/20
f 39/41/21 40/42/22 27/29/22 25/27/21
f 41/43/17 33/35/17 12/12/17 14/14/17
f 42/44/23 35/37/18 26/28/18 28/30/23
f 38/40/20 43/45/24 15/15/24 13/13/20
f 40/42/22 44/46/25 29/31/25 27/29/22
f 45/47/26 41/43/17 14/14/17 16/16/26
f 46/48/27 47/49/28 1/1/28 4/4/27
f 48/50/29 42/44/23 28/30/23 30/32/29
f 43/45/24 49/51/30 17/17/30 15/15/24
f 50/52/31 51/53/32 3/3/32 2/2/31
f 44/46/25 52/54/33 31/33/33 29/31/25
f 53/55/34 45/47/26 16/16/26 18/18/34
f 47/49/28 54/56/35 5/5/35 1/1/28
f 55/57/36 48/50/29 30/32/29 32/34/36
f 49/51/30 56/58/37 19/19/37 17/17/30
f 57/59/38 50/52/31 2/2/31 6/6/38
f 52/54/33 46/48/27 4/4/27 31/33/33
f 58/60/39 53/55/34 18/18/34 20/20/39
f 54/56/35 59/61/20 7/7/20 5/5/35
f 51/53/32 55/57/36 32/34/36 3/3/32
f 56/62/37 60/63/40 21/21/40 19/24/37
f 61/64/17 57/59/38 6/6/38 8/8/17
f 62/65/41 58/66/39 20/23/39 22/22/41
f 59/61/20 63/67/20 9/9/20 7/7/20
f 60/63/40 64/68/42 23/25/42 21/21/40
f 34/36/17 61/64/17 8/8/17 10/10/17
f 36/38/19 62/65/41 22/22/41 24/26/19
f 63/67/20 37/39/20 11/11/20 9/9/20
f 64/68/42 39/41/21 25/27/21 23/25/42
f 47/69/43 46/70/44 51/71/44 50/72/43
f 54/73/45 47/69/43 50/72/43 57/74/45
f 59/75/46 54/73/45 57/74/45 61/76/46
f 63/77/47 59/75/46 61/76/46 34/78/47
f 37/79/48 63/77/47 34/78/47 33/80/48
f 38/81/49 37/79/48 33/80/48 41/82/49
f 43/83/50 38/81/49 41/82/49 45/84/50
f 60/85/51 56/86/52 58/87/52 62/88/51
f 40/89/53 39/90/54 35/91/54 42/92/53
f 46/70/44 52/93/55 55/94/55 51/71/44
f 39/90/54 64/95/56 60/85/51 62/88/51 36/96/56 35/91/54
f 56/97/52 49/98/57 43/83/50 45/84/50 53/99/57 58/100/52
f 52/93/55 44/101/58 40/89/53 42/92/53 48/102/58 55/94/55
