# Blender v2.79 (sub 0) OBJ File: 'barrelsOGA (copy).blend'
# www.blender.org
mtllib barrelsOGA_5.mtl
o barrel2_Circle
v -0.960404 0.031102 -0.285325
v -0.996486 0.031102 0.103925
v -0.880863 0.031102 0.477352
v -0.631136 0.031102 0.778107
v -0.285325 0.031102 0.960402
v 0.103924 0.031102 0.996485
v 0.477352 0.031102 0.880862
v 0.778107 0.031102 0.631135
v 0.960402 0.031102 0.285324
v 0.996485 0.031102 -0.103925
v 0.880862 0.031102 -0.477353
v 0.631135 0.031102 -0.778108
v 0.285323 0.031102 -0.960403
v -0.103926 0.031102 -0.996486
v -0.477354 0.031102 -0.880862
v -0.778109 0.031102 -0.631135
v -0.960404 2.723536 -0.285325
v -0.996486 2.723536 0.103925
v -0.880863 2.723536 0.477352
v -0.631136 2.723536 0.778107
v -0.285325 2.723536 0.960402
v 0.103924 2.723536 0.996485
v 0.477352 2.723536 0.880862
v 0.778107 2.723536 0.631135
v 0.960402 2.723536 0.285324
v 0.996485 2.723536 -0.103925
v 0.880862 2.723536 -0.477353
v 0.631135 2.723536 -0.778108
v 0.285323 2.723536 -0.960403
v -0.103926 2.723536 -0.996486
v -0.477354 2.723536 -0.880862
v -0.778109 2.723536 -0.631135
v 0.549731 1.377319 1.014424
v 0.896089 1.377319 0.726832
v -0.328588 1.377319 1.106025
v 0.119682 1.377319 1.147579
v -0.896091 1.377319 -0.726833
v -1.106027 1.377319 -0.328587
v -1.014425 1.377319 0.549732
v -0.726834 1.377319 0.896089
v -0.119684 1.377319 -1.147580
v -0.549734 1.377319 -1.014425
v -1.147581 1.377319 0.119682
v 0.726832 1.377319 -0.896090
v 0.328586 1.377319 -1.106026
v 1.147579 1.377319 -0.119683
v 1.014424 1.377319 -0.549732
v 1.106025 1.377319 0.328587
v 0.847271 2.110259 0.687235
v 0.113162 2.110259 1.085060
v -1.045772 2.110259 -0.310686
v -0.687236 2.110259 0.847272
v -0.519785 2.110259 -0.959160
v -1.085062 2.110259 0.113162
v 0.310685 2.110259 -1.045771
v 0.959159 2.110259 -0.519784
v 1.045770 2.110259 0.310686
v 0.519783 2.110259 0.959159
v -0.310687 2.110259 1.045770
v -0.847273 2.110259 -0.687236
v -0.959161 2.110259 0.519783
v -0.113164 2.110259 -1.085061
v 0.687235 2.110259 -0.847272
v 1.085060 2.110259 -0.113163
v 0.519783 0.644379 0.959159
v -0.310687 0.644379 1.045770
v -0.847273 0.644379 -0.687236
v -0.959161 0.644379 0.519783
v -0.113164 0.644379 -1.085061
v 0.687235 0.644379 -0.847272
v 1.085060 0.644379 -0.113163
v 0.847271 0.644379 0.687235
v 0.113162 0.644379 1.085060
v -1.045772 0.644379 -0.310686
v -0.687236 0.644379 0.847272
v -0.519785 0.644379 -0.959160
v -1.085062 0.644379 0.113162
v 0.310685 0.644379 -1.045771
v 0.959159 0.644379 -0.519784
v 1.045770 0.644379 0.310686
v -0.864509 2.723536 -0.256835
v -0.896989 2.723536 0.093548
v -0.792910 2.723536 0.429689
v -0.568119 2.723536 0.700414
v -0.256836 2.723536 0.864508
v 0.093548 2.723536 0.896987
v 0.429689 2.723536 0.792909
v 0.700414 2.723536 0.568117
v 0.864507 2.723536 0.256835
v 0.896987 2.723536 -0.093548
v 0.792908 2.723536 -0.429690
v 0.568117 2.723536 -0.700415
v 0.256834 2.723536 -0.864508
v -0.093549 2.723536 -0.896988
v -0.429691 2.723536 -0.792910
v -0.700416 2.723536 -0.568117
v -0.857601 2.619002 -0.254783
v -0.889821 2.619002 0.092800
v -0.786574 2.619002 0.426256
v -0.563579 2.619002 0.694817
v -0.254784 2.619002 0.857599
v 0.092800 2.619002 0.889820
v 0.426255 2.619002 0.786573
v 0.694817 2.619002 0.563577
v 0.857599 2.619002 0.254782
v 0.889819 2.619002 -0.092801
v 0.786572 2.619002 -0.426256
v 0.563577 2.619002 -0.694818
v 0.254782 2.619002 -0.857600
v -0.092802 2.619002 -0.889820
v -0.426257 2.619002 -0.786573
v -0.694819 2.619002 -0.563578
v -0.000001 2.619003 -0.000000
v -0.866599 0.031102 -0.257456
v -0.899157 0.031102 0.093774
v -0.794827 0.031102 0.430728
v -0.569492 0.031102 0.702108
v -0.257457 0.031102 0.866598
v 0.093774 0.031102 0.899156
v 0.430728 0.031102 0.794826
v 0.702107 0.031102 0.569491
v 0.866597 0.031102 0.257456
v 0.899155 0.031102 -0.093775
v 0.794825 0.031102 -0.430729
v 0.569490 0.031102 -0.702108
v 0.257455 0.031102 -0.866598
v -0.093776 0.031102 -0.899157
v -0.430729 0.031102 -0.794826
v -0.702109 0.031102 -0.569491
v -0.866599 0.158659 -0.257456
v -0.899157 0.158659 0.093774
v -0.794827 0.158659 0.430728
v -0.569492 0.158659 0.702108
v -0.257457 0.158659 0.866598
v 0.093774 0.158659 0.899156
v 0.430728 0.158659 0.794826
v 0.702107 0.158659 0.569491
v 0.866597 0.158659 0.257456
v 0.899155 0.158659 -0.093775
v 0.794825 0.158659 -0.430729
v 0.569490 0.158659 -0.702108
v 0.257455 0.158659 -0.866598
v -0.093776 0.158659 -0.899157
v -0.430729 0.158659 -0.794826
v -0.702109 0.158659 -0.569491
v -0.000001 0.158659 -0.000000
vt 0.357105 0.858847
vt 0.438205 0.858849
vt 0.434893 0.976873
vt 0.360413 0.976871
vt 0.061431 0.859071
vt 0.142531 0.859071
vt 0.139221 0.977095
vt 0.064741 0.977095
vt 0.161833 0.859199
vt 0.242933 0.859199
vt 0.239623 0.977223
vt 0.165143 0.977223
vt 0.455666 0.857359
vt 0.536766 0.857359
vt 0.533456 0.975382
vt 0.459342 0.977234
vt 0.258045 0.859677
vt 0.339144 0.859677
vt 0.335834 0.977701
vt 0.261355 0.977439
vt 0.258024 0.859663
vt 0.339124 0.859664
vt 0.335812 0.977688
vt 0.261123 0.977268
vt 0.061456 0.859037
vt 0.142556 0.859066
vt 0.139205 0.977088
vt 0.064725 0.977063
vt 0.258059 0.859705
vt 0.339159 0.859705
vt 0.335848 0.977729
vt 0.261369 0.975435
vt 0.455637 0.857315
vt 0.536737 0.857315
vt 0.533428 0.975339
vt 0.458948 0.976875
vt 0.161858 0.859191
vt 0.242958 0.859191
vt 0.239648 0.977214
vt 0.165168 0.977214
vt 0.061348 0.859120
vt 0.142448 0.859120
vt 0.139137 0.977143
vt 0.064868 0.975150
vt 0.357097 0.858923
vt 0.438196 0.858923
vt 0.434886 0.976947
vt 0.360092 0.977891
vt 0.357063 0.858952
vt 0.438163 0.858952
vt 0.434852 0.976976
vt 0.360268 0.977920
vt 0.161886 0.859199
vt 0.242986 0.859203
vt 0.239671 0.977227
vt 0.165191 0.977223
vt 0.357074 0.858944
vt 0.438174 0.858944
vt 0.434863 0.976968
vt 0.359073 0.978410
vt 0.455669 0.857382
vt 0.536769 0.857380
vt 0.533461 0.975404
vt 0.458981 0.975405
vt 0.357109 0.578575
vt 0.438209 0.578576
vt 0.440543 0.718712
vt 0.354771 0.718711
vt 0.061431 0.578799
vt 0.142531 0.578799
vt 0.144867 0.718935
vt 0.059095 0.718935
vt 0.161833 0.578927
vt 0.242933 0.578927
vt 0.245269 0.719063
vt 0.159497 0.719063
vt 0.455667 0.578725
vt 0.536767 0.577087
vt 0.539103 0.717223
vt 0.454559 0.718861
vt 0.258044 0.579405
vt 0.339144 0.579405
vt 0.341481 0.719541
vt 0.255872 0.719050
vt 0.258026 0.579391
vt 0.339126 0.579392
vt 0.341461 0.719528
vt 0.255279 0.718708
vt 0.061553 0.578766
vt 0.142652 0.578793
vt 0.144941 0.718930
vt 0.059168 0.718901
vt 0.257895 0.578122
vt 0.339158 0.579433
vt 0.341495 0.719569
vt 0.256247 0.716817
vt 0.457276 0.578681
vt 0.536737 0.577043
vt 0.539073 0.717178
vt 0.453710 0.718817
vt 0.161858 0.578919
vt 0.242958 0.578919
vt 0.245295 0.719055
vt 0.159522 0.719055
vt 0.061758 0.577823
vt 0.142448 0.578847
vt 0.144784 0.718984
vt 0.059421 0.717141
vt 0.357097 0.578652
vt 0.438197 0.578652
vt 0.440533 0.718787
vt 0.354760 0.719607
vt 0.357063 0.579500
vt 0.438163 0.578680
vt 0.440499 0.718817
vt 0.355054 0.719472
vt 0.161900 0.578927
vt 0.242999 0.578931
vt 0.245329 0.719067
vt 0.159557 0.719063
vt 0.357074 0.578672
vt 0.438174 0.578672
vt 0.440510 0.718808
vt 0.354737 0.719832
vt 0.455664 0.577109
vt 0.536764 0.577108
vt 0.539103 0.717244
vt 0.453330 0.717245
vt 0.453535 0.718246
vt 0.455666 0.859816
vt 0.255708 0.719541
vt 0.255689 0.719527
vt 0.253674 0.715985
vt 0.258059 0.857913
vt 0.453621 0.718458
vt 0.458837 0.859875
vt 0.059780 0.716936
vt 0.061092 0.857584
vt 0.354760 0.718787
vt 0.356892 0.860152
vt 0.354726 0.718816
vt 0.356858 0.859771
vt 0.354737 0.718808
vt 0.360420 0.460552
vt 0.434900 0.460553
vt 0.064741 0.460776
vt 0.139221 0.460776
vt 0.165143 0.460903
vt 0.239623 0.460903
vt 0.457798 0.460898
vt 0.533457 0.459063
vt 0.455667 0.577086
vt 0.261040 0.460752
vt 0.335834 0.461381
vt 0.261253 0.460949
vt 0.335816 0.461368
vt 0.064903 0.460744
vt 0.139383 0.460769
vt 0.260027 0.458054
vt 0.335848 0.461410
vt 0.258059 0.579433
vt 0.458031 0.461116
vt 0.533428 0.459020
vt 0.455638 0.577042
vt 0.165168 0.460895
vt 0.239648 0.460895
vt 0.064396 0.458857
vt 0.139138 0.460823
vt 0.061348 0.578847
vt 0.359778 0.461677
vt 0.434887 0.460628
vt 0.359849 0.461601
vt 0.434853 0.460657
vt 0.357063 0.578680
vt 0.165216 0.460904
vt 0.239695 0.460907
vt 0.359729 0.461567
vt 0.434864 0.460649
vt 0.458972 0.459086
vt 0.533451 0.459085
vt 0.417608 0.181661
vt 0.446633 0.110956
vt 0.462465 0.121660
vt 0.436394 0.185544
vt 0.446807 0.329206
vt 0.417653 0.258296
vt 0.436536 0.254753
vt 0.462918 0.318762
vt 0.768981 0.329137
vt 0.716688 0.383541
vt 0.706111 0.367844
vt 0.753110 0.318919
vt 0.571029 0.413066
vt 0.500673 0.383581
vt 0.511548 0.367820
vt 0.574986 0.394407
vt 0.792582 0.183738
vt 0.795432 0.258647
vt 0.776875 0.255466
vt 0.773981 0.187323
vt 0.647003 0.413066
vt 0.643415 0.394413
vt 0.714038 0.058145
vt 0.765570 0.113112
vt 0.749422 0.122973
vt 0.703022 0.073429
vt 0.570066 0.027930
vt 0.645189 0.028106
vt 0.641159 0.046482
vt 0.573588 0.046485
vt 0.500235 0.056964
vt 0.510700 0.072831
vt 0.692031 0.089474
vt 0.637504 0.065531
vt 0.577766 0.065571
vt 0.521981 0.088953
vt 0.479162 0.132304
vt 0.455970 0.189056
vt 0.456021 0.250581
vt 0.479351 0.307525
vt 0.694795 0.351902
vt 0.736467 0.308790
vt 0.522421 0.351222
vt 0.578621 0.374999
vt 0.757598 0.252738
vt 0.754448 0.191596
vt 0.639245 0.375220
vt 0.732892 0.133564
vt 0.045038 0.106918
vt 0.099424 0.051510
vt 0.109914 0.067285
vt 0.060873 0.117555
vt 0.370132 0.109961
vt 0.398640 0.181832
vt 0.380109 0.185563
vt 0.354013 0.119843
vt 0.401853 0.258430
vt 0.375076 0.330608
vt 0.359194 0.320438
vt 0.383310 0.255310
vt 0.321696 0.386430
vt 0.250342 0.416761
vt 0.246754 0.398092
vt 0.311101 0.370744
vt 0.172457 0.416761
vt 0.100325 0.386457
vt 0.111247 0.370688
vt 0.176441 0.398080
vt 0.045149 0.330599
vt 0.015363 0.257826
vt 0.034276 0.254312
vt 0.061309 0.320171
vt 0.170628 0.021680
vt 0.247548 0.022329
vt 0.243399 0.040670
vt 0.174096 0.040209
vt 0.015400 0.179288
vt 0.034186 0.183180
vt 0.317800 0.053484
vt 0.306703 0.068678
vt 0.058244 0.187473
vt 0.058240 0.249197
vt 0.293143 0.088260
vt 0.238777 0.064016
vt 0.123812 0.086912
vt 0.081432 0.130518
vt 0.356229 0.191064
vt 0.333605 0.132933
vt 0.338756 0.308088
vt 0.359684 0.252065
vt 0.241619 0.374519
vt 0.297181 0.351206
vt 0.124639 0.350289
vt 0.180919 0.374225
vt 0.081539 0.306371
vt 0.179151 0.063550
vt 0.125907 0.340437
vt 0.085245 0.299775
vt 0.207787 0.217895
vt 0.352336 0.246647
vt 0.330330 0.299775
vt 0.330330 0.136014
vt 0.352336 0.189142
vt 0.236540 0.073346
vt 0.289667 0.095352
vt 0.125907 0.095352
vt 0.179034 0.073346
vt 0.063238 0.189142
vt 0.085245 0.136015
vt 0.236540 0.362444
vt 0.179034 0.362444
vt 0.063238 0.246647
vt 0.289667 0.340437
vt 0.459697 0.190994
vt 0.481925 0.137332
vt 0.605701 0.220036
vt 0.688405 0.096260
vt 0.729476 0.137331
vt 0.522996 0.096260
vt 0.576659 0.074032
vt 0.751704 0.190994
vt 0.751704 0.249078
vt 0.729476 0.302740
vt 0.688405 0.343812
vt 0.634743 0.366039
vt 0.576659 0.366039
vt 0.522996 0.343811
vt 0.481925 0.302740
vt 0.459697 0.249078
vt 0.634742 0.074032
vn 0.6324 0.1410 0.7617
vn -0.0914 0.1410 0.9858
vn -0.8758 0.1410 -0.4617
vn -0.7617 0.1410 0.6324
vn -0.2928 0.1410 -0.9457
vn -0.9858 0.1410 -0.0914
vn 0.4617 0.1410 -0.8758
vn 0.9457 0.1410 -0.2928
vn 0.8758 0.1410 0.4617
vn 0.2928 0.1410 0.9457
vn -0.4617 0.1410 0.8758
vn -0.6324 0.1410 -0.7617
vn -0.9457 0.1410 0.2928
vn 0.0914 0.1410 -0.9858
vn 0.7617 0.1410 -0.6324
vn 0.9858 0.1410 0.0914
vn 0.6366 -0.0838 0.7666
vn -0.0920 -0.0838 0.9922
vn -0.8815 -0.0838 -0.4647
vn -0.7666 -0.0838 0.6366
vn -0.2947 -0.0838 -0.9519
vn -0.9922 -0.0838 -0.0920
vn 0.4647 -0.0838 -0.8815
vn 0.9519 -0.0838 -0.2947
vn 0.8815 -0.0838 0.4647
vn 0.2947 -0.0838 0.9519
vn -0.4647 -0.0838 0.8815
vn -0.6366 -0.0838 -0.7666
vn -0.9519 -0.0838 0.2947
vn 0.0920 -0.0838 -0.9922
vn 0.7666 -0.0838 -0.6366
vn 0.9922 -0.0838 0.0920
vn 0.6366 0.0838 0.7666
vn -0.0920 0.0838 0.9922
vn -0.8815 0.0838 -0.4647
vn -0.7666 0.0838 0.6366
vn -0.2947 0.0838 -0.9519
vn -0.9922 0.0838 -0.0920
vn 0.4647 0.0838 -0.8815
vn 0.9519 0.0838 -0.2947
vn 0.8815 0.0838 0.4647
vn 0.2947 0.0838 0.9519
vn -0.4647 0.0838 0.8815
vn -0.6366 0.0838 -0.7666
vn -0.9519 0.0838 0.2947
vn 0.0920 0.0838 -0.9922
vn 0.7666 0.0838 -0.6366
vn 0.9922 0.0838 0.0920
vn 0.6324 -0.1410 0.7617
vn -0.0914 -0.1410 0.9858
vn -0.8758 -0.1410 -0.4617
vn -0.7617 -0.1410 0.6324
vn -0.2928 -0.1410 -0.9457
vn -0.9858 -0.1410 -0.0914
vn 0.4617 -0.1410 -0.8758
vn 0.9457 -0.1410 -0.2928
vn 0.8758 -0.1410 0.4617
vn 0.2928 -0.1410 0.9457
vn -0.4617 -0.1410 0.8758
vn -0.6324 -0.1410 -0.7617
vn -0.9457 -0.1410 0.2928
vn 0.0914 -0.1410 -0.9858
vn 0.7617 -0.1410 -0.6324
vn 0.9858 -0.1410 0.0914
vn 0.0000 1.0000 -0.0000
vn -0.7676 0.0675 0.6374
vn -0.9935 0.0675 -0.0921
vn -0.6374 0.0675 -0.7676
vn 0.0921 0.0675 -0.9935
vn 0.8826 0.0675 0.4653
vn 0.7676 0.0675 -0.6374
vn 0.2951 0.0675 0.9531
vn 0.9935 0.0675 0.0921
vn -0.4653 0.0675 0.8826
vn -0.9531 0.0675 0.2951
vn -0.8826 0.0675 -0.4653
vn -0.2951 0.0675 -0.9531
vn 0.4653 0.0675 -0.8826
vn 0.6374 0.0675 0.7676
vn 0.9531 0.0675 -0.2951
vn -0.0921 0.0675 0.9935
vn 0.0000 -1.0000 0.0000
vn 0.7694 0.0000 -0.6388
vn 0.2958 0.0000 0.9553
vn 0.9957 0.0000 0.0923
vn -0.4663 0.0000 0.8846
vn -0.9553 0.0000 0.2958
vn -0.8846 0.0000 -0.4663
vn -0.2958 0.0000 -0.9553
vn 0.4663 0.0000 -0.8846
vn 0.6388 0.0000 0.7694
vn 0.9553 0.0000 -0.2958
vn -0.0923 0.0000 0.9957
vn -0.7694 0.0000 0.6388
vn -0.9957 0.0000 -0.0923
vn -0.6388 0.0000 -0.7694
vn 0.0923 0.0000 -0.9957
vn 0.8846 0.0000 0.4663
usemtl barrel
s off
f 58/1/1 49/2/1 24/3/1 23/4/1
f 59/5/2 50/6/2 22/7/2 21/8/2
f 60/9/3 51/10/3 17/11/3 32/12/3
f 61/13/4 52/14/4 20/15/4 19/16/4
f 62/17/5 53/18/5 31/19/5 30/20/5
f 51/21/6 54/22/6 18/23/6 17/24/6
f 63/25/7 55/26/7 29/27/7 28/28/7
f 64/29/8 56/30/8 27/31/8 26/32/8
f 49/33/9 57/34/9 25/35/9 24/36/9
f 50/37/10 58/38/10 23/39/10 22/40/10
f 52/41/11 59/42/11 21/43/11 20/44/11
f 53/45/12 60/46/12 32/47/12 31/48/12
f 54/49/13 61/50/13 19/51/13 18/52/13
f 55/53/14 62/54/14 30/55/14 29/56/14
f 56/57/15 63/58/15 28/59/15 27/60/15
f 57/61/16 64/62/16 26/63/16 25/64/16
f 65/65/17 72/66/17 34/67/17 33/68/17
f 66/69/18 73/70/18 36/71/18 35/72/18
f 67/73/19 74/74/19 38/75/19 37/76/19
f 68/77/20 75/78/20 40/79/20 39/80/20
f 69/81/21 76/82/21 42/83/21 41/84/21
f 74/85/22 77/86/22 43/87/22 38/88/22
f 70/89/23 78/90/23 45/91/23 44/92/23
f 71/93/24 79/94/24 47/95/24 46/96/24
f 72/97/25 80/98/25 48/99/25 34/100/25
f 73/101/26 65/102/26 33/103/26 36/104/26
f 75/105/27 66/106/27 35/107/27 40/108/27
f 76/109/28 67/110/28 37/111/28 42/112/28
f 77/113/29 68/114/29 39/115/29 43/116/29
f 78/117/30 69/118/30 41/119/30 45/120/30
f 79/121/31 70/122/31 44/123/31 47/124/31
f 80/125/32 71/126/32 46/127/32 48/128/32
f 33/68/33 34/67/33 49/2/33 58/1/33
f 35/72/34 36/71/34 50/6/34 59/5/34
f 37/76/35 38/75/35 51/10/35 60/9/35
f 39/129/36 40/79/36 52/14/36 61/130/36
f 41/131/37 42/83/37 53/18/37 62/17/37
f 38/132/38 43/87/38 54/22/38 51/21/38
f 44/92/39 45/91/39 55/26/39 63/25/39
f 46/133/40 47/95/40 56/30/40 64/134/40
f 34/135/41 48/99/41 57/34/41 49/136/41
f 36/104/42 33/103/42 58/38/42 50/37/42
f 40/137/43 35/107/43 59/42/43 52/138/43
f 42/139/44 37/111/44 60/46/44 53/140/44
f 43/141/45 39/115/45 61/50/45 54/142/45
f 45/120/46 41/119/46 62/54/46 55/53/46
f 47/143/47 44/123/47 63/58/47 56/57/47
f 48/128/48 46/127/48 64/62/48 57/61/48
f 7/144/49 8/145/49 72/66/49 65/65/49
f 5/146/50 6/147/50 73/70/50 66/69/50
f 16/148/51 1/149/51 74/74/51 67/73/51
f 3/150/52 4/151/52 75/78/52 68/152/52
f 14/153/53 15/154/53 76/82/53 69/81/53
f 1/155/54 2/156/54 77/86/54 74/85/54
f 12/157/55 13/158/55 78/90/55 70/89/55
f 10/159/56 11/160/56 79/94/56 71/161/56
f 8/162/57 9/163/57 80/98/57 72/164/57
f 6/165/58 7/166/58 65/102/58 73/101/58
f 4/167/59 5/168/59 66/106/59 75/169/59
f 15/170/60 16/171/60 67/110/60 76/109/60
f 2/172/61 3/173/61 68/114/61 77/174/61
f 13/175/62 14/176/62 69/118/62 78/117/62
f 11/177/63 12/178/63 70/122/63 79/121/63
f 9/179/64 10/180/64 71/126/64 80/125/64
f 23/181/65 24/182/65 88/183/65 87/184/65
f 21/185/65 22/186/65 86/187/65 85/188/65
f 32/189/65 17/190/65 81/191/65 96/192/65
f 19/193/65 20/194/65 84/195/65 83/196/65
f 30/197/65 31/198/65 95/199/65 94/200/65
f 17/190/65 18/201/65 82/202/65 81/191/65
f 28/203/65 29/204/65 93/205/65 92/206/65
f 26/207/65 27/208/65 91/209/65 90/210/65
f 24/182/65 25/211/65 89/212/65 88/183/65
f 22/186/65 23/181/65 87/184/65 86/187/65
f 20/194/65 21/185/65 85/188/65 84/195/65
f 31/198/65 32/189/65 96/192/65 95/199/65
f 18/201/65 19/193/65 83/196/65 82/202/65
f 29/204/65 30/197/65 94/200/65 93/205/65
f 27/208/65 28/203/65 92/206/65 91/209/65
f 25/211/65 26/207/65 90/210/65 89/212/65
f 91/209/66 92/206/66 108/213/66 107/214/66
f 89/212/67 90/210/67 106/215/67 105/216/67
f 87/184/68 88/183/68 104/217/68 103/218/68
f 85/188/69 86/187/69 102/219/69 101/220/69
f 96/192/70 81/191/70 97/221/70 112/222/70
f 83/196/71 84/195/71 100/223/71 99/224/71
f 94/200/72 95/199/72 111/225/72 110/226/72
f 81/191/73 82/202/73 98/227/73 97/221/73
f 92/206/74 93/205/74 109/228/74 108/213/74
f 90/210/75 91/209/75 107/214/75 106/215/75
f 88/183/76 89/212/76 105/216/76 104/217/76
f 86/187/77 87/184/77 103/218/77 102/219/77
f 84/195/78 85/188/78 101/220/78 100/223/78
f 95/199/79 96/192/79 112/222/79 111/225/79
f 82/202/80 83/196/80 99/224/80 98/227/80
f 93/205/81 94/200/81 110/226/81 109/228/81
f 2/229/82 1/230/82 114/231/82 115/232/82
f 13/233/82 12/234/82 125/235/82 126/236/82
f 11/237/82 10/238/82 123/239/82 124/240/82
f 9/241/82 8/242/82 121/243/82 122/244/82
f 7/245/82 6/246/82 119/247/82 120/248/82
f 5/249/82 4/250/82 117/251/82 118/252/82
f 16/253/82 15/254/82 128/255/82 129/256/82
f 3/257/82 2/229/82 115/232/82 116/258/82
f 14/259/82 13/233/82 126/236/82 127/260/82
f 12/234/82 11/237/82 124/240/82 125/235/82
f 10/238/82 9/241/82 122/244/82 123/239/82
f 8/242/82 7/245/82 120/248/82 121/243/82
f 6/246/82 5/249/82 118/252/82 119/247/82
f 1/230/82 16/253/82 129/256/82 114/231/82
f 4/250/82 3/257/82 116/258/82 117/251/82
f 15/254/82 14/259/82 127/260/82 128/255/82
f 117/251/83 116/258/83 132/261/83 133/262/83
f 128/255/84 127/260/84 143/263/84 144/264/84
f 115/232/85 114/231/85 130/265/85 131/266/85
f 126/236/86 125/235/86 141/267/86 142/268/86
f 124/240/87 123/239/87 139/269/87 140/270/87
f 122/244/88 121/243/88 137/271/88 138/272/88
f 120/248/89 119/247/89 135/273/89 136/274/89
f 118/252/90 117/251/90 133/262/90 134/275/90
f 129/256/91 128/255/91 144/264/91 145/276/91
f 116/258/92 115/232/92 131/266/92 132/261/92
f 127/260/93 126/236/93 142/268/93 143/263/93
f 125/235/94 124/240/94 140/270/94 141/267/94
f 123/239/95 122/244/95 138/272/95 139/269/95
f 121/243/96 120/248/96 136/274/96 137/271/96
f 119/247/97 118/252/97 134/275/97 135/273/97
f 114/231/98 129/256/98 145/276/98 130/265/98
f 97/277/65 98/278/65 113/279/65
f 108/280/65 109/281/65 113/279/65
f 106/282/65 107/283/65 113/279/65
f 104/284/65 105/285/65 113/279/65
f 102/286/65 103/287/65 113/279/65
f 100/288/65 101/289/65 113/279/65
f 111/290/65 112/291/65 113/279/65
f 98/278/65 99/292/65 113/279/65
f 109/281/65 110/293/65 113/279/65
f 107/283/65 108/280/65 113/279/65
f 105/285/65 106/282/65 113/279/65
f 103/287/65 104/284/65 113/279/65
f 101/289/65 102/286/65 113/279/65
f 112/291/65 97/277/65 113/279/65
f 99/292/65 100/288/65 113/279/65
f 110/293/65 111/290/65 113/279/65
f 134/294/82 133/295/82 146/296/82
f 145/297/82 144/298/82 146/296/82
f 132/299/82 131/300/82 146/296/82
f 143/301/82 142/302/82 146/296/82
f 141/303/82 140/304/82 146/296/82
f 139/305/82 138/306/82 146/296/82
f 137/307/82 136/308/82 146/296/82
f 135/309/82 134/294/82 146/296/82
f 130/310/82 145/297/82 146/296/82
f 133/295/82 132/299/82 146/296/82
f 144/298/82 143/301/82 146/296/82
f 131/300/82 130/310/82 146/296/82
f 142/302/82 141/303/82 146/296/82
f 140/304/82 139/305/82 146/296/82
f 138/306/82 137/307/82 146/296/82
f 136/308/82 135/309/82 146/296/82
