# Blender v2.79 (sub 0) OBJ File: 'barrelsOGA.blend'
# www.blender.org
mtllib barrelsOGA_3.mtl
o Circle.005
v -0.538907 2.109628 0.948550
v -0.134892 2.109628 1.082575
v -0.123880 2.722906 0.994202
v -0.494917 2.722906 0.871118
v -1.051792 2.109628 0.289664
v -0.860880 2.109628 0.670117
v -0.790606 2.722906 0.615414
v -0.965934 2.722906 0.266018
v 0.134882 2.109628 -1.082575
v -0.289669 2.109628 -1.051787
v -0.266024 2.722906 -0.965929
v 0.123871 2.722906 -0.994203
v -0.948554 2.109628 -0.538903
v -1.082580 2.109628 -0.134887
v -0.994207 2.722906 -0.123876
v -0.871123 2.722906 -0.494911
v 0.860870 2.109628 -0.670117
v 0.538898 2.109628 -0.948550
v 0.494906 2.722906 -0.871118
v 0.790596 2.722906 -0.615414
v -0.670121 2.109628 -0.860875
v -0.615418 2.722906 -0.790601
v 1.082571 2.109628 0.134887
v 1.051783 2.109628 -0.289664
v 0.965924 2.722906 -0.266018
v 0.994198 2.722906 0.123876
v 0.670112 2.109628 0.860876
v 0.948545 2.109628 0.538903
v 0.871113 2.722906 0.494911
v 0.615409 2.722906 0.790601
v 0.289660 2.109628 1.051787
v 0.266013 2.722906 0.965929
v -0.538907 0.643749 0.948550
v -0.134892 0.643749 1.082575
v -0.142665 1.376689 1.144950
v -0.569958 1.376689 1.003203
v -1.051792 0.643749 0.289664
v -0.860880 0.643749 0.670117
v -0.910481 1.376689 0.708727
v -1.112394 1.376689 0.306354
v 0.134882 0.643749 -1.082575
v -0.289669 0.643749 -1.051787
v -0.306358 1.376689 -1.112389
v 0.142653 1.376689 -1.144950
v -0.948554 0.643749 -0.538903
v -1.082580 0.643749 -0.134887
v -1.144955 1.376689 -0.142659
v -1.003207 1.376689 -0.569953
v 0.860870 0.643749 -0.670117
v 0.538898 0.643749 -0.948550
v 0.569948 1.376689 -1.003203
v 0.910472 1.376689 -0.708727
v -0.670121 0.643749 -0.860875
v -0.708732 1.376689 -0.910477
v 1.082571 0.643749 0.134887
v 1.051783 0.643749 -0.289664
v 1.112385 1.376689 -0.306354
v 1.144945 1.376689 0.142659
v 0.670112 0.643749 0.860876
v 0.948545 0.643749 0.538903
v 1.003198 1.376689 0.569953
v 0.708722 1.376689 0.910477
v 0.289660 0.643749 1.051787
v 0.306349 1.376689 1.112389
v -0.494917 0.030471 0.871118
v -0.123880 0.030471 0.994202
v -0.965934 0.030471 0.266018
v -0.790606 0.030471 0.615414
v 0.123871 0.030471 -0.994203
v -0.266024 0.030471 -0.965929
v -0.871123 0.030471 -0.494911
v -0.994207 0.030471 -0.123876
v 0.790596 0.030471 -0.615414
v 0.494906 0.030471 -0.871118
v -0.615418 0.030471 -0.790601
v 0.994198 0.030471 0.123876
v 0.965924 0.030471 -0.266018
v 0.615409 0.030471 0.790601
v 0.871113 0.030471 0.494911
v 0.266013 0.030471 0.965929
v -0.111512 2.722906 0.894933
v -0.445499 2.722906 0.784138
v -0.711665 2.722906 0.553966
v -0.869487 2.722906 0.239457
v -0.239462 2.722906 -0.869482
v 0.111502 2.722906 -0.894933
v -0.894938 2.722906 -0.111507
v -0.784142 2.722906 -0.445495
v 0.445490 2.722906 -0.784138
v 0.711656 2.722906 -0.553966
v -0.553970 2.722906 -0.711660
v 0.869477 2.722906 -0.239457
v 0.894928 2.722906 0.111507
v 0.784133 2.722906 0.445495
v 0.553961 2.722906 0.711661
v 0.239452 2.722906 0.869482
v 0.887776 2.618372 0.110616
v 0.777867 2.618372 0.441935
v 0.549534 2.618372 0.705974
v 0.237538 2.618372 0.862534
v -0.110620 2.618372 0.887781
v -0.441940 2.618372 0.777872
v -0.705978 2.618372 0.549539
v -0.862538 2.618372 0.237543
v -0.237548 2.618372 -0.862534
v 0.110611 2.618372 -0.887781
v -0.887786 2.618372 -0.110616
v -0.777877 2.618372 -0.441935
v 0.441930 2.618372 -0.777872
v 0.705969 2.618372 -0.549539
v -0.549543 2.618372 -0.705973
v 0.862529 2.618372 -0.237543
v -0.240041 0.030471 -0.871584
v -0.555309 0.030471 -0.713381
v 0.897092 0.030471 0.111777
v 0.871579 0.030471 -0.240036
v 0.555300 0.030471 0.713381
v 0.786029 0.030471 0.446572
v -0.111781 0.030471 0.897096
v 0.240031 0.030471 0.871584
v -0.713386 0.030471 0.555305
v -0.446577 0.030471 0.786034
v -0.897101 0.030471 -0.111777
v -0.871589 0.030471 0.240036
v 0.446567 0.030471 -0.786034
v 0.111772 0.030471 -0.897096
v -0.786038 0.030471 -0.446572
v 0.713375 0.030471 -0.555305
v -0.786038 0.158028 -0.446572
v -0.897101 0.158028 -0.111777
v 0.713375 0.158028 -0.555305
v 0.446567 0.158028 -0.786034
v -0.240041 0.158028 -0.871584
v -0.555309 0.158028 -0.713381
v 0.897092 0.158028 0.111777
v 0.871579 0.158028 -0.240036
v 0.555300 0.158028 0.713381
v 0.786029 0.158028 0.446572
v -0.111781 0.158028 0.897096
v 0.240031 0.158028 0.871584
v -0.713386 0.158028 0.555305
v -0.446577 0.158028 0.786034
v -0.871589 0.158028 0.240036
v 0.111772 0.158028 -0.897096
v -0.000005 2.710255 0.000000
v -0.000005 0.158028 -0.000000
vt 0.357105 0.858847
vt 0.438205 0.858849
vt 0.434893 0.976873
vt 0.360413 0.976871
vt 0.061431 0.859071
vt 0.142531 0.859071
vt 0.139221 0.977095
vt 0.064741 0.977095
vt 0.161833 0.859199
vt 0.242933 0.859199
vt 0.239623 0.977223
vt 0.165143 0.977223
vt 0.455666 0.857359
vt 0.536766 0.857359
vt 0.533456 0.975382
vt 0.459342 0.977234
vt 0.258045 0.859677
vt 0.339144 0.859677
vt 0.335834 0.977701
vt 0.261355 0.977439
vt 0.258024 0.859663
vt 0.339124 0.859664
vt 0.335812 0.977688
vt 0.261123 0.977268
vt 0.061456 0.859037
vt 0.142556 0.859066
vt 0.139205 0.977088
vt 0.064725 0.977063
vt 0.258059 0.859705
vt 0.339159 0.859705
vt 0.335848 0.977729
vt 0.261369 0.975435
vt 0.455637 0.857315
vt 0.536737 0.857315
vt 0.533428 0.975339
vt 0.458948 0.976875
vt 0.161858 0.859191
vt 0.242958 0.859191
vt 0.239648 0.977214
vt 0.165168 0.977214
vt 0.061348 0.859120
vt 0.142448 0.859120
vt 0.139137 0.977143
vt 0.064868 0.975150
vt 0.357097 0.858923
vt 0.438196 0.858923
vt 0.434886 0.976947
vt 0.360092 0.977891
vt 0.357063 0.858952
vt 0.438163 0.858952
vt 0.434852 0.976976
vt 0.360268 0.977920
vt 0.161886 0.859199
vt 0.242986 0.859203
vt 0.239671 0.977227
vt 0.165191 0.977223
vt 0.357074 0.858944
vt 0.438174 0.858944
vt 0.434863 0.976968
vt 0.359073 0.978410
vt 0.455669 0.857382
vt 0.536769 0.857380
vt 0.533461 0.975404
vt 0.458981 0.975405
vt 0.357109 0.578575
vt 0.438209 0.578576
vt 0.440543 0.718712
vt 0.354771 0.718711
vt 0.061431 0.578799
vt 0.142531 0.578799
vt 0.144867 0.718935
vt 0.059095 0.718935
vt 0.161833 0.578927
vt 0.242933 0.578927
vt 0.245269 0.719063
vt 0.159497 0.719063
vt 0.455667 0.578725
vt 0.536767 0.577087
vt 0.539103 0.717223
vt 0.454559 0.718861
vt 0.258044 0.579405
vt 0.339144 0.579405
vt 0.341481 0.719541
vt 0.255872 0.719050
vt 0.258026 0.579391
vt 0.339126 0.579392
vt 0.341461 0.719528
vt 0.255279 0.718708
vt 0.061553 0.578766
vt 0.142652 0.578793
vt 0.144941 0.718930
vt 0.059168 0.718901
vt 0.257895 0.578122
vt 0.339158 0.579433
vt 0.341495 0.719569
vt 0.256247 0.716817
vt 0.457276 0.578681
vt 0.536737 0.577043
vt 0.539073 0.717178
vt 0.453710 0.718817
vt 0.161858 0.578919
vt 0.242958 0.578919
vt 0.245295 0.719055
vt 0.159522 0.719055
vt 0.061758 0.577823
vt 0.142448 0.578847
vt 0.144784 0.718984
vt 0.059421 0.717141
vt 0.357097 0.578652
vt 0.438197 0.578652
vt 0.440533 0.718787
vt 0.354760 0.719607
vt 0.357063 0.579500
vt 0.438163 0.578680
vt 0.440499 0.718817
vt 0.355054 0.719472
vt 0.161900 0.578927
vt 0.242999 0.578931
vt 0.245329 0.719067
vt 0.159557 0.719063
vt 0.357074 0.578672
vt 0.438174 0.578672
vt 0.440510 0.718808
vt 0.354737 0.719832
vt 0.455664 0.577109
vt 0.536764 0.577108
vt 0.539103 0.717244
vt 0.453330 0.717245
vt 0.453535 0.718246
vt 0.455666 0.859816
vt 0.255708 0.719541
vt 0.255689 0.719527
vt 0.253674 0.715985
vt 0.258059 0.857913
vt 0.453621 0.718458
vt 0.458837 0.859875
vt 0.059780 0.716936
vt 0.061092 0.857584
vt 0.354760 0.718787
vt 0.356892 0.860152
vt 0.354726 0.718816
vt 0.356858 0.859771
vt 0.354737 0.718808
vt 0.360420 0.460552
vt 0.434900 0.460553
vt 0.064741 0.460776
vt 0.139221 0.460776
vt 0.165143 0.460903
vt 0.239623 0.460903
vt 0.457798 0.460898
vt 0.533457 0.459063
vt 0.455667 0.577086
vt 0.261040 0.460752
vt 0.335834 0.461381
vt 0.261253 0.460949
vt 0.335816 0.461368
vt 0.064903 0.460744
vt 0.139383 0.460769
vt 0.260027 0.458054
vt 0.335848 0.461410
vt 0.258059 0.579433
vt 0.458031 0.461116
vt 0.533428 0.459020
vt 0.455638 0.577042
vt 0.165168 0.460895
vt 0.239648 0.460895
vt 0.064396 0.458857
vt 0.139138 0.460823
vt 0.061348 0.578847
vt 0.359778 0.461677
vt 0.434887 0.460628
vt 0.359849 0.461601
vt 0.434853 0.460657
vt 0.357063 0.578680
vt 0.165216 0.460904
vt 0.239695 0.460907
vt 0.359729 0.461567
vt 0.434864 0.460649
vt 0.458972 0.459086
vt 0.533451 0.459085
vt 0.417608 0.181661
vt 0.446633 0.110956
vt 0.462465 0.121660
vt 0.436394 0.185544
vt 0.446807 0.329206
vt 0.417653 0.258296
vt 0.436536 0.254753
vt 0.462918 0.318762
vt 0.768981 0.329137
vt 0.716688 0.383541
vt 0.706111 0.367844
vt 0.753110 0.318919
vt 0.571029 0.413066
vt 0.500673 0.383581
vt 0.511548 0.367820
vt 0.574986 0.394407
vt 0.792582 0.183738
vt 0.795432 0.258647
vt 0.776875 0.255466
vt 0.773981 0.187323
vt 0.647003 0.413066
vt 0.643415 0.394413
vt 0.714038 0.058145
vt 0.765570 0.113112
vt 0.749422 0.122973
vt 0.703022 0.073429
vt 0.570066 0.027930
vt 0.645189 0.028106
vt 0.641159 0.046482
vt 0.573588 0.046485
vt 0.500235 0.056964
vt 0.510700 0.072831
vt 0.692031 0.089474
vt 0.637504 0.065531
vt 0.577766 0.065571
vt 0.521981 0.088953
vt 0.479162 0.132304
vt 0.455970 0.189056
vt 0.456021 0.250581
vt 0.479351 0.307525
vt 0.694795 0.351902
vt 0.736467 0.308790
vt 0.522421 0.351222
vt 0.578621 0.374999
vt 0.757598 0.252738
vt 0.754448 0.191596
vt 0.639245 0.375220
vt 0.732892 0.133564
vt 0.045038 0.106918
vt 0.099424 0.051510
vt 0.109914 0.067285
vt 0.060873 0.117555
vt 0.370132 0.109961
vt 0.398640 0.181832
vt 0.380109 0.185563
vt 0.354013 0.119843
vt 0.401853 0.258430
vt 0.375076 0.330608
vt 0.359194 0.320438
vt 0.383310 0.255310
vt 0.321696 0.386430
vt 0.250342 0.416761
vt 0.246754 0.398092
vt 0.311101 0.370744
vt 0.172457 0.416761
vt 0.100325 0.386457
vt 0.111247 0.370688
vt 0.176441 0.398080
vt 0.045149 0.330599
vt 0.015363 0.257826
vt 0.034276 0.254312
vt 0.061309 0.320171
vt 0.170628 0.021680
vt 0.247548 0.022329
vt 0.243399 0.040670
vt 0.174096 0.040209
vt 0.015400 0.179288
vt 0.034186 0.183180
vt 0.317800 0.053484
vt 0.306703 0.068678
vt 0.058244 0.187473
vt 0.058240 0.249197
vt 0.293143 0.088260
vt 0.238777 0.064016
vt 0.123812 0.086912
vt 0.081432 0.130518
vt 0.356229 0.191064
vt 0.333605 0.132933
vt 0.338756 0.308088
vt 0.359684 0.252065
vt 0.241619 0.374519
vt 0.297181 0.351206
vt 0.124639 0.350289
vt 0.180919 0.374225
vt 0.081539 0.306371
vt 0.179151 0.063550
vt 0.728933 0.923933
vt 0.688271 0.883271
vt 0.810814 0.801390
vt 0.955362 0.830143
vt 0.933356 0.883271
vt 0.933356 0.719510
vt 0.955362 0.772638
vt 0.839566 0.656842
vt 0.892694 0.678848
vt 0.728933 0.678848
vt 0.782061 0.656842
vt 0.666265 0.772638
vt 0.688271 0.719510
vt 0.839566 0.945939
vt 0.782061 0.945939
vt 0.666265 0.830143
vt 0.892694 0.923933
vt 0.459697 0.190994
vt 0.481925 0.137332
vt 0.605701 0.220036
vt 0.688405 0.096260
vt 0.729476 0.137331
vt 0.522996 0.096260
vt 0.576659 0.074032
vt 0.751704 0.190994
vt 0.751704 0.249078
vt 0.729476 0.302740
vt 0.688405 0.343812
vt 0.634743 0.366039
vt 0.576659 0.366039
vt 0.522996 0.343811
vt 0.481925 0.302740
vt 0.459697 0.249078
vt 0.634742 0.074032
vn -0.3117 0.1410 0.9397
vn -0.8849 0.1410 0.4440
vn -0.0716 0.1410 -0.9874
vn -0.9397 0.1410 -0.3117
vn 0.6476 0.1410 -0.7488
vn -0.4440 0.1410 -0.8849
vn 0.9874 0.1410 -0.0716
vn 0.7488 0.1410 0.6476
vn 0.0716 0.1410 0.9874
vn -0.6476 0.1410 0.7488
vn -0.9874 0.1410 0.0716
vn 0.3117 0.1410 -0.9397
vn -0.7488 0.1410 -0.6476
vn 0.8849 0.1410 -0.4440
vn 0.9397 0.1410 0.3117
vn 0.4440 0.1410 0.8849
vn -0.3138 -0.0838 0.9458
vn -0.8906 -0.0838 0.4469
vn -0.0721 -0.0838 -0.9939
vn -0.9458 -0.0838 -0.3138
vn 0.6518 -0.0838 -0.7537
vn -0.4469 -0.0838 -0.8906
vn 0.9939 -0.0838 -0.0721
vn 0.7537 -0.0838 0.6518
vn 0.0721 -0.0838 0.9939
vn -0.6518 -0.0838 0.7537
vn -0.9939 -0.0838 0.0721
vn 0.3138 -0.0838 -0.9458
vn -0.7537 -0.0838 -0.6518
vn 0.8906 -0.0838 -0.4469
vn 0.9458 -0.0838 0.3138
vn 0.4469 -0.0838 0.8906
vn -0.3138 0.0838 0.9458
vn -0.8906 0.0838 0.4469
vn -0.0721 0.0838 -0.9939
vn -0.9458 0.0838 -0.3138
vn 0.6518 0.0838 -0.7537
vn -0.4469 0.0838 -0.8906
vn 0.9939 0.0838 -0.0721
vn 0.7537 0.0838 0.6518
vn 0.0721 0.0838 0.9939
vn -0.6518 0.0838 0.7537
vn -0.9939 0.0838 0.0721
vn 0.3138 0.0838 -0.9458
vn -0.7537 0.0838 -0.6518
vn 0.8906 0.0838 -0.4469
vn 0.9458 0.0838 0.3138
vn 0.4469 0.0838 0.8906
vn -0.3117 -0.1410 0.9397
vn -0.8849 -0.1410 0.4440
vn -0.0716 -0.1410 -0.9874
vn -0.9397 -0.1410 -0.3117
vn 0.6476 -0.1410 -0.7488
vn -0.4440 -0.1410 -0.8849
vn 0.9874 -0.1410 -0.0716
vn 0.7488 -0.1410 0.6476
vn 0.0716 -0.1410 0.9874
vn -0.6476 -0.1410 0.7488
vn -0.9874 -0.1410 0.0716
vn 0.3117 -0.1410 -0.9397
vn -0.7488 -0.1410 -0.6476
vn 0.8849 -0.1410 -0.4440
vn 0.9397 -0.1410 0.3117
vn 0.4440 -0.1410 0.8849
vn 0.0000 1.0000 -0.0000
vn -0.9470 0.0675 -0.3141
vn -0.4475 0.0675 -0.8917
vn 0.3141 0.0675 -0.9470
vn 0.8917 0.0675 -0.4475
vn 0.0722 0.0675 0.9951
vn 0.9470 0.0675 0.3141
vn -0.6526 0.0675 0.7547
vn 0.4475 0.0675 0.8917
vn -0.9951 0.0675 0.0722
vn -0.7547 0.0675 -0.6526
vn -0.0722 0.0675 -0.9951
vn 0.6526 0.0675 -0.7547
vn 0.9951 0.0675 -0.0722
vn -0.3141 0.0675 0.9470
vn 0.7547 0.0675 0.6526
vn -0.8917 0.0675 0.4475
vn 0.0000 -1.0000 0.0000
vn 0.9491 0.0000 0.3149
vn -0.6541 0.0000 0.7564
vn 0.4485 0.0000 0.8938
vn -0.9974 0.0000 0.0723
vn -0.7564 0.0000 -0.6541
vn -0.0723 0.0000 -0.9974
vn 0.6541 0.0000 -0.7564
vn 0.9974 0.0000 -0.0723
vn -0.3149 0.0000 0.9491
vn 0.7564 0.0000 0.6541
vn -0.8938 0.0000 0.4485
vn -0.9491 0.0000 -0.3149
vn -0.4485 0.0000 -0.8938
vn 0.3149 0.0000 -0.9491
vn 0.8938 0.0000 -0.4485
vn 0.0723 0.0000 0.9974
vn -0.0467 0.9946 -0.0931
vn 0.1039 0.9946 -0.0075
vn 0.0788 0.9946 0.0681
vn 0.0075 0.9946 0.1039
vn -0.0681 0.9946 0.0788
vn -0.1039 0.9946 0.0075
vn 0.0328 0.9946 -0.0988
vn -0.0788 0.9946 -0.0681
vn 0.0931 0.9946 -0.0467
vn 0.0988 0.9946 0.0328
vn 0.0467 0.9946 0.0931
vn -0.0328 0.9946 0.0988
vn -0.0931 0.9946 0.0467
vn -0.0075 0.9946 -0.1039
vn -0.0988 0.9946 -0.0328
vn 0.0681 0.9946 -0.0788
usemtl barrel.001
s 1
f 1/1/1 2/2/1 3/3/1 4/4/1
f 5/5/2 6/6/2 7/7/2 8/8/2
f 9/9/3 10/10/3 11/11/3 12/12/3
f 13/13/4 14/14/4 15/15/4 16/16/4
f 17/17/5 18/18/5 19/19/5 20/20/5
f 10/21/6 21/22/6 22/23/6 11/24/6
f 23/25/7 24/26/7 25/27/7 26/28/7
f 27/29/8 28/30/8 29/31/8 30/32/8
f 2/33/9 31/34/9 32/35/9 3/36/9
f 6/37/10 1/38/10 4/39/10 7/40/10
f 14/41/11 5/42/11 8/43/11 15/44/11
f 18/45/12 9/46/12 12/47/12 19/48/12
f 21/49/13 13/50/13 16/51/13 22/52/13
f 24/53/14 17/54/14 20/55/14 25/56/14
f 28/57/15 23/58/15 26/59/15 29/60/15
f 31/61/16 27/62/16 30/63/16 32/64/16
f 33/65/17 34/66/17 35/67/17 36/68/17
f 37/69/18 38/70/18 39/71/18 40/72/18
f 41/73/19 42/74/19 43/75/19 44/76/19
f 45/77/20 46/78/20 47/79/20 48/80/20
f 49/81/21 50/82/21 51/83/21 52/84/21
f 42/85/22 53/86/22 54/87/22 43/88/22
f 55/89/23 56/90/23 57/91/23 58/92/23
f 59/93/24 60/94/24 61/95/24 62/96/24
f 34/97/25 63/98/25 64/99/25 35/100/25
f 38/101/26 33/102/26 36/103/26 39/104/26
f 46/105/27 37/106/27 40/107/27 47/108/27
f 50/109/28 41/110/28 44/111/28 51/112/28
f 53/113/29 45/114/29 48/115/29 54/116/29
f 56/117/30 49/118/30 52/119/30 57/120/30
f 60/121/31 55/122/31 58/123/31 61/124/31
f 63/125/32 59/126/32 62/127/32 64/128/32
f 36/68/33 35/67/33 2/2/33 1/1/33
f 40/72/34 39/71/34 6/6/34 5/5/34
f 44/76/35 43/75/35 10/10/35 9/9/35
f 48/129/36 47/79/36 14/14/36 13/130/36
f 52/131/37 51/83/37 18/18/37 17/17/37
f 43/132/38 54/87/38 21/22/38 10/21/38
f 58/92/39 57/91/39 24/26/39 23/25/39
f 62/133/40 61/95/40 28/30/40 27/134/40
f 35/135/41 64/99/41 31/34/41 2/136/41
f 39/104/42 36/103/42 1/38/42 6/37/42
f 47/137/43 40/107/43 5/42/43 14/138/43
f 51/139/44 44/111/44 9/46/44 18/140/44
f 54/141/45 48/115/45 13/50/45 21/142/45
f 57/120/46 52/119/46 17/54/46 24/53/46
f 61/143/47 58/123/47 23/58/47 28/57/47
f 64/128/48 62/127/48 27/62/48 31/61/48
f 65/144/49 66/145/49 34/66/49 33/65/49
f 67/146/50 68/147/50 38/70/50 37/69/50
f 69/148/51 70/149/51 42/74/51 41/73/51
f 71/150/52 72/151/52 46/78/52 45/152/52
f 73/153/53 74/154/53 50/82/53 49/81/53
f 70/155/54 75/156/54 53/86/54 42/85/54
f 76/157/55 77/158/55 56/90/55 55/89/55
f 78/159/56 79/160/56 60/94/56 59/161/56
f 66/162/57 80/163/57 63/98/57 34/164/57
f 68/165/58 65/166/58 33/102/58 38/101/58
f 72/167/59 67/168/59 37/106/59 46/169/59
f 74/170/60 69/171/60 41/110/60 50/109/60
f 75/172/61 71/173/61 45/114/61 53/174/61
f 77/175/62 73/176/62 49/118/62 56/117/62
f 79/177/63 76/178/63 55/122/63 60/121/63
f 80/179/64 78/180/64 59/126/64 63/125/64
f 4/181/65 3/182/65 81/183/65 82/184/65
f 8/185/65 7/186/65 83/187/65 84/188/65
f 12/189/65 11/190/65 85/191/65 86/192/65
f 16/193/65 15/194/65 87/195/65 88/196/65
f 20/197/65 19/198/65 89/199/65 90/200/65
f 11/190/65 22/201/65 91/202/65 85/191/65
f 26/203/65 25/204/65 92/205/65 93/206/65
f 30/207/65 29/208/65 94/209/65 95/210/65
f 3/182/65 32/211/65 96/212/65 81/183/65
f 7/186/65 4/181/65 82/184/65 83/187/65
f 15/194/65 8/185/65 84/188/65 87/195/65
f 19/198/65 12/189/65 86/192/65 89/199/65
f 22/201/65 16/193/65 88/196/65 91/202/65
f 25/204/65 20/197/65 90/200/65 92/205/65
f 29/208/65 26/203/65 93/206/65 94/209/65
f 32/211/65 30/207/65 95/210/65 96/212/65
f 94/209/66 93/206/66 97/213/66 98/214/66
f 96/212/67 95/210/67 99/215/67 100/216/67
f 82/184/68 81/183/68 101/217/68 102/218/68
f 84/188/69 83/187/69 103/219/69 104/220/69
f 86/192/70 85/191/70 105/221/70 106/222/70
f 88/196/71 87/195/71 107/223/71 108/224/71
f 90/200/72 89/199/72 109/225/72 110/226/72
f 85/191/73 91/202/73 111/227/73 105/221/73
f 93/206/74 92/205/74 112/228/74 97/213/74
f 95/210/75 94/209/75 98/214/75 99/215/75
f 81/183/76 96/212/76 100/216/76 101/217/76
f 83/187/77 82/184/77 102/218/77 103/219/77
f 87/195/78 84/188/78 104/220/78 107/223/78
f 89/199/79 86/192/79 106/222/79 109/225/79
f 91/202/80 88/196/80 108/224/80 111/227/80
f 92/205/81 90/200/81 110/226/81 112/228/81
f 75/229/82 70/230/82 113/231/82 114/232/82
f 77/233/82 76/234/82 115/235/82 116/236/82
f 79/237/82 78/238/82 117/239/82 118/240/82
f 80/241/82 66/242/82 119/243/82 120/244/82
f 65/245/82 68/246/82 121/247/82 122/248/82
f 67/249/82 72/250/82 123/251/82 124/252/82
f 69/253/82 74/254/82 125/255/82 126/256/82
f 71/257/82 75/229/82 114/232/82 127/258/82
f 73/259/82 77/233/82 116/236/82 128/260/82
f 76/234/82 79/237/82 118/240/82 115/235/82
f 78/238/82 80/241/82 120/244/82 117/239/82
f 66/242/82 65/245/82 122/248/82 119/243/82
f 68/246/82 67/249/82 124/252/82 121/247/82
f 70/230/82 69/253/82 126/256/82 113/231/82
f 72/250/82 71/257/82 127/258/82 123/251/82
f 74/254/82 73/259/82 128/260/82 125/255/82
f 123/251/83 127/258/83 129/261/83 130/262/83
f 125/255/84 128/260/84 131/263/84 132/264/84
f 114/232/85 113/231/85 133/265/85 134/266/85
f 116/236/86 115/235/86 135/267/86 136/268/86
f 118/240/87 117/239/87 137/269/87 138/270/87
f 120/244/88 119/243/88 139/271/88 140/272/88
f 122/248/89 121/247/89 141/273/89 142/274/89
f 124/252/90 123/251/90 130/262/90 143/275/90
f 126/256/91 125/255/91 132/264/91 144/276/91
f 127/258/92 114/232/92 134/266/92 129/261/92
f 128/260/93 116/236/93 136/268/93 131/263/93
f 115/235/94 118/240/94 138/270/94 135/267/94
f 117/239/95 120/244/95 140/272/95 137/269/95
f 119/243/96 122/248/96 142/274/96 139/271/96
f 121/247/97 124/252/97 143/275/97 141/273/97
f 113/231/98 126/256/98 144/276/98 133/265/98
f 105/277/99 111/278/99 145/279/99
f 97/280/100 112/281/100 145/279/100
f 99/282/101 98/283/101 145/279/101
f 101/284/102 100/285/102 145/279/102
f 103/286/103 102/287/103 145/279/103
f 107/288/104 104/289/104 145/279/104
f 109/290/105 106/291/105 145/279/105
f 111/278/106 108/292/106 145/279/106
f 112/281/107 110/293/107 145/279/107
f 98/283/108 97/280/108 145/279/108
f 100/285/109 99/282/109 145/279/109
f 102/287/110 101/284/110 145/279/110
f 104/289/111 103/286/111 145/279/111
f 106/291/112 105/277/112 145/279/112
f 108/292/113 107/288/113 145/279/113
f 110/293/114 109/290/114 145/279/114
f 143/294/82 130/295/82 146/296/82
f 144/297/82 132/298/82 146/296/82
f 129/299/82 134/300/82 146/296/82
f 131/301/82 136/302/82 146/296/82
f 135/303/82 138/304/82 146/296/82
f 137/305/82 140/306/82 146/296/82
f 139/307/82 142/308/82 146/296/82
f 141/309/82 143/294/82 146/296/82
f 133/310/82 144/297/82 146/296/82
f 130/295/82 129/299/82 146/296/82
f 132/298/82 131/301/82 146/296/82
f 134/300/82 133/310/82 146/296/82
f 136/302/82 135/303/82 146/296/82
f 138/304/82 137/305/82 146/296/82
f 140/306/82 139/307/82 146/296/82
f 142/308/82 141/309/82 146/296/82
