# Blender v2.79 (sub 0) OBJ File: 'medieval_props_pack.blend'
# www.blender.org
mtllib bench_1_001.mtl
o bench_wood
v -2.808000 0.856000 0.583200
v -2.808000 1.074000 0.583200
v -2.808000 0.856000 -0.583200
v -2.808000 1.074000 -0.583200
v 2.808000 0.856000 0.583200
v 2.808000 1.074000 0.583200
v 2.808000 0.856000 -0.583200
v 2.808000 1.074000 -0.583200
v 1.445187 -0.020000 0.000000
v 1.445187 0.857476 0.000000
v 1.700000 -0.020000 -0.254813
v 1.700000 0.857476 -0.254813
v 1.700000 -0.020000 0.254813
v 1.700000 0.857476 0.254813
v 1.954813 -0.020000 -0.000000
v 1.954813 0.857476 -0.000000
v -1.445187 -0.020000 0.000000
v -1.445187 0.857476 0.000000
v -1.700000 -0.020000 -0.254813
v -1.700000 0.857476 -0.254813
v -1.700000 -0.020000 0.254813
v -1.700000 0.857476 0.254813
v -1.954813 -0.020000 -0.000000
v -1.954813 0.857476 -0.000000
vt 0.006618 0.345413
vt 0.100093 0.345413
vt 0.100093 0.900008
vt 0.006619 0.900008
vt 0.100093 0.991188
vt 0.899095 0.900000
vt 0.899096 0.991186
vt 0.992570 0.900000
vt 0.899095 0.345406
vt 0.992569 0.345405
vt 0.899095 0.254225
vt 0.100092 0.254227
vt 0.100093 0.900010
vt 0.899097 0.900010
vt 0.899097 0.345413
vt 0.100093 0.345414
vt 0.004635 0.006659
vt 0.993818 0.006660
vt 0.993818 0.066145
vt 0.004635 0.066145
vt 0.993818 0.125630
vt 0.004636 0.125630
vt 0.993818 0.185115
vt 0.004636 0.185115
vt 0.993819 0.244600
vt 0.004636 0.244600
vt 0.004635 0.244600
vt 0.004636 0.185115
vt 0.993818 0.185115
vt 0.993818 0.244600
vt 0.004635 0.125630
vt 0.993818 0.125630
vt 0.004635 0.066145
vt 0.993818 0.066145
vt 0.004635 0.006659
vt 0.993818 0.006660
vn -0.5773 -0.5773 0.5773
vn -0.5773 0.5773 0.5773
vn -0.5773 0.5773 -0.5773
vn -0.5773 -0.5773 -0.5773
vn 0.5773 0.5773 -0.5773
vn 0.5773 -0.5773 -0.5773
vn 0.5773 0.5773 0.5773
vn 0.5773 -0.5773 0.5773
vn -1.0000 0.0000 0.0000
vn 0.0000 0.0000 -1.0000
vn 1.0000 0.0000 0.0000
vn 0.0000 0.0000 1.0000
usemtl mat_bench_wood
s 1
f 1/1/1 2/2/2 4/3/3 3/4/4
f 3/5/4 4/3/3 8/6/5 7/7/6
f 7/8/6 8/6/5 6/9/7 5/10/8
f 5/11/8 6/9/7 2/2/2 1/12/1
f 3/13/4 7/14/6 5/15/8 1/16/1
f 8/6/5 4/3/3 2/2/2 6/9/7
f 9/17/9 10/18/9 12/19/10 11/20/10
f 11/20/10 12/19/10 16/21/11 15/22/11
f 15/22/11 16/21/11 14/23/12 13/24/12
f 13/24/12 14/23/12 10/25/9 9/26/9
f 17/27/11 19/28/10 20/29/10 18/30/11
f 19/28/10 23/31/9 24/32/9 20/29/10
f 23/31/9 21/33/12 22/34/12 24/32/9
f 21/33/12 17/35/11 18/36/11 22/34/12
