# Blender v2.79 (sub 0) OBJ File: 'medieval_crafting_stations_pack.blend'
# www.blender.org
mtllib bf.mtl
o blacksmith_forge
v 0.927280 -0.100000 -0.301292
v 0.573091 -0.100000 -0.788792
v -0.000000 -0.100000 -0.975000
v -0.573091 -0.100000 -0.788791
v 0.713292 1.250000 -0.231763
v 0.440839 1.250000 -0.606763
v -0.000000 1.250000 -0.750000
v -0.440839 1.250000 -0.606763
v 0.513571 1.250000 -0.166869
v 0.317404 1.250000 -0.436869
v 0.000000 1.250000 -0.540000
v -0.317404 1.250000 -0.436869
v 0.667642 -0.100000 -0.216930
v 0.412625 -0.100000 -0.567930
v -0.000000 -0.100000 -0.702000
v -0.412625 -0.100000 -0.567930
v -0.927280 -0.100000 -0.301292
v 0.927280 -0.100000 0.301292
v 0.573091 -0.100000 0.788792
v 0.000000 -0.100000 0.975000
v -0.573091 -0.100000 0.788792
v -0.927280 -0.100000 0.301291
v -0.713292 1.250000 -0.231763
v 0.713292 1.250000 0.231763
v 0.440839 1.250000 0.606763
v 0.000000 1.250000 0.750000
v -0.440839 1.250000 0.606763
v -0.713292 1.250000 0.231762
v -0.513570 1.250000 -0.166869
v 0.513571 1.250000 0.166869
v 0.317404 1.250000 0.436869
v 0.000000 1.250000 0.540000
v -0.317404 1.250000 0.436869
v -0.513571 1.250000 0.166869
v -0.667642 -0.100000 -0.216930
v 0.667642 -0.100000 0.216930
v 0.412625 -0.100000 0.567930
v 0.000000 -0.100000 0.702000
v -0.412625 -0.100000 0.567930
v -0.667642 -0.100000 0.216930
v 2.063265 -0.100000 1.265507
v 2.063264 -0.100000 0.834491
v 1.809919 -0.100000 0.485793
v 1.399999 -0.100000 0.352602
v 2.063265 1.430771 1.265507
v 2.063264 1.430771 0.834491
v 1.809919 1.430771 0.485793
v 1.399999 1.430771 0.352602
v 0.990079 -0.100000 0.485794
v 1.809921 -0.100000 1.614206
v 1.400001 -0.100000 1.747397
v 0.990081 -0.100000 1.614207
v 0.736736 -0.100000 1.265509
v 0.736735 -0.100000 0.834493
v 0.990079 1.430771 0.485794
v 1.809921 1.430771 1.614206
v 1.400001 1.430771 1.747397
v 0.990081 1.430771 1.614207
v 0.736736 1.430771 1.265509
v 0.736735 1.430771 0.834493
v 1.400000 1.430771 1.050000
v 0.575389 1.128787 -0.186955
v 0.355610 1.128787 -0.489455
v 0.000000 1.128787 -0.605000
v -0.355610 1.128787 -0.489455
v -0.575389 1.128787 -0.186955
v 0.575389 1.128787 0.186955
v 0.355610 1.128787 0.489455
v 0.000000 1.128787 0.605000
v -0.355610 1.128787 0.489455
v -0.575389 1.128787 0.186955
v 0.000000 1.249787 -0.000000
v 0.843629 1.430496 1.330000
v 0.336129 2.252172 1.157800
v 1.963629 1.430496 1.330000
v 2.226129 2.252172 1.319500
v 1.760629 1.833346 1.162896
v 1.760629 1.701442 1.175440
v 1.046629 1.833346 1.150352
v 1.046629 1.701442 1.175440
v 1.947653 2.045924 1.235365
v 0.771961 2.045924 1.154258
v 1.254296 1.430496 1.274000
v 1.552962 1.430496 1.274000
v 1.619462 2.252172 1.373400
v 0.977796 2.252172 1.373400
v 1.534296 1.701442 1.206800
v 1.272962 1.701442 1.206800
v 1.534296 1.833346 1.206800
v 1.272962 1.833346 1.206800
v 1.566712 2.045924 1.303517
v 1.150771 2.045924 1.303517
v 0.843629 1.430496 0.770000
v 0.336129 2.252172 0.942200
v 1.963629 1.430496 0.770000
v 2.226129 2.252172 0.780500
v 1.760629 1.833346 0.937104
v 1.760629 1.701442 0.924560
v 1.046629 1.833346 0.949648
v 1.046629 1.701442 0.924560
v 1.907629 1.430496 1.050000
v 2.261129 2.252172 1.050000
v 0.899629 1.430496 1.050000
v 0.231129 2.252172 1.050000
v 1.011629 1.701442 1.050000
v 1.011629 1.833346 1.050000
v 1.795629 1.701442 1.050000
v 1.795629 1.833346 1.050000
v 1.947653 2.045924 0.864635
v 0.771961 2.045924 0.945742
v 0.671222 2.045924 1.050000
v 2.004141 2.045924 1.050000
v 1.254296 1.430496 0.826000
v 1.552962 1.430496 0.826000
v 1.619462 2.252172 0.726600
v 0.977796 2.252172 0.726600
v 1.534296 1.701442 0.893200
v 1.272962 1.701442 0.893200
v 1.534296 1.833346 0.893200
v 1.272962 1.833346 0.893200
v 1.619462 2.252172 1.050000
v 0.977796 2.252172 1.050000
v 1.566712 2.045924 0.796483
v 1.150771 2.045924 0.796483
v 0.938960 2.409213 0.995377
v 2.189582 2.396485 1.507070
v 0.958155 2.409213 1.003231
v 1.188938 2.409213 1.097656
v 0.958155 2.444851 1.003231
v 1.188938 2.444851 1.097656
v 1.078413 2.428305 0.806847
v 1.240827 2.428305 0.873298
v 0.906266 2.428305 1.227589
v 1.068680 2.428305 1.294040
v 0.887095 2.345573 1.042917
v 0.938960 2.281934 0.995377
v 0.935293 2.345573 0.925117
v 2.220546 2.345573 1.519739
v 2.170302 2.345573 1.554190
v 2.189582 2.294662 1.507070
v 2.208861 2.345573 1.459950
v 1.164839 2.345573 1.156556
v 0.934056 2.345573 1.062131
v 1.213037 2.345573 1.038756
v 0.982254 2.345573 0.944331
v 0.958155 2.281934 1.003231
v 1.188938 2.281934 1.097656
v 0.958155 2.246296 1.003231
v 1.188938 2.246295 1.097656
v 1.240827 2.345573 0.873298
v 1.078413 2.345573 0.806847
v 1.078413 2.262842 0.806847
v 1.240827 2.262842 0.873298
v 1.068680 2.345573 1.294040
v 0.906266 2.345573 1.227589
v 0.906266 2.262842 1.227589
v 1.068680 2.262842 1.294040
v 0.154810 1.082496 -0.496360
v -0.673205 1.504523 1.189333
v 0.199706 1.029033 -0.462118
v -0.598377 1.415417 1.246405
v 0.254476 1.082860 -0.449887
v 0.209579 1.136323 -0.484129
v -0.507095 1.505129 1.266789
v -0.581923 1.594234 1.209718
v -0.616910 1.519039 1.285340
v 0.337962 0.901293 -0.344443
v -1.124879 1.613783 0.684019
v 0.364181 0.862595 -0.282301
v -1.081181 1.549285 0.787589
v 0.408650 0.923448 -0.263167
v 0.382431 0.962146 -0.325309
v -1.007066 1.650707 0.819478
v -1.050764 1.715204 0.715908
v -1.114433 1.656483 0.787289
vt 0.363634 0.527163
vt 0.363634 0.726442
vt 0.293144 0.726442
vt 0.293144 0.527163
vt 0.150141 0.527163
vt 0.150141 0.726442
vt 0.078335 0.726442
vt 0.078335 0.527163
vt 0.221866 0.527163
vt 0.221866 0.726442
vt 0.007385 0.726442
vt 0.007385 0.527163
vt 0.150141 0.756554
vt 0.078335 0.756554
vt 0.221866 0.756554
vt 0.293144 0.756554
vt 0.007385 0.756554
vt 0.363634 0.756554
vt 0.221866 0.994862
vt 0.150141 0.994862
vt 0.293144 0.994862
vt 0.078335 0.994862
vt 0.007385 0.994862
vt 0.363634 0.994862
vt 0.434124 0.527163
vt 0.434124 0.726442
vt 0.577128 0.527163
vt 0.648934 0.527163
vt 0.648934 0.726442
vt 0.577128 0.726442
vt 0.505403 0.527163
vt 0.505403 0.726442
vt 0.719884 0.527163
vt 0.719884 0.726442
vt 0.648934 0.756554
vt 0.577128 0.756554
vt 0.505403 0.756554
vt 0.434124 0.756554
vt 0.719884 0.756554
vt 0.577128 0.994862
vt 0.505403 0.994862
vt 0.434124 0.994862
vt 0.719884 0.994862
vt 0.648934 0.994862
vt 0.718871 0.264163
vt 0.718871 0.519674
vt 0.647730 0.519674
vt 0.647730 0.264163
vt 0.505448 0.264163
vt 0.505448 0.519674
vt 0.434307 0.519674
vt 0.434307 0.264163
vt 0.576589 0.264163
vt 0.576589 0.519674
vt 0.363166 0.519674
vt 0.363166 0.264163
vt 0.752602 0.529549
vt 0.819361 0.481045
vt 0.860621 0.608029
vt 0.901881 0.481045
vt 0.968640 0.529549
vt 0.727102 0.608029
vt 0.994140 0.608029
vt 0.007461 0.264163
vt 0.078602 0.264163
vt 0.078602 0.519674
vt 0.007461 0.519674
vt 0.220884 0.264163
vt 0.292025 0.264163
vt 0.292025 0.519674
vt 0.220884 0.519674
vt 0.149743 0.264163
vt 0.149743 0.519674
vt 0.752602 0.686510
vt 0.819361 0.735014
vt 0.901881 0.735014
vt 0.968640 0.686510
vt 0.995385 0.867879
vt 0.862125 0.867879
vt 0.969934 0.789551
vt 0.820946 0.741141
vt 0.754316 0.789551
vt 0.903305 0.741141
vt 0.728866 0.867879
vt 0.969934 0.946206
vt 0.820946 0.994616
vt 0.754316 0.946206
vt 0.903305 0.994616
vt 0.519092 0.195505
vt 0.519092 0.255803
vt 0.483909 0.255803
vt 0.483909 0.195505
vt 0.355545 0.195505
vt 0.355545 0.255803
vt 0.296910 0.255803
vt 0.296910 0.195505
vt 0.296910 0.119400
vt 0.265099 0.195505
vt 0.265099 0.119400
vt 0.355545 0.005401
vt 0.355545 0.081543
vt 0.296910 0.081543
vt 0.296910 0.005401
vt 0.355545 0.119400
vt 0.519092 0.005401
vt 0.519092 0.081543
vt 0.483909 0.081543
vt 0.483909 0.005401
vt 0.519092 0.119400
vt 0.483909 0.119400
vt 0.265099 0.081543
vt 0.265099 0.005401
vt 0.702757 0.008901
vt 0.702757 0.081124
vt 0.536009 0.081124
vt 0.559458 0.057049
vt 0.265099 0.255803
vt 0.423201 0.195505
vt 0.423201 0.119400
vt 0.981540 0.020938
vt 0.989356 0.081124
vt 0.846057 0.081124
vt 0.846057 0.008901
vt 0.423201 0.081543
vt 0.423201 0.005401
vt 0.423201 0.255803
vt 0.011107 0.195505
vt 0.046290 0.195505
vt 0.046290 0.255803
vt 0.011107 0.255803
vt 0.174654 0.195505
vt 0.233289 0.195505
vt 0.233289 0.255803
vt 0.174654 0.255803
vt 0.233289 0.119400
vt 0.174654 0.005401
vt 0.233289 0.005401
vt 0.233289 0.081543
vt 0.174654 0.081543
vt 0.174654 0.119400
vt 0.011107 0.005401
vt 0.046290 0.005401
vt 0.046290 0.081543
vt 0.011107 0.081543
vt 0.046290 0.119400
vt 0.011107 0.119400
vt 0.702757 0.153346
vt 0.559458 0.105198
vt 0.106998 0.119400
vt 0.106998 0.195505
vt 0.981540 0.141309
vt 0.846057 0.153346
vt 0.106998 0.081543
vt 0.106998 0.005401
vt 0.106998 0.255803
vt 0.571391 0.234043
vt 0.571391 0.210566
vt 0.531835 0.210566
vt 0.550235 0.234043
vt 0.531835 0.257519
vt 0.571391 0.257519
vt 0.995315 0.234414
vt 0.964161 0.234414
vt 0.984415 0.257734
vt 0.984415 0.211046
vt 0.816462 0.470567
vt 0.860940 0.455430
vt 0.860940 0.421642
vt 0.905418 0.470567
vt 0.580258 0.234414
vt 0.580258 0.257734
vt 0.580258 0.211046
vt 0.905418 0.266619
vt 0.860940 0.281756
vt 0.860940 0.315544
vt 0.816462 0.266619
vt 0.953712 0.396807
vt 0.993683 0.415118
vt 0.993683 0.322069
vt 0.953712 0.340380
vt 0.728197 0.415118
vt 0.768169 0.396807
vt 0.768169 0.340380
vt 0.728197 0.322069
vt 0.571391 0.234043
vt 0.550235 0.234043
vt 0.964161 0.234414
vt 0.860940 0.421642
vt 0.860940 0.455430
vt 0.580258 0.234414
vt 0.860940 0.315544
vt 0.860940 0.281756
vt 0.953712 0.396807
vt 0.953712 0.340380
vt 0.768169 0.340380
vt 0.768169 0.396807
vt 0.981171 0.159058
vt 0.995699 0.181191
vt 0.961113 0.181191
vt 0.981171 0.203644
vt 0.531557 0.203644
vt 0.531557 0.181191
vt 0.531557 0.159058
vt 0.961113 0.181191
vt 0.531557 0.181191
vt 0.981171 0.159058
vt 0.995699 0.181191
vt 0.961113 0.181191
vt 0.981171 0.203644
vt 0.531557 0.203644
vt 0.531557 0.181191
vt 0.531557 0.159058
vt 0.961113 0.181191
vt 0.531557 0.181191
vn -0.9381 0.1644 -0.3048
vn -0.6753 0.7041 -0.2194
vn -0.4173 0.7041 -0.5744
vn -0.5798 0.1644 -0.7980
vn 0.5798 0.1644 -0.7980
vn 0.4173 0.7041 -0.5744
vn 0.6753 0.7041 -0.2194
vn 0.9381 0.1644 -0.3048
vn 0.0000 0.1644 -0.9864
vn 0.0000 0.7041 -0.7100
vn 0.6753 0.7041 0.2194
vn 0.9381 0.1644 0.3048
vn -0.3913 0.7462 0.5386
vn -0.6331 0.7462 0.2057
vn 0.0000 0.7462 0.6657
vn 0.3913 0.7462 0.5386
vn -0.6331 0.7462 -0.2057
vn 0.6331 0.7462 0.2057
vn 0.0000 -0.1191 0.9929
vn -0.5836 -0.1191 0.8032
vn 0.5836 -0.1191 0.8032
vn -0.9443 -0.1191 0.3068
vn -0.9443 -0.1191 -0.3068
vn 0.9443 -0.1191 0.3068
vn -0.9381 0.1644 0.3048
vn -0.6753 0.7041 0.2194
vn 0.0000 0.1644 0.9864
vn 0.5798 0.1644 0.7980
vn 0.4173 0.7041 0.5744
vn 0.0000 0.7041 0.7100
vn -0.5798 0.1644 0.7980
vn -0.4173 0.7041 0.5744
vn -0.3913 0.7462 -0.5386
vn 0.0000 0.7462 -0.6657
vn 0.3913 0.7462 -0.5386
vn 0.6331 0.7462 -0.2057
vn 0.0000 -0.1191 -0.9929
vn 0.5836 -0.1191 -0.8032
vn 0.9443 -0.1191 -0.3068
vn -0.5836 -0.1191 -0.8032
vn -0.5878 0.0000 -0.8090
vn -0.4498 0.6437 -0.6191
vn 0.0000 0.6437 -0.7653
vn 0.0000 0.0000 -1.0000
vn 0.9510 0.0000 -0.3090
vn 0.7278 0.6437 -0.2365
vn 0.7278 0.6437 0.2365
vn 0.9510 0.0000 0.3090
vn 0.5878 0.0000 -0.8090
vn 0.4498 0.6437 -0.6191
vn 0.4498 0.6437 0.6191
vn 0.5878 0.0000 0.8090
vn 0.0000 1.0000 0.0000
vn -0.9510 0.0000 -0.3090
vn -0.7278 0.6437 -0.2365
vn -0.5878 0.0000 0.8090
vn 0.0000 0.0000 1.0000
vn 0.0000 0.6437 0.7653
vn -0.4498 0.6437 0.6191
vn -0.9510 0.0000 0.3090
vn -0.7278 0.6437 0.2365
vn -0.1865 0.9806 -0.0606
vn -0.1153 0.9806 -0.1586
vn 0.1153 0.9806 -0.1586
vn 0.1865 0.9806 -0.0606
vn 0.0000 0.9806 -0.1961
vn 0.1865 0.9806 0.0606
vn -0.1865 0.9806 0.0606
vn 0.0000 0.9806 0.1961
vn 0.1153 0.9806 0.1586
vn -0.1153 0.9806 0.1586
vn 0.6493 -0.7605 0.0000
vn 0.9547 0.2974 0.0000
vn 0.7269 0.2673 0.6325
vn 0.4275 -0.6587 0.6192
vn -0.1348 -0.4261 0.8946
vn -0.2028 0.4684 0.8599
vn -0.6022 0.2817 0.7470
vn -0.3970 -0.6836 0.6124
vn -0.5628 -0.3288 0.7584
vn -0.4683 -0.8835 0.0000
vn -0.8733 -0.4870 0.0000
vn 0.0190 0.3073 0.9514
vn -0.0389 0.1770 0.9834
vn -0.5953 0.3497 0.7234
vn -0.5901 0.5805 0.5611
vn -0.1041 -0.2053 0.9731
vn 0.8701 0.4929 0.0000
vn 0.9616 0.2744 0.0000
vn 0.6044 0.3319 0.7242
vn 0.5901 0.5805 0.5611
vn 0.9167 -0.3996 0.0000
vn 0.5774 -0.3410 0.7418
vn -0.9594 0.2820 0.0000
vn -0.8701 0.4929 0.0000
vn -0.9872 0.1591 0.0000
vn 0.0675 -0.3970 0.9153
vn 0.0817 -0.2098 0.9743
vn 0.0577 0.5461 0.8357
vn 0.0324 0.1654 0.9857
vn -0.0190 0.3073 0.9514
vn 0.4275 -0.6587 -0.6192
vn 0.7269 0.2673 -0.6325
vn -0.1348 -0.4261 -0.8946
vn -0.3970 -0.6836 -0.6124
vn -0.6022 0.2817 -0.7470
vn -0.2028 0.4684 -0.8599
vn -0.5628 -0.3288 -0.7584
vn 0.0190 0.3073 -0.9514
vn -0.5901 0.5805 -0.5611
vn -0.5953 0.3497 -0.7234
vn -0.0389 0.1770 -0.9834
vn -0.1041 -0.2053 -0.9731
vn 0.5901 0.5805 -0.5611
vn 0.6044 0.3319 -0.7242
vn 0.5774 -0.3410 -0.7418
vn 0.0817 -0.2098 -0.9743
vn 0.0675 -0.3970 -0.9153
vn 0.0577 0.5461 -0.8357
vn 0.0324 0.1654 -0.9857
vn -0.0190 0.3073 -0.9514
vn -0.8372 0.4264 -0.3425
vn -0.5655 0.0000 -0.8247
vn -0.3140 0.0000 -0.9494
vn -0.3457 0.9276 -0.1414
vn -0.8894 0.0000 0.4570
vn -0.9814 0.0000 0.1918
vn 0.9255 0.0000 0.3787
vn 0.3775 0.9130 0.1545
vn 0.0318 0.0000 0.9995
vn 0.7233 0.0000 -0.6905
vn 0.5691 0.0000 0.8223
vn 0.8388 0.4226 0.3432
vn 0.6590 0.7021 0.2696
vn 0.9822 0.0000 -0.1875
vn -0.6590 0.7021 -0.2696
vn 0.7120 0.5808 -0.3945
vn 0.8811 0.0000 -0.4729
vn -0.2968 0.0000 -0.9549
vn -0.2312 0.5808 -0.7804
vn 0.2968 0.0000 0.9549
vn 0.2312 0.5808 0.7804
vn -0.7120 0.5808 0.3945
vn -0.8811 0.0000 0.4729
vn -0.8372 -0.4264 -0.3425
vn -0.3457 -0.9276 -0.1414
vn 0.3775 -0.9130 0.1545
vn 0.6590 -0.7021 0.2696
vn 0.8388 -0.4226 0.3432
vn -0.6590 -0.7021 -0.2696
vn 0.7120 -0.5808 -0.3945
vn -0.2312 -0.5808 -0.7804
vn -0.7120 -0.5808 0.3945
vn 0.2312 -0.5808 0.7804
vn -0.2411 -0.8172 0.5234
vn -0.4129 0.2193 0.8839
vn -0.9954 0.0809 -0.0519
vn -0.0752 0.9853 0.1536
vn 0.0976 0.9713 -0.2170
vn -0.8983 -0.0075 -0.4393
vn -0.0819 -0.9796 0.1833
vn 0.6790 0.0870 0.7289
vn 0.9140 -0.0009 0.4057
vn -0.4397 -0.6930 0.5713
vn -0.7478 0.3740 0.5484
vn -0.8802 -0.0428 -0.4727
vn -0.1331 0.9795 -0.1512
vn 0.1802 0.8980 -0.4014
vn -0.6284 -0.2085 -0.7494
vn -0.1517 -0.9122 0.3806
vn 0.3074 0.3293 0.8928
vn 0.6569 0.1943 0.7285
usemtl mat_blacksmith_forge
s 1
f 17/1/1 23/2/2 8/3/3 4/4/4
f 2/5/5 6/6/6 5/7/7 1/8/8
f 3/9/9 7/10/10 6/6/6 2/5/5
f 4/4/4 8/3/3 7/10/10 3/9/9
f 1/8/8 5/7/7 24/11/11 18/12/12
f 5/7/7 6/6/6 10/13/13 9/14/14
f 6/6/6 7/10/10 11/15/15 10/13/13
f 7/10/10 8/3/3 12/16/16 11/15/15
f 24/11/11 5/7/7 9/14/14 30/17/17
f 8/3/3 23/2/2 29/18/18 12/16/16
f 10/13/13 11/15/15 15/19/19 14/20/20
f 11/15/15 12/16/16 16/21/21 15/19/19
f 30/17/17 9/14/14 13/22/22 36/23/23
f 12/16/16 29/18/18 35/24/24 16/21/21
f 9/14/14 10/13/13 14/20/20 13/22/22
f 17/1/1 22/25/25 28/26/26 23/2/2
f 20/27/27 19/28/28 25/29/29 26/30/30
f 21/31/31 20/27/27 26/30/30 27/32/32
f 22/25/25 21/31/31 27/32/32 28/26/26
f 19/28/28 18/33/12 24/34/11 25/29/29
f 25/29/29 31/35/33 32/36/34 26/30/30
f 26/30/30 32/36/34 33/37/35 27/32/32
f 27/32/32 33/37/35 34/38/36 28/26/26
f 24/34/11 30/39/17 31/35/33 25/29/29
f 28/26/26 34/38/36 29/18/18 23/2/2
f 32/36/34 38/40/37 39/41/38 33/37/35
f 33/37/35 39/41/38 40/42/39 34/38/36
f 30/39/17 36/43/23 37/44/40 31/35/33
f 34/38/36 40/42/39 35/24/24 29/18/18
f 31/35/33 37/44/40 38/40/37 32/36/34
f 49/45/41 55/46/42 48/47/43 44/48/44
f 42/49/45 46/50/46 45/51/47 41/52/48
f 43/53/49 47/54/50 46/50/46 42/49/45
f 44/48/44 48/47/43 47/54/50 43/53/49
f 41/52/48 45/51/47 56/55/51 50/56/52
f 45/57/47 46/58/46 61/59/53
f 46/58/46 47/60/50 61/59/53
f 47/60/50 48/61/43 61/59/53
f 56/62/51 45/57/47 61/59/53
f 48/61/43 55/63/42 61/59/53
f 49/64/41 54/65/54 60/66/55 55/67/42
f 52/68/56 51/69/57 57/70/58 58/71/59
f 53/72/60 52/68/56 58/71/59 59/73/61
f 54/65/54 53/72/60 59/73/61 60/66/55
f 51/69/57 50/56/52 56/55/51 57/70/58
f 57/74/58 61/59/53 58/75/59
f 58/75/59 61/59/53 59/76/61
f 59/76/61 61/59/53 60/77/55
f 56/62/51 61/59/53 57/74/58
f 60/77/55 61/59/53 55/63/42
f 66/78/62 72/79/53 65/80/63
f 63/81/64 72/79/53 62/82/65
f 64/83/66 72/79/53 63/81/64
f 65/80/63 72/79/53 64/83/66
f 62/82/65 72/79/53 67/84/67
f 66/78/62 71/85/68 72/79/53
f 69/86/69 68/87/70 72/79/53
f 70/88/71 69/86/69 72/79/53
f 71/85/68 70/88/71 72/79/53
f 68/87/70 67/84/67 72/79/53
f 112/89/72 102/90/73 76/91/74 81/92/75
f 92/93/76 86/94/77 74/95/78 82/96/79
f 79/97/80 82/96/79 111/98/81 106/99/82
f 83/100/83 88/101/84 80/102/85 73/103/86
f 88/101/84 90/104/87 79/97/80 80/102/85
f 101/105/88 107/106/89 78/107/90 75/108/91
f 107/106/89 108/109/92 77/110/93 78/107/90
f 80/102/85 79/97/80 106/99/82 105/111/94
f 73/103/86 80/102/85 105/111/94 103/112/95
f 86/113/77 122/114/53 104/115/96 74/116/78
f 82/96/79 74/95/78 104/117/96 111/98/81
f 90/104/87 92/93/76 82/96/79 79/97/80
f 108/109/92 112/89/72 81/92/75 77/110/93
f 77/110/93 81/92/75 91/118/97 89/119/98
f 89/119/98 91/118/97 92/93/76 90/104/87
f 76/120/74 102/121/73 121/122/53 85/123/99
f 85/123/99 121/122/53 122/114/53 86/113/77
f 78/107/90 77/110/93 89/119/98 87/124/100
f 87/124/100 89/119/98 90/104/87 88/101/84
f 75/108/91 78/107/90 87/124/100 84/125/101
f 84/125/101 87/124/100 88/101/84 83/100/83
f 81/92/75 76/91/74 85/126/99 91/118/97
f 91/118/97 85/126/99 86/94/77 92/93/76
f 112/127/72 109/128/102 96/129/103 102/130/73
f 124/131/104 110/132/105 94/133/106 116/134/107
f 99/135/108 106/99/82 111/98/81 110/132/105
f 113/136/109 93/137/110 100/138/111 118/139/112
f 118/139/112 100/138/111 99/135/108 120/140/113
f 101/141/88 95/142/114 98/143/115 107/144/89
f 107/144/89 98/143/115 97/145/116 108/146/92
f 100/138/111 105/111/94 106/99/82 99/135/108
f 93/137/110 103/112/95 105/111/94 100/138/111
f 116/147/107 94/148/106 104/115/96 122/114/53
f 110/132/105 111/98/81 104/117/96 94/133/106
f 120/140/113 99/135/108 110/132/105 124/131/104
f 108/146/92 97/145/116 109/128/102 112/127/72
f 97/145/116 119/149/117 123/150/118 109/128/102
f 119/149/117 120/140/113 124/131/104 123/150/118
f 96/151/103 115/152/119 121/122/53 102/121/73
f 115/152/119 116/147/107 122/114/53 121/122/53
f 98/143/115 117/153/120 119/149/117 97/145/116
f 117/153/120 118/139/112 120/140/113 119/149/117
f 95/142/114 114/154/121 117/153/120 98/143/115
f 114/154/121 113/136/109 118/139/112 117/153/120
f 109/128/102 123/150/118 115/155/119 96/129/103
f 123/150/118 124/131/104 116/134/107 115/155/119
f 127/156/122 145/157/123 137/158/124 125/159/125
f 125/159/125 137/158/124 135/160/126
f 143/161/127 127/156/122 125/159/125 135/160/126
f 138/162/128 126/163/129 139/164/130
f 138/162/128 141/165/131 126/163/129
f 142/166/132 128/167/133 130/168/134
f 128/167/133 144/169/135 130/168/134
f 139/164/130 126/163/129 128/170/133 142/171/132
f 126/163/129 141/165/131 144/172/135 128/170/133
f 145/173/123 127/174/122 129/175/136
f 127/174/122 143/176/127 129/175/136
f 132/177/137 150/178/138 151/179/139 131/180/140
f 145/173/123 129/175/136 131/180/140 151/179/139
f 129/175/136 130/168/134 132/177/137 131/180/140
f 130/168/134 144/169/135 150/178/138 132/177/137
f 154/181/141 134/182/142 133/183/143 155/184/144
f 129/175/136 143/176/127 155/184/144 133/183/143
f 130/168/134 129/175/136 133/183/143 134/182/142
f 142/166/132 130/168/134 134/182/142 154/181/141
f 146/185/145 136/186/146 137/158/124 145/157/123
f 136/186/146 135/160/126 137/158/124
f 143/161/127 135/160/126 136/186/146 146/185/145
f 138/162/128 139/164/130 140/187/147
f 138/162/128 140/187/147 141/165/131
f 142/166/132 149/188/148 147/189/149
f 147/189/149 149/188/148 144/169/135
f 139/164/130 142/171/132 147/190/149 140/187/147
f 140/187/147 147/190/149 144/172/135 141/165/131
f 145/173/123 148/191/150 146/192/145
f 146/192/145 148/191/150 143/176/127
f 153/193/151 152/194/152 151/179/139 150/178/138
f 145/173/123 151/179/139 152/194/152 148/191/150
f 148/191/150 152/194/152 153/193/151 149/188/148
f 149/188/148 153/193/151 150/178/138 144/169/135
f 154/181/141 155/184/144 156/195/153 157/196/154
f 148/191/150 156/195/153 155/184/144 143/176/127
f 149/188/148 157/196/154 156/195/153 148/191/150
f 142/166/132 154/181/141 157/196/154 149/188/148
f 161/197/155 166/198/156 159/199/157
f 159/199/157 165/200/158 163/201/159 158/202/160
f 161/197/155 159/199/157 158/202/160 160/203/161
f 159/199/157 166/198/156 165/200/158
f 161/197/155 164/204/162 166/198/156
f 164/204/162 162/205/163 163/201/159 165/200/158
f 161/197/155 160/203/161 162/205/163 164/204/162
f 164/204/162 165/200/158 166/198/156
f 170/206/164 175/207/165 168/208/166
f 168/208/166 174/209/167 172/210/168 167/211/169
f 170/206/164 168/208/166 167/211/169 169/212/170
f 168/208/166 175/207/165 174/209/167
f 170/206/164 173/213/171 175/207/165
f 173/213/171 171/214/172 172/210/168 174/209/167
f 170/206/164 169/212/170 171/214/172 173/213/171
f 173/213/171 174/209/167 175/207/165
