# Blender v2.79 (sub 0) OBJ File: 'skull_bone_debris_001.blend'
# www.blender.org
mtllib bones_1_004.mtl
o Cylinder
v 0.388939 -0.006162 -0.088295
v 0.374440 0.041849 -0.076717
v 0.395771 0.009238 -0.072557
v 0.390395 -0.014556 -0.076801
v 0.382734 0.093310 -0.072744
v 0.410855 0.087007 -0.085128
v 0.411393 0.108394 -0.099830
v 0.380297 0.113784 -0.088920
v 0.330227 0.083737 -0.059535
v 0.352839 0.093279 -0.063971
v 0.347984 0.112529 -0.079635
v 0.329935 0.103353 -0.075714
v -0.326118 0.193406 0.050433
v -0.330227 0.163409 0.059535
v -0.352839 0.153866 0.063971
v -0.357451 0.174139 0.057978
v 0.309864 0.082204 -0.128272
v 0.318190 0.102468 -0.115363
v 0.335351 0.111578 -0.122280
v 0.331129 0.091645 -0.137258
v -0.356810 0.206624 0.136231
v -0.327270 0.201001 0.140229
v -0.346306 0.233711 0.146856
v -0.372831 0.239634 0.149993
v 0.372735 -0.031490 -0.124340
v 0.370384 -0.037409 -0.127833
v 0.370922 -0.016022 -0.142535
v 0.375857 -0.007147 -0.132457
v 0.409042 0.102475 -0.103322
v 0.405921 0.078132 -0.095205
v 0.357206 0.067540 -0.151292
v 0.360979 0.091672 -0.146184
v 0.391383 0.085541 -0.150861
v 0.383855 0.062232 -0.154479
v -0.405921 0.169013 0.095205
v -0.399173 0.170533 0.117202
v -0.365616 0.205958 0.106471
v -0.374440 0.205297 0.076717
v 0.010303 0.155307 0.010824
v -0.298009 0.244849 0.107151
v -0.297718 0.225234 0.123329
v 0.010521 0.142229 0.021694
v 0.406794 0.063959 -0.077043
v -0.340663 0.256315 0.137917
v -0.338979 0.275860 0.120541
v -0.370384 0.284554 0.127833
v -0.370922 0.263167 0.142535
v 0.375565 0.121594 -0.111212
v 0.343260 0.119958 -0.101606
v -0.371744 0.231796 0.060987
v -0.395771 0.237907 0.072557
v -0.390395 0.261701 0.076801
v -0.362419 0.254677 0.064477
v 0.327270 0.046145 -0.140229
v 0.301827 0.051910 -0.132432
v 0.331980 0.071089 -0.143958
v 0.321901 0.021058 -0.139857
v 0.313419 0.003736 -0.130051
v 0.297718 0.021912 -0.123329
v 0.326118 0.053738 -0.050433
v 0.357451 0.073006 -0.057978
v 0.351773 0.047990 -0.057516
v 0.347372 0.022976 -0.053877
v 0.371744 0.015349 -0.060987
v -0.331980 0.176057 0.143958
v -0.357206 0.179606 0.151292
v -0.360979 0.155474 0.146184
v -0.331129 0.155501 0.137258
v 0.392838 0.077147 -0.139368
v 0.399173 0.076613 -0.117202
v 0.365616 0.041187 -0.106471
v 0.356810 0.040522 -0.136231
v 0.382605 -0.005628 -0.110460
v 0.340663 -0.009170 -0.137917
v 0.338979 -0.028715 -0.120541
v -0.351773 0.199156 0.057516
v 0.003213 0.105950 0.024668
v 0.008009 0.124176 0.027036
v -0.301827 0.195235 0.132432
v -0.309864 0.164942 0.128272
v 0.367492 0.112820 -0.132145
v 0.399578 0.107504 -0.139713
v -0.383855 0.184914 0.154479
v -0.391383 0.161605 0.150861
v 0.318080 0.023445 -0.054592
v 0.309755 0.003180 -0.067501
v 0.322750 -0.012724 -0.069367
v 0.335129 0.005371 -0.056764
v -0.310117 0.260821 0.112011
v -0.314841 0.268250 0.090041
v -0.343710 0.283671 0.098249
v -0.388939 0.253308 0.088295
v -0.382605 0.252773 0.110460
v -0.313419 0.243409 0.130051
v -0.321901 0.226087 0.139857
v 0.382644 0.069455 -0.065423
v 0.007378 0.160196 -0.003002
v -0.302330 0.252111 0.086695
v 0.325614 0.110614 -0.096170
v 0.407026 0.115595 -0.120398
v 0.404892 0.105001 -0.119530
v 0.399580 0.101762 -0.135265
v -0.374751 0.291755 0.107264
v -0.382199 0.283665 0.087949
v -0.382198 0.277923 0.092398
v -0.376886 0.281162 0.108133
v -0.380297 0.133362 0.088920
v -0.347984 0.134617 0.079635
v -0.343260 0.127187 0.101606
v -0.375565 0.125551 0.111212
v -0.367492 0.134326 0.132145
v -0.335351 0.135568 0.122280
v 0.362419 -0.007532 -0.064477
v 0.343710 -0.036525 -0.098249
v 0.314841 -0.021105 -0.090041
v 0.310117 -0.013675 -0.112011
v -0.375857 0.254292 0.132457
v -0.335129 0.241775 0.056764
v -0.351783 0.274896 0.077316
v -0.322750 0.259870 0.069367
v 0.374751 -0.044610 -0.107264
v 0.376886 -0.034016 -0.108133
v 0.382198 -0.030777 -0.092398
v 0.382199 -0.036519 -0.087949
v -0.002363 0.092436 0.015978
v -0.318190 0.144677 0.115363
v -0.392838 0.169998 0.139368
v -0.347372 0.224169 0.053877
v -0.399580 0.145383 0.135265
v -0.399578 0.139641 0.139713
v -0.407026 0.131551 0.120398
v -0.404892 0.142144 0.119530
v -0.409042 0.144671 0.103322
v -0.411393 0.138752 0.099830
v -0.372735 0.278635 0.124340
v -0.325614 0.136532 0.096170
v -0.382644 0.177691 0.065423
v 0.298009 0.002296 -0.107151
v 0.372831 0.007511 -0.149993
v -0.382734 0.153836 0.072744
v -0.410855 0.160139 0.085128
v -0.318080 0.223701 0.054592
v 0.346306 0.013434 -0.146856
v 0.351783 -0.027751 -0.077316
v -0.309755 0.243965 0.067501
v -0.329935 0.143793 0.075714
v -0.010303 0.091838 -0.010824
v -0.007378 0.086949 0.003002
v 0.302330 -0.004965 -0.086695
v 0.002363 0.154709 -0.015978
v -0.003213 0.141195 -0.024668
v -0.008009 0.122970 -0.027036
v -0.010522 0.104916 -0.021694
v -0.406794 0.183187 0.077043
vt 0.235538 0.853279
vt 0.162090 0.831792
vt 0.219688 0.831673
vt 0.245274 0.836982
vt 0.077287 0.805092
vt 0.078906 0.836982
vt 0.047924 0.845406
vt 0.040893 0.809938
vt 0.101742 0.735991
vt 0.082999 0.768573
vt 0.042861 0.767689
vt 0.053539 0.737213
vt 0.162094 0.581907
vt 0.222442 0.580534
vt 0.241184 0.613115
vt 0.208624 0.620943
vt 0.599220 0.997192
vt 0.551019 0.995967
vt 0.540342 0.965493
vt 0.580479 0.964610
vt 0.162087 0.479122
vt 0.162086 0.531916
vt 0.110714 0.503026
vt 0.104490 0.479241
vt 0.768509 0.879812
vt 0.773736 0.887779
vt 0.742754 0.896204
vt 0.733019 0.879908
vt 0.053150 0.853373
vt 0.088641 0.853279
vt 0.608197 0.925298
vt 0.574768 0.928092
vt 0.576388 0.896204
vt 0.601973 0.901513
vt 0.235542 0.697818
vt 0.239098 0.732960
vt 0.162096 0.730291
vt 0.162095 0.676333
vt 0.067882 0.420250
vt 0.034858 0.002267
vt 0.074746 0.000812
vt 0.094559 0.419270
vt 0.104492 0.831672
vt 0.077284 0.505819
vt 0.040893 0.500972
vt 0.047925 0.465506
vt 0.078905 0.473931
vt 0.001261 0.820204
vt 0.000219 0.767874
vt 0.110721 0.652429
vt 0.104497 0.676215
vt 0.078911 0.681526
vt 0.077290 0.649636
vt 0.659570 0.954188
vt 0.659569 0.995821
vt 0.613039 0.956783
vt 0.706101 0.956785
vt 0.738662 0.964613
vt 0.719920 0.997196
vt 0.162092 0.737366
vt 0.115560 0.776401
vt 0.162091 0.778998
vt 0.208622 0.776403
vt 0.213464 0.807888
vt 0.208617 0.534513
vt 0.213460 0.503028
vt 0.246890 0.505822
vt 0.241178 0.542341
vt 0.586123 0.879907
vt 0.582568 0.844765
vt 0.659571 0.847436
vt 0.659571 0.901394
vt 0.239094 0.888422
vt 0.162090 0.885751
vt 0.736573 0.844764
vt 0.744374 0.928094
vt 0.780768 0.923247
vt 0.162094 0.623539
vt 0.154186 0.419270
vt 0.124373 0.418925
vt 0.124371 0.000219
vt 0.173996 0.000812
vt 0.538376 0.923245
vt 0.545408 0.887779
vt 0.219685 0.479242
vt 0.245271 0.473932
vt 0.222441 0.735994
vt 0.270642 0.737219
vt 0.281319 0.767693
vt 0.241182 0.768576
vt 0.042858 0.543219
vt 0.000219 0.543031
vt 0.001263 0.490705
vt 0.088647 0.697822
vt 0.085094 0.732966
vt 0.162084 0.573548
vt 0.101735 0.574919
vt 0.082995 0.542336
vt 0.115555 0.534510
vt 0.110717 0.807887
vt 0.044478 0.422054
vt 0.000219 0.004934
vt 0.497703 0.965305
vt 0.498746 0.912978
vt 0.508070 0.999774
vt 0.518520 0.868688
vt 0.535232 0.858697
vt 0.550634 0.879813
vt 0.021041 0.709046
vt 0.047930 0.689952
vt 0.053156 0.697919
vt 0.037755 0.719037
vt 0.283288 0.654479
vt 0.281321 0.612231
vt 0.323961 0.612418
vt 0.322918 0.664745
vt 0.053534 0.573694
vt 0.010586 0.577500
vt 0.283285 0.500975
vt 0.281317 0.543226
vt 0.246893 0.805094
vt 0.820400 0.912979
vt 0.821444 0.965310
vt 0.778801 0.965497
vt 0.037747 0.874490
vt 0.085086 0.888423
vt 0.088640 0.457635
vt 0.085085 0.422492
vt 0.162087 0.425164
vt 0.083002 0.613117
vt 0.040896 0.654484
vt 0.042862 0.612233
vt 0.303142 0.864497
vt 0.286430 0.874489
vt 0.271028 0.853373
vt 0.276254 0.845407
vt 0.180863 0.420249
vt 0.213884 0.002266
vt 0.010588 0.733404
vt 0.235535 0.457636
vt 0.239089 0.422492
vt 0.115563 0.620944
vt 0.271026 0.457540
vt 0.276252 0.465507
vt 0.303144 0.709035
vt 0.286433 0.719027
vt 0.271031 0.697912
vt 0.276257 0.689945
vt 0.037749 0.436424
vt 0.053151 0.457540
vt 0.270639 0.573702
vt 0.323960 0.543040
vt 0.313591 0.577511
vt 0.222435 0.574924
vt 0.213467 0.652427
vt 0.768123 0.995973
vt 0.717168 0.901514
vt 0.246896 0.649633
vt 0.245277 0.681521
vt 0.021034 0.864497
vt 0.101744 0.580534
vt 0.322918 0.490708
vt 0.710944 0.925300
vt 0.783911 0.858695
vt 0.283285 0.809940
vt 0.800624 0.868687
vt 0.053540 0.581757
vt 0.001263 0.664753
vt 0.000219 0.612421
vt 0.532341 0.002266
vt 0.565364 0.420250
vt 0.541960 0.422053
vt 0.497703 0.004933
vt 0.811075 0.999781
vt 0.270643 0.581757
vt 0.010588 0.577949
vt 0.303142 0.446414
vt 0.286428 0.436422
vt 0.313590 0.733411
vt 0.323958 0.767879
vt 0.711367 0.002267
vt 0.746006 0.004933
vt 0.701749 0.422053
vt 0.678345 0.420250
vt 0.322915 0.820207
vt 0.021038 0.446416
vt 0.651668 0.425275
vt 0.671479 0.843733
vt 0.621854 0.844326
vt 0.621854 0.425620
vt 0.343299 0.003003
vt 0.373112 0.003347
vt 0.373112 0.422054
vt 0.323488 0.421461
vt 0.592041 0.425275
vt 0.572230 0.843733
vt 0.678344 0.424295
vt 0.711367 0.842278
vt 0.565364 0.424295
vt 0.532342 0.842279
vt 0.316622 0.002023
vt 0.283600 0.420006
vt 0.402926 0.003003
vt 0.422737 0.421461
vt 0.429603 0.002023
vt 0.462625 0.420006
vt 0.248523 0.004933
vt 0.204267 0.422053
vt 0.592041 0.419270
vt 0.572230 0.000812
vt 0.621854 0.000219
vt 0.621854 0.418925
vt 0.219691 0.676212
vt 0.651668 0.419270
vt 0.671479 0.000812
vt 0.248961 0.417339
vt 0.293218 0.000219
vt 0.701749 0.422492
vt 0.746006 0.839612
vt 0.313592 0.577949
vt 0.497703 0.839612
vt 0.541959 0.422492
vt 0.453007 0.000219
vt 0.497264 0.417340
vn 0.9212 0.0829 -0.3801
vn 0.9096 -0.1515 0.3869
vn 0.9502 0.1372 0.2799
vn 0.8454 -0.3522 0.4016
vn 0.3389 0.4508 0.8258
vn 0.9280 0.0581 0.3680
vn 0.8552 0.4689 0.2206
vn 0.2356 0.8097 0.5374
vn 0.1422 0.4302 0.8915
vn 0.0984 0.4917 0.8652
vn -0.0629 0.8175 0.5725
vn 0.0106 0.7987 0.6016
vn -0.1924 -0.0416 -0.9804
vn -0.1422 -0.4302 -0.8915
vn -0.0984 -0.4917 -0.8652
vn -0.2122 -0.1646 -0.9633
vn -0.3713 0.3915 -0.8419
vn -0.3283 0.7732 -0.5425
vn -0.3744 0.7940 -0.4789
vn -0.3945 0.4546 -0.7986
vn -0.5541 0.1783 0.8132
vn 0.2138 0.0370 0.9762
vn 0.1520 0.0196 0.9882
vn -0.6429 -0.1141 0.7574
vn 0.9384 -0.2115 -0.2733
vn 0.3518 -0.7409 -0.5721
vn 0.4946 -0.3786 -0.7823
vn 0.9786 0.0872 -0.1864
vn 0.8059 -0.4893 -0.3332
vn -0.1639 -0.0784 -0.9834
vn -0.1708 0.4124 -0.8948
vn 0.5773 0.0317 -0.8159
vn 0.5253 -0.4697 -0.7095
vn -0.8059 0.4893 0.3332
vn -0.8433 0.4813 0.2391
vn -0.9384 0.2115 0.2733
vn -0.9096 0.1515 -0.3869
vn 0.3286 0.7908 0.5164
vn 0.6174 0.6620 0.4249
vn 0.5197 0.3451 0.7815
vn 0.3400 0.4240 0.8394
vn 0.8326 -0.4465 0.3277
vn 0.3445 0.4495 0.8242
vn 0.4176 0.7687 0.4844
vn -0.3518 0.7409 0.5721
vn -0.4946 0.3786 0.7823
vn 0.0627 0.9972 -0.0408
vn -0.2339 0.9711 0.0476
vn -0.4107 -0.0228 -0.9115
vn -0.9502 -0.1372 -0.2799
vn -0.8454 0.3522 -0.4016
vn -0.1652 0.4112 -0.8965
vn -0.2138 -0.0370 -0.9762
vn -0.3729 -0.0009 -0.9279
vn -0.3485 0.1224 -0.9293
vn -0.3978 -0.1227 -0.9092
vn -0.5640 -0.3868 -0.7296
vn -0.5197 -0.3451 -0.7815
vn 0.1924 0.0416 0.9804
vn 0.2122 0.1646 0.9633
vn 0.3526 0.0057 0.9358
vn 0.1628 -0.0805 0.9834
vn 0.4107 0.0228 0.9115
vn 0.3485 -0.1224 0.9293
vn 0.1639 0.0784 0.9834
vn 0.1708 -0.4124 0.8948
vn 0.3945 -0.4546 0.7986
vn 0.8633 -0.4850 -0.1395
vn 0.8433 -0.4813 -0.2391
vn 0.5541 -0.1783 -0.8132
vn 0.9556 0.0759 -0.2848
vn -0.3445 -0.4495 -0.8242
vn -0.4176 -0.7687 -0.4844
vn -0.3526 -0.0057 -0.9358
vn 0.1770 -0.3851 0.9057
vn 0.2840 0.0214 0.9586
vn 0.3729 0.0009 0.9279
vn 0.3713 -0.3915 0.8419
vn -0.1048 0.7841 -0.6117
vn 0.5915 0.4491 -0.6696
vn -0.5253 0.4697 0.7095
vn -0.5773 -0.0317 0.8159
vn -0.0063 -0.3065 0.9519
vn -0.2785 -0.6365 0.7193
vn -0.3545 -0.6298 0.6912
vn -0.0711 -0.3497 0.9341
vn 0.6660 0.6532 0.3602
vn 0.5878 0.7859 -0.1917
vn 0.3271 0.9376 -0.1178
vn -0.9212 -0.0829 0.3801
vn -0.9556 -0.0759 0.2848
vn 0.5640 0.3868 0.7296
vn 0.3978 0.1227 0.9092
vn 0.3988 -0.0361 0.9163
vn 0.1969 0.9772 -0.0801
vn 0.5508 0.8147 -0.1813
vn -0.1890 0.9814 0.0341
vn 0.7392 0.6319 -0.2331
vn -0.4314 0.8957 0.1078
vn -0.6155 0.7211 -0.3181
vn -0.2356 -0.8097 -0.5374
vn 0.0629 -0.8175 -0.5725
vn 0.2339 -0.9711 -0.0476
vn -0.0627 -0.9972 0.0408
vn 0.1048 -0.7841 0.6117
vn 0.3744 -0.7940 0.4789
vn 0.1652 -0.4112 0.8965
vn -0.3271 -0.9376 0.1178
vn -0.5878 -0.7859 0.1917
vn -0.6660 -0.6532 -0.3603
vn -0.9786 -0.0872 0.1864
vn 0.0711 0.3497 -0.9342
vn 0.0772 0.7431 -0.6647
vn 0.3545 0.6298 -0.6912
vn 0.4314 -0.8957 -0.1078
vn 0.6155 -0.7211 0.3181
vn 0.0152 -0.7649 0.6439
vn 0.3283 -0.7732 0.5425
vn -0.8633 0.4850 0.1395
vn -0.1628 0.0805 -0.9834
vn -0.5915 -0.4491 0.6696
vn -0.7392 -0.6319 0.2331
vn -0.8552 -0.4689 -0.2206
vn 0.1890 -0.9814 -0.0341
vn -0.3988 0.0361 -0.9163
vn -0.6174 -0.6620 -0.4249
vn 0.6429 0.1141 -0.7574
vn -0.3389 -0.4508 -0.8258
vn -0.9280 -0.0581 -0.3680
vn 0.0063 0.3065 -0.9519
vn -0.1520 -0.0196 -0.9882
vn -0.0772 -0.7431 0.6647
vn 0.2785 0.6365 -0.7193
vn -0.0106 -0.7987 -0.6016
vn -0.3286 -0.7908 -0.5164
vn -0.1969 -0.9772 0.0801
vn -0.5508 -0.8147 0.1813
vn -0.0152 0.7649 -0.6439
vn -0.1770 0.3851 -0.9057
vn -0.2840 -0.0214 -0.9586
vn -0.3400 -0.4240 -0.8394
vn -0.8326 0.4465 -0.3277
usemtl None
s 1
f 1/1/1 2/2/2 3/3/3 4/4/4
f 5/5/5 6/6/6 7/7/7 8/8/8
f 9/9/9 10/10/10 11/11/11 12/12/12
f 13/13/13 14/14/14 15/15/15 16/16/16
f 17/17/17 18/18/18 19/19/19 20/20/20
f 21/21/21 22/22/22 23/23/23 24/24/24
f 25/25/25 26/26/26 27/27/27 28/28/28
f 29/29/25 7/7/7 6/6/6 30/30/29
f 31/31/30 32/32/31 33/33/32 34/34/33
f 35/35/34 36/36/35 37/37/36 38/38/37
f 39/39/38 40/40/39 41/41/40 42/42/41
f 30/30/29 6/6/6 43/43/42 2/2/2
f 44/44/43 45/45/44 46/46/45 47/47/46
f 8/8/8 48/48/47 49/49/48 11/11/11
f 50/50/49 51/51/50 52/52/51 53/53/52
f 54/54/53 55/55/54 56/56/55 31/31/30
f 55/55/54 57/57/56 58/58/57 59/59/58
f 60/60/59 61/61/60 10/10/10 9/9/9
f 62/62/61 60/60/59 63/63/62 64/64/63
f 65/65/64 66/66/65 67/67/66 68/68/67
f 69/69/68 70/70/69 71/71/25 72/72/70
f 1/1/1 73/73/71 71/74/25 2/2/2
f 28/28/28 72/72/70 71/71/25 73/75/71
f 74/76/72 27/27/27 26/26/26 75/77/73
f 38/38/37 51/51/50 50/50/49 76/78/74
f 77/79/75 78/80/76 79/81/77 80/82/78
f 32/32/31 81/83/79 82/84/80 33/33/32
f 66/66/65 83/85/81 84/86/82 67/67/66
f 85/87/83 86/88/84 87/89/85 88/90/86
f 45/45/44 89/91/87 90/92/88 91/93/89
f 92/94/90 38/38/37 37/37/36 93/95/91
f 79/96/77 41/97/40 94/98/92 95/99/93
f 96/100/94 43/43/42 6/6/6 5/5/5
f 40/40/39 39/39/38 97/101/95 98/102/96
f 81/83/79 19/19/19 49/103/48 48/104/47
f 18/18/18 99/105/97 49/103/48 19/19/19
f 100/106/98 101/107/25 102/108/25 82/84/80
f 103/109/99 104/110/100 105/111/36 106/112/36
f 107/113/101 108/114/102 109/115/103 110/116/104
f 101/107/25 70/70/69 69/69/68 102/108/25
f 55/55/54 17/17/17 20/20/20 56/56/55
f 40/117/39 98/118/96 90/92/88 89/91/87
f 69/69/68 72/72/70 34/34/33 33/33/32
f 68/68/67 67/67/66 111/119/105 112/120/106
f 64/64/63 113/121/107 4/4/4 3/3/3
f 23/23/23 44/44/43 47/47/46 24/24/24
f 75/77/73 114/122/108 115/123/109 116/124/110
f 101/125/25 29/29/25 30/30/29 70/126/69
f 117/127/111 93/128/91 37/129/36 21/21/21
f 106/112/36 105/111/36 92/94/90 93/95/91
f 118/130/112 53/53/52 119/131/113 120/132/114
f 121/133/115 122/134/25 123/135/25 124/136/116
f 125/137/117 77/79/75 80/82/78 126/138/118
f 12/12/12 11/11/11 49/49/48 99/139/97
f 127/140/119 21/21/21 37/129/36 36/141/35
f 128/142/120 50/50/49 53/53/52 118/130/112
f 127/140/119 84/86/82 83/85/81 21/21/21
f 129/143/36 130/144/121 84/86/82 127/140/119
f 131/145/122 132/146/36 133/147/36 134/148/123
f 106/149/36 93/128/91 117/127/111 135/150/36
f 126/151/118 112/120/106 109/152/103 136/153/124
f 80/154/78 68/68/67 112/120/106 126/151/118
f 76/78/74 13/13/13 16/16/16 137/155/125
f 59/59/58 58/58/57 116/124/110 138/156/126
f 28/28/28 27/27/27 139/157/127 72/72/70
f 140/158/128 107/113/101 134/148/123 141/159/129
f 100/160/98 7/7/7 29/29/25 101/125/25
f 13/13/13 128/142/120 118/130/112 142/161/130
f 60/60/59 85/87/83 88/90/86 63/63/62
f 134/148/123 107/113/101 110/116/104 131/145/122
f 79/96/77 65/65/64 68/68/67 80/154/78
f 111/119/105 110/162/104 109/152/103 112/120/106
f 143/163/131 139/157/127 27/27/27 74/76/72
f 122/164/25 25/25/25 28/28/28 73/75/71
f 21/21/21 83/85/81 66/66/65 22/22/22
f 53/53/52 52/52/51 104/110/100 119/131/113
f 113/121/107 144/165/132 124/136/116 4/4/4
f 22/22/22 66/66/65 65/65/64 79/96/77
f 117/127/111 21/21/21 24/24/24 47/47/46
f 76/78/74 50/50/49 128/142/120 13/13/13
f 133/147/36 35/35/34 141/159/129 134/148/123
f 135/150/36 117/127/111 47/47/46 46/46/45
f 30/30/29 2/2/2 71/74/25 70/126/69
f 123/135/25 1/1/1 4/4/4 124/136/116
f 54/54/53 143/163/131 57/57/56 55/55/54
f 41/97/40 40/117/39 89/91/87 94/98/92
f 122/134/25 73/73/71 1/1/1 123/135/25
f 121/166/115 26/26/26 25/25/25 122/164/25
f 62/62/61 96/100/94 61/61/60 60/60/59
f 142/161/130 118/130/112 120/132/114 145/167/133
f 92/94/90 52/52/51 51/51/50 38/38/37
f 119/131/113 91/168/89 90/169/88 120/132/114
f 146/170/134 147/171/135 148/172/136 136/173/124
f 138/156/126 116/124/110 115/123/109 149/174/137
f 14/14/14 146/175/134 108/114/102 15/15/15
f 102/108/25 69/69/68 33/33/32 82/84/80
f 145/167/133 120/132/114 90/169/88 98/176/96
f 131/177/122 130/144/121 129/143/36 132/178/36
f 86/88/84 149/179/137 115/180/109 87/89/85
f 145/181/133 98/182/96 97/183/95 150/184/138
f 144/165/132 87/89/85 115/180/109 114/185/108
f 103/186/99 106/149/36 135/150/36 46/46/45
f 151/187/139 17/188/17 55/189/54 152/190/140
f 42/191/41 78/192/76 60/193/59 9/194/9
f 153/195/141 152/190/140 55/189/54 59/196/58
f 150/197/138 18/198/18 17/188/17 151/187/139
f 147/199/135 153/195/141 59/196/58 138/200/126
f 39/201/38 42/191/41 9/194/9 12/202/12
f 77/203/75 85/204/83 60/193/59 78/192/76
f 125/205/117 86/206/84 85/204/83 77/203/75
f 126/138/118 136/207/124 148/208/136 125/137/117
f 104/110/100 103/109/99 91/168/89 119/131/113
f 46/46/45 45/45/44 91/93/89 103/186/99
f 42/42/41 41/41/40 79/81/77 78/80/76
f 153/209/141 14/210/14 13/211/13 152/212/140
f 16/16/16 15/15/15 140/158/128 137/155/125
f 95/99/93 94/98/92 44/44/43 23/23/23
f 147/171/135 146/170/134 14/210/14 153/209/141
f 94/98/92 89/91/87 45/45/44 44/44/43
f 130/144/121 131/177/122 110/162/104 111/119/105
f 38/38/37 76/78/74 137/155/125 154/213/142
f 15/15/15 108/114/102 107/113/101 140/158/128
f 151/214/139 152/212/140 13/211/13 142/215/130
f 150/184/138 151/214/139 142/215/130 145/181/133
f 10/10/10 5/5/5 8/8/8 11/11/11
f 56/56/55 20/20/20 32/32/31 31/31/30
f 7/7/7 100/160/98 48/48/47 8/8/8
f 72/72/70 54/54/53 31/31/30 34/34/33
f 2/2/2 62/62/61 64/64/63 3/3/3
f 58/58/57 74/76/72 75/77/73 116/124/110
f 20/20/20 19/19/19 81/83/79 32/32/31
f 61/61/60 96/100/94 5/5/5 10/10/10
f 82/84/80 81/83/79 48/104/47 100/106/98
f 63/63/62 88/90/86 113/121/107 64/64/63
f 26/26/26 121/166/115 114/122/108 75/77/73
f 57/57/56 143/163/131 74/76/72 58/58/57
f 88/90/86 87/89/85 144/165/132 113/121/107
f 72/72/70 139/157/127 143/163/131 54/54/53
f 2/2/2 43/43/42 96/100/94 62/62/61
f 124/136/116 144/165/132 114/185/108 121/133/115
f 12/202/12 99/216/97 97/217/95 39/201/38
f 18/198/18 150/197/138 97/218/95 99/219/97
f 22/22/22 79/96/77 95/99/93 23/23/23
f 67/67/66 84/86/82 130/144/121 111/119/105
f 105/111/36 104/110/100 52/52/51 92/94/90
f 146/175/134 136/220/124 109/115/103 108/114/102
f 138/200/126 149/221/137 148/222/136 147/199/135
f 137/155/125 140/158/128 141/159/129 154/213/142
f 86/206/84 125/205/117 148/223/136 149/224/137
f 132/178/36 129/143/36 127/140/119 36/141/35
f 132/146/36 36/36/35 35/35/34 133/147/36
f 35/35/34 38/38/37 154/213/142 141/159/129
