# Blender v2.79 (sub 0) OBJ File: 'medieval_props_pack.blend'
# www.blender.org
mtllib brazier_stone_1_001.mtl
o brazier_stone
v 0.707107 -0.100000 -0.000000
v 0.494975 1.000000 0.000000
v 0.000000 -0.100000 -0.707107
v 0.000000 1.000000 -0.494975
v 0.000000 -0.100000 0.707107
v 0.000000 1.000000 0.494975
v -0.707107 -0.100000 -0.000000
v -0.494975 1.000000 0.000000
v 0.522500 1.216769 0.904997
v 0.904996 1.216769 0.522500
v 1.045000 1.216769 0.000000
v 0.904997 1.216769 -0.522500
v 0.522501 1.216769 -0.904996
v 0.527142 1.193558 0.913037
v 0.913036 1.193558 0.527142
v 1.054284 1.193558 0.000000
v 0.913037 1.193558 -0.527142
v 0.527143 1.193558 -0.913036
v 0.000000 1.216769 -1.045000
v 0.000000 1.216769 1.045000
v -0.522500 1.216769 0.904997
v -0.904996 1.216769 0.522500
v -1.045000 1.216769 0.000000
v -0.904997 1.216769 -0.522500
v -0.522501 1.216769 -0.904996
v 0.000000 0.798769 0.000000
v 0.000000 1.193558 -1.054285
v 0.000000 1.193558 1.054284
v -0.527142 1.193558 0.913037
v -0.913036 1.193558 0.527142
v -1.054284 1.193558 0.000000
v -0.913037 1.193558 -0.527142
v -0.527143 1.193558 -0.913036
v 0.000000 0.773769 0.000000
v 0.386449 1.100000 0.669350
v 0.669350 1.100000 0.386449
v 0.772898 1.100000 0.000000
v 0.669350 1.100000 -0.386449
v 0.386450 1.100000 -0.669349
v 0.000000 1.100000 -0.772898
v 0.000000 1.100000 0.772898
v -0.386449 1.100000 0.669350
v -0.669350 1.100000 0.386449
v -0.772898 1.100000 0.000000
v -0.669350 1.100000 -0.386449
v -0.386450 1.100000 -0.669349
v 0.000000 1.254580 0.000000
vt 0.962845 0.122568
vt 0.822614 0.310534
vt 0.665096 0.256933
vt 0.737819 0.045995
vt 0.495409 0.238629
vt 0.495409 0.019846
vt 0.027972 0.122568
vt 0.252998 0.045995
vt 0.325721 0.256933
vt 0.168203 0.310534
vt 0.471158 0.697996
vt 0.264217 0.752002
vt 0.415301 0.600962
vt 0.209234 0.547561
vt 0.115136 0.603194
vt 0.319126 0.546425
vt 0.061540 0.697698
vt 0.061364 0.804940
vt 0.939069 0.697271
vt 0.939069 0.808116
vt 0.732230 0.752694
vt 0.787652 0.959533
vt 0.676807 0.959532
vt 0.883646 0.904110
vt 0.580813 0.904110
vt 0.525390 0.808116
vt 0.056409 0.806233
vt 0.056410 0.696387
vt 0.111284 0.599479
vt 0.207738 0.542388
vt 0.320432 0.541167
vt 0.419126 0.597044
vt 0.476634 0.696567
vt 0.469841 0.809953
vt 0.316144 0.957240
vt 0.206862 0.954681
vt 0.412579 0.904532
vt 0.113923 0.898420
vt 0.883646 0.601277
vt 0.676807 0.545854
vt 0.580813 0.601277
vt 0.787652 0.545854
vt 0.525390 0.697271
vt 0.110088 0.902071
vt 0.205316 0.959804
vt 0.317367 0.962484
vt 0.416288 0.908482
vt 0.475093 0.811502
vt 0.605182 0.534673
vt 0.497323 0.426814
vt 0.644661 0.466293
vt 0.605182 0.318955
vt 0.536802 0.279476
vt 0.536802 0.574152
vt 0.644661 0.387335
vt 0.457843 0.279476
vt 0.457843 0.574152
vt 0.389463 0.534673
vt 0.349984 0.387335
vt 0.389464 0.318955
vt 0.349984 0.466293
vn 0.0000 0.1893 -0.9819
vn 0.9819 0.1893 0.0000
vn 0.0000 0.1893 0.9819
vn -0.9819 0.1893 0.0000
vn 0.0000 0.8750 -0.4841
vn 0.0000 1.0000 0.0000
vn 0.2420 0.8750 -0.4192
vn 0.4841 0.8750 0.0000
vn 0.4192 0.8750 0.2420
vn 0.4192 0.8750 -0.2420
vn 0.2420 0.8750 0.4192
vn 0.0000 0.8750 0.4841
vn 0.0000 -0.3578 -0.9338
vn 0.4669 -0.3578 -0.8087
vn 0.0000 -1.0000 0.0000
vn 0.9338 -0.3578 0.0000
vn 0.8087 -0.3578 0.4669
vn 0.8087 -0.3578 -0.4669
vn 0.4669 -0.3578 0.8087
vn 0.0000 -0.3578 0.9338
vn -0.2420 0.8750 -0.4192
vn -0.4841 0.8750 0.0000
vn -0.4192 0.8750 0.2420
vn -0.4192 0.8750 -0.2420
vn -0.2420 0.8750 0.4192
vn -0.4669 -0.3578 -0.8087
vn -0.9338 -0.3578 0.0000
vn -0.8087 -0.3578 0.4669
vn -0.8087 -0.3578 -0.4669
vn -0.4669 -0.3578 0.8087
vn 0.0981 0.9806 -0.1698
vn 0.1698 0.9806 -0.0981
vn 0.1698 0.9806 0.0981
vn 0.0981 0.9806 0.1698
vn 0.0000 0.9806 -0.1961
vn 0.1961 0.9806 0.0000
vn 0.0000 0.9806 0.1961
vn -0.0981 0.9806 -0.1698
vn -0.1698 0.9806 -0.0981
vn -0.1698 0.9806 0.0981
vn -0.0981 0.9806 0.1698
vn -0.1961 0.9806 0.0000
usemtl mat_brazier_stone
s 1
f 3/1/1 4/2/1 2/3/2 1/4/2
f 1/4/2 2/3/2 6/5/3 5/6/3
f 3/7/1 7/8/4 8/9/4 4/10/1
f 7/8/4 5/6/3 6/5/3 8/9/4
f 19/11/5 26/12/6 13/13/7
f 11/14/8 26/12/6 10/15/9
f 12/16/10 26/12/6 11/14/8
f 9/17/11 26/12/6 20/18/12
f 13/13/7 26/12/6 12/16/10
f 10/15/9 26/12/6 9/17/11
f 27/19/13 18/20/14 34/21/15
f 16/22/16 15/23/17 34/21/15
f 17/24/18 16/22/16 34/21/15
f 14/25/19 28/26/20 34/21/15
f 18/20/14 17/24/18 34/21/15
f 15/23/17 14/25/19 34/21/15
f 9/17/11 20/18/12 28/27/20 14/28/19
f 10/15/9 9/17/11 14/28/19 15/29/17
f 11/14/8 10/15/9 15/29/17 16/30/16
f 12/16/10 11/14/8 16/30/16 17/31/18
f 13/13/7 12/16/10 17/31/18 18/32/14
f 19/11/5 13/13/7 18/32/14 27/33/13
f 19/11/5 25/34/21 26/12/6
f 23/35/22 22/36/23 26/12/6
f 24/37/24 23/35/22 26/12/6
f 21/38/25 20/18/12 26/12/6
f 25/34/21 24/37/24 26/12/6
f 22/36/23 21/38/25 26/12/6
f 27/19/13 34/21/15 33/39/26
f 31/40/27 34/21/15 30/41/28
f 32/42/29 34/21/15 31/40/27
f 29/43/30 34/21/15 28/26/20
f 33/39/26 34/21/15 32/42/29
f 30/41/28 34/21/15 29/43/30
f 21/38/25 29/44/30 28/27/20 20/18/12
f 22/36/23 30/45/28 29/44/30 21/38/25
f 23/35/22 31/46/27 30/45/28 22/36/23
f 24/37/24 32/47/29 31/46/27 23/35/22
f 25/34/21 33/48/26 32/47/29 24/37/24
f 19/11/5 27/33/13 33/48/26 25/34/21
f 39/49/31 47/50/6 38/51/32
f 36/52/33 47/50/6 35/53/34
f 40/54/35 47/50/6 39/49/31
f 37/55/36 47/50/6 36/52/33
f 38/51/32 47/50/6 37/55/36
f 35/53/34 47/50/6 41/56/37
f 46/57/38 45/58/39 47/50/6
f 43/59/40 42/60/41 47/50/6
f 40/54/35 46/57/38 47/50/6
f 44/61/42 43/59/40 47/50/6
f 45/58/39 44/61/42 47/50/6
f 42/60/41 41/56/37 47/50/6
