# Blender v2.83.5 OBJ File: ''
# www.blender.org
mtllib cemetery_object_1_001.mtl
o GraveCoffin_grave5.001
v 1.200000 0.328503 0.500000
v -1.200000 0.328503 0.500000
v -1.250000 0.288503 0.550000
v 1.250000 0.288503 0.550000
v 1.200000 0.328503 -0.500000
v 1.200000 1.203503 -0.500000
v 1.200000 1.203503 0.500000
v -1.200000 0.328503 -0.500000
v 1.250000 0.288503 -0.550000
v -1.250000 0.288503 -0.550000
v -1.200000 1.203503 0.500000
v -1.200000 1.203503 -0.500000
v 1.250000 0.148503 -0.550000
v -1.250000 0.148503 -0.550000
v 1.250000 0.148503 0.550000
v -1.250000 0.148503 0.550000
v 1.650000 0.148503 -0.950000
v -1.650000 0.148503 -0.950000
v 1.250000 1.203503 -0.550000
v -1.250000 1.203503 -0.550000
v -1.650000 -0.001497 -0.950000
v 1.650000 -0.001497 -0.950000
v 1.250000 1.203503 0.550000
v -1.650000 -0.001497 0.950000
v -1.650000 0.148503 0.950000
v -1.250000 1.203503 0.550000
v 1.650000 0.148503 0.950000
v 1.250000 1.303503 -0.550000
v 1.250000 1.303503 0.550000
v -1.250000 1.303503 0.550000
v -1.250000 1.303503 -0.550000
v 0.778800 1.530043 0.000000
v -0.887530 1.530543 0.000000
v 1.650000 -0.001497 0.950000
vt 0.858861 0.651515
vt 0.142777 0.651515
vt 0.127859 0.666667
vt 0.873780 0.666667
vt 0.403817 0.348485
vt 0.664889 0.348485
vt 0.664889 0.651515
vt 0.403817 0.651515
vt 0.142777 0.348485
vt 0.858861 0.348485
vt 0.873780 0.333333
vt 0.127859 0.333333
vt 0.858861 0.402314
vt 0.858861 0.667466
vt 0.142777 0.667466
vt 0.142777 0.402314
vt 0.403817 0.651515
vt 0.664889 0.651515
vt 0.664889 0.348485
vt 0.403817 0.348485
vt 0.873780 0.390193
vt 0.873780 0.347769
vt 0.127859 0.347769
vt 0.127859 0.390193
vt 0.142777 0.402314
vt 0.142777 0.667466
vt 0.858861 0.667466
vt 0.858861 0.402314
vt 0.391882 0.666667
vt 0.350111 0.666667
vt 0.350111 0.333333
vt 0.391882 0.333333
vt 0.127859 0.390193
vt 0.127859 0.347769
vt 0.873780 0.347769
vt 0.873780 0.390193
vt 0.391882 0.333333
vt 0.350111 0.333333
vt 0.350111 0.666667
vt 0.391882 0.666667
vt 0.993127 0.212121
vt 0.008512 0.212121
vt 0.127859 0.333333
vt 0.873780 0.333333
vt 0.873780 0.333333
vt 0.858861 0.348485
vt 0.142777 0.348485
vt 0.127859 0.333333
vt 0.008512 0.302314
vt 0.008512 0.347769
vt 0.993127 0.347769
vt 0.993127 0.302314
vt 0.858861 0.651515
vt 0.873780 0.666667
vt 0.305356 0.212121
vt 0.305356 0.787879
vt 0.350111 0.787879
vt 0.350111 0.212121
vt 0.142777 0.651515
vt 0.127859 0.666667
vt 0.127859 0.666667
vt 0.008512 0.787879
vt 0.873780 0.666667
vt 0.993127 0.787879
vt 0.664889 0.333333
vt 0.694726 0.333333
vt 0.694726 0.666667
vt 0.664889 0.666667
vt 0.873780 0.667466
vt 0.873780 0.697769
vt 0.127859 0.697769
vt 0.127859 0.667466
vt 0.664889 0.666667
vt 0.694726 0.666667
vt 0.694726 0.333333
vt 0.664889 0.333333
vt 0.873780 0.666667
vt 0.733188 0.500000
vt 0.236008 0.500000
vt 0.127859 0.666667
vt 0.873780 0.333333
vt 0.127859 0.333333
vt 0.127859 0.667466
vt 0.127859 0.697769
vt 0.873780 0.697769
vt 0.873780 0.667466
vt 0.008512 0.787879
vt 0.008512 0.212121
vt 0.993127 0.212121
vt 0.993127 0.787879
vt 0.305356 0.212121
vt 0.350111 0.212121
vt 0.350111 0.787879
vt 0.305356 0.787879
vt 0.993127 0.302314
vt 0.993127 0.347769
vt 0.008512 0.347769
vt 0.008512 0.302314
vn 0.0000 0.7809 0.6247
vn 1.0000 -0.0000 0.0000
vn 0.0000 0.7809 -0.6247
vn 0.0000 -0.0000 1.0000
vn 0.6247 0.7809 0.0000
vn -0.6247 0.7809 0.0000
vn -1.0000 0.0000 0.0000
vn 0.0000 0.0000 -1.0000
vn 0.0000 1.0000 0.0000
vn 0.0000 -1.0000 -0.0000
vn 0.0001 0.9245 0.3812
vn 0.4333 0.9013 0.0000
vn 0.0001 0.9245 -0.3812
vn -0.5308 0.8475 0.0000
usemtl Stone.002
s off
f 1/1/1 2/2/1 3/3/1 4/4/1
f 5/5/2 6/6/2 7/7/2 1/8/2
f 8/9/3 5/10/3 9/11/3 10/12/3
f 1/13/4 7/14/4 11/15/4 2/16/4
f 5/10/5 1/1/5 4/4/5 9/11/5
f 2/2/6 8/9/6 10/12/6 3/3/6
f 2/17/7 11/18/7 12/19/7 8/20/7
f 9/21/8 13/22/8 14/23/8 10/24/8
f 8/25/8 12/26/8 6/27/8 5/28/8
f 4/29/2 15/30/2 13/31/2 9/32/2
f 3/33/4 16/34/4 15/35/4 4/36/4
f 10/37/7 14/38/7 16/39/7 3/40/7
f 17/41/9 18/42/9 14/43/9 13/44/9
f 19/45/10 6/46/10 12/47/10 20/48/10
f 21/49/8 18/50/8 17/51/8 22/52/8
f 7/53/10 6/46/10 19/45/10 23/54/10
f 21/55/7 24/56/7 25/57/7 18/58/7
f 11/59/10 7/53/10 23/54/10 26/60/10
f 16/61/9 14/43/9 18/42/9 25/62/9
f 15/63/9 16/61/9 25/62/9 27/64/9
f 17/41/9 13/44/9 15/63/9 27/64/9
f 26/60/10 20/48/10 12/47/10 11/59/10
f 19/65/2 28/66/2 29/67/2 23/68/2
f 23/69/4 29/70/4 30/71/4 26/72/4
f 26/73/7 30/74/7 31/75/7 20/76/7
f 29/77/11 32/78/11 33/79/11 30/80/11
f 28/81/12 32/78/12 29/77/12
f 31/82/13 33/79/13 32/78/13 28/81/13
f 30/80/14 33/79/14 31/82/14
f 20/83/8 31/84/8 28/85/8 19/86/8
f 24/87/10 21/88/10 22/89/10 34/90/10
f 22/91/2 17/92/2 27/93/2 34/94/2
f 34/95/4 27/96/4 25/97/4 24/98/4
