# Blender v2.92.0 OBJ File: 'cemetary.blend'
# www.blender.org
mtllib cemetary_3.mtl
o GraveColumn_grave4
v 0.991391 -0.048587 0.991392
v 0.990048 1.033872 0.990048
v -0.990078 1.033872 0.990048
v -0.991421 -0.048587 0.991392
v 0.991391 -0.048587 -0.991421
v 0.990048 1.033873 -0.990077
v -0.991421 -0.048577 -0.991421
v -0.990078 1.033883 -0.990077
v 0.657997 1.244383 0.657998
v -0.658027 1.244383 0.657998
v 0.657997 1.244383 -0.658027
v -0.658027 1.244383 -0.658027
v 0.671008 1.843513 0.671009
v -0.671031 1.843513 0.671002
v 0.671001 1.843513 -0.671030
v -0.671031 1.843523 -0.671030
v 0.532055 2.215943 0.532055
v -0.532077 2.215953 0.532062
v 0.532062 2.215953 -0.532077
v -0.532077 2.215953 -0.532077
v 0.451933 5.859323 0.451933
v -0.451926 5.859323 0.451926
v 0.451926 5.859323 -0.451926
v -0.451926 5.859323 -0.451926
v 0.512284 5.921903 0.512285
v -0.512278 5.921903 0.512278
v 0.512277 5.921903 -0.512277
v -0.512278 5.921903 -0.512277
v 0.509180 6.037443 0.509181
v -0.509181 6.037443 0.509181
v 0.509180 6.037443 -0.509180
v -0.509174 6.037443 -0.509173
v 0.543532 6.086023 0.543532
v -0.543532 6.086023 0.543532
v 0.543532 6.086023 -0.543531
v -0.543525 6.086023 -0.543524
v 0.553431 6.296523 0.553432
v -0.553425 6.296533 0.553439
v 0.553438 6.296533 -0.553424
v -0.553424 6.296533 -0.553424
v 0.715288 6.442253 0.715288
v -0.715274 6.442263 0.715288
v 0.715288 6.442263 -0.715273
v -0.715274 6.442263 -0.715273
v 0.680937 6.985393 0.680937
v -0.680923 6.985393 0.680937
v 0.680937 6.985393 -0.680922
v -0.680930 6.985403 -0.680929
v 0.360341 7.009013 0.360342
v -0.360328 7.009013 0.360342
v 0.360341 7.009013 -0.360327
v -0.360328 7.009013 -0.360327
v 0.348893 7.397633 0.348894
v -0.348880 7.397633 0.348894
v 0.348893 7.397633 -0.348879
v -0.348880 7.397643 -0.348879
v 0.268743 7.397633 0.268743
v -0.268729 7.397643 0.268743
v 0.268743 7.397643 -0.268728
v -0.268729 7.397643 -0.268728
v 0.177144 7.575763 0.177145
v -0.177130 7.575763 0.177145
v 0.177144 7.575763 -0.177130
v -0.177123 7.575763 -0.177123
v 0.142793 7.559563 0.142794
v -0.142779 7.559563 0.142794
v 0.142793 7.559563 -0.142779
v -0.142779 7.559563 -0.142779
v 0.085546 7.640532 0.085546
v -0.085525 7.640532 0.085539
v 0.085539 7.640532 -0.085524
v -0.085525 7.640532 -0.085524
vt 0.805773 0.257523
vt 0.671101 0.257348
vt 0.671101 0.000174
vt 0.805773 0.000000
vt 0.368655 0.599071
vt 0.503326 0.599245
vt 0.503326 0.856419
vt 0.368655 0.856593
vt 0.671101 0.257523
vt 0.805773 0.257696
vt 0.805773 0.514870
vt 0.671102 0.515045
vt 0.750873 0.599071
vt 0.885544 0.599246
vt 0.885544 0.856420
vt 0.750873 0.856593
vt 0.750873 0.599071
vt 0.709361 0.642197
vt 0.544838 0.642197
vt 0.503327 0.599071
vt 0.750873 0.856244
vt 0.709361 0.813119
vt 0.503326 0.856244
vt 0.544838 0.813119
vt 0.001627 0.599070
vt 0.000000 0.521810
vt 0.167776 0.521810
vt 0.166150 0.599071
vt 0.333926 0.000000
vt 0.335552 0.077261
vt 0.167776 0.077261
vt 0.169402 0.000000
vt 0.669476 0.000000
vt 0.671101 0.077262
vt 0.503326 0.077261
vt 0.504952 0.000000
vt 0.337177 0.599071
vt 0.335552 0.521810
vt 0.503326 0.521809
vt 0.501701 0.599071
vt 0.017371 0.471886
vt 0.150404 0.471885
vt 0.318180 0.127186
vt 0.185147 0.127185
vt 0.653730 0.127186
vt 0.520696 0.127186
vt 0.352921 0.471885
vt 0.485955 0.471885
vt 0.027388 0.000000
vt 0.140384 0.000000
vt 0.308161 0.599070
vt 0.195164 0.599070
vt 0.643710 0.599070
vt 0.530714 0.599070
vt 0.362939 0.000000
vt 0.475935 0.000000
vt 0.813318 0.487903
vt 0.805773 0.495741
vt 0.805774 0.362674
vt 0.813319 0.370512
vt 0.926314 0.487902
vt 0.933859 0.495740
vt 0.926314 0.370512
vt 0.933859 0.362674
vt 0.549419 0.861588
vt 0.563831 0.861991
vt 0.563829 0.994253
vt 0.549418 0.994656
vt 0.503326 0.861589
vt 0.517738 0.861991
vt 0.517739 0.994253
vt 0.503328 0.994656
vt 0.368655 0.881240
vt 0.354244 0.880836
vt 0.354244 0.748575
vt 0.368655 0.748173
vt 0.322563 0.604416
vt 0.336974 0.604819
vt 0.336975 0.737080
vt 0.322563 0.737483
vt 0.569447 0.857530
vt 0.569446 0.998715
vt 0.523354 0.857529
vt 0.523356 0.998714
vt 0.348627 0.885298
vt 0.348627 0.744114
vt 0.342591 0.600357
vt 0.342591 0.741541
vt 0.595510 0.856244
vt 0.595510 1.000000
vt 0.549418 0.856244
vt 0.549418 1.000000
vt 0.322563 0.886584
vt 0.322563 0.742827
vt 0.368655 0.599071
vt 0.368655 0.742827
vt 0.826007 0.164776
vt 0.805773 0.185798
vt 0.805773 0.000000
vt 0.826007 0.021021
vt 0.964382 0.164777
vt 0.984615 0.185798
vt 0.964382 0.021021
vt 0.984615 0.000000
vt 0.315874 0.784868
vt 0.247882 0.780406
vt 0.247884 0.603531
vt 0.315874 0.599070
vt 0.315874 0.970666
vt 0.247884 0.966205
vt 0.247882 0.789330
vt 0.953536 0.970666
vt 0.885544 0.966206
vt 0.885546 0.789330
vt 0.953536 0.784868
vt 0.953536 0.784868
vt 0.885546 0.780407
vt 0.885544 0.603531
vt 0.953536 0.599071
vt 0.976027 0.362674
vt 0.935948 0.321035
vt 0.935948 0.227437
vt 0.976027 0.185799
vt 0.805774 0.362674
vt 0.845853 0.321035
vt 0.805773 0.185798
vt 0.845853 0.227437
vt 0.740968 0.949843
vt 0.692483 0.948356
vt 0.692483 0.857731
vt 0.740968 0.856244
vt 0.048485 0.950192
vt 0.000000 0.948705
vt 0.000000 0.858080
vt 0.048485 0.856593
vt 0.692483 0.949843
vt 0.643996 0.948356
vt 0.643998 0.857731
vt 0.692483 0.856244
vt 0.643996 0.949843
vt 0.595511 0.948356
vt 0.595510 0.857731
vt 0.643996 0.856244
vt 0.893005 0.495741
vt 0.882985 0.506151
vt 0.815793 0.506151
vt 0.805773 0.495741
vt 0.893005 0.586366
vt 0.882985 0.575956
vt 0.805773 0.586366
vt 0.815793 0.575956
vt 0.738687 0.584851
vt 0.715391 0.572954
vt 0.715392 0.526941
vt 0.738687 0.515045
vt 0.761984 0.584851
vt 0.738688 0.572955
vt 0.738687 0.526942
vt 0.761984 0.515045
vt 0.048485 0.856593
vt 0.071781 0.868491
vt 0.071781 0.914502
vt 0.048486 0.926399
vt 0.785279 0.584851
vt 0.761984 0.572954
vt 0.761984 0.526943
vt 0.785279 0.515045
vt 0.715391 0.561058
vt 0.711097 0.556596
vt 0.711097 0.519507
vt 0.715391 0.515045
vt 0.671101 0.561058
vt 0.675396 0.556596
vt 0.671102 0.515046
vt 0.675396 0.519507
vt 0.796063 0.552135
vt 0.785279 0.544699
vt 0.785279 0.522481
vt 0.796063 0.515045
vt 0.796063 0.589224
vt 0.785279 0.581788
vt 0.785279 0.559570
vt 0.703271 0.561058
vt 0.714055 0.568494
vt 0.714055 0.590711
vt 0.703271 0.598147
vt 0.703271 0.598147
vt 0.692488 0.590711
vt 0.692488 0.568494
vt 0.247882 0.599071
vt 0.247882 0.856593
vt 0.000000 0.856593
vt 0.000000 0.599070
vt 0.692488 0.583275
vt 0.671101 0.583276
vt 0.671102 0.561058
vt 0.692488 0.561058
vn 0.5777 -0.5767 0.5777
vn 0.6296 0.4550 0.6296
vn -0.6296 0.4550 0.6296
vn -0.5777 -0.5767 0.5777
vn 0.5777 -0.5767 -0.5777
vn 0.6296 0.4550 -0.6296
vn -0.5777 -0.5767 -0.5777
vn -0.6296 0.4550 -0.6296
vn 0.5129 0.6883 0.5129
vn -0.5129 0.6883 0.5129
vn 0.5129 0.6883 -0.5129
vn -0.5129 0.6883 -0.5129
vn 0.6923 0.2036 0.6923
vn -0.6923 0.2036 0.6923
vn 0.6923 0.2036 -0.6923
vn -0.6923 0.2037 -0.6923
vn 0.6778 0.2848 0.6778
vn -0.6778 0.2848 0.6778
vn 0.6778 0.2848 -0.6778
vn -0.6778 0.2848 -0.6778
vn 0.5899 -0.5513 0.5899
vn -0.5899 -0.5513 0.5899
vn 0.5899 -0.5513 -0.5899
vn -0.5899 -0.5513 -0.5899
vn 0.6572 -0.3688 0.6572
vn -0.6572 -0.3688 0.6572
vn 0.6572 -0.3688 -0.6572
vn -0.6572 -0.3688 -0.6572
vn 0.6327 -0.4463 0.6327
vn -0.6327 -0.4463 0.6327
vn 0.6327 -0.4463 -0.6328
vn -0.6328 -0.4463 -0.6328
vn 0.6589 -0.3630 0.6589
vn -0.6589 -0.3630 0.6589
vn 0.6589 -0.3630 -0.6589
vn -0.6589 -0.3629 -0.6589
vn 0.5501 -0.6283 0.5501
vn -0.5501 -0.6283 0.5501
vn 0.5501 -0.6283 -0.5501
vn -0.5501 -0.6283 -0.5501
vn 0.6572 -0.3689 0.6572
vn -0.6572 -0.3689 0.6572
vn 0.5674 0.5967 0.5674
vn -0.5674 0.5967 0.5674
vn 0.5674 0.5967 -0.5674
vn -0.5674 0.5967 -0.5674
vn 0.3193 0.8922 0.3193
vn -0.3193 0.8922 0.3193
vn 0.3193 0.8922 -0.3193
vn -0.3193 0.8922 -0.3193
vn 0.5695 0.5928 0.5695
vn -0.5695 0.5928 0.5695
vn 0.5695 0.5928 -0.5695
vn -0.5695 0.5928 -0.5695
vn 0.1712 0.9702 0.1712
vn -0.1711 0.9702 0.1712
vn 0.1712 0.9702 -0.1711
vn -0.1711 0.9702 -0.1711
vn 0.3647 0.8567 0.3647
vn -0.3647 0.8567 0.3647
vn 0.3647 0.8567 -0.3647
vn -0.3647 0.8567 -0.3647
vn -0.0239 0.9994 -0.0239
vn 0.0239 0.9994 -0.0239
vn -0.0239 0.9994 0.0239
vn 0.0239 0.9994 0.0239
vn 0.3666 0.8551 0.3666
vn -0.3666 0.8551 0.3666
vn 0.3666 0.8551 -0.3666
vn -0.3666 0.8551 -0.3666
usemtl Stone
s 1
f 1/1/1 2/2/2 3/3/3 4/4/4
f 5/5/5 6/6/6 2/7/2 1/8/1
f 7/9/7 8/10/8 6/11/6 5/12/5
f 4/13/4 3/14/3 8/15/8 7/16/7
f 2/17/2 9/18/9 10/19/10 3/20/3
f 6/21/6 11/22/11 9/18/9 2/17/2
f 8/23/8 12/24/12 11/22/11 6/21/6
f 3/20/3 10/19/10 12/24/12 8/23/8
f 9/25/9 13/26/13 14/27/14 10/28/10
f 11/29/11 15/30/15 13/31/13 9/32/9
f 12/33/12 16/34/16 15/35/15 11/36/11
f 10/37/10 14/38/14 16/39/16 12/40/12
f 13/26/13 17/41/17 18/42/18 14/27/14
f 15/30/15 19/43/19 17/44/17 13/31/13
f 16/34/16 20/45/20 19/46/19 15/35/15
f 14/38/14 18/47/18 20/48/20 16/39/16
f 17/41/17 21/49/21 22/50/22 18/42/18
f 19/43/19 23/51/23 21/52/21 17/44/17
f 20/45/20 24/53/24 23/54/23 19/46/19
f 18/47/18 22/55/22 24/56/24 20/48/20
f 21/57/21 25/58/25 26/59/26 22/60/22
f 23/61/23 27/62/27 25/58/25 21/57/21
f 24/63/24 28/64/28 27/62/27 23/61/23
f 22/60/22 26/59/26 28/64/28 24/63/24
f 25/65/25 29/66/29 30/67/30 26/68/26
f 27/69/27 31/70/31 29/71/29 25/72/25
f 28/73/28 32/74/32 31/75/31 27/76/27
f 26/77/26 30/78/30 32/79/32 28/80/28
f 29/66/29 33/81/33 34/82/34 30/67/30
f 31/70/31 35/83/35 33/84/33 29/71/29
f 32/74/32 36/85/36 35/86/35 31/75/31
f 30/78/30 34/87/34 36/88/36 32/79/32
f 33/81/33 37/89/37 38/90/38 34/82/34
f 35/83/35 39/91/39 37/92/37 33/84/33
f 36/85/36 40/93/40 39/94/39 35/86/35
f 34/87/34 38/95/38 40/96/40 36/88/36
f 37/97/37 41/98/41 42/99/42 38/100/38
f 39/101/39 43/102/27 41/98/41 37/97/37
f 40/103/40 44/104/28 43/102/27 39/101/39
f 38/100/38 42/99/42 44/104/28 40/103/40
f 41/105/41 45/106/43 46/107/44 42/108/42
f 43/109/27 47/110/45 45/111/43 41/105/41
f 44/112/28 48/113/46 47/114/45 43/115/27
f 42/116/42 46/117/44 48/118/46 44/119/28
f 45/120/43 49/121/47 50/122/48 46/123/44
f 47/124/45 51/125/49 49/121/47 45/120/43
f 48/126/46 52/127/50 51/125/49 47/124/45
f 46/123/44 50/122/48 52/127/50 48/126/46
f 49/128/47 53/129/51 54/130/52 50/131/48
f 51/132/49 55/133/53 53/134/51 49/135/47
f 52/136/50 56/137/54 55/138/53 51/139/49
f 50/140/48 54/141/52 56/142/54 52/143/50
f 53/144/51 57/145/55 58/146/56 54/147/52
f 55/148/53 59/149/57 57/145/55 53/144/51
f 56/150/54 60/151/58 59/149/57 55/148/53
f 54/147/52 58/146/56 60/151/58 56/150/54
f 57/152/55 61/153/59 62/154/60 58/155/56
f 59/156/57 63/157/61 61/158/59 57/159/55
f 60/160/58 64/161/62 63/162/61 59/163/57
f 58/164/56 62/165/60 64/166/62 60/167/58
f 61/168/59 65/169/63 66/170/64 62/171/60
f 63/172/61 67/173/65 65/169/63 61/168/59
f 64/174/62 68/175/66 67/173/65 63/172/61
f 62/171/60 66/170/64 68/175/66 64/174/62
f 65/176/63 69/177/67 70/178/68 66/179/64
f 67/180/65 71/181/69 69/182/67 65/176/63
f 68/183/66 72/184/70 71/185/69 67/186/65
f 66/187/64 70/188/68 72/189/70 68/183/66
f 5/190/5 1/191/1 4/192/4 7/193/7
f 70/194/68 69/195/67 71/196/69 72/197/70
