# Blender v2.83.5 OBJ File: ''
# www.blender.org
mtllib cemetery_object_5_001.mtl
o GraveHeadStone_grave2
v -0.500000 -0.014403 0.100000
v -0.500000 -0.014403 -0.100000
v 0.500000 -0.014403 -0.100000
v 0.500000 -0.014403 0.100000
v 0.500000 1.185597 -0.100000
v 0.500000 1.185597 0.100000
v -0.500000 1.185597 0.100000
v -0.500000 1.185597 -0.100000
v -0.340000 1.185597 0.100000
v -0.314120 1.315707 0.100000
v -0.314120 1.315707 -0.100000
v -0.340000 1.185597 -0.100000
v -0.240420 1.426017 0.100000
v -0.240420 1.426017 -0.100000
v -0.130110 1.498547 0.099840
v -0.130110 1.500887 -0.100140
v 0.000000 1.524427 0.100140
v 0.000000 1.526767 -0.099840
v 0.130110 1.499717 0.100000
v 0.130110 1.499717 -0.100000
v 0.240420 1.426017 0.100000
v 0.240420 1.426017 -0.100000
v 0.314120 1.315707 0.100000
v 0.314120 1.315707 -0.100000
v 0.340000 1.185597 0.100000
v 0.340000 1.185597 -0.100000
vt 0.984615 0.418683
vt 0.902564 0.418683
vt 0.902564 0.000000
vt 0.984615 0.000000
vt 0.902564 0.500000
vt 0.902564 1.000000
vt 0.820513 1.000000
vt 0.820513 0.500000
vt 0.820513 0.500000
vt 0.820513 0.000000
vt 0.902564 0.000000
vt 0.902564 0.500000
vt 0.492498 0.748543
vt 0.492498 0.693269
vt 0.574549 0.693268
vt 0.574549 0.748543
vt 0.492498 0.644282
vt 0.574549 0.644282
vt 0.410256 0.845601
vt 0.410451 0.799416
vt 0.492498 0.799416
vt 0.492307 0.845601
vt 0.410374 0.744941
vt 0.492421 0.744941
vt 0.410388 0.690466
vt 0.492438 0.690466
vt 0.410256 0.644282
vt 0.492307 0.644282
vt 0.574549 0.748543
vt 0.574549 0.699556
vt 0.656600 0.699556
vt 0.656600 0.748543
vt 0.574549 0.644282
vt 0.656600 0.644282
vt 0.820513 0.644282
vt 0.410256 0.644282
vt 0.410256 0.141862
vt 0.475897 0.141862
vt 0.486515 0.087387
vt 0.516751 0.041203
vt 0.562006 0.010346
vt 0.615385 0.000000
vt 0.668763 0.010836
vt 0.714018 0.041203
vt 0.744254 0.087387
vt 0.754872 0.141862
vt 0.820513 0.141862
vt 0.410256 0.645261
vt 0.000000 0.645261
vt 0.000000 0.142842
vt 0.065641 0.142842
vt 0.076258 0.088367
vt 0.106494 0.042182
vt 0.151750 0.010835
vt 0.205128 0.000000
vt 0.258507 0.011325
vt 0.303762 0.042182
vt 0.333998 0.088367
vt 0.344615 0.142842
vt 0.410256 0.142842
vt 0.131282 0.728997
vt 0.065641 0.728997
vt 0.065641 0.645261
vt 0.131282 0.645261
vt 0.000000 0.728997
vt 0.000000 0.645261
vt 0.065641 0.645261
vt 0.065641 0.728997
vn 0.0000 -1.0000 -0.0000
vn 1.0000 0.0000 0.0000
vn -1.0000 -0.0000 0.0000
vn -0.9808 0.1951 0.0000
vn -0.8315 0.5555 0.0000
vn -0.5555 0.8315 0.0049
vn -0.1951 0.9807 0.0115
vn 0.1951 0.9808 0.0057
vn 0.5555 0.8315 0.0000
vn 0.8315 0.5555 0.0000
vn 0.9808 0.1951 0.0000
vn -0.0000 0.0000 1.0000
vn 0.0000 0.0000 -1.0000
vn 0.0000 1.0000 0.0000
usemtl Stone.005
s off
f 1/1/1 2/2/1 3/3/1 4/4/1
f 3/5/2 5/6/2 6/7/2 4/8/2
f 1/9/3 7/10/3 8/11/3 2/12/3
f 9/13/4 10/14/4 11/15/4 12/16/4
f 10/14/5 13/17/5 14/18/5 11/15/5
f 13/19/6 15/20/6 16/21/6 14/22/6
f 15/20/7 17/23/7 18/24/7 16/21/7
f 17/23/8 19/25/8 20/26/8 18/24/8
f 19/25/9 21/27/9 22/28/9 20/26/9
f 21/29/10 23/30/10 24/31/10 22/32/10
f 23/30/11 25/33/11 26/34/11 24/31/11
f 1/35/12 4/36/12 6/37/12 25/38/12 23/39/12 21/40/12 19/41/12 17/42/12 15/43/12 13/44/12 10/45/12 9/46/12 7/47/12
f 3/48/13 2/49/13 8/50/13 12/51/13 11/52/13 14/53/13 16/54/13 18/55/13 20/56/13 22/57/13 24/58/13 26/59/13 5/60/13
f 12/61/14 8/62/14 7/63/14 9/64/14
f 26/65/14 25/66/14 6/67/14 5/68/14
