# Blender v2.83.5 OBJ File: ''
# www.blender.org
mtllib cemetery_object_4_001.mtl
o GraveCross_grave1
v -0.125000 1.628550 0.125000
v 0.125000 1.628550 0.125000
v 0.150000 2.000000 0.125000
v -0.150000 2.000000 0.125000
v -0.600000 1.250000 0.125000
v -0.228550 1.275000 0.125000
v -0.228550 1.525000 0.125000
v -0.600000 1.550000 0.125000
v 0.600000 1.250000 0.125000
v 0.600000 1.550000 0.125000
v 0.228550 1.525000 0.125000
v 0.228550 1.275000 0.125000
v 0.150000 -0.000000 0.125000
v 0.125000 1.171450 0.125000
v -0.125000 1.171450 0.125000
v -0.150000 -0.000000 0.125000
v 0.150000 2.000000 -0.125000
v 0.125000 1.628550 -0.125000
v -0.125000 1.628550 -0.125000
v -0.150000 2.000000 -0.125000
v 0.600000 1.550000 -0.125000
v 0.600000 1.250000 -0.125000
v 0.228550 1.275000 -0.125000
v 0.228550 1.525000 -0.125000
v -0.600000 1.550000 -0.125000
v -0.228550 1.525000 -0.125000
v -0.228550 1.275000 -0.125000
v -0.600000 1.250000 -0.125000
v -0.150000 0.000000 -0.125000
v -0.125000 1.171450 -0.125000
v 0.125000 1.171450 -0.125000
v 0.150000 0.000000 -0.125000
vt 0.925084 0.186740
vt 0.798851 0.186740
vt 0.786228 0.000000
vt 0.937707 0.000000
vt 0.151479 0.775666
vt 0.164103 0.588926
vt 0.290335 0.588926
vt 0.302959 0.775666
vt 0.454438 0.828252
vt 0.302959 0.828252
vt 0.315582 0.641512
vt 0.441815 0.641512
vt 0.151479 0.588926
vt 0.164102 0.000000
vt 0.290335 0.000000
vt 0.302959 0.588926
vt 0.858383 0.698396
vt 0.845759 0.885136
vt 0.719527 0.885136
vt 0.706903 0.698396
vt 0.151479 0.775666
vt 0.000000 0.775666
vt 0.012623 0.588926
vt 0.138856 0.588926
vt 0.555424 0.885136
vt 0.568047 0.698396
vt 0.694280 0.698396
vt 0.706903 0.885136
vt 0.000000 0.588926
vt 0.012623 0.000000
vt 0.138856 0.000000
vt 0.151479 0.588926
vt 0.555424 0.052058
vt 0.607710 0.000000
vt 0.733942 0.000000
vt 0.786228 0.052058
vt 0.786228 0.177741
vt 0.733942 0.229799
vt 0.607710 0.229799
vt 0.555424 0.177741
vt 0.555424 0.281857
vt 0.607710 0.229799
vt 0.733942 0.229799
vt 0.786228 0.281857
vt 0.786228 0.407540
vt 0.733942 0.459598
vt 0.607710 0.459598
vt 0.555424 0.407540
vt 0.807890 0.646338
vt 0.681657 0.646338
vt 0.681657 0.459598
vt 0.807890 0.459598
vt 0.302959 0.052847
vt 0.429191 0.052847
vt 0.429191 0.641512
vt 0.302959 0.641512
vt 0.126233 0.775666
vt 0.252466 0.775666
vt 0.252466 0.962406
vt 0.126233 0.962406
vt 0.984615 0.849198
vt 0.858383 0.849198
vt 0.858383 0.698396
vt 0.984615 0.698396
vt 0.555424 0.979072
vt 0.429191 0.979072
vt 0.429191 0.828252
vt 0.555424 0.828252
vt 0.302959 0.000000
vt 0.429191 0.000000
vt 0.786228 0.186740
vt 0.912461 0.186740
vt 0.912461 0.373650
vt 0.786228 0.373650
vt 0.807890 0.698396
vt 0.681657 0.698396
vt 0.302959 0.828252
vt 0.429191 0.828252
vt 0.429191 0.979072
vt 0.302959 0.979072
vt 0.555424 0.588665
vt 0.429191 0.588665
vt 0.429191 0.000000
vt 0.555424 0.000000
vt 0.934122 0.646508
vt 0.807890 0.646508
vt 0.807890 0.459598
vt 0.934122 0.459598
vt 0.858383 0.849198
vt 0.984615 0.849198
vt 0.984615 1.000000
vt 0.858383 1.000000
vt 0.555424 0.459598
vt 0.681657 0.459598
vt 0.681657 0.646338
vt 0.555424 0.646338
vt 0.681657 0.698396
vt 0.555424 0.698396
vt 0.126233 0.962406
vt 0.000000 0.962406
vt 0.000000 0.775666
vt 0.126233 0.775666
vt 0.555424 0.641512
vt 0.429191 0.641512
vn 0.0000 -0.0000 1.0000
vn 0.0000 0.0000 -1.0000
vn 0.0672 0.9977 0.0000
vn -0.9998 0.0213 0.0000
vn 0.0672 -0.9977 0.0000
vn -1.0000 0.0000 0.0000
vn 0.0000 -1.0000 -0.0000
vn -0.7071 -0.7071 0.0000
vn -0.9977 -0.0672 0.0000
vn -0.7071 0.7071 0.0000
vn 0.0000 1.0000 0.0000
vn 0.9998 0.0213 0.0000
vn 0.9977 -0.0672 0.0000
vn 1.0000 0.0000 0.0000
vn -0.0672 0.9977 0.0000
vn 0.7071 0.7071 0.0000
vn -0.0672 -0.9977 0.0000
vn 0.7071 -0.7071 0.0000
usemtl Stone.001
s off
f 1/1/1 2/2/1 3/3/1 4/4/1
f 5/5/1 6/6/1 7/7/1 8/8/1
f 9/9/1 10/10/1 11/11/1 12/12/1
f 13/13/1 14/14/1 15/15/1 16/16/1
f 17/17/2 18/18/2 19/19/2 20/20/2
f 21/21/2 22/22/2 23/23/2 24/24/2
f 25/25/2 26/26/2 27/27/2 28/28/2
f 29/29/2 30/30/2 31/31/2 32/32/2
f 1/33/1 7/34/1 6/35/1 15/36/1 14/37/1 12/38/1 11/39/1 2/40/1
f 18/41/2 24/42/2 23/43/2 31/44/2 30/45/2 27/46/2 26/47/2 19/48/2
f 7/49/3 26/50/3 25/51/3 8/52/3
f 15/53/4 30/54/4 29/55/4 16/56/4
f 5/57/5 28/58/5 27/59/5 6/60/5
f 28/61/6 5/62/6 8/63/6 25/64/6
f 16/65/7 29/66/7 32/67/7 13/68/7
f 15/53/8 6/69/8 27/70/8 30/54/8
f 4/71/9 20/72/9 19/73/9 1/74/9
f 7/49/10 1/75/10 19/76/10 26/50/10
f 3/77/11 17/78/11 20/79/11 4/80/11
f 31/81/12 14/82/12 13/83/12 32/84/12
f 2/85/13 18/86/13 17/87/13 3/88/13
f 9/89/14 22/90/14 21/91/14 10/92/14
f 10/93/15 21/94/15 24/95/15 11/96/15
f 18/97/16 2/98/16 11/96/16 24/95/16
f 22/99/17 9/100/17 12/101/17 23/102/17
f 31/81/18 23/103/18 12/104/18 14/82/18
