# Blender v2.92.0 OBJ File: 'cemetary.blend'
# www.blender.org
mtllib cemetary_7.mtl
o Tomb_Cube
v -1.120628 -0.392768 -1.211702
v -1.120628 -0.392768 0.788298
v -5.725357 -0.392768 0.788298
v -5.725357 -0.392768 -1.211703
v -1.120628 0.326597 -1.211702
v -1.120629 0.326597 0.788298
v -5.725357 0.267317 0.788297
v -5.725357 0.267317 -1.211702
v -5.725357 -0.392768 -0.298969
v -1.120629 0.581647 -0.298968
v -5.725357 0.522367 -0.298969
v -1.120628 0.326597 -1.211702
v -1.120628 -0.392768 -1.211702
v -1.121256 -0.396737 -1.297412
v -1.121233 0.322773 -1.294278
v 0.878754 -0.396673 -1.296034
v 0.878773 0.638246 -1.314538
v -1.121237 0.638182 -1.315917
v -1.119860 0.646894 0.872240
v 0.880150 0.646958 0.873618
v 0.880132 -0.387960 0.892123
v -1.119878 -0.388024 0.890744
v 0.880150 0.646958 0.873618
v -1.119860 0.646894 0.872240
v -1.121237 0.638182 -1.315917
v 0.878773 0.638246 -1.314538
v 0.878773 0.638246 -1.314538
v -1.121237 0.638182 -1.315917
v -1.119860 0.646894 0.872240
v 0.880150 0.646958 0.873618
v 0.763290 0.646446 0.745773
v -1.003161 0.646389 0.744555
v -1.004378 0.638694 -1.188071
v 0.762074 0.638751 -1.186854
v 0.762029 1.045887 -1.192956
v -1.004423 1.045830 -1.194174
v -1.003206 1.053525 0.738453
v 0.763245 1.053582 0.739670
v 0.544694 1.053302 0.500165
v -0.784962 1.053259 0.499249
v -0.785878 1.047467 -0.955492
v 0.543778 1.047509 -0.954575
v 0.543723 4.107019 -0.962105
v -0.785933 4.106977 -0.963021
v -0.785018 4.112769 0.491719
v 0.544638 4.112812 0.492636
v 0.720908 4.113585 0.685476
v -0.961044 4.113531 0.684317
v -0.962203 4.106204 -1.155861
v 0.719749 4.106257 -1.154702
v 0.719744 4.294957 -1.155453
v -0.962208 4.294903 -1.156613
v -0.961050 4.302230 0.683565
v 0.720902 4.302284 0.684725
v 0.034675 4.526420 -0.066014
v -0.275767 4.526409 -0.066228
v -0.275981 4.525057 -0.405874
v 0.034461 4.525067 -0.405660
vt 0.829205 0.784745
vt 0.896371 0.784919
vt 0.891946 0.354960
vt 0.830315 0.354800
vt 0.762039 0.354800
vt 0.829205 0.355026
vt 0.827763 0.784969
vt 0.766132 0.784763
vt 0.251934 0.499126
vt 0.166521 0.499085
vt 0.166683 0.069139
vt 0.252095 0.069180
vt 0.065199 0.499037
vt 0.065360 0.069090
vt 0.318282 0.971838
vt 0.341847 0.870261
vt 0.256400 0.870471
vt 0.256650 0.971990
vt 0.317823 0.785098
vt 0.256191 0.785249
vt 0.252201 0.499082
vt 0.252095 0.069136
vt 0.353614 0.069111
vt 0.438941 0.499036
vt 0.438836 0.069090
vt 0.065199 0.069090
vt 0.065199 0.069090
vt 0.065199 0.069090
vt 0.065199 0.069090
vt 0.574431 0.836819
vt 0.507264 0.836572
vt 0.507592 0.844283
vt 0.574772 0.844823
vt 0.342322 0.785098
vt 0.438466 0.972090
vt 0.438941 0.785349
vt 0.341847 0.971839
vt 0.762027 0.971895
vt 0.732566 0.971978
vt 0.732041 0.785236
vt 0.829205 0.971711
vt 0.828680 0.784969
vt 0.761932 0.364448
vt 0.575118 0.354800
vt 0.761860 0.354883
vt 0.761978 0.551189
vt 0.762039 0.559191
vt 0.575297 0.559108
vt 0.829205 0.786292
vt 0.925905 0.989229
vt 0.829269 0.990603
vt 0.925841 0.784919
vt 0.478135 0.846195
vt 0.483763 0.751262
vt 0.507951 0.649832
vt 0.478073 0.641884
vt 0.575118 0.650079
vt 0.574710 0.640512
vt 0.065199 0.069090
vt 0.065199 0.069090
vt 0.065199 0.069090
vt 0.065199 0.069090
vt 0.065199 0.069090
vt 0.065199 0.069090
vt 0.065199 0.069090
vt 0.065199 0.069090
vt 0.065199 0.069090
vt 0.065199 0.069090
vt 0.065199 0.069090
vt 0.065199 0.069090
vt 0.065199 0.703474
vt 0.065425 0.499165
vt 0.076316 0.511092
vt 0.076116 0.691543
vt 0.252167 0.499126
vt 0.251941 0.703435
vt 0.241050 0.691508
vt 0.241250 0.511058
vt 0.476958 0.640512
vt 0.477422 0.805446
vt 0.439405 0.805556
vt 0.438941 0.640622
vt 0.896791 0.354800
vt 0.896371 0.519735
vt 0.934381 0.519828
vt 0.934801 0.354894
vt 0.275975 0.679964
vt 0.275918 0.499513
vt 0.313935 0.499082
vt 0.313991 0.679534
vt 0.738072 0.739643
vt 0.738017 0.559191
vt 0.700000 0.559621
vt 0.700055 0.740073
vt 0.575120 0.354800
vt 0.575320 0.174350
vt 0.595687 0.196694
vt 0.595536 0.332524
vt 0.740255 0.174316
vt 0.740055 0.354766
vt 0.719687 0.332498
vt 0.719838 0.196668
vt 0.438941 0.784749
vt 0.314791 0.785098
vt 0.313991 0.499432
vt 0.438141 0.499082
vt 0.575118 0.844850
vt 0.699268 0.845166
vt 0.700000 0.559507
vt 0.575850 0.559191
vt 0.439287 0.354843
vt 0.575118 0.354800
vt 0.574772 0.640469
vt 0.438941 0.640512
vt 0.438941 0.354800
vt 0.574772 0.354759
vt 0.575120 0.069090
vt 0.439289 0.069132
vt 0.880987 0.336799
vt 0.880868 0.200970
vt 0.897300 0.182983
vt 0.897450 0.354801
vt 0.756717 0.200915
vt 0.756836 0.336744
vt 0.740405 0.354731
vt 0.740255 0.182914
vt 0.082818 0.703474
vt 0.083259 0.860519
vt 0.065640 0.860568
vt 0.065199 0.703524
vt 0.700400 0.740073
vt 0.700000 0.897117
vt 0.717619 0.897162
vt 0.718018 0.740118
vt 0.258299 0.670908
vt 0.258245 0.499088
vt 0.275864 0.499082
vt 0.275918 0.670902
vt 0.755743 0.731011
vt 0.755691 0.559191
vt 0.738072 0.559197
vt 0.738124 0.731016
vt 0.094932 0.875326
vt 0.095122 0.703507
vt 0.159074 0.773375
vt 0.159039 0.805088
vt 0.252167 0.703474
vt 0.251977 0.875293
vt 0.188025 0.805082
vt 0.188060 0.773369
vn -0.0000 -0.0000 1.0000
vn 0.0000 0.0000 -1.0000
vn -0.0124 0.9630 -0.2691
vn -0.0125 0.9735 0.2284
vn -1.0000 0.0000 0.0000
vn 0.0000 -1.0000 0.0000
vn -1.0000 0.0000 0.0073
vn -0.0007 0.0179 0.9998
vn 0.0007 -0.0684 -0.9977
vn 0.0007 0.0044 -1.0000
vn -0.0073 -0.0179 -0.9998
vn 0.0000 -0.9989 0.0463
vn -0.0020 -1.0000 0.0000
vn 0.0022 -1.0000 0.0040
vn 1.0000 -0.0000 -0.0006
vn -1.0000 0.0005 0.0073
vn -1.0000 -0.0018 0.0005
vn -1.0000 0.0023 0.0005
vn -1.0000 0.0001 0.0080
vn -1.0000 0.0005 0.0006
vn -0.0000 1.0000 -0.0040
vn 0.0007 -0.0150 -0.9999
vn -0.0007 0.0150 0.9999
vn 1.0000 0.0001 -0.0006
vn -1.0000 -0.0001 0.0006
vn -0.0031 1.0000 -0.0040
vn 0.0031 1.0000 -0.0040
vn -0.0000 1.0000 -0.0011
vn -0.0000 1.0000 -0.0068
vn 0.0007 -0.0025 -1.0000
vn -0.0007 0.0025 1.0000
vn -1.0000 -0.0000 0.0006
vn 0.0000 -1.0000 0.0040
vn 0.0007 -0.0040 -1.0000
vn -0.0007 0.0040 1.0000
vn -0.3145 0.9493 -0.0036
vn 0.3144 0.9493 -0.0040
vn -0.0002 0.9581 0.2863
vn 0.0002 0.9560 -0.2932
usemtl Stone
s off
f 2/1/1 6/2/1 7/3/1 3/4/1
f 5/5/2 1/6/2 4/7/2 8/8/2
f 8/9/3 11/10/3 10/11/3 5/12/3
f 11/10/4 7/13/4 6/14/4 10/11/4
f 7/15/5 11/16/5 9/17/5 3/18/5
f 11/16/5 8/19/5 4/20/5 9/17/5
f 2/21/6 3/22/6 9/23/6
f 1/24/6 9/23/6 4/25/6
f 1/24/6 2/21/6 9/23/6
f 1/26/1 5/27/1 12/28/1 13/29/1
f 13/30/7 12/31/7 15/32/7 14/33/7
f 22/34/8 20/35/8 19/36/8
f 22/34/8 21/37/8 20/35/8
f 15/38/9 18/39/9 17/40/9
f 14/41/10 15/38/10 16/42/10
f 15/38/11 17/40/11 16/42/11
f 2/43/12 21/44/12 22/45/12
f 13/46/12 14/47/12 16/48/12
f 2/43/13 13/46/13 16/48/13
f 2/43/14 16/48/14 21/44/14
f 16/49/15 20/50/15 21/51/15
f 16/49/15 17/52/15 20/50/15
f 12/31/16 18/53/16 15/32/16
f 10/54/17 18/53/17 12/31/17
f 6/55/18 19/56/18 10/54/18
f 2/57/19 22/58/19 19/56/19 6/55/19
f 10/54/20 19/56/20 18/53/20
f 18/59/1 19/60/1 24/61/1 25/62/1
f 20/63/1 17/64/1 26/65/1 23/66/1
f 19/60/1 20/63/1 23/66/1 24/61/1
f 17/64/1 18/59/1 25/62/1 26/65/1
f 26/65/1 25/62/1 28/67/1 27/68/1
f 24/61/1 23/66/1 30/69/1 29/70/1
f 23/66/1 26/65/1 27/68/1 30/69/1
f 25/62/1 24/61/1 29/70/1 28/67/1
f 28/71/21 29/72/21 32/73/21 33/74/21
f 30/75/21 27/76/21 34/77/21 31/78/21
f 29/72/21 30/75/21 31/78/21 32/73/21
f 27/76/21 28/71/21 33/74/21 34/77/21
f 34/79/22 33/80/22 36/81/22 35/82/22
f 32/83/23 31/84/23 38/85/23 37/86/23
f 31/87/24 34/88/24 35/89/24 38/90/24
f 33/91/25 32/92/25 37/93/25 36/94/25
f 36/95/26 37/96/26 40/97/26 41/98/26
f 38/99/27 35/100/27 42/101/27 39/102/27
f 37/96/28 38/99/28 39/102/28 40/97/28
f 35/100/29 36/95/29 41/98/29 42/101/29
f 42/103/30 41/104/30 44/105/30 43/106/30
f 40/107/31 39/108/31 46/109/31 45/110/31
f 39/111/15 42/112/15 43/113/15 46/114/15
f 41/115/32 40/116/32 45/117/32 44/118/32
f 44/119/33 45/120/33 48/121/33 49/122/33
f 46/123/33 43/124/33 50/125/33 47/126/33
f 45/120/33 46/123/33 47/126/33 48/121/33
f 43/124/33 44/119/33 49/122/33 50/125/33
f 50/127/34 49/128/34 52/129/34 51/130/34
f 48/131/35 47/132/35 54/133/35 53/134/35
f 47/135/15 50/136/15 51/137/15 54/138/15
f 49/139/32 48/140/32 53/141/32 52/142/32
f 52/143/36 53/144/36 56/145/36 57/146/36
f 54/147/37 51/148/37 58/149/37 55/150/37
f 53/144/38 54/147/38 55/150/38 56/145/38
f 51/148/39 52/143/39 57/146/39 58/149/39
f 57/146/21 56/145/21 55/150/21 58/149/21
