# Blender v2.83.5 OBJ File: ''
# www.blender.org
mtllib cemetery_object_6_001.mtl
o GraveStone_grave3
v 0.500000 0.536676 -0.300000
v 0.500000 1.536676 -0.300000
v 0.500000 1.536676 0.300000
v 0.500000 0.536676 0.300000
v -0.500000 1.536676 0.300000
v -0.500000 0.536676 0.300000
v -0.500000 1.536676 -0.300000
v -0.500000 0.536676 -0.300000
v 0.840000 -0.003144 -0.600000
v 0.840000 -0.003144 0.600000
v -0.840000 -0.003144 0.600000
v -0.840000 -0.003144 -0.600000
v 0.700000 0.496856 -0.500000
v 0.700000 0.496856 0.500000
v -0.700000 0.496856 0.500000
v -0.700000 0.496856 -0.500000
vt 0.365937 0.730106
vt 0.365937 1.000000
vt 0.182969 1.000000
vt 0.182969 0.730106
vt 0.000000 0.457679
vt 0.303464 0.457679
vt 0.303464 0.730106
vt 0.000000 0.730106
vt 0.000000 1.000000
vt 0.000000 0.730106
vt 0.182969 0.730106
vt 0.182969 1.000000
vt 0.365937 0.653827
vt 0.548906 0.653827
vt 0.548906 0.926255
vt 0.365937 0.926255
vt 0.669401 0.653827
vt 0.365937 0.653827
vt 0.365937 0.381399
vt 0.669401 0.381399
vt 0.000000 0.000000
vt 0.365937 0.000000
vt 0.365937 0.457679
vt 0.000000 0.457679
vt 0.827750 0.457679
vt 0.984615 0.484921
vt 0.984615 0.757349
vt 0.827750 0.784592
vt 0.980359 0.457679
vt 0.825622 0.419539
vt 0.825622 0.038140
vt 0.980359 0.000000
vt 0.827750 0.784592
vt 0.670885 0.757349
vt 0.670885 0.484921
vt 0.827750 0.457679
vt 0.825622 0.457679
vt 0.670885 0.419539
vt 0.670885 0.038140
vt 0.825622 0.000000
vt 0.426927 0.326913
vt 0.365937 0.381399
vt 0.365937 0.000000
vt 0.426927 0.054486
vt 0.670885 0.000000
vt 0.609896 0.054486
vt 0.670885 0.381399
vt 0.609896 0.326913
vn 1.0000 0.0000 0.0000
vn 0.0000 -0.0000 1.0000
vn -1.0000 -0.0000 0.0000
vn 0.0000 1.0000 0.0000
vn 0.0000 0.0000 -1.0000
vn 0.0000 -1.0000 -0.0000
vn 0.9630 0.2696 0.0000
vn 0.0000 0.1961 0.9806
vn -0.9630 0.2696 0.0000
vn 0.0000 0.1961 -0.9806
vn 0.0000 0.9808 0.1953
vn 0.1953 0.9808 0.0000
vn 0.0000 0.9808 -0.1953
vn -0.1953 0.9808 0.0000
usemtl Stone.006
s off
f 1/1/1 2/2/1 3/3/1 4/4/1
f 4/5/2 3/6/2 5/7/2 6/8/2
f 6/9/3 5/10/3 7/11/3 8/12/3
f 3/13/4 2/14/4 7/15/4 5/16/4
f 8/17/5 7/18/5 2/19/5 1/20/5
f 9/21/6 10/22/6 11/23/6 12/24/6
f 9/25/7 13/26/7 14/27/7 10/28/7
f 10/29/8 14/30/8 15/31/8 11/32/8
f 11/33/9 15/34/9 16/35/9 12/36/9
f 12/37/10 16/38/10 13/39/10 9/40/10
f 6/41/11 15/42/11 14/43/11 4/44/11
f 4/44/12 14/43/12 13/45/12 1/46/12
f 1/46/13 13/45/13 16/47/13 8/48/13
f 8/48/14 16/47/14 15/42/14 6/41/14
