# Blender v2.92.0 OBJ File: 'cemetary.blend'
# www.blender.org
mtllib cemetary_5.mtl
o GraveHeadStone_grave2
v -0.500000 -0.014403 0.100000
v -0.500000 -0.014403 -0.100000
v 0.500000 -0.014403 -0.100000
v 0.500000 -0.014403 0.100000
v 0.500000 1.185597 -0.100000
v 0.500000 1.185597 0.100000
v -0.500000 1.185597 0.100000
v -0.500000 1.185597 -0.100000
v -0.340000 1.185597 0.100000
v -0.314120 1.315707 0.100000
v -0.130110 1.498547 0.099840
v -0.240420 1.426017 0.100000
v 0.130110 1.499717 0.100000
v 0.000000 1.524427 0.100140
v 0.314120 1.315707 0.100000
v 0.240420 1.426017 0.100000
v 0.340000 1.185597 0.100000
v -0.314120 1.315707 -0.100000
v -0.340000 1.185597 -0.100000
v -0.240420 1.426017 -0.100000
v -0.130110 1.500887 -0.100140
v 0.000000 1.526767 -0.099840
v 0.130110 1.499717 -0.100000
v 0.240420 1.426017 -0.100000
v 0.314120 1.315707 -0.100000
v 0.340000 1.185597 -0.100000
vt 0.984615 0.418683
vt 0.902564 0.418683
vt 0.902564 0.000000
vt 0.984615 0.000000
vt 0.902564 0.500000
vt 0.902564 1.000000
vt 0.820513 1.000000
vt 0.820513 0.500000
vt 0.820513 0.500000
vt 0.820513 0.000000
vt 0.902564 0.000000
vt 0.902564 0.500000
vt 0.492498 0.748543
vt 0.492498 0.693269
vt 0.574549 0.693268
vt 0.574549 0.748543
vt 0.492498 0.644282
vt 0.574549 0.644282
vt 0.410256 0.845601
vt 0.410451 0.799416
vt 0.492498 0.799416
vt 0.492307 0.845601
vt 0.410374 0.744941
vt 0.492421 0.744941
vt 0.410388 0.690466
vt 0.492438 0.690466
vt 0.410256 0.644282
vt 0.492307 0.644282
vt 0.574549 0.748543
vt 0.574549 0.699556
vt 0.656600 0.699556
vt 0.656600 0.748543
vt 0.574549 0.644282
vt 0.656600 0.644282
vt 0.820513 0.644282
vt 0.410256 0.644282
vt 0.410256 0.141862
vt 0.475897 0.141862
vt 0.486515 0.087387
vt 0.516751 0.041203
vt 0.562006 0.010346
vt 0.615385 0.000000
vt 0.668763 0.010836
vt 0.714018 0.041203
vt 0.744254 0.087387
vt 0.754872 0.141862
vt 0.820513 0.141862
vt 0.410256 0.645261
vt 0.000000 0.645261
vt 0.000000 0.142842
vt 0.065641 0.142842
vt 0.076258 0.088367
vt 0.106494 0.042182
vt 0.151750 0.010835
vt 0.205128 0.000000
vt 0.258507 0.011325
vt 0.303762 0.042182
vt 0.333998 0.088367
vt 0.344615 0.142842
vt 0.410256 0.142842
vt 0.131282 0.728997
vt 0.065641 0.728997
vt 0.065641 0.645261
vt 0.131282 0.645261
vt 0.000000 0.728997
vt 0.000000 0.645261
vt 0.065641 0.645261
vt 0.065641 0.728997
vn -0.5773 -0.5773 0.5773
vn -0.5773 -0.5773 -0.5773
vn 0.5773 -0.5773 -0.5773
vn 0.5773 -0.5773 0.5773
vn 0.5773 0.5773 -0.5773
vn 0.5773 0.5773 0.5773
vn -0.5773 0.5773 0.5773
vn -0.5773 0.5773 -0.5773
vn -0.5130 0.6250 0.5884
vn -0.6894 0.2855 0.6657
vn -0.6894 0.2855 -0.6657
vn -0.5130 0.6250 -0.5884
vn -0.5276 0.5275 0.6659
vn -0.5277 0.5278 -0.6655
vn -0.2846 0.6863 0.6692
vn -0.2864 0.6924 -0.6621
vn 0.0000 0.7420 0.6704
vn -0.0000 0.7504 -0.6610
vn 0.2855 0.6895 0.6656
vn 0.2856 0.6893 -0.6658
vn 0.5276 0.5276 0.6657
vn 0.5276 0.5276 -0.6657
vn 0.6894 0.2855 0.6657
vn 0.6894 0.2855 -0.6657
vn 0.5130 0.6250 0.5884
vn 0.5130 0.6250 -0.5884
usemtl Stone
s 1
f 1/1/1 2/2/2 3/3/3 4/4/4
f 3/5/3 5/6/5 6/7/6 4/8/4
f 1/9/1 7/10/7 8/11/8 2/12/2
f 9/13/9 10/14/10 18/15/11 19/16/12
f 10/14/10 12/17/13 20/18/14 18/15/11
f 12/19/13 11/20/15 21/21/16 20/22/14
f 11/20/15 14/23/17 22/24/18 21/21/16
f 14/23/17 13/25/19 23/26/20 22/24/18
f 13/25/19 16/27/21 24/28/22 23/26/20
f 16/29/21 15/30/23 25/31/24 24/32/22
f 15/30/23 17/33/25 26/34/26 25/31/24
f 1/35/1 4/36/4 6/37/6 17/38/25 15/39/23 16/40/21 13/41/19 14/42/17 11/43/15 12/44/13 10/45/10 9/46/9 7/47/7
f 3/48/3 2/49/2 8/50/8 19/51/12 18/52/11 20/53/14 21/54/16 22/55/18 23/56/20 24/57/22 25/58/24 26/59/26 5/60/5
f 19/61/12 8/62/8 7/63/7 9/64/9
f 26/65/26 17/66/25 6/67/6 5/68/5
