# Blender v2.92.0 OBJ File: 'cemetary.blend'
# www.blender.org
mtllib cemetary_1.mtl
o GraveCoffin_grave5
v 1.200000 0.328503 0.500000
v -1.200000 0.328503 0.500000
v -1.250000 0.288503 0.550000
v 1.250000 0.288503 0.550000
v 1.200000 0.328503 -0.500000
v 1.200000 1.203503 -0.500000
v 1.200000 1.203503 0.500000
v -1.200000 0.328503 -0.500000
v 1.250000 0.288503 -0.550000
v -1.250000 0.288503 -0.550000
v -1.200000 1.203503 0.500000
v -1.200000 1.203503 -0.500000
v 1.250000 0.148503 -0.550000
v -1.250000 0.148503 -0.550000
v 1.250000 0.148503 0.550000
v -1.250000 0.148503 0.550000
v 1.650000 0.148503 -0.950000
v -1.650000 0.148503 -0.950000
v 1.250000 1.203503 -0.550000
v -1.250000 1.203503 -0.550000
v -1.650000 -0.001497 -0.950000
v 1.650000 -0.001497 -0.950000
v 1.250000 1.203503 0.550000
v -1.650000 -0.001497 0.950000
v -1.650000 0.148503 0.950000
v -1.250000 1.203503 0.550000
v 1.650000 0.148503 0.950000
v 1.250000 1.303503 -0.550000
v 1.250000 1.303503 0.550000
v -1.250000 1.303503 0.550000
v -1.250000 1.303503 -0.550000
v 0.778800 1.530043 0.000000
v -0.887530 1.530543 0.000000
v 1.650000 -0.001497 0.950000
vt 0.858861 0.651515
vt 0.142777 0.651515
vt 0.127859 0.666667
vt 0.873780 0.666667
vt 0.403817 0.348485
vt 0.664889 0.348485
vt 0.664889 0.651515
vt 0.403817 0.651515
vt 0.142777 0.348485
vt 0.858861 0.348485
vt 0.873780 0.333333
vt 0.127859 0.333333
vt 0.858861 0.402314
vt 0.858861 0.667466
vt 0.142777 0.667466
vt 0.142777 0.402314
vt 0.403817 0.651515
vt 0.664889 0.651515
vt 0.664889 0.348485
vt 0.403817 0.348485
vt 0.873780 0.390193
vt 0.873780 0.347769
vt 0.127859 0.347769
vt 0.127859 0.390193
vt 0.142777 0.402314
vt 0.142777 0.667466
vt 0.858861 0.667466
vt 0.858861 0.402314
vt 0.391882 0.666667
vt 0.350111 0.666667
vt 0.350111 0.333333
vt 0.391882 0.333333
vt 0.127859 0.390193
vt 0.127859 0.347769
vt 0.873780 0.347769
vt 0.873780 0.390193
vt 0.391882 0.333333
vt 0.350111 0.333333
vt 0.350111 0.666667
vt 0.391882 0.666667
vt 0.993127 0.212121
vt 0.008512 0.212121
vt 0.127859 0.333333
vt 0.873780 0.333333
vt 0.873780 0.333333
vt 0.858861 0.348485
vt 0.142777 0.348485
vt 0.127859 0.333333
vt 0.008512 0.302314
vt 0.008512 0.347769
vt 0.993127 0.347769
vt 0.993127 0.302314
vt 0.858861 0.651515
vt 0.873780 0.666667
vt 0.305356 0.212121
vt 0.305356 0.787879
vt 0.350111 0.787879
vt 0.350111 0.212121
vt 0.142777 0.651515
vt 0.127859 0.666667
vt 0.127859 0.666667
vt 0.008512 0.787879
vt 0.873780 0.666667
vt 0.993127 0.787879
vt 0.664889 0.333333
vt 0.694726 0.333333
vt 0.694726 0.666667
vt 0.664889 0.666667
vt 0.873780 0.667466
vt 0.873780 0.697769
vt 0.127859 0.697769
vt 0.127859 0.667466
vt 0.664889 0.666667
vt 0.694726 0.666667
vt 0.694726 0.333333
vt 0.664889 0.333333
vt 0.873780 0.666667
vt 0.733188 0.500000
vt 0.236008 0.500000
vt 0.127859 0.666667
vt 0.873780 0.333333
vt 0.127859 0.333333
vt 0.127859 0.667466
vt 0.127859 0.697769
vt 0.873780 0.697769
vt 0.873780 0.667466
vt 0.008512 0.787879
vt 0.008512 0.212121
vt 0.993127 0.212121
vt 0.993127 0.787879
vt 0.305356 0.212121
vt 0.350111 0.212121
vt 0.350111 0.787879
vt 0.305356 0.787879
vt 0.993127 0.302314
vt 0.993127 0.347769
vt 0.008512 0.347769
vt 0.008512 0.302314
vn 0.5437 0.6394 0.5437
vn -0.5437 0.6394 0.5437
vn -0.6402 0.4245 0.6402
vn 0.6402 0.4245 0.6402
vn 0.5437 0.6394 -0.5437
vn 0.3015 -0.9045 -0.3015
vn 0.3015 -0.9045 0.3015
vn -0.5437 0.6394 -0.5437
vn 0.6402 0.4245 -0.6402
vn -0.6402 0.4245 -0.6402
vn -0.3015 -0.9045 0.3015
vn -0.3015 -0.9045 -0.3015
vn 0.3015 0.9045 -0.3015
vn -0.3015 0.9045 -0.3015
vn 0.3015 0.9045 0.3015
vn -0.3015 0.9045 0.3015
vn 0.5773 0.5773 -0.5773
vn -0.5773 0.5773 -0.5773
vn 0.5773 -0.5773 -0.5773
vn -0.5773 -0.5773 -0.5773
vn 0.5773 -0.5773 0.5773
vn -0.5773 -0.5773 0.5773
vn -0.5773 0.5773 0.5773
vn 0.5773 0.5773 0.5773
vn 0.6140 0.4904 -0.6185
vn 0.6140 0.4904 0.6185
vn -0.6136 0.4810 0.6262
vn -0.6136 0.4810 -0.6262
vn 0.1245 0.9922 0.0000
vn -0.1742 0.9847 0.0000
usemtl Stone
s 1
f 1/1/1 2/2/2 3/3/3 4/4/4
f 5/5/5 6/6/6 7/7/7 1/8/1
f 8/9/8 5/10/5 9/11/9 10/12/10
f 1/13/1 7/14/7 11/15/11 2/16/2
f 5/10/5 1/1/1 4/4/4 9/11/9
f 2/2/2 8/9/8 10/12/10 3/3/3
f 2/17/2 11/18/11 12/19/12 8/20/8
f 9/21/9 13/22/13 14/23/14 10/24/10
f 8/25/8 12/26/12 6/27/6 5/28/5
f 4/29/4 15/30/15 13/31/13 9/32/9
f 3/33/3 16/34/16 15/35/15 4/36/4
f 10/37/10 14/38/14 16/39/16 3/40/3
f 17/41/17 18/42/18 14/43/14 13/44/13
f 19/45/19 6/46/6 12/47/12 20/48/20
f 21/49/20 18/50/18 17/51/17 22/52/19
f 7/53/7 6/46/6 19/45/19 23/54/21
f 21/55/20 24/56/22 25/57/23 18/58/18
f 11/59/11 7/53/7 23/54/21 26/60/22
f 16/61/16 14/43/14 18/42/18 25/62/23
f 15/63/15 16/61/16 25/62/23 27/64/24
f 17/41/17 13/44/13 15/63/15 27/64/24
f 26/60/22 20/48/20 12/47/12 11/59/11
f 19/65/19 28/66/25 29/67/26 23/68/21
f 23/69/21 29/70/26 30/71/27 26/72/22
f 26/73/22 30/74/27 31/75/28 20/76/20
f 29/77/26 32/78/29 33/79/30 30/80/27
f 28/81/25 32/78/29 29/77/26
f 31/82/28 33/79/30 32/78/29 28/81/25
f 30/80/27 33/79/30 31/82/28
f 20/83/20 31/84/28 28/85/25 19/86/19
f 24/87/22 21/88/20 22/89/19 34/90/21
f 22/91/19 17/92/17 27/93/24 34/94/21
f 34/95/21 27/96/24 25/97/23 24/98/22
