# Blender v2.79 (sub 0) OBJ File: ''
# www.blender.org
mtllib chest_1_001.mtl
o Cube.001
v 1.338498 0.127154 1.334164
v -1.661502 0.127154 1.334164
v -1.661501 0.127154 -0.665836
v 1.338499 0.127154 -0.665836
v 1.338498 1.127154 1.334164
v -1.661502 1.127154 1.334163
v -1.661501 1.127154 -0.665837
v 1.338498 1.127154 -0.665836
v 1.138499 0.327154 -0.465836
v -1.461501 0.327154 -0.465836
v -1.461501 0.327154 1.134164
v 1.138498 0.327154 1.134164
v -1.461502 1.127154 1.134163
v 1.138498 1.127154 1.134164
v -1.461501 1.127154 -0.465836
v 1.138498 1.127154 -0.465836
v 1.338499 2.127154 0.334164
v -1.661502 2.127154 0.334164
v -1.661501 2.051033 0.716847
v 1.338499 2.051033 0.716847
v -1.661502 1.834260 1.041270
v 1.338498 1.834260 1.041270
v -1.661502 1.509837 1.258043
v 1.338498 1.509837 1.258043
v -1.661502 1.127154 1.334164
v 1.338498 1.127154 1.334164
v 1.338498 1.127154 -0.665836
v -1.661502 1.127154 -0.665836
v -1.661502 1.509837 -0.589716
v 1.338498 1.509837 -0.589716
v -1.661502 1.834261 -0.372943
v 1.338498 1.834261 -0.372943
v 1.338499 2.051033 -0.048519
v -1.661501 2.051033 -0.048519
v 1.172074 1.878687 0.645464
v -1.495076 1.878688 0.645464
v -1.495076 1.940609 0.334164
v 1.172074 1.940609 0.334164
v 1.172073 1.702352 0.909362
v -1.495076 1.702352 0.909362
v 1.172073 1.438454 1.085698
v -1.495076 1.438454 1.085698
v 1.147511 1.127916 1.133542
v -1.470514 1.127916 1.133542
v 1.172073 1.438454 -0.417370
v -1.495076 1.438455 -0.417370
v -1.470514 1.127916 -0.465214
v 1.147511 1.127916 -0.465214
v 1.172073 1.702352 -0.241034
v -1.495076 1.702352 -0.241034
v -1.495076 1.878688 0.022864
v 1.172074 1.878688 0.022864
v -1.569363 0.120204 -0.561161
v -1.463391 0.120204 -0.561161
v -1.482111 0.000000 -0.542441
v -1.550643 0.000000 -0.542441
v -1.463391 0.120204 -0.455189
v -1.482111 0.000000 -0.473909
v -1.569363 0.120204 -0.455189
v -1.550643 0.000000 -0.473909
v -1.569363 0.120204 1.130019
v -1.463391 0.120204 1.130019
v -1.482111 -0.000000 1.148738
v -1.550643 -0.000000 1.148738
v -1.463391 0.120204 1.235990
v -1.482111 -0.000000 1.217270
v -1.569363 0.120204 1.235990
v -1.550643 -0.000000 1.217270
v 1.131395 0.120204 1.130019
v 1.237366 0.120204 1.130019
v 1.218647 -0.000000 1.148738
v 1.150114 -0.000000 1.148738
v 1.237366 0.120204 1.235990
v 1.218647 -0.000000 1.217271
v 1.131395 0.120204 1.235990
v 1.150114 -0.000000 1.217271
v 1.131395 0.120204 -0.561160
v 1.237367 0.120204 -0.561160
v 1.218647 0.000000 -0.542441
v 1.150115 0.000000 -0.542441
v 1.237367 0.120204 -0.455189
v 1.218647 0.000000 -0.473909
v 1.131395 0.120204 -0.455189
v 1.150115 0.000000 -0.473909
vt 0.490537 0.326925
vt 0.012027 0.326925
vt 0.012027 0.007918
vt 0.490537 0.007918
vt 0.502901 0.666703
vt 0.502901 0.831160
vt 0.996274 0.831160
vt 0.996274 0.666703
vt 0.997182 0.834226
vt 0.997182 0.995238
vt 0.675158 0.995238
vt 0.675158 0.834226
vt 0.996274 0.666703
vt 0.996274 0.831160
vt 0.502901 0.831160
vt 0.502901 0.666703
vt 0.997182 0.995238
vt 0.997182 0.834226
vt 0.675158 0.834226
vt 0.675158 0.995238
vt 0.069664 0.049736
vt 0.435156 0.049736
vt 0.435155 0.278878
vt 0.069664 0.278878
vt 0.000578 0.668782
vt 0.000578 0.832569
vt 0.497714 0.832569
vt 0.497714 0.668782
vt 0.665617 0.834746
vt 0.665617 0.996643
vt 0.341822 0.996643
vt 0.341822 0.834746
vt 0.497714 0.668782
vt 0.497714 0.832569
vt 0.000578 0.832569
vt 0.000578 0.668782
vt 0.665617 0.996643
vt 0.665617 0.834746
vt 0.341822 0.834746
vt 0.341822 0.996643
vt 0.484437 0.316205
vt 0.020161 0.316205
vt 0.051113 0.285253
vt 0.453485 0.285253
vt 0.020161 0.006687
vt 0.051113 0.037639
vt 0.484437 0.006687
vt 0.453485 0.037639
vt 0.496839 0.500000
vt 0.000752 0.500000
vt 0.000753 0.458443
vt 0.496839 0.458443
vt 0.000752 0.416886
vt 0.496838 0.416886
vt 0.000752 0.375330
vt 0.496839 0.375330
vt 0.000752 0.333773
vt 0.496839 0.333773
vt 0.496839 0.666227
vt 0.000752 0.666227
vt 0.000752 0.624670
vt 0.496839 0.624670
vt 0.000752 0.583114
vt 0.496839 0.583113
vt 0.496838 0.541557
vt 0.000752 0.541557
vt 0.317202 0.901626
vt 0.019827 0.901626
vt 0.007576 0.843230
vt 0.329452 0.843230
vt 0.282315 0.951132
vt 0.054714 0.951132
vt 0.230103 0.984211
vt 0.106926 0.984211
vt 0.168514 0.995827
vt 0.007576 0.843863
vt 0.329453 0.843863
vt 0.317202 0.902260
vt 0.019827 0.902260
vt 0.282315 0.951766
vt 0.054714 0.951766
vt 0.230103 0.984844
vt 0.106926 0.984844
vt 0.168515 0.996460
vt 0.993395 0.541848
vt 0.513196 0.541849
vt 0.513196 0.500752
vt 0.993395 0.500752
vt 0.993395 0.582944
vt 0.513196 0.582944
vt 0.993395 0.624039
vt 0.513196 0.624040
vt 0.988973 0.664722
vt 0.517619 0.664723
vt 0.993395 0.377464
vt 0.513196 0.377464
vt 0.517618 0.336781
vt 0.988972 0.336781
vt 0.993395 0.418559
vt 0.513196 0.418559
vt 0.513196 0.459655
vt 0.993395 0.459655
vt 0.042558 0.834498
vt 0.290561 0.834498
vt 0.283139 0.874530
vt 0.049979 0.874530
vt 0.255786 0.908549
vt 0.077333 0.908549
vt 0.214849 0.931281
vt 0.118270 0.931281
vt 0.166559 0.939263
vt 0.049979 0.874530
vt 0.283139 0.874530
vt 0.290561 0.834498
vt 0.042558 0.834498
vt 0.077333 0.908549
vt 0.255786 0.908549
vt 0.118270 0.931281
vt 0.214849 0.931281
vt 0.166559 0.939263
vt 0.483998 0.323687
vt 0.021284 0.323687
vt 0.050742 0.292743
vt 0.454540 0.292744
vt 0.021284 0.015211
vt 0.483998 0.015210
vt 0.454541 0.046154
vt 0.050742 0.046155
vt 0.317959 0.328160
vt 0.317959 0.288626
vt 0.336714 0.306055
vt 0.335218 0.309171
vt 0.357208 0.288280
vt 0.339948 0.307270
vt 0.357208 0.327815
vt 0.338453 0.310385
vt 0.274277 0.328724
vt 0.274277 0.289189
vt 0.293032 0.306618
vt 0.291536 0.309734
vt 0.313526 0.288843
vt 0.296266 0.307833
vt 0.313526 0.328378
vt 0.294771 0.310949
vt 0.271901 0.327311
vt 0.232367 0.327311
vt 0.249796 0.308556
vt 0.252912 0.310052
vt 0.232021 0.288062
vt 0.251011 0.305322
vt 0.271556 0.288062
vt 0.254126 0.306817
vt 0.357870 0.328792
vt 0.357870 0.289257
vt 0.376625 0.306686
vt 0.375130 0.309802
vt 0.397119 0.288912
vt 0.379860 0.307901
vt 0.397119 0.328446
vt 0.378364 0.311017
vn 0.0000 -1.0000 -0.0000
vn -0.0000 0.0000 1.0000
vn -1.0000 0.0000 -0.0000
vn 0.0000 -0.0000 -1.0000
vn 1.0000 0.0000 0.0000
vn 0.0000 1.0000 0.0000
vn 0.0000 0.9808 0.1951
vn 0.0000 0.8315 0.5556
vn 0.0000 0.5556 0.8315
vn 0.0000 0.1951 0.9808
vn 0.0000 0.1951 -0.9808
vn 0.0000 0.5556 -0.8315
vn 0.0000 0.9808 -0.1951
vn 0.0000 0.8315 -0.5556
vn -0.0000 -0.9808 -0.1951
vn -0.0000 -0.8315 -0.5556
vn 0.0000 -0.5556 -0.8315
vn 0.0000 -0.1523 -0.9883
vn -0.0000 -0.1523 0.9883
vn -0.0000 -0.5556 0.8315
vn 0.0000 -0.9808 0.1951
vn 0.0000 -0.8315 0.5556
vn -0.9969 0.0788 0.0000
vn 0.9969 0.0788 0.0000
vn 0.0000 -1.0000 -0.0038
vn 0.0000 -1.0000 0.0038
vn -0.0040 -1.0000 0.0000
vn 0.0040 -1.0000 0.0000
vn -0.6906 -0.2151 -0.6906
vn 0.6906 -0.2151 -0.6906
vn 0.5328 -0.6574 -0.5328
vn -0.5328 -0.6574 -0.5328
vn 0.6906 -0.2151 0.6906
vn 0.5328 -0.6574 0.5328
vn -0.6906 -0.2151 0.6906
vn -0.5328 -0.6574 0.5328
usemtl UV-Material
s off
f 1/1/1 2/2/1 3/3/1 4/4/1
f 1/5/2 5/6/2 6/7/2 2/8/2
f 2/9/3 6/10/3 7/11/3 3/12/3
f 3/13/4 7/14/4 8/15/4 4/16/4
f 5/17/5 1/18/5 4/19/5 8/20/5
f 9/21/6 10/22/6 11/23/6 12/24/6
f 11/25/4 13/26/4 14/27/4 12/28/4
f 10/29/5 15/30/5 13/31/5 11/32/5
f 9/33/2 16/34/2 15/35/2 10/36/2
f 16/37/3 9/38/3 12/39/3 14/40/3
f 6/41/6 5/42/6 14/43/6 13/44/6
f 5/42/6 8/45/6 16/46/6 14/43/6
f 7/47/6 6/41/6 13/44/6 15/48/6
f 8/45/6 7/47/6 15/48/6 16/46/6
f 17/49/7 18/50/7 19/51/7 20/52/7
f 20/52/8 19/51/8 21/53/8 22/54/8
f 22/54/9 21/53/9 23/55/9 24/56/9
f 24/56/10 23/55/10 25/57/10 26/58/10
f 27/59/11 28/60/11 29/61/11 30/62/11
f 30/62/12 29/61/12 31/63/12 32/64/12
f 33/65/13 34/66/13 18/50/13 17/49/13
f 32/64/14 31/63/14 34/66/14 33/65/14
f 30/67/5 24/68/5 26/69/5 27/70/5
f 32/71/5 22/72/5 24/68/5 30/67/5
f 33/73/5 20/74/5 22/72/5 32/71/5
f 33/73/5 17/75/5 20/74/5
f 28/76/3 25/77/3 23/78/3 29/79/3
f 29/79/3 23/78/3 21/80/3 31/81/3
f 31/81/3 21/80/3 19/82/3 34/83/3
f 34/83/3 19/82/3 18/84/3
f 35/85/15 36/86/15 37/87/15 38/88/15
f 39/89/16 40/90/16 36/86/16 35/85/16
f 41/91/17 42/92/17 40/90/17 39/89/17
f 43/93/18 44/94/18 42/92/18 41/91/18
f 45/95/19 46/96/19 47/97/19 48/98/19
f 49/99/20 50/100/20 46/96/20 45/95/20
f 38/88/21 37/87/21 51/101/21 52/102/21
f 52/102/22 51/101/22 50/100/22 49/99/22
f 48/103/23 43/104/23 41/105/23 45/106/23
f 45/106/3 41/105/3 39/107/3 49/108/3
f 49/108/3 39/107/3 35/109/3 52/110/3
f 35/109/3 38/111/3 52/110/3
f 46/112/24 42/113/24 44/114/24 47/115/24
f 50/116/5 40/117/5 42/113/5 46/112/5
f 51/118/5 36/119/5 40/117/5 50/116/5
f 37/120/5 36/119/5 51/118/5
f 26/121/25 25/122/25 44/123/25 43/124/25
f 28/125/26 27/126/26 48/127/26 47/128/26
f 27/126/27 26/121/27 43/124/27 48/127/27
f 25/122/28 28/125/28 47/128/28 44/123/28
s 1
f 53/129/29 54/130/30 55/131/31 56/132/32
f 54/130/30 57/133/33 58/134/34 55/131/31
f 57/133/33 59/135/35 60/136/36 58/134/34
f 59/135/35 53/129/29 56/132/32 60/136/36
f 56/132/32 55/131/31 58/134/34 60/136/36
f 61/137/29 62/138/30 63/139/31 64/140/32
f 62/138/30 65/141/33 66/142/34 63/139/31
f 65/141/33 67/143/35 68/144/36 66/142/34
f 67/143/35 61/137/29 64/140/32 68/144/36
f 64/140/32 63/139/31 66/142/34 68/144/36
f 69/145/29 70/146/30 71/147/31 72/148/32
f 70/146/30 73/149/33 74/150/34 71/147/31
f 73/149/33 75/151/35 76/152/36 74/150/34
f 75/151/35 69/145/29 72/148/32 76/152/36
f 72/148/32 71/147/31 74/150/34 76/152/36
f 77/153/29 78/154/30 79/155/31 80/156/32
f 78/154/30 81/157/33 82/158/34 79/155/31
f 81/157/33 83/159/35 84/160/36 82/158/34
f 83/159/35 77/153/29 80/156/32 84/160/36
f 80/156/32 79/155/31 82/158/34 84/160/36
