# Blender v2.83.5 OBJ File: 'coffin_001.blend'
# www.blender.org
mtllib coffin_003.mtl
o coffin_003_Plane.003
v -1.000000 0.000000 0.200000
v 1.000000 0.000000 0.200000
v -1.000000 0.000000 -0.200000
v 1.000000 0.000000 -0.200000
v -0.500000 0.000000 0.400000
v -0.500000 0.000000 -0.400000
v -0.980000 0.020000 -0.180000
v -0.980000 0.020000 0.180000
v -0.500000 0.020000 0.380000
v 0.980000 0.020000 0.180000
v 0.980000 0.020000 -0.180000
v -0.500000 0.020000 -0.380000
v -1.000000 0.290000 0.200000
v 1.000000 0.290000 0.200000
v -0.500000 0.290000 0.400000
v -1.000000 0.290000 -0.200000
v 1.000000 0.290000 -0.200000
v -0.500000 0.290000 -0.400000
v -0.980000 0.290000 0.180000
v -0.500000 0.290000 0.380000
v 0.980000 0.290000 0.180000
v -0.980000 0.290000 -0.180000
v 0.980000 0.290000 -0.180000
v -0.500000 0.290000 -0.380000
v -0.149950 0.145000 0.397161
v -0.377690 0.145000 0.425157
v -0.148283 0.155392 0.403026
v -0.376023 0.155392 0.431022
v -0.144948 0.155392 0.414756
v -0.372688 0.155392 0.442753
v -0.143280 0.145000 0.420622
v -0.371020 0.145000 0.448618
v -0.144948 0.134608 0.414756
v -0.372688 0.134608 0.442753
v -0.148283 0.134608 0.403026
v -0.376023 0.134608 0.431022
v -0.349782 0.145000 0.377381
v -0.328784 0.145000 0.462783
v -0.345383 0.152794 0.376755
v -0.324386 0.152794 0.462158
v -0.336585 0.152794 0.375505
v -0.315588 0.152794 0.460907
v -0.332186 0.145000 0.374879
v -0.311189 0.145000 0.460282
v -0.336585 0.137206 0.375505
v -0.315588 0.137206 0.460907
v -0.345383 0.137206 0.376755
v -0.324386 0.137206 0.462158
v -0.214633 0.145000 0.360381
v -0.193635 0.145000 0.445783
v -0.210234 0.152794 0.359755
v -0.189237 0.152794 0.445158
v -0.201436 0.152794 0.358505
v -0.180439 0.152794 0.443907
v -0.197037 0.145000 0.357879
v -0.176040 0.145000 0.443282
v -0.201436 0.137206 0.358505
v -0.180439 0.137206 0.443907
v -0.210234 0.137206 0.359755
v -0.189237 0.137206 0.445158
v 0.710763 0.137206 0.326122
v 0.689766 0.137206 0.240719
v 0.719561 0.137206 0.324871
v 0.698564 0.137206 0.239469
v 0.723960 0.145000 0.324246
v 0.702963 0.145000 0.238843
v 0.719561 0.152794 0.324871
v 0.698564 0.152794 0.239469
v 0.710763 0.152794 0.326122
v 0.689766 0.152794 0.240719
v 0.706365 0.145000 0.326747
v 0.685367 0.145000 0.241345
v 0.575614 0.137206 0.343122
v 0.554617 0.137206 0.257719
v 0.584412 0.137206 0.341871
v 0.563415 0.137206 0.256469
v 0.588811 0.145000 0.341246
v 0.567814 0.145000 0.255843
v 0.584412 0.152794 0.341871
v 0.563415 0.152794 0.256469
v 0.575614 0.152794 0.343122
v 0.554617 0.152794 0.257719
v 0.571216 0.145000 0.343747
v 0.550218 0.145000 0.258345
v 0.523977 0.134608 0.311986
v 0.751717 0.134608 0.283990
v 0.527313 0.134608 0.323716
v 0.755052 0.134608 0.295720
v 0.528980 0.145000 0.329582
v 0.756720 0.145000 0.301585
v 0.527313 0.155392 0.323716
v 0.755052 0.155392 0.295720
v 0.523977 0.155392 0.311986
v 0.751717 0.155392 0.283990
v 0.522310 0.145000 0.306121
v 0.750050 0.145000 0.278125
v -0.149950 0.145000 -0.396637
v -0.377690 0.145000 -0.424634
v -0.148283 0.134608 -0.402503
v -0.376023 0.134608 -0.430499
v -0.144948 0.134608 -0.414233
v -0.372688 0.134608 -0.442229
v -0.143280 0.145000 -0.420098
v -0.371020 0.145000 -0.448094
v -0.144948 0.155392 -0.414233
v -0.372688 0.155392 -0.442229
v -0.148283 0.155392 -0.402503
v -0.376023 0.155392 -0.430499
v -0.349782 0.145000 -0.376857
v -0.328784 0.145000 -0.462259
v -0.345383 0.137206 -0.376232
v -0.324386 0.137206 -0.461634
v -0.336585 0.137206 -0.374981
v -0.315588 0.137206 -0.460383
v -0.332186 0.145000 -0.374356
v -0.311189 0.145000 -0.459758
v -0.336585 0.152794 -0.374981
v -0.315588 0.152794 -0.460383
v -0.345383 0.152794 -0.376232
v -0.324386 0.152794 -0.461634
v -0.214633 0.145000 -0.359857
v -0.193635 0.145000 -0.445259
v -0.210234 0.137206 -0.359232
v -0.189237 0.137206 -0.444634
v -0.201436 0.137206 -0.357981
v -0.180439 0.137206 -0.443383
v -0.197037 0.145000 -0.357356
v -0.176040 0.145000 -0.442758
v -0.201436 0.152794 -0.357981
v -0.180439 0.152794 -0.443383
v -0.210234 0.152794 -0.359232
v -0.189237 0.152794 -0.444634
v 0.710763 0.152794 -0.326063
v 0.689766 0.152794 -0.240660
v 0.719561 0.152794 -0.324812
v 0.698564 0.152794 -0.239410
v 0.723960 0.145000 -0.324187
v 0.702963 0.145000 -0.238784
v 0.719561 0.137206 -0.324812
v 0.698564 0.137206 -0.239410
v 0.710763 0.137206 -0.326063
v 0.689766 0.137206 -0.240660
v 0.706365 0.145000 -0.326688
v 0.685367 0.145000 -0.241285
v 0.575614 0.152794 -0.343063
v 0.554617 0.152794 -0.257660
v 0.584412 0.152794 -0.341812
v 0.563415 0.152794 -0.256410
v 0.588811 0.145000 -0.341187
v 0.567814 0.145000 -0.255784
v 0.584412 0.137206 -0.341812
v 0.563415 0.137206 -0.256410
v 0.575614 0.137206 -0.343063
v 0.554617 0.137206 -0.257660
v 0.571216 0.145000 -0.343688
v 0.550218 0.145000 -0.258286
v 0.523977 0.155392 -0.311927
v 0.751717 0.155392 -0.283931
v 0.527313 0.155392 -0.323657
v 0.755052 0.155392 -0.295661
v 0.528980 0.145000 -0.329523
v 0.756720 0.145000 -0.301526
v 0.527313 0.134608 -0.323657
v 0.755052 0.134608 -0.295661
v 0.523977 0.134608 -0.311927
v 0.751717 0.134608 -0.283931
v 0.522310 0.145000 -0.306062
v 0.750050 0.145000 -0.278066
v -1.000000 0.143817 0.574996
v 1.000000 0.143817 0.574996
v -1.000000 0.426660 0.292153
v 1.000000 0.426660 0.292153
v -0.500000 0.002396 0.716417
v -0.500000 0.568081 0.150732
v -1.000000 0.440802 0.306295
v -1.000000 0.157960 0.589138
v -0.500000 0.016538 0.730559
v 1.000000 0.157960 0.589138
v 1.000000 0.440802 0.306295
v -0.500000 0.582224 0.164874
vt 0.789432 0.782786
vt 0.491738 0.782786
vt 0.566162 0.224609
vt 0.715009 0.224609
vt 0.715009 0.968844
vt 0.566162 0.968844
vt 0.502803 0.787062
vt 0.577226 0.236328
vt 0.711189 0.236328
vt 0.785612 0.787062
vt 0.577226 0.965678
vt 0.711189 0.965678
vt 0.799609 0.000000
vt 1.000000 0.000000
vt 1.000000 0.107914
vt 0.799609 0.107914
vt 1.000000 0.560872
vt 0.892516 0.560872
vt 0.892516 0.000000
vt 0.782815 0.561219
vt 0.782815 0.000000
vt 0.890365 0.000000
vt 0.890365 0.561219
vt 1.000000 0.218050
vt 0.799609 0.218050
vt 0.799609 0.110136
vt 1.000000 0.110136
vt 0.998671 0.215286
vt 0.805189 0.218049
vt 0.803754 0.117588
vt 0.997236 0.114824
vt 0.782822 0.554483
vt 0.782817 0.001268
vt 0.882832 0.001267
vt 0.882837 0.554482
vt 0.999983 0.000952
vt 1.000000 0.553810
vt 0.900049 0.553813
vt 0.900032 0.000955
vt 0.805190 0.000000
vt 0.998671 0.002764
vt 0.997236 0.103226
vt 0.803755 0.100462
vt 0.992558 0.215828
vt 0.858595 0.215828
vt 0.858595 0.115356
vt 0.992558 0.115356
vt 0.992558 0.000000
vt 0.992558 0.100472
vt 0.858595 0.100472
vt 0.858595 0.000000
vt 1.000000 0.215828
vt 0.851153 0.215828
vt 0.851153 0.107914
vt 1.000000 0.107914
vt 1.000000 0.000000
vt 1.000000 0.107914
vt 0.851153 0.107914
vt 0.851153 0.000000
vt 0.128906 0.007812
vt 0.128906 0.500000
vt 0.105469 0.496094
vt 0.105469 0.007812
vt 0.078125 0.492188
vt 0.078125 0.003906
vt 0.050781 0.492188
vt 0.050781 0.000000
vt 0.027344 0.492188
vt 0.027344 0.003906
vt 0.246094 0.230469
vt 0.222656 0.246094
vt 0.199219 0.230469
vt 0.199219 0.207031
vt 0.222656 0.191406
vt 0.246094 0.207031
vt 0.000000 0.496094
vt 0.000000 0.007812
vt 0.156250 0.007812
vt 0.156250 0.496094
vt 0.179688 0.246094
vt 0.156250 0.230469
vt 0.156250 0.207031
vt 0.179688 0.191406
vt 0.199219 0.207031
vt 0.199219 0.230469
vt 0.289062 0.191406
vt 0.289062 0.003906
vt 0.308594 0.003906
vt 0.308594 0.191406
vt 0.328125 0.000000
vt 0.328125 0.191406
vt 0.347656 0.000000
vt 0.347656 0.187500
vt 0.367188 0.000000
vt 0.367188 0.191406
vt 0.246094 0.222656
vt 0.246094 0.203125
vt 0.261719 0.191406
vt 0.277344 0.203125
vt 0.277344 0.222656
vt 0.261719 0.230469
vt 0.386719 0.003906
vt 0.386719 0.191406
vt 0.269531 0.191406
vt 0.269531 0.003906
vt 0.226562 0.246094
vt 0.246094 0.253906
vt 0.246094 0.273438
vt 0.226562 0.281250
vt 0.210938 0.273438
vt 0.210938 0.253906
vt 0.175781 0.191406
vt 0.175781 0.003906
vt 0.195312 0.003906
vt 0.195312 0.191406
vt 0.214844 0.000000
vt 0.214844 0.191406
vt 0.230469 0.000000
vt 0.230469 0.187500
vt 0.250000 0.000000
vt 0.250000 0.191406
vt 0.246094 0.242188
vt 0.261719 0.230469
vt 0.277344 0.242188
vt 0.277344 0.257812
vt 0.261719 0.269531
vt 0.246094 0.257812
vt 0.269531 0.003906
vt 0.269531 0.191406
vt 0.156250 0.191406
vt 0.156250 0.003906
vt 0.195312 0.246094
vt 0.210938 0.253906
vt 0.210938 0.273438
vt 0.195312 0.281250
vt 0.179688 0.273438
vt 0.179688 0.253906
vt 0.195312 0.246094
vt 0.210938 0.253906
vt 0.210938 0.273438
vt 0.195312 0.281250
vt 0.179688 0.273438
vt 0.179688 0.253906
vt 0.156250 0.191406
vt 0.156250 0.003906
vt 0.175781 0.003906
vt 0.175781 0.191406
vt 0.250000 0.191406
vt 0.250000 0.000000
vt 0.269531 0.003906
vt 0.269531 0.191406
vt 0.246094 0.242188
vt 0.261719 0.230469
vt 0.277344 0.242188
vt 0.277344 0.257812
vt 0.261719 0.269531
vt 0.246094 0.257812
vt 0.230469 0.187500
vt 0.230469 0.000000
vt 0.214844 0.191406
vt 0.214844 0.000000
vt 0.195312 0.191406
vt 0.195312 0.003906
vt 0.226562 0.246094
vt 0.246094 0.253906
vt 0.246094 0.273438
vt 0.226562 0.281250
vt 0.210938 0.273438
vt 0.210938 0.253906
vt 0.269531 0.191406
vt 0.269531 0.003906
vt 0.289062 0.003906
vt 0.289062 0.191406
vt 0.367188 0.191406
vt 0.367188 0.000000
vt 0.386719 0.003906
vt 0.386719 0.191406
vt 0.246094 0.222656
vt 0.246094 0.203125
vt 0.261719 0.191406
vt 0.277344 0.203125
vt 0.277344 0.222656
vt 0.261719 0.230469
vt 0.347656 0.187500
vt 0.347656 0.000000
vt 0.328125 0.191406
vt 0.328125 0.000000
vt 0.308594 0.191406
vt 0.308594 0.003906
vt 0.179688 0.246094
vt 0.156250 0.230469
vt 0.156250 0.207031
vt 0.179688 0.191406
vt 0.199219 0.207031
vt 0.199219 0.230469
vt 0.156250 0.007812
vt 0.156250 0.496094
vt 0.128906 0.500000
vt 0.128906 0.007812
vt 0.027344 0.003906
vt 0.027344 0.492188
vt 0.000000 0.496094
vt 0.000000 0.007812
vt 0.246094 0.230469
vt 0.222656 0.246094
vt 0.199219 0.230469
vt 0.199219 0.207031
vt 0.222656 0.191406
vt 0.246094 0.207031
vt 0.050781 0.000000
vt 0.050781 0.492188
vt 0.078125 0.003906
vt 0.078125 0.492188
vt 0.105469 0.007812
vt 0.105469 0.496094
vt 0.128906 0.007812
vt 0.128906 0.500000
vt 0.105469 0.496094
vt 0.105469 0.007812
vt 0.078125 0.492188
vt 0.078125 0.003906
vt 0.050781 0.492188
vt 0.050781 0.000000
vt 0.027344 0.492188
vt 0.027344 0.003906
vt 0.246094 0.230469
vt 0.222656 0.246094
vt 0.199219 0.230469
vt 0.199219 0.207031
vt 0.222656 0.191406
vt 0.246094 0.207031
vt 0.000000 0.496094
vt 0.000000 0.007812
vt 0.156250 0.007812
vt 0.156250 0.496094
vt 0.179688 0.246094
vt 0.156250 0.230469
vt 0.156250 0.207031
vt 0.179688 0.191406
vt 0.199219 0.207031
vt 0.199219 0.230469
vt 0.289062 0.191406
vt 0.289062 0.003906
vt 0.308594 0.003906
vt 0.308594 0.191406
vt 0.328125 0.000000
vt 0.328125 0.191406
vt 0.347656 0.000000
vt 0.347656 0.187500
vt 0.367188 0.000000
vt 0.367188 0.191406
vt 0.246094 0.222656
vt 0.246094 0.203125
vt 0.261719 0.191406
vt 0.277344 0.203125
vt 0.277344 0.222656
vt 0.261719 0.230469
vt 0.386719 0.003906
vt 0.386719 0.191406
vt 0.269531 0.191406
vt 0.269531 0.003906
vt 0.226562 0.246094
vt 0.246094 0.253906
vt 0.246094 0.273438
vt 0.226562 0.281250
vt 0.210938 0.273438
vt 0.210938 0.253906
vt 0.175781 0.191406
vt 0.175781 0.003906
vt 0.195312 0.003906
vt 0.195312 0.191406
vt 0.214844 0.000000
vt 0.214844 0.191406
vt 0.230469 0.000000
vt 0.230469 0.187500
vt 0.250000 0.000000
vt 0.250000 0.191406
vt 0.246094 0.242188
vt 0.261719 0.230469
vt 0.277344 0.242188
vt 0.277344 0.257812
vt 0.261719 0.269531
vt 0.246094 0.257812
vt 0.269531 0.003906
vt 0.269531 0.191406
vt 0.156250 0.191406
vt 0.156250 0.003906
vt 0.195312 0.246094
vt 0.210938 0.253906
vt 0.210938 0.273438
vt 0.195312 0.281250
vt 0.179688 0.273438
vt 0.179688 0.253906
vt 0.195312 0.246094
vt 0.210938 0.253906
vt 0.210938 0.273438
vt 0.195312 0.281250
vt 0.179688 0.273438
vt 0.179688 0.253906
vt 0.156250 0.191406
vt 0.156250 0.003906
vt 0.175781 0.003906
vt 0.175781 0.191406
vt 0.250000 0.191406
vt 0.250000 0.000000
vt 0.269531 0.003906
vt 0.269531 0.191406
vt 0.246094 0.242188
vt 0.261719 0.230469
vt 0.277344 0.242188
vt 0.277344 0.257812
vt 0.261719 0.269531
vt 0.246094 0.257812
vt 0.230469 0.187500
vt 0.230469 0.000000
vt 0.214844 0.191406
vt 0.214844 0.000000
vt 0.195312 0.191406
vt 0.195312 0.003906
vt 0.226562 0.246094
vt 0.246094 0.253906
vt 0.246094 0.273438
vt 0.226562 0.281250
vt 0.210938 0.273438
vt 0.210938 0.253906
vt 0.269531 0.191406
vt 0.269531 0.003906
vt 0.289062 0.003906
vt 0.289062 0.191406
vt 0.367188 0.191406
vt 0.367188 0.000000
vt 0.386719 0.003906
vt 0.386719 0.191406
vt 0.246094 0.222656
vt 0.246094 0.203125
vt 0.261719 0.191406
vt 0.277344 0.203125
vt 0.277344 0.222656
vt 0.261719 0.230469
vt 0.347656 0.187500
vt 0.347656 0.000000
vt 0.328125 0.191406
vt 0.328125 0.000000
vt 0.308594 0.191406
vt 0.308594 0.003906
vt 0.179688 0.246094
vt 0.156250 0.230469
vt 0.156250 0.207031
vt 0.179688 0.191406
vt 0.199219 0.207031
vt 0.199219 0.230469
vt 0.156250 0.007812
vt 0.156250 0.496094
vt 0.128906 0.500000
vt 0.128906 0.007812
vt 0.027344 0.003906
vt 0.027344 0.492188
vt 0.000000 0.496094
vt 0.000000 0.007812
vt 0.246094 0.230469
vt 0.222656 0.246094
vt 0.199219 0.230469
vt 0.199219 0.207031
vt 0.222656 0.191406
vt 0.246094 0.207031
vt 0.050781 0.000000
vt 0.050781 0.492188
vt 0.078125 0.003906
vt 0.078125 0.492188
vt 0.105469 0.007812
vt 0.105469 0.496094
vt 0.797245 0.792551
vt 0.722821 0.234375
vt 0.573974 0.234375
vt 0.499551 0.792551
vt 0.722821 0.978610
vt 0.573974 0.978610
vt 0.797245 0.792551
vt 0.499551 0.792551
vt 0.573974 0.234375
vt 0.722821 0.234375
vt 0.722821 0.978610
vt 0.573974 0.978610
vn 0.0000 -1.0000 0.0000
vn 0.0000 1.0000 0.0000
vn -0.3714 0.0000 0.9285
vn 0.1322 0.0000 0.9912
vn 0.1322 0.0000 -0.9912
vn -0.3714 0.0000 -0.9285
vn 0.3846 0.0000 -0.9231
vn -0.1339 0.0000 -0.9910
vn -0.1339 0.0000 0.9910
vn 0.3846 0.0000 0.9231
vn -1.0000 0.0000 0.0000
vn 1.0000 0.0000 0.0000
vn -0.1056 0.5015 -0.8587
vn 0.1056 0.5015 0.8587
vn 0.1056 -0.5015 0.8587
vn -0.9619 0.0000 0.2735
vn -0.1056 -0.5015 -0.8587
vn 0.9619 -0.0000 -0.2735
vn -0.8447 0.4934 0.2077
vn 0.8447 0.4934 -0.2077
vn 0.8447 -0.4934 -0.2077
vn 0.1407 -0.0000 0.9900
vn -0.8447 -0.4934 0.2077
vn -0.1407 0.0000 -0.9900
vn -0.1056 -0.5015 0.8587
vn 0.1056 -0.5015 -0.8587
vn 0.1056 0.5015 -0.8587
vn -0.9619 0.0000 -0.2735
vn -0.1056 0.5015 0.8587
vn 0.9619 0.0000 0.2735
vn -0.8447 -0.4934 -0.2077
vn 0.8447 -0.4934 0.2077
vn 0.8447 0.4934 0.2077
vn 0.1407 0.0000 -0.9900
vn -0.8447 0.4934 -0.2077
vn -0.1407 0.0000 0.9900
vn -0.0000 0.7071 0.7071
vn -0.0000 -0.7071 -0.7071
vn 0.3714 0.6565 -0.6565
vn -0.1322 -0.7009 0.7009
vn 0.3714 -0.6565 0.6565
vn -0.1322 0.7009 -0.7009
usemtl Material
s off
f 5/1/1 6/2/1 4/3/1 2/4/1
f 1/5/1 3/6/1 6/2/1 5/1/1
f 9/7/2 10/8/2 11/9/2 12/10/2
f 8/11/2 9/7/2 12/10/2 7/12/2
f 1/13/3 5/14/3 15/15/3 13/16/3
f 5/14/4 2/17/4 14/18/4 15/19/4
f 4/20/5 6/21/5 18/22/5 17/23/5
f 6/24/6 3/25/6 16/26/6 18/27/6
f 9/28/7 8/29/7 19/30/7 20/31/7
f 10/32/8 9/33/8 20/34/8 21/35/8
f 12/36/9 11/37/9 23/38/9 24/39/9
f 7/40/10 12/41/10 24/42/10 22/43/10
f 11/44/11 10/45/11 21/46/11 23/47/11
f 7/48/12 22/49/12 19/50/12 8/51/12
f 3/52/11 1/53/11 13/54/11 16/55/11
f 4/56/12 17/57/12 14/58/12 2/59/12
f 23/47/2 21/46/2 14/58/2 17/57/2
f 18/22/2 24/39/2 23/38/2 17/23/2
f 16/26/2 22/43/2 24/42/2 18/27/2
f 22/49/2 16/55/2 13/54/2 19/50/2
f 15/15/2 20/31/2 19/30/2 13/16/2
f 14/18/2 21/35/2 20/34/2 15/19/2
f 25/60/13 26/61/13 28/62/13 27/63/13
f 27/63/2 28/62/2 30/64/2 29/65/2
f 29/65/14 30/64/14 32/66/14 31/67/14
f 31/67/15 32/66/15 34/68/15 33/69/15
f 28/70/16 26/71/16 36/72/16 34/73/16 32/74/16 30/75/16
f 33/69/1 34/68/1 36/76/1 35/77/1
f 35/78/17 36/79/17 26/61/17 25/60/17
f 25/80/18 27/81/18 29/82/18 31/83/18 33/84/18 35/85/18
f 37/86/19 38/87/19 40/88/19 39/89/19
f 39/89/2 40/88/2 42/90/2 41/91/2
f 41/91/20 42/90/20 44/92/20 43/93/20
f 43/93/21 44/92/21 46/94/21 45/95/21
f 40/96/22 38/97/22 48/98/22 46/99/22 44/100/22 42/101/22
f 45/95/1 46/94/1 48/102/1 47/103/1
f 47/104/23 48/105/23 38/87/23 37/86/23
f 37/106/24 39/107/24 41/108/24 43/109/24 45/110/24 47/111/24
f 49/112/19 50/113/19 52/114/19 51/115/19
f 51/115/2 52/114/2 54/116/2 53/117/2
f 53/117/20 54/116/20 56/118/20 55/119/20
f 55/119/21 56/118/21 58/120/21 57/121/21
f 52/122/22 50/123/22 60/124/22 58/125/22 56/126/22 54/127/22
f 57/121/1 58/120/1 60/128/1 59/129/1
f 59/130/23 60/131/23 50/113/23 49/112/23
f 49/132/24 51/133/24 53/134/24 55/135/24 57/136/24 59/137/24
f 72/138/24 70/139/24 68/140/24 66/141/24 64/142/24 62/143/24
f 62/144/23 61/145/23 71/146/23 72/147/23
f 64/148/1 63/149/1 61/150/1 62/151/1
f 69/152/22 71/153/22 61/154/22 63/155/22 65/156/22 67/157/22
f 66/158/21 65/159/21 63/149/21 64/148/21
f 68/160/20 67/161/20 65/159/20 66/158/20
f 70/162/2 69/163/2 67/161/2 68/160/2
f 72/147/19 71/146/19 69/163/19 70/162/19
f 84/164/24 82/165/24 80/166/24 78/167/24 76/168/24 74/169/24
f 74/170/23 73/171/23 83/172/23 84/173/23
f 76/174/1 75/175/1 73/176/1 74/177/1
f 81/178/22 83/179/22 73/180/22 75/181/22 77/182/22 79/183/22
f 78/184/21 77/185/21 75/175/21 76/174/21
f 80/186/20 79/187/20 77/185/20 78/184/20
f 82/188/2 81/189/2 79/187/2 80/186/2
f 84/173/19 83/172/19 81/189/19 82/188/19
f 96/190/18 94/191/18 92/192/18 90/193/18 88/194/18 86/195/18
f 86/196/17 85/197/17 95/198/17 96/199/17
f 88/200/1 87/201/1 85/202/1 86/203/1
f 93/204/16 95/205/16 85/206/16 87/207/16 89/208/16 91/209/16
f 90/210/15 89/211/15 87/201/15 88/200/15
f 92/212/14 91/213/14 89/211/14 90/210/14
f 94/214/2 93/215/2 91/213/2 92/212/2
f 96/199/13 95/198/13 93/215/13 94/214/13
f 97/216/25 98/217/25 100/218/25 99/219/25
f 99/219/1 100/218/1 102/220/1 101/221/1
f 101/221/26 102/220/26 104/222/26 103/223/26
f 103/223/27 104/222/27 106/224/27 105/225/27
f 100/226/28 98/227/28 108/228/28 106/229/28 104/230/28 102/231/28
f 105/225/2 106/224/2 108/232/2 107/233/2
f 107/234/29 108/235/29 98/217/29 97/216/29
f 97/236/30 99/237/30 101/238/30 103/239/30 105/240/30 107/241/30
f 109/242/31 110/243/31 112/244/31 111/245/31
f 111/245/1 112/244/1 114/246/1 113/247/1
f 113/247/32 114/246/32 116/248/32 115/249/32
f 115/249/33 116/248/33 118/250/33 117/251/33
f 112/252/34 110/253/34 120/254/34 118/255/34 116/256/34 114/257/34
f 117/251/2 118/250/2 120/258/2 119/259/2
f 119/260/35 120/261/35 110/243/35 109/242/35
f 109/262/36 111/263/36 113/264/36 115/265/36 117/266/36 119/267/36
f 121/268/31 122/269/31 124/270/31 123/271/31
f 123/271/1 124/270/1 126/272/1 125/273/1
f 125/273/32 126/272/32 128/274/32 127/275/32
f 127/275/33 128/274/33 130/276/33 129/277/33
f 124/278/34 122/279/34 132/280/34 130/281/34 128/282/34 126/283/34
f 129/277/2 130/276/2 132/284/2 131/285/2
f 131/286/35 132/287/35 122/269/35 121/268/35
f 121/288/36 123/289/36 125/290/36 127/291/36 129/292/36 131/293/36
f 144/294/36 142/295/36 140/296/36 138/297/36 136/298/36 134/299/36
f 134/300/35 133/301/35 143/302/35 144/303/35
f 136/304/2 135/305/2 133/306/2 134/307/2
f 141/308/34 143/309/34 133/310/34 135/311/34 137/312/34 139/313/34
f 138/314/33 137/315/33 135/305/33 136/304/33
f 140/316/32 139/317/32 137/315/32 138/314/32
f 142/318/1 141/319/1 139/317/1 140/316/1
f 144/303/31 143/302/31 141/319/31 142/318/31
f 156/320/36 154/321/36 152/322/36 150/323/36 148/324/36 146/325/36
f 146/326/35 145/327/35 155/328/35 156/329/35
f 148/330/2 147/331/2 145/332/2 146/333/2
f 153/334/34 155/335/34 145/336/34 147/337/34 149/338/34 151/339/34
f 150/340/33 149/341/33 147/331/33 148/330/33
f 152/342/32 151/343/32 149/341/32 150/340/32
f 154/344/1 153/345/1 151/343/1 152/342/1
f 156/329/31 155/328/31 153/345/31 154/344/31
f 168/346/30 166/347/30 164/348/30 162/349/30 160/350/30 158/351/30
f 158/352/29 157/353/29 167/354/29 168/355/29
f 160/356/2 159/357/2 157/358/2 158/359/2
f 165/360/28 167/361/28 157/362/28 159/363/28 161/364/28 163/365/28
f 162/366/27 161/367/27 159/357/27 160/356/27
f 164/368/26 163/369/26 161/367/26 162/366/26
f 166/370/1 165/371/1 163/369/1 164/368/1
f 168/355/25 167/354/25 165/371/25 166/370/25
f 173/372/37 170/373/37 172/374/37 174/375/37
f 169/376/37 173/372/37 174/375/37 171/377/37
f 177/378/38 180/379/38 179/380/38 178/381/38
f 176/382/38 175/383/38 180/379/38 177/378/38
f 173/372/39 169/376/39 176/382/39 177/378/39
f 172/374/11 170/373/11 178/381/11 179/380/11
f 169/376/12 171/377/12 175/383/12 176/382/12
f 174/375/40 172/374/40 179/380/40 180/379/40
f 171/377/41 174/375/41 180/379/41 175/383/41
f 170/373/42 173/372/42 177/378/42 178/381/42
