# Blender v2.79 (sub 0) OBJ File: ''
# www.blender.org
mtllib object_crystal_004.mtl
o crystal_8_Cylinder.010
v -0.088633 -0.057109 -0.028249
v -0.141027 0.471897 0.053958
v 0.012989 -0.056442 -0.036634
v -0.111501 -0.057300 0.015118
v -0.279442 0.397749 0.072137
v -0.183803 0.298765 0.267243
v -0.053396 -0.057002 0.095999
v -0.097715 0.363325 0.255965
v 0.021135 -0.056502 0.078361
v 0.058514 -0.056187 0.003884
v -0.233042 0.572749 0.207187
v -0.297930 0.345752 0.160578
v -0.076392 0.492836 0.130871
v -0.025872 -0.055895 0.143169
v 0.056545 0.386620 0.161212
v -0.111765 -0.021615 0.039072
v 0.061002 -0.069159 0.118799
v 0.172257 0.310405 0.304593
v 0.118225 -0.060221 0.014659
v 0.326667 0.297492 0.242750
v 0.301528 0.364833 -0.029651
v 0.027584 -0.030034 -0.061233
v 0.155510 0.440402 0.031703
v -0.067897 -0.013870 -0.048255
v 0.301412 0.548329 0.118522
v 0.397789 0.295312 0.070369
v -0.060436 -0.023348 -0.068353
v -0.032102 0.430925 -0.249388
v -0.035181 -0.045781 -0.146473
v 0.027536 0.440899 -0.023552
v -0.033411 -0.026288 -0.039189
v 0.133367 0.389331 -0.061477
v 0.020691 -0.044333 -0.054937
v 0.169884 0.379149 -0.183189
v 0.033503 -0.061452 -0.124186
v 0.009267 -0.061239 -0.161306
v 0.113478 0.421721 -0.262991
v -0.073132 0.449590 -0.132045
v 0.100637 0.543029 -0.164518
vt 0.714844 0.031250
vt 0.632812 0.382812
vt 0.636719 0.003906
vt 0.750000 0.042969
vt 0.714844 0.343750
vt 0.835938 0.312500
vt 0.828125 0.050781
vt 0.890625 0.343750
vt 0.882812 0.027344
vt 0.941406 0.000000
vt 0.585938 0.000000
vt 0.777344 0.527344
vt 0.765625 0.332031
vt 0.992188 0.460938
vt 0.562500 0.449219
vt 0.199219 0.007812
vt 0.132812 0.304688
vt 0.082031 0.000000
vt 0.277344 0.019531
vt 0.218750 0.281250
vt 0.371094 0.031250
vt 0.281250 0.296875
vt 0.417969 0.339844
vt 0.476562 0.019531
vt 0.542969 0.457031
vt 0.562500 0.000000
vt 0.000000 0.015625
vt 0.277344 0.531250
vt 0.343750 0.308594
vt 0.066406 0.437500
vt 0.839844 0.542969
vt 0.785156 0.832031
vt 0.773438 0.539062
vt 0.898438 0.855469
vt 0.875000 0.542969
vt 1.000000 0.898438
vt 0.921875 0.527344
vt 0.671875 0.847656
vt 0.636719 0.527344
vt 0.699219 0.531250
vt 0.734375 0.531250
vt 0.730469 0.847656
vt 0.832031 0.835938
vt 0.781250 1.000000
vt 0.562500 0.898438
vn -0.0823 0.1451 -0.9860
vn -0.8540 -0.2586 -0.4515
vn -0.7020 -0.5010 0.5062
vn 0.2197 -0.3267 0.9192
vn 0.8919 0.0630 0.4479
vn 0.6319 0.3063 -0.7119
vn -0.4199 0.6216 -0.6613
vn -0.9590 0.2813 -0.0351
vn -0.6732 0.0408 0.7383
vn -0.0288 0.2091 0.9775
vn 0.5735 0.5183 0.6344
vn 0.2332 0.8707 -0.4330
vn -0.7479 0.1126 0.6542
vn 0.1703 -0.4730 0.8644
vn 0.7059 -0.6245 0.3343
vn 0.5450 -0.3160 -0.7766
vn -0.0952 0.2178 -0.9713
vn -0.8148 0.4465 -0.3697
vn -0.3419 0.6870 0.6411
vn 0.3651 0.4424 0.8191
vn 0.8912 0.2702 0.3643
vn 0.7838 0.3905 -0.4829
vn -0.0018 0.6282 -0.7780
vn -0.5594 0.8246 -0.0850
vn -0.9546 -0.0569 -0.2923
vn -0.7280 0.0721 0.6818
vn -0.7280 0.0722 0.6818
vn -0.7279 0.0721 0.6818
vn 0.2625 -0.0537 0.9634
vn 0.9366 -0.2582 0.2371
vn 0.7938 -0.3153 -0.5201
vn -0.3515 -0.1197 -0.9285
vn -0.4946 0.8147 -0.3025
vn -0.3710 0.8328 0.4109
vn 0.5064 0.5520 0.6625
vn 0.9035 0.3542 0.2414
vn 0.8360 0.3965 -0.3794
vn -0.0330 0.6278 -0.7777
vn -0.1979 0.1313 -0.9714
vn -0.8911 -0.2846 -0.3536
vn -0.6909 -0.5059 0.5164
vn 0.3432 -0.3023 0.8893
vn 0.9345 0.1555 0.3203
vn 0.6807 0.3197 -0.6591
vn -0.7435 0.1116 0.6593
vn 0.2891 -0.4879 0.8236
vn 0.7243 -0.6176 0.3066
vn 0.5608 -0.3214 -0.7631
vn -0.2596 0.2546 -0.9315
vn -0.7874 0.4596 -0.4109
vn -0.9451 -0.0684 -0.3196
vn -0.7282 0.0722 0.6815
vn 0.3054 -0.0716 0.9495
vn 0.9252 -0.2359 0.2973
vn 0.7025 -0.2886 -0.6505
vn -0.1041 -0.2092 -0.9723
usemtl crystal.002
s 1
f 1/1/1 2/2/1 3/3/1
f 4/4/2 5/5/2 1/1/2
f 6/6/3 4/4/3 7/7/3
f 8/8/4 7/7/4 9/9/4
f 10/10/5 8/8/5 9/9/5
f 2/2/6 10/11/6 3/3/6
f 5/5/7 11/12/7 2/2/7
f 12/13/8 11/12/8 5/5/8
f 6/6/9 11/12/9 12/13/9
f 8/8/10 11/12/10 6/6/10
f 13/14/11 11/12/11 8/8/11
f 2/2/12 11/12/12 13/15/12
f 14/16/13 15/17/13 16/18/13
f 17/19/14 18/20/14 14/16/14
f 19/21/15 20/22/15 17/19/15
f 21/23/16 19/21/16 22/24/16
f 23/25/17 22/24/17 24/26/17
f 15/17/18 24/27/18 16/18/18
f 18/20/19 25/28/19 15/17/19
f 20/22/20 25/28/20 18/20/20
f 26/29/21 25/28/21 20/22/21
f 21/23/22 25/28/22 26/29/22
f 23/25/23 25/28/23 21/23/23
f 15/17/24 25/28/24 23/30/24
f 27/31/25 28/32/25 29/33/25
f 30/34/26 27/31/27 31/35/28
f 32/36/29 31/35/29 33/37/29
f 34/38/30 33/39/30 35/40/30
f 36/41/31 34/38/31 35/40/31
f 29/33/32 37/42/32 36/41/32
f 38/43/33 39/44/33 28/32/33
f 30/34/34 39/44/34 38/43/34
f 32/36/35 39/44/35 30/34/35
f 34/38/36 39/44/36 32/45/36
f 37/42/37 39/44/37 34/38/37
f 28/32/38 39/44/38 37/42/38
f 1/1/39 5/5/39 2/2/39
f 4/4/40 12/13/40 5/5/40
f 6/6/41 12/13/41 4/4/41
f 8/8/42 6/6/42 7/7/42
f 10/10/43 13/14/43 8/8/43
f 2/2/44 13/15/44 10/11/44
f 14/16/45 18/20/45 15/17/45
f 17/19/46 20/22/46 18/20/46
f 19/21/47 26/29/47 20/22/47
f 21/23/48 26/29/48 19/21/48
f 23/25/49 21/23/49 22/24/49
f 15/17/50 23/30/50 24/27/50
f 27/31/51 38/43/51 28/32/51
f 30/34/26 38/43/52 27/31/27
f 32/36/53 30/34/53 31/35/53
f 34/38/54 32/45/54 33/39/54
f 36/41/55 37/42/55 34/38/55
f 29/33/56 28/32/56 37/42/56
