# Blender v2.79 (sub 0) OBJ File: ''
# www.blender.org
mtllib object_crystal_009.mtl
o crystal_6_Cylinder.007
v -0.167074 -0.044443 -0.124298
v -0.126373 0.837478 -0.110533
v -0.021010 -0.044443 -0.096297
v -0.002340 -0.044443 0.049668
v -0.093690 0.837478 0.144995
v -0.125664 -0.044443 0.199455
v -0.260494 0.837478 0.292722
v -0.276206 -0.044443 0.136448
v -0.506476 0.768701 -0.034216
v -0.295390 -0.044443 -0.013543
v -0.327974 0.768701 -0.162671
v -0.377200 1.435316 0.097513
v -0.477278 0.837478 0.194058
v -0.108000 -0.057480 -0.034235
v 0.177617 0.516189 -0.413525
v -0.049336 -0.146133 -0.128278
v 0.378442 0.458317 -0.302829
v 0.058143 -0.177105 -0.069035
v 0.130388 -0.126175 0.097166
v 0.441618 0.539922 -0.092200
v 0.045948 -0.030094 0.177001
v 0.305887 0.688769 0.026271
v -0.064494 0.001732 0.116125
v 0.081083 0.648778 -0.282188
v 0.126481 0.740468 -0.072618
v 0.378263 0.963787 -0.292658
v 0.082842 0.676772 0.138204
v -0.006813 0.655602 0.239207
v 0.245434 1.097014 0.338555
v 0.193485 0.552473 0.145248
v 0.226657 0.478010 0.257670
v 0.150081 0.523142 0.374072
v 0.016483 0.590384 0.356484
v -0.154250 -0.011125 0.079320
v -0.130636 -0.038806 0.166016
v -0.059020 -0.080780 0.184530
v 0.000334 -0.101726 0.119283
v -0.041916 -0.063122 0.027770
v -0.111611 -0.022274 0.009753
v 0.029163 -0.019147 -0.130708
v -0.045987 0.594894 -0.166080
v -0.018195 -0.019947 -0.063615
v -0.180749 0.517727 -0.183685
v -0.094113 -0.037795 -0.086444
v -0.223948 0.465845 -0.300796
v -0.139225 -0.058734 -0.181344
v -0.073659 -0.053654 -0.242962
v -0.133754 0.487648 -0.411564
v 0.004353 -0.035314 -0.219503
v 0.010160 0.513083 -0.385243
v 0.041470 0.559506 -0.264143
v -0.101037 0.976294 -0.352400
v 0.002700 -0.027298 0.146303
v 0.223985 0.549465 0.194503
v -0.035933 -0.005495 0.077186
v 0.275997 0.476705 0.066339
v 0.011228 -0.026042 0.014281
v 0.382574 0.393583 0.064031
v 0.107303 -0.072871 0.006778
v 0.134624 -0.089745 0.090982
v 0.446605 0.376538 0.192442
v 0.086163 -0.068632 0.155621
v 0.369775 0.402330 0.316873
v 0.263319 0.482004 0.305946
v 0.507866 0.857996 0.280712
vt 0.289062 0.046875
vt 0.000000 0.199219
vt 0.261719 -0.000000
vt 0.269531 0.511719
vt 0.460938 0.234375
vt 0.500000 0.273438
vt 0.230469 0.425781
vt 0.406250 0.183594
vt 0.191406 0.371094
vt 0.359375 0.144531
vt 0.121094 0.273438
vt 0.324219 0.101562
vt 0.074219 0.226562
vt 0.000000 0.460938
vt 0.148438 0.328125
vt 0.789062 0.015625
vt 0.730469 0.238281
vt 0.734375 0.003906
vt 0.675781 0.230469
vt 0.687500 -0.000000
vt 0.617188 0.007812
vt 0.625000 0.246094
vt 0.558594 0.019531
vt 0.570312 0.277344
vt 0.507812 0.023438
vt 0.855469 0.023438
vt 0.781250 0.269531
vt 0.855469 0.328125
vt 0.679688 0.406250
vt 0.500000 0.324219
vt 0.500000 0.667969
vt 0.546875 0.648438
vt 0.632812 0.820312
vt 0.703125 0.625000
vt 0.746094 0.664062
vt 0.667969 0.609375
vt 0.628906 0.621094
vt 0.585938 0.628906
vt 0.562500 0.414062
vt 0.593750 0.417969
vt 0.625000 0.414062
vt 0.656250 0.406250
vt 0.695312 0.406250
vt 0.726562 0.410156
vt 0.531250 0.406250
vt 0.207031 0.632812
vt 0.324219 0.832031
vt 0.183594 0.648438
vt 0.324219 0.515625
vt 0.437500 0.664062
vt 0.304688 0.535156
vt 0.402344 0.683594
vt 0.277344 0.562500
vt 0.257812 0.589844
vt 0.382812 0.714844
vt 0.234375 0.613281
vt 0.359375 0.746094
vt 0.339844 0.785156
vt 0.500000 0.832031
vt 0.492188 0.660156
vt 0.839844 0.417969
vt 0.800781 0.625000
vt 0.808594 0.414062
vt 0.746094 0.617188
vt 0.781250 0.406250
vt 0.980469 0.406250
vt 0.957031 0.597656
vt 0.941406 0.414062
vt 0.906250 0.417969
vt 0.914062 0.601562
vt 0.875000 0.421875
vt 0.875000 0.601562
vt 0.839844 0.609375
vt 0.875000 0.753906
vt 1.000000 0.617188
vn 0.1883 0.0066 -0.9821
vn 0.9853 0.1157 -0.1260
vn 0.7720 0.0113 0.6356
vn -0.3814 -0.1547 0.9114
vn -0.9613 -0.2464 0.1230
vn -0.6447 -0.1628 -0.7469
vn -0.5634 0.2640 -0.7829
vn -0.9817 0.1760 0.0725
vn -0.4049 0.2114 0.8896
vn 0.6210 0.3502 0.7012
vn 0.9010 0.4181 -0.1152
vn 0.1129 0.3685 -0.9227
vn -0.8287 0.0436 -0.5580
vn 0.3207 -0.4652 -0.8251
vn 0.8393 -0.5009 -0.2114
vn 0.6360 -0.0789 0.7677
vn -0.3847 0.3206 0.8656
vn -0.9401 0.3050 0.1519
vn -0.7226 0.6770 -0.1397
vn -0.1273 0.7653 0.6310
vn 0.8035 0.3484 0.4828
vn 0.9572 0.0062 -0.2895
vn 0.4866 0.0177 -0.8735
vn -0.4737 0.4212 -0.7734
vn -0.6934 0.5107 -0.5084
vn 0.3701 0.2792 -0.8860
vn 0.9604 0.0073 -0.2786
vn 0.8131 -0.0996 0.5735
vn -0.0921 0.0767 0.9928
vn -0.8363 0.3915 0.3838
vn -0.9453 0.1305 0.2991
vn -0.3400 -0.1724 0.9245
vn 0.6098 -0.4012 0.6835
vn 0.8486 -0.2160 -0.4829
vn 0.2888 0.0717 -0.9547
vn -0.7854 0.3162 -0.5321
vn 0.8091 0.1320 0.5727
vn -0.3110 0.1166 0.9432
vn -0.8983 -0.0456 0.4371
vn -0.6489 -0.2670 -0.7125
vn 0.3318 -0.2468 -0.9105
vn 0.9635 -0.0868 -0.2534
vn 0.9127 0.2424 -0.3289
vn 0.1603 0.1081 -0.9811
vn -0.7813 0.1263 -0.6113
vn -0.9391 0.2500 0.2357
vn -0.3284 0.3759 0.8665
vn 0.7553 0.3724 0.5392
vn -0.8041 0.2640 0.5327
vn -0.6592 0.4123 -0.6289
vn -0.0141 0.1300 -0.9914
vn 0.8233 -0.4422 -0.3558
vn 0.5883 -0.5271 0.6132
vn -0.2073 -0.2028 0.9570
vn -0.0351 0.0896 0.9954
vn 0.8137 -0.2034 0.5446
vn 0.8928 -0.0312 -0.4493
vn 0.2547 0.3516 -0.9008
vn -0.5181 0.6364 -0.5715
vn -0.6902 0.4849 0.5371
vn 0.2492 0.0036 -0.9684
vn 0.6628 0.0222 0.7484
vn -0.4094 -0.1521 0.8996
vn -0.9542 -0.2300 0.1914
vn -0.5756 -0.1698 -0.7999
vn -0.8030 0.0057 -0.5960
vn 0.8912 -0.4435 -0.0955
vn 0.6186 -0.0594 0.7834
vn -0.9585 0.2706 0.0893
vn -0.9518 0.1457 0.2701
vn -0.2397 -0.2295 0.9433
vn 0.6728 -0.4234 0.6067
vn 0.8701 -0.2519 -0.4236
vn 0.2000 0.1230 -0.9720
vn -0.7428 0.3069 -0.5950
vn 0.7628 0.1298 0.6334
vn -0.2127 0.1513 0.9653
vn -0.9236 -0.0783 0.3754
vn -0.7172 -0.2786 -0.6388
vn 0.2209 -0.2843 -0.9329
vn 0.9720 -0.0722 -0.2236
vn -0.8380 0.2825 0.4668
vn -0.7108 0.4476 -0.5426
vn 0.0417 0.0811 -0.9958
vn 0.7850 -0.4277 -0.4482
vn 0.6448 -0.5647 0.5152
vn -0.2330 -0.1803 0.9556
usemtl crystal.007
s 1
f 1/1/1 2/2/1 3/3/1
f 2/4/2 4/5/2 3/6/2
f 5/7/3 6/8/3 4/5/3
f 7/9/4 8/10/4 6/8/4
f 8/10/5 9/11/5 10/12/5
f 10/12/6 11/13/6 1/1/6
f 11/13/7 9/11/7 12/14/7
f 9/11/8 13/15/8 12/14/8
f 13/15/9 7/9/9 12/14/9
f 7/9/10 5/7/10 12/14/10
f 5/7/11 2/4/11 12/14/11
f 2/2/12 11/13/12 12/14/12
f 14/16/13 15/17/13 16/18/13
f 16/18/14 17/19/14 18/20/14
f 17/19/15 19/21/15 18/20/15
f 20/22/16 21/23/16 19/21/16
f 22/24/17 23/25/17 21/23/17
f 23/26/18 24/27/18 14/16/18
f 24/27/19 25/28/19 26/29/19
f 25/30/20 22/24/20 26/29/20
f 22/24/21 20/22/21 26/29/21
f 20/22/22 17/19/22 26/29/22
f 17/19/23 15/17/23 26/29/23
f 15/17/24 24/27/24 26/29/24
f 27/31/25 28/32/25 29/33/25
f 30/34/26 27/35/26 29/33/26
f 31/36/27 30/34/27 29/33/27
f 32/37/28 31/36/28 29/33/28
f 33/38/29 32/37/29 29/33/29
f 28/32/30 33/38/30 29/33/30
f 33/38/31 34/39/31 35/40/31
f 32/37/32 35/40/32 36/41/32
f 31/36/33 36/41/33 37/42/33
f 38/43/34 31/36/34 37/42/34
f 39/44/35 30/34/35 38/43/35
f 34/39/36 27/31/36 39/45/36
f 40/46/37 41/47/37 42/48/37
f 42/49/38 43/50/38 44/51/38
f 44/51/39 45/52/39 46/53/39
f 45/52/40 47/54/40 46/53/40
f 48/55/41 49/56/41 47/54/41
f 50/57/42 40/46/42 49/56/42
f 51/58/43 50/57/43 52/59/43
f 50/57/44 48/55/44 52/59/44
f 48/55/45 45/52/45 52/59/45
f 45/52/46 43/50/46 52/59/46
f 43/50/47 41/60/47 52/59/47
f 41/47/48 51/58/48 52/59/48
f 53/61/49 54/62/49 55/63/49
f 55/63/50 56/64/50 57/65/50
f 57/66/51 58/67/51 59/68/51
f 58/67/52 60/69/52 59/68/52
f 61/70/53 62/71/53 60/69/53
f 63/72/54 53/61/54 62/71/54
f 64/73/55 63/72/55 65/74/55
f 63/72/56 61/70/56 65/74/56
f 61/70/57 58/67/57 65/74/57
f 58/67/58 56/75/58 65/74/58
f 56/64/59 54/62/59 65/74/59
f 54/62/60 64/73/60 65/74/60
f 1/1/61 11/13/61 2/2/61
f 2/4/2 5/7/2 4/5/2
f 5/7/62 7/9/62 6/8/62
f 7/9/63 13/15/63 8/10/63
f 8/10/64 13/15/64 9/11/64
f 10/12/65 9/11/65 11/13/65
f 14/16/66 24/27/66 15/17/66
f 16/18/14 15/17/14 17/19/14
f 17/19/67 20/22/67 19/21/67
f 20/22/68 22/24/68 21/23/68
f 22/24/17 25/30/17 23/25/17
f 23/26/69 25/28/69 24/27/69
f 33/38/70 28/32/70 34/39/70
f 32/37/71 33/38/71 35/40/71
f 31/36/72 32/37/72 36/41/72
f 38/43/73 30/34/73 31/36/73
f 39/44/74 27/35/74 30/34/74
f 34/39/75 28/32/75 27/31/75
f 40/46/76 51/58/76 41/47/76
f 42/49/77 41/60/77 43/50/77
f 44/51/78 43/50/78 45/52/78
f 45/52/79 48/55/79 47/54/79
f 48/55/80 50/57/80 49/56/80
f 50/57/81 51/58/81 40/46/81
f 53/61/82 64/73/82 54/62/82
f 55/63/83 54/62/83 56/64/83
f 57/66/84 56/75/84 58/67/84
f 58/67/85 61/70/85 60/69/85
f 61/70/86 63/72/86 62/71/86
f 63/72/87 64/73/87 53/61/87
