# Blender v2.79 (sub 0) OBJ File: ''
# www.blender.org
mtllib object_crystal_006.mtl
o crystal_3_Cylinder.004
v 0.209834 -0.273615 -0.143869
v 0.530466 0.714842 -0.049129
v 0.302838 -0.303131 -0.059239
v 0.322520 -0.304794 0.052293
v 0.431775 0.710154 0.275053
v 0.190741 -0.277304 0.072507
v 0.182114 0.768722 0.297475
v 0.014686 -0.247390 0.002737
v 0.122329 0.838431 -0.224922
v 0.067745 -0.245681 -0.117380
v 0.355515 0.741977 -0.263928
v 0.341996 1.402077 0.076874
v 0.012581 0.927705 0.079768
v -0.206528 -0.204033 -0.129955
v -0.244208 0.579027 -0.246981
v -0.078258 -0.174384 -0.100545
v -0.203680 0.612492 -0.005268
v -0.059838 -0.159173 0.009320
v -0.352832 0.551482 0.094313
v -0.165671 -0.170295 0.113726
v -0.509779 0.493819 0.060870
v -0.294916 -0.200273 0.074245
v -0.558107 0.439548 -0.188061
v -0.315095 -0.229795 -0.020236
v -0.460470 0.473130 -0.311272
v -0.435561 0.914499 -0.147876
v 0.177856 0.731241 -0.366346
v 0.015777 -0.105232 0.112507
v 0.112713 -0.135829 0.052939
v -0.158494 0.739798 -0.432015
v -0.072946 -0.164911 0.054762
v -0.189900 0.595809 -0.626267
v -0.086681 -0.267768 -0.074259
v 0.036744 -0.284912 -0.121739
v 0.217136 0.592943 -0.551678
v 0.125308 -0.223158 -0.061522
v 0.030052 1.115730 -0.700927
v 0.038931 0.569214 -0.707657
v 0.036705 0.871098 -0.304972
v -0.069544 0.611327 0.292705
v 0.140868 -0.093076 0.123864
v 0.210782 -0.067647 0.054305
v -0.263308 0.503613 0.450452
v 0.035159 -0.137319 0.116820
v -0.412799 0.561842 0.263138
v -0.023683 -0.165777 0.038680
v 0.024091 -0.099200 -0.058772
v -0.182772 0.644032 0.112127
v 0.132716 -0.053737 -0.051533
v -0.301766 1.007619 0.396203
v -0.347925 0.629142 0.119153
v -0.091090 0.600951 0.465951
vt 0.390625 0.003906
vt 0.351562 0.347656
vt 0.339844 0.003906
vt 0.296875 0.007812
vt 0.269531 0.339844
vt 0.242188 0.007812
vt 0.207031 0.351562
vt 0.167969 0.007812
vt 0.000000 0.414062
vt 0.117188 0.000000
vt 0.449219 0.000000
vt 0.433594 0.363281
vt 0.519531 0.421875
vt 0.261719 0.597656
vt 0.128906 0.398438
vt 0.308594 0.605469
vt 0.253906 0.867188
vt 0.253906 0.597656
vt 0.160156 0.910156
vt 0.210938 0.597656
vt 0.519531 0.597656
vt 0.457031 0.859375
vt 0.460938 0.601562
vt 0.410156 0.835938
vt 0.406250 0.605469
vt 0.355469 0.828125
vt 0.367188 0.601562
vt 0.312500 0.835938
vt 0.351562 1.000000
vt 0.519531 0.902344
vt 0.585938 0.332031
vt 0.585938 0.000000
vt 0.628906 0.007812
vt 0.890625 0.015625
vt 0.835938 0.355469
vt 0.843750 0.007812
vt 0.773438 0.320312
vt 0.781250 0.000000
vt 0.730469 0.000000
vt 0.652344 0.308594
vt 0.683594 0.007812
vt 0.703125 0.523438
vt 0.714844 0.320312
vt 0.925781 0.425781
vt 0.519531 0.386719
vt 0.781250 0.800781
vt 0.722656 0.535156
vt 0.757812 0.523438
vt 0.679688 0.789062
vt 0.675781 0.535156
vt 0.628906 0.800781
vt 0.640625 0.523438
vt 0.589844 0.527344
vt 0.519531 0.828125
vt 0.542969 0.523438
vt 0.808594 0.523438
vt 0.863281 0.835938
vt 0.683594 0.957031
vt 0.582031 0.812500
vt 0.726562 0.800781
vn 0.6428 -0.1362 -0.7539
vn 0.9616 -0.2133 -0.1729
vn 0.1020 -0.2237 0.9693
vn -0.3899 -0.1967 0.8996
vn -0.9147 0.0060 -0.4040
vn -0.1991 -0.0868 -0.9761
vn 0.0414 0.4590 -0.8875
vn -0.7466 0.5159 -0.4201
vn -0.5624 0.3950 0.7264
vn 0.1530 0.2904 0.9446
vn 0.9357 0.2039 0.2878
vn 0.7554 0.3127 -0.5758
vn 0.2503 -0.1313 -0.9592
vn 0.9664 0.1766 -0.1865
vn 0.6784 0.1950 0.7084
vn -0.2772 -0.0673 0.9585
vn -0.9228 -0.2649 0.2798
vn -0.6057 -0.3933 -0.6917
vn -0.7908 0.2513 -0.5582
vn -0.9621 0.2368 0.1352
vn -0.3447 0.4653 0.8153
vn 0.2776 0.5761 0.7688
vn 0.8209 0.5306 -0.2111
vn 0.1114 0.3395 -0.9340
vn 0.5674 0.3235 0.7572
vn -0.6559 0.3086 0.6889
vn -0.9906 -0.0338 0.1324
vn -0.3674 -0.5317 -0.7631
vn 0.6928 -0.4270 -0.5811
vn 0.9906 -0.0315 0.1331
vn 0.9445 0.3257 -0.0429
vn 0.6570 0.0200 -0.7536
vn -0.3345 0.0062 -0.9424
vn -0.9200 0.3711 -0.1263
vn -0.6758 0.6219 0.3956
vn 0.7318 0.5853 0.3493
vn 0.6980 0.0371 0.7151
vn 0.1142 -0.4164 0.9020
vn -0.5886 -0.5086 0.6284
vn -0.7906 -0.2505 -0.5587
vn -0.0259 0.2172 -0.9758
vn 0.7374 0.4736 -0.4817
vn 0.7538 0.5396 -0.3749
vn -0.0877 0.5953 -0.7987
vn -0.9131 0.3074 -0.2678
vn -0.7804 0.0077 0.6252
vn -0.1425 0.0952 0.9852
vn 0.8698 0.4740 0.1366
vn 0.7509 -0.1827 -0.6347
vn 0.9443 -0.1642 0.2851
vn 0.0385 -0.2098 0.9770
vn -0.8025 -0.0405 0.5953
vn -0.9387 0.0209 -0.3442
vn -0.1992 -0.0868 -0.9761
vn 0.3377 -0.1232 -0.9331
vn 0.5194 0.1128 0.8471
vn -0.1994 -0.0254 0.9796
vn -0.9282 -0.2827 0.2418
vn -0.6548 -0.4147 -0.6319
vn 0.6140 0.2992 0.7304
vn -0.9865 -0.0053 0.1635
vn -0.3380 -0.5318 -0.7765
vn 0.6230 -0.4436 -0.6443
vn 0.9810 0.0197 0.1932
vn 0.9579 0.2539 0.1343
vn 0.1437 -0.3985 0.9059
vn -0.7271 -0.5514 0.4089
vn -0.8132 -0.2925 -0.5031
vn -0.0603 0.2077 -0.9763
vn 0.7896 0.4539 -0.4129
usemtl crystal.004
s 1
f 1/1/1 2/2/1 3/3/1
f 2/2/2 4/4/2 3/3/2
f 5/5/3 6/6/3 4/4/3
f 7/7/4 8/8/4 6/6/4
f 8/8/5 9/9/5 10/10/5
f 10/11/6 11/12/6 1/1/6
f 11/12/7 9/13/7 12/14/7
f 9/9/8 13/15/8 12/14/8
f 13/15/9 7/7/9 12/14/9
f 7/7/10 5/5/10 12/14/10
f 5/5/11 2/2/11 12/14/11
f 2/2/12 11/12/12 12/14/12
f 14/16/13 15/17/13 16/18/13
f 16/18/14 17/19/14 18/20/14
f 18/21/15 19/22/15 20/23/15
f 20/23/16 21/24/16 22/25/16
f 22/25/17 23/26/17 24/27/17
f 23/26/18 14/16/18 24/27/18
f 25/28/19 23/26/19 26/29/19
f 23/26/20 21/24/20 26/29/20
f 21/24/21 19/22/21 26/29/21
f 19/22/22 17/30/22 26/29/22
f 17/19/23 15/17/23 26/29/23
f 15/17/24 25/28/24 26/29/24
f 27/31/25 28/32/25 29/33/25
f 28/34/26 30/35/26 31/36/26
f 31/36/27 32/37/27 33/38/27
f 32/37/28 34/39/28 33/38/28
f 34/39/29 35/40/29 36/41/29
f 35/40/30 29/33/30 36/41/30
f 27/31/31 35/40/31 37/42/31
f 35/40/32 38/43/32 37/42/32
f 38/43/33 32/37/33 37/42/33
f 32/37/34 30/35/34 37/42/34
f 30/35/35 39/44/35 37/42/35
f 39/45/36 27/31/36 37/42/36
f 40/46/37 41/47/37 42/48/37
f 41/47/38 43/49/38 44/50/38
f 44/50/39 45/51/39 46/52/39
f 45/51/40 47/53/40 46/52/40
f 47/53/41 48/54/41 49/55/41
f 49/56/42 40/46/42 42/48/42
f 40/46/43 48/57/43 50/58/43
f 48/54/44 51/59/44 50/58/44
f 51/59/45 45/51/45 50/58/45
f 45/51/46 43/49/46 50/58/46
f 43/49/47 52/60/47 50/58/47
f 52/60/48 40/46/48 50/58/48
f 1/1/49 11/12/49 2/2/49
f 2/2/50 5/5/50 4/4/50
f 5/5/51 7/7/51 6/6/51
f 7/7/52 13/15/52 8/8/52
f 8/8/53 13/15/53 9/9/53
f 10/11/54 9/13/54 11/12/54
f 14/16/55 25/28/55 15/17/55
f 16/18/14 15/17/14 17/19/14
f 18/21/56 17/30/56 19/22/56
f 20/23/57 19/22/57 21/24/57
f 22/25/58 21/24/58 23/26/58
f 23/26/59 25/28/59 14/16/59
f 27/31/60 39/45/60 28/32/60
f 28/34/26 39/44/26 30/35/26
f 31/36/61 30/35/61 32/37/61
f 32/37/62 38/43/62 34/39/62
f 34/39/63 38/43/63 35/40/63
f 35/40/64 27/31/64 29/33/64
f 40/46/65 52/60/65 41/47/65
f 41/47/66 52/60/66 43/49/66
f 44/50/67 43/49/67 45/51/67
f 45/51/68 51/59/68 47/53/68
f 47/53/69 51/59/69 48/54/69
f 49/56/70 48/57/70 40/46/70
