# Blender v2.83.5 OBJ File: 'deamon_statue_1_001.blend'
# www.blender.org
mtllib deamon_statue_1_002.mtl
o Circle
v 0.217005 1.038259 -0.439540
v 0.330750 1.038259 -0.356899
v 0.083289 1.038259 -0.482987
v -0.057308 1.038259 -0.482988
v -0.191024 1.038259 -0.439541
v -0.304770 1.038259 -0.356900
v -0.387411 1.038259 -0.243154
v -0.430858 1.038259 -0.109438
v -0.430858 1.038259 0.031159
v -0.387411 1.038259 0.164875
v -0.304771 1.038259 0.278621
v -0.191025 1.038259 0.361262
v -0.057309 1.038259 0.404709
v 0.083289 1.038259 0.404709
v 0.217004 1.038259 0.361262
v 0.330750 1.038259 0.278621
v 0.413391 1.038259 0.164876
v 0.456838 1.038259 0.031159
v 0.456838 1.038259 -0.109438
v 0.413391 1.038259 -0.243154
v 0.217005 0.968046 -0.439540
v 0.330750 0.968046 -0.356899
v 0.083289 0.968046 -0.482987
v -0.057308 0.968046 -0.482988
v -0.191024 0.968046 -0.439541
v -0.304770 0.968046 -0.356900
v -0.387411 0.968046 -0.243154
v -0.430858 0.968046 -0.109438
v -0.430858 0.968046 0.031159
v -0.387411 0.968046 0.164875
v -0.304771 0.968046 0.278621
v -0.191025 0.968046 0.361262
v -0.057309 0.968046 0.404709
v 0.083289 0.968046 0.404709
v 0.217004 0.968046 0.361262
v 0.330750 0.968046 0.278621
v 0.413391 0.968046 0.164876
v 0.456838 0.968046 0.031159
v 0.456838 0.968046 -0.109438
v 0.413391 0.968046 -0.243154
v 0.371085 0.947986 -0.221598
v 0.297176 0.947986 -0.323325
v 0.409942 0.947986 -0.102010
v 0.409942 0.947986 0.023732
v 0.371085 0.947986 0.143319
v 0.297176 0.947986 0.245047
v 0.195449 0.947986 0.318956
v 0.075861 0.947986 0.357812
v -0.049881 0.947986 0.357812
v -0.169469 0.947986 0.318956
v -0.271196 0.947986 0.245046
v -0.345105 0.947986 0.143319
v -0.383962 0.947986 0.023731
v -0.383962 0.947986 -0.102011
v -0.345105 0.947986 -0.221598
v -0.271196 0.947986 -0.323326
v -0.169468 0.947986 -0.397235
v -0.049880 0.947986 -0.436091
v 0.075862 0.947986 -0.436091
v 0.195449 0.947986 -0.397234
v 0.195449 0.106631 -0.397234
v 0.297176 0.106631 -0.323325
v 0.075862 0.106631 -0.436091
v -0.049880 0.106631 -0.436091
v -0.169468 0.106631 -0.397235
v -0.271196 0.106631 -0.323326
v -0.345105 0.106631 -0.221598
v -0.383962 0.106631 -0.102011
v -0.383962 0.106631 0.023731
v -0.345105 0.106631 0.143319
v -0.271196 0.106631 0.245046
v -0.169469 0.106631 0.318956
v -0.049881 0.106631 0.357812
v 0.075861 0.106631 0.357812
v 0.195449 0.106631 0.318956
v 0.297176 0.106631 0.245047
v 0.371085 0.106631 0.143319
v 0.409942 0.106631 0.023732
v 0.409942 0.106631 -0.102010
v 0.371085 0.106631 -0.221598
v 0.473700 0.062062 -0.273883
v 0.378611 0.062062 -0.404761
v 0.523691 0.062062 -0.120026
v 0.523691 0.062062 0.041748
v 0.473700 0.062062 0.195604
v 0.093877 0.062062 0.471562
v -0.067897 0.062062 0.471562
v -0.221754 0.062062 0.421570
v -0.352632 0.062062 0.326482
v -0.447720 0.062062 0.195604
v -0.497711 0.062062 0.041747
v -0.497711 0.062062 -0.120027
v -0.447720 0.062062 -0.273883
v -0.352631 0.062062 -0.404761
v -0.221753 0.062062 -0.499849
v -0.067896 0.062062 -0.549840
v 0.093878 0.062062 -0.549840
v 0.247734 0.062062 -0.499849
v 0.247734 -0.009743 -0.499849
v 0.378611 -0.009743 -0.404761
v 0.093878 -0.009743 -0.549840
v -0.067896 -0.009743 -0.549840
v -0.221753 -0.009743 -0.499849
v -0.352631 -0.009743 -0.404761
v -0.447720 -0.009743 -0.273883
v -0.497711 -0.009743 -0.120027
v -0.497711 -0.009743 0.041747
v -0.447720 -0.009743 0.195604
v -0.352632 -0.009743 0.326482
v -0.221754 -0.009743 0.421570
v -0.067897 -0.009743 0.471562
v 0.093877 -0.009743 0.471562
v 0.473700 -0.009743 0.195604
v 0.523691 -0.009743 0.041748
v 0.523691 -0.009743 -0.120026
v 0.473700 -0.009743 -0.273883
v 0.012990 1.038259 -0.039139
v 0.378751 0.062062 0.326593
v 0.247873 0.062062 0.421681
v 0.247873 -0.009743 0.421681
v 0.378751 -0.009743 0.326593
vt 0.754395 0.746582
vt 0.864746 0.962402
vt 0.791504 0.984863
vt 0.925293 0.917480
vt 0.970215 0.856934
vt 0.994629 0.783691
vt 0.994629 0.708496
vt 0.970215 0.634277
vt 0.925293 0.573730
vt 0.864746 0.528809
vt 0.791504 0.506348
vt 0.716309 0.506348
vt 0.642090 0.528809
vt 0.581543 0.573730
vt 0.536621 0.634277
vt 0.514160 0.708496
vt 0.514160 0.783691
vt 0.536621 0.856934
vt 0.581543 0.917480
vt 0.642090 0.962402
vt 0.982910 0.636230
vt 0.957520 0.636230
vt 0.957520 0.599121
vt 0.980957 0.599121
vt 0.957520 0.562012
vt 0.982910 0.562012
vt 0.958496 0.521973
vt 0.983887 0.522949
vt 0.959473 0.482910
vt 0.984863 0.483887
vt 0.961426 0.442871
vt 0.985840 0.442871
vt 0.961426 0.404785
vt 0.987793 0.404785
vt 0.963379 0.365723
vt 0.988770 0.365723
vt 0.964355 0.325684
vt 0.989746 0.325684
vt 0.964355 0.285645
vt 0.990723 0.285645
vt 0.963379 0.242676
vt 0.990723 0.241699
vt 0.957520 0.201660
vt 0.985840 0.199707
vt 0.990723 0.899902
vt 0.990723 0.938965
vt 0.966309 0.938965
vt 0.966309 0.900879
vt 0.964355 0.861816
vt 0.989746 0.861816
vt 0.964355 0.823730
vt 0.988770 0.823730
vt 0.962402 0.785645
vt 0.985840 0.785645
vt 0.983887 0.748535
vt 0.959473 0.749512
vt 0.983887 0.712402
vt 0.958496 0.713379
vt 0.957520 0.674316
vt 0.983887 0.674316
vt 0.937988 0.675293
vt 0.937988 0.636230
vt 0.940918 0.713379
vt 0.942871 0.750488
vt 0.944824 0.786621
vt 0.944824 0.823730
vt 0.945801 0.862793
vt 0.945801 0.900879
vt 0.946777 0.937988
vt 0.942871 0.243652
vt 0.937988 0.203613
vt 0.944824 0.285645
vt 0.944824 0.324707
vt 0.944824 0.364746
vt 0.942871 0.403809
vt 0.939941 0.442871
vt 0.939941 0.482910
vt 0.939941 0.521973
vt 0.937988 0.561035
vt 0.939941 0.599121
vt 0.588379 0.645020
vt 0.587402 0.606934
vt 0.583496 0.567871
vt 0.582520 0.525879
vt 0.581543 0.485840
vt 0.580566 0.444824
vt 0.580566 0.404785
vt 0.581543 0.362793
vt 0.581543 0.320801
vt 0.582520 0.279785
vt 0.589355 0.239746
vt 0.595215 0.201660
vt 0.618652 0.949707
vt 0.610840 0.913574
vt 0.606934 0.876465
vt 0.604004 0.838379
vt 0.599121 0.800293
vt 0.597168 0.762207
vt 0.594238 0.723145
vt 0.592285 0.684082
vt 0.547363 0.687988
vt 0.544434 0.647949
vt 0.551270 0.726074
vt 0.552246 0.764160
vt 0.556152 0.802246
vt 0.575684 0.956543
vt 0.567871 0.917480
vt 0.542480 0.233887
vt 0.552246 0.190918
vt 0.537598 0.276855
vt 0.533691 0.318848
vt 0.532715 0.361816
vt 0.532715 0.404785
vt 0.532715 0.446777
vt 0.533691 0.488770
vt 0.535645 0.527832
vt 0.539551 0.569824
vt 0.540527 0.608887
vt 0.520020 0.649902
vt 0.517090 0.609863
vt 0.516113 0.569824
vt 0.512207 0.528809
vt 0.511230 0.488770
vt 0.508301 0.446777
vt 0.506348 0.404785
vt 0.506348 0.360840
vt 0.508301 0.317871
vt 0.512207 0.275879
vt 0.517090 0.230957
vt 0.527832 0.187988
vt 0.551270 0.959473
vt 0.545410 0.920410
vt 0.534668 0.802246
vt 0.559082 0.839355
vt 0.535645 0.840332
vt 0.562012 0.878418
vt 0.532715 0.765137
vt 0.527832 0.728027
vt 0.524902 0.688965
vt 0.989746 0.978027
vt 0.963379 0.977051
vt 0.944824 0.973145
vt 0.624512 0.986816
vt 0.587402 0.996582
vt 0.562012 1.000488
vt 0.716309 0.986816
vt 0.539551 0.880371
vn 0.0000 1.0000 0.0000
vn 0.5878 0.0000 -0.8090
vn 0.3090 0.0000 -0.9511
vn 0.0000 0.0000 -1.0000
vn -0.3090 0.0000 -0.9511
vn -0.5878 0.0000 -0.8090
vn -0.8090 -0.0000 -0.5878
vn -0.9511 -0.0000 -0.3090
vn -1.0000 0.0000 0.0000
vn -0.9511 0.0000 0.3090
vn -0.8090 0.0000 0.5878
vn -0.5878 0.0000 0.8090
vn 0.0000 0.0000 1.0000
vn 0.3090 0.0000 0.9511
vn 0.5878 0.0000 0.8090
vn 0.8090 0.0000 0.5878
vn 0.9511 0.0000 0.3090
vn 1.0000 0.0000 0.0000
vn 0.9511 -0.0000 -0.3090
vn 0.8090 0.0000 -0.5878
vn 0.3182 -0.9194 -0.2312
vn 0.3740 -0.9194 -0.1215
vn 0.3933 -0.9194 0.0000
vn 0.3740 -0.9194 0.1215
vn 0.3182 -0.9194 0.2312
vn 0.2312 -0.9194 0.3182
vn 0.1215 -0.9194 0.3740
vn 0.0000 -0.9194 0.3933
vn -0.2312 -0.9194 0.3182
vn -0.3182 -0.9194 0.2312
vn -0.3740 -0.9194 0.1215
vn -0.3933 -0.9194 0.0000
vn -0.3740 -0.9194 -0.1215
vn -0.3182 -0.9194 -0.2312
vn -0.2312 -0.9194 -0.3182
vn -0.1215 -0.9194 -0.3740
vn 0.0000 -0.9194 -0.3933
vn 0.1215 -0.9194 -0.3740
vn 0.2312 -0.9194 -0.3182
vn 0.2951 0.9311 -0.2144
vn 0.3470 0.9311 -0.1127
vn 0.3648 0.9311 0.0000
vn 0.3470 0.9311 0.1127
vn 0.0000 0.9311 0.3648
vn -0.2144 0.9311 0.2951
vn -0.2951 0.9311 0.2144
vn -0.3470 0.9311 0.1127
vn -0.3648 0.9311 0.0000
vn -0.3470 0.9311 -0.1127
vn -0.2951 0.9311 -0.2144
vn -0.2144 0.9311 -0.2951
vn -0.1127 0.9311 -0.3470
vn 0.0000 0.9311 -0.3648
vn 0.1127 0.9311 -0.3470
vn 0.2144 0.9311 -0.2951
vn 0.8097 -0.0000 0.5869
vn 0.2951 0.9312 0.2141
vn 0.2142 0.9313 0.2948
vn -0.3090 0.0000 0.9511
vn -0.1215 -0.9194 0.3740
vn -0.1127 0.9311 0.3470
vn 0.1125 0.9312 0.3468
vn 0.3081 0.0000 0.9513
usemtl Material.001
s off
f 117/1/1 11/2/1 12/3/1
f 11/2/1 117/1/1 10/4/1
f 10/4/1 117/1/1 9/5/1
f 9/5/1 117/1/1 8/6/1
f 8/6/1 117/1/1 7/7/1
f 7/7/1 117/1/1 6/8/1
f 6/8/1 117/1/1 5/9/1
f 5/9/1 117/1/1 4/10/1
f 4/10/1 117/1/1 3/11/1
f 3/11/1 117/1/1 1/12/1
f 1/12/1 117/1/1 2/13/1
f 2/13/1 117/1/1 20/14/1
f 20/14/1 117/1/1 19/15/1
f 19/15/1 117/1/1 18/16/1
f 18/16/1 117/1/1 17/17/1
f 17/17/1 117/1/1 16/18/1
f 117/1/1 15/19/1 16/18/1
f 117/1/1 14/20/1 15/19/1
f 2/21/2 22/22/2 21/23/2 1/24/2
f 1/24/3 21/23/3 23/25/3 3/26/3
f 3/26/4 23/25/4 24/27/4 4/28/4
f 4/28/5 24/27/5 25/29/5 5/30/5
f 5/30/6 25/29/6 26/31/6 6/32/6
f 6/32/7 26/31/7 27/33/7 7/34/7
f 7/34/8 27/33/8 28/35/8 8/36/8
f 8/36/9 28/35/9 29/37/9 9/38/9
f 9/38/10 29/37/10 30/39/10 10/40/10
f 10/40/11 30/39/11 31/41/11 11/42/11
f 11/42/12 31/41/12 32/43/12 12/44/12
f 14/45/13 13/46/13 33/47/13 34/48/13
f 14/45/14 34/48/14 35/49/14 15/50/14
f 15/50/15 35/49/15 36/51/15 16/52/15
f 16/52/16 36/51/16 37/53/16 17/54/16
f 18/55/17 17/54/17 37/53/17 38/56/17
f 19/57/18 18/55/18 38/56/18 39/58/18
f 19/57/19 39/58/19 40/59/19 20/60/19
f 2/21/20 20/60/20 40/59/20 22/22/20
f 22/22/21 40/59/21 41/61/21 42/62/21
f 39/58/22 43/63/22 41/61/22 40/59/22
f 39/58/23 38/56/23 44/64/23 43/63/23
f 38/56/24 37/53/24 45/65/24 44/64/24
f 36/51/25 46/66/25 45/65/25 37/53/25
f 35/49/26 47/67/26 46/66/26 36/51/26
f 34/48/27 48/68/27 47/67/27 35/49/27
f 34/48/28 33/47/28 49/69/28 48/68/28
f 31/41/29 51/70/29 50/71/29 32/43/29
f 30/39/30 52/72/30 51/70/30 31/41/30
f 29/37/31 53/73/31 52/72/31 30/39/31
f 28/35/32 54/74/32 53/73/32 29/37/32
f 27/33/33 55/75/33 54/74/33 28/35/33
f 26/31/34 56/76/34 55/75/34 27/33/34
f 25/29/35 57/77/35 56/76/35 26/31/35
f 24/27/36 58/78/36 57/77/36 25/29/36
f 23/25/37 59/79/37 58/78/37 24/27/37
f 21/23/38 60/80/38 59/79/38 23/25/38
f 22/22/39 42/62/39 60/80/39 21/23/39
f 42/62/2 62/81/2 61/82/2 60/80/2
f 60/80/3 61/82/3 63/83/3 59/79/3
f 59/79/4 63/83/4 64/84/4 58/78/4
f 58/78/5 64/84/5 65/85/5 57/77/5
f 57/77/6 65/85/6 66/86/6 56/76/6
f 56/76/7 66/86/7 67/87/7 55/75/7
f 55/75/8 67/87/8 68/88/8 54/74/8
f 54/74/9 68/88/9 69/89/9 53/73/9
f 53/73/10 69/89/10 70/90/10 52/72/10
f 52/72/11 70/90/11 71/91/11 51/70/11
f 51/70/12 71/91/12 72/92/12 50/71/12
f 48/68/13 49/69/13 73/93/13 74/94/13
f 48/68/14 74/94/14 75/95/14 47/67/14
f 47/67/15 75/95/15 76/96/15 46/66/15
f 46/66/16 76/96/16 77/97/16 45/65/16
f 44/64/17 45/65/17 77/97/17 78/98/17
f 43/63/18 44/64/18 78/98/18 79/99/18
f 43/63/19 79/99/19 80/100/19 41/61/19
f 42/62/20 41/61/20 80/100/20 62/81/20
f 62/81/40 80/100/40 81/101/40 82/102/40
f 79/99/41 83/103/41 81/101/41 80/100/41
f 79/99/42 78/98/42 84/104/42 83/103/42
f 78/98/43 77/97/43 85/105/43 84/104/43
f 74/94/44 73/93/44 87/106/44 86/107/44
f 71/91/45 89/108/45 88/109/45 72/92/45
f 70/90/46 90/110/46 89/108/46 71/91/46
f 69/89/47 91/111/47 90/110/47 70/90/47
f 68/88/48 92/112/48 91/111/48 69/89/48
f 67/87/49 93/113/49 92/112/49 68/88/49
f 66/86/50 94/114/50 93/113/50 67/87/50
f 65/85/51 95/115/51 94/114/51 66/86/51
f 64/84/52 96/116/52 95/115/52 65/85/52
f 63/83/53 97/117/53 96/116/53 64/84/53
f 61/82/54 98/118/54 97/117/54 63/83/54
f 62/81/55 82/102/55 98/118/55 61/82/55
f 82/102/2 100/119/2 99/120/2 98/118/2
f 98/118/3 99/120/3 101/121/3 97/117/3
f 97/117/4 101/121/4 102/122/4 96/116/4
f 96/116/5 102/122/5 103/123/5 95/115/5
f 95/115/6 103/123/6 104/124/6 94/114/6
f 94/114/7 104/124/7 105/125/7 93/113/7
f 93/113/8 105/125/8 106/126/8 92/112/8
f 92/112/9 106/126/9 107/127/9 91/111/9
f 91/111/10 107/127/10 108/128/10 90/110/10
f 90/110/11 108/128/11 109/129/11 89/108/11
f 89/108/12 109/129/12 110/130/12 88/109/12
f 86/107/13 87/106/13 111/131/13 112/132/13
f 113/133/56 85/105/56 118/134/56 121/135/56
f 118/134/57 85/105/57 77/97/57 76/96/57
f 118/134/58 76/96/58 75/95/58 119/136/58
f 84/104/17 85/105/17 113/133/17 114/137/17
f 83/103/18 84/104/18 114/137/18 115/138/18
f 83/103/19 115/138/19 116/139/19 81/101/19
f 82/102/20 81/101/20 116/139/20 100/119/20
f 13/46/59 12/140/59 32/141/59 33/47/59
f 33/47/60 32/141/60 50/142/60 49/69/60
f 49/69/59 50/142/59 72/143/59 73/93/59
f 87/106/59 88/144/59 110/145/59 111/131/59
f 73/93/61 72/143/61 88/144/61 87/106/61
f 117/1/1 13/146/1 14/20/1
f 13/146/1 117/1/1 12/3/1
f 86/107/62 119/136/62 75/95/62 74/94/62
f 119/136/15 120/147/15 121/135/15 118/134/15
f 112/132/63 120/147/63 119/136/63 86/107/63
