# Blender v2.79 (sub 0) OBJ File: 'medieval_tavern_props_pack.blend'
# www.blender.org
mtllib firewood_1_001.mtl
o firewood
v 0.175000 0.070000 0.975000
v 0.175000 0.070000 -0.975000
v 0.000000 -0.180000 0.975000
v -0.175000 0.070000 0.975000
v 0.000000 -0.180000 -0.975000
v -0.175000 0.070000 -0.975000
v 0.000000 0.170000 -0.975000
v 0.000000 0.170000 0.975000
vt 0.988272 0.082018
vt 0.009707 0.082040
vt 0.289229 0.003129
vt 0.007370 0.167024
vt 0.431290 0.167024
vt 0.431292 0.994986
vt 0.007369 0.994986
vt 0.443424 0.167624
vt 0.718098 0.167624
vt 0.718100 0.994685
vt 0.443424 0.994685
vt 0.988272 0.082018
vt 0.289365 0.160939
vt 0.009707 0.082040
vt 0.289365 0.160939
vt 0.007369 0.994986
vt 0.007372 0.167024
vt 0.431292 0.167024
vt 0.431291 0.994986
vt 0.992774 0.167624
vt 0.992774 0.994685
vt 0.289229 0.003129
vn 0.0000 -0.8277 -0.5611
vn 0.0000 0.7919 -0.6106
vn 0.7999 0.1793 -0.5727
vn 0.7999 0.1793 0.5727
vn 0.0000 -0.8277 0.5611
vn 0.0000 0.7919 0.6106
vn -0.7999 0.1793 -0.5727
vn -0.7999 0.1793 0.5727
usemtl mat_firewood
s 1
f 5/1/1 7/2/2 2/3/3
f 5/4/1 2/5/3 1/6/4 3/7/5
f 2/8/3 7/9/2 8/10/6 1/11/4
f 3/12/5 1/13/4 8/14/6
f 5/1/1 6/15/7 7/2/2
f 5/16/1 3/17/5 4/18/8 6/19/7
f 6/20/7 4/21/8 8/10/6 7/9/2
f 3/12/5 8/14/6 4/22/8
