# Blender v2.83.5 OBJ File: 'grass_001.blend'
# www.blender.org
mtllib grass_1_001.mtl
o grass_1_Grass_Plane.008
v 0.055164 0.809479 -0.155363
v 0.043056 0.799544 -0.165787
v 0.067939 1.047331 -0.267371
v 0.072350 1.052351 -0.263438
v 0.070019 -0.001584 -0.000881
v -0.002509 -0.001584 -0.041111
v 0.003524 0.032894 -0.037813
v 0.064549 0.032896 -0.004437
v 0.007783 0.063884 -0.024365
v 0.046534 0.064126 0.005514
v 0.017552 0.467714 -0.068004
v 0.045661 0.482091 -0.047277
v -0.092410 0.809479 0.151705
v -0.084673 0.799544 0.165684
v -0.143275 1.047331 0.252312
v -0.146046 1.052351 0.247092
v -0.052710 -0.001584 0.001674
v 0.001340 -0.001584 0.064581
v -0.003173 0.032894 0.059394
v -0.048815 0.032896 0.006908
v -0.002498 0.063884 0.045304
v -0.028466 0.064126 0.003830
v -0.026809 0.467714 0.082837
v -0.045974 0.482091 0.053641
v -0.092837 0.809479 -0.026912
v -0.102437 0.799544 -0.014141
v -0.136115 1.047331 -0.032252
v -0.132482 1.052351 -0.036913
v -0.007979 -0.001584 -0.054147
v -0.043325 -0.001584 0.020882
v -0.040434 0.032894 0.014644
v -0.011166 0.032896 -0.048454
v -0.027297 0.063884 0.009506
v -0.000045 0.064126 -0.031136
v -0.071486 0.467714 0.002644
v -0.052663 0.482091 -0.026774
v 0.093222 0.809479 0.124152
v 0.106659 0.799544 0.115508
v 0.145464 1.047331 0.172965
v 0.140439 1.052351 0.176075
v 0.000867 -0.001584 0.058018
v 0.060062 -0.001584 -0.000073
v 0.055185 0.032894 0.004773
v 0.005832 0.032896 0.053786
v 0.041081 0.063884 0.005031
v 0.001415 0.064126 0.033685
v 0.067722 0.467714 0.039900
v 0.039858 0.482091 0.060954
vt 0.047307 0.239740
vt 0.031841 0.247008
vt 0.008466 0.003835
vt 0.014392 0.000027
vt 0.074434 0.999973
vt 0.000027 0.988215
vt 0.011083 0.958259
vt 0.073485 0.968114
vt 0.024829 0.930555
vt 0.069105 0.934427
vt 0.041648 0.561908
vt 0.074434 0.551820
vt 0.047307 0.239740
vt 0.031841 0.247008
vt 0.008466 0.003835
vt 0.014392 0.000027
vt 0.074434 0.999973
vt 0.000027 0.988215
vt 0.011083 0.958259
vt 0.073485 0.968114
vt 0.024829 0.930555
vt 0.069105 0.934427
vt 0.041648 0.561908
vt 0.074434 0.551820
vt 0.073374 0.230287
vt 0.057691 0.238256
vt 0.070862 0.004199
vt 0.076792 0.000028
vt 0.076792 0.999972
vt 0.000028 0.988971
vt 0.010965 0.957972
vt 0.075343 0.967193
vt 0.024704 0.929252
vt 0.070336 0.932582
vt 0.036563 0.549542
vt 0.070162 0.538674
vt 0.076170 0.233489
vt 0.060824 0.241637
vt 0.070193 0.004208
vt 0.076006 0.000028
vt 0.076170 0.999972
vt 0.000028 0.991702
vt 0.009778 0.960735
vt 0.073634 0.967666
vt 0.022370 0.931923
vt 0.067525 0.933672
vt 0.037642 0.557119
vt 0.070442 0.545263
vn 0.7362 -0.2853 -0.6137
vn 0.7173 -0.2728 -0.6411
vn 0.7672 -0.3065 -0.5634
vn 0.4827 -0.0072 -0.8758
vn 0.4965 0.1662 -0.8520
vn 0.4966 0.1672 -0.8517
vn 0.5655 0.1784 -0.8052
vn 0.5655 0.1785 -0.8052
vn 0.6449 -0.1608 -0.7471
vn 0.6575 -0.1885 -0.7295
vn -0.9035 -0.2853 0.3199
vn -0.8953 -0.2728 0.3522
vn -0.9151 -0.3065 0.2621
vn -0.7567 -0.0072 0.6537
vn -0.7614 0.1662 0.6266
vn -0.7614 0.1672 0.6264
vn -0.8099 0.1784 0.5588
vn -0.8099 0.1785 0.5588
vn -0.8642 -0.1608 0.4768
vn -0.8698 -0.1885 0.4559
vn -0.7500 -0.1312 -0.6483
vn -0.7738 -0.1165 -0.6226
vn -0.7232 -0.1467 -0.6749
vn -0.9058 -0.0072 -0.4237
vn -0.8829 0.1662 -0.4391
vn -0.8827 0.1672 -0.4391
vn -0.8409 0.1784 -0.5110
vn -0.8408 0.1785 -0.5110
vn -0.8125 -0.0996 -0.5743
vn -0.8071 -0.1002 -0.5818
vn 0.3958 -0.2567 0.8817
vn 0.4320 -0.2507 0.8664
vn 0.3579 -0.2625 0.8961
vn 0.7023 -0.0072 0.7118
vn 0.6756 0.1662 0.7183
vn 0.6754 0.1672 0.7183
vn 0.6112 0.1782 0.7712
vn 0.6109 0.1712 0.7730
vn 0.5366 -0.1583 0.8288
vn 0.5104 -0.1920 0.8382
usemtl Césped.008
s 1
f 1/1/1 2/2/2 3/3/3 4/4/3
f 5/5/4 6/6/4 7/7/5 8/8/6
f 8/8/6 7/7/5 9/9/7 10/10/8
f 10/10/8 9/9/7 11/11/9 12/12/10
f 12/12/10 11/11/9 2/2/2 1/1/1
usemtl Césped.009
f 13/13/11 14/14/12 15/15/13 16/16/13
f 17/17/14 18/18/14 19/19/15 20/20/16
f 20/20/16 19/19/15 21/21/17 22/22/18
f 22/22/18 21/21/17 23/23/19 24/24/20
f 24/24/20 23/23/19 14/14/12 13/13/11
usemtl Césped.007
f 25/25/21 26/26/22 27/27/23 28/28/23
f 29/29/24 30/30/24 31/31/25 32/32/26
f 32/32/26 31/31/25 33/33/27 34/34/28
f 34/34/28 33/33/27 35/35/29 36/36/30
f 36/36/30 35/35/29 26/26/22 25/25/21
usemtl Césped.006
f 37/37/31 38/38/32 39/39/33 40/40/33
f 41/41/34 42/42/34 43/43/35 44/44/36
f 44/44/36 43/43/35 45/45/37 46/46/38
f 46/46/38 45/45/37 47/47/39 48/48/40
f 48/48/40 47/47/39 38/38/32 37/37/31
