# Blender v2.83.5 OBJ File: 'grass_001.blend'
# www.blender.org
mtllib grass_1_002.mtl
o grass_2_Grass_Plane.005
v -0.004584 0.809479 -0.012123
v -0.012652 0.799544 0.000648
v -0.012146 1.047331 -0.013887
v -0.008513 1.052351 -0.018549
v 0.014108 -0.001584 -0.035842
v -0.021239 -0.001584 0.039187
v -0.018086 0.032894 0.032949
v 0.011182 0.032896 -0.030149
v -0.018651 0.063884 0.027810
v 0.015968 0.064126 -0.020235
v -0.016959 0.467714 0.013597
v 0.001864 0.482091 -0.015821
vt 0.073374 0.230287
vt 0.057691 0.238256
vt 0.070862 0.004199
vt 0.076792 0.000028
vt 0.076792 0.999972
vt 0.000028 0.988971
vt 0.010965 0.957972
vt 0.075343 0.967193
vt 0.024704 0.929252
vt 0.070336 0.932582
vt 0.036563 0.549542
vt 0.070162 0.538674
vn -0.8252 -0.0239 -0.5644
vn -0.8339 -0.0163 -0.5517
vn -0.8177 -0.0303 -0.5748
vn -0.9058 -0.0004 -0.4237
vn -0.8885 0.0430 -0.4569
vn -0.8889 0.0420 -0.4561
vn -0.8454 0.0417 -0.5326
vn -0.8455 0.0420 -0.5324
vn -0.8284 -0.0160 -0.5599
vn -0.8333 -0.0137 -0.5527
usemtl Material.006
s 1
f 1/1/1 2/2/2 3/3/3 4/4/3
f 5/5/4 6/6/4 7/7/5 8/8/6
f 8/8/6 7/7/5 9/9/7 10/10/8
f 10/10/8 9/9/7 11/11/9 12/12/10
f 12/12/10 11/11/9 2/2/2 1/1/1
