# Blender v2.79 (sub 0) OBJ File: 'medieval_weapon_pack.blend'
# www.blender.org
mtllib grimoire_1_001.mtl
o grimoire_1
v -0.012859 -0.073920 0.308000
v -0.012859 -0.073920 -0.308000
v 0.479941 -0.073920 0.308000
v 0.479941 -0.073920 -0.308000
v 0.011267 -0.059875 -0.277200
v 0.454787 -0.059875 -0.277200
v 0.454787 -0.059875 0.277200
v 0.011267 -0.059875 0.277200
v -0.012859 0.073920 0.308000
v -0.012859 0.073920 -0.308000
v 0.479941 0.073920 0.308000
v 0.479941 0.073920 -0.308000
v -0.043659 -0.000000 0.308000
v -0.043659 -0.000000 -0.308000
v -0.016453 -0.000000 0.277200
v -0.016453 -0.000000 -0.277200
v 0.011267 0.059875 -0.277200
v 0.454787 0.059875 -0.277200
v 0.454787 0.000000 -0.277200
v 0.454787 0.059875 0.277200
v 0.454787 0.000000 0.277200
v 0.011267 0.059875 0.277200
vt 0.563784 0.882392
vt 0.501297 0.905875
vt 0.501297 0.873342
vt 0.964286 0.394089
vt 0.569796 0.389279
vt 0.944481 0.366745
vt 0.320410 0.162348
vt 0.033067 0.088644
vt 0.320410 0.088644
vt 0.679589 0.162348
vt 0.679589 0.088644
vt 0.966932 0.088644
vt 0.501297 0.362816
vt 0.560814 0.352273
vt 0.937808 0.914054
vt 0.582767 0.909725
vt 0.981637 0.862827
vt 0.958274 0.887202
vt 0.438810 0.882392
vt 0.038307 0.394089
vt 0.432798 0.389279
vt 0.058112 0.366745
vt 0.033067 0.236051
vt 0.320410 0.236051
vt 0.679589 0.236051
vt 0.966933 0.236051
vt 0.984892 0.162348
vt 0.501297 0.398458
vt 0.064785 0.914054
vt 0.044320 0.887202
vt 0.020957 0.862827
vt 0.555310 0.915955
vt 0.589440 0.362416
vt 0.015108 0.162348
vt 0.987047 0.419026
vt 0.447284 0.915955
vt 0.413154 0.362416
vt 0.441780 0.352273
vt 0.419827 0.909725
vt 0.015545 0.419026
vn -0.2572 -0.5115 0.8198
vn 0.4883 0.0000 0.8726
vn -0.5239 0.0000 0.8518
vn 0.6828 -0.1237 -0.7200
vn -0.2572 -0.5115 -0.8198
vn 0.4957 0.7423 -0.4507
vn 0.7071 0.0000 0.7071
vn 0.2269 0.5158 0.8261
vn 0.4957 0.7423 0.4507
vn 0.7071 0.0000 -0.7071
vn 0.2269 0.5158 -0.8261
vn 0.4883 0.0000 -0.8726
vn 0.6828 -0.1237 0.7200
vn -0.2572 0.5115 0.8198
vn 0.6828 0.1237 -0.7200
vn -0.2572 0.5115 -0.8198
vn 0.4957 -0.7423 -0.4507
vn 0.2269 -0.5158 0.8261
vn 0.4957 -0.7423 0.4507
vn 0.2269 -0.5158 -0.8261
vn -0.5239 0.0000 -0.8518
vn 0.6828 0.1237 0.7200
usemtl mat_grimoire_1
s 1
f 1/1/1 15/2/2 13/3/3
f 4/4/4 1/1/1 2/5/5
f 2/5/5 6/6/6 4/4/4
f 13/3/3 2/5/5 1/1/1
f 21/7/7 8/8/8 7/9/9
f 19/10/10 7/9/9 6/11/6
f 5/12/11 19/10/10 6/11/6
f 2/5/5 16/13/12 5/14/11
f 1/1/1 7/15/9 8/16/8
f 4/4/4 7/17/9 3/18/13
f 15/2/2 9/19/14 13/3/3
f 9/19/14 12/20/15 10/21/16
f 18/22/17 10/21/16 12/20/15
f 10/21/16 13/3/3 9/19/14
f 22/23/18 21/7/7 20/24/19
f 20/24/19 19/10/10 18/25/17
f 17/26/20 19/10/10 16/27/12
f 10/21/16 16/13/12 14/28/21
f 9/19/14 20/29/19 11/30/22
f 20/31/19 12/20/15 11/30/22
f 1/1/1 8/32/8 15/2/2
f 4/4/4 3/18/13 1/1/1
f 2/5/5 5/33/11 6/6/6
f 13/3/3 14/28/21 2/5/5
f 21/7/7 15/34/2 8/8/8
f 19/10/10 21/7/7 7/9/9
f 5/12/11 16/27/12 19/10/10
f 2/5/5 14/28/21 16/13/12
f 1/1/1 3/18/13 7/15/9
f 4/4/4 6/35/6 7/17/9
f 15/2/2 22/36/18 9/19/14
f 9/19/14 11/30/22 12/20/15
f 18/22/17 17/37/20 10/21/16
f 10/21/16 14/28/21 13/3/3
f 22/23/18 15/34/2 21/7/7
f 20/24/19 21/7/7 19/10/10
f 17/26/20 18/25/17 19/10/10
f 10/21/16 17/38/20 16/13/12
f 9/19/14 22/39/18 20/29/19
f 20/31/19 18/40/17 12/20/15
