# Blender v2.83.5 OBJ File: 'breakable_boxes-preview (2).blend'
# www.blender.org
mtllib jar_1_005.mtl
o Jar_Broken_4_Cylinder.007
v 0.012008 0.003178 0.121079
v 0.112015 0.014916 0.103615
v 0.203753 0.059850 0.106637
v 0.273257 0.131138 0.129687
v 0.309945 0.217928 0.169254
v 0.308232 0.307007 0.219315
v 0.268018 0.384553 0.272191
v 0.196452 0.439501 0.319997
v 0.103402 0.462745 0.355290
v 0.003396 0.451007 0.372754
v -0.088342 0.406073 0.369732
v -0.157846 0.334785 0.346682
v -0.194534 0.247995 0.307115
v -0.192821 0.158916 0.257054
v -0.152968 0.081110 0.204120
v -0.081041 0.026422 0.156372
v -0.065447 0.028697 -0.167921
v -0.099264 0.049774 -0.296264
v 0.080507 0.045828 -0.193410
v 0.063793 0.068913 -0.324739
v 0.214394 0.111406 -0.188998
v 0.213368 0.142175 -0.319811
v 0.315832 0.215448 -0.155359
v 0.326691 0.258407 -0.282230
v 0.369376 0.342113 -0.097613
v 0.386509 0.399915 -0.217717
v 0.366876 0.472119 -0.024551
v 0.383716 0.545154 -0.136094
v 0.308186 0.585294 0.052619
v 0.318158 0.671593 -0.049878
v 0.203738 0.665487 0.122389
v 0.201463 0.761179 0.028063
v 0.067938 0.699410 0.173897
v 0.049750 0.799078 0.085606
v -0.078017 0.682279 0.199385
v -0.113306 0.779940 0.114082
v -0.211904 0.616701 0.194974
v -0.262881 0.706677 0.109153
v -0.313341 0.512660 0.161335
v -0.376204 0.590445 0.071572
v -0.366885 0.385994 0.103588
v -0.436023 0.448938 0.007060
v -0.364385 0.255989 0.030527
v -0.433229 0.303699 -0.074563
v -0.306221 0.142435 -0.046728
v -0.368250 0.176840 -0.160870
v -0.201248 0.062621 -0.116413
v -0.250977 0.087673 -0.238721
v 0.004734 0.033575 0.078485
v 0.102790 0.043791 0.061403
v 0.192377 0.086434 0.064662
v 0.259856 0.155012 0.087765
v 0.294954 0.239084 0.127196
v 0.292328 0.325852 0.176951
v 0.252027 0.401857 0.229397
v 0.181184 0.456235 0.276717
v 0.089587 0.480002 0.311539
v -0.008469 0.469786 0.328621
v -0.098055 0.427143 0.325362
v -0.165534 0.358565 0.302259
v -0.200632 0.274493 0.262828
v -0.198006 0.187725 0.213073
v -0.158056 0.111471 0.160568
v -0.086862 0.057341 0.113307
v 0.178390 0.207610 -0.414388
v 0.195011 0.191913 -0.428002
v -0.247385 0.131811 -0.275257
v 0.198820 0.780077 0.005078
v -0.133188 0.828260 0.039718
v 0.342014 0.562380 -0.192998
v -0.264196 0.105970 -0.282155
v 0.018619 0.820495 -0.008799
v 0.385574 0.412276 -0.241607
v -0.433008 0.482802 -0.059020
v -0.281421 0.746388 0.001456
v -0.368737 0.229311 -0.228682
v 0.031057 0.851381 0.005795
v 0.374820 0.577367 -0.191881
v -0.458630 0.482381 -0.049740
v 0.277400 0.699057 -0.136382
v -0.292145 0.768085 0.016399
v -0.393293 0.209734 -0.231961
v -0.418372 0.331877 -0.110416
v 0.292901 0.291135 -0.325108
v 0.307404 0.724005 -0.130790
v -0.445400 0.320143 -0.106120
v 0.318753 0.283864 -0.333034
v 0.043085 0.126347 -0.385592
v 0.354088 0.408188 -0.237666
v -0.368033 0.599598 0.027912
v 0.048448 0.102320 -0.397367
v 0.176261 0.750553 -0.006036
v -0.134005 0.800612 0.023364
v -0.387744 0.610058 0.041631
v -0.111735 0.069833 -0.346277
v -0.105216 0.096805 -0.335500
vt 0.518684 0.245251
vt 0.446658 0.218194
vt 0.462031 0.183998
vt 0.529861 0.221041
vt 0.672108 0.500824
vt 0.664258 0.577897
vt 0.626835 0.570081
vt 0.646167 0.496110
vt 0.591635 0.557673
vt 0.621253 0.487573
vt 0.558741 0.540747
vt 0.597824 0.475569
vt 0.528712 0.519503
vt 0.576242 0.460609
vt 0.501673 0.494545
vt 0.557055 0.442707
vt 0.478391 0.465938
vt 0.540528 0.422231
vt 0.459305 0.434349
vt 0.526978 0.399626
vt 0.444717 0.400412
vt 0.516669 0.375328
vt 0.434952 0.364712
vt 0.509806 0.349795
vt 0.430197 0.327942
vt 0.506534 0.323515
vt 0.430589 0.290798
vt 0.506929 0.296991
vt 0.436103 0.253990
vt 0.511000 0.270734
vt 0.482067 0.151891
vt 0.544368 0.198589
vt 0.535788 0.223998
vt 0.562019 0.178397
vt 0.586053 0.166498
vt 0.612811 0.164701
vt 0.638220 0.173281
vt 0.658318 0.191003
vt 0.670311 0.214965
vt 0.672108 0.241724
vt 0.663528 0.267133
vt 0.645877 0.287324
vt 0.621843 0.299224
vt 0.595085 0.301021
vt 0.569676 0.292441
vt 0.549485 0.274790
vt 0.537585 0.250756
vt 0.506633 0.122195
vt 0.414931 0.206699
vt 0.431927 0.168257
vt 0.403136 0.246900
vt 0.397047 0.288320
vt 0.396659 0.330117
vt 0.402127 0.371490
vt 0.413178 0.411651
vt 0.429703 0.449770
vt 0.451148 0.485313
vt 0.477394 0.517360
vt 0.507757 0.545414
vt 0.541600 0.569293
vt 0.578403 0.588454
vt 0.617567 0.602587
vt 0.658779 0.612462
vt 0.454052 0.132293
vt 0.480633 0.098248
vt 0.804038 0.415021
vt 0.700166 0.379386
vt 0.689967 0.403766
vt 0.789611 0.453431
vt 0.822560 0.377016
vt 0.707243 0.353840
vt 0.817240 0.334785
vt 0.710819 0.327725
vt 0.824920 0.294194
vt 0.710841 0.301641
vt 0.811389 0.255448
vt 0.707341 0.276072
vt 0.810700 0.214057
vt 0.700419 0.251370
vt 0.787280 0.180164
vt 0.690238 0.227803
vt 0.767817 0.145034
vt 0.677021 0.205637
vt 0.741906 0.114017
vt 0.661062 0.185189
vt 0.719405 0.078589
vt 0.642714 0.166879
vt 0.679596 0.063708
vt 0.622229 0.151120
vt 0.645509 0.043315
vt 0.599992 0.138152
vt 0.609526 0.027644
vt 0.576358 0.128298
vt 0.575406 0.003745
vt 0.551561 0.121865
vt 0.768481 0.488284
vt 0.676587 0.426267
vt 0.660166 0.446331
vt 0.752035 0.526879
vt 0.684060 0.401226
vt 0.681447 0.375022
vt 0.669145 0.351642
vt 0.649029 0.334646
vt 0.624160 0.326623
vt 0.598324 0.328792
vt 0.575454 0.340825
vt 0.559034 0.360889
vt 0.551561 0.385929
vt 0.554174 0.412134
vt 0.566563 0.435442
vt 0.586592 0.452509
vt 0.611461 0.460533
vt 0.637297 0.458363
vt 0.419423 0.161694
vt 0.443264 0.124828
vt 0.382676 0.242433
vt 0.403013 0.202339
vt 0.439766 0.493350
vt 0.418529 0.455530
vt 0.493587 0.562950
vt 0.468001 0.526204
vt 0.574641 0.597031
vt 0.536713 0.577318
vt 0.653969 0.634873
vt 0.614859 0.611593
vt 0.379015 0.331199
vt 0.387373 0.287568
vt 0.393552 0.418560
vt 0.392647 0.373411
vt 0.462504 0.083423
vt 0.796225 0.051203
vt 0.774698 0.085481
vt 0.767959 0.084548
vt 0.790863 0.046681
vt 0.778871 0.127056
vt 0.772346 0.129959
vt 0.793651 0.163805
vt 0.788002 0.169634
vt 0.821425 0.192226
vt 0.817550 0.200539
vt 0.859979 0.209987
vt 0.858430 0.219908
vt 0.901789 0.210123
vt 0.902807 0.219908
vt 0.939471 0.196256
vt 0.942891 0.204799
vt 0.968846 0.169243
vt 0.974126 0.175456
vt 0.987705 0.132863
vt 0.994134 0.136251
vt 0.991348 0.091948
vt 0.998047 0.091263
vt 0.973181 0.055873
vt 0.978809 0.051634
vt 0.943292 0.027219
vt 0.947179 0.020657
vt 0.904970 0.010232
vt 0.906468 0.002335
vt 0.863584 0.009925
vt 0.862426 0.001953
vt 0.825692 0.023932
vt 0.822103 0.017284
vn -0.4031 -0.9134 0.0564
vn -0.4180 -0.9082 0.0219
vn -0.0873 -0.9908 -0.1035
vn -0.0776 -0.9947 -0.0670
vn 0.5931 -0.7965 -0.1176
vn 0.5940 -0.7894 -0.1548
vn 0.8410 -0.5361 -0.0729
vn 0.8362 -0.5471 -0.0369
vn 0.9714 -0.2277 0.0677
vn 0.9646 -0.2435 0.1015
vn 0.9649 0.0905 0.2466
vn 0.9581 0.0698 0.2777
vn 0.8237 0.3657 0.4333
vn 0.8193 0.3406 0.4613
vn 0.5697 0.5589 0.6025
vn 0.5693 0.5307 0.6279
vn 0.2374 0.6423 0.7288
vn 0.2421 0.6128 0.7522
vn -0.1179 0.6005 0.7908
vn -0.1077 0.5718 0.8133
vn -0.4439 0.4409 0.7801
vn -0.4286 0.4146 0.8027
vn -0.6909 0.1876 0.6982
vn -0.6718 0.1652 0.7221
vn -0.8213 -0.1208 0.5576
vn -0.8001 -0.1384 0.5837
vn -0.8152 -0.4374 0.3797
vn -0.7941 -0.4500 0.4086
vn -0.6736 -0.7139 0.1916
vn -0.6547 -0.7221 0.2234
vn 0.2680 -0.9491 -0.1655
vn 0.2722 -0.9537 -0.1281
vn 0.2052 -0.4765 0.8549
vn -0.4691 -0.8764 -0.1094
vn -0.1224 -0.9610 -0.2481
vn -0.7365 -0.6731 0.0681
vn -0.8846 -0.3838 0.2649
vn -0.8910 -0.0526 0.4510
vn -0.7563 0.2751 0.5935
vn -0.4995 0.5482 0.6708
vn -0.1601 0.7191 0.6762
vn 0.2083 0.7589 0.6170
vn 0.5626 0.6606 0.4970
vn 0.8333 0.4542 0.3150
vn 0.9778 0.1757 0.1145
vn 0.9847 -0.1594 -0.0705
vn 0.8468 -0.4837 -0.2214
vn 0.5879 -0.7462 -0.3123
vn 0.2472 -0.9139 -0.3218
vn 0.4473 0.8944 -0.0091
vn 0.4394 0.8983 -0.0053
vn 0.0835 0.9877 0.1326
vn 0.0718 0.9881 0.1361
vn 0.6809 0.7147 -0.1601
vn 0.6830 0.7123 -0.1619
vn 0.8234 0.4444 -0.3530
vn 0.8242 0.4411 -0.3551
vn 0.8364 0.1195 -0.5350
vn 0.8362 0.1184 -0.5355
vn 0.6863 -0.2310 -0.6897
vn 0.6932 -0.2206 -0.6862
vn 0.4240 -0.5058 -0.7512
vn 0.4356 -0.4972 -0.7503
vn 0.1392 -0.6440 -0.7523
vn 0.1288 -0.6471 -0.7514
vn -0.1798 -0.6879 -0.7032
vn -0.2012 -0.6865 -0.6988
vn -0.5650 -0.5898 -0.5770
vn -0.5668 -0.5889 -0.5762
vn -0.8464 -0.3772 -0.3760
vn -0.8400 -0.3850 -0.3824
vn -0.9562 -0.1683 -0.2395
vn -0.9615 -0.1506 -0.2300
vn -0.9772 0.2064 -0.0501
vn -0.9776 0.2041 -0.0512
vn -0.7991 0.5864 0.1326
vn -0.8207 0.5587 0.1196
vn -0.5717 0.7933 0.2093
vn -0.5803 0.7874 0.2079
vn -0.3046 0.9286 0.2121
vn -0.2841 0.9356 0.2097
vn -0.1989 0.4830 -0.8528
vn -0.1344 -0.9254 -0.3543
vn 0.2493 -0.8651 -0.4353
vn -0.7696 -0.6381 -0.0242
vn -0.5074 -0.8385 -0.1988
vn 0.1581 0.8353 0.5266
vn -0.1945 0.7936 0.5765
vn 0.8372 0.5027 0.2154
vn 0.5497 0.7251 0.4148
vn 0.9800 -0.1046 -0.1696
vn 0.9660 0.2572 0.0273
vn 0.5645 -0.7067 -0.4265
vn 0.8201 -0.4608 -0.3393
vn -0.9297 -0.0028 0.3684
vn -0.9224 -0.3435 0.1767
vn -0.5139 0.6328 0.5792
vn -0.7863 0.3461 0.5118
vn -0.3712 0.3602 -0.8559
vn -0.1990 0.5349 -0.8211
vn -0.1741 0.5575 -0.8117
vn -0.3706 0.3611 -0.8557
vn -0.0423 0.6739 -0.7376
vn -0.0601 0.6641 -0.7452
vn -0.1264 0.4806 -0.8678
vn -0.1261 0.4288 -0.8945
vn -0.1188 0.3015 -0.9460
vn -0.1177 0.3087 -0.9439
vn -0.2923 0.4994 -0.8156
vn -0.3086 0.5134 -0.8007
vn -0.1597 0.5071 -0.8470
vn -0.1876 0.5218 -0.8322
vn -0.0692 0.4248 -0.9027
vn -0.0246 0.4039 -0.9145
vn -0.1460 0.5136 -0.8455
vn -0.1702 0.5095 -0.8434
vn -0.3538 0.3579 -0.8642
vn -0.2917 0.3998 -0.8690
vn -0.3985 0.4525 -0.7978
vn -0.4155 0.4291 -0.8020
vn -0.2674 0.4814 -0.8347
vn -0.2685 0.4765 -0.8372
vn -0.3481 0.4523 -0.8211
vn -0.3515 0.4654 -0.8123
vn -0.2575 0.4776 -0.8400
vn -0.2526 0.4723 -0.8444
vn -0.1928 0.3646 -0.9110
vn -0.1896 0.3626 -0.9125
vn -0.3145 0.3975 -0.8620
vn -0.3108 0.3986 -0.8629
usemtl JarMaterial
s 1
f 16/1/1 47/2/2 17/3/3 1/4/4
f 3/5/5 21/6/6 23/7/7 4/8/8
f 4/8/8 23/7/7 25/9/9 5/10/10
f 5/10/10 25/9/9 27/11/11 6/12/12
f 6/12/12 27/11/11 29/13/13 7/14/14
f 7/14/14 29/13/13 31/15/15 8/16/16
f 8/16/16 31/15/15 33/17/17 9/18/18
f 9/18/18 33/17/17 35/19/19 10/20/20
f 10/20/20 35/19/19 37/21/21 11/22/22
f 11/22/22 37/21/21 39/23/23 12/24/24
f 12/24/24 39/23/23 41/25/25 13/26/26
f 13/26/26 41/25/25 43/27/27 14/28/28
f 14/28/28 43/27/27 45/29/29 15/30/30
f 15/30/30 45/29/29 47/2/2 16/1/1
f 1/4/4 17/3/3 19/31/31 2/32/32
f 1/33/33 2/32/33 3/34/33 4/35/33 5/36/33 6/37/33 7/38/33 8/39/33 9/40/33 10/41/33 11/42/33 12/43/33 13/44/33 14/45/33 15/46/33 16/47/33
f 2/32/32 19/31/31 21/48/6 3/34/5
f 48/49/34 18/50/35 17/3/3 47/2/2
f 46/51/36 48/49/34 47/2/2 45/29/29
f 44/52/37 46/51/36 45/29/29 43/27/27
f 42/53/38 44/52/37 43/27/27 41/25/25
f 40/54/39 42/53/38 41/25/25 39/23/23
f 38/55/40 40/54/39 39/23/23 37/21/21
f 36/56/41 38/55/40 37/21/21 35/19/19
f 34/57/42 36/56/41 35/19/19 33/17/17
f 32/58/43 34/57/42 33/17/17 31/15/15
f 30/59/44 32/58/43 31/15/15 29/13/13
f 28/60/45 30/59/44 29/13/13 27/11/11
f 26/61/46 28/60/45 27/11/11 25/9/9
f 24/62/47 26/61/46 25/9/9 23/7/7
f 22/63/48 24/62/47 23/7/7 21/6/6
f 20/64/49 22/65/48 21/48/6 19/31/31
f 18/50/35 20/64/49 19/31/31 17/3/3
f 67/66/50 64/67/51 49/68/52 96/69/53
f 76/70/54 63/71/55 64/67/51 67/66/50
f 83/72/56 62/73/57 63/71/55 76/70/54
f 74/74/58 61/75/59 62/73/57 83/72/56
f 90/76/60 60/77/61 61/75/59 74/74/58
f 75/78/62 59/79/63 60/77/61 90/76/60
f 93/80/64 58/81/65 59/79/63 75/78/62
f 72/82/66 57/83/67 58/81/65 93/80/64
f 92/84/68 56/85/69 57/83/67 72/82/66
f 80/86/70 55/87/71 56/85/69 92/84/68
f 70/88/72 54/89/73 55/87/71 80/86/70
f 89/90/74 53/91/75 54/89/73 70/88/72
f 84/92/76 52/93/77 53/91/75 89/90/74
f 65/94/78 51/95/79 52/93/77 84/92/76
f 88/96/80 50/97/81 51/98/79 65/99/78
f 96/69/53 49/68/52 50/97/81 88/96/80
f 49/100/82 64/101/82 63/102/82 62/103/82 61/104/82 60/105/82 59/106/82 58/107/82 57/108/82 56/109/82 55/110/82 54/111/82 53/112/82 52/113/82 51/98/82 50/97/82
f 95/114/83 91/115/84 20/64/49 18/50/35
f 82/116/85 71/117/86 48/49/34 46/51/36
f 77/118/87 69/119/88 36/56/41 34/57/42
f 85/120/89 68/121/90 32/58/43 30/59/44
f 73/122/91 78/123/92 28/60/45 26/61/46
f 66/124/93 87/125/94 24/62/47 22/63/48
f 79/126/95 86/127/96 44/52/37 42/53/38
f 81/128/97 94/129/98 40/54/39 38/55/40
f 71/117/86 95/114/83 18/50/35 48/49/34
f 86/127/96 82/116/85 46/51/36 44/52/37
f 68/121/90 77/118/87 34/57/42 32/58/43
f 87/125/94 73/122/91 26/61/46 24/62/47
f 91/115/84 66/130/93 22/65/48 20/64/49
f 94/129/98 79/126/95 42/53/38 40/54/39
f 69/119/88 81/128/97 38/55/40 36/56/41
f 78/123/92 85/120/89 30/59/44 28/60/45
f 88/131/99 65/132/100 66/133/101 91/134/102
f 65/132/100 84/135/103 87/136/104 66/133/101
f 84/135/103 89/137/105 73/138/106 87/136/104
f 89/137/105 70/139/107 78/140/108 73/138/106
f 70/139/107 80/141/109 85/142/110 78/140/108
f 80/141/109 92/143/111 68/144/112 85/142/110
f 92/143/111 72/145/113 77/146/114 68/144/112
f 72/145/113 93/147/115 69/148/116 77/146/114
f 93/147/115 75/149/117 81/150/118 69/148/116
f 75/149/117 90/151/119 94/152/120 81/150/118
f 90/151/119 74/153/121 79/154/122 94/152/120
f 74/153/121 83/155/123 86/156/124 79/154/122
f 83/155/123 76/157/125 82/158/126 86/156/124
f 76/157/125 67/159/127 71/160/128 82/158/126
f 67/159/127 96/161/129 95/162/130 71/160/128
f 96/161/129 88/131/99 91/134/102 95/162/130
