# Blender v2.83.5 OBJ File: 'breakable_boxes-preview (2).blend'
# www.blender.org
mtllib jar_1_003.mtl
o Jar_Broken_3_Cylinder.009
v 0.017168 0.077067 0.110243
v 0.088493 0.080088 0.067056
v 0.162300 0.053983 0.038200
v 0.095510 0.111878 -0.314538
v -0.205476 0.159750 -0.165129
v -0.028958 0.115921 0.061204
v -0.143696 0.185486 -0.070769
v -0.084090 0.164711 0.003455
v -0.057556 0.166016 -0.254694
v 0.063980 0.119858 0.004931
v -0.004159 0.191396 -0.155257
v 0.035301 0.169768 -0.068835
v 0.160151 0.085843 -0.032669
v 0.140232 0.140327 -0.211710
v 0.158845 0.126072 -0.117137
v 0.154053 0.030292 0.055836
v 0.090830 0.052654 0.080554
v 0.029733 0.050066 0.117548
v 0.178020 0.052576 0.096977
v 0.184487 0.060935 0.103422
v 0.114797 0.074937 0.121696
v 0.121066 0.095570 0.127714
v 0.119714 0.083845 0.128747
v 0.053699 0.072349 0.158690
v 0.057119 0.081193 0.166648
v 0.186267 0.076267 0.079341
v 0.189581 0.071337 0.100926
v 0.190318 0.077687 0.090952
v 0.112460 0.102372 0.108198
v 0.118062 0.103244 0.119202
v 0.041135 0.099350 0.151384
v 0.054855 0.092765 0.167804
v 0.048234 0.100286 0.161482
v 0.089517 0.089012 -0.293986
v -0.193315 0.134893 -0.154798
v -0.133985 0.161357 -0.064912
v -0.054253 0.139862 -0.237775
v -0.002804 0.166044 -0.143186
v 0.132818 0.118076 -0.196211
v -0.079109 0.140079 -0.289802
v 0.055669 0.069460 -0.372267
v -0.076821 0.112628 -0.274367
v 0.049357 0.045989 -0.352086
v -0.230656 0.085403 -0.223732
v -0.242884 0.110199 -0.234790
v 0.227181 0.071817 -0.225254
v 0.213290 0.083173 -0.125618
v 0.193877 0.059270 -0.037923
v 0.222161 0.052597 0.085992
v 0.219775 0.047546 0.096223
v 0.213031 0.038444 0.098976
v 0.205882 0.030623 0.092637
v 0.214406 0.054317 -0.209673
v 0.202185 0.066938 -0.115743
v 0.184412 0.046302 -0.033834
v 0.123226 0.019093 -0.380309
v 0.112751 -0.000740 -0.360100
v -0.348197 0.062655 -0.107026
v -0.008534 0.069264 0.211355
v 0.001026 0.063350 0.215094
v -0.257136 0.123494 0.028892
v -0.181152 0.111670 0.088728
v -0.016851 0.067663 0.202327
v 0.004029 0.045206 0.202327
v -0.328834 0.043664 -0.104346
v 0.181915 0.008339 0.051495
v 0.172597 0.024087 -0.307693
v 0.218792 0.050639 0.074274
v 0.194826 0.028355 0.033133
v 0.184048 0.042115 -0.328330
v -0.040818 0.045379 0.161185
v -0.325732 0.094034 -0.059481
v -0.104514 0.074632 0.127583
v -0.019938 0.022922 0.161185
v 0.006230 0.053385 0.211355
v -0.306498 0.074861 -0.057688
v -0.240754 0.104727 0.026695
v -0.362873 0.036454 -0.006657
v -0.058727 0.017615 0.186657
v -0.015599 0.037576 0.238739
v -0.301358 0.054938 0.091786
v -0.201077 0.080780 0.117065
v -0.127850 0.038455 0.160772
v -0.035279 -0.000861 0.183004
v -0.034761 0.039899 0.227798
v -0.026067 0.042083 0.236291
v -0.009487 0.029018 0.233708
v -0.011312 0.021423 0.224146
v -0.341534 0.021884 -0.009458
v -0.282469 0.041651 0.084119
v -0.187335 0.067020 0.109283
v -0.118062 0.028857 0.150156
v -0.368646 -0.015877 -0.069348
v -0.390242 -0.001623 -0.068049
vt 0.901170 0.502148
vt 0.943611 0.499863
vt 0.947442 0.520302
vt 0.900829 0.515035
vt 0.905378 0.398128
vt 0.934754 0.395889
vt 0.937056 0.421918
vt 0.904153 0.423302
vt 0.858481 0.497480
vt 0.854003 0.520917
vt 0.876778 0.395556
vt 0.871987 0.420263
vt 0.817688 0.486256
vt 0.812123 0.501400
vt 0.848580 0.388733
vt 0.840892 0.413174
vt 0.905987 0.365363
vt 0.881920 0.363308
vt 0.884255 0.345576
vt 0.907508 0.347852
vt 0.855262 0.372937
vt 0.879675 0.378556
vt 0.905580 0.380826
vt 0.930908 0.379464
vt 0.968381 0.493350
vt 0.939966 0.472938
vt 0.964311 0.468928
vt 0.938278 0.449128
vt 0.956021 0.446316
vt 0.950392 0.419516
vt 0.901764 0.473835
vt 0.902763 0.449586
vt 0.863216 0.469685
vt 0.867293 0.445738
vt 0.826201 0.460834
vt 0.832471 0.437233
vt 0.859307 0.359288
vt 0.861560 0.343554
vt 0.929212 0.364976
vt 0.930013 0.349041
vt 0.949711 0.391676
vt 0.941992 0.376567
vt 0.930346 0.375830
vt 0.941278 0.373231
vt 0.929897 0.372348
vt 0.940621 0.370104
vt 0.880255 0.374691
vt 0.905624 0.376903
vt 0.880817 0.371012
vt 0.905716 0.373163
vt 0.856426 0.369459
vt 0.857428 0.366232
vt 0.929523 0.368769
vt 0.940069 0.367032
vt 0.939629 0.363723
vt 0.881373 0.367300
vt 0.905843 0.369398
vt 0.858387 0.362911
vt 0.939624 0.350606
vt 0.920260 0.256027
vt 0.921880 0.244602
vt 0.959071 0.244682
vt 0.954861 0.262737
vt 0.885576 0.252616
vt 0.886329 0.232149
vt 0.850833 0.253017
vt 0.850080 0.239196
vt 0.916877 0.279537
vt 0.885242 0.276271
vt 0.944998 0.328394
vt 0.948729 0.286006
vt 0.970590 0.294027
vt 0.956245 0.311367
vt 0.978168 0.269246
vt 0.852925 0.277082
vt 0.851476 0.343666
vt 0.847998 0.320950
vt 0.846454 0.300011
vt 0.831894 0.280845
vt 0.977059 0.249542
vt 0.970172 0.513976
vt 0.039932 0.008149
vt 0.025879 0.022612
vt 0.019041 0.018369
vt 0.034194 0.003027
vt 0.009805 0.060757
vt 0.001953 0.059012
vt 0.010232 0.102592
vt 0.002723 0.103671
vt 0.025649 0.140352
vt 0.019801 0.144095
vt 0.845129 0.368022
vt 0.833985 0.382366
vt 0.829123 0.372985
vt 0.839302 0.362762
vt 0.827507 0.407099
vt 0.823913 0.404182
vt 0.820828 0.431697
vt 0.817457 0.426998
vt 0.806435 0.453992
vt 0.802655 0.450045
vt 0.798367 0.477991
vt 0.792315 0.474650
vt 0.782925 0.492674
vt 0.789134 0.495787
vt 0.975661 0.491243
vt 0.978168 0.513259
vt 0.969143 0.464849
vt 0.959510 0.441685
vt 0.954313 0.416314
vt 0.956561 0.384416
vt 0.948958 0.372098
vt 0.946221 0.370071
vt 0.943039 0.370541
vt 0.832558 0.254355
vt 0.831462 0.236498
vt 0.848724 0.359450
vt 0.849719 0.356458
vt 0.847639 0.362215
vt 0.846416 0.365036
vt 0.039932 0.154789
vt 0.035369 0.159558
vt 0.842293 0.361227
vt 0.845210 0.362205
vn -0.0553 0.9131 -0.4040
vn 0.2895 0.7911 -0.5388
vn 0.2184 0.7083 -0.6712
vn -0.1359 0.8349 -0.5334
vn 0.1617 0.9868 0.0095
vn 0.4607 0.8810 -0.1074
vn 0.5289 0.7742 0.3477
vn 0.3424 0.8401 0.4206
vn -0.3885 0.8990 -0.2023
vn -0.4677 0.8193 -0.3316
vn -0.1273 0.9746 0.1844
vn 0.1622 0.8325 0.5298
vn -0.6594 0.7509 0.0357
vn -0.7327 0.6734 -0.0982
vn -0.3623 0.8462 0.3908
vn 0.0156 0.7524 0.6585
vn 0.1609 -0.7985 0.5801
vn 0.4885 -0.7846 0.3817
vn 0.1594 -0.9773 -0.1395
vn -0.1376 -0.9896 0.0412
vn -0.5874 0.7968 0.1413
vn -0.3207 0.9426 -0.0930
vn 0.0073 0.9565 -0.2917
vn 0.3468 0.8364 -0.4244
vn 0.4589 0.6925 -0.5567
vn 0.4352 0.8791 -0.1943
vn 0.5767 0.7799 -0.2432
vn 0.5173 0.8357 0.1842
vn 0.6262 0.7661 0.1449
vn 0.6167 0.7197 0.3189
vn 0.1218 0.9900 -0.0718
vn 0.2830 0.9186 0.2758
vn -0.1810 0.9771 0.1116
vn 0.0566 0.9090 0.4129
vn -0.4273 0.8426 0.3279
vn -0.1275 0.8084 0.5746
vn 0.7548 -0.6391 0.1478
vn 0.3735 -0.8750 -0.3081
vn -0.1780 -0.6786 0.7126
vn -0.3939 -0.9047 0.1622
vn 0.5877 0.7848 -0.1969
vn 0.5048 0.7314 -0.4585
vn 0.5048 0.8580 0.0954
vn 0.6251 0.7749 0.0932
vn 0.4689 0.4622 0.7527
vn 0.4559 0.4239 0.7826
vn -0.0000 0.9382 0.3460
vn 0.2481 0.9488 0.1958
vn 0.4347 0.4676 0.7696
vn 0.4515 0.4683 0.7595
vn -0.2017 0.8280 0.5231
vn 0.4211 0.4602 0.7816
vn 0.1387 -0.2358 0.9619
vn 0.0008 -0.1930 0.9812
vn -0.3395 -0.5776 0.7424
vn 0.6125 -0.3111 0.7267
vn 0.3796 -0.3210 0.8677
vn 0.8018 -0.2077 0.5604
vn -0.4902 -0.8372 0.2424
vn 0.0567 -0.9087 0.4137
vn 0.1336 -0.8327 0.5373
vn -0.2137 -0.7086 0.6724
vn -0.2819 -0.7889 0.5460
vn 0.3856 -0.8975 0.2142
vn 0.4608 -0.8201 0.3392
vn 0.6572 -0.7532 -0.0255
vn 0.7277 -0.6778 0.1048
vn -0.1639 -0.9864 -0.0085
vn 0.1216 -0.9756 -0.1826
vn -0.4627 -0.8632 -0.2019
vn -0.4147 -0.9035 0.1081
vn -0.5146 -0.8416 0.1642
vn -0.4474 -0.6921 0.5665
vn 0.3321 -0.8754 -0.3512
vn 0.4714 -0.8052 -0.3598
vn 0.0609 -0.8430 -0.5344
vn 0.4228 -0.8059 -0.4144
vn -0.3621 -0.6118 0.7033
vn 0.3699 0.6083 -0.7023
vn -0.4621 -0.5024 -0.7308
vn -0.5445 -0.4612 -0.7006
vn -0.5479 -0.4594 -0.6992
vn -0.4191 -0.4638 -0.7806
vn -0.4267 -0.4625 -0.7772
vn -0.3699 -0.5420 -0.7546
vn -0.3568 -0.5385 -0.7634
vn -0.3987 -0.4770 -0.7833
vn -0.4021 -0.4798 -0.7798
vn -0.4293 -0.6655 0.6106
vn -0.4362 -0.7272 0.5301
vn -0.4328 -0.6931 0.5765
vn -0.5353 -0.7780 0.3288
vn -0.4947 -0.7738 0.3956
vn -0.2480 -0.6747 0.6951
vn -0.4363 -0.7583 0.4844
vn -0.3068 -0.7308 0.6098
vn -0.2321 -0.6837 0.6919
vn -0.4196 -0.7381 0.5283
vn -0.4216 -0.7443 0.5180
vn -0.4015 -0.6846 0.6084
vn 0.5925 -0.7240 -0.3531
vn 0.6716 -0.6956 -0.2551
vn 0.6875 -0.6878 -0.2330
vn 0.8047 -0.5934 -0.0193
vn 0.8319 -0.5520 0.0564
vn 0.8535 -0.5031 0.1362
vn 0.8391 -0.5381 0.0795
vn 0.7931 -0.6050 -0.0700
vn 0.7440 -0.6413 -0.1875
vn 0.7285 -0.6475 -0.2236
vn 0.7589 -0.6298 -0.1659
vn 0.7797 -0.6143 -0.1214
vn -0.7532 0.6369 0.1646
vn -0.8298 0.5575 0.0242
vn -0.4747 0.7414 0.4744
vn -0.0480 0.6919 0.7204
vn 0.7534 -0.6391 -0.1547
vn 0.8260 -0.5633 -0.0187
vn 0.8799 -0.1557 0.4489
vn 0.8494 -0.5273 0.0225
vn -0.2540 0.7377 0.6255
vn -0.6840 0.6810 0.2614
vn -0.1963 0.7286 0.6562
vn -0.5299 0.7330 0.4264
vn -0.2628 -0.3609 -0.8948
usemtl JarMaterial
s 1
f 9/1/1 4/2/2 41/3/3 40/4/4
f 2/5/5 3/6/6 13/7/7 10/8/8
f 5/9/9 9/1/1 40/4/4 45/10/10
f 1/11/11 2/5/5 10/8/8 6/12/12
f 72/13/13 5/9/9 45/10/10 58/14/14
f 71/15/15 1/11/11 6/12/12 73/16/16
f 21/17/17 24/18/18 18/19/19 17/20/20
f 1/11/11 71/15/15 63/21/21 31/22/22
f 2/5/5 1/11/11 31/22/22 29/23/23
f 3/6/6 2/5/5 29/23/23 26/24/24
f 70/25/25 4/2/2 14/26/26 46/27/27
f 46/27/27 14/26/26 15/28/28 47/29/29
f 47/29/29 15/28/28 13/7/7 48/30/30
f 4/2/2 9/1/1 11/31/31 14/26/26
f 14/26/26 11/31/31 12/32/32 15/28/28
f 15/28/28 12/32/32 10/8/8 13/7/7
f 9/1/1 5/9/9 7/33/33 11/31/31
f 11/31/31 7/33/33 8/34/34 12/32/32
f 12/32/32 8/34/34 6/12/12 10/8/8
f 5/9/9 72/13/13 61/35/35 7/33/33
f 7/33/33 61/35/35 62/36/36 8/34/34
f 8/34/34 62/36/36 73/16/16 6/12/12
f 24/18/18 64/37/37 74/38/38 18/19/19
f 19/39/39 21/17/17 17/20/20 16/40/40
f 69/41/41 3/6/6 26/24/24 68/42/42
f 68/42/42 26/24/24 28/43/43 49/44/44
f 49/44/44 28/43/43 27/45/45 50/46/46
f 29/23/23 31/22/22 33/47/47 30/48/48
f 30/48/48 33/47/47 32/49/49 22/50/50
f 26/24/24 29/23/23 30/48/48 28/43/43
f 28/43/43 30/48/48 22/50/50 27/45/45
f 31/22/22 63/21/21 59/51/51 33/47/47
f 33/47/47 59/51/51 60/52/52 32/49/49
f 50/46/46 27/45/45 20/53/53 51/54/54
f 51/54/54 20/53/53 19/39/39 52/55/55
f 22/50/50 32/49/49 25/56/56 23/57/57
f 23/57/57 25/56/56 24/18/18 21/17/17
f 27/45/45 22/50/50 23/57/57 20/53/53
f 20/53/53 23/57/57 21/17/17 19/39/39
f 32/49/49 60/52/52 75/58/58 25/56/56
f 25/56/56 75/58/58 64/37/37 24/18/18
f 52/55/55 19/39/39 16/40/40 66/59/59
f 37/60/60 42/61/61 43/62/62 34/63/63
f 35/64/64 44/65/65 42/61/61 37/60/60
f 76/66/66 65/67/67 44/65/65 35/64/64
f 38/68/68 17/20/20 18/19/19 36/69/69
f 55/70/70 66/59/59 16/40/40 39/71/71 53/72/72 54/73/70
f 67/74/73 53/72/72 39/71/71 34/63/63
f 36/69/69 18/19/19 74/38/38 77/75/74
f 34/63/63 39/71/71 38/68/68 37/60/60
f 37/60/60 38/68/68 36/69/69 35/64/64
f 35/64/64 36/69/69 77/75/74 76/66/66
f 74/38/38 84/76/75 92/77/76 91/78/76 90/79/77 77/75/74
f 34/63/63 43/62/62 57/80/78 67/74/73
f 3/6/6 69/41/41 48/30/30 13/7/7
f 4/2/2 70/25/25 56/81/79 41/3/3
f 57/82/80 43/83/81 41/84/82 56/85/80
f 43/83/81 42/86/83 40/87/84 41/84/82
f 42/86/83 44/88/85 45/89/86 40/87/84
f 44/88/85 65/90/87 58/91/88 45/89/86
f 85/92/89 79/93/90 84/94/91 88/95/89
f 79/93/90 83/96/92 92/97/93 84/94/91
f 92/97/93 83/96/92 82/98/94 91/99/95
f 91/99/95 82/98/94 81/100/96 90/101/97
f 90/101/97 81/100/96 78/102/98 89/103/99
f 93/104/100 89/103/99 78/102/98 94/105/100
f 56/81/101 70/25/102 67/106/103 57/107/101
f 70/25/102 46/27/104 53/108/105 67/106/103
f 46/27/104 47/29/106 54/109/107 53/108/105
f 47/29/106 48/30/108 55/110/109 54/109/107
f 48/30/108 69/41/110 66/111/111 55/110/109
f 69/41/110 68/42/112 52/112/112 66/111/111
f 51/113/112 52/112/112 68/42/112 49/44/112 50/114/112
f 78/102/113 72/13/13 58/14/14 94/105/114
f 79/93/115 71/15/15 73/16/16 83/96/116
f 89/115/117 93/116/118 65/67/67 76/66/66
f 76/66/66 77/75/74 90/79/77 89/115/117
f 75/58/58 87/117/119 88/118/120 64/37/37
f 60/52/52 80/119/46 87/117/119 75/58/58
f 59/51/51 86/120/121 80/119/46 60/52/52
f 63/21/21 85/92/122 86/120/121 59/51/51
f 64/37/37 88/118/120 84/76/75 74/38/38
f 62/36/36 82/98/123 83/96/116 73/16/16
f 61/35/35 81/100/124 82/98/123 62/36/36
f 72/13/13 78/102/113 81/100/124 61/35/35
f 71/15/15 79/93/115 85/92/122 63/21/21
f 65/90/87 93/121/125 94/122/125 58/91/88
f 88/95/89 87/123/89 80/124/89 86/120/89 85/92/89
f 39/71/71 16/40/40 17/20/20 38/68/68
