# Blender v2.83.5 OBJ File: 'breakable_boxes-preview (2).blend'
# www.blender.org
mtllib jar_1_002.mtl
o Jar_Broken_1_Cylinder.029
v 0.000475 0.011583 -0.261315
v 0.100708 0.011583 -0.241378
v 0.185681 0.011583 -0.184601
v 0.242458 0.011583 -0.099628
v 0.262395 0.011583 0.000605
v 0.242458 0.011583 0.100837
v 0.185364 0.011583 0.185494
v 0.100708 0.011583 0.242588
v 0.000475 0.011583 0.262525
v -0.099758 0.011583 0.242588
v -0.184731 0.011583 0.185811
v -0.241508 0.011583 0.100837
v -0.261445 0.011583 0.000605
v -0.241508 0.011583 -0.099628
v -0.184731 0.011583 -0.184601
v -0.099758 0.011583 -0.241378
v 0.000475 0.286702 -0.381654
v 0.000475 0.413404 -0.426445
v 0.146759 0.286702 -0.352556
v 0.163900 0.413404 -0.393938
v 0.270773 0.286702 -0.269693
v 0.302445 0.413404 -0.301365
v 0.353636 0.286702 -0.145679
v 0.395018 0.413404 -0.162820
v 0.382734 0.286702 0.000605
v 0.427525 0.413404 0.000605
v 0.353636 0.286702 0.146889
v 0.395018 0.413404 0.164030
v 0.270311 0.286702 0.270441
v 0.301935 0.413399 0.302065
v 0.146759 0.286702 0.353766
v 0.163900 0.413404 0.395147
v 0.000475 0.286702 0.382864
v 0.000475 0.413404 0.427655
v -0.145809 0.286702 0.353766
v -0.162950 0.413404 0.395147
v -0.269823 0.286702 0.270903
v -0.301495 0.413404 0.302575
v -0.352686 0.286702 0.146889
v -0.394068 0.413404 0.164030
v -0.381784 0.286702 0.000605
v -0.426575 0.413404 0.000605
v -0.352686 0.286702 -0.145679
v -0.394068 0.413404 -0.162820
v -0.269823 0.286702 -0.269693
v -0.301495 0.413404 -0.301365
v -0.145809 0.286702 -0.352556
v -0.162950 0.413404 -0.393938
v 0.002935 0.063973 -0.254961
v 0.101276 0.063321 -0.236529
v 0.184246 0.062469 -0.182031
v 0.239215 0.061547 -0.099765
v 0.257813 0.060695 -0.002254
v 0.237209 0.060043 0.095655
v 0.180233 0.059694 0.178752
v 0.096434 0.059690 0.235255
v -0.002306 0.060043 0.255693
v -0.100646 0.060695 0.237260
v -0.183617 0.061547 0.182763
v -0.238585 0.062469 0.100497
v -0.257184 0.063321 0.002986
v -0.236580 0.063973 -0.094923
v -0.179911 0.064326 -0.178325
v -0.095805 0.064326 -0.234523
v 0.289894 0.501445 -0.292347
v 0.310385 0.502193 -0.309305
v -0.152409 0.464933 -0.370924
v 0.166319 0.463390 0.400988
v -0.165300 0.461966 0.400822
v 0.368844 0.450450 0.146425
v -0.165300 0.461967 -0.399612
v -0.005889 0.468589 0.398804
v 0.432202 0.450389 0.000605
v -0.408225 0.485412 0.001296
v -0.293286 0.495228 0.286026
v -0.287129 0.496479 -0.285736
v 0.000475 0.468277 0.434595
v 0.399282 0.449904 0.165796
v -0.435318 0.482537 0.000605
v 0.283873 0.501225 0.280372
v -0.308791 0.494993 0.309871
v -0.308791 0.494993 -0.308661
v -0.371941 0.454432 -0.151537
v 0.371883 0.451899 -0.159174
v 0.309864 0.502174 0.309994
v -0.398427 0.450714 -0.164626
v 0.399282 0.449904 -0.164586
v 0.156676 0.465874 -0.374371
v 0.401077 0.451533 -0.006712
v -0.375234 0.453413 0.153965
v 0.166319 0.463390 -0.399778
v 0.149213 0.463453 0.366183
v -0.160196 0.462940 0.369113
v -0.398427 0.450714 0.165836
v 0.000475 0.468277 -0.433385
v 0.002369 0.470578 -0.403766
vt 0.518684 0.245251
vt 0.446658 0.218194
vt 0.462031 0.183998
vt 0.529861 0.221041
vt 0.672108 0.500824
vt 0.664258 0.577897
vt 0.626835 0.570081
vt 0.646167 0.496110
vt 0.591635 0.557673
vt 0.621253 0.487573
vt 0.558741 0.540747
vt 0.597824 0.475569
vt 0.528712 0.519503
vt 0.576242 0.460609
vt 0.501673 0.494545
vt 0.557055 0.442707
vt 0.478391 0.465938
vt 0.540528 0.422231
vt 0.459305 0.434349
vt 0.526978 0.399626
vt 0.444717 0.400412
vt 0.516669 0.375328
vt 0.434952 0.364712
vt 0.509806 0.349795
vt 0.430197 0.327942
vt 0.506534 0.323515
vt 0.430589 0.290798
vt 0.506929 0.296991
vt 0.436103 0.253990
vt 0.511000 0.270734
vt 0.482067 0.151891
vt 0.544368 0.198589
vt 0.535788 0.223998
vt 0.562019 0.178397
vt 0.586053 0.166498
vt 0.612811 0.164701
vt 0.638220 0.173281
vt 0.658318 0.191003
vt 0.670311 0.214965
vt 0.672108 0.241724
vt 0.663528 0.267133
vt 0.645877 0.287324
vt 0.621843 0.299224
vt 0.595085 0.301021
vt 0.569676 0.292441
vt 0.549485 0.274790
vt 0.537585 0.250756
vt 0.506633 0.122195
vt 0.414931 0.206699
vt 0.431927 0.168257
vt 0.403136 0.246900
vt 0.397047 0.288320
vt 0.396659 0.330117
vt 0.402127 0.371490
vt 0.413178 0.411651
vt 0.429703 0.449770
vt 0.451148 0.485313
vt 0.477394 0.517360
vt 0.507757 0.545414
vt 0.541600 0.569293
vt 0.578403 0.588454
vt 0.617567 0.602587
vt 0.658779 0.612462
vt 0.454052 0.132293
vt 0.480633 0.098248
vt 0.804038 0.415021
vt 0.700166 0.379386
vt 0.689967 0.403766
vt 0.789611 0.453431
vt 0.822560 0.377016
vt 0.707243 0.353840
vt 0.817240 0.334785
vt 0.710819 0.327725
vt 0.824920 0.294194
vt 0.710841 0.301641
vt 0.811389 0.255448
vt 0.707341 0.276072
vt 0.810700 0.214057
vt 0.700419 0.251370
vt 0.787280 0.180164
vt 0.690238 0.227803
vt 0.767817 0.145034
vt 0.677021 0.205637
vt 0.741906 0.114017
vt 0.661062 0.185189
vt 0.719405 0.078589
vt 0.642714 0.166879
vt 0.679596 0.063708
vt 0.622229 0.151120
vt 0.645509 0.043315
vt 0.599992 0.138152
vt 0.609526 0.027644
vt 0.576358 0.128298
vt 0.575406 0.003745
vt 0.551561 0.121865
vt 0.768481 0.488284
vt 0.676587 0.426267
vt 0.660166 0.446331
vt 0.752035 0.526879
vt 0.684060 0.401226
vt 0.681447 0.375022
vt 0.669145 0.351642
vt 0.649029 0.334646
vt 0.624160 0.326623
vt 0.598324 0.328792
vt 0.575454 0.340825
vt 0.559034 0.360889
vt 0.551561 0.385929
vt 0.554174 0.412134
vt 0.566563 0.435442
vt 0.586592 0.452509
vt 0.611461 0.460533
vt 0.637297 0.458363
vt 0.419423 0.161694
vt 0.443264 0.124828
vt 0.382676 0.242433
vt 0.403013 0.202339
vt 0.439766 0.493350
vt 0.418529 0.455530
vt 0.493587 0.562950
vt 0.468001 0.526204
vt 0.574641 0.597031
vt 0.536713 0.577318
vt 0.653969 0.634873
vt 0.614859 0.611593
vt 0.379015 0.331199
vt 0.387373 0.287568
vt 0.393552 0.418560
vt 0.392647 0.373411
vt 0.462504 0.083423
vt 0.796225 0.051203
vt 0.774698 0.085481
vt 0.767959 0.084548
vt 0.790863 0.046681
vt 0.778871 0.127056
vt 0.772346 0.129959
vt 0.793651 0.163805
vt 0.788002 0.169634
vt 0.821425 0.192226
vt 0.817550 0.200539
vt 0.859979 0.209987
vt 0.858430 0.219908
vt 0.901789 0.210123
vt 0.902807 0.219908
vt 0.939471 0.196256
vt 0.942891 0.204799
vt 0.968846 0.169243
vt 0.974126 0.175456
vt 0.987705 0.132863
vt 0.994134 0.136251
vt 0.991348 0.091948
vt 0.998047 0.091263
vt 0.973181 0.055873
vt 0.978809 0.051634
vt 0.943292 0.027219
vt 0.947179 0.020657
vt 0.904970 0.010232
vt 0.906468 0.002335
vt 0.863584 0.009925
vt 0.862426 0.001953
vt 0.825692 0.023932
vt 0.822103 0.017284
vn -0.3506 -0.4007 -0.8464
vn -0.3562 -0.3657 -0.8599
vn 0.0000 -0.3657 -0.9307
vn -0.0000 -0.4007 -0.9162
vn 0.6478 -0.4007 -0.6478
vn 0.6581 -0.3657 -0.6581
vn 0.8599 -0.3657 -0.3562
vn 0.8464 -0.4007 -0.3506
vn 0.9307 -0.3657 -0.0000
vn 0.9162 -0.4007 -0.0000
vn 0.8591 -0.3657 0.3580
vn 0.8457 -0.4007 0.3525
vn 0.6583 -0.3652 0.6583
vn 0.6480 -0.4002 0.6480
vn 0.3580 -0.3657 0.8591
vn 0.3525 -0.4007 0.8457
vn -0.0000 -0.3657 0.9307
vn -0.0000 -0.4007 0.9162
vn -0.3562 -0.3657 0.8599
vn -0.3506 -0.4007 0.8464
vn -0.6581 -0.3657 0.6581
vn -0.6478 -0.4007 0.6478
vn -0.8599 -0.3657 0.3562
vn -0.8464 -0.4007 0.3506
vn -0.9307 -0.3657 -0.0000
vn -0.9162 -0.4007 -0.0000
vn -0.8599 -0.3657 -0.3562
vn -0.8464 -0.4007 -0.3506
vn -0.6581 -0.3657 -0.6581
vn -0.6478 -0.4007 -0.6478
vn 0.3562 -0.3657 -0.8599
vn 0.3506 -0.4007 -0.8464
vn 0.0000 -1.0000 -0.0000
vn -0.3726 -0.2278 -0.8996
vn -0.0000 -0.2278 -0.9737
vn -0.6885 -0.2278 -0.6885
vn -0.8996 -0.2278 -0.3726
vn -0.9737 -0.2278 -0.0000
vn -0.8996 -0.2278 0.3726
vn -0.6885 -0.2278 0.6885
vn -0.3726 -0.2278 0.8996
vn -0.0000 -0.2278 0.9737
vn 0.3745 -0.2278 0.8988
vn 0.6886 -0.2275 0.6886
vn 0.8988 -0.2278 0.3745
vn 0.9737 -0.2278 -0.0000
vn 0.8996 -0.2278 -0.3726
vn 0.6885 -0.2278 -0.6885
vn 0.3726 -0.2278 -0.8996
vn 0.3818 0.3422 0.8586
vn 0.3730 0.3423 0.8624
vn 0.0092 0.3446 0.9387
vn 0.0089 0.3446 0.9387
vn 0.6569 0.3376 0.6742
vn 0.6595 0.3377 0.6716
vn 0.8603 0.3446 0.3757
vn 0.8619 0.3446 0.3720
vn 0.9394 0.3427 0.0115
vn 0.9394 0.3427 0.0103
vn 0.8667 0.3440 -0.3612
vn 0.8672 0.3440 -0.3600
vn 0.6601 0.3344 -0.6726
vn 0.6604 0.3344 -0.6723
vn 0.3752 0.3347 -0.8644
vn 0.3617 0.3348 -0.8701
vn -0.0072 0.3316 -0.9434
vn -0.0101 0.3316 -0.9434
vn -0.3897 0.3257 -0.8614
vn -0.3798 0.3260 -0.8658
vn -0.6607 0.3198 -0.6792
vn -0.6631 0.3198 -0.6768
vn -0.8513 0.3336 -0.4048
vn -0.8575 0.3343 -0.3910
vn -0.9389 0.3442 -0.0047
vn -0.9389 0.3442 -0.0093
vn -0.8512 0.3437 0.3965
vn -0.8607 0.3442 0.3751
vn -0.6535 0.3359 0.6783
vn -0.6585 0.3360 0.6734
vn -0.3732 0.3421 0.8624
vn -0.3629 0.3424 0.8666
vn 0.0052 1.0000 0.0077
vn 0.0006 -0.1255 -0.9921
vn 0.3904 -0.1255 -0.9121
vn -0.6981 -0.1255 -0.7049
vn -0.3882 -0.1255 -0.9130
vn 0.0006 -0.1255 0.9921
vn -0.3882 -0.1255 0.9130
vn 0.6975 -0.1253 0.7055
vn 0.3924 -0.1255 0.9112
vn 0.9921 -0.1255 -0.0000
vn 0.9089 -0.1255 0.3977
vn 0.6974 -0.1255 -0.7056
vn 0.9098 -0.1255 -0.3956
vn -0.9921 -0.1255 -0.0000
vn -0.9151 -0.1255 -0.3833
vn -0.6981 -0.1255 0.7049
vn -0.9151 -0.1255 0.3833
vn -0.0604 0.9910 -0.1194
vn -0.0173 0.9989 0.0425
vn 0.0013 0.9977 0.0675
vn -0.0577 0.9913 -0.1184
vn 0.1059 0.9845 0.1397
vn 0.0950 0.9896 0.1080
vn 0.0405 0.9992 -0.0019
vn 0.0360 0.9994 0.0011
vn 0.1011 0.9899 -0.0997
vn 0.1216 0.9842 -0.1287
vn 0.0070 0.9978 -0.0659
vn -0.0099 0.9987 -0.0507
vn -0.0780 0.9955 0.0538
vn -0.0887 0.9943 0.0596
vn -0.0089 0.9999 0.0087
vn -0.0009 1.0000 0.0060
vn 0.0815 0.9950 0.0578
vn 0.0507 0.9975 0.0483
vn -0.0465 0.9975 -0.0529
vn 0.0077 0.9998 -0.0191
vn -0.1410 0.9895 0.0335
vn -0.1496 0.9887 0.0134
vn -0.0655 0.9978 0.0025
vn -0.0656 0.9978 -0.0031
vn -0.1451 0.9889 -0.0311
vn -0.1514 0.9883 -0.0162
vn -0.0543 0.9985 -0.0014
vn -0.0482 0.9988 -0.0072
vn 0.0332 0.9921 -0.1211
vn 0.0368 0.9917 -0.1230
vn -0.0022 0.9969 -0.0785
vn -0.0060 0.9969 -0.0783
usemtl JarMaterial
s 1
f 16/1/1 47/2/2 17/3/3 1/4/4
f 3/5/5 21/6/6 23/7/7 4/8/8
f 4/8/8 23/7/7 25/9/9 5/10/10
f 5/10/10 25/9/9 27/11/11 6/12/12
f 6/12/12 27/11/11 29/13/13 7/14/14
f 7/14/14 29/13/13 31/15/15 8/16/16
f 8/16/16 31/15/15 33/17/17 9/18/18
f 9/18/18 33/17/17 35/19/19 10/20/20
f 10/20/20 35/19/19 37/21/21 11/22/22
f 11/22/22 37/21/21 39/23/23 12/24/24
f 12/24/24 39/23/23 41/25/25 13/26/26
f 13/26/26 41/25/25 43/27/27 14/28/28
f 14/28/28 43/27/27 45/29/29 15/30/30
f 15/30/30 45/29/29 47/2/2 16/1/1
f 1/4/4 17/3/3 19/31/31 2/32/32
f 1/33/33 2/32/33 3/34/33 4/35/33 5/36/33 6/37/33 7/38/33 8/39/33 9/40/33 10/41/33 11/42/33 12/43/33 13/44/33 14/45/33 15/46/33 16/47/33
f 2/32/32 19/31/31 21/48/6 3/34/5
f 48/49/34 18/50/35 17/3/3 47/2/2
f 46/51/36 48/49/34 47/2/2 45/29/29
f 44/52/37 46/51/36 45/29/29 43/27/27
f 42/53/38 44/52/37 43/27/27 41/25/25
f 40/54/39 42/53/38 41/25/25 39/23/23
f 38/55/40 40/54/39 39/23/23 37/21/21
f 36/56/41 38/55/40 37/21/21 35/19/19
f 34/57/42 36/56/41 35/19/19 33/17/17
f 32/58/43 34/57/42 33/17/17 31/15/15
f 30/59/44 32/58/43 31/15/15 29/13/13
f 28/60/45 30/59/44 29/13/13 27/11/11
f 26/61/46 28/60/45 27/11/11 25/9/9
f 24/62/47 26/61/46 25/9/9 23/7/7
f 22/63/48 24/62/47 23/7/7 21/6/6
f 20/64/49 22/65/48 21/48/6 19/31/31
f 18/50/35 20/64/49 19/31/31 17/3/3
f 67/66/50 64/67/51 49/68/52 96/69/53
f 76/70/54 63/71/55 64/67/51 67/66/50
f 83/72/56 62/73/57 63/71/55 76/70/54
f 74/74/58 61/75/59 62/73/57 83/72/56
f 90/76/60 60/77/61 61/75/59 74/74/58
f 75/78/62 59/79/63 60/77/61 90/76/60
f 93/80/64 58/81/65 59/79/63 75/78/62
f 72/82/66 57/83/67 58/81/65 93/80/64
f 92/84/68 56/85/69 57/83/67 72/82/66
f 80/86/70 55/87/71 56/85/69 92/84/68
f 70/88/72 54/89/73 55/87/71 80/86/70
f 89/90/74 53/91/75 54/89/73 70/88/72
f 84/92/76 52/93/77 53/91/75 89/90/74
f 65/94/78 51/95/79 52/93/77 84/92/76
f 88/96/80 50/97/81 51/98/79 65/99/78
f 96/69/53 49/68/52 50/97/81 88/96/80
f 49/100/82 64/101/82 63/102/82 62/103/82 61/104/82 60/105/82 59/106/82 58/107/82 57/108/82 56/109/82 55/110/82 54/111/82 53/112/82 52/113/82 51/98/82 50/97/82
f 95/114/83 91/115/84 20/64/49 18/50/35
f 82/116/85 71/117/86 48/49/34 46/51/36
f 77/118/87 69/119/88 36/56/41 34/57/42
f 85/120/89 68/121/90 32/58/43 30/59/44
f 73/122/91 78/123/92 28/60/45 26/61/46
f 66/124/93 87/125/94 24/62/47 22/63/48
f 79/126/95 86/127/96 44/52/37 42/53/38
f 81/128/97 94/129/98 40/54/39 38/55/40
f 71/117/86 95/114/83 18/50/35 48/49/34
f 86/127/96 82/116/85 46/51/36 44/52/37
f 68/121/90 77/118/87 34/57/42 32/58/43
f 87/125/94 73/122/91 26/61/46 24/62/47
f 91/115/84 66/130/93 22/65/48 20/64/49
f 94/129/98 79/126/95 42/53/38 40/54/39
f 69/119/88 81/128/97 38/55/40 36/56/41
f 78/123/92 85/120/89 30/59/44 28/60/45
f 88/131/99 65/132/100 66/133/101 91/134/102
f 65/132/100 84/135/103 87/136/104 66/133/101
f 84/135/103 89/137/105 73/138/106 87/136/104
f 89/137/105 70/139/107 78/140/108 73/138/106
f 70/139/107 80/141/109 85/142/110 78/140/108
f 80/141/109 92/143/111 68/144/112 85/142/110
f 92/143/111 72/145/113 77/146/114 68/144/112
f 72/145/113 93/147/115 69/148/116 77/146/114
f 93/147/115 75/149/117 81/150/118 69/148/116
f 75/149/117 90/151/119 94/152/120 81/150/118
f 90/151/119 74/153/121 79/154/122 94/152/120
f 74/153/121 83/155/123 86/156/124 79/154/122
f 83/155/123 76/157/125 82/158/126 86/156/124
f 76/157/125 67/159/127 71/160/128 82/158/126
f 67/159/127 96/161/129 95/162/130 71/160/128
f 96/161/129 88/131/99 91/134/102 95/162/130
