# Blender v2.79 (sub 0) OBJ File: 'medieval_props_pack.blend'
# www.blender.org
mtllib log_2_001.mtl
o wooden_log_2
v -0.000000 1.305600 0.000000
v -0.000000 -0.057600 -0.777600
v -0.000000 1.305600 -0.777600
v 0.457062 -0.057600 -0.629092
v 0.457062 1.305600 -0.629092
v 0.739542 -0.057600 -0.240292
v 0.739542 1.305600 -0.240292
v 0.739542 -0.057600 0.240292
v 0.739542 1.305600 0.240292
v 0.457062 -0.057600 0.629092
v 0.457062 1.305600 0.629092
v -0.000000 -0.057600 0.777600
v -0.000000 1.305600 0.777600
v -0.457062 -0.057600 0.629092
v -0.457062 1.305600 0.629092
v -0.739542 -0.057600 0.240292
v -0.739542 1.305600 0.240292
v -0.739542 -0.057600 -0.240292
v -0.739542 1.305600 -0.240292
v -0.457062 -0.057600 -0.629092
v -0.457062 1.305600 -0.629092
vt 0.498366 0.839079
vt 0.987314 0.792425
vt 0.987314 0.885733
vt 0.994916 0.005056
vt 0.994916 0.675030
vt 0.895933 0.675030
vt 0.895933 0.005056
vt 0.800553 0.716937
vt 0.796950 0.675030
vt 0.796950 0.005056
vt 0.498366 0.688104
vt 0.697966 0.675030
vt 0.697966 0.005056
vt 0.196180 0.716937
vt 0.598983 0.675030
vt 0.598983 0.005056
vt 0.009419 0.792425
vt 0.500000 0.675030
vt 0.500000 0.005056
vt 0.009419 0.885733
vt 0.401017 0.675030
vt 0.401017 0.005056
vt 0.196180 0.961221
vt 0.302034 0.675030
vt 0.302034 0.005056
vt 0.498366 0.990055
vt 0.203050 0.675030
vt 0.203050 0.005056
vt 0.800553 0.961221
vt 0.104067 0.675030
vt 0.104067 0.005056
vt 0.005084 0.675030
vt 0.005084 0.005056
vn 0.0000 1.0000 0.0000
vn 0.4498 0.6437 -0.6191
vn 0.0000 0.6437 -0.7653
vn 0.0000 0.0000 -1.0000
vn 0.5878 0.0000 -0.8090
vn 0.7278 0.6437 -0.2365
vn 0.9510 0.0000 -0.3090
vn 0.7278 0.6437 0.2365
vn 0.9510 0.0000 0.3090
vn 0.4498 0.6437 0.6191
vn 0.5878 0.0000 0.8090
vn 0.0000 0.6437 0.7653
vn 0.0000 0.0000 1.0000
vn -0.4498 0.6437 0.6191
vn -0.5878 0.0000 0.8090
vn -0.7278 0.6437 0.2365
vn -0.9510 0.0000 0.3090
vn -0.7278 0.6437 -0.2365
vn -0.9510 0.0000 -0.3090
vn -0.4498 0.6437 -0.6191
vn -0.5878 0.0000 -0.8090
usemtl mat_wooden_log_2
s 1
f 1/1/1 5/2/2 3/3/3
f 2/4/4 3/5/3 5/6/2 4/7/5
f 1/1/1 7/8/6 5/2/2
f 4/7/5 5/6/2 7/9/6 6/10/7
f 1/1/1 9/11/8 7/8/6
f 6/10/7 7/9/6 9/12/8 8/13/9
f 1/1/1 11/14/10 9/11/8
f 8/13/9 9/12/8 11/15/10 10/16/11
f 1/1/1 13/17/12 11/14/10
f 10/16/11 11/15/10 13/18/12 12/19/13
f 1/1/1 15/20/14 13/17/12
f 12/19/13 13/18/12 15/21/14 14/22/15
f 1/1/1 17/23/16 15/20/14
f 14/22/15 15/21/14 17/24/16 16/25/17
f 1/1/1 19/26/18 17/23/16
f 16/25/17 17/24/16 19/27/18 18/28/19
f 1/1/1 21/29/20 19/26/18
f 18/28/19 19/27/18 21/30/20 20/31/21
f 1/1/1 3/3/3 21/29/20
f 20/31/21 21/30/20 3/32/3 2/33/4
