# Blender v2.79 (sub 0) OBJ File: 'Props3.blend'
# www.blender.org
mtllib medieval_outhouse_1_001.mtl
o Outhouse
v -0.048263 1.063356 -0.560645
v -0.048263 1.144527 -0.560645
v 0.159975 1.063356 -0.474390
v 0.159975 1.144527 -0.474390
v 0.246229 1.063356 -0.266153
v 0.246229 1.144527 -0.266153
v 0.159975 1.063356 -0.057915
v 0.159975 1.144527 -0.057915
v -0.048263 1.063356 0.028339
v -0.048263 1.144527 0.028339
v -0.256500 1.063356 -0.057915
v -0.256500 1.144527 -0.057915
v -0.342754 1.063356 -0.266153
v -0.342754 1.144527 -0.266153
v -0.256500 1.063356 -0.474390
v -0.256500 1.144527 -0.474390
v 0.733689 0.061575 -0.793524
v 0.733689 0.061575 0.770379
v -0.830214 0.061575 0.770379
v -0.830214 0.061575 -0.793524
v 0.733689 2.271089 -0.793524
v 0.733688 2.668081 0.770379
v -0.830214 2.668081 0.770379
v -0.830214 2.271089 -0.793524
v 0.498681 0.061575 -0.793524
v -0.595206 0.061575 -0.793524
v 0.498681 0.061575 0.770379
v -0.595207 0.061575 0.770379
v 0.498682 2.271089 -0.793524
v -0.595206 2.271089 -0.793524
v 0.498680 2.668081 0.770379
v -0.595207 2.668081 0.770379
v 0.733689 0.331993 -0.793524
v 0.733689 0.331993 0.770379
v -0.830214 0.331993 0.770379
v -0.830214 0.331993 -0.793524
v 0.498681 0.331993 0.770379
v -0.595207 0.331993 0.770379
v 0.498682 0.331993 -0.793524
v -0.595206 0.331993 -0.793524
v -0.830214 2.172094 -0.793524
v -0.830214 2.508416 0.770379
v 0.733689 2.508416 0.770379
v 0.733689 2.172094 -0.793524
v -0.595207 2.508416 0.770379
v 0.498681 2.508416 0.770379
v -0.595206 2.172094 -0.793524
v 0.498682 2.172094 -0.793524
v 0.385142 1.491558 0.948845
v 0.385142 1.491558 0.898622
v 0.469885 1.491558 0.898622
v 0.469885 1.491558 0.948845
v 0.385142 1.728598 0.948845
v 0.385142 1.728598 0.898622
v 0.469885 1.728598 0.898622
v 0.469885 1.728598 0.948845
v 0.385142 1.680252 0.898622
v 0.385142 1.544841 0.898622
v 0.385142 1.544841 0.948845
v 0.385142 1.680252 0.948845
v 0.469885 1.680252 0.898622
v 0.469885 1.544841 0.898622
v 0.469885 1.680252 0.948845
v 0.469885 1.544841 0.948845
v 0.385142 1.491558 0.806209
v 0.469885 1.491558 0.806209
v 0.385142 1.728598 0.806209
v 0.469885 1.728598 0.806209
v 0.385142 1.680252 0.806209
v 0.385142 1.544841 0.806209
v 0.469885 1.680252 0.806209
v 0.469885 1.544841 0.806209
v -0.859492 -0.012418 0.249409
v 0.762967 -0.012418 0.249409
v -0.859492 1.073430 0.249409
v -0.859492 1.073430 -0.808668
v 0.762967 1.073430 -0.808668
v 0.762967 1.073430 0.249409
v 0.527108 0.278312 0.854409
v -0.623634 0.278312 0.854409
v -0.623634 2.567853 0.854408
v 0.527108 2.567853 0.854409
v 0.527108 0.278312 0.809189
v -0.623634 0.278312 0.809189
v -0.623634 2.567853 0.809188
v 0.527108 2.567853 0.809189
v -0.623634 2.102066 0.854408
v 0.527108 2.102066 0.854409
v -0.623634 2.102066 0.809189
v 0.527108 2.102066 0.809189
v 0.527108 2.299501 0.809189
v -0.623634 2.299501 0.809188
v 0.527108 2.299501 0.854409
v -0.623634 2.299501 0.854408
v 0.045435 2.299501 0.809188
v -0.141962 2.299501 0.809188
v -0.141962 2.299501 0.854409
v 0.045435 2.299501 0.854409
v 0.045436 0.278312 0.854409
v -0.141961 0.278312 0.854409
v 0.045435 2.567853 0.854409
v -0.141962 2.567853 0.854409
v 0.045436 0.278312 0.809189
v -0.141961 0.278312 0.809189
v 0.045435 2.567853 0.809189
v -0.141962 2.567853 0.809188
v -0.141962 2.102066 0.809189
v 0.045435 2.102066 0.809189
v 0.045435 2.102066 0.854409
v -0.141962 2.102066 0.854409
v 0.886912 2.289613 -0.946746
v 0.886911 2.764396 0.923602
v -0.983437 2.764396 0.923601
v -0.983436 2.289613 -0.946747
v 0.886912 2.347178 -0.961359
v 0.886911 2.821960 0.908989
v -0.983437 2.821960 0.908988
v -0.983436 2.347178 -0.961359
v 0.619719 2.289613 -0.946746
v 0.352527 2.289613 -0.946746
v 0.085334 2.289613 -0.946746
v -0.181859 2.289613 -0.946746
v -0.449051 2.289613 -0.946746
v -0.716244 2.289613 -0.946747
v 0.619718 2.764396 0.923602
v 0.352526 2.764396 0.923602
v 0.085333 2.764396 0.923602
v -0.181859 2.764396 0.923601
v -0.449052 2.764396 0.923601
v -0.716244 2.764396 0.923601
v 0.619719 2.347178 -0.961359
v 0.352527 2.347178 -0.961359
v 0.085334 2.347178 -0.961359
v -0.181859 2.347178 -0.961359
v -0.449051 2.347178 -0.961359
v -0.716244 2.347178 -0.961359
v 0.619718 2.821960 0.908989
v 0.352526 2.821960 0.908989
v 0.085333 2.821960 0.908989
v -0.181859 2.821960 0.908989
v -0.449052 2.821960 0.908989
v -0.716244 2.821960 0.908989
v -0.449052 2.775296 0.966542
v -0.716244 2.775296 0.966542
v -0.449052 2.832860 0.951930
v -0.716244 2.832860 0.951930
v 0.085333 2.769726 0.944960
v -0.181859 2.769726 0.944960
v 0.085333 2.827291 0.930347
v -0.181859 2.827291 0.930347
v 0.619718 2.779647 0.983682
v 0.352526 2.779647 0.983682
v 0.619718 2.837212 0.969069
v 0.352526 2.837212 0.969069
v 0.886912 2.279701 -0.985791
v 0.886912 2.337266 -1.000404
v 0.619719 2.279701 -0.985791
v 0.619719 2.337266 -1.000404
v 0.352527 2.285775 -0.961868
v 0.085334 2.285775 -0.961868
v 0.352527 2.343339 -0.976480
v 0.085334 2.343339 -0.976480
v -0.181859 2.276128 -0.991113
v -0.449051 2.276128 -0.991113
v -0.181859 2.333693 -1.005726
v -0.449051 2.333693 -1.005726
v 0.085334 2.288123 -0.952615
v -0.181859 2.288123 -0.952615
v 0.085334 2.345688 -0.967228
v -0.181859 2.345688 -0.967228
v -0.449051 2.284323 -0.967586
v -0.716244 2.284323 -0.967586
v -0.449051 2.341887 -0.982199
v -0.716244 2.341887 -0.982199
v 0.774331 -0.006161 -0.834165
v 0.774331 -0.006161 0.811021
v -0.870856 -0.006161 0.811021
v -0.870855 -0.006161 -0.834166
v 0.774331 2.318191 -0.834165
v 0.774330 2.735817 0.811021
v -0.870856 2.735817 0.811020
v -0.870856 2.318191 -0.834166
v 0.527109 -0.006161 -0.834166
v -0.623633 -0.006161 -0.834166
v 0.527108 -0.006161 0.811021
v -0.623634 -0.006161 0.811021
v 0.527109 2.318191 -0.834166
v -0.623633 2.318191 -0.834166
v 0.527107 2.735817 0.811021
v -0.623634 2.735817 0.811021
v 0.774331 0.278312 -0.834165
v 0.774331 0.278312 0.811021
v -0.870856 0.278312 0.811021
v -0.870855 0.278312 -0.834166
v 0.527108 0.278312 0.811021
v -0.623634 0.278312 0.811021
v 0.527109 0.278312 -0.834166
v -0.623633 0.278312 -0.834166
v -0.870856 2.214051 -0.834166
v -0.870856 2.567853 0.811020
v 0.774330 2.567853 0.811021
v 0.774331 2.214051 -0.834165
v -0.623634 2.567853 0.811021
v 0.527108 2.567853 0.811021
v -0.623633 2.214051 -0.834166
v 0.527109 2.214051 -0.834166
vt 0.465426 0.567273
vt 0.473404 0.546364
vt 0.531028 0.547273
vt 0.539007 0.567273
vt 0.573582 0.507273
vt 0.592199 0.514545
vt 0.569149 0.448182
vt 0.588652 0.439091
vt 0.526596 0.408182
vt 0.534574 0.388182
vt 0.468972 0.408182
vt 0.460993 0.388182
vt 0.426418 0.448182
vt 0.407801 0.440000
vt 0.430851 0.506364
vt 0.411348 0.515455
vt 0.146277 0.472727
vt 0.046986 0.000000
vt 0.000000 0.000000
vt 0.117021 0.472727
vt 0.878546 0.494545
vt 0.878546 0.565455
vt 0.925532 0.565455
vt 0.925532 0.494545
vt 0.046986 0.472727
vt 0.146277 0.000000
vt 0.117021 0.000000
vt 0.000000 0.472727
vt 0.571809 0.401818
vt 0.571809 0.472727
vt 0.651596 0.472727
vt 0.651596 0.401818
vt 0.878546 0.092727
vt 0.878546 0.163636
vt 0.925532 0.163636
vt 0.925532 0.092727
vt 0.571809 0.000000
vt 0.571809 0.070909
vt 0.651596 0.070909
vt 0.651596 0.000000
vt 0.768617 0.472727
vt 0.768617 0.000000
vt 0.688830 0.000000
vt 0.688830 0.472727
vt 0.156915 0.494545
vt 0.156915 0.565455
vt 0.236702 0.565455
vt 0.236702 0.494545
vt 0.768617 0.472727
vt 0.768617 0.000000
vt 0.688830 0.000000
vt 0.688830 0.472727
vt 0.029255 0.401818
vt 0.029255 0.472727
vt 0.156915 0.092727
vt 0.156915 0.163636
vt 0.236702 0.163636
vt 0.236702 0.092727
vt 0.029255 0.000000
vt 0.029255 0.070909
vt 0.000000 0.070909
vt 0.000000 0.401818
vt 0.000000 0.472727
vt 0.000000 0.000000
vt 0.475177 0.410000
vt 0.460993 0.410000
vt 0.460993 0.394545
vt 0.475177 0.394545
vt 0.540780 0.489091
vt 0.516844 0.489091
vt 0.516844 0.462727
vt 0.540780 0.462727
vt 0.490248 0.410000
vt 0.476064 0.410000
vt 0.476064 0.394545
vt 0.490248 0.394545
vt 0.516844 0.447273
vt 0.540780 0.447273
vt 0.540780 0.462727
vt 0.516844 0.462727
vt 0.516844 0.503636
vt 0.540780 0.503636
vt 0.476064 0.503636
vt 0.476064 0.489091
vt 0.500000 0.489091
vt 0.500000 0.503636
vt 0.476064 0.462727
vt 0.460993 0.462727
vt 0.460993 0.448182
vt 0.476064 0.448182
vt 0.510638 0.506364
vt 0.485816 0.506364
vt 0.485816 0.480000
vt 0.510638 0.480000
vt 0.475177 0.500909
vt 0.451241 0.500909
vt 0.451241 0.462727
vt 0.476064 0.462727
vt 0.490248 0.462727
vt 0.476064 0.462727
vt 0.476064 0.449091
vt 0.490248 0.448182
vt 0.516844 0.394545
vt 0.540780 0.394545
vt 0.540780 0.408182
vt 0.516844 0.408182
vt 0.516844 0.448182
vt 0.516844 0.462727
vt 0.435284 0.462727
vt 0.435284 0.449091
vt 0.565603 0.489091
vt 0.540780 0.489091
vt 0.540780 0.462727
vt 0.565603 0.462727
vt 0.516844 0.394545
vt 0.516844 0.410000
vt 0.434397 0.410000
vt 0.434397 0.394545
vt 0.476064 0.462727
vt 0.500000 0.462727
vt 0.609929 0.496364
vt 0.127660 0.496364
vt 0.127660 0.165455
vt 0.609929 0.165455
vt 0.609929 0.819091
vt 0.127660 0.819091
vt 0.740248 0.819091
vt 0.740248 0.928182
vt 0.935284 0.928182
vt 0.935284 0.820000
vt 0.271277 0.109091
vt 0.466312 0.108182
vt 0.466312 0.000000
vt 0.271277 0.000000
vt 0.999114 0.270909
vt 0.981383 0.270909
vt 0.981383 0.466364
vt 1.000000 0.465455
vt 0.960106 0.738182
vt 0.977837 0.738182
vt 0.980496 0.000000
vt 0.961879 0.000000
vt 0.940603 0.738182
vt 0.958333 0.738182
vt 0.956560 0.000000
vt 0.937943 0.000000
vt 0.999114 0.730000
vt 0.981383 0.730000
vt 0.981383 0.924545
vt 1.000000 0.924545
vt 0.742908 0.000909
vt 0.740248 0.739091
vt 0.935284 0.740000
vt 0.937943 0.000909
vt 0.273936 0.928182
vt 0.468972 0.927273
vt 0.466312 0.188182
vt 0.271277 0.189091
vt 0.959220 0.818182
vt 0.977837 0.818182
vt 0.940603 0.818182
vt 0.958333 0.818182
vt 0.998227 0.459091
vt 0.980496 0.459091
vt 0.980496 0.653636
vt 0.999114 0.653636
vt 0.940603 0.927273
vt 0.959220 0.927273
vt 0.999114 0.194545
vt 0.980496 0.194545
vt 0.468972 0.818182
vt 0.468972 0.927273
vt 0.664007 0.928182
vt 0.664007 0.819091
vt 0.959220 0.927273
vt 0.977837 0.927273
vt 0.195035 0.109091
vt 0.195035 0.000909
vt 0.998227 0.000000
vt 0.980496 0.000000
vt 0.000000 0.110000
vt 0.000000 0.000909
vt 0.471631 0.000000
vt 0.469858 0.738182
vt 0.664894 0.739091
vt 0.666667 0.000000
vt 0.002660 0.928182
vt 0.197695 0.928182
vt 0.195922 0.189091
vt 0.000887 0.190000
vt 0.487589 0.997273
vt 0.487589 0.920909
vt 0.468972 0.921818
vt 0.468972 0.997273
vt 0.961879 0.920000
vt 0.961879 1.000000
vt 0.980496 1.000000
vt 0.979610 0.920000
vt 0.956560 1.000000
vt 0.956560 0.920000
vt 0.937943 0.920000
vt 0.937943 1.000000
vt 0.937943 0.997273
vt 0.937943 0.921818
vt 0.919326 0.920909
vt 0.919326 0.997273
vt 0.942376 0.489091
vt 0.942376 0.958182
vt 0.879433 0.958182
vt 0.879433 0.489091
vt 0.785461 0.454545
vt 0.849291 0.454545
vt 0.849291 0.922727
vt 0.785461 0.922727
vt 0.514184 0.414545
vt 0.514184 0.480000
vt 0.500000 0.480000
vt 0.500000 0.414545
vt 0.893617 0.489091
vt 0.893617 0.020909
vt 0.907801 0.020909
vt 0.907801 0.489091
vt 0.893617 0.020909
vt 0.893617 0.489091
vt 0.879433 0.489091
vt 0.879433 0.020909
vt 0.437057 0.413636
vt 0.437057 0.478182
vt 0.422872 0.478182
vt 0.422872 0.413636
vt 0.500000 0.489091
vt 0.500000 0.958182
vt 0.437057 0.958182
vt 0.437057 0.489091
vt 0.310284 0.474545
vt 0.310284 0.942727
vt 0.247340 0.942727
vt 0.247340 0.474545
vt 0.816489 0.489091
vt 0.816489 0.958182
vt 0.752660 0.958182
vt 0.752660 0.489091
vt 0.689716 0.484545
vt 0.689716 0.952727
vt 0.626773 0.952727
vt 0.626773 0.484545
vt 0.373227 0.489091
vt 0.373227 0.958182
vt 0.310284 0.958182
vt 0.310284 0.489091
vt 0.120567 0.479091
vt 0.120567 0.947273
vt 0.057624 0.947273
vt 0.057624 0.479091
vt 0.483156 0.496364
vt 0.546099 0.496364
vt 0.546099 0.964545
vt 0.483156 0.964545
vt 0.248227 0.367273
vt 0.311170 0.367273
vt 0.311170 0.835455
vt 0.248227 0.835455
vt 0.713652 0.440909
vt 0.776596 0.440909
vt 0.776596 0.909091
vt 0.713652 0.909091
vt 0.560284 0.376364
vt 0.623227 0.376364
vt 0.623227 0.844545
vt 0.560284 0.844545
vt 0.481383 0.413636
vt 0.545213 0.413636
vt 0.545213 0.881818
vt 0.481383 0.881818
vt 0.167553 0.458182
vt 0.231383 0.458182
vt 0.231383 0.926364
vt 0.167553 0.926364
vt 0.451241 0.414545
vt 0.451241 0.480000
vt 0.437057 0.480000
vt 0.437057 0.414545
vt 0.359043 0.478182
vt 0.345745 0.478182
vt 0.345745 0.462727
vt 0.359043 0.462727
vt 0.387411 0.413636
vt 0.387411 0.478182
vt 0.373227 0.478182
vt 0.373227 0.413636
vt 0.310284 0.474545
vt 0.296099 0.474545
vt 0.296099 0.469091
vt 0.310284 0.469091
vt 0.401596 0.413636
vt 0.401596 0.478182
vt 0.387411 0.478182
vt 0.387411 0.413636
vt 0.247340 0.474545
vt 0.233156 0.474545
vt 0.233156 0.463636
vt 0.247340 0.463636
vt 0.218972 0.464545
vt 0.233156 0.464545
vt 0.233156 0.474545
vt 0.218972 0.474545
vt 0.485816 0.414545
vt 0.485816 0.480000
vt 0.471631 0.480000
vt 0.471631 0.414545
vt 0.752660 0.485455
vt 0.816489 0.485455
vt 0.626773 0.482727
vt 0.689716 0.482727
vt 0.335993 0.463636
vt 0.335993 0.478182
vt 0.325355 0.477273
vt 0.325355 0.463636
vt 0.261525 0.469091
vt 0.274823 0.469091
vt 0.274823 0.474545
vt 0.261525 0.474545
vt 0.528369 0.414545
vt 0.528369 0.480000
vt 0.514184 0.480000
vt 0.514184 0.414545
vt 0.120567 0.958182
vt 0.057624 0.958182
vt 0.198582 0.474545
vt 0.198582 0.460000
vt 0.209220 0.460000
vt 0.209220 0.474545
vt 0.231383 0.937273
vt 0.167553 0.937273
vt 0.422872 0.413636
vt 0.422872 0.478182
vt 0.408688 0.478182
vt 0.408688 0.413636
vt 0.623227 0.850000
vt 0.560284 0.850000
vt 0.261525 0.474545
vt 0.247340 0.474545
vt 0.247340 0.469091
vt 0.261525 0.469091
vt 0.689716 0.958182
vt 0.626773 0.958182
vt 0.373227 0.413636
vt 0.373227 0.478182
vt 0.359043 0.478182
vt 0.359043 0.413636
vt 0.310284 0.958182
vt 0.247340 0.958182
vt 0.325355 0.463636
vt 0.325355 0.478182
vt 0.310284 0.478182
vt 0.310284 0.463636
vt 0.311170 0.850000
vt 0.248227 0.850000
vt 0.542553 0.414545
vt 0.542553 0.480000
vt 0.528369 0.480000
vt 0.528369 0.414545
vt 0.437057 0.480000
vt 0.500000 0.480000
vt 0.483156 0.486364
vt 0.546099 0.486364
vt 0.218085 0.460000
vt 0.218085 0.474545
vt 0.209220 0.474545
vt 0.209220 0.460000
vt 0.500000 0.414545
vt 0.500000 0.480000
vt 0.485816 0.480000
vt 0.485816 0.414545
vt 0.106383 0.470000
vt 0.120567 0.470000
vt 0.120567 0.473636
vt 0.106383 0.473636
vt 0.713652 0.437273
vt 0.776596 0.437273
vt 0.057624 0.470000
vt 0.071809 0.470000
vt 0.071809 0.473636
vt 0.057624 0.473636
vt 0.464539 0.414545
vt 0.464539 0.480000
vt 0.451241 0.480000
vt 0.451241 0.414545
vt 0.310284 0.478182
vt 0.373227 0.478182
vt 0.183511 0.463636
vt 0.197695 0.463636
vt 0.198582 0.474545
vt 0.184397 0.474545
vt 0.481383 0.401818
vt 0.545213 0.401818
vt 0.555851 0.414545
vt 0.555851 0.480000
vt 0.542553 0.480000
vt 0.542553 0.414545
vt 0.071809 0.471818
vt 0.085106 0.471818
vt 0.085106 0.473636
vt 0.071809 0.473636
vt 0.560284 0.375455
vt 0.623227 0.375455
vt 0.092199 0.471818
vt 0.106383 0.471818
vt 0.106383 0.473636
vt 0.092199 0.473636
vt 0.570035 0.414545
vt 0.570035 0.480000
vt 0.555851 0.480000
vt 0.555851 0.414545
vt 0.183511 0.479091
vt 0.120567 0.479091
vt 0.120567 0.473636
vt 0.183511 0.473636
vt 0.281915 0.469091
vt 0.296099 0.469091
vt 0.296099 0.474545
vt 0.281915 0.474545
vt 0.057624 0.473636
vt 0.120567 0.473636
vt 0.146277 0.472727
vt 0.117021 0.472727
vt 0.000000 0.000000
vt 0.046986 0.000000
vt 0.878546 0.494545
vt 0.925532 0.494545
vt 0.925532 0.565455
vt 0.878546 0.565455
vt 0.046986 0.472727
vt 0.000000 0.472727
vt 0.117021 0.000000
vt 0.146277 0.000000
vt 0.571809 0.401818
vt 0.651596 0.401818
vt 0.651596 0.472727
vt 0.571809 0.472727
vt 0.878546 0.092727
vt 0.925532 0.092727
vt 0.925532 0.163636
vt 0.878546 0.163636
vt 0.571809 0.000000
vt 0.651596 0.000000
vt 0.651596 0.070909
vt 0.571809 0.070909
vt 0.768617 0.472727
vt 0.688830 0.472727
vt 0.688830 0.000000
vt 0.768617 0.000000
vt 0.156915 0.494545
vt 0.236702 0.494545
vt 0.236702 0.565455
vt 0.156915 0.565455
vt 0.768617 0.472727
vt 0.688830 0.472727
vt 0.688830 0.000000
vt 0.768617 0.000000
vt 0.029255 0.401818
vt 0.029255 0.472727
vt 0.156915 0.092727
vt 0.236702 0.092727
vt 0.236702 0.163636
vt 0.156915 0.163636
vt 0.029255 0.000000
vt 0.029255 0.070909
vt 0.000000 0.070909
vt 0.000000 0.401818
vt 0.000000 0.472727
vt 0.000000 0.000000
vn 0.3827 0.0000 -0.9239
vn 0.9239 0.0000 -0.3827
vn 0.9239 -0.0000 0.3827
vn 0.3827 0.0000 0.9239
vn -0.3827 0.0000 0.9239
vn -0.9239 0.0000 0.3827
vn 0.0000 1.0000 -0.0000
vn -0.3827 0.0000 -0.9239
vn -0.9239 0.0000 -0.3827
vn -1.0000 -0.0000 -0.0000
vn 0.0000 -0.0000 -1.0000
vn 1.0000 -0.0000 0.0000
vn 0.0000 0.0000 1.0000
vn 0.0000 -1.0000 0.0000
vn -0.0000 -0.9693 0.2460
vn 0.0000 0.9693 -0.2460
vn -0.0000 0.2460 0.9693
vn 0.0000 -0.2460 -0.9693
vn 0.0000 0.9702 -0.2422
vn -0.0000 -0.9702 0.2421
vn 0.0000 0.9693 -0.2461
vn -0.0000 -0.9568 0.2908
vn 0.0000 0.9568 -0.2908
vn 0.0000 0.9692 -0.2461
usemtl Wood2
s off
f 1/1/1 2/2/1 4/3/1 3/4/1
f 3/4/2 4/3/2 6/5/2 5/6/2
f 5/6/3 6/5/3 8/7/3 7/8/3
f 7/8/4 8/7/4 10/9/4 9/10/4
f 9/10/5 10/9/5 12/11/5 11/12/5
f 11/12/6 12/11/6 14/13/6 13/14/6
f 4/3/7 2/2/7 16/15/7 14/13/7 12/11/7 10/9/7 8/7/7 6/5/7
f 15/16/8 16/15/8 2/2/8 1/1/8
f 13/14/9 14/13/9 16/15/9 15/16/9
f 44/17/10 43/18/10 22/19/10 21/20/10
f 45/21/11 42/22/11 23/23/11 32/24/11
f 42/25/12 41/26/12 24/27/12 23/28/12
f 40/29/13 36/30/13 20/31/13 26/32/13
f 43/33/11 46/34/11 31/35/11 22/36/11
f 46/34/11 45/21/11 32/24/11 31/35/11
f 33/37/13 39/38/13 25/39/13 17/40/13
f 39/38/13 40/29/13 26/32/13 25/39/13
f 17/41/10 18/42/10 34/43/10 33/44/10
f 28/45/11 19/46/11 35/47/11 38/48/11
f 19/49/12 20/50/12 36/51/12 35/52/12
f 47/53/13 41/54/13 36/30/13 40/29/13
f 18/55/11 27/56/11 37/57/11 34/58/11
f 27/56/11 28/45/11 38/48/11 37/57/11
f 44/59/13 48/60/13 39/38/13 33/37/13
f 48/60/13 47/53/13 40/29/13 39/38/13
f 29/61/13 30/62/13 47/53/13 48/60/13
f 33/44/10 34/43/10 43/18/10 44/17/10
f 30/62/13 24/63/13 41/54/13 47/53/13
f 35/52/12 36/51/12 41/26/12 42/25/12
f 38/48/11 35/47/11 42/22/11 45/21/11
f 21/64/13 29/61/13 48/60/13 44/59/13
f 34/58/11 37/57/11 46/34/11 43/33/11
f 59/65/10 58/66/10 50/67/10 49/68/10
f 51/69/14 50/70/14 65/71/14 66/72/14
f 62/73/12 64/74/12 52/75/12 51/76/12
f 64/77/13 59/78/13 49/79/13 52/80/13
f 49/81/14 50/70/14 51/69/14 52/82/14
f 56/83/7 55/84/7 54/85/7 53/86/7
f 53/87/10 54/88/10 57/89/10 60/90/10
f 60/90/10 57/89/10 58/66/10 59/65/10
f 72/91/7 70/92/7 58/93/7 62/94/7
f 57/95/11 61/96/11 62/97/11 58/98/11
f 55/99/12 56/100/12 63/101/12 61/102/12
f 61/102/12 63/101/12 64/74/12 62/73/12
f 56/103/13 53/104/13 60/105/13 63/106/13
f 63/106/13 60/105/13 59/78/13 64/77/13
f 71/107/12 68/108/12 55/99/12 61/102/12
f 57/89/10 54/88/10 67/109/10 69/110/10
f 61/111/14 57/112/14 69/113/14 71/114/14
f 62/73/12 51/76/12 66/115/12 72/116/12
f 70/117/10 65/118/10 50/67/10 58/66/10
f 54/85/7 55/84/7 68/119/7 67/120/7
f 78/121/13 75/122/13 73/123/13 74/124/13
f 78/121/7 77/125/7 76/126/7 75/122/7
f 97/127/13 102/128/13 81/129/13 94/130/13
f 96/131/11 92/132/11 85/133/11 106/134/11
f 104/135/14 100/136/14 80/137/14 84/138/14
f 87/139/10 89/140/10 84/141/10 80/142/10
f 90/143/12 88/144/12 79/145/12 83/146/12
f 102/147/7 106/148/7 85/149/7 81/150/7
f 100/151/13 110/152/13 87/153/13 80/154/13
f 104/155/11 84/156/11 89/157/11 107/158/11
f 94/159/10 92/160/10 89/140/10 87/139/10
f 91/161/12 93/162/12 88/144/12 90/143/12
f 110/152/13 97/127/13 94/130/13 87/153/13
f 82/163/7 86/164/7 105/165/7 101/166/7
f 86/167/12 82/168/12 93/162/12 91/161/12
f 107/158/11 89/157/11 92/132/11 96/131/11
f 101/166/7 105/165/7 106/148/7 102/147/7
f 103/169/14 99/170/14 100/136/14 104/135/14
f 93/171/13 82/172/13 101/173/13 98/174/13
f 81/175/10 85/176/10 92/160/10 94/159/10
f 98/174/13 101/173/13 102/128/13 97/127/13
f 95/177/11 96/131/11 106/134/11 105/178/11
f 83/179/14 79/180/14 99/170/14 103/169/14
f 91/181/11 95/177/11 105/178/11 86/182/11
f 79/183/13 88/184/13 109/185/13 99/186/13
f 99/186/13 109/185/13 110/152/13 100/151/13
f 83/187/11 103/188/11 108/189/11 90/190/11
f 103/188/11 104/155/11 107/158/11 108/189/11
f 88/184/13 93/171/13 98/174/13 109/185/13
f 110/191/7 109/192/7 108/193/7 107/194/7
f 90/190/11 108/189/11 95/177/11 91/181/11
f 107/195/12 96/196/12 97/197/12 110/198/12
f 95/199/10 108/200/10 109/201/10 98/202/10
f 96/203/14 95/204/14 98/205/14 97/206/14
f 124/207/15 130/208/15 113/209/15 114/210/15
f 136/211/16 118/212/16 117/213/16 142/214/16
f 142/215/17 117/216/17 113/217/17 130/218/17
f 117/219/10 118/220/10 114/221/10 113/222/10
f 115/223/12 116/224/12 112/225/12 111/226/12
f 124/227/18 114/228/18 118/229/18 136/230/18
f 111/231/15 112/232/15 125/233/15 119/234/15
f 119/235/15 125/236/15 126/237/15 120/238/15
f 120/239/15 126/240/15 127/241/15 121/242/15
f 121/243/15 127/244/15 128/245/15 122/246/15
f 122/247/15 128/248/15 129/249/15 123/250/15
f 123/251/15 129/252/15 130/253/15 124/254/15
f 115/255/16 131/256/16 137/257/16 116/258/16
f 131/259/16 132/260/16 138/261/16 137/262/16
f 132/263/16 133/264/16 139/265/16 138/266/16
f 133/267/16 134/268/16 140/269/16 139/270/16
f 134/271/16 135/272/16 141/273/16 140/274/16
f 135/275/16 136/276/16 142/277/16 141/278/16
f 116/279/17 137/280/17 125/281/17 112/282/17
f 153/283/12 151/284/12 125/285/12 137/286/12
f 138/287/17 139/288/17 127/289/17 126/290/17
f 140/291/10 128/292/10 148/293/10 150/294/10
f 140/295/17 141/296/17 129/297/17 128/298/17
f 145/299/12 143/300/12 129/301/12 141/302/12
f 155/303/12 156/304/12 115/305/12 111/306/12
f 119/307/18 120/308/18 132/309/18 131/310/18
f 160/311/15 159/312/15 120/239/15 121/242/15
f 168/313/15 167/314/15 121/243/15 122/246/15
f 123/315/10 135/316/10 166/317/10 164/318/10
f 171/319/12 173/320/12 135/321/12 123/322/12
f 145/323/17 146/324/17 144/325/17 143/326/17
f 130/253/15 129/252/15 143/327/15 144/328/15
f 142/329/10 130/330/10 144/331/10 146/332/10
f 146/333/16 145/334/16 141/278/16 142/277/16
f 149/335/17 150/336/17 148/337/17 147/338/17
f 150/339/19 149/340/19 139/270/19 140/269/19
f 149/341/12 147/342/12 127/343/12 139/344/12
f 128/245/20 127/244/20 147/345/20 148/346/20
f 153/347/17 154/348/17 152/349/17 151/350/17
f 126/237/15 125/236/15 151/351/15 152/352/15
f 138/353/10 126/354/10 152/355/10 154/356/10
f 154/357/16 153/358/16 137/262/16 138/261/16
f 155/359/18 157/360/18 158/361/18 156/362/18
f 157/363/15 155/364/15 111/231/15 119/234/15
f 131/256/16 115/255/16 156/365/16 158/366/16
f 119/367/10 131/368/10 158/369/10 157/370/10
f 159/371/18 160/372/18 162/373/18 161/374/18
f 159/375/12 161/376/12 132/377/12 120/378/12
f 133/264/21 132/263/21 161/379/21 162/380/21
f 121/381/10 133/382/10 162/383/10 160/384/10
f 163/385/18 164/386/18 166/387/18 165/388/18
f 164/389/22 163/390/22 122/247/22 123/250/22
f 163/391/12 165/392/12 134/393/12 122/394/12
f 135/272/23 134/271/23 165/395/23 166/396/23
f 167/397/18 168/398/18 170/399/18 169/400/18
f 167/401/12 169/402/12 133/403/12 121/404/12
f 134/268/24 133/267/24 169/405/24 170/406/24
f 122/407/10 134/408/10 170/409/10 168/410/10
f 171/411/18 172/412/18 174/413/18 173/414/18
f 136/415/21 135/416/21 173/417/21 174/418/21
f 124/419/10 136/420/10 174/421/10 172/422/10
f 172/423/15 171/424/15 123/251/15 124/254/15
f 202/425/12 179/426/12 180/427/12 201/428/12
f 203/429/13 190/430/13 181/431/13 200/432/13
f 200/433/10 181/434/10 182/435/10 199/436/10
f 198/437/11 184/438/11 178/439/11 194/440/11
f 201/441/13 180/442/13 189/443/13 204/444/13
f 204/444/13 189/443/13 190/430/13 203/429/13
f 191/445/11 175/446/11 183/447/11 197/448/11
f 197/448/11 183/447/11 184/438/11 198/437/11
f 175/449/12 191/450/12 192/451/12 176/452/12
f 186/453/13 196/454/13 193/455/13 177/456/13
f 177/457/10 193/458/10 194/459/10 178/460/10
f 205/461/11 198/437/11 194/440/11 199/462/11
f 176/463/13 192/464/13 195/465/13 185/466/13
f 185/466/13 195/465/13 196/454/13 186/453/13
f 202/467/11 191/445/11 197/448/11 206/468/11
f 206/468/11 197/448/11 198/437/11 205/461/11
f 187/469/11 206/468/11 205/461/11 188/470/11
f 191/450/12 202/425/12 201/428/12 192/451/12
f 188/470/11 205/461/11 199/462/11 182/471/11
f 193/458/10 200/433/10 199/436/10 194/459/10
f 196/454/13 203/429/13 200/432/13 193/455/13
f 179/472/11 202/467/11 206/468/11 187/469/11
f 192/464/13 201/441/13 204/444/13 195/465/13
