# Blender v2.79 (sub 0) OBJ File: 'medieval_tavern_props_pack.blend'
# www.blender.org
mtllib plate_1_001.mtl
o plate_wood
v 0.000000 0.120000 -0.600000
v -0.424264 0.120000 -0.424264
v -0.600000 0.120000 0.000000
v -0.424264 0.120000 0.424264
v 0.000000 0.120000 0.600000
v 0.424264 0.120000 0.424264
v 0.600000 0.120000 -0.000000
v 0.424264 0.120000 -0.424264
v 0.000000 0.060000 0.000000
v 0.000000 0.000035 -0.307418
v 0.000000 0.060971 -0.611806
v -0.432610 0.060971 -0.432610
v -0.611806 0.060971 0.000000
v -0.432610 0.060971 0.432610
v 0.000000 0.060971 0.611806
v 0.432611 0.060971 0.432610
v 0.611806 0.060971 -0.000000
v 0.432611 0.060971 -0.432610
v -0.217378 0.000035 -0.217378
v -0.307418 0.000035 0.000000
v -0.217378 0.000035 0.217378
v 0.000000 0.000035 0.307418
v 0.217378 0.000035 0.217378
v 0.307418 0.000035 -0.000000
v 0.217378 0.000035 -0.217378
v 0.000000 -0.000000 -0.000000
vt 0.078821 0.324158
vt 0.499730 0.498490
vt 0.078821 0.672823
vt 0.327250 0.919399
vt 0.675915 0.919399
vt 0.672210 0.077581
vt 0.323546 0.077581
vt 0.920639 0.324158
vt 0.920639 0.672823
vt 0.078821 0.324158
vt 0.078821 0.672823
vt 0.274550 0.591757
vt 0.274023 0.405008
vt 0.327250 0.919399
vt 0.675915 0.919399
vt 0.594116 0.723981
vt 0.407351 0.723933
vt 0.672210 0.077581
vt 0.323546 0.077581
vt 0.405464 0.273286
vt 0.592141 0.272975
vt 0.920639 0.324158
vt 0.725294 0.405067
vt 0.920639 0.672823
vt 0.725469 0.591988
vt 0.499730 0.498490
vt 0.300512 0.988108
vt 0.010113 0.701306
vt 0.010113 0.295675
vt 0.293317 0.008873
vt 0.698949 0.008873
vt 0.989348 0.295675
vt 0.989348 0.701306
vt 0.706144 0.988108
vn -0.6833 0.7301 0.0000
vn 0.0000 1.0000 0.0000
vn -0.4832 0.7301 -0.4832
vn 0.0000 0.7301 -0.6833
vn 0.4832 0.7301 -0.4832
vn 0.0000 0.7301 0.6833
vn -0.4832 0.7301 0.4832
vn 0.4832 0.7301 0.4832
vn 0.6833 0.7301 0.0000
vn -0.8733 -0.4872 0.0000
vn -0.6175 -0.4872 -0.6175
vn -0.0869 -0.9924 -0.0869
vn -0.1229 -0.9924 0.0000
vn 0.0000 -0.4872 -0.8733
vn 0.6175 -0.4872 -0.6175
vn 0.0869 -0.9924 -0.0869
vn 0.0000 -0.9924 -0.1229
vn 0.0000 -0.4872 0.8733
vn -0.6175 -0.4872 0.6175
vn -0.0869 -0.9924 0.0869
vn 0.0000 -0.9924 0.1229
vn 0.6175 -0.4872 0.6175
vn 0.0869 -0.9924 0.0869
vn 0.8733 -0.4872 0.0000
vn 0.1229 -0.9924 0.0000
vn 0.0000 -1.0000 0.0000
usemtl mat_plate_wood
s 1
f 3/1/1 9/2/2 2/3/3
f 1/4/4 9/2/2 8/5/5
f 5/6/6 9/2/2 4/7/7
f 6/8/8 9/2/2 5/6/6
f 2/3/3 9/2/2 1/4/4
f 7/9/9 9/2/2 6/8/8
f 8/5/5 9/2/2 7/9/9
f 4/7/7 9/2/2 3/1/1
f 13/10/10 12/11/11 19/12/12 20/13/13
f 11/14/14 18/15/15 25/16/16 10/17/17
f 15/18/18 14/19/19 21/20/20 22/21/21
f 16/22/22 15/18/18 22/21/21 23/23/23
f 12/11/11 11/14/14 10/17/17 19/12/12
f 17/24/24 16/22/22 23/23/23 24/25/25
f 18/15/15 17/24/24 24/25/25 25/16/16
f 14/19/19 13/10/10 20/13/13 21/20/20
f 10/17/17 26/26/26 19/12/12
f 19/12/12 26/26/26 20/13/13
f 25/16/16 26/26/26 10/17/17
f 20/13/13 26/26/26 21/20/20
f 21/20/20 26/26/26 22/21/21
f 22/21/21 26/26/26 23/23/23
f 23/23/23 26/26/26 24/25/25
f 24/25/25 26/26/26 25/16/16
f 2/3/3 1/4/4 11/27/14 12/28/11
f 3/1/1 2/3/3 12/28/11 13/29/10
f 4/7/7 3/1/1 13/29/10 14/30/19
f 5/6/6 4/7/7 14/30/19 15/31/18
f 6/8/8 5/6/6 15/31/18 16/32/22
f 7/9/9 6/8/8 16/32/22 17/33/24
f 8/5/5 7/9/9 17/33/24 18/34/15
f 1/4/4 8/5/5 18/34/15 11/27/14
