# Blender v2.79 (sub 0) OBJ File: 'rocks.blend'
# www.blender.org
mtllib rocks_small_06.mtl
o rocks_small_06_rocks_small_test.042
v -0.110861 -0.013587 -0.212770
v -0.118906 -0.013587 -0.115542
v -0.125317 0.059550 -0.103195
v -0.111707 0.056867 -0.203923
v -0.089226 0.100723 -0.025800
v -0.036121 -0.013587 -0.003644
v -0.032075 0.144346 -0.055154
v -0.042614 0.122926 -0.166845
v -0.053695 0.091779 -0.292782
v -0.110470 0.040523 -0.323494
v 0.008896 -0.013587 -0.049682
v -0.109858 -0.013587 -0.332142
v -0.098722 0.022334 -0.412045
v -0.101911 -0.013587 -0.400867
v 0.027148 0.166115 -0.170114
v 0.021831 0.135066 -0.281207
v 0.035621 0.181389 -0.094682
v -0.049480 0.046190 -0.437536
v -0.062583 -0.013587 -0.420385
v -0.048795 0.072961 -0.375562
v 0.048649 -0.013587 -0.081924
v 0.100305 -0.013587 -0.101677
v -0.017786 -0.013587 -0.437175
v 0.034190 0.102178 -0.388247
v 0.039788 0.061781 -0.463842
v 0.047572 -0.013587 -0.452915
v 0.127659 0.178766 -0.210236
v 0.123674 0.150799 -0.300002
v 0.133505 0.199293 -0.140793
v 0.169967 -0.013587 -0.125162
v 0.102058 0.099932 -0.406184
v 0.148024 0.047999 -0.472829
v 0.116611 -0.013587 -0.458752
v 0.215643 0.189932 -0.170344
v 0.200817 0.167739 -0.232350
v 0.240526 -0.013587 -0.142111
v 0.158021 0.082995 -0.418897
v 0.183525 0.141855 -0.304673
v 0.227798 -0.013587 -0.231301
v 0.218339 -0.013587 -0.315023
v 0.184895 0.013826 -0.458649
v 0.177379 -0.013587 -0.454991
v 0.211276 -0.013587 -0.393465
v 0.213856 -0.013587 -0.456382
v -0.106978 -0.013587 0.042742
v -0.087497 -0.013587 0.036028
v -0.120688 0.004661 0.016782
v -0.119134 -0.013587 -0.006548
v -0.122965 -0.013587 0.011543
v -0.124579 0.062454 -0.028260
v -0.120667 -0.013587 -0.048972
v -0.257038 0.076468 -0.336732
v -0.263340 0.082079 -0.280555
v -0.220626 -0.012797 -0.311297
v -0.183071 -0.012797 -0.379579
v -0.270863 -0.012797 -0.182672
v -0.335872 0.082269 -0.256184
v -0.327741 -0.012797 -0.216476
v -0.311264 0.089280 -0.327819
v -0.299887 0.088907 -0.259628
v -0.259440 -0.012797 -0.370669
v -0.312108 -0.012797 -0.365191
v -0.359572 0.074802 -0.311907
v -0.411121 -0.012797 -0.279484
v -0.393132 -0.012797 -0.344224
v -0.451055 -0.020231 0.114520
v -0.426464 0.063716 0.094136
v -0.469128 0.023881 0.041220
v -0.481464 -0.020231 0.056747
v -0.472381 -0.020231 0.003371
v -0.395645 0.052563 0.051010
v -0.418215 -0.020231 -0.017399
v -0.332354 0.055589 0.050286
v -0.335803 -0.020231 -0.003572
v -0.403466 -0.020231 0.182529
v -0.368509 0.088150 0.144032
v -0.315736 -0.020231 0.284418
v -0.299270 -0.020231 0.228682
v -0.327458 0.044705 0.232357
v -0.350226 -0.020231 0.239602
v -0.268452 -0.020231 0.168606
v -0.338819 0.092989 0.170353
v -0.230306 -0.020231 0.045526
v -0.254889 -0.020231 -0.005810
v -0.253498 0.034466 0.032174
v -0.271232 0.056749 0.088026
v -0.236851 -0.020231 0.091016
v 0.447675 0.157177 0.280400
v 0.335696 0.186570 0.381723
v 0.396233 -0.029585 0.395812
v 0.481780 -0.029585 0.337055
v 0.507490 0.039927 0.251128
v 0.499309 0.120325 0.218281
v 0.498429 -0.029585 0.233086
v 0.467025 -0.029585 0.141546
v 0.472564 0.120665 0.155877
v 0.337899 0.184733 0.221793
v 0.213311 0.202189 0.317285
v 0.409199 -0.029585 0.049779
v 0.422581 0.115664 0.077405
v 0.329476 0.157095 0.093093
v 0.205431 0.193476 0.146170
v 0.353089 0.099924 0.006586
v 0.333074 -0.029585 -0.024931
v 0.248428 -0.029585 -0.077597
v 0.273550 0.077788 -0.049865
v 0.205650 0.136224 0.022222
v 0.188400 0.080144 -0.054111
v 0.192498 -0.029585 -0.094889
v 0.066212 0.108951 0.015105
v 0.051051 -0.029585 0.005859
v -0.045406 -0.029585 0.106423
v 0.147462 -0.029585 -0.072065
v -0.184826 0.028059 0.297396
v -0.208536 -0.029585 0.277139
v -0.167017 -0.029585 0.379304
v -0.114018 0.066718 0.420379
v -0.096667 -0.029585 0.451295
v -0.123789 0.082033 0.276011
v 0.016317 -0.029585 0.527807
v 0.030152 0.053694 0.525739
v -0.110232 -0.029585 0.186842
v 0.013545 0.111443 0.433387
v 0.131558 -0.029585 0.571930
v 0.029795 0.141937 0.296286
v 0.132304 0.086918 0.469766
v 0.209173 0.148555 0.470562
v 0.269258 -0.029585 0.475729
v 0.007849 0.108887 0.138213
v -0.058873 0.104268 0.217444
v 0.096354 0.175418 0.227222
v 0.123662 0.166198 0.384134
vt 0.978129 0.817357
vt 0.980822 0.871954
vt 0.947255 0.887313
vt 0.947806 0.841292
vt 0.921309 0.925145
vt 0.904532 0.986617
vt 0.901501 0.917883
vt 0.912814 0.873411
vt 0.916324 0.822002
vt 0.940456 0.789561
vt 0.875984 0.990483
vt 0.959142 0.762963
vt 0.925726 0.759236
vt 0.938345 0.743608
vt 0.886626 0.883477
vt 0.888011 0.844077
vt 0.882007 0.910205
vt 0.904006 0.765912
vt 0.921578 0.735630
vt 0.908879 0.791538
vt 0.856021 0.990310
vt 0.834640 0.989198
vt 0.899673 0.735425
vt 0.879263 0.808509
vt 0.871673 0.778682
vt 0.868322 0.746340
vt 0.858835 0.884277
vt 0.855435 0.856740
vt 0.858570 0.906117
vt 0.809589 0.979477
vt 0.855861 0.815959
vt 0.835695 0.796672
vt 0.837268 0.764020
vt 0.841833 0.905017
vt 0.837786 0.889728
vt 0.788152 0.957847
vt 0.835315 0.821312
vt 0.836036 0.865609
vt 0.780891 0.919251
vt 0.781778 0.877556
vt 0.815838 0.801905
vt 0.812013 0.789482
vt 0.791240 0.835472
vt 0.798810 0.803870
vt 0.946946 0.970661
vt 0.936967 0.975311
vt 0.947815 0.950808
vt 0.962059 0.939441
vt 0.957209 0.950610
vt 0.939073 0.922030
vt 0.973214 0.913401
vt 0.614848 0.551138
vt 0.584930 0.568389
vt 0.567291 0.494490
vt 0.636741 0.461341
vt 0.498224 0.602706
vt 0.589096 0.613922
vt 0.533378 0.648141
vt 0.621207 0.584653
vt 0.584396 0.593090
vt 0.678099 0.523998
vt 0.694211 0.570997
vt 0.622349 0.614854
vt 0.625155 0.691193
vt 0.682895 0.650726
vt 0.098998 0.270149
vt 0.121127 0.342711
vt 0.063697 0.340451
vt 0.042740 0.303575
vt 0.013568 0.349119
vt 0.105241 0.382414
vt 0.020037 0.407821
vt 0.134513 0.421729
vt 0.071695 0.468966
vt 0.182805 0.255819
vt 0.175352 0.356676
vt 0.324917 0.296970
vt 0.314521 0.364619
vt 0.254071 0.334805
vt 0.264240 0.270512
vt 0.291191 0.433064
vt 0.204324 0.362555
vt 0.187707 0.525044
vt 0.125697 0.525165
vt 0.161608 0.478198
vt 0.189842 0.439549
vt 0.232227 0.503062
vt 0.799982 0.425165
vt 0.839792 0.408648
vt 0.849694 0.484125
vt 0.802899 0.495050
vt 0.774014 0.459975
vt 0.774010 0.432582
vt 0.754654 0.479790
vt 0.716620 0.454986
vt 0.759785 0.417309
vt 0.797358 0.386454
vt 0.839556 0.366493
vt 0.684693 0.414568
vt 0.740981 0.395235
vt 0.760471 0.368207
vt 0.793653 0.339277
vt 0.724272 0.366641
vt 0.671698 0.362265
vt 0.669536 0.316776
vt 0.714763 0.333111
vt 0.753336 0.321745
vt 0.724437 0.303504
vt 0.673742 0.287406
vt 0.766715 0.274774
vt 0.739485 0.226567
vt 0.803408 0.203467
vt 0.688518 0.264590
vt 0.912353 0.224567
vt 0.918347 0.195363
vt 0.957846 0.232318
vt 0.935684 0.277508
vt 0.979548 0.278102
vt 0.888005 0.248344
vt 0.983786 0.341659
vt 0.949299 0.342654
vt 0.852394 0.195137
vt 0.913971 0.321740
vt 0.969621 0.398987
vt 0.866342 0.305798
vt 0.912487 0.369323
vt 0.885002 0.392526
vt 0.911042 0.457106
vt 0.814574 0.268309
vt 0.854895 0.259560
vt 0.832050 0.317645
vt 0.873436 0.352501
vn -0.9982 -0.0181 -0.0568
vn -0.9963 -0.0702 -0.0487
vn -0.9969 -0.0687 -0.0376
vn -0.9968 -0.0019 -0.0801
vn 0.3205 0.3216 0.8910
vn 0.5837 0.3080 0.7513
vn 0.4262 0.1966 0.8830
vn -0.6654 0.7418 -0.0841
vn -0.5956 0.7968 -0.1020
vn -0.5883 0.7995 -0.1210
vn -0.6559 0.7470 -0.1087
vn -0.5461 0.8168 -0.1859
vn -0.6112 0.7689 -0.1879
vn 0.6387 0.1511 0.7545
vn -0.9972 0.0067 -0.0749
vn -0.9983 -0.0022 -0.0579
vn -0.9918 0.0345 -0.1228
vn -0.9920 0.0524 -0.1147
vn -0.3799 0.9064 -0.1846
vn -0.3292 0.9066 -0.2641
vn -0.4184 0.8982 -0.1349
vn -0.4061 -0.2016 -0.8913
vn -0.3183 -0.1644 -0.9336
vn -0.3807 -0.1954 -0.9038
vn -0.4324 -0.2327 -0.8711
vn -0.4799 0.8278 -0.2905
vn -0.4224 0.8226 -0.3807
vn -0.5747 0.7688 -0.2805
vn 0.4956 0.0896 0.8639
vn 0.4340 0.1138 0.8937
vn 0.3479 0.1046 0.9317
vn -0.2810 -0.1646 -0.9455
vn -0.2258 0.8899 -0.3963
vn -0.1317 0.8472 -0.5146
vn -0.1717 -0.1572 -0.9725
vn -0.1539 -0.1573 -0.9755
vn -0.0887 0.9521 -0.2925
vn -0.0282 0.9362 -0.3503
vn 0.3700 0.1170 0.9216
vn 0.2856 0.1399 0.9481
vn 0.0269 0.8680 -0.4959
vn 0.0004 -0.2034 -0.9791
vn -0.0407 -0.1954 -0.9799
vn 0.0231 0.9483 -0.3165
vn 0.0372 0.9380 -0.3446
vn -0.1359 0.9586 -0.2503
vn 0.2305 0.1613 0.9596
vn 0.3256 0.1347 0.9359
vn 0.1362 0.8419 -0.5221
vn 0.0821 0.8128 -0.5767
vn 0.0982 0.9174 -0.3858
vn 0.9746 0.1543 -0.1625
vn 0.9506 0.1398 -0.2773
vn 0.9633 0.1281 -0.2357
vn 0.9849 0.1009 -0.1406
vn 0.9455 0.1862 -0.2673
vn 0.9440 0.2878 -0.1614
vn 0.1195 -0.1634 -0.9793
vn 0.0514 -0.1833 -0.9817
vn 0.8818 0.4455 -0.1546
vn 0.8890 0.3313 -0.3159
vn 0.6709 0.7404 0.0398
vn 0.6807 0.7319 0.0323
vn 0.6754 0.7365 0.0364
vn -0.0378 -0.1220 -0.9918
vn 0.6860 0.7271 0.0281
vn 0.1735 0.8465 0.5034
vn -0.9626 0.1786 -0.2038
vn -0.8898 -0.0199 0.4559
vn -0.2862 0.5334 0.7960
vn -0.4946 0.4077 0.7675
vn -0.4465 0.4406 0.7788
vn -0.1236 0.6048 0.7867
vn -0.9984 -0.0554 -0.0074
vn -0.9909 -0.1301 0.0358
vn -0.9970 -0.0743 0.0203
vn -0.9980 -0.0630 0.0035
vn 0.5600 0.4007 0.7252
vn -0.7338 0.6791 -0.0191
vn -0.6719 0.7365 -0.0785
vn 0.8453 0.3628 -0.3921
vn 0.8904 0.4159 0.1848
vn 0.9152 0.3439 0.2103
vn 0.8567 0.3843 0.3440
vn 0.7854 0.4434 0.4319
vn -0.4873 0.3008 0.8198
vn -0.5494 0.2816 0.7867
vn -0.5261 0.2891 0.7998
vn 0.1979 0.9790 -0.0480
vn -0.0117 0.9999 0.0074
vn -0.0424 0.9987 -0.0274
vn 0.1367 0.9871 -0.0832
vn -0.1026 0.3559 -0.9289
vn -0.0873 0.3494 -0.9329
vn -0.1083 0.3558 -0.9283
vn -0.1603 0.3451 -0.9248
vn -0.2039 0.3742 -0.9047
vn -0.8369 0.5351 0.1151
vn -0.8724 0.4808 -0.0880
vn -0.7871 0.5594 0.2598
vn -0.2819 0.3685 -0.8858
vn -0.3979 0.4479 -0.8007
vn -0.8727 0.4238 -0.2425
vn -0.5803 0.2711 0.7679
vn -0.2457 0.9692 0.0191
vn -0.1861 0.9811 -0.0524
vn 0.2256 0.6280 0.7448
vn 0.2499 0.6286 0.7365
vn 0.4757 0.6130 0.6308
vn 0.8918 0.2886 0.3483
vn -0.0334 0.5970 0.8016
vn -0.7997 0.3580 0.4819
vn -0.7657 0.3840 0.5159
vn -0.8313 0.3613 0.4224
vn -0.8184 0.3804 0.4307
vn -0.9635 0.2117 -0.1639
vn -0.2154 0.6812 -0.6997
vn -0.0426 0.6525 -0.7566
vn -0.0704 0.6779 -0.7318
vn -0.2758 0.6375 -0.7193
vn -0.2800 0.8618 -0.4230
vn -0.1853 0.9112 -0.3680
vn -0.1498 0.9169 -0.3700
vn -0.0346 0.5798 -0.8140
vn 0.0216 0.6068 -0.7946
vn -0.7155 0.3959 0.5755
vn -0.6585 0.4314 0.6166
vn 0.8904 0.3716 0.2630
vn 0.8556 0.4211 0.3011
vn 0.9077 0.3845 0.1682
vn -0.7198 0.3210 0.6155
vn -0.7489 0.3269 0.5764
vn -0.7282 0.3968 0.5589
vn 0.7988 0.4547 0.3940
vn 0.8154 0.4589 0.3528
vn 0.8692 0.2669 -0.4162
vn 0.9032 0.4101 0.1269
vn 0.9027 0.4126 0.1220
vn 0.8477 0.4355 0.3028
vn 0.8842 0.4040 0.2347
vn -0.6821 0.4514 0.5753
vn 0.1599 0.9410 -0.2983
vn 0.0859 0.9468 -0.3101
vn 0.0535 0.9477 -0.3147
vn 0.1238 0.9417 -0.3128
vn 0.1772 0.9322 -0.3156
vn -0.0276 0.5756 -0.8173
vn -0.0227 0.5706 -0.8209
vn 0.7262 0.2798 0.6279
vn 0.5984 0.2178 0.7710
vn 0.5652 0.2551 0.7845
vn 0.6345 0.3282 0.6998
vn 0.8193 0.2952 0.4916
vn 0.8135 0.2890 0.5047
vn 0.9735 -0.1674 0.1559
vn 0.9318 -0.0153 -0.3627
vn 0.9439 -0.0379 -0.3279
vn 0.9449 -0.0377 -0.3251
vn 0.8940 -0.0004 -0.4480
vn 0.3606 0.9139 -0.1863
vn 0.3519 0.9149 -0.1979
vn 0.2922 0.9321 -0.2140
vn 0.3552 0.9033 -0.2406
vn 0.1596 0.9868 -0.0257
vn -0.0791 0.9905 0.1121
vn 0.0967 0.9882 0.1189
vn 0.2473 0.9689 -0.0077
vn 0.8870 0.0113 -0.4616
vn 0.7692 0.0482 -0.6372
vn 0.7929 0.0409 -0.6079
vn 0.3305 0.8759 -0.3516
vn 0.2250 0.9036 -0.3646
vn 0.0569 0.9333 -0.3546
vn 0.1892 0.8422 -0.5049
vn 0.6080 0.0883 -0.7890
vn 0.6526 0.0849 -0.7529
vn 0.3887 0.1441 -0.9100
vn 0.5046 0.1187 -0.8552
vn 0.1136 0.8251 -0.5535
vn -0.0095 0.8651 -0.5016
vn -0.0338 0.8091 -0.5867
vn 0.0563 0.3496 -0.9352
vn 0.2908 0.1749 -0.9407
vn -0.1428 0.8587 -0.4921
vn -0.5984 0.1798 -0.7808
vn -0.6724 0.1223 -0.7300
vn -0.7161 0.1242 -0.6869
vn -0.4201 0.2970 -0.8575
vn -0.4850 0.2504 -0.8379
vn -0.8857 0.2666 0.3802
vn -0.8990 0.2414 0.3654
vn -0.8375 0.2291 0.4961
vn -0.7122 0.1788 0.6788
vn -0.6283 0.1248 0.7679
vn -0.4053 0.8866 0.2228
vn -0.4654 0.8802 0.0930
vn -0.6326 0.7645 0.1239
vn -0.4684 0.0996 0.8779
vn -0.4816 0.1107 0.8694
vn -0.6737 0.4221 -0.6066
vn -0.5960 0.4731 -0.6488
vn -0.6080 0.4575 -0.6488
vn -0.6527 0.4229 -0.6286
vn -0.1503 0.9223 0.3560
vn -0.1337 0.8293 0.5426
vn -0.3564 0.0823 0.9307
vn -0.3355 0.9405 0.0542
vn 0.0651 0.9129 0.4029
vn 0.1943 0.6460 0.7381
vn 0.5353 0.2044 0.8196
vn 0.5597 0.2120 0.8011
vn 0.5379 0.2052 0.8176
vn -0.5101 0.5840 0.6315
vn -0.4738 0.5823 0.6606
vn -0.4881 0.6005 0.6333
vn -0.4162 0.8917 -0.1781
vn -0.3122 0.9447 -0.1003
vn -0.3643 0.9289 -0.0670
vn -0.6504 0.5236 0.5504
vn -0.6070 0.5517 0.5720
vn -0.2376 0.9486 0.2093
vn -0.1641 0.9781 -0.1281
vn -0.3877 0.8939 -0.2250
vn -0.0913 0.9407 0.3267
vn -0.8254 0.4072 -0.3911
vn -0.7513 0.4080 -0.5187
vn -0.7742 0.4085 -0.4835
vn -0.7004 0.4035 -0.5888
vn -0.4312 0.3001 -0.8509
usemtl mat_rocks_small
s 1
f 1/1/1 2/2/2 3/3/3 4/4/4
f 5/5/5 6/6/6 7/7/7
f 3/3/8 7/7/9 8/8/10 4/4/11
f 8/8/10 9/9/12 10/10/13 4/4/11
f 11/11/14 7/7/7 6/6/6
f 12/12/15 10/10/16 13/13/17 14/14/18
f 15/15/19 16/16/20 9/9/12 8/8/10
f 7/7/9 17/17/21 15/15/19 8/8/10
f 13/13/22 18/18/23 19/19/24 14/14/25
f 20/20/26 18/18/27 13/13/28 10/10/13
f 9/9/12 20/20/26 10/10/13
f 21/21/29 17/17/30 11/11/14
f 21/21/29 22/22/31 17/17/30
f 18/18/23 23/23/32 19/19/24
f 24/24/33 25/25/34 18/18/27 20/20/26
f 20/20/26 9/9/12 16/16/20 24/24/33
f 25/25/35 26/26/36 23/23/32 18/18/23
f 27/27/37 28/28/38 16/16/20 15/15/19
f 29/29/39 22/22/31 30/30/40
f 28/28/38 31/31/41 24/24/33 16/16/20
f 25/25/35 32/32/42 33/33/43 26/26/36
f 24/24/33 31/31/41 25/25/34
f 34/34/44 35/35/45 27/27/37 29/29/46
f 30/30/40 36/36/47 34/34/48 29/29/39
f 31/31/41 37/37/49 32/32/50 25/25/34
f 38/38/51 37/37/49 31/31/41 28/28/38
f 39/39/52 35/35/53 34/34/54 36/36/55
f 38/38/56 35/35/53 39/39/52 40/40/57
f 32/32/42 41/41/58 42/42/59 33/33/43
f 40/40/57 43/43/60 37/37/61 38/38/56
f 32/32/62 43/43/63 41/41/64
f 41/41/58 44/44/65 42/42/59
f 44/44/66 41/41/64 43/43/63
f 45/45/67 46/46/67 47/47/67
f 48/48/68 49/49/68 47/47/68
f 49/49/69 45/45/69 47/47/69
f 46/46/70 5/5/71 50/50/72 47/47/73
f 51/51/74 48/48/75 47/47/76 50/50/77
f 50/50/77 3/3/3 2/2/2 51/51/74
f 6/6/6 5/5/5 46/46/78
f 3/3/8 50/50/79 5/5/80
f 38/38/51 28/28/38 27/27/37 35/35/45
f 29/29/46 27/27/37 15/15/19 17/17/21
f 10/10/16 12/12/15 1/1/1 4/4/4
f 3/3/8 5/5/80 7/7/9
f 17/17/30 7/7/7 11/11/14
f 22/22/31 29/29/39 17/17/30
f 32/32/81 37/37/61 43/43/60
f 52/52/82 53/53/83 54/54/84 55/55/85
f 56/56/86 57/57/87 58/58/88
f 52/52/89 59/59/90 60/60/91 53/53/92
f 61/61/93 52/52/94 55/55/95
f 62/62/96 59/59/97 52/52/94 61/61/93
f 63/63/98 64/64/99 57/57/100
f 65/65/101 63/63/102 59/59/97 62/62/96
f 63/63/98 65/65/103 64/64/99
f 64/64/104 58/58/88 57/57/87
f 63/63/105 57/57/106 60/60/91 59/59/90
f 60/60/107 56/56/108 53/53/109
f 53/53/83 56/56/110 54/54/84
f 56/56/108 60/60/107 57/57/111
f 66/66/112 67/67/113 68/68/114 69/69/115
f 68/68/116 70/70/116 69/69/116
f 68/68/117 71/71/118 72/72/119 70/70/120
f 68/68/121 67/67/122 71/71/123
f 71/71/118 73/73/124 74/74/125 72/72/119
f 75/75/126 76/76/127 67/67/113 66/66/112
f 77/77/128 78/78/129 79/79/130
f 80/80/131 77/77/132 79/79/133
f 78/78/129 81/81/134 82/82/135 79/79/130
f 83/83/136 84/84/136 85/85/136
f 83/83/137 85/85/138 86/86/139 87/87/140
f 79/79/133 82/82/141 75/75/126 80/80/131
f 86/86/139 82/82/135 81/81/134 87/87/140
f 86/86/142 73/73/143 76/76/144 82/82/145
f 86/86/142 85/85/146 73/73/143
f 74/74/125 73/73/124 85/85/147 84/84/148
f 71/71/123 67/67/122 76/76/144 73/73/143
f 76/76/127 75/75/126 82/82/141
f 88/88/149 89/89/150 90/90/151 91/91/152
f 92/92/153 93/93/154 88/88/149 91/91/152
f 91/91/155 94/94/155 92/92/155
f 93/93/156 92/92/157 94/94/158 95/95/159
f 93/93/160 96/96/161 97/97/162 88/88/163
f 97/97/164 98/98/165 89/89/166 88/88/167
f 96/96/168 93/93/156 95/95/159
f 95/95/159 99/99/169 100/100/170 96/96/168
f 96/96/161 100/100/171 101/101/172 97/97/162
f 97/97/162 101/101/172 102/102/173
f 103/103/174 101/101/172 100/100/171
f 99/99/169 104/104/175 103/103/176 100/100/170
f 104/104/175 105/105/177 106/106/178 103/103/176
f 106/106/179 107/107/180 101/101/172 103/103/174
f 107/107/180 102/102/173 101/101/172
f 106/106/179 108/108/181 107/107/180
f 109/109/182 108/108/182 106/106/182
f 105/105/177 109/109/183 106/106/178
f 108/108/181 110/110/184 107/107/180
f 110/110/185 111/111/186 112/112/187
f 110/110/185 108/108/188 113/113/189 111/111/186
f 114/114/190 115/115/191 116/116/192
f 117/117/193 116/116/192 118/118/194
f 117/117/195 119/119/196 114/114/197
f 118/118/194 120/120/198 121/121/199 117/117/193
f 122/122/200 115/115/201 114/114/202
f 119/119/203 122/122/200 114/114/202
f 123/123/204 117/117/195 121/121/205
f 121/121/199 120/120/198 124/124/206
f 119/119/196 123/123/204 125/125/207
f 126/126/208 123/123/204 121/121/205
f 124/124/209 126/126/209 121/121/209
f 127/127/210 124/124/211 128/128/212
f 126/126/213 124/124/214 127/127/215
f 129/129/216 130/130/217 125/125/207 131/131/218
f 125/125/207 130/130/217 119/119/196
f 125/125/207 123/123/204 126/126/208
f 125/125/219 126/126/213 132/132/220
f 132/132/221 98/98/165 131/131/218 125/125/207
f 127/127/215 132/132/220 126/126/213
f 131/131/218 102/102/222 110/110/223 129/129/216
f 127/127/224 89/89/166 98/98/165 132/132/221
f 128/128/212 90/90/151 89/89/150 127/127/210
f 98/98/165 97/97/164 102/102/222 131/131/218
f 102/102/173 107/107/180 110/110/184
f 110/110/225 112/112/226 129/129/227
f 129/129/227 112/112/226 122/122/200 130/130/228
f 130/130/228 122/122/200 119/119/203
f 117/117/193 114/114/190 116/116/192
f 109/109/229 113/113/189 108/108/188
f 123/123/204 119/119/196 117/117/195
