# Blender v2.79 (sub 0) OBJ File: 'rocks.blend'
# www.blender.org
mtllib rocks_small_04.mtl
o rocks_small_04_rocks_small_test.027
v 0.285488 -0.012597 -0.291970
v 0.338456 0.067664 -0.340063
v 0.334675 -0.012597 -0.398527
v 0.432523 -0.012597 -0.315764
v 0.373940 0.124337 -0.228729
v 0.496606 -0.012597 -0.215425
v 0.465054 -0.012597 -0.069520
v 0.437770 0.072965 -0.095749
v 0.419234 -0.012597 -0.055447
v 0.395235 0.074300 -0.100986
v 0.523496 -0.012597 -0.140658
v 0.302101 -0.012597 -0.165587
v 0.324698 0.094322 -0.222736
v -0.503256 -0.033321 -0.119769
v -0.453241 0.015513 -0.088618
v -0.407287 0.016592 -0.158266
v -0.435707 -0.033321 -0.199328
v -0.108842 0.037355 -0.010695
v -0.145808 -0.033321 0.034033
v -0.102654 -0.033321 0.030745
v 0.026394 -0.033321 -0.217515
v -0.037081 0.050150 -0.186339
v 0.102683 -0.033321 -0.363167
v 0.069759 0.031137 -0.378060
v 0.037937 -0.033321 -0.419337
v -0.234770 -0.033321 0.082142
v -0.086006 0.149382 -0.253133
v -0.152733 0.149118 -0.119757
v -0.122679 0.088448 -0.054366
v -0.294299 0.144549 -0.053572
v -0.289373 0.087133 0.008332
v 0.027197 0.093540 -0.396930
v -0.026263 0.128447 -0.341939
v -0.015257 0.040459 -0.451192
v -0.385716 0.047404 -0.018967
v -0.361052 -0.033321 0.042016
v -0.188536 0.152779 -0.158154
v -0.091714 0.106649 -0.343440
v -0.151454 0.059467 -0.374890
v -0.252830 0.113724 -0.177937
v -0.038557 -0.033321 -0.481780
v -0.342448 0.122634 -0.041319
v -0.396233 0.080528 -0.056831
v -0.282815 0.049486 -0.255132
v -0.433297 -0.033321 -0.032321
v -0.243046 -0.033321 -0.387472
v -0.321601 -0.033321 -0.312216
v 0.186591 0.048340 -0.039570
v 0.248464 0.037230 0.036851
v 0.247536 -0.012682 0.034681
v 0.183075 -0.012682 -0.051962
v 0.111262 0.113000 0.002408
v 0.199566 0.107711 0.079122
v 0.276209 0.038890 0.094301
v 0.294269 0.060031 0.161989
v 0.319584 -0.012682 0.122737
v 0.250491 0.109708 0.186096
v 0.110848 -0.012682 -0.084278
v 0.126064 0.084547 -0.055289
v 0.364242 -0.012682 0.260825
v 0.317838 0.077992 0.256006
v 0.295530 -0.012682 0.323764
v 0.271832 0.117368 0.286349
v 0.226927 -0.012682 0.368411
v 0.035634 -0.012682 -0.078263
v 0.048161 0.121085 -0.041305
v 0.111065 0.143603 0.142272
v 0.029883 0.143749 0.045281
v 0.214159 0.131662 0.344675
v 0.023649 0.143737 0.202331
v 0.137751 0.130090 0.394422
v 0.148135 -0.012682 0.405180
v -0.031885 0.141097 -0.033111
v -0.061493 -0.012682 -0.074453
v 0.072570 -0.012682 0.436530
v 0.069504 0.124428 0.420472
v -0.067719 0.129268 0.263549
v -0.045407 0.148096 0.093699
v -0.086800 0.144234 0.012130
v -0.171920 0.132929 0.059477
v -0.122639 0.135193 0.146289
v -0.013456 0.104260 0.448631
v -0.175211 -0.012682 -0.000945
v -0.054862 -0.012682 0.437518
v -0.085138 0.101154 0.378879
v -0.098544 -0.012682 0.393759
v -0.011260 -0.012682 0.469109
v -0.214848 0.085531 0.225918
v -0.135806 0.095479 0.309708
v -0.274115 0.090236 0.118506
v -0.277992 -0.012682 0.034871
v -0.162083 -0.012682 0.325810
v -0.277435 -0.012682 0.110059
v -0.275070 -0.012682 0.183458
v -0.274445 0.038698 0.207558
v -0.215547 -0.012682 0.287896
v -0.275854 -0.012682 0.243990
vt 0.294864 0.170708
vt 0.254241 0.100826
vt 0.319205 0.067899
vt 0.216534 0.013084
vt 0.190697 0.118929
vt 0.109957 0.029339
vt 0.057066 0.159432
vt 0.118642 0.142438
vt 0.077475 0.195929
vt 0.137045 0.161010
vt 0.057066 0.077965
vt 0.201490 0.232261
vt 0.207695 0.147372
vt 0.955057 0.521586
vt 0.944530 0.553537
vt 0.909531 0.544711
vt 0.908512 0.514168
vt 0.889728 0.689191
vt 0.923835 0.706964
vt 0.907398 0.718544
vt 0.788955 0.711248
vt 0.818175 0.679117
vt 0.720487 0.679922
vt 0.739843 0.655961
vt 0.706591 0.639733
vt 0.964738 0.684223
vt 0.814582 0.631284
vt 0.861264 0.639039
vt 0.876637 0.666914
vt 0.903745 0.616987
vt 0.928355 0.632972
vt 0.755517 0.633023
vt 0.780496 0.632739
vt 0.736498 0.611982
vt 0.947371 0.595794
vt 0.986383 0.619099
vt 0.858167 0.620789
vt 0.788539 0.608922
vt 0.784594 0.579260
vt 0.864487 0.593416
vt 0.710596 0.591569
vt 0.917247 0.606273
vt 0.928709 0.585387
vt 0.847815 0.558194
vt 0.976562 0.568479
vt 0.784810 0.525103
vt 0.836579 0.514168
vt 0.173419 0.602049
vt 0.122613 0.642508
vt 0.094225 0.617028
vt 0.155425 0.558604
vt 0.224266 0.645651
vt 0.167219 0.686868
vt 0.097208 0.680458
vt 0.089627 0.730832
vt 0.042740 0.688903
vt 0.133471 0.751929
vt 0.216539 0.534362
vt 0.218391 0.604503
vt 0.014958 0.797935
vt 0.085520 0.794320
vt 0.049735 0.865365
vt 0.122751 0.811771
vt 0.091875 0.913565
vt 0.273829 0.532975
vt 0.266161 0.622365
vt 0.220888 0.731137
vt 0.272369 0.677233
vt 0.157418 0.842892
vt 0.270539 0.769420
vt 0.197733 0.871504
vt 0.148316 0.954968
vt 0.309933 0.634634
vt 0.348027 0.540592
vt 0.209742 0.977454
vt 0.233533 0.891106
vt 0.323153 0.809468
vt 0.315922 0.707209
vt 0.343073 0.656942
vt 0.390442 0.686581
vt 0.361099 0.740329
vt 0.278314 0.910686
vt 0.442162 0.593777
vt 0.325117 0.979805
vt 0.325784 0.883926
vt 0.369296 0.953637
vt 0.279267 0.989943
vt 0.422403 0.792345
vt 0.368523 0.846892
vt 0.451221 0.720282
vt 0.505995 0.652315
vt 0.429674 0.904899
vt 0.517210 0.710087
vt 0.517210 0.768624
vt 0.474650 0.780472
vt 0.469066 0.868140
vt 0.505599 0.817843
vn -0.9190 0.3615 -0.1573
vn -0.8689 0.3933 -0.3006
vn -0.8575 0.3287 -0.3958
vn 0.6463 0.5536 -0.5252
vn 0.6093 0.5376 -0.5829
vn 0.7057 0.6239 -0.3358
vn 0.6968 0.6634 -0.2726
vn 0.5716 0.4653 -0.6758
vn 0.5217 0.3977 0.7547
vn 0.5569 0.4006 0.7276
vn 0.2738 0.3606 0.8916
vn -0.0960 0.4411 0.8923
vn 0.7070 0.4035 0.5808
vn -0.7118 0.2858 0.6417
vn -0.8453 0.3250 0.4242
vn -0.6727 0.1891 0.7154
vn 0.7134 0.6866 -0.1401
vn 0.6266 0.7461 -0.2253
vn -0.4668 0.8744 0.1321
vn -0.5149 0.8555 0.0540
vn -0.0959 0.9213 0.3769
vn -0.0161 0.9301 0.3670
vn -0.8984 0.4001 0.1812
vn -0.5261 0.8139 -0.2466
vn -0.5439 0.7385 -0.3984
vn -0.5661 0.7406 -0.3620
vn -0.5415 0.7175 -0.4381
vn -0.5224 0.6991 -0.4882
vn 0.0654 0.5090 0.8583
vn 0.8499 0.3521 0.3921
vn 0.7924 0.4479 0.4141
vn 0.7734 0.5149 0.3697
vn 0.8502 0.3702 0.3743
vn 0.7847 0.4782 0.3945
vn 0.7590 0.5380 0.3667
vn 0.6471 0.1582 -0.7458
vn 0.6448 0.1448 -0.7505
vn 0.6504 0.1751 -0.7391
vn 0.4546 0.2943 0.8407
vn 0.7238 0.6022 0.3368
vn 0.6555 0.6796 0.3293
vn 0.7492 0.5664 0.3432
vn 0.2363 0.6933 0.6808
vn 0.2526 0.7644 0.5932
vn 0.2430 0.7345 0.6336
vn 0.2607 0.6573 0.7071
vn 0.2539 0.6088 0.7516
vn 0.1627 0.6662 0.7279
vn 0.7303 0.5980 0.3304
vn 0.7282 0.5922 0.3450
vn 0.6424 0.1586 -0.7498
vn 0.6496 0.2233 -0.7267
vn -0.3678 0.4486 0.8146
vn -0.5995 0.4221 0.6800
vn -0.4568 0.3960 0.7966
vn -0.2765 0.4079 0.8702
vn 0.0650 0.9973 0.0345
vn 0.0371 0.9975 0.0606
vn 0.0363 0.9975 0.0613
vn 0.0085 0.9962 0.0870
vn -0.2997 0.8070 -0.5089
vn -0.3186 0.8644 -0.3889
vn -0.2458 0.7780 -0.5782
vn -0.3036 0.6201 -0.7233
vn -0.4055 0.6615 -0.6308
vn -0.1969 0.7570 -0.6231
vn -0.3838 0.8407 -0.3819
vn -0.4513 0.7982 -0.3990
vn 0.6277 0.1206 -0.7690
vn -0.1543 0.7183 0.6785
vn -0.4707 0.4889 0.7345
vn -0.6662 0.4598 0.5872
vn -0.4874 0.7903 -0.3713
vn -0.4492 0.8207 -0.3532
vn -0.5259 0.6971 -0.4874
vn -0.5340 0.7480 -0.3941
vn -0.7357 0.3663 0.5696
vn -0.7215 0.3350 0.6060
vn -0.4966 0.5851 -0.6411
vn -0.5440 0.6420 -0.5402
vn -0.7247 0.3724 0.5798
vn -0.3798 0.4614 -0.8018
vn 0.7944 0.0578 -0.6046
vn 0.8449 0.0075 -0.5348
vn 0.8304 0.0234 -0.5566
vn 0.8001 0.0748 -0.5952
vn 0.5267 0.7590 -0.3828
vn 0.3429 0.8940 -0.2884
vn 0.4571 0.8365 -0.3022
vn 0.6418 0.6695 -0.3740
vn 0.7772 0.3750 -0.5053
vn 0.8389 0.4488 -0.3079
vn 0.8164 0.4168 -0.3997
vn 0.4728 0.8533 -0.2198
vn 0.6433 0.6933 -0.3249
vn 0.6612 0.6562 -0.3636
vn 0.3820 0.1885 -0.9047
vn 0.3632 0.2135 -0.9069
vn 0.3797 0.1917 -0.9050
vn 0.4031 0.1598 -0.9011
vn 0.6304 0.3592 0.6882
vn 0.6253 0.3095 0.7164
vn 0.5371 0.4161 0.7337
vn 0.3534 0.9286 -0.1129
vn 0.5960 0.7709 -0.2245
vn 0.4757 0.8312 -0.2878
vn 0.6883 0.2020 0.6967
vn 0.5243 0.2430 0.8161
vn -0.0555 0.2781 -0.9589
vn -0.0762 0.2958 -0.9522
vn -0.0499 0.2768 -0.9596
vn -0.0389 0.2680 -0.9626
vn 0.2659 0.9348 -0.2356
vn 0.1433 0.9866 -0.0784
vn 0.1347 0.9844 -0.1135
vn 0.6136 0.1535 0.7746
vn 0.0985 0.9951 0.0129
vn -0.0285 0.9976 0.0626
vn -0.0121 0.9969 0.0780
vn 0.4229 0.1270 0.8972
vn 0.4530 0.1067 0.8851
vn 0.0985 0.9889 -0.1110
vn -0.0359 0.2680 -0.9627
vn -0.0323 0.2653 -0.9636
vn 0.3510 0.1257 0.9279
vn 0.3226 0.1172 0.9392
vn -0.2046 0.9671 0.1511
vn -0.1015 0.9861 0.1315
vn -0.0384 0.9991 0.0197
vn -0.0468 0.9987 -0.0210
vn -0.2232 0.9686 0.1094
vn -0.2248 0.9658 0.1290
vn -0.5931 0.3136 -0.7416
vn -0.5303 0.3424 -0.7756
vn -0.5348 0.3349 -0.7757
vn -0.1893 0.9642 0.1858
vn -0.4666 0.4127 -0.7823
vn -0.5304 0.3351 -0.7787
vn -0.6513 0.1574 0.7423
vn -0.6631 0.1654 0.7300
vn -0.7268 0.2030 0.6561
vn -0.7082 0.1729 0.6845
vn -0.5818 0.1297 0.8030
vn -0.3176 0.9285 0.1925
vn -0.3326 0.9245 0.1864
vn -0.4622 0.4456 -0.7667
vn -0.2595 0.6149 -0.7447
vn -0.2798 0.9399 0.1955
vn -0.6549 0.2368 0.7176
vn -0.7275 0.3079 0.6131
vn -0.9996 0.0250 0.0152
vn -0.9993 0.0307 0.0192
vn -0.9998 0.0196 0.0065
vn -0.9999 0.0138 -0.0035
vn -0.6440 0.4955 0.5829
vn -0.5967 0.5623 0.5726
vn -0.5963 0.3842 0.7049
vn -0.9995 0.0316 0.0074
vn -0.5071 0.5078 0.6965
vn -0.9997 0.0182 -0.0130
vn 0.9005 0.0022 -0.4349
vn 0.8567 0.4227 -0.2955
vn 0.8547 0.4328 -0.2867
vn -0.2632 0.9457 0.1908
vn 0.3168 0.1359 0.9387
vn 0.3571 0.1676 0.9189
vn -0.6408 0.6655 0.3827
vn 0.7409 0.2889 -0.6062
usemtl mat_rocks_small
s 1
f 1/1/1 2/2/2 3/3/3
f 4/4/4 2/2/5 5/5/6 6/6/7
f 4/4/4 3/3/8 2/2/5
f 7/7/9 8/8/10 9/9/11
f 8/8/12 10/10/12 9/9/12
f 11/11/13 8/8/10 7/7/9
f 10/10/14 12/12/15 9/9/16
f 6/6/7 5/5/6 8/8/17 11/11/18
f 5/5/19 13/13/20 10/10/21 8/8/22
f 13/13/23 12/12/15 10/10/14
f 1/1/1 12/12/15 13/13/23
f 13/13/23 2/2/2 1/1/1
f 13/13/20 5/5/19 2/2/24
f 14/14/25 15/15/26 16/16/27 17/17/28
f 18/18/29 19/19/29 20/20/29
f 20/20/30 21/21/31 22/22/32 18/18/33
f 23/23/34 24/24/35 22/22/32 21/21/31
f 23/23/36 25/25/37 24/24/38
f 18/18/39 26/26/39 19/19/39
f 27/27/40 28/28/41 29/29/42 22/22/32
f 22/22/32 29/29/42 18/18/33
f 29/29/43 28/28/44 30/30/45 31/31/46
f 29/29/43 31/31/46 26/26/47 18/18/48
f 32/32/49 33/33/50 24/24/35
f 34/34/51 32/32/52 24/24/38 25/25/37
f 31/31/53 35/35/54 36/36/55 26/26/56
f 27/27/57 37/37/58 28/28/59
f 28/28/59 37/37/58 30/30/60
f 38/38/61 27/27/62 33/33/63
f 34/34/64 39/39/65 38/38/61 32/32/66
f 38/38/61 33/33/63 32/32/66
f 37/37/67 27/27/62 38/38/61 40/40/68
f 25/25/37 41/41/69 34/34/51
f 30/30/70 42/42/70 31/31/70
f 42/42/71 43/43/72 35/35/54 31/31/53
f 40/40/68 42/42/73 30/30/74 37/37/67
f 39/39/65 44/44/75 40/40/68 38/38/61
f 40/40/68 43/43/76 42/42/73
f 35/35/54 15/15/77 45/45/78 36/36/55
f 16/16/27 43/43/76 40/40/68 44/44/75
f 35/35/54 43/43/72 15/15/77
f 46/46/79 47/47/80 44/44/75 39/39/65
f 16/16/27 15/15/26 43/43/76
f 47/47/80 17/17/28 16/16/27 44/44/75
f 15/15/77 14/14/81 45/45/78
f 33/33/50 27/27/40 22/22/32 24/24/35
f 39/39/65 34/34/64 41/41/82 46/46/79
f 48/48/83 49/49/84 50/50/85 51/51/86
f 48/48/87 52/52/88 53/53/89 49/49/90
f 54/54/91 55/55/92 56/56/93
f 53/53/89 57/57/94 55/55/95 54/54/96
f 54/54/96 49/49/90 53/53/89
f 58/58/97 59/59/98 48/48/99 51/51/100
f 60/60/101 61/61/102 62/62/103
f 57/57/94 63/63/104 61/61/105 55/55/95
f 48/48/87 59/59/106 52/52/88
f 61/61/102 63/63/107 64/64/108 62/62/103
f 59/59/109 58/58/110 65/65/111 66/66/112
f 52/52/88 59/59/106 66/66/113
f 57/57/94 67/67/114 63/63/104
f 57/57/94 53/53/89 67/67/114
f 52/52/88 68/68/115 67/67/114 53/53/89
f 69/69/116 64/64/108 63/63/107
f 69/69/117 67/67/114 70/70/118 71/71/119
f 72/72/120 64/64/108 69/69/116 71/71/121
f 66/66/113 73/73/122 68/68/115 52/52/88
f 74/74/123 73/73/124 66/66/112 65/65/111
f 75/75/125 72/72/120 71/71/121 76/76/126
f 70/70/118 77/77/127 76/76/128 71/71/119
f 68/68/115 78/78/129 70/70/118 67/67/114
f 79/79/130 78/78/129 68/68/115 73/73/122
f 80/80/131 81/81/132 78/78/129 79/79/130
f 73/73/133 74/74/134 79/79/135
f 76/76/128 77/77/127 82/82/136
f 78/78/129 81/81/132 77/77/127 70/70/118
f 83/83/137 80/80/138 79/79/135 74/74/134
f 84/84/139 82/82/140 85/85/141 86/86/142
f 87/87/143 82/82/140 84/84/139
f 88/88/144 89/89/145 77/77/127 81/81/132
f 90/90/146 83/83/137 91/91/147
f 88/88/144 81/81/132 80/80/131 90/90/148
f 92/92/149 86/86/142 85/85/141 89/89/150
f 90/90/151 93/93/152 94/94/153 95/95/154
f 88/88/155 95/95/156 96/96/157
f 91/91/158 93/93/152 90/90/151
f 95/95/156 97/97/159 96/96/157
f 95/95/154 94/94/153 97/97/160
f 54/54/161 50/50/85 49/49/84
f 96/96/157 92/92/149 89/89/150 88/88/155
f 55/55/92 61/61/162 60/60/163 56/56/93
f 77/77/127 89/89/145 85/85/164
f 77/77/127 85/85/164 82/82/136
f 82/82/165 87/87/166 75/75/125 76/76/126
f 69/69/117 63/63/104 67/67/114
f 88/88/155 90/90/167 95/95/156
f 90/90/146 80/80/138 83/83/137
f 54/54/91 56/56/93 50/50/168
