# Blender v2.79 (sub 0) OBJ File: 'rocks.blend'
# www.blender.org
mtllib rocks_small_07.mtl
o rocks_small_07_rocks_small_test.043
v -0.018920 0.033747 0.032610
v -0.098439 0.024564 0.049434
v -0.096493 -0.016695 0.049566
v -0.008475 -0.016695 0.034681
v -0.021507 0.087196 -0.038627
v -0.111179 0.082825 -0.002455
v -0.151164 0.025936 0.048265
v -0.207785 0.043412 0.036115
v -0.188404 -0.016695 0.069507
v -0.209076 0.084475 -0.005176
v 0.042467 -0.016695 -0.006345
v 0.015405 0.063677 -0.006041
v -0.306851 -0.016695 0.050477
v -0.285859 0.058259 0.018125
v -0.327357 -0.016695 -0.023769
v -0.290905 0.090807 -0.027151
v -0.334438 -0.016695 -0.091058
v 0.066312 -0.016695 -0.063979
v 0.034395 0.093880 -0.068650
v -0.124401 0.112494 -0.091348
v -0.022479 0.112615 -0.114654
v -0.312164 0.102623 -0.091535
v -0.135756 0.112605 -0.178280
v -0.320066 0.101323 -0.166487
v -0.331889 -0.016695 -0.162886
v 0.058452 0.110422 -0.130660
v 0.100018 -0.016695 -0.136916
v -0.326564 -0.016695 -0.230302
v -0.313589 0.096643 -0.226523
v -0.146479 0.100644 -0.268557
v -0.029822 0.116208 -0.188284
v 0.045789 0.113015 -0.188095
v 0.042929 0.103671 -0.268558
v -0.039507 0.105542 -0.264910
v -0.303134 0.079972 -0.298183
v 0.088649 -0.016695 -0.248268
v -0.279388 -0.016695 -0.324489
v -0.224837 0.077405 -0.324735
v -0.230752 -0.016695 -0.340198
v -0.319036 -0.016695 -0.304264
v -0.063468 0.064490 -0.362728
v -0.154867 0.072713 -0.336035
v 0.037888 0.068379 -0.365983
v 0.100918 -0.016695 -0.337399
v -0.156844 -0.016695 -0.361433
v 0.045354 -0.016695 -0.365252
v -0.009571 -0.016695 -0.391103
v -0.027549 0.025777 -0.399702
v -0.108834 -0.016695 -0.386541
v -0.053840 -0.016695 -0.414434
v 0.059942 -0.013192 0.169575
v 0.124333 0.067069 0.200757
v 0.177157 -0.013192 0.175421
v 0.136913 -0.013192 0.297093
v 0.034299 0.123743 0.275243
v 0.067757 -0.013192 0.394005
v -0.079377 -0.013192 0.419212
v -0.065232 0.072370 0.384107
v -0.109540 -0.013192 0.381960
v -0.076255 0.073705 0.342693
v 0.008436 -0.013192 0.446866
v -0.051099 -0.013192 0.232174
v 0.010355 0.093727 0.231799
v 0.505931 -0.025310 0.086211
v 0.507277 0.001941 0.053359
v 0.460820 0.002543 0.050235
v 0.448717 -0.025310 0.075335
v 0.450259 0.014129 -0.135248
v 0.482146 -0.025310 -0.129624
v 0.468667 -0.025310 -0.149663
v 0.312641 -0.025310 -0.143932
v 0.345251 0.021269 -0.121710
v 0.220943 -0.025310 -0.140849
v 0.222781 0.010659 -0.120769
v 0.211511 -0.025310 -0.093958
v 0.529993 -0.025310 -0.099695
v 0.326306 0.076642 -0.079571
v 0.409413 0.076494 -0.083914
v 0.432874 0.042640 -0.116507
v 0.480518 0.073945 -0.033432
v 0.509206 0.041906 -0.052870
v 0.225343 0.045481 -0.094915
v 0.266754 0.064960 -0.084113
v 0.210699 0.015861 -0.059369
v 0.522487 0.019737 0.001407
v 0.545293 -0.025310 -0.027356
v 0.400637 0.078538 -0.055964
v 0.284048 0.052796 -0.051933
v 0.285236 0.026468 -0.014279
v 0.408740 0.056744 -0.019312
v 0.202269 -0.025310 -0.039637
v 0.499724 0.061716 -0.013437
v 0.507006 0.038220 0.016938
v 0.379531 0.020898 0.016498
v 0.529108 -0.025310 0.028177
v 0.304350 -0.025310 0.033639
v 0.362507 -0.025310 0.051042
v -0.440067 0.043251 0.153814
v -0.470624 -0.013850 0.165975
v -0.455647 -0.013850 0.198299
v -0.442969 -0.013850 0.142189
v -0.384738 0.059954 0.157700
v -0.358174 -0.013850 0.142169
v -0.296478 0.078484 0.179455
v -0.209913 0.086971 0.214661
v -0.194677 -0.013850 0.161877
v -0.275491 -0.013850 0.148979
v -0.422198 -0.013850 0.244913
v -0.395014 0.066588 0.203421
v -0.334061 0.076568 0.223421
v -0.169118 0.085057 0.234790
v -0.124891 -0.013850 0.186888
v -0.155444 -0.013850 0.240871
v -0.271673 0.080894 0.257081
v -0.329172 0.063689 0.312749
v -0.244033 -0.013850 0.364018
v -0.218845 0.065261 0.321290
v -0.320304 -0.013850 0.349951
v -0.210024 -0.013850 0.328688
v -0.186878 -0.013850 0.284346
v -0.192974 0.083361 0.278589
v -0.380161 -0.013850 0.315395
vt 0.173419 0.602049
vt 0.122613 0.642508
vt 0.094225 0.617028
vt 0.155425 0.558604
vt 0.224266 0.645651
vt 0.167219 0.686868
vt 0.097208 0.680458
vt 0.089627 0.730832
vt 0.042740 0.688903
vt 0.133471 0.751929
vt 0.216539 0.534362
vt 0.218391 0.604503
vt 0.014958 0.797935
vt 0.085520 0.794320
vt 0.049735 0.865365
vt 0.122751 0.811771
vt 0.091875 0.913565
vt 0.273829 0.532975
vt 0.266161 0.622365
vt 0.220888 0.731137
vt 0.272369 0.677233
vt 0.157418 0.842892
vt 0.270539 0.769420
vt 0.197733 0.871504
vt 0.148316 0.954968
vt 0.309933 0.634634
vt 0.348027 0.540592
vt 0.209742 0.977454
vt 0.233533 0.891106
vt 0.323153 0.809468
vt 0.315922 0.707209
vt 0.343073 0.656942
vt 0.390442 0.686581
vt 0.361099 0.740329
vt 0.278314 0.910686
vt 0.442162 0.593777
vt 0.325117 0.979805
vt 0.325784 0.883926
vt 0.369296 0.953637
vt 0.279267 0.989943
vt 0.422403 0.792345
vt 0.368523 0.846892
vt 0.451221 0.720282
vt 0.505995 0.652315
vt 0.429674 0.904899
vt 0.517210 0.710087
vt 0.517210 0.768624
vt 0.474650 0.780472
vt 0.469066 0.868140
vt 0.505599 0.817843
vt 0.294864 0.170708
vt 0.254241 0.100826
vt 0.319205 0.067899
vt 0.216534 0.013084
vt 0.190697 0.118929
vt 0.109957 0.029339
vt 0.057066 0.159432
vt 0.118642 0.142438
vt 0.077475 0.195929
vt 0.137045 0.161010
vt 0.057066 0.077965
vt 0.201490 0.232261
vt 0.207695 0.147372
vt 0.955057 0.521586
vt 0.944530 0.553537
vt 0.909531 0.544711
vt 0.908512 0.514168
vt 0.889728 0.689191
vt 0.923835 0.706964
vt 0.907398 0.718544
vt 0.788955 0.711248
vt 0.818175 0.679117
vt 0.720487 0.679922
vt 0.739843 0.655961
vt 0.706591 0.639733
vt 0.964738 0.684223
vt 0.814582 0.631284
vt 0.861264 0.639039
vt 0.876637 0.666914
vt 0.903745 0.616987
vt 0.928355 0.632972
vt 0.755517 0.633023
vt 0.780496 0.632739
vt 0.736498 0.611982
vt 0.947371 0.595794
vt 0.986383 0.619099
vt 0.858167 0.620789
vt 0.788539 0.608922
vt 0.784594 0.579260
vt 0.864487 0.593416
vt 0.710596 0.591569
vt 0.917247 0.606273
vt 0.928709 0.585387
vt 0.847815 0.558194
vt 0.976562 0.568479
vt 0.784810 0.525103
vt 0.836579 0.514168
vt 0.440908 0.360337
vt 0.460532 0.331511
vt 0.484890 0.352301
vt 0.430452 0.326550
vt 0.424291 0.379765
vt 0.376002 0.347775
vt 0.406338 0.418003
vt 0.398450 0.459073
vt 0.331865 0.441991
vt 0.343654 0.391577
vt 0.508640 0.389960
vt 0.452139 0.394522
vt 0.440417 0.422827
vt 0.398213 0.479425
vt 0.336617 0.489824
vt 0.378703 0.521963
vt 0.436416 0.455329
vt 0.481338 0.458581
vt 0.501726 0.539602
vt 0.449230 0.496587
vt 0.530158 0.495523
vt 0.462515 0.544920
vt 0.420812 0.540540
vt 0.422341 0.487154
vt 0.536387 0.445887
vn 0.1772 0.0578 0.9825
vn 0.0921 0.0075 0.9957
vn 0.1181 0.0234 0.9927
vn 0.1663 0.0748 0.9832
vn 0.1014 0.7590 0.6432
vn 0.1009 0.8940 0.4366
vn 0.0613 0.8365 0.5445
vn 0.0412 0.6695 0.7416
vn 0.0966 0.3750 0.9220
vn -0.1073 0.4488 0.8871
vn -0.0153 0.4168 0.9089
vn -0.0193 0.8533 0.5210
vn -0.0032 0.6933 0.7206
vn 0.0231 0.6562 0.7542
vn 0.6320 0.1885 0.7517
vn 0.6425 0.2135 0.7359
vn 0.6333 0.1917 0.7498
vn 0.6192 0.1598 0.7688
vn -0.8996 0.3592 0.2485
vn -0.9224 0.3095 0.2311
vn -0.8977 0.4161 0.1447
vn -0.0602 0.9286 0.3661
vn -0.0711 0.7709 0.6329
vn 0.0400 0.8312 0.5546
vn -0.9335 0.2020 0.2962
vn -0.9653 0.2430 0.0958
vn 0.8793 0.2781 0.3867
vn 0.8827 0.2958 0.3652
vn 0.8773 0.2768 0.3920
vn 0.8750 0.2680 0.4031
vn 0.0890 0.9348 0.3439
vn 0.0047 0.9866 0.1633
vn 0.0398 0.9844 0.1716
vn -0.9689 0.1535 0.1942
vn -0.0563 0.9951 0.0818
vn -0.0428 0.9976 -0.0539
vn -0.0640 0.9969 -0.0462
vn -0.9914 0.1270 -0.0314
vn -0.9943 0.1067 0.0010
vn 0.0541 0.9889 0.1382
vn 0.8738 0.2680 0.4058
vn 0.8729 0.2653 0.4094
vn -0.9860 0.1257 -0.1093
vn -0.9832 0.1172 -0.1398
vn -0.0415 0.9671 -0.2509
vn -0.0710 0.9861 -0.1502
vn -0.0001 0.9991 -0.0432
vn 0.0400 0.9987 -0.0321
vn 0.0040 0.9686 -0.2486
vn -0.0126 0.9658 -0.2589
vn 0.9302 0.3136 -0.1909
vn 0.9319 0.3424 -0.1196
vn 0.9341 0.3349 -0.1236
vn -0.0794 0.9642 -0.2531
vn 0.9089 0.4127 -0.0598
vn 0.9347 0.3351 -0.1183
vn -0.3649 0.1574 -0.9176
vn -0.3486 0.1654 -0.9226
vn -0.2538 0.2030 -0.9457
vn -0.2875 0.1729 -0.9420
vn -0.4506 0.1297 -0.8833
vn -0.0270 0.9285 -0.3704
vn -0.0148 0.9245 -0.3810
vn 0.8930 0.4456 -0.0630
vn 0.7812 0.6149 0.1075
vn -0.0469 0.9399 -0.3381
vn -0.3413 0.2368 -0.9096
vn -0.2152 0.3079 -0.9268
vn 0.4410 0.0250 -0.8971
vn 0.4374 0.0307 -0.8987
vn 0.4489 0.0196 -0.8934
vn 0.4578 0.0138 -0.8890
vn -0.2263 0.4955 -0.8386
vn -0.2386 0.5623 -0.7918
vn -0.3566 0.3842 -0.8516
vn 0.4479 0.0316 -0.8935
vn -0.3897 0.5078 -0.7683
vn 0.4662 0.0182 -0.8845
vn -0.0221 0.0022 0.9998
vn -0.1264 0.4227 0.8974
vn -0.1333 0.4328 0.8916
vn -0.0502 0.9457 -0.3212
vn -0.9801 0.1359 -0.1448
vn -0.9808 0.1676 -0.0998
vn -0.0495 0.6655 -0.7448
vn 0.2030 0.2889 0.9356
vn -0.1972 0.3615 -0.9113
vn -0.0455 0.3933 -0.9183
vn 0.0470 0.3287 -0.9433
vn 0.7286 0.5536 0.4034
vn 0.7682 0.5376 0.3476
vn 0.5750 0.6239 0.5293
vn 0.5130 0.6634 0.5447
vn 0.8404 0.4653 0.2780
vn -0.5054 0.3977 0.7658
vn -0.4671 0.4006 0.7883
vn -0.7249 0.3606 0.5869
vn -0.8636 0.4411 0.2441
vn -0.2748 0.4035 0.8727
vn -0.8610 0.2858 -0.4207
vn -0.7091 0.3250 -0.6258
vn -0.9148 0.1891 -0.3569
vn 0.3963 0.6866 0.6095
vn 0.4430 0.7461 0.4971
vn -0.2969 0.8744 -0.3838
vn -0.2423 0.8555 -0.4575
vn -0.3854 0.9213 0.0518
vn -0.3464 0.9301 0.1221
vn -0.5035 0.4001 -0.7658
vn 0.0324 0.8139 -0.5801
vn -0.0781 0.7385 0.6697
vn -0.0355 0.7406 0.6710
vn -0.1138 0.7175 0.6872
vn -0.1668 0.6991 0.6953
vn 0.7142 0.5090 -0.4804
vn -0.0784 0.3521 -0.9327
vn -0.0309 0.4479 -0.8935
vn -0.0601 0.5149 -0.8551
vn -0.0940 0.3702 -0.9242
vn -0.0441 0.4782 -0.8771
vn -0.0556 0.5380 -0.8411
vn -0.9680 0.1582 -0.1947
vn -0.9709 0.1448 -0.1905
vn -0.9638 0.1751 -0.2010
vn 0.5068 0.2943 -0.8103
vn -0.0643 0.6022 -0.7957
vn -0.0371 0.6796 -0.7326
vn -0.0712 0.5664 -0.8210
vn 0.4756 0.6933 -0.5415
vn 0.3912 0.7644 -0.5124
vn 0.4311 0.7345 -0.5240
vn 0.4863 0.6573 -0.5757
vn 0.5284 0.6088 -0.5918
vn 0.5528 0.6662 -0.5007
vn -0.0730 0.5980 -0.7982
vn -0.0593 0.5922 -0.8036
vn -0.9692 0.1586 -0.1887
vn -0.9526 0.2233 -0.2064
vn 0.8900 0.4486 -0.0821
vn 0.8873 0.4221 0.1859
vn 0.9182 0.3960 0.0042
vn 0.8933 0.4079 -0.1889
vn -0.0021 0.9973 -0.0736
vn 0.0344 0.9975 -0.0621
vn 0.0354 0.9975 -0.0618
vn 0.0715 0.9962 -0.0504
vn -0.2947 0.8070 0.5118
vn -0.1810 0.8644 0.4690
vn -0.3816 0.7780 0.4992
vn -0.4793 0.6201 0.6211
vn -0.3485 0.6615 0.6640
vn -0.4448 0.7570 0.4787
vn -0.1428 0.8407 0.5223
vn -0.1243 0.7982 0.5894
vn -0.9786 0.1206 -0.1665
vn 0.6662 0.7183 -0.2006
vn 0.8711 0.4889 0.0470
vn 0.8395 0.4598 0.2896
vn -0.0824 0.7903 0.6072
vn -0.0855 0.8207 0.5650
vn -0.1644 0.6971 0.6979
vn -0.0793 0.7480 0.6589
vn 0.8585 0.3663 0.3588
vn 0.8831 0.3350 0.3285
vn -0.3125 0.5851 0.7483
vn -0.2014 0.6420 0.7398
vn 0.8619 0.3724 0.3442
vn -0.5099 0.4614 0.7260
vn -0.7497 0.5217 0.4071
vn -0.7865 0.4985 0.3644
vn -0.7442 0.5077 0.4340
vn -0.3348 0.2066 -0.9194
vn -0.1492 0.2045 -0.9674
vn 0.0876 0.2333 -0.9685
vn 0.0765 0.2624 -0.9619
vn -0.6409 0.1843 -0.7452
vn 0.1836 0.3646 -0.9129
vn 0.3533 0.4753 -0.8058
vn 0.2692 0.4607 -0.8457
vn 0.1168 0.3351 -0.9349
vn -0.7261 0.4962 0.4760
vn -0.7329 0.5029 0.4582
vn -0.2000 0.9751 -0.0958
vn -0.1456 0.9883 0.0453
vn -0.1047 0.9934 -0.0476
vn -0.2148 0.9585 -0.1873
vn 0.3671 0.4886 -0.7915
vn 0.2884 0.5188 -0.8048
vn 0.8606 0.1489 0.4871
vn 0.8645 0.1490 0.4800
vn 0.8447 0.1273 0.5199
vn -0.0852 0.9873 0.1340
vn -0.0454 0.9981 0.0421
vn -0.1176 0.9738 0.1947
vn -0.1128 0.4589 0.8813
vn -0.0742 0.4921 0.8674
vn -0.4556 0.4738 0.7536
vn -0.2971 0.3852 0.8737
vn 0.7130 0.1437 0.6863
vn 0.8028 0.1436 0.5788
vn 0.8224 0.1110 0.5580
vn 0.8375 0.1035 0.5365
vn 0.8441 0.1104 0.5248
vn -0.0841 0.9501 0.3005
vn -0.6596 0.4542 0.5989
vn -0.0619 0.9828 0.1741
vn 0.0219 0.9985 0.0506
vn -0.2706 0.9422 -0.1975
usemtl mat_rocks_small
s 1
f 1/1/1 2/2/2 3/3/3 4/4/4
f 1/1/5 5/5/6 6/6/7 2/2/8
f 7/7/9 8/8/10 9/9/11
f 6/6/7 10/10/12 8/8/13 7/7/14
f 7/7/14 2/2/8 6/6/7
f 11/11/15 12/12/16 1/1/17 4/4/18
f 13/13/19 14/14/20 15/15/21
f 10/10/12 16/16/22 14/14/23 8/8/13
f 1/1/5 12/12/24 5/5/6
f 14/14/20 16/16/25 17/17/26 15/15/21
f 12/12/27 11/11/28 18/18/29 19/19/30
f 5/5/6 12/12/24 19/19/31
f 10/10/12 20/20/32 16/16/22
f 10/10/12 6/6/7 20/20/32
f 5/5/6 21/21/33 20/20/32 6/6/7
f 22/22/34 17/17/26 16/16/25
f 22/22/35 20/20/32 23/23/36 24/24/37
f 25/25/38 17/17/26 22/22/34 24/24/39
f 19/19/31 26/26/40 21/21/33 5/5/6
f 27/27/41 26/26/42 19/19/30 18/18/29
f 28/28/43 25/25/38 24/24/39 29/29/44
f 23/23/36 30/30/45 29/29/46 24/24/37
f 21/21/33 31/31/47 23/23/36 20/20/32
f 32/32/48 31/31/47 21/21/33 26/26/40
f 33/33/49 34/34/50 31/31/47 32/32/48
f 26/26/51 27/27/52 32/32/53
f 29/29/46 30/30/45 35/35/54
f 31/31/47 34/34/50 30/30/45 23/23/36
f 36/36/55 33/33/56 32/32/53 27/27/52
f 37/37/57 35/35/58 38/38/59 39/39/60
f 40/40/61 35/35/58 37/37/57
f 41/41/62 42/42/63 30/30/45 34/34/50
f 43/43/64 36/36/55 44/44/65
f 41/41/62 34/34/50 33/33/49 43/43/66
f 45/45/67 39/39/60 38/38/59 42/42/68
f 43/43/69 46/46/70 47/47/71 48/48/72
f 41/41/73 48/48/74 49/49/75
f 44/44/76 46/46/70 43/43/69
f 48/48/74 50/50/77 49/49/75
f 48/48/72 47/47/71 50/50/78
f 7/7/79 3/3/3 2/2/2
f 49/49/75 45/45/67 42/42/68 41/41/73
f 8/8/10 14/14/80 13/13/81 9/9/11
f 30/30/45 42/42/63 38/38/82
f 30/30/45 38/38/82 35/35/54
f 35/35/83 40/40/84 28/28/43 29/29/44
f 22/22/35 16/16/22 20/20/32
f 41/41/73 43/43/85 48/48/74
f 43/43/64 33/33/56 36/36/55
f 7/7/9 9/9/11 3/3/86
f 51/51/87 52/52/88 53/53/89
f 54/54/90 52/52/91 55/55/92 56/56/93
f 54/54/90 53/53/94 52/52/91
f 57/57/95 58/58/96 59/59/97
f 58/58/98 60/60/98 59/59/98
f 61/61/99 58/58/96 57/57/95
f 60/60/100 62/62/101 59/59/102
f 56/56/93 55/55/92 58/58/103 61/61/104
f 55/55/105 63/63/106 60/60/107 58/58/108
f 63/63/109 62/62/101 60/60/100
f 51/51/87 62/62/101 63/63/109
f 63/63/109 52/52/88 51/51/87
f 63/63/106 55/55/105 52/52/110
f 64/64/111 65/65/112 66/66/113 67/67/114
f 68/68/115 69/69/115 70/70/115
f 70/70/116 71/71/117 72/72/118 68/68/119
f 73/73/120 74/74/121 72/72/118 71/71/117
f 73/73/122 75/75/123 74/74/124
f 68/68/125 76/76/125 69/69/125
f 77/77/126 78/78/127 79/79/128 72/72/118
f 72/72/118 79/79/128 68/68/119
f 79/79/129 78/78/130 80/80/131 81/81/132
f 79/79/129 81/81/132 76/76/133 68/68/134
f 82/82/135 83/83/136 74/74/121
f 84/84/137 82/82/138 74/74/124 75/75/123
f 81/81/139 85/85/140 86/86/141 76/76/142
f 77/77/143 87/87/144 78/78/145
f 78/78/145 87/87/144 80/80/146
f 88/88/147 77/77/148 83/83/149
f 84/84/150 89/89/151 88/88/147 82/82/152
f 88/88/147 83/83/149 82/82/152
f 87/87/153 77/77/148 88/88/147 90/90/154
f 75/75/123 91/91/155 84/84/137
f 80/80/156 92/92/156 81/81/156
f 92/92/157 93/93/158 85/85/140 81/81/139
f 90/90/154 92/92/159 80/80/160 87/87/153
f 89/89/151 94/94/161 90/90/154 88/88/147
f 90/90/154 93/93/162 92/92/159
f 85/85/140 65/65/163 95/95/164 86/86/141
f 66/66/113 93/93/162 90/90/154 94/94/161
f 85/85/140 93/93/158 65/65/163
f 96/96/165 97/97/166 94/94/161 89/89/151
f 66/66/113 65/65/112 93/93/162
f 97/97/166 67/67/114 66/66/113 94/94/161
f 65/65/163 64/64/167 95/95/164
f 83/83/136 77/77/126 72/72/118 74/74/121
f 89/89/151 84/84/150 91/91/168 96/96/165
f 98/98/169 99/99/170 100/100/171
f 101/101/172 98/98/173 102/102/174 103/103/175
f 101/101/172 99/99/176 98/98/173
f 104/104/177 105/105/178 106/106/179 107/107/180
f 103/103/175 102/102/174 104/104/177 107/107/180
f 100/100/171 108/108/181 109/109/182 98/98/169
f 109/109/183 110/110/184 104/104/185 102/102/186
f 106/106/179 105/105/178 111/111/187 112/112/188
f 112/112/189 111/111/190 113/113/191
f 114/114/192 105/105/193 104/104/185 110/110/184
f 109/109/183 115/115/194 110/110/184
f 116/116/195 117/117/196 115/115/197 118/118/198
f 116/116/199 119/119/200 117/117/201
f 120/120/202 121/121/203 117/117/201 119/119/200
f 117/117/204 114/114/192 115/115/194
f 115/115/197 122/122/205 118/118/198
f 121/121/206 114/114/192 117/117/204
f 113/113/191 111/111/190 121/121/203 120/120/202
f 105/105/193 114/114/192 121/121/206 111/111/207
f 108/108/181 122/122/205 115/115/197 109/109/182
f 109/109/183 102/102/186 98/98/208
f 115/115/194 114/114/192 110/110/184
