# Blender v2.79 (sub 0) OBJ File: 'rocks.blend'
# www.blender.org
mtllib rock_04.mtl
o rock_4_Cube.023
v 0.684251 -0.392087 0.025946
v 0.039272 -0.618457 -0.418260
v 0.327679 0.611369 -0.162763
v 0.392165 -0.610811 -0.034169
v -0.292956 -0.554474 -0.627351
v -0.422929 0.624807 -0.544269
v 0.101065 0.247384 -1.290870
v -0.099268 -0.075239 0.500126
v 0.781440 0.127588 -0.005374
v -0.745639 0.029831 -0.779799
v -0.226765 0.168530 -1.197656
v -0.504949 -0.075111 0.085510
v 0.805480 0.124539 -0.396837
v 0.579060 0.582590 -0.106888
v 0.267182 0.413026 0.490840
v -0.694626 -0.193063 -0.812613
v -0.816199 -0.125021 -0.460202
v 0.304539 -0.556203 0.730439
v 0.487408 -0.411712 1.030527
v 0.448600 -0.329095 1.126416
v -0.023730 -0.600502 0.316168
v 0.821595 0.525241 -0.722953
v 0.600970 -0.357307 0.948878
v 0.703292 -0.320584 0.733192
v 0.695665 -0.200500 0.963651
v -0.196267 -0.217048 -1.216208
v -0.203392 -0.339267 -1.139729
v -0.898404 0.255585 -0.215278
v -0.898858 0.253656 -0.221876
v 0.490144 0.744128 -1.171855
v 0.490711 0.742593 -1.176279
v -0.467984 -0.615645 0.022169
v -0.467193 -0.619930 0.018797
v 0.436192 0.211669 -1.249329
v 0.450777 0.209565 -1.238230
v 0.444793 0.210592 -1.245542
v 0.513135 0.353412 -1.220220
v 0.511870 0.363937 -1.221279
v 0.683706 0.681473 -1.150717
v 0.682929 0.680488 -1.154591
v 0.696364 -0.380720 -0.114026
v 0.715464 -0.298453 -0.223214
v 0.701256 -0.346646 -0.181444
v 0.472138 -0.454389 -0.595549
v 0.427928 -0.506664 -0.580382
v 0.449094 -0.490429 -0.584355
v 0.337518 -0.231401 -0.915942
v 0.789689 0.594468 -0.245673
v 0.787124 0.598641 -0.242587
v 0.773706 0.452374 -0.047387
v 0.778107 0.447644 -0.048179
v 0.199456 0.037752 1.192846
v 0.579873 -0.103971 1.086708
v 0.595529 -0.102546 1.079024
v 0.692503 -0.079867 0.948116
v 0.698366 -0.072251 0.925004
v 0.686634 -0.122134 1.029746
v 0.046417 0.724689 -1.182184
v 0.209351 0.739462 -1.178514
v 0.201011 0.743053 -1.175908
v 0.040572 0.732782 -1.138019
v -0.841557 -0.127369 -0.331447
v -0.748271 -0.277535 -0.254267
v -0.148208 -0.568791 0.440562
v -0.112402 -0.605539 0.433055
v -0.125933 -0.589168 0.434974
v -0.141996 0.620799 -1.168500
v -0.282553 0.533585 -1.159074
v -0.092719 0.708045 -1.047883
v -0.813027 0.479479 -0.720792
v -0.814665 0.474178 -0.721103
v -0.894654 0.338826 -0.364511
v -0.897177 0.340701 -0.357895
v -0.844243 0.307095 -0.108051
v -0.574901 0.295715 0.116714
v -0.338282 0.643240 -0.908485
v -0.791356 0.424321 -0.817535
v -0.098322 0.124528 0.512555
v -0.008207 0.727176 -1.109621
v -0.509427 -0.599589 -0.021425
v -0.610810 -0.506154 -0.131840
v 0.812216 0.622164 -0.674325
v 0.816626 0.618916 -0.675726
v 0.771469 0.647675 -0.928198
v 0.776868 0.643951 -0.923137
v 0.092972 0.197899 0.977651
v 0.091873 0.207514 0.965382
v 0.048559 0.220168 0.874981
v -0.590232 0.606804 -0.588191
v -0.562139 0.616665 -0.595081
v -0.464792 0.581121 -0.335014
v -0.461102 0.587659 -0.353026
v -0.132375 0.346490 0.387151
v -0.077645 0.361480 0.445851
v 0.091817 0.282246 0.818246
v 0.102950 0.283091 0.814544
v 0.085514 0.251592 0.888978
v 0.080125 0.255235 0.874823
v -0.636207 0.374726 -1.032748
v -0.582222 0.383907 -1.071459
v -0.657918 0.573636 -0.711048
v -0.654499 0.595818 -0.696701
v -0.628316 0.603232 -0.707559
v -0.646812 0.594477 -0.705243
v -0.085768 0.136547 0.517401
v -0.116760 0.149843 0.485274
v 0.021997 0.588762 -0.355771
v 0.047537 0.397509 0.449963
v -0.124853 0.412729 0.332038
v -0.005441 0.374385 0.525936
v -0.076075 0.393604 0.411830
v 0.055408 0.588902 -0.339655
v -0.466387 -0.350247 -1.115506
v -0.480482 -0.366051 -1.094191
v -0.509347 -0.359315 -1.083546
v 0.092951 -0.230518 -1.079151
v 0.092458 -0.238473 -1.071915
v -0.574109 0.144587 -1.077195
v -0.494065 -0.407048 -1.041130
v -0.528955 -0.376178 -1.039242
v -0.490034 -0.512942 -0.747329
v -0.460982 -0.522109 -0.733781
v -0.549832 -0.573155 -0.184810
v -0.559362 -0.567312 -0.182683
v -0.255570 -0.298921 -1.195014
v -0.266645 -0.321508 -1.186255
v -0.118017 -0.289707 -1.178493
v -0.128845 -0.272486 -1.188157
v 0.308129 -0.240920 -0.927343
v 0.324667 -0.236431 -0.920408
v -0.609855 0.360833 -1.068700
v -0.516883 -0.596343 -0.041535
v -0.501758 -0.605955 -0.025104
v 0.227807 -0.130128 1.197004
v 0.203903 -0.130075 1.186029
v 0.123847 -0.355589 0.826591
v 0.154213 -0.369546 0.851212
v 0.136448 -0.364335 0.839227
v -0.039235 -0.458221 0.591096
v -0.068742 -0.437381 0.571279
v -0.057893 -0.447390 0.581428
v 0.210679 -0.173077 1.186816
v 0.234064 -0.194659 1.198294
v 0.220575 -0.184125 1.197623
v 0.186173 0.029385 1.179026
v 0.208694 0.019893 1.191253
v 0.195125 0.023757 1.189703
vt 0.776499 0.457734
vt 0.805516 0.493445
vt 0.690615 0.544458
vt 0.596209 0.299087
vt 0.675543 0.389934
vt 0.565221 0.370215
vt 0.285236 0.093469
vt 0.120442 0.026570
vt 0.397686 0.010147
vt 0.839832 0.662250
vt 0.807988 0.778267
vt 0.765695 0.688062
vt 0.446418 0.123151
vt 0.438026 0.075220
vt 0.437814 0.315357
vt 0.363635 0.378599
vt 0.310548 0.254775
vt 0.905178 0.225181
vt 0.960569 0.052069
vt 0.992004 0.166896
vt 0.662680 0.193979
vt 0.705425 0.172833
vt 0.705487 0.213726
vt 0.148207 0.185811
vt 0.080352 0.064855
vt 0.481538 0.018202
vt 0.988754 0.962063
vt 0.896660 0.938349
vt 0.989880 0.908885
vt 0.167215 0.448978
vt 0.165847 0.323760
vt 0.219283 0.321114
vt 0.312730 0.159306
vt 0.290140 0.214876
vt 0.280215 0.174647
vt 0.840712 0.851885
vt 0.719251 0.866758
vt 0.674671 0.844756
vt 0.614305 0.945381
vt 0.545400 0.914673
vt 0.086182 0.032199
vt 0.654979 0.222427
vt 0.707901 0.272079
vt 0.524341 0.462480
vt 0.564311 0.477700
vt 0.547997 0.495769
vt 0.176684 0.180395
vt 0.171970 0.219816
vt 0.347743 0.879723
vt 0.388964 0.782780
vt 0.463296 0.851238
vt 0.696565 0.048981
vt 0.702659 0.105476
vt 0.756420 0.293668
vt 0.830189 0.176500
vt 0.783669 0.350747
vt 0.171678 0.890790
vt 0.153436 0.857262
vt 0.199555 0.805071
vt 0.312237 0.665444
vt 0.342677 0.752165
vt 0.304539 0.756317
vt 0.379771 0.947442
vt 0.822661 0.051181
vt 0.894263 0.031841
vt 0.702113 0.313986
vt 0.897066 0.420078
vt 0.988952 0.307713
vt 0.981073 0.496168
vt 0.633119 0.250015
vt 0.692022 0.621583
vt 0.658352 0.698255
vt 0.598086 0.638939
vt 0.040145 0.517466
vt 0.041752 0.379755
vt 0.745757 0.600476
vt 0.279784 0.561230
vt 0.297996 0.504773
vt 0.445751 0.308423
vt 0.472451 0.197960
vt 0.503524 0.287899
vt 0.399763 0.637088
vt 0.365265 0.629758
vt 0.477567 0.588419
vt 0.853952 0.927784
vt 0.712044 0.933849
vt 0.753119 0.074177
vt 0.770497 0.148724
vt 0.920874 0.761993
vt 0.958718 0.803817
vt 0.052177 0.750754
vt 0.088781 0.831295
vt 0.036055 0.850601
vt 0.566444 0.710274
vt 0.663651 0.802070
vt 0.495004 0.454909
vt 0.421480 0.440017
vt 0.468174 0.179919
vt 0.259242 0.284184
vt 0.509195 0.336996
vt 0.106890 0.890542
vt 0.010919 0.903715
vt 0.029631 0.871145
vt 0.185679 0.182665
vt 0.210963 0.170964
vt 0.451179 0.981290
vt 0.546621 0.961714
vt 0.968460 0.845989
vt 0.139925 0.815816
vt 0.035205 0.660740
vt 0.109155 0.797080
vt 0.577026 0.018982
vt 0.651190 0.029848
vt 0.120179 0.729264
vt 0.798360 0.026329
vt 0.836516 0.019772
vt 0.461041 0.667595
vt 0.575583 0.689554
vt 0.570787 0.700286
vt 0.726516 0.783009
vt 0.668577 0.722684
vt 0.974777 0.841939
vt 0.679496 0.845637
vt 0.677098 0.934162
vt 0.678128 0.796848
vt 0.469978 0.700035
vt 0.371059 0.760909
vt 0.463930 0.680635
vt 0.671025 0.799082
vt 0.450674 0.986012
vt 0.121682 0.021737
vt 0.397144 0.005358
vt 0.326401 0.398152
vt 0.336169 0.233932
vt 0.699471 0.047471
vt 0.707674 0.105344
vt 0.608559 0.430506
vt 0.579227 0.427566
vt 0.766851 0.338266
vt 0.774762 0.333906
vt 0.679716 0.403183
vt 0.850634 0.559443
vt 0.808730 0.490311
vt 0.241811 0.276146
vt 0.238521 0.288510
vt 0.840526 0.587817
vt 0.845877 0.559933
vt 0.341706 0.387332
vt 0.235627 0.337722
vt 0.240553 0.324764
vt 0.692663 0.498853
vt 0.777223 0.453827
vt 0.546891 0.352139
vt 0.552724 0.362379
vt 0.520207 0.459011
vt 0.651642 0.025533
vt 0.577258 0.014479
vt 0.005735 0.908502
vt 0.110468 0.894458
vt 0.144318 0.204968
vt 0.077210 0.174217
vt 0.447833 0.469700
vt 0.205606 0.147089
vt 0.667077 0.404500
vt 0.545571 0.367961
vt 0.503423 0.357319
vt 0.314401 0.210912
vt 0.690666 0.776117
vt 0.701266 0.806367
vt 0.747989 0.041114
vt 0.750896 0.052087
vt 0.736816 0.050055
vt 0.763476 0.333788
vt 0.750878 0.144549
vt 0.731915 0.063067
vt 0.747843 0.295752
vt 0.896011 0.019652
vt 0.832481 0.007262
vt 0.798532 0.012745
vt 0.664470 0.709654
vt 0.638130 0.490496
vt 0.352459 0.442419
vt 0.422216 0.496068
vt 0.866757 0.436217
vt 0.889485 0.490029
vt 0.882169 0.486750
vt 0.461012 0.623201
vt 0.469212 0.626570
vt 0.468921 0.630003
vt 0.005392 0.905048
vt 0.488127 0.578316
vt 0.433239 0.489791
vt 0.497280 0.579015
vt 0.026172 0.852357
vt 0.362115 0.435788
vt 0.043391 0.747213
vt 0.882911 0.423988
vt 0.891854 0.732060
vt 0.093430 0.354753
vt 0.139678 0.893097
vt 0.135570 0.545371
vt 0.012538 0.481925
vt 0.031065 0.652938
vn -0.9972 -0.0718 0.0184
vn -0.9507 -0.1906 -0.2444
vn -0.9187 -0.3369 -0.2059
vn -0.3110 0.9303 -0.1944
vn -0.4814 0.5989 -0.6400
vn -0.3566 0.5538 -0.7524
vn 0.1584 0.9054 0.3940
vn 0.5421 0.7271 0.4213
vn 0.5534 0.6882 0.4691
vn -0.6131 0.1758 -0.7702
vn -0.2133 -0.0442 -0.9760
vn -0.6229 -0.0630 -0.7798
vn -0.0560 0.9794 0.1942
vn 0.1913 0.9301 0.3134
vn -0.3102 0.8903 0.3333
vn -0.5899 0.3870 0.7087
vn -0.6337 0.4623 0.6201
vn 0.0620 -0.9687 -0.2401
vn 0.3616 -0.7031 -0.6122
vn 0.3233 -0.8537 -0.4082
vn -0.1115 0.9933 -0.0288
vn -0.0271 0.9178 -0.3961
vn -0.1925 0.6924 -0.6953
vn -0.2368 0.8058 0.5427
vn 0.4895 0.3909 0.7794
vn 0.5197 0.8140 0.2594
vn 0.6615 0.3285 -0.6741
vn 0.2667 0.0565 -0.9621
vn 0.1479 0.6477 -0.7474
vn -0.7215 -0.1575 0.6742
vn -0.8612 -0.4276 0.2749
vn -0.7532 -0.5089 0.4168
vn -0.1513 0.9578 0.2443
vn -0.6279 0.5542 0.5464
vn -0.3526 0.8827 0.3107
vn -0.0551 -0.0947 -0.9940
vn 0.3701 -0.4835 -0.7932
vn 0.6756 -0.1951 -0.7110
vn 0.9188 0.2978 -0.2589
vn 0.9722 -0.1251 -0.1978
vn 0.7222 0.0971 0.6848
vn -0.2565 0.9610 -0.1029
vn -0.3611 0.5473 -0.7550
vn -0.6594 -0.7472 0.0837
vn -0.6826 -0.7270 -0.0744
vn -0.1699 0.8573 0.4859
vn -0.8690 0.3586 0.3410
vn 0.9959 -0.0666 0.0615
vn 0.9246 -0.3321 -0.1863
vn 0.9649 -0.2054 -0.1633
vn 0.5929 0.7903 -0.1546
vn 0.1480 0.9861 -0.0756
vn -0.3887 -0.9139 -0.1166
vn 0.0145 -0.9604 -0.2780
vn -0.4087 -0.8800 0.2420
vn 0.9192 0.3104 0.2424
vn 0.8603 -0.2888 0.4200
vn 0.8517 -0.5133 0.1056
vn 0.3338 -0.9426 -0.0018
vn 0.8433 -0.5354 -0.0466
vn 0.8279 -0.5590 0.0452
vn 0.9175 0.3069 0.2529
vn 0.2146 -0.8791 -0.4256
vn 0.3877 -0.7443 -0.5437
vn -0.4090 0.4562 -0.7903
vn 0.0450 -0.9909 0.1268
vn 0.0141 -0.9340 0.3568
vn -0.2927 0.9510 -0.0999
vn -0.8836 -0.3244 -0.3377
vn -0.7762 -0.5025 -0.3807
vn -0.5067 -0.8311 -0.2292
vn -0.7382 0.3598 0.5706
vn -0.9305 -0.3376 0.1419
vn -0.9092 -0.1319 -0.3948
vn -0.7841 0.1932 0.5898
vn -0.8156 -0.0400 0.5772
vn -0.1634 0.9566 0.2411
vn -0.0592 0.9791 0.1946
vn -0.0339 0.9930 0.1126
vn -0.6379 0.4631 0.6153
vn -0.8316 -0.1011 0.5461
vn 0.2417 -0.2458 -0.9387
vn -0.3059 -0.8432 -0.4420
vn -0.0941 -0.9642 -0.2478
vn -0.4498 -0.7244 0.5223
vn 0.1863 -0.5354 0.8238
vn -0.1310 -0.4248 0.8957
vn 0.6132 -0.5385 -0.5779
vn 0.7388 -0.4144 -0.5313
vn -0.9480 0.3182 -0.0014
vn -0.1279 0.9748 0.1829
vn -0.5506 0.3740 0.7463
vn -0.1983 0.9749 0.1008
vn 0.4490 0.0378 0.8927
vn 0.1102 0.0238 0.9936
vn 0.1093 0.0376 0.9933
vn -0.5323 0.7861 0.3139
vn -0.3459 0.8691 0.3535
vn 0.9572 0.2568 0.1329
vn 0.8890 0.4578 0.0055
vn 0.0143 0.3961 -0.9181
vn 0.6593 -0.6453 0.3859
vn -0.4746 -0.6504 0.5930
vn 0.2447 -0.8068 0.5377
vn 0.3558 0.9324 0.0632
vn 0.4083 0.9127 -0.0150
vn -0.0643 -0.6268 -0.7765
vn 0.3731 -0.6065 -0.7021
vn 0.4508 -0.6151 -0.6468
vn 0.0576 -0.0510 -0.9970
vn -0.3518 -0.4047 -0.8441
vn 0.7341 -0.4799 -0.4804
vn 0.8402 -0.4986 -0.2132
vn 0.5903 -0.7026 -0.3973
vn 0.4968 -0.3603 -0.7895
vn -0.6272 -0.4221 0.6544
vn -0.4122 0.8088 0.4193
vn -0.8274 0.2973 -0.4764
vn -0.7320 0.6477 -0.2113
vn -0.4321 -0.9017 0.0172
vn -0.7737 0.4609 0.4347
vn -0.9606 0.1451 -0.2369
vn -0.5194 -0.5847 0.6232
vn -0.7224 -0.3645 0.5876
vn -0.9464 0.0278 0.3216
vn -0.3227 0.9216 -0.2154
vn -0.4517 0.6522 -0.6087
vn -0.1364 0.4641 0.8752
vn 0.1837 0.8921 0.4128
vn -0.7102 0.3716 -0.5979
vn -0.4931 0.8626 -0.1126
vn -0.4120 0.8891 0.1993
vn -0.3683 0.8007 0.4725
vn -0.1234 -0.2184 -0.9680
vn 0.3099 -0.1922 -0.9311
vn -0.2383 -0.7174 -0.6546
vn -0.6488 -0.3748 -0.6623
vn -0.8793 -0.3960 0.2645
vn -0.8101 -0.0558 0.5836
vn -0.8232 -0.2324 0.5180
vn -0.6914 -0.3037 0.6555
vn -0.8474 0.0559 0.5279
vn -0.5307 -0.0387 0.8466
vn -0.8686 -0.2087 0.4494
vn -0.6625 -0.5167 0.5423
vn -0.5108 -0.3009 0.8054
vn -0.0464 -0.8694 0.4919
usemtl mat_rock_04.001
s 1
f 29/1/1 72/2/2 17/3/3
f 76/4/4 100/5/5 101/6/6
f 15/7/7 55/8/8 50/9/9
f 131/10/10 11/11/11 118/12/12
f 3/13/13 15/7/7 14/14/14
f 91/15/15 75/16/16 93/17/17
f 2/18/18 129/19/19 45/20/20
f 61/21/21 60/22/22 58/23/23
f 87/24/24 54/25/25 55/8/8
f 49/26/26 14/14/14 50/9/9
f 40/27/27 38/28/28 31/29/29
f 12/30/30 81/31/31 80/32/32
f 108/33/33 94/34/34 110/35/35
f 11/11/11 7/36/36 116/37/37
f 37/38/38 85/39/39 22/40/40
f 55/8/8 54/25/25 57/41/41
f 79/42/42 58/23/23 67/43/43
f 132/44/44 81/45/31 124/46/45
f 97/47/46 88/48/47 87/24/24
f 9/49/48 42/50/49 13/51/50
f 3/13/13 39/52/51 30/53/52
f 123/54/53 5/55/54 33/56/55
f 56/57/56 25/58/57 24/59/58
f 4/60/59 41/61/60 1/62/61
f 9/49/48 51/63/62 56/57/56
f 27/64/63 117/65/64 5/55/54
f 14/14/14 15/7/7 50/9/9
f 76/4/4 67/43/43 68/66/65
f 21/67/66 4/68/59 18/69/67
f 67/43/43 69/70/68 79/42/42
f 16/71/69 120/72/70 121/73/71
f 74/74/72 62/75/73 12/30/30
f 16/71/69 17/3/3 10/76/74
f 78/77/75 12/30/30 8/78/76
f 92/79/77 107/80/78 6/81/79
f 86/82/80 88/83/47 135/84/81
f 116/37/37 34/85/82 129/86/19
f 119/87/83 27/64/63 122/88/84
f 67/89/43 58/90/23 7/36/36
f 10/76/74 131/10/10 118/12/12
f 137/91/85 20/92/86 143/93/87
f 47/94/88 35/95/89 13/51/50
f 73/96/90 74/97/72 91/15/15
f 112/98/91 3/13/13 30/53/52
f 93/17/17 75/16/16 106/99/92
f 90/100/93 92/79/77 6/81/79
f 53/101/94 146/102/95 134/103/96
f 88/48/47 98/104/97 95/105/98
f 22/40/40 48/106/99 13/51/50
f 83/107/100 22/40/40 85/39/39
f 33/56/55 5/55/54 2/18/18
f 76/4/4 6/81/79 107/80/78
f 59/108/101 38/28/28 7/36/36
f 25/58/57 53/101/94 23/109/102
f 137/91/85 139/110/103 19/111/104
f 14/14/14 82/112/105 84/113/106
f 23/109/102 24/59/58 25/58/57
f 18/114/67 24/59/58 23/109/102
f 27/64/63 126/115/107 127/116/108
f 45/117/20 129/118/19 130/119/109
f 118/12/12 26/120/110 113/121/111
f 60/122/22 31/29/29 59/108/101
f 130/119/109 35/95/89 47/94/88
f 38/123/28 40/124/27 37/38/38
f 37/38/38 34/125/82 38/123/28
f 44/126/112 43/127/113 46/128/114
f 43/127/113 45/117/20 46/128/114
f 44/126/112 130/119/109 47/94/88
f 129/118/19 36/129/115 130/119/109
f 51/63/62 48/106/99 49/130/26
f 50/9/9 56/131/56 51/132/62
f 64/133/116 8/78/76 12/30/30
f 55/8/8 57/41/41 56/131/56
f 91/15/15 109/134/117 92/79/77
f 30/53/52 40/135/27 31/136/29
f 101/6/6 77/137/118 70/138/119
f 80/139/32 133/140/120 33/56/55
f 100/5/5 68/66/65 131/141/10
f 70/142/119 72/2/2 73/143/90
f 88/48/47 105/144/121 78/145/75
f 77/146/118 71/147/122 70/142/119
f 66/148/123 32/149/124 33/150/55
f 29/1/1 62/151/73 28/152/125
f 73/143/90 29/1/1 28/152/125
f 103/153/126 76/4/4 104/154/127
f 76/4/4 101/6/6 104/154/127
f 80/32/32 33/150/55 32/149/124
f 81/45/31 132/44/44 80/155/32
f 82/112/105 85/156/39 84/113/106
f 84/113/106 40/135/27 39/52/51
f 82/112/105 49/26/26 83/157/100
f 106/99/92 75/16/16 78/145/75
f 52/158/128 53/101/94 54/159/25
f 86/160/80 52/161/128 87/24/24
f 74/97/72 73/96/90 28/162/125
f 110/35/35 95/105/98 96/163/129
f 99/164/130 100/5/5 131/141/10
f 102/165/131 103/153/126 104/154/127
f 105/144/121 106/99/92 78/145/75
f 92/79/77 89/166/132 91/15/15
f 110/35/35 15/7/7 108/33/33
f 96/163/129 98/104/97 97/47/46
f 99/164/130 101/6/6 100/5/5
f 103/153/126 89/166/132 90/100/93
f 94/34/34 106/99/92 105/144/121
f 76/4/4 90/100/93 6/81/79
f 111/167/133 93/17/17 94/34/34
f 112/98/91 109/134/117 111/167/133
f 108/33/33 3/13/13 112/98/91
f 112/98/91 111/167/133 108/33/33
f 125/168/134 26/120/110 128/169/135
f 113/170/111 114/171/136 115/172/137
f 132/173/44 133/140/120 80/139/32
f 119/87/83 121/174/71 120/175/70
f 119/87/83 115/172/137 114/171/136
f 124/176/45 122/88/84 123/54/53
f 113/170/111 126/115/107 114/171/136
f 116/177/37 127/116/108 128/178/135
f 132/173/44 123/54/53 133/140/120
f 125/179/134 127/116/108 126/115/107
f 16/71/69 118/12/12 115/180/137
f 1/62/61 41/61/60 9/49/48
f 41/61/60 42/50/49 9/49/48
f 17/3/3 121/73/71 124/46/45
f 124/46/45 81/45/31 63/181/138
f 140/182/139 136/183/140 8/78/76
f 66/184/123 139/185/103 141/186/141
f 145/187/142 147/188/143 52/189/128
f 147/190/143 146/102/95 52/158/128
f 142/191/144 138/192/145 144/193/146
f 144/194/146 137/91/85 143/93/87
f 136/183/140 141/195/141 138/192/145
f 138/196/145 139/110/103 137/91/85
f 142/191/144 144/193/146 135/84/81
f 146/102/95 144/194/146 134/103/96
f 147/188/143 135/84/81 144/193/146
f 136/183/140 135/84/81 8/78/76
f 139/185/103 21/67/66 18/69/67
f 64/133/116 141/195/141 140/182/139
f 32/149/124 64/133/116 12/30/30
f 19/111/104 139/110/103 18/114/67
f 4/68/59 2/18/18 45/20/20
f 33/56/55 21/67/66 65/197/147
f 10/76/74 17/3/3 72/2/2
f 62/151/73 29/1/1 17/3/3
f 72/2/2 71/147/122 10/76/74
f 77/146/118 10/76/74 71/147/122
f 76/4/4 68/66/65 100/5/5
f 131/10/10 68/198/65 11/11/11
f 2/18/18 117/65/64 129/19/19
f 15/7/7 96/163/129 55/8/8
f 97/47/46 87/24/24 96/163/129
f 52/161/128 54/25/25 87/24/24
f 55/8/8 96/163/129 87/24/24
f 80/32/32 32/149/124 12/30/30
f 12/30/30 63/199/138 81/31/31
f 70/138/119 104/154/127 101/6/6
f 108/33/33 111/167/133 94/34/34
f 116/37/37 128/169/135 26/120/110
f 26/120/110 11/11/11 116/37/37
f 22/40/40 13/51/50 35/95/89
f 35/95/89 37/38/38 22/40/40
f 40/124/27 85/39/39 37/38/38
f 86/82/80 145/187/142 52/189/128
f 79/42/42 61/21/21 58/23/23
f 97/47/46 98/104/97 88/48/47
f 3/13/13 14/14/14 39/52/51
f 33/56/55 133/140/120 123/54/53
f 123/54/53 122/88/84 5/55/54
f 24/59/58 1/62/61 9/49/48
f 9/49/48 56/57/56 24/59/58
f 57/200/41 25/58/57 56/57/56
f 4/60/59 45/117/20 41/61/60
f 2/18/18 5/55/54 117/65/64
f 27/64/63 127/116/108 117/65/64
f 76/4/4 69/70/68 67/43/43
f 21/67/66 2/18/18 4/68/59
f 63/199/138 12/30/30 62/75/73
f 75/201/16 74/74/72 12/30/30
f 28/202/125 62/75/73 74/74/72
f 78/77/75 75/201/16 12/30/30
f 92/79/77 109/134/117 107/80/78
f 8/78/76 135/84/81 88/83/47
f 145/187/142 86/82/80 135/84/81
f 88/83/47 78/77/75 8/78/76
f 116/37/37 7/36/36 34/85/82
f 5/55/54 122/88/84 27/64/63
f 119/87/83 114/171/136 27/64/63
f 126/115/107 27/64/63 114/171/136
f 7/36/36 11/11/11 68/198/65
f 68/198/65 67/89/43 7/36/36
f 10/76/74 77/146/118 131/10/10
f 137/91/85 19/111/104 20/92/86
f 13/51/50 42/50/49 44/126/112
f 44/126/112 47/94/88 13/51/50
f 89/166/132 102/165/131 70/138/119
f 70/138/119 73/96/90 89/166/132
f 74/97/72 75/16/16 91/15/15
f 91/15/15 89/166/132 73/96/90
f 30/53/52 60/22/22 112/98/91
f 61/21/21 112/98/91 60/22/22
f 95/105/98 94/34/34 105/144/121
f 105/144/121 88/48/47 95/105/98
f 9/49/48 13/51/50 51/63/62
f 22/40/40 83/107/100 48/106/99
f 48/106/99 51/63/62 13/51/50
f 107/80/78 61/21/21 79/42/42
f 69/70/68 76/4/4 107/80/78
f 107/80/78 79/42/42 69/70/68
f 34/85/82 7/36/36 38/28/28
f 58/90/23 59/108/101 7/36/36
f 31/29/29 38/28/28 59/108/101
f 19/111/104 23/109/102 20/92/86
f 25/58/57 57/200/41 53/101/94
f 53/101/94 134/103/96 20/92/86
f 20/92/86 23/109/102 53/101/94
f 134/103/96 143/93/87 20/92/86
f 99/164/130 131/141/10 77/137/118
f 84/113/106 39/52/51 14/14/14
f 14/14/14 49/26/26 82/112/105
f 23/109/102 19/111/104 18/114/67
f 18/114/67 4/60/59 1/62/61
f 1/62/61 24/59/58 18/114/67
f 46/128/114 45/117/20 130/119/109
f 125/168/134 113/121/111 26/120/110
f 118/12/12 11/11/11 26/120/110
f 60/22/22 30/53/52 31/136/29
f 130/119/109 36/129/115 35/95/89
f 35/95/89 36/129/115 37/38/38
f 37/38/38 36/129/115 34/125/82
f 44/126/112 42/50/49 43/127/113
f 43/127/113 41/61/60 45/117/20
f 44/126/112 46/128/114 130/119/109
f 129/118/19 34/125/82 36/129/115
f 50/9/9 51/132/62 49/26/26
f 50/9/9 55/8/8 56/131/56
f 64/133/116 140/182/139 8/78/76
f 54/159/25 53/101/94 57/200/41
f 60/122/22 59/108/101 58/90/23
f 91/15/15 93/17/17 109/134/117
f 30/53/52 39/52/51 40/135/27
f 101/6/6 99/164/130 77/137/118
f 70/142/119 71/147/122 72/2/2
f 102/165/131 104/154/127 70/138/119
f 65/197/147 66/184/123 33/56/55
f 66/148/123 64/133/116 32/149/124
f 73/143/90 72/2/2 29/1/1
f 82/112/105 83/157/100 85/156/39
f 84/113/106 85/156/39 40/135/27
f 83/107/100 49/130/26 48/106/99
f 88/48/47 86/160/80 87/24/24
f 52/158/128 146/102/95 53/101/94
f 110/35/35 94/34/34 95/105/98
f 92/79/77 90/100/93 89/166/132
f 110/35/35 96/163/129 15/7/7
f 96/163/129 95/105/98 98/104/97
f 103/153/126 102/165/131 89/166/132
f 94/34/34 93/17/17 106/99/92
f 76/4/4 103/153/126 90/100/93
f 111/167/133 109/134/117 93/17/17
f 112/98/91 107/80/78 109/134/117
f 108/33/33 15/7/7 3/13/13
f 107/80/78 112/98/91 61/21/21
f 113/121/111 115/180/137 118/12/12
f 119/87/83 122/88/84 121/174/71
f 119/87/83 120/175/70 115/172/137
f 124/176/45 121/174/71 122/88/84
f 113/170/111 125/179/134 126/115/107
f 116/177/37 117/65/64 127/116/108
f 132/173/44 124/176/45 123/54/53
f 117/65/64 116/177/37 129/19/19
f 125/179/134 128/178/135 127/116/108
f 115/180/137 120/72/70 16/71/69
f 16/71/69 10/76/74 118/12/12
f 41/61/60 43/127/113 42/50/49
f 17/3/3 16/71/69 121/73/71
f 63/181/138 62/151/73 17/3/3
f 17/3/3 124/46/45 63/181/138
f 66/184/123 65/197/147 139/185/103
f 142/191/144 136/183/140 138/192/145
f 144/194/146 138/196/145 137/91/85
f 136/183/140 140/182/139 141/195/141
f 138/196/145 141/203/141 139/110/103
f 144/194/146 143/93/87 134/103/96
f 146/102/95 147/190/143 144/194/146
f 147/188/143 145/187/142 135/84/81
f 136/183/140 142/191/144 135/84/81
f 139/185/103 65/197/147 21/67/66
f 64/133/116 66/148/123 141/195/141
f 33/56/55 2/18/18 21/67/66
