# Blender v2.79 (sub 0) OBJ File: 'rocks.blend'
# www.blender.org
mtllib rock_03.mtl
o rock_3_Cube.018
v 0.068346 -0.325683 -0.136242
v -0.040814 -0.023994 0.797819
v 0.070644 0.452603 0.269142
v -0.230730 0.137672 0.822665
v -0.195602 0.062655 0.832329
v -0.608995 -0.358816 -0.517174
v 0.405783 -0.206268 -0.829737
v -0.020761 -0.196576 0.619305
v -0.002169 0.413932 0.800128
v 0.739150 0.430134 0.140827
v 0.793187 0.390173 0.167203
v 0.766808 0.418243 0.147691
v -0.252103 -0.226763 -0.870335
v 0.246982 0.465243 0.631663
v -0.490023 -0.336203 0.193559
v -0.684162 -0.060906 0.338138
v -0.686191 -0.055097 0.340178
v 0.922473 -0.063653 0.047933
v 0.914720 -0.066281 0.065705
v 0.918532 -0.064831 0.057180
v 0.909096 0.130617 0.091729
v 0.908000 0.129830 0.103265
v 0.427562 -0.325109 0.470208
v 0.854015 0.298265 0.224581
v 0.853158 0.304611 0.219694
v 0.193203 -0.199301 0.643702
v 0.186751 -0.196773 0.645787
v 0.189541 -0.200933 0.643526
v 0.297265 0.164732 0.803763
v 0.302537 0.152240 0.802650
v 0.299889 0.156739 0.803947
v -0.165860 0.401404 0.719058
v -0.175172 0.409078 0.701820
v -0.186741 0.388684 0.710153
v 0.096999 0.142826 0.898164
v 0.101623 0.153009 0.894859
v -0.807941 -0.023914 -0.764288
v -0.800063 -0.027309 -0.770571
v -0.450248 0.290020 0.535265
v -0.470962 0.286249 0.505967
v -0.679983 0.080725 0.342962
v -0.824802 -0.055903 -0.055503
v -0.452460 0.366006 -0.586749
v -0.438462 0.364897 -0.593393
v -0.585563 0.226007 -0.808659
v -0.644180 0.160863 -0.807191
v -0.375425 0.444949 -0.277460
v -0.385802 0.414535 -0.454737
v -0.402882 0.414292 -0.444218
v -0.396562 0.415286 -0.447907
v 0.810772 -0.010377 -0.436213
v 0.341482 -0.065450 -0.912125
v 0.026511 0.400607 -0.796658
v 0.300778 0.398499 -0.560362
v 0.301501 0.403249 -0.551104
v 0.162521 0.015898 -0.963515
v 0.735241 0.421940 -0.138411
v 0.904035 -0.169417 0.048619
v 0.906235 -0.170753 0.041413
v 0.399337 0.245450 0.740517
v 0.540927 0.310956 0.605898
v 0.538608 0.315109 0.608107
v 0.720290 -0.299654 0.187297
v 0.720610 -0.302810 0.183573
v -0.264627 0.075731 0.808848
v -0.261123 0.091574 0.810592
v -0.213017 0.113629 0.848623
v -0.204293 0.113548 0.853702
v -0.437348 0.008913 -0.937909
v -0.412522 0.010073 -0.943686
v -0.271903 -0.214408 -0.868423
v -0.250171 -0.211093 -0.875541
v -0.640294 0.162414 -0.811967
v -0.619033 -0.351386 -0.510170
v -0.613704 -0.348996 -0.528197
v -0.901572 -0.137919 -0.625376
v -0.904480 -0.142178 -0.608145
v -0.909994 -0.136886 -0.617237
v -0.320455 0.241357 -0.902446
v 0.012898 0.388940 -0.814717
v 0.014783 0.392719 -0.807026
v 0.023075 0.388857 -0.814192
v -0.581239 0.227070 -0.811116
v 0.029789 0.396122 -0.802975
v -0.009341 0.167067 -0.927532
v -0.004941 0.168510 -0.924755
v -0.389687 0.401980 0.376741
v 0.374463 0.372504 0.670775
v 0.387688 0.375819 0.661674
v 0.251329 0.449963 0.641902
v 0.260742 0.451709 0.626388
v 0.241344 0.457543 0.644731
v 0.399007 0.253761 0.739818
v 0.785040 0.104034 -0.337721
v 0.807377 0.101787 -0.306055
v 0.764886 0.419360 -0.122753
v 0.743732 0.415965 -0.160540
v 0.828961 -0.081784 -0.430529
v 0.825676 -0.069733 -0.445689
v 0.834508 -0.064817 -0.424622
v 0.516508 -0.226151 -0.751852
v 0.402678 -0.209305 -0.825275
v 0.808232 -0.014899 -0.440218
v 0.903383 -0.175253 0.036365
v 0.907526 -0.164669 0.037520
v 0.592397 -0.310341 -0.341198
v 0.582821 -0.314377 -0.338138
v 0.753941 -0.297134 0.017818
v 0.749357 -0.301113 0.031832
v 0.854893 -0.227955 0.075965
v 0.524010 -0.229510 -0.740933
v 0.512182 -0.230810 -0.750776
v -0.258391 0.459184 -0.449842
v -0.288952 0.433785 -0.515197
v -0.368056 0.448816 -0.248051
v -0.371275 0.446650 -0.307510
v 0.034291 0.416090 -0.765750
v 0.765876 -0.095827 0.200007
v 0.494455 0.051266 0.550564
v -0.027275 0.263529 0.899009
v -0.020530 0.273267 0.896667
v -0.032202 0.274501 0.894392
v -0.011109 0.402303 0.814055
v 0.001415 0.404284 0.812843
v -0.003678 0.412367 0.810636
v -0.200069 0.138370 0.848223
v -0.823053 -0.053081 -0.051252
v -0.604922 0.195254 -0.517021
v -0.502578 0.284053 0.262632
v -0.208032 0.235528 0.784967
vt 0.031387 0.920844
vt 0.026598 0.923941
vt 0.024897 0.895160
vt 0.674718 0.725317
vt 0.614347 0.771796
vt 0.558275 0.706476
vt 0.761750 0.463000
vt 0.653796 0.428473
vt 0.717990 0.388795
vt 0.905187 0.604318
vt 0.961654 0.607560
vt 0.962420 0.611629
vt 0.891621 0.973494
vt 0.749519 0.954318
vt 0.852412 0.763845
vt 0.641734 0.564733
vt 0.482399 0.743613
vt 0.513401 0.657877
vt 0.211045 0.130296
vt 0.125473 0.074299
vt 0.212411 0.039252
vt 0.741806 0.172914
vt 0.724513 0.335134
vt 0.590298 0.296691
vt 0.336246 0.724604
vt 0.343413 0.771226
vt 0.204631 0.747708
vt 0.512797 0.593235
vt 0.552441 0.452942
vt 0.520878 0.597266
vt 0.514761 0.133439
vt 0.487068 0.193525
vt 0.426977 0.089987
vt 0.777432 0.459808
vt 0.740109 0.374124
vt 0.806992 0.384569
vt 0.832412 0.277449
vt 0.803987 0.261318
vt 0.808807 0.218857
vt 0.894605 0.616186
vt 0.957715 0.617495
vt 0.121468 0.510271
vt 0.160577 0.336429
vt 0.327803 0.459569
vt 0.976755 0.710681
vt 0.488106 0.330079
vt 0.667902 0.831383
vt 0.421001 0.027271
vt 0.491096 -0.000973
vt 0.521870 0.116633
vt 0.647550 0.943333
vt 0.333378 0.254037
vt 0.149780 0.289486
vt 0.330930 0.240278
vt 0.682536 0.122797
vt 0.538038 0.160955
vt 0.619316 0.069856
vt 0.160682 0.982469
vt 0.214834 0.988691
vt 0.157151 0.993384
vt 0.387874 0.917495
vt 0.416487 0.847839
vt 0.433905 0.847106
vt 0.166696 0.203540
vt 0.140185 0.286758
vt 0.113733 0.205750
vt 0.185493 0.250762
vt 0.225735 0.211275
vt 0.953141 0.914014
vt 0.787312 0.302198
vt 0.500873 0.786898
vt 0.478779 0.761441
vt 0.521103 0.770470
vt 0.329657 0.208848
vt 0.395810 0.186311
vt 0.139304 0.888639
vt 0.106914 0.967886
vt 0.045477 0.287407
vt 0.042899 0.206489
vt 0.506574 0.833879
vt 0.513812 0.889302
vt 0.531562 0.745587
vt 0.529409 0.769805
vt 0.044302 0.822843
vt 0.036717 0.819546
vt 0.536792 0.166878
vt 0.081832 0.779369
vt 0.967413 0.923976
vt 0.092835 0.776343
vt 0.094385 0.686367
vt 0.421687 0.133107
vt 0.388421 0.179522
vt 0.328551 0.203230
vt 0.042280 0.294920
vt 0.138896 0.293486
vt 0.142856 0.299156
vt 0.037686 0.197026
vt 0.114594 0.191451
vt 0.116299 0.184068
vt 0.092166 0.784888
vt 0.210648 0.760737
vt 0.589623 0.303314
vt 0.723062 0.338038
vt 0.032335 0.893552
vt 0.102841 0.977586
vt 0.634480 0.954469
vt 0.162586 0.975625
vt 0.225799 0.983302
vt 0.777202 0.634362
vt 0.676286 0.762125
vt 0.660498 0.760964
vt 0.481305 0.624618
vt 0.483334 0.631339
vt 0.415071 0.261028
vt 0.909986 0.367297
vt 0.915633 0.364310
vt 0.893961 0.432989
vt 0.929543 0.503244
vt 0.884519 0.433215
vt 0.409050 0.245409
vt 0.335975 0.718108
vt 0.414726 0.092735
vt 0.412261 0.130110
vt 0.166162 0.195826
vt 0.226645 0.205706
vt 0.428934 0.135363
vt 0.997927 0.584994
vt 0.798719 0.534696
vt 0.566088 0.448057
vt 0.566179 0.454343
vt 0.791680 0.534082
vt 0.492046 0.320763
vt 0.496267 0.323694
vt 0.089599 0.686460
vt 0.317641 0.286356
vt 0.908197 0.371138
vt 0.913824 0.369924
vt 0.916208 0.366550
vt 0.898182 0.592620
vt 0.174966 0.249320
vt 0.425059 0.253224
vt 0.501795 0.207952
vt 0.182832 0.629011
vt 0.531311 0.129804
vt 0.423243 0.076643
vt 0.421475 0.087111
vt 0.615568 0.068751
vt 0.303125 0.053281
vt 0.357483 0.039853
vt 0.372387 0.082009
vt 0.478970 0.632798
vt 0.230202 0.652359
vt 0.348510 0.606389
vt 0.351381 0.631339
vt 0.654795 0.768168
vt 0.626503 0.827723
vt 0.318784 0.126409
vt 0.301460 0.058239
vt 0.012614 0.246828
vt 0.021342 0.248919
vt 0.012614 0.251050
vt 0.038715 0.292695
vt 0.525715 0.792155
vt 0.585158 0.825626
vt 0.332932 0.873838
vt 0.584021 0.829651
vt 0.520389 0.889275
vt 0.584211 0.882811
vt 0.578960 0.628621
vt 0.597470 0.459644
vt 0.308887 0.659864
vt 0.777456 0.252103
vt 0.729674 0.332826
vt 0.103876 0.407328
vt 0.655424 0.078007
vt 0.119317 0.069558
vt 0.102318 0.405802
vt 0.113931 0.068948
vt 0.986543 0.531437
vt 0.226275 0.649569
vt 0.405376 0.033618
vn -0.6185 0.6955 -0.3656
vn -0.3649 0.6583 -0.6583
vn -0.5706 0.4371 -0.6952
vn 0.5111 -0.2744 0.8145
vn 0.1683 -0.2797 0.9452
vn -0.0595 -0.5899 0.8053
vn -0.3270 -0.0906 -0.9406
vn -0.4783 -0.2364 -0.8457
vn -0.4664 0.6225 0.6284
vn -0.2596 0.5293 0.8077
vn -0.0197 0.7461 0.6654
vn 0.1046 0.9887 -0.1070
vn 0.2407 0.9344 -0.2625
vn -0.0326 0.9995 0.0059
vn -0.4156 -0.7571 -0.5040
vn -0.5831 -0.3511 0.7326
vn -0.1850 -0.8467 0.4988
vn 0.6746 -0.3004 0.6743
vn 0.3066 -0.4831 0.8201
vn 0.3041 -0.7992 0.5185
vn 0.2419 0.0729 -0.9676
vn 0.3249 0.7074 -0.6277
vn 0.4888 0.6728 -0.5553
vn -0.8245 -0.2188 0.5219
vn -0.8572 0.3503 0.3774
vn -0.9711 -0.1564 0.1801
vn 0.0550 -0.9246 -0.3769
vn -0.0858 -0.7132 -0.6956
vn 0.2857 -0.5879 -0.7568
vn 0.9570 0.0685 -0.2818
vn 0.8824 0.3271 -0.3382
vn 0.9785 -0.1813 -0.0982
vn -0.1788 -0.0491 -0.9826
vn -0.1817 0.5708 -0.8007
vn -0.2521 0.9225 -0.2922
vn -0.2101 0.9518 -0.2233
vn -0.4165 0.9071 -0.0612
vn -0.3970 0.8537 0.3370
vn -0.1220 0.9864 0.1104
vn 0.0242 -0.9995 -0.0192
vn 0.2869 0.8955 0.3402
vn -0.3129 -0.9246 -0.2169
vn -0.1268 0.9836 -0.1281
vn 0.5286 -0.8344 -0.1558
vn 0.4681 -0.8563 -0.2183
vn 0.8179 -0.4767 -0.3221
vn 0.1113 0.9284 -0.3545
vn 0.5361 0.8266 0.1713
vn 0.5760 0.6364 0.5130
vn 0.7255 0.6614 0.1901
vn 0.4008 0.0182 -0.9160
vn 0.6950 0.2209 -0.6842
vn 0.6281 -0.3145 -0.7117
vn -0.1718 0.9612 -0.2155
vn -0.4707 0.8729 0.1281
vn -0.7313 0.5968 0.3301
vn -0.6740 0.4877 0.5548
vn 0.4176 0.3324 0.8456
vn 0.4864 0.5817 0.6519
vn 0.3578 0.3054 0.8824
vn 0.4197 0.7238 0.5477
vn 0.6308 0.4562 0.6277
vn 0.2412 0.9681 0.0673
vn -0.1673 0.9072 -0.3859
vn -0.6892 0.3544 0.6319
vn -0.7000 0.1920 0.6879
vn -0.5677 0.0737 0.8199
vn 0.8384 0.5144 0.1802
vn 0.9769 0.2024 -0.0686
vn -0.7402 0.6721 0.0179
vn -0.4415 0.8726 -0.2088
vn 0.2861 0.4516 0.8451
vn 0.3554 0.2697 0.8949
vn -0.6103 0.3930 0.6877
vn -0.6124 0.5161 0.5987
vn -0.2307 -0.5875 0.7757
vn -0.3023 -0.1155 0.9462
vn -0.8166 0.2875 -0.5005
vn 0.7623 0.3878 -0.5181
vn -0.5321 -0.6035 -0.5939
vn -0.6771 -0.7359 0.0047
vn -0.6060 -0.7954 -0.0106
vn 0.9195 -0.0985 0.3804
vn 0.9312 0.0089 0.3643
vn 0.8596 0.1649 0.4836
vn 0.4254 0.5932 0.6835
vn 0.4425 0.0718 0.8938
vn -0.9564 -0.1841 -0.2267
vn -0.8876 0.4319 0.1598
vn 0.0450 0.8854 -0.4626
vn -0.7488 0.6305 -0.2041
vn -0.5003 0.8607 -0.0938
vn -0.6038 0.7971 0.0020
vn -0.3264 0.9446 0.0338
vn 0.2558 -0.8472 -0.4656
vn -0.1667 0.8817 -0.4413
vn 0.3057 0.4537 -0.8371
vn 0.1208 0.3587 -0.9256
vn 0.6188 0.7612 -0.1939
vn -0.6758 -0.5621 0.4768
vn 0.8184 -0.2964 0.4922
vn 0.8172 -0.1282 0.5619
vn 0.6344 -0.0764 0.7692
vn 0.7514 -0.0816 0.6547
vn 0.9982 -0.0551 0.0222
vn -0.0777 -0.3482 -0.9342
vn -0.3629 -0.5100 -0.7798
vn -0.3358 -0.8890 0.3111
vn -0.0834 0.7483 -0.6581
vn 0.3823 0.5651 -0.7310
vn 0.2568 0.5992 0.7582
vn 0.5094 0.7419 -0.4360
vn 0.6688 0.5164 -0.5348
vn 0.4312 -0.8606 0.2709
vn 0.8134 -0.0248 -0.5811
vn 0.8057 -0.5784 -0.1277
vn 0.9196 -0.3782 0.1057
vn 0.5878 -0.6734 -0.4482
vn 0.3359 -0.9419 -0.0042
vn 0.7408 -0.6011 0.2997
vn 0.1462 -0.9802 -0.1333
vn 0.7024 -0.1998 0.6831
vn 0.6687 -0.4093 0.6207
vn -0.1420 0.0635 0.9878
vn 0.1352 0.3887 0.9114
vn -0.3282 0.4118 0.8501
vn -0.5280 0.3367 0.7796
vn -0.7410 0.6695 0.0511
vn 0.0233 -0.5159 0.8563
vn 0.0272 -0.6676 0.7439
usemtl mat_rock_03
s 1
f 45/1/1 83/2/2 73/3/3
f 30/4/4 35/5/5 2/6/6
f 69/7/7 38/8/8 73/9/3
f 32/10/9 123/11/10 125/12/11
f 57/13/12 55/14/13 3/15/14
f 38/8/8 69/7/7 75/16/15
f 2/6/6 65/17/16 8/18/17
f 119/19/18 26/20/19 23/21/20
f 56/22/21 84/23/22 54/24/23
f 17/25/24 41/26/25 42/27/26
f 102/28/27 13/29/28 7/30/29
f 100/31/30 95/32/31 105/33/32
f 70/34/33 83/35/2 79/36/34
f 114/37/35 48/38/36 116/39/37
f 3/15/14 33/40/38 9/41/39
f 23/42/20 8/43/17 1/44/40
f 14/45/41 3/15/14 9/41/39
f 1/44/40 6/46/42 13/29/28
f 55/14/13 113/47/43 3/15/14
f 108/48/44 106/49/45 98/50/46
f 55/14/13 117/51/47 113/47/43
f 12/52/48 91/53/49 11/54/50
f 52/55/51 103/56/52 101/57/53
f 50/58/54 116/59/37 48/60/36
f 87/61/55 40/62/56 39/63/57
f 93/64/58 90/65/59 29/66/60
f 89/67/61 93/64/58 62/68/62
f 10/69/63 3/15/14 14/45/41
f 79/36/34 44/70/64 114/37/35
f 4/71/65 66/72/66 67/73/67
f 11/54/50 25/74/68 21/75/69
f 128/76/70 43/77/71 45/1/1
f 90/65/59 124/78/72 36/79/73
f 130/80/74 34/81/75 39/63/57
f 65/17/16 5/82/76 68/83/77
f 87/61/55 39/63/57 34/81/75
f 37/84/78 73/3/3 38/85/8
f 68/83/77 5/82/76 2/6/6
f 103/56/52 52/55/51 51/86/79
f 76/87/80 37/84/78 38/85/8
f 10/69/63 14/45/41 12/88/48
f 42/27/26 77/89/81 74/90/82
f 20/91/83 21/75/69 22/92/84
f 22/92/84 25/74/68 24/93/85
f 9/41/39 32/10/9 125/12/11
f 125/94/11 92/95/86 14/96/41
f 29/66/60 35/97/5 31/98/87
f 35/97/5 30/99/4 31/98/87
f 40/62/56 41/26/25 39/63/57
f 78/100/88 42/27/26 127/101/89
f 42/27/26 41/26/25 127/101/89
f 55/102/13 84/23/22 53/103/90
f 45/1/1 73/3/3 46/104/91
f 43/77/71 48/60/36 44/105/64
f 43/77/71 83/2/2 45/1/1
f 117/51/47 55/14/13 53/106/90
f 49/107/92 47/108/93 50/58/54
f 87/109/55 115/110/94 47/111/93
f 112/112/95 7/30/29 101/113/53
f 57/114/12 54/24/23 55/102/13
f 81/115/96 114/37/35 53/116/90
f 86/117/97 56/118/21 85/119/98
f 12/52/48 96/120/99 57/114/12
f 42/27/26 16/121/100 17/25/24
f 58/122/101 20/91/83 19/123/102
f 60/124/103 62/68/62 93/64/58
f 25/74/68 61/125/104 24/93/85
f 31/98/87 60/124/103 93/64/58
f 20/91/83 105/33/32 18/126/105
f 17/25/24 65/17/16 66/72/66
f 67/73/67 66/72/66 65/17/16
f 56/118/21 7/127/29 72/128/106
f 71/129/107 72/130/106 13/29/28
f 70/34/33 71/131/107 69/7/7
f 6/46/42 71/129/107 13/29/28
f 74/132/82 75/133/15 6/46/42
f 76/87/80 77/89/81 78/100/88
f 77/89/81 75/134/15 74/90/82
f 15/135/108 74/132/82 6/46/42
f 80/136/109 81/115/96 82/137/110
f 84/138/22 81/115/96 53/116/90
f 80/136/109 86/117/97 85/119/98
f 85/119/98 79/36/34 80/136/109
f 33/40/38 87/109/55 34/139/75
f 32/10/9 33/40/38 34/139/75
f 90/65/59 14/96/41 92/95/86
f 88/140/111 91/53/49 90/65/59
f 62/68/62 11/54/50 91/53/49
f 96/120/99 97/141/112 57/114/12
f 97/141/112 95/32/31 94/142/113
f 64/143/114 23/42/20 1/44/40
f 98/50/46 99/144/115 100/31/30
f 104/145/116 105/33/32 59/146/117
f 99/144/115 111/147/118 101/57/53
f 100/31/30 103/56/52 51/86/79
f 104/145/116 100/31/30 105/33/32
f 64/148/114 109/149/119 110/150/120
f 111/151/118 112/112/95 101/113/53
f 108/152/44 107/153/121 106/154/45
f 107/153/121 111/151/118 106/154/45
f 107/153/121 1/44/40 102/28/27
f 115/110/94 116/155/37 47/111/93
f 116/155/37 113/47/43 114/156/35
f 117/51/47 114/156/35 113/47/43
f 115/110/94 87/109/55 3/15/14
f 118/157/122 23/21/20 63/158/123
f 118/157/122 110/150/120 58/122/101
f 24/93/85 119/19/18 118/157/122
f 22/92/84 24/93/85 118/157/122
f 60/124/103 119/19/18 61/125/104
f 19/123/102 118/157/122 58/122/101
f 120/159/124 121/160/125 122/161/126
f 123/162/10 124/78/72 125/94/11
f 68/83/77 126/163/127 67/73/67
f 120/164/124 126/163/127 68/83/77
f 121/160/125 123/162/10 122/161/126
f 120/159/124 36/79/73 121/160/125
f 4/71/65 67/73/67 126/163/127
f 128/76/70 127/101/89 129/165/128
f 128/76/70 37/84/78 78/100/88
f 40/62/56 87/61/55 129/165/128
f 47/108/93 128/76/70 129/165/128
f 128/76/70 45/1/1 46/104/91
f 41/26/25 129/165/128 127/101/89
f 70/34/33 85/119/98 56/118/21
f 130/80/74 126/163/127 122/166/126
f 32/167/9 122/166/126 123/168/10
f 66/72/66 130/80/74 41/26/25
f 2/6/6 8/18/17 27/169/129
f 27/169/129 30/4/4 2/6/6
f 71/131/107 75/16/15 69/7/7
f 76/170/80 38/8/8 75/16/15
f 15/171/108 8/18/17 16/121/100
f 2/6/6 5/82/76 65/17/16
f 65/17/16 16/121/100 8/18/17
f 119/19/18 30/99/4 26/20/19
f 54/24/23 97/141/112 94/142/113
f 94/142/113 51/86/79 54/24/23
f 52/55/51 56/22/21 54/24/23
f 86/172/97 82/173/110 84/23/22
f 84/23/22 56/22/21 86/172/97
f 51/86/79 52/55/51 54/24/23
f 18/126/105 105/33/32 95/32/31
f 100/31/30 51/86/79 95/32/31
f 95/32/31 21/75/69 18/126/105
f 70/34/33 73/9/3 83/35/2
f 114/37/35 44/70/64 48/38/36
f 15/135/108 1/44/40 8/43/17
f 23/42/20 28/174/130 8/43/17
f 1/44/40 15/135/108 6/46/42
f 13/29/28 72/130/106 7/30/29
f 98/50/46 104/145/116 108/48/44
f 110/150/120 108/48/44 104/145/116
f 106/49/45 111/147/118 98/50/46
f 12/52/48 14/96/41 91/53/49
f 7/175/29 52/55/51 101/57/53
f 103/56/52 99/144/115 101/57/53
f 50/58/54 47/108/93 116/59/37
f 36/79/73 29/66/60 90/65/59
f 93/64/58 88/140/111 90/65/59
f 10/69/63 57/13/12 3/15/14
f 93/64/58 29/66/60 31/98/87
f 79/36/34 83/35/2 44/70/64
f 21/75/69 95/32/31 96/120/99
f 96/120/99 11/54/50 21/75/69
f 128/76/70 49/107/92 43/77/71
f 121/160/125 36/79/73 124/78/72
f 90/65/59 92/95/86 124/78/72
f 39/63/57 41/26/25 130/80/74
f 130/80/74 32/167/9 34/81/75
f 57/13/12 10/69/63 12/88/48
f 9/41/39 125/12/11 14/45/41
f 2/6/6 35/5/5 120/164/124
f 120/164/124 68/83/77 2/6/6
f 76/87/80 78/100/88 37/84/78
f 74/90/82 15/171/108 42/27/26
f 16/121/100 42/27/26 15/171/108
f 22/92/84 19/123/102 20/91/83
f 20/91/83 18/126/105 21/75/69
f 22/92/84 21/75/69 25/74/68
f 23/21/20 26/20/19 28/176/130
f 8/43/17 28/174/130 27/177/129
f 9/41/39 33/40/38 32/10/9
f 125/94/11 124/78/72 92/95/86
f 30/99/4 27/178/129 28/176/130
f 30/99/4 28/176/130 26/20/19
f 29/66/60 36/79/73 35/97/5
f 42/27/26 78/100/88 77/89/81
f 55/102/13 54/24/23 84/23/22
f 49/107/92 50/58/54 43/77/71
f 43/77/71 50/58/54 48/60/36
f 46/104/91 73/3/3 37/84/78
f 43/77/71 44/105/64 83/2/2
f 112/112/95 102/28/27 7/30/29
f 57/114/12 97/141/112 54/24/23
f 81/115/96 79/36/34 114/37/35
f 12/52/48 11/54/50 96/120/99
f 58/122/101 59/146/117 20/91/83
f 60/124/103 61/125/104 62/68/62
f 25/74/68 62/68/62 61/125/104
f 31/98/87 30/99/4 60/124/103
f 110/150/120 63/158/123 64/148/114
f 110/150/120 104/145/116 59/146/117
f 23/21/20 64/148/114 63/158/123
f 20/91/83 59/146/117 105/33/32
f 59/146/117 58/122/101 110/150/120
f 65/17/16 17/25/24 16/121/100
f 65/17/16 68/83/77 67/73/67
f 7/127/29 56/118/21 52/179/51
f 70/34/33 56/118/21 72/128/106
f 70/34/33 72/128/106 71/131/107
f 73/9/3 70/34/33 69/7/7
f 6/46/42 75/133/15 71/129/107
f 77/89/81 76/87/80 75/134/15
f 81/115/96 80/136/109 79/36/34
f 84/138/22 82/137/110 81/115/96
f 80/136/109 82/137/110 86/117/97
f 90/65/59 91/53/49 14/96/41
f 88/140/111 89/67/61 91/53/49
f 93/64/58 89/67/61 88/140/111
f 91/53/49 89/67/61 62/68/62
f 62/68/62 25/74/68 11/54/50
f 97/141/112 96/120/99 95/32/31
f 94/142/113 95/32/31 51/86/79
f 1/44/40 107/153/121 109/180/119
f 109/180/119 64/143/114 1/44/40
f 99/144/115 98/50/46 111/147/118
f 100/31/30 99/144/115 103/56/52
f 104/145/116 98/50/46 100/31/30
f 108/152/44 109/180/119 107/153/121
f 110/150/120 109/149/119 108/181/44
f 107/153/121 112/112/95 111/151/118
f 13/29/28 102/28/27 1/44/40
f 112/112/95 107/153/121 102/28/27
f 116/155/37 115/110/94 113/47/43
f 117/51/47 53/106/90 114/156/35
f 33/40/38 3/15/14 87/109/55
f 113/47/43 115/110/94 3/15/14
f 118/157/122 119/19/18 23/21/20
f 118/157/122 63/158/123 110/150/120
f 24/93/85 61/125/104 119/19/18
f 60/124/103 30/99/4 119/19/18
f 19/123/102 22/92/84 118/157/122
f 120/164/124 122/166/126 126/163/127
f 121/160/125 124/78/72 123/162/10
f 120/159/124 35/97/5 36/79/73
f 128/76/70 78/100/88 127/101/89
f 128/76/70 46/104/91 37/84/78
f 129/165/128 87/61/55 47/108/93
f 47/108/93 49/107/92 128/76/70
f 41/26/25 40/62/56 129/165/128
f 70/34/33 79/36/34 85/119/98
f 130/80/74 4/71/65 126/163/127
f 32/167/9 130/80/74 122/166/126
f 41/26/25 17/25/24 66/72/66
f 66/72/66 4/71/65 130/80/74
