# Blender v2.79 (sub 0) OBJ File: 'rocks.blend'
# www.blender.org
mtllib rock_05.mtl
o rock_5_Cube.025
v 0.076484 -0.046943 -0.863005
v 0.671312 -0.425525 0.269395
v 0.807680 -0.095241 0.167606
v 0.425766 -0.555375 -0.120883
v 0.851367 -0.284674 0.252222
v 0.640180 -0.347033 0.512409
v 0.053211 -0.549864 0.201623
v -0.710258 0.064837 -0.583741
v 0.764905 -0.165791 0.457922
v 0.108568 -0.505150 -0.437150
v -0.141196 0.522260 -0.029849
v -0.704881 0.280604 -0.042882
v 0.295051 -0.387816 -0.618277
v 0.249255 -0.168840 -0.787542
v 0.038275 -0.400363 -0.581032
v -0.641986 -0.059733 0.242691
v 0.169498 0.529812 -0.341843
v -0.788727 0.059390 -0.058964
v 0.579455 -0.513391 0.046571
v 0.383986 -0.497145 0.453847
v 0.762154 -0.400640 -0.165251
v -0.175231 -0.475311 0.296503
v 0.296743 -0.205275 0.642372
v 0.079470 -0.384838 0.555556
v -0.257253 0.399589 -0.709771
v -0.426647 0.379704 -0.649360
v 0.646479 0.102102 0.293323
v 0.478635 0.289627 -0.051539
v 0.436999 0.216724 -0.460320
v -0.018278 0.228815 0.472713
v -0.035009 0.281389 0.359600
v -0.168791 0.373009 0.285402
v -0.318667 0.350639 0.359798
v 0.088510 0.131683 0.753986
v 0.538466 -0.295679 -0.496647
v 0.575707 -0.413341 -0.394380
v 0.471024 -0.463274 -0.374392
v 0.381863 -0.401503 -0.564719
v 0.273911 0.179281 0.578899
v 0.101375 0.336619 0.231631
v 0.039342 0.526648 -0.211142
v 0.189290 0.236326 0.436826
v 0.332485 0.445381 -0.031154
v 0.138111 -0.134945 0.686178
v -0.136224 -0.274166 0.553114
v 0.801696 -0.077482 -0.057722
v 0.744290 -0.009888 -0.126128
v -0.044522 -0.047990 0.739208
v -0.049040 -0.031882 0.741428
v -0.532712 -0.454239 -0.416906
v -0.578886 0.317162 0.203948
v -0.595920 0.312606 0.176635
v -0.581205 0.305939 0.208764
v -0.500753 0.420969 0.132099
v -0.415785 0.530676 -0.018053
v -0.456271 0.529594 -0.016766
v -0.160913 -0.496669 -0.491754
v -0.192774 -0.492751 -0.511924
v 0.518122 0.035516 0.623580
v 0.596210 0.092527 0.523342
v 0.344790 0.440265 -0.027666
v 0.492865 0.278719 0.410081
v -0.384211 -0.128472 0.547478
v -0.372587 -0.152888 0.550437
v -0.387256 -0.146387 0.546477
v -0.411098 -0.377132 0.350348
v -0.584448 0.013785 0.374322
v -0.591481 0.003472 0.364753
v -0.688135 -0.344354 -0.038435
v 0.244358 0.493546 -0.445338
v 0.271459 0.470877 -0.450116
v 0.316808 0.480543 -0.254718
v 0.309500 0.494277 -0.257992
v 0.156347 0.482647 -0.506226
v 0.169206 0.490086 -0.499248
v -0.426854 0.463315 -0.590792
v -0.408577 0.483456 -0.543362
v -0.425805 0.479063 -0.577783
v -0.233808 0.467509 -0.631854
v -0.585889 0.517828 -0.252945
v -0.099016 0.201776 0.623422
v -0.092573 0.205784 0.618158
v -0.339092 0.302841 0.407470
v -0.342084 0.294346 0.413036
v 0.032491 0.103231 0.778136
v 0.020892 0.084722 0.781959
v 0.101300 0.110361 0.773271
v 0.001066 0.144993 0.746739
v 0.015402 0.146576 0.754977
v -0.672106 -0.372342 -0.193374
v -0.602302 -0.421034 -0.352127
v -0.613606 -0.401823 -0.238003
v 0.299705 0.052531 0.695645
v 0.635947 -0.027881 -0.496975
v 0.215164 0.138917 -0.776760
v 0.208614 0.173836 -0.759870
v 0.252524 0.155537 -0.734888
v 0.357191 -0.034204 -0.719958
v -0.123567 0.036720 -0.832591
v -0.110904 0.026505 -0.845673
v -0.234538 -0.159924 -0.742001
v -0.262296 -0.179580 -0.726809
v -0.014124 0.192715 -0.822061
v -0.031310 0.226890 -0.815486
v 0.785786 -0.191898 -0.149937
v 0.794818 -0.122747 -0.110764
v 0.762397 -0.062594 -0.221655
v 0.301266 0.426216 -0.463024
v 0.311017 0.437249 -0.411667
v -0.114642 -0.386895 -0.631870
v -0.210071 -0.241821 -0.717224
v -0.205830 -0.457458 -0.539178
v -0.178824 -0.481204 -0.535038
v -0.253682 -0.223016 -0.712053
v -0.198360 -0.206143 -0.736621
v -0.710730 0.397254 -0.313520
v -0.713932 0.396524 -0.298017
v -0.792460 0.224089 -0.293709
v -0.794384 0.219920 -0.308829
v -0.712265 -0.173257 0.054139
v -0.830065 0.012777 -0.191659
v -0.833138 0.014024 -0.177430
v -0.690886 0.424556 -0.321849
v -0.685371 0.437572 -0.311841
v -0.695378 -0.317567 -0.269274
v -0.691240 -0.337016 -0.033883
v -0.566628 0.502026 -0.419328
v -0.658162 -0.372363 -0.247649
vt 0.908634 0.261263
vt 0.939710 0.149203
vt 0.945741 0.145589
vt 0.804783 0.994068
vt 0.733185 0.917527
vt 0.796027 0.923154
vt 0.166889 0.519949
vt 0.268852 0.443126
vt 0.259652 0.554661
vt 0.889084 0.342132
vt 0.885386 0.293212
vt 0.913202 0.332413
vt 0.863902 0.540514
vt 0.713369 0.548013
vt 0.770998 0.470190
vt 0.217208 0.968872
vt 0.181893 0.995867
vt 0.150796 0.991607
vt 0.039687 0.608898
vt 0.157340 0.744237
vt 0.023984 0.683700
vt 0.163798 0.617664
vt 0.856437 0.476083
vt 0.785185 0.423609
vt 0.333644 0.492344
vt 0.317799 0.580499
vt 0.089764 0.538383
vt 0.150360 0.447371
vt 0.402313 0.696999
vt 0.500503 0.808204
vt 0.451806 0.854865
vt 0.758726 0.606858
vt 0.612315 0.590414
vt 0.684953 0.551784
vt 0.606480 0.497087
vt 0.623071 0.396585
vt 0.705235 0.469314
vt 0.362748 0.149691
vt 0.421423 0.071483
vt 0.500506 0.160722
vt 0.328704 0.206077
vt 0.270766 0.064457
vt 0.496240 0.225202
vt 0.465663 0.283679
vt 0.420194 0.303161
vt 0.729986 0.028733
vt 0.805243 0.130823
vt 0.714246 0.102016
vt 0.318759 0.796820
vt 0.321889 0.690902
vt 0.398518 0.731553
vt 0.403813 0.022572
vt 0.401989 0.030531
vt 0.342748 0.052796
vt 0.638304 0.096075
vt 0.636141 0.007536
vt 0.215297 0.273055
vt 0.248644 0.356947
vt 0.193148 0.286833
vt 0.623884 0.335090
vt 0.659836 0.375354
vt 0.629031 0.187286
vt 0.714693 0.114512
vt 0.778022 0.161930
vt 0.984710 0.544883
vt 0.081899 0.109902
vt 0.013348 0.120721
vt 0.009315 0.043598
vt 0.806333 0.185513
vt 0.826120 0.166413
vt 0.562605 0.965432
vt 0.604441 0.905766
vt 0.705910 0.986955
vt 0.153403 0.409148
vt 0.186315 0.294767
vt 0.244513 0.362204
vt 0.629445 0.012630
vt 0.630256 0.103264
vt 0.502857 0.078631
vt 0.829309 0.844582
vt 0.803985 0.813623
vt 0.909589 0.801167
vt 0.050634 0.922728
vt 0.006687 0.833868
vt 0.754409 0.741337
vt 0.715930 0.673261
vt 0.826795 0.661393
vt 0.220272 0.128787
vt 0.117822 0.039710
vt 0.238273 0.215884
vt 0.843668 0.577980
vt 0.940848 0.642538
vt 0.234756 0.774626
vt 0.242093 0.404095
vt 0.847999 0.342111
vt 0.652750 0.241160
vt 0.249893 0.656824
vt 0.899413 0.875331
vt 0.193712 0.185169
vt 0.154122 0.193876
vt 0.730445 0.384007
vt 0.552605 0.639407
vt 0.526477 0.565021
vt 0.572325 0.747477
vt 0.662339 0.840582
vt 0.127545 0.240013
vt 0.068095 0.176173
vt 0.749218 0.280590
vt 0.039853 0.181588
vt 0.476221 0.675126
vt 0.432177 0.615749
vt 0.740379 0.800783
vt 0.804217 0.743131
vt 0.631259 0.753130
vt 0.377657 0.092424
vt 0.398877 0.038115
vt 0.394467 0.527032
vt 0.407886 0.555062
vt 0.049679 0.208313
vt 0.073859 0.215181
vt 0.587005 0.198832
vt 0.611187 0.266324
vt 0.142414 0.123660
vt 0.385386 0.600132
vt 0.283592 0.951723
vt 0.236795 0.981626
vt 0.283009 0.318932
vt 0.337000 0.277926
vt 0.076358 0.361697
vt 0.119922 0.251783
vt 0.638507 0.699473
vt 0.646506 0.695034
vt 0.588147 0.696223
vt 0.051095 0.383794
vt 0.003775 0.263145
vt 0.063375 0.378995
vt 0.015385 0.263369
vt 0.949646 0.142645
vt 0.945585 0.648296
vt 0.405617 0.023943
vt 0.498107 0.926582
vt 0.266441 0.057397
vt 0.154363 0.419097
vt 0.258533 0.366054
vt 0.504212 0.227151
vt 0.510213 0.228158
vt 0.429052 0.069168
vt 0.898462 0.357839
vt 0.072959 0.228671
vt 0.034343 0.219468
vt 0.895588 0.424664
vt 0.631948 0.006029
vt 0.709831 0.988486
vt 0.488417 0.024388
vt 0.993380 0.871135
vt 0.940787 0.912570
vt 0.787266 0.409716
vt 0.684096 0.369121
vt 0.682154 0.388819
vt 0.668169 0.365885
vt 0.945328 0.145540
vt 0.069822 0.466107
vt 0.659808 0.539371
vt 0.827278 0.128599
vt 0.341177 0.041115
vt 0.040073 0.010470
vt 0.892651 0.102085
vt 0.936197 0.980424
vt 0.734392 0.371663
vt 0.908436 0.412986
vt 0.338318 0.285710
vt 0.559624 0.965411
vt 0.996198 0.875622
vt 0.996308 0.875244
vn -0.4498 -0.8039 -0.3890
vn -0.3201 -0.6076 -0.7269
vn -0.1484 -0.9145 -0.3763
vn 0.1108 -0.1666 -0.9798
vn 0.6242 0.0735 -0.7778
vn 0.3664 -0.3588 -0.8585
vn 0.5286 -0.5231 0.6684
vn 0.4231 0.2821 0.8610
vn 0.1629 -0.3527 0.9214
vn -0.6906 -0.7134 -0.1185
vn -0.6418 -0.7374 -0.2104
vn -0.4101 -0.9076 0.0893
vn -0.8706 -0.1379 0.4722
vn -0.7969 0.4845 0.3609
vn -0.9221 0.1291 0.3646
vn 0.3726 -0.9261 0.0588
vn -0.1020 -0.9801 0.1700
vn 0.1715 -0.9798 -0.1024
vn 0.1291 -0.8506 0.5097
vn -0.8869 -0.2806 0.3668
vn -0.9945 -0.0648 0.0818
vn 0.3449 0.2289 0.9103
vn 0.0650 -0.3964 0.9158
vn 0.5519 -0.7973 0.2443
vn 0.8357 0.0300 0.5484
vn 0.4324 0.8156 0.3845
vn 0.7585 0.6481 -0.0682
vn 0.5449 0.8297 0.1211
vn 0.9219 -0.3094 0.2331
vn -0.2836 0.9074 0.3099
vn -0.4092 0.9094 0.0739
vn -0.8267 0.4675 0.3128
vn 0.0459 0.9982 0.0385
vn 0.2248 0.7321 -0.6430
vn 0.0064 0.8717 -0.4900
vn 0.0695 0.9720 0.2242
vn 0.2073 0.9419 0.2642
vn 0.0154 0.9925 -0.1214
vn -0.4112 0.8362 -0.3628
vn -0.2252 -0.3742 -0.8996
vn -0.4030 0.0282 -0.9148
vn -0.4967 -0.7130 0.4949
vn -0.2658 -0.6094 0.7469
vn -0.3722 -0.4854 0.7911
vn 0.7960 0.5624 -0.2236
vn 0.5990 0.6456 -0.4736
vn 0.5867 0.8097 -0.0028
vn 0.0942 0.2352 -0.9673
vn 0.4496 0.3071 -0.8387
vn -0.1130 0.8380 0.5338
vn -0.6466 0.5653 0.5122
vn -0.2906 0.7060 0.6458
vn -0.7407 0.6711 -0.0310
vn -0.1736 0.5226 -0.8347
vn -0.5744 0.1241 -0.8090
vn -0.3698 -0.1756 -0.9124
vn 0.1650 0.8263 0.5384
vn -0.4001 -0.2458 -0.8828
vn -0.3761 -0.4539 -0.8077
vn 0.6703 0.5574 -0.4899
vn 0.7317 0.5423 -0.4128
vn 0.6489 0.4128 -0.6391
vn -0.7281 0.1683 0.6644
vn -0.4895 0.4824 0.7263
vn -0.7344 0.3567 0.5774
vn 0.4236 0.5246 -0.7385
vn 0.0515 0.4277 -0.9025
vn 0.3184 0.4810 -0.8168
vn 0.2159 -0.6632 -0.7166
vn 0.4092 -0.6613 -0.6286
vn 0.0349 -0.9419 -0.3340
vn 0.0416 -0.9625 -0.2679
vn 0.5351 -0.6083 -0.5862
vn 0.7844 -0.5315 -0.3197
vn 0.0790 0.8891 0.4508
vn 0.1288 0.8553 0.5018
vn -0.8639 -0.0699 0.4987
vn -0.5908 -0.2659 0.7617
vn -0.2517 -0.9015 0.3518
vn 0.6562 0.5379 0.5292
vn -0.8853 -0.4207 -0.1981
vn -0.4255 0.3588 -0.8308
vn -0.1476 -0.6720 0.7257
vn 0.0551 -0.7322 -0.6788
vn 0.1532 0.8675 0.4732
vn 0.1171 0.9312 0.3452
vn -0.9341 0.3392 0.1110
vn 0.9132 0.4040 0.0537
vn 0.7655 0.6328 -0.1165
vn 0.8015 0.1933 -0.5658
vn 0.0392 0.9265 0.3741
vn 0.1875 0.8035 0.5650
vn -0.7171 -0.0190 -0.6967
vn 0.2774 0.3112 0.9089
vn 0.7969 0.5943 0.1083
vn 0.6680 -0.3593 -0.6517
vn 0.3113 -0.8603 -0.4036
vn 0.8917 0.2714 -0.3623
vn 0.0302 0.9952 -0.0927
vn 0.3915 0.8436 -0.3674
vn -0.2523 0.0074 0.9676
vn -0.0612 0.3564 0.9323
vn -0.1217 0.7184 0.6848
vn -0.4188 0.5514 -0.7214
vn -0.0242 0.9093 0.4154
vn -0.1696 -0.3989 0.9011
vn -0.7004 -0.6946 0.1639
vn -0.6840 -0.7295 0.0000
vn -0.4409 0.7878 0.4301
vn -0.0105 0.9700 0.2427
vn -0.5554 0.1466 0.8185
vn -0.3841 0.6265 0.6782
vn 0.9884 -0.0077 -0.1513
vn 0.9367 -0.0672 -0.3435
vn 0.9501 0.3078 -0.0505
vn -0.4460 -0.0355 0.8943
vn 0.8605 0.4991 -0.1022
vn -0.2640 0.8321 -0.4876
vn -0.5781 0.4012 0.7105
vn -0.8947 -0.3726 0.2464
vn -0.0242 -0.6743 -0.7380
vn -0.9601 -0.1490 -0.2366
vn -0.8223 0.4615 -0.3330
vn -0.8462 0.5267 0.0808
vn -0.7683 0.4619 -0.4431
vn -0.0263 -0.7854 -0.6184
vn -0.2377 -0.5364 -0.8098
vn -0.9427 0.2590 -0.2104
usemtl mat_rock_05
s 1
f 50/1/1 112/2/2 58/3/3
f 1/4/4 98/5/5 14/6/6
f 6/7/7 59/8/8 23/9/9
f 128/10/10 91/11/11 92/12/12
f 16/13/13 52/14/14 18/15/15
f 92/16/12 91/17/11 50/18/1
f 19/19/16 7/20/17 4/21/18
f 23/9/9 20/22/19 6/7/7
f 120/23/20 18/15/15 122/24/21
f 23/9/9 93/25/22 44/26/23
f 2/27/24 9/28/25 6/7/7
f 62/29/26 28/30/27 61/31/28
f 19/32/16 5/33/29 2/34/24
f 56/35/30 80/36/31 12/37/32
f 41/38/33 75/39/34 79/40/35
f 11/41/36 43/42/37 41/38/33
f 77/43/38 127/44/39 80/45/31
f 1/46/4 115/47/40 100/48/41
f 66/49/42 45/50/43 64/51/44
f 109/52/45 71/53/46 73/54/47
f 1/46/4 103/55/48 95/56/49
f 33/57/50 51/58/51 83/59/52
f 127/60/39 124/61/53 80/36/31
f 25/62/54 99/63/55 101/64/56
f 120/23/20 66/65/42 16/13/13
f 39/66/57 93/67/22 59/68/8
f 102/69/58 114/70/59 50/1/1
f 108/71/60 29/72/61 97/73/62
f 67/74/63 84/75/64 53/76/65
f 96/77/66 104/78/67 74/79/68
f 13/80/69 38/81/70 10/82/71
f 7/20/17 57/83/72 10/84/71
f 2/27/24 20/22/19 19/19/16
f 36/85/73 21/86/74 4/87/18
f 40/88/75 62/89/26 43/42/37
f 32/90/76 40/88/75 11/41/36
f 68/91/77 66/65/42 65/92/78
f 22/93/79 45/50/43 66/49/42
f 9/28/25 60/94/80 59/8/8
f 120/23/20 122/24/21 125/95/81
f 26/96/82 101/64/56 102/69/58
f 24/97/83 7/20/17 20/22/19
f 41/38/33 77/43/38 11/41/36
f 14/6/6 15/98/84 1/4/4
f 31/99/85 33/57/50 30/100/86
f 118/101/87 18/15/15 12/37/32
f 43/42/37 73/54/47 41/38/33
f 3/102/88 9/103/25 5/33/29
f 47/104/89 94/105/90 29/72/61
f 29/72/61 98/5/5 97/73/62
f 30/100/86 82/106/91 34/107/92
f 125/95/81 8/108/93 91/11/11
f 93/67/22 34/107/92 87/109/94
f 27/110/95 60/111/80 9/103/25
f 35/112/96 37/113/97 38/81/70
f 35/112/96 107/114/98 36/85/73
f 17/115/99 70/116/100 75/39/34
f 87/117/94 86/118/101 44/26/23
f 85/119/102 34/107/92 89/120/103
f 79/121/35 26/96/82 76/122/104
f 62/89/26 42/123/105 39/66/57
f 42/123/105 31/99/85 30/100/86
f 44/26/23 24/97/83 23/9/9
f 45/50/43 48/124/106 64/51/44
f 69/125/107 90/126/108 92/16/12
f 54/127/109 32/90/76 55/128/110
f 63/129/111 81/130/112 84/75/64
f 106/131/113 3/102/88 105/132/114
f 3/102/88 46/133/115 47/104/89
f 46/133/115 106/131/113 107/114/98
f 64/134/44 48/135/106 65/136/78
f 65/136/78 49/137/116 63/129/111
f 50/1/1 58/3/3 57/138/72
f 115/47/40 101/64/56 99/63/55
f 66/65/42 64/139/44 65/92/78
f 63/129/111 67/74/63 65/136/78
f 108/140/60 75/39/34 71/53/46
f 28/30/27 29/72/61 72/141/117
f 71/53/46 75/39/34 70/116/100
f 73/54/47 43/42/37 61/142/28
f 68/143/77 53/76/65 52/144/14
f 77/43/38 79/40/35 78/145/118
f 79/40/35 76/146/104 78/145/118
f 74/147/68 79/40/35 75/39/34
f 90/148/108 128/10/10 92/12/12
f 78/145/118 127/44/39 77/43/38
f 84/75/64 82/106/91 83/59/52
f 53/76/65 84/75/64 51/58/51
f 88/149/119 86/150/101 89/120/103
f 87/109/94 85/119/102 86/150/101
f 89/120/103 82/106/91 81/130/112
f 126/151/120 125/95/81 90/148/108
f 88/149/119 81/130/112 49/137/116
f 95/56/49 96/77/66 97/152/62
f 98/5/5 95/153/49 97/73/62
f 115/47/40 102/69/58 101/64/56
f 103/55/48 96/77/66 95/56/49
f 99/63/55 103/55/48 100/48/41
f 107/114/98 106/131/113 105/132/114
f 108/154/60 97/152/62 96/77/66
f 98/5/5 35/112/96 38/81/70
f 15/98/84 57/155/72 110/156/121
f 118/101/87 121/157/122 122/24/21
f 116/158/123 118/101/87 117/159/124
f 123/160/125 117/159/124 124/61/53
f 121/157/122 125/95/81 122/24/21
f 127/60/39 123/160/125 124/61/53
f 116/158/123 127/60/39 8/108/93
f 47/104/89 46/133/115 107/114/98
f 21/86/74 105/132/114 5/33/29
f 30/100/86 83/59/52 82/106/91
f 113/161/126 58/3/3 112/2/2
f 1/4/4 95/153/49 98/5/5
f 6/7/7 9/28/25 59/8/8
f 128/10/10 125/95/81 91/11/11
f 12/37/32 18/15/15 52/14/14
f 16/13/13 68/91/77 52/14/14
f 50/18/1 7/20/17 92/16/12
f 22/93/79 92/16/12 7/20/17
f 19/19/16 20/22/19 7/20/17
f 23/9/9 24/97/83 20/22/19
f 120/23/20 16/13/13 18/15/15
f 23/9/9 59/8/8 93/25/22
f 2/27/24 5/162/29 9/28/25
f 62/29/26 27/110/95 28/30/27
f 19/32/16 21/86/74 5/33/29
f 12/37/32 52/14/14 54/163/109
f 54/163/109 56/35/30 12/37/32
f 80/36/31 124/61/53 117/159/124
f 117/159/124 12/37/32 80/36/31
f 41/38/33 17/115/99 75/39/34
f 80/45/31 55/128/110 11/41/36
f 11/41/36 77/43/38 80/45/31
f 1/46/4 111/164/127 115/47/40
f 73/54/47 72/165/117 109/52/45
f 109/52/45 108/140/60 71/53/46
f 1/46/4 100/48/41 103/55/48
f 33/57/50 54/127/109 51/58/51
f 25/62/54 104/78/67 99/63/55
f 120/23/20 126/151/120 66/65/42
f 59/68/8 60/166/80 39/66/57
f 62/89/26 39/66/57 60/166/80
f 112/2/2 50/1/1 114/70/59
f 8/108/93 102/69/58 50/1/1
f 114/70/59 111/164/127 110/167/121
f 110/167/121 112/2/2 114/70/59
f 67/74/63 63/129/111 84/75/64
f 79/121/35 74/79/68 104/78/67
f 108/154/60 96/77/66 74/79/68
f 104/78/67 25/62/54 79/121/35
f 4/87/18 10/82/71 37/113/97
f 15/98/84 13/80/69 10/82/71
f 38/81/70 37/113/97 10/82/71
f 10/84/71 4/21/18 7/20/17
f 7/20/17 50/18/1 57/83/72
f 2/27/24 6/7/7 20/22/19
f 19/32/16 4/87/18 21/86/74
f 37/113/97 36/85/73 4/87/18
f 40/88/75 42/123/105 62/89/26
f 43/42/37 11/41/36 40/88/75
f 32/90/76 31/99/85 40/88/75
f 68/91/77 16/13/13 66/65/42
f 22/93/79 24/97/83 45/50/43
f 102/69/58 8/108/93 26/96/82
f 26/96/82 25/62/54 101/64/56
f 24/97/83 22/93/79 7/20/17
f 41/38/33 79/40/35 77/43/38
f 110/156/121 111/168/127 1/4/4
f 1/4/4 15/98/84 110/156/121
f 13/80/69 15/98/84 14/6/6
f 31/99/85 32/90/76 33/57/50
f 12/37/32 117/159/124 118/101/87
f 118/101/87 122/24/21 18/15/15
f 17/115/99 41/38/33 73/54/47
f 3/102/88 27/110/95 9/103/25
f 94/105/90 47/104/89 107/114/98
f 28/30/27 47/104/89 29/72/61
f 29/72/61 94/105/90 98/5/5
f 34/107/92 39/66/57 30/100/86
f 42/123/105 30/100/86 39/66/57
f 82/106/91 89/120/103 34/107/92
f 50/1/1 91/11/11 8/108/93
f 125/95/81 121/157/122 8/108/93
f 119/169/128 8/108/93 121/157/122
f 93/67/22 39/66/57 34/107/92
f 27/110/95 62/29/26 60/111/80
f 35/112/96 36/85/73 37/113/97
f 21/86/74 36/85/73 105/132/114
f 35/112/96 94/105/90 107/114/98
f 107/114/98 105/132/114 36/85/73
f 17/115/99 73/54/47 70/116/100
f 48/124/106 44/26/23 86/118/101
f 93/25/22 87/117/94 44/26/23
f 85/119/102 87/109/94 34/107/92
f 66/65/42 126/151/120 69/170/107
f 79/121/35 25/62/54 26/96/82
f 42/123/105 40/88/75 31/99/85
f 44/26/23 45/50/43 24/97/83
f 45/50/43 44/26/23 48/124/106
f 92/16/12 22/93/79 69/125/107
f 66/49/42 69/125/107 22/93/79
f 11/41/36 55/128/110 32/90/76
f 54/127/109 33/57/50 32/90/76
f 5/33/29 105/132/114 3/102/88
f 106/131/113 46/133/115 3/102/88
f 47/104/89 28/30/27 27/110/95
f 27/110/95 3/102/88 47/104/89
f 52/144/14 53/76/65 51/58/51
f 65/136/78 48/135/106 49/137/116
f 99/63/55 100/48/41 115/47/40
f 54/127/109 52/144/14 51/58/51
f 55/128/110 56/171/30 54/127/109
f 61/142/28 43/42/37 62/89/26
f 67/74/63 68/143/77 65/136/78
f 69/170/107 126/151/120 90/148/108
f 108/140/60 74/147/68 75/39/34
f 71/53/46 70/116/100 73/54/47
f 109/172/45 72/141/117 29/72/61
f 61/31/28 28/30/27 72/141/117
f 29/72/61 108/71/60 109/172/45
f 72/165/117 73/54/47 61/142/28
f 68/143/77 67/74/63 53/76/65
f 56/171/30 55/128/110 80/45/31
f 84/75/64 81/130/112 82/106/91
f 51/58/51 84/75/64 83/59/52
f 89/120/103 86/150/101 85/119/102
f 49/137/116 48/135/106 86/150/101
f 88/149/119 89/120/103 81/130/112
f 126/151/120 120/23/20 125/95/81
f 78/145/118 76/146/104 127/44/39
f 63/129/111 49/137/116 81/130/112
f 86/150/101 88/149/119 49/137/116
f 115/47/40 114/70/59 102/69/58
f 103/55/48 104/78/67 96/77/66
f 99/63/55 104/78/67 103/55/48
f 38/81/70 13/80/69 98/5/5
f 14/6/6 98/5/5 13/80/69
f 94/105/90 35/112/96 98/5/5
f 113/161/126 112/2/2 110/167/121
f 114/70/59 115/47/40 111/164/127
f 113/173/126 110/156/121 57/155/72
f 15/98/84 10/82/71 57/155/72
f 57/155/72 58/174/3 113/173/126
f 118/101/87 119/169/128 121/157/122
f 116/158/123 119/169/128 118/101/87
f 123/160/125 116/158/123 117/159/124
f 125/95/81 128/10/10 90/148/108
f 8/108/93 119/169/128 116/158/123
f 116/158/123 123/160/125 127/60/39
f 127/60/39 76/122/104 26/96/82
f 26/96/82 8/108/93 127/60/39
f 30/100/86 33/57/50 83/59/52
