# Blender v2.79 (sub 0) OBJ File: 'rocks.blend'
# www.blender.org
mtllib rock_01.mtl
o rock_1_Plane.009
v 0.100023 0.343882 0.444196
v 0.036919 -0.471674 0.328800
v -0.498022 -0.187223 0.797602
v 0.230530 -0.428231 -0.575439
v 0.232629 -0.383875 -0.622274
v 0.318190 -0.347258 -0.684014
v -0.335811 0.426781 -0.429826
v 0.171013 0.474393 -0.027023
v 0.130093 0.472689 0.054996
v 0.445511 0.269462 -0.289187
v 0.400160 0.400411 -0.270930
v 0.688081 0.399311 0.038433
v 0.714552 0.378341 0.048116
v 0.756860 -0.065994 0.174505
v 0.783750 -0.025900 0.167517
v 0.604502 -0.366729 -0.068783
v 0.584195 -0.389619 -0.092450
v 0.609967 -0.365399 -0.125052
v -0.504919 -0.432268 -0.302468
v -0.492978 -0.446206 -0.299425
v -0.839394 -0.121019 0.125157
v -0.836208 -0.043387 0.159716
v -0.758454 -0.052486 -0.027668
v -0.769422 -0.120083 -0.051472
v 0.244139 -0.280553 0.793068
v 0.247404 -0.256038 0.804582
v 0.310812 0.128121 0.699479
v 0.284092 0.109973 0.747437
v -0.446797 -0.097157 -0.668840
v -0.426338 -0.100351 -0.687844
v 0.131853 0.149673 0.805949
v 0.126096 0.140477 0.814967
v -0.112788 -0.257080 0.838764
v -0.118387 -0.285087 0.819232
v -0.329138 0.251337 0.594909
v 0.805662 0.222092 0.111029
v 0.803517 0.227068 0.121191
v 0.402345 0.292090 0.438102
v 0.368007 0.293225 0.454055
v -0.401178 0.350091 0.442955
v 0.584436 -0.093158 -0.277793
v 0.629893 -0.259528 -0.204903
v 0.143141 0.213744 -0.673088
v 0.100710 0.212045 -0.716231
v 0.093691 0.272257 -0.680021
v -0.177255 0.434251 -0.539714
v -0.127384 0.449342 -0.537860
v 0.213225 0.388108 -0.471916
v 0.155917 0.413230 -0.496754
v -0.538679 -0.314611 0.706070
v -0.535081 -0.303168 0.722769
v -0.369534 -0.284427 0.807107
v -0.393732 -0.266619 0.815379
v -0.624903 -0.171717 0.715249
v 0.619590 0.420240 0.192208
v 0.596335 0.447399 0.200335
v 0.450057 0.463847 0.238074
v 0.483995 0.467396 0.222884
v 0.524391 0.405318 0.308099
v 0.524010 0.422476 0.294888
v 0.200320 -0.145429 -0.840593
v 0.218724 -0.137099 -0.848577
v 0.260654 -0.073641 -0.826269
v 0.250528 -0.092246 -0.841220
v 0.328193 -0.143434 -0.786998
v 0.328940 -0.162742 -0.788366
v 0.293397 -0.191822 -0.807800
v 0.303083 -0.225507 -0.791207
v -0.714338 -0.118520 0.615884
v -0.713374 -0.074575 0.635905
v -0.678662 0.062491 0.578760
v -0.702742 0.113453 0.482356
v -0.684181 0.110249 0.528386
v -0.754333 0.073554 0.432903
v -0.801424 -0.050642 0.386635
v -0.819443 -0.002911 0.404910
v 0.363319 -0.398128 -0.566249
v 0.341903 -0.420838 -0.534229
v -0.186984 0.472513 -0.487338
v -0.229562 0.445862 -0.519111
v -0.236418 0.464665 -0.500574
v -0.327709 0.293177 -0.549386
v -0.365350 0.269572 -0.527765
v -0.342756 0.319185 -0.502004
v -0.408650 0.333971 -0.389066
v -0.392209 0.388080 -0.361999
v -0.396487 0.400110 -0.281969
v -0.351384 0.436496 -0.289019
v -0.334018 0.450973 -0.344076
v -0.196786 0.482873 -0.411740
v -0.238460 0.482127 -0.389273
v 0.298591 0.123700 0.720930
v 0.610149 0.436558 0.199898
v -0.353676 0.306793 0.528237
v -0.318951 0.267274 0.588955
v -0.390403 0.362411 0.416102
v -0.395694 0.363663 0.394365
vt 0.084598 0.347008
vt 0.140516 0.349457
vt 0.037649 0.407131
vt 0.119069 0.284740
vt 0.089770 0.326156
vt 0.026819 0.340748
vt 0.170372 0.203758
vt 0.147456 0.069331
vt 0.214044 0.077316
vt 0.255252 0.425511
vt 0.258300 0.295410
vt 0.307780 0.408829
vt 0.230652 0.631136
vt 0.326727 0.604224
vt 0.268941 0.788725
vt 0.021926 0.624526
vt 0.218686 0.481366
vt 0.221916 0.606646
vt 0.741081 0.725617
vt 0.676243 0.772118
vt 0.703020 0.677634
vt 0.087507 0.767573
vt 0.440777 0.126854
vt 0.234818 0.053786
vt 0.459748 0.045201
vt 0.760354 0.554468
vt 0.852807 0.640764
vt 0.761500 0.700104
vt 0.325265 0.570784
vt 0.271281 0.461970
vt 0.449998 0.430615
vt 0.940566 0.506214
vt 0.881959 0.369221
vt 0.983808 0.497363
vt 0.768100 0.739162
vt 0.847183 0.876023
vt 0.721375 0.837401
vt 0.359655 0.269058
vt 0.315574 0.199363
vt 0.792370 0.371184
vt 0.873279 0.519333
vt 0.977539 0.720720
vt 0.952340 0.719700
vt 0.647127 0.547030
vt 0.481584 0.518326
vt 0.647022 0.359979
vt 0.315144 0.185664
vt 0.084061 0.955938
vt 0.454225 0.654667
vt 0.358155 0.965051
vt 0.375906 0.269651
vt 0.435207 0.180453
vt 0.477946 0.194553
vt 0.897507 0.681912
vt 0.874472 0.738267
vt 0.695068 0.045356
vt 0.749191 0.026190
vt 0.741201 0.077188
vt 0.141168 0.335434
vt 0.811987 0.146846
vt 0.863418 0.725614
vt 0.845088 0.700234
vt 0.877846 0.642898
vt 0.043268 0.477425
vt 0.192666 0.378861
vt 0.239108 0.435513
vt 0.488536 0.120046
vt 0.727838 0.136118
vt 0.705555 0.212730
vt 0.689529 0.053470
vt 0.966206 0.668723
vt 0.466270 0.338097
vt 0.610522 0.344137
vt 0.170537 0.011506
vt 0.185155 0.058568
vt 0.202121 0.014148
vt 0.209557 0.360348
vt 0.150310 0.281578
vt 0.663244 0.649588
vt 0.627281 0.596654
vt 0.672561 0.605189
vt 0.678737 0.571342
vt 0.071012 0.740580
vt 0.042894 0.761674
vt 0.639136 0.270824
vt 0.347068 0.241114
vt 0.335023 0.203357
vt 0.655906 0.789342
vt 0.674976 0.806088
vt 0.659308 0.806167
vt 0.712700 0.861680
vt 0.694311 0.853943
vt 0.722846 0.410919
vt 0.731231 0.404461
vt 0.023659 0.407339
vt 0.898773 0.367850
vt 0.473014 0.328150
vt 0.835295 0.896698
vt 0.969864 0.975528
vt 0.963969 0.979988
vt 0.316235 0.417927
vt 0.266784 0.438671
vt 0.045186 0.492115
vt 0.709779 0.654139
vt 0.688504 0.790719
vt 0.015022 0.204377
vt 0.017065 0.114839
vt 0.033499 0.100779
vt 0.410891 0.595322
vt 0.459675 0.646094
vt 0.396705 0.610781
vt 0.087654 0.336567
vt 0.028482 0.352756
vt 0.124352 0.192893
vt 0.881367 0.681617
vt 0.832980 0.689457
vt 0.755603 0.223184
vt 0.422242 0.155740
vt 0.699715 0.293724
vt 0.062447 0.920845
vt 0.043602 0.930976
vt 0.118780 0.029137
vt 0.123079 0.073323
vt 0.608199 0.586555
vt 0.092267 0.028112
vt 0.461409 0.597991
vt 0.935761 0.681350
vt 0.757603 0.133595
vt 0.929920 0.065045
vt 0.128926 0.015547
vt 0.705693 0.557166
vn 0.7839 0.3887 0.4841
vn 0.5311 0.4034 0.7450
vn 0.8746 0.2860 0.3916
vn 0.1318 0.9770 0.1676
vn 0.3844 0.9028 0.1927
vn 0.5326 0.7975 -0.2833
vn -0.0583 0.9887 0.1377
vn -0.2217 0.9748 -0.0230
vn -0.4400 0.8938 0.0863
vn 0.6652 0.4896 0.5637
vn 0.0437 0.8947 0.4444
vn 0.1957 0.7363 0.6477
vn 0.4499 -0.6635 0.5978
vn 0.0056 -0.7834 0.6214
vn 0.0661 -0.9835 0.1684
vn 0.7796 -0.4780 0.4046
vn 0.5861 0.3457 0.7327
vn 0.4999 -0.2300 0.8349
vn 0.2707 0.5755 -0.7716
vn 0.0156 0.8221 -0.5690
vn 0.3328 0.8256 -0.4556
vn 0.4575 -0.8881 0.0431
vn -0.7497 0.6360 0.1827
vn -0.6976 0.7143 -0.0556
vn -0.9435 0.3186 -0.0906
vn 0.7230 0.3353 -0.6040
vn 0.7467 0.2193 -0.6279
vn 0.6300 0.4965 -0.5971
vn -0.0561 -0.1733 0.9833
vn 0.0528 0.3984 0.9156
vn -0.3594 0.5039 0.7855
vn 0.8917 -0.2365 -0.3859
vn 0.9365 -0.1870 0.2967
vn 0.7745 -0.6075 -0.1758
vn 0.1678 0.4718 -0.8656
vn -0.4722 -0.1568 -0.8674
vn -0.5024 0.4588 -0.7328
vn -0.2855 0.6900 0.6651
vn -0.2301 0.9345 0.2716
vn 0.9656 0.1582 -0.2062
vn 0.8515 0.1402 -0.5052
vn 0.0143 -0.9023 -0.4308
vn -0.0895 -0.7480 -0.6576
vn -0.7983 0.4256 -0.4260
vn -0.7723 -0.0352 -0.6343
vn -0.8586 0.3359 -0.3871
vn -0.4138 0.9052 0.0968
vn -0.4688 -0.8078 0.3574
vn -0.4102 -0.8716 -0.2684
vn -0.6200 0.6148 0.4874
vn -0.5574 0.4998 0.6629
vn 0.3742 -0.5299 -0.7610
vn -0.1899 -0.5258 -0.8291
vn -0.4734 -0.5918 0.6524
vn -0.2969 0.0927 0.9504
vn -0.6738 -0.1054 0.7313
vn 0.3206 0.7135 0.6229
vn 0.0124 -0.1792 -0.9837
vn 0.2840 0.2091 -0.9357
vn 0.7437 -0.0888 -0.6626
vn 0.5219 0.4864 0.7007
vn 0.7415 0.4060 0.5341
vn -0.9653 0.1778 0.1913
vn -0.8462 -0.4138 0.3357
vn -0.8759 -0.4416 0.1945
vn 0.5673 -0.6781 -0.4671
vn -0.7365 -0.5808 -0.3468
vn -0.9106 -0.0793 -0.4057
vn -0.6516 0.6480 -0.3943
vn -0.4736 0.8800 -0.0360
vn -0.7737 0.5633 -0.2897
vn 0.2007 0.7586 0.6199
vn -0.0128 0.9307 0.3655
vn -0.3148 0.7954 -0.5179
vn -0.6857 0.5152 -0.5142
vn 0.7227 -0.6619 0.1990
vn -0.9462 -0.3072 -0.1014
vn -0.0792 0.8297 0.5525
vn -0.3247 0.8565 0.4011
vn 0.0586 0.9504 -0.3052
vn -0.3073 0.5687 -0.7630
vn -0.7250 0.4360 -0.5331
vn 0.7985 0.5564 -0.2295
vn 0.5912 0.5471 -0.5925
vn -0.2078 0.5727 -0.7930
vn 0.4904 0.7417 -0.4575
vn -0.1880 -0.2123 0.9589
vn -0.0894 -0.7577 0.6465
vn 0.7325 0.5193 0.4401
vn 0.0778 0.9954 -0.0565
vn 0.3729 -0.2452 -0.8949
vn 0.5653 0.4696 -0.6781
vn -0.6778 0.7031 0.2151
vn 0.2623 -0.9443 -0.1987
vn 0.0294 0.9950 -0.0956
vn 0.3638 -0.6657 -0.6515
vn -0.7060 0.1653 0.6886
usemtl mat_rock_01
s 1
f 55/1/1 59/2/2 37/3/3
f 58/4/4 56/5/5 12/6/6
f 9/7/7 91/8/8 88/9/9
f 92/10/10 1/11/11 31/12/12
f 25/13/13 34/14/14 2/15/15
f 14/16/16 28/17/17 26/18/18
f 45/19/19 47/20/20 49/21/21
f 25/13/13 2/15/15 17/22/22
f 74/23/23 87/24/24 22/25/25
f 10/26/26 65/27/27 43/28/28
f 33/29/29 32/30/30 35/31/31
f 42/32/32 15/33/33 18/34/34
f 44/35/35 30/36/36 82/37/37
f 95/38/38 1/11/11 96/39/39
f 10/26/26 36/40/40 41/41/41
f 4/42/42 30/36/36 5/43/43
f 85/44/44 29/45/45 23/46/46
f 87/24/24 74/23/23 97/47/47
f 2/15/15 4/48/42 17/22/22
f 50/49/48 20/50/49 2/15/15
f 35/51/31 73/52/50 71/53/51
f 26/18/18 32/30/30 33/29/29
f 68/54/52 5/43/43 61/55/53
f 51/56/54 3/57/55 54/58/56
f 56/5/5 58/4/4 60/59/57
f 3/57/55 71/60/51 54/58/56
f 62/61/58 64/62/59 66/63/60
f 15/64/33 38/65/61 27/66/62
f 71/53/51 74/23/23 76/67/63
f 69/68/64 75/69/65 50/70/48
f 4/42/42 5/43/43 77/71/66
f 19/72/67 24/73/68 29/45/45
f 91/8/8 7/74/69 89/75/70
f 42/32/32 77/71/66 66/63/60
f 89/75/70 86/76/71 87/24/24
f 39/77/72 57/78/73 1/11/11
f 81/79/74 84/80/75 7/81/69
f 84/80/75 86/82/71 7/81/69
f 16/83/76 17/22/22 18/84/34
f 21/85/77 23/46/46 24/73/68
f 94/86/78 40/87/79 35/51/31 95/38/38
f 43/28/28 44/35/35 45/19/19
f 79/88/80 80/89/81 81/90/74
f 82/37/37 83/91/82 84/92/75
f 10/26/26 12/93/6 13/94/83
f 15/64/33 36/95/40 37/3/3
f 14/96/16 18/34/34 15/33/33
f 20/97/49 24/73/68 19/72/67
f 25/13/13 33/29/29 34/14/14
f 39/77/72 27/66/62 38/65/61
f 29/98/45 20/99/49 19/100/67
f 16/83/76 25/13/13 17/22/22
f 31/12/12 32/101/30 28/102/17
f 14/103/16 27/66/62 28/102/17
f 40/87/79 94/86/78 96/39/39
f 35/51/31 31/12/12 95/38/38
f 29/45/45 24/73/68 23/46/46
f 43/28/28 49/21/21 48/104/84
f 46/105/85 45/19/19 44/35/35
f 11/106/86 48/107/84 49/108/21
f 50/49/48 53/109/87 51/110/54
f 52/111/88 33/29/29 53/109/87
f 93/112/89 59/2/2 55/1/1
f 60/59/57 58/4/4 57/78/73
f 12/6/6 55/1/1 13/113/83
f 57/78/73 8/114/90 9/7/7
f 61/55/53 67/115/91 68/54/52
f 63/116/92 66/63/60 64/62/59
f 41/41/41 66/63/60 65/27/27
f 43/28/28 64/62/59 44/35/35
f 69/68/64 76/117/63 75/69/65
f 72/118/93 74/23/23 73/52/50
f 22/119/25 75/69/65 76/117/63
f 72/118/93 40/87/79 97/47/47
f 18/84/34 78/120/94 77/121/66
f 79/122/80 91/8/8 90/123/95
f 80/89/81 84/92/75 81/90/74
f 85/44/44 84/80/75 83/124/82
f 91/8/8 89/75/70 88/9/9
f 91/8/8 8/114/90 90/123/95
f 46/105/85 79/88/80 47/20/20
f 86/82/71 23/46/46 22/119/25
f 30/36/36 83/91/82 82/37/37
f 49/108/21 47/125/20 90/123/95
f 67/115/91 62/61/58 66/63/60
f 16/83/76 14/16/16 26/18/18
f 38/65/61 37/3/3 59/2/2
f 13/113/83 55/1/1 37/3/3
f 12/6/6 11/106/86 58/4/4
f 8/114/90 58/4/4 11/106/86
f 88/9/9 96/39/39 9/7/7
f 1/11/11 9/7/7 96/39/39
f 92/10/10 39/77/72 1/11/11
f 86/76/71 22/25/25 87/24/24
f 76/67/63 74/23/23 22/25/25
f 63/116/92 43/28/28 65/27/27
f 48/104/84 10/26/26 43/28/28
f 41/41/41 65/27/27 10/26/26
f 35/31/31 3/126/55 53/109/87
f 53/109/87 33/29/29 35/31/31
f 42/32/32 36/40/40 15/33/33
f 80/89/81 46/105/85 82/37/37
f 44/35/35 64/62/59 62/61/58
f 62/61/58 30/36/36 44/35/35
f 82/37/37 46/105/85 44/35/35
f 95/38/38 31/12/12 1/11/11
f 10/26/26 13/94/83 36/40/40
f 4/42/42 20/99/49 30/36/36
f 85/44/44 83/124/82 29/45/45
f 72/118/93 97/47/47 74/23/23
f 78/120/94 17/22/22 4/48/42
f 2/15/15 20/50/49 4/48/42
f 2/15/15 34/14/14 52/111/88
f 52/111/88 50/49/48 2/15/15
f 35/51/31 40/87/79 73/52/50
f 26/18/18 28/17/17 32/30/30
f 30/36/36 61/55/53 5/43/43
f 68/54/52 6/127/96 5/43/43
f 51/110/54 53/109/87 3/126/55
f 70/128/97 54/58/56 71/60/51
f 3/57/55 35/129/31 71/60/51
f 15/64/33 37/3/3 38/65/61
f 76/117/63 70/128/97 71/60/51
f 71/53/51 73/52/50 74/23/23
f 20/97/49 50/70/48 21/85/77
f 54/58/56 69/68/64 50/70/48
f 75/69/65 21/85/77 50/70/48
f 6/127/96 77/71/66 5/43/43
f 78/120/94 4/48/42 77/121/66
f 91/8/8 81/130/74 7/74/69
f 6/127/96 68/54/52 66/63/60
f 66/63/60 77/71/66 6/127/96
f 18/34/34 77/71/66 42/32/32
f 89/75/70 7/74/69 86/76/71
f 9/7/7 1/11/11 57/78/73
f 39/77/72 60/59/57 57/78/73
f 21/85/77 22/119/25 23/46/46
f 10/26/26 11/131/86 12/93/6
f 14/16/16 16/83/76 18/84/34
f 20/97/49 21/85/77 24/73/68
f 25/13/13 26/18/18 33/29/29
f 92/10/10 27/66/62 39/77/72
f 29/98/45 30/36/36 20/99/49
f 16/83/76 26/18/18 25/13/13
f 14/103/16 15/64/33 27/66/62
f 32/101/30 31/12/12 35/51/31
f 13/113/83 37/3/3 36/95/40
f 36/40/40 42/32/32 41/41/41
f 43/28/28 45/19/19 49/21/21
f 46/105/85 47/20/20 45/19/19
f 11/131/86 10/26/26 48/104/84
f 50/70/48 51/56/54 54/58/56
f 50/49/48 52/111/88 53/109/87
f 52/111/88 34/14/14 33/29/29
f 12/6/6 93/112/89 55/1/1
f 57/78/73 58/4/4 8/114/90
f 61/55/53 62/61/58 67/115/91
f 63/116/92 65/27/27 66/63/60
f 66/63/60 68/54/52 67/115/91
f 30/36/36 62/61/58 61/55/53
f 41/41/41 42/32/32 66/63/60
f 43/28/28 63/116/92 64/62/59
f 69/68/64 70/128/97 76/117/63
f 70/128/97 69/68/64 54/58/56
f 22/119/25 21/85/77 75/69/65
f 72/118/93 73/52/50 40/87/79
f 18/84/34 17/22/22 78/120/94
f 79/122/80 81/130/74 91/8/8
f 80/89/81 82/37/37 84/92/75
f 85/44/44 86/82/71 84/80/75
f 88/9/9 89/75/70 87/24/24
f 91/8/8 9/7/7 8/114/90
f 46/105/85 80/89/81 79/88/80
f 86/82/71 85/44/44 23/46/46
f 30/36/36 29/98/45 83/91/82
f 90/123/95 8/114/90 49/108/21
f 11/106/86 49/108/21 8/114/90
f 47/125/20 79/122/80 90/123/95
f 59/2/2 93/112/89 60/59/57
f 93/112/89 12/6/6 56/5/5
f 93/112/89 56/5/5 60/59/57
f 88/9/9 87/24/24 97/47/47
f 97/47/47 96/39/39 88/9/9
f 40/87/79 96/39/39 97/47/47
f 28/102/17 27/66/62 92/10/10
f 59/2/2 60/59/57 39/77/72 38/65/61
f 94/86/78 95/38/38 96/39/39
f 31/12/12 28/102/17 92/10/10
