# Blender v2.83.5 OBJ File: ''
# www.blender.org
mtllib sack_2_001.mtl
o sack_2.001
v 0.000000 1.315080 -0.111556
v 0.000000 1.607108 -0.294070
v 0.229356 1.664158 -0.229356
v 0.078882 1.315080 -0.078882
v 0.111556 1.315080 0.000000
v 0.294070 1.607108 0.000000
v 0.229356 1.664158 0.229356
v 0.078882 1.315080 0.078882
v 0.000000 0.000000 0.000000
v 0.527928 0.150138 0.000000
v 0.422188 0.200184 0.422188
v 0.000000 0.150138 0.527928
v 0.000000 1.312130 0.000000
v 0.000000 1.607108 0.294070
v 0.000000 1.315080 0.111556
v 0.000000 0.150138 -0.527928
v 0.422188 0.200184 -0.422188
v 0.320516 0.907754 -0.320516
v 0.453280 0.907754 0.000000
v 0.320516 0.907754 0.320516
v 0.000000 0.907754 0.453280
v 0.000000 0.907754 -0.453280
v 0.000000 0.508598 -0.636128
v 0.449810 0.508598 -0.449810
v 0.636128 0.508598 0.000000
v 0.449810 0.508598 0.449810
v 0.000000 0.508598 0.636128
v -0.078882 1.315080 -0.078882
v -0.229356 1.664158 -0.229356
v -0.111556 1.315080 0.000000
v -0.078882 1.315080 0.078882
v -0.229356 1.664158 0.229356
v -0.294070 1.607108 0.000000
v -0.422188 0.200184 0.422188
v -0.527928 0.150138 0.000000
v -0.422188 0.200184 -0.422188
v -0.320516 0.907754 -0.320516
v -0.453280 0.907754 0.000000
v -0.320516 0.907754 0.320516
v -0.449810 0.508598 -0.449810
v -0.449810 0.508598 0.449810
v -0.636128 0.508598 0.000000
vt 0.650874 0.697844
vt 0.815094 0.847208
vt 0.680152 0.831913
vt 0.562266 0.697844
vt 0.500466 0.697844
vt 0.500466 0.847208
vt 0.320781 0.831913
vt 0.438667 0.697844
vt 0.500466 0.025215
vt 0.500466 0.153262
vt 0.194248 0.156453
vt 0.086870 0.102006
vt 0.500466 0.968305
vt 0.185839 0.847208
vt 0.350059 0.697844
vt 0.914062 0.102006
vt 0.806685 0.156453
vt 0.710455 0.506791
vt 0.500466 0.506791
vt 0.290478 0.506791
vt 0.106128 0.506791
vt 0.894805 0.506791
vt 0.977247 0.330620
vt 0.772650 0.330620
vt 0.500466 0.330620
vt 0.228283 0.330620
vt 0.023686 0.330620
vt 0.562266 0.697844
vt 0.680152 0.831913
vt 0.500466 0.697844
vt 0.438667 0.697844
vt 0.320781 0.831913
vt 0.500466 0.847208
vt 0.194248 0.156453
vt 0.500466 0.153262
vt 0.806685 0.156453
vt 0.710455 0.506791
vt 0.500466 0.506791
vt 0.290478 0.506791
vt 0.772650 0.330620
vt 0.228283 0.330620
vt 0.500466 0.330620
vn -0.0000 0.0855 -0.9963
vn -0.0000 0.4425 -0.8968
vn 0.5201 0.6775 -0.5201
vn 0.7045 0.0858 -0.7045
vn 0.9963 0.0855 0.0000
vn 0.8968 0.4425 -0.0000
vn 0.5201 0.6775 0.5201
vn 0.7045 0.0858 0.7045
vn 0.0000 -1.0000 -0.0000
vn 0.7317 -0.6817 -0.0000
vn 0.5773 -0.5775 0.5773
vn 0.0000 -0.6817 0.7317
vn 0.0000 1.0000 0.0000
vn 0.0000 0.4425 0.8968
vn 0.0000 0.0855 0.9963
vn 0.0000 -0.6817 -0.7317
vn 0.5773 -0.5775 -0.5773
vn 0.6040 0.5201 -0.6040
vn 0.8541 0.5201 0.0000
vn 0.6040 0.5201 0.6040
vn 0.0000 0.5201 0.8541
vn 0.0000 0.5201 -0.8541
vn 0.0000 0.0996 -0.9950
vn 0.7039 0.0950 -0.7039
vn 0.9950 0.0996 -0.0000
vn 0.7039 0.0950 0.7039
vn 0.0000 0.0996 0.9950
vn -0.7045 0.0858 -0.7045
vn -0.5201 0.6775 -0.5201
vn -0.9963 0.0855 0.0000
vn -0.7045 0.0858 0.7045
vn -0.5201 0.6775 0.5201
vn -0.8968 0.4425 -0.0000
vn -0.5773 -0.5775 0.5773
vn -0.7317 -0.6817 -0.0000
vn -0.5773 -0.5775 -0.5773
vn -0.6040 0.5201 -0.6040
vn -0.8541 0.5201 0.0000
vn -0.6040 0.5201 0.6040
vn -0.7039 0.0950 -0.7039
vn -0.7039 0.0950 0.7039
vn -0.9950 0.0996 -0.0000
usemtl mat_sack_2.001
s 1
f 1/1/1 2/2/2 3/3/3 4/4/4
f 5/5/5 6/6/6 7/7/7 8/8/8
f 9/9/9 10/10/10 11/11/11 12/12/12
f 6/6/6 13/13/13 14/14/14 7/7/7
f 8/8/8 7/7/7 14/14/14 15/15/15
f 3/3/3 2/2/2 13/13/13 6/6/6
f 16/16/16 17/17/17 10/10/10 9/9/9
f 4/4/4 3/3/3 6/6/6 5/5/5
f 18/18/18 4/4/4 5/5/5 19/19/19
f 20/20/20 8/8/8 15/15/15 21/21/21
f 19/19/19 5/5/5 8/8/8 20/20/20
f 22/22/22 1/1/1 4/4/4 18/18/18
f 16/16/16 23/23/23 24/24/24 17/17/17
f 10/10/10 25/25/25 26/26/26 11/11/11
f 11/11/11 26/26/26 27/27/27 12/12/12
f 17/17/17 24/24/24 25/25/25 10/10/10
f 23/23/23 22/22/22 18/18/18 24/24/24
f 25/25/25 19/19/19 20/20/20 26/26/26
f 26/26/26 20/20/20 21/21/21 27/27/27
f 24/24/24 18/18/18 19/19/19 25/25/25
f 1/1/1 28/28/28 29/29/29 2/2/2
f 30/30/30 31/31/31 32/32/32 33/33/33
f 9/9/9 12/12/12 34/34/34 35/35/35
f 33/33/33 32/32/32 14/14/14 13/13/13
f 31/31/31 15/15/15 14/14/14 32/32/32
f 29/29/29 33/33/33 13/13/13 2/2/2
f 16/16/16 9/9/9 35/35/35 36/36/36
f 28/28/28 30/30/30 33/33/33 29/29/29
f 37/37/37 38/38/38 30/30/30 28/28/28
f 39/39/39 21/21/21 15/15/15 31/31/31
f 38/38/38 39/39/39 31/31/31 30/30/30
f 22/22/22 37/37/37 28/28/28 1/1/1
f 16/16/16 36/36/36 40/40/40 23/23/23
f 35/35/35 34/34/34 41/41/41 42/42/42
f 34/34/34 12/12/12 27/27/27 41/41/41
f 36/36/36 35/35/35 42/42/42 40/40/40
f 23/23/23 40/40/40 37/37/37 22/22/22
f 42/42/42 41/41/41 39/39/39 38/38/38
f 41/41/41 27/27/27 21/21/21 39/39/39
f 40/40/40 42/42/42 38/38/38 37/37/37
