# Blender v2.83.5 OBJ File: ''
# www.blender.org
mtllib sack_1_001.mtl
o sack
v -0.590977 0.011894 -0.000000
v -0.590976 0.090626 0.486000
v -0.874801 0.156761 0.540000
v -0.874801 0.100074 -0.000000
v -1.143189 0.326822 -0.000000
v -1.049761 0.326822 -0.792000
v -0.874801 0.156761 -0.540000
v -0.590976 0.326822 0.648000
v -1.049761 0.326822 0.792000
v 0.874800 0.106372 0.000000
v 1.143188 0.326822 0.000000
v 1.049760 0.326822 0.792000
v 0.874800 0.161485 0.540000
v 0.590976 0.090626 -0.486000
v 0.590976 0.326822 -0.648000
v 1.049760 0.326822 -0.792000
v 0.874800 0.161485 -0.540000
v -0.590976 0.326822 -0.648000
v -0.590976 0.090626 -0.486000
v 0.590976 0.326822 0.648000
v 0.590976 0.090626 0.486000
v 0.590976 0.011894 0.000000
v -0.590977 0.641750 -0.000000
v -0.874801 0.553570 -0.000000
v -0.874801 0.496883 0.540000
v -0.590976 0.563018 0.486000
v -0.874801 0.496883 -0.540000
v 0.874800 0.547272 0.000000
v 0.874800 0.492159 0.540000
v 0.590976 0.563018 -0.486000
v 0.874800 0.492159 -0.540000
v -0.590976 0.563018 -0.486000
v 0.590976 0.563018 0.486000
v 0.590976 0.641750 0.000000
vt 0.498292 0.277085
vt 0.235602 0.270914
vt 0.204228 0.161004
vt 0.498751 0.165959
vt 0.498743 0.028563
vt 0.947689 0.072787
vt 0.794813 0.161137
vt 0.077202 0.264037
vt 0.052360 0.073533
vt 0.500555 0.823822
vt 0.500499 0.959625
vt 0.050895 0.915971
vt 0.203200 0.828086
vt 0.763584 0.717916
vt 0.921818 0.724970
vt 0.947689 0.915456
vt 0.796405 0.828337
vt 0.923581 0.265175
vt 0.762767 0.272011
vt 0.076258 0.723721
vt 0.236746 0.716759
vt 0.501057 0.711659
vt 0.498292 0.277085
vt 0.498751 0.165959
vt 0.204228 0.161004
vt 0.235602 0.270914
vt 0.794813 0.161137
vt 0.500555 0.823822
vt 0.203200 0.828086
vt 0.763584 0.717916
vt 0.796405 0.828337
vt 0.762767 0.272011
vt 0.236746 0.716759
vt 0.501057 0.711659
vn -0.1249 -0.9922 -0.0000
vn -0.0484 -0.8801 0.4724
vn -0.2916 -0.8777 0.3802
vn -0.4519 -0.8921 -0.0000
vn -1.0000 0.0000 0.0000
vn -0.5621 -0.0000 -0.8270
vn -0.2916 -0.8777 -0.3802
vn 0.0897 -0.0000 0.9960
vn -0.5621 -0.0000 0.8270
vn 0.4544 -0.8908 -0.0000
vn 1.0000 0.0000 -0.0000
vn 0.5619 0.0000 0.8272
vn 0.2922 -0.8793 0.3761
vn 0.0557 -0.8808 -0.4703
vn -0.0859 0.0000 -0.9963
vn 0.5619 0.0000 -0.8272
vn 0.2922 -0.8793 -0.3761
vn 0.0897 0.0000 -0.9960
vn -0.0484 -0.8801 -0.4724
vn -0.0859 0.0000 0.9963
vn 0.0557 -0.8808 0.4703
vn 0.1337 -0.9910 0.0000
vn -0.1249 0.9922 -0.0000
vn -0.4519 0.8921 -0.0000
vn -0.2916 0.8777 0.3802
vn -0.0484 0.8801 0.4724
vn -0.2916 0.8777 -0.3802
vn 0.4544 0.8908 0.0000
vn 0.2922 0.8793 0.3761
vn 0.0557 0.8808 -0.4703
vn 0.2922 0.8793 -0.3761
vn -0.0484 0.8801 -0.4724
vn 0.0557 0.8808 0.4703
vn 0.1337 0.9910 0.0000
usemtl mat_sack
s 1
f 1/1/1 2/2/2 3/3/3 4/4/4
f 4/4/4 5/5/5 6/6/6 7/7/7
f 2/2/2 8/8/8 9/9/9 3/3/3
f 10/10/10 11/11/11 12/12/12 13/13/13
f 14/14/14 15/15/15 16/16/16 17/17/17
f 7/7/7 6/6/6 18/18/18 19/19/19
f 19/19/19 18/18/18 15/15/15 14/14/14
f 13/13/13 12/12/12 20/20/20 21/21/21
f 21/21/21 20/20/20 8/8/8 2/2/2
f 10/10/10 13/13/13 21/21/21 22/22/22
f 22/22/22 21/21/21 2/2/2 1/1/1
f 14/14/14 22/22/22 1/1/1 19/19/19
f 17/17/17 10/10/10 22/22/22 14/14/14
f 17/17/17 16/16/16 11/11/11 10/10/10
f 3/3/3 9/9/9 5/5/5 4/4/4
f 19/19/19 1/1/1 4/4/4 7/7/7
f 23/23/23 24/24/24 25/25/25 26/26/26
f 24/24/24 27/27/27 6/6/6 5/5/5
f 26/26/26 25/25/25 9/9/9 8/8/8
f 28/28/28 29/29/29 12/12/12 11/11/11
f 30/30/30 31/31/31 16/16/16 15/15/15
f 27/27/27 32/32/32 18/18/18 6/6/6
f 32/32/32 30/30/30 15/15/15 18/18/18
f 29/29/29 33/33/33 20/20/20 12/12/12
f 33/33/33 26/26/26 8/8/8 20/20/20
f 28/28/28 34/34/34 33/33/33 29/29/29
f 34/34/34 23/23/23 26/26/26 33/33/33
f 30/30/30 32/32/32 23/23/23 34/34/34
f 31/31/31 30/30/30 34/34/34 28/28/28
f 31/31/31 28/28/28 11/11/11 16/16/16
f 25/25/25 24/24/24 5/5/5 9/9/9
f 32/32/32 27/27/27 24/24/24 23/23/23
