# Blender v2.79 (sub 0) OBJ File: 'medieval_props_pack.blend'
# www.blender.org
mtllib sawbuck_1_001.mtl
o sawbuck
v 1.230077 -0.000001 1.646400
v -0.622365 2.732284 1.646400
v 1.230077 -0.000001 1.948800
v -0.622365 2.732284 1.948800
v 0.884128 -0.000001 1.646400
v -0.870076 2.558834 1.646400
v 0.884128 -0.000001 1.948800
v -0.870076 2.558834 1.948800
v -0.884128 -0.000001 1.648861
v 0.870076 2.558834 1.648861
v -0.884128 -0.000001 1.951140
v 0.870076 2.558834 1.951140
v -1.230076 -0.000001 1.648861
v 0.622365 2.732284 1.648861
v -1.230076 -0.000001 1.951140
v 0.622365 2.732284 1.951140
v -1.230077 -0.000001 -1.951200
v 0.622365 2.732284 -1.951200
v -1.230077 -0.000001 -1.648800
v 0.622365 2.732284 -1.648800
v -0.884128 -0.000001 -1.951200
v 0.870076 2.558834 -1.951200
v -0.884128 -0.000001 -1.648800
v 0.870076 2.558834 -1.648800
v 0.884128 -0.000001 -1.948740
v -0.870076 2.558834 -1.948740
v 0.884128 -0.000001 -1.646461
v -0.870076 2.558834 -1.646461
v 1.230076 -0.000001 -1.948740
v -0.622365 2.732284 -1.948740
v 1.230076 -0.000001 -1.646461
v -0.622365 2.732284 -1.646461
v -0.084853 1.560000 2.058001
v -0.000000 1.644853 2.058001
v -0.084853 1.560000 -2.058000
v -0.000000 1.644853 -2.058000
v 0.000000 1.475147 2.058000
v 0.084853 1.560000 2.058000
v 0.000000 1.475147 -2.058001
v 0.084853 1.560000 -2.058001
v 1.202534 0.193811 -2.082144
v 1.067825 0.392439 -2.082144
v 1.202534 0.193811 2.082144
v 1.067825 0.392440 2.082144
v 1.131027 0.145315 -2.082144
v 0.996318 0.343944 -2.082144
v 1.131027 0.145316 2.082144
v 0.996318 0.343944 2.082144
v -1.202534 0.193811 -2.082144
v -1.067825 0.392439 -2.082144
v -1.202533 0.193811 2.082144
v -1.067824 0.392440 2.082144
v -1.131028 0.145315 -2.082144
v -0.996319 0.343944 -2.082144
v -1.131027 0.145316 2.082144
v -0.996318 0.343944 2.082144
v -1.130604 0.147724 -2.033859
v -0.999092 0.341674 -2.033859
v 1.130604 0.147724 -2.033860
v 0.999092 0.341674 -2.033860
v -1.130604 0.147724 -1.947459
v -0.999092 0.341674 -1.947459
v 1.130604 0.147724 -1.947460
v 0.999092 0.341674 -1.947460
v -1.130603 0.147724 2.033860
v -0.999091 0.341674 2.033860
v 1.130604 0.147724 2.033860
v 0.999092 0.341674 2.033860
v -1.130603 0.147724 1.947460
v -0.999091 0.341674 1.947460
v 1.130604 0.147724 1.947460
v 0.999092 0.341674 1.947460
vt 0.151479 0.365570
vt 0.151479 0.997003
vt 0.008462 0.997003
vt 0.008462 0.365570
vt 0.572454 0.365570
vt 0.572454 0.997003
vt 0.433536 0.997003
vt 0.433536 0.365570
vt 0.290518 0.997003
vt 0.290518 0.365570
vt 0.896026 0.359679
vt 0.896026 0.166985
vt 0.990090 0.166985
vt 0.990090 0.359679
vt 0.990090 0.166985
vt 0.990090 0.359680
vt 0.896026 0.359680
vt 0.896026 0.166985
vt 0.290518 0.365570
vt 0.290518 0.997003
vt 0.151479 0.997003
vt 0.151479 0.365570
vt 0.008462 0.997003
vt 0.008462 0.365570
vt 0.572454 0.365570
vt 0.572454 0.997003
vt 0.433536 0.997003
vt 0.433536 0.365570
vt 0.896026 0.166985
vt 0.990090 0.166985
vt 0.990090 0.359680
vt 0.896026 0.359680
vt 0.990090 0.166985
vt 0.990090 0.359679
vt 0.896026 0.359679
vt 0.896026 0.166985
vt 0.151479 0.365570
vt 0.008462 0.365570
vt 0.008462 0.997003
vt 0.151479 0.997003
vt 0.572454 0.365570
vt 0.433536 0.365570
vt 0.433536 0.997003
vt 0.572454 0.997003
vt 0.290518 0.365570
vt 0.290518 0.997003
vt 0.896026 0.359679
vt 0.896026 0.166985
vt 0.990090 0.166985
vt 0.990090 0.359679
vt 0.896026 0.359679
vt 0.896026 0.166985
vt 0.990090 0.166985
vt 0.990090 0.359679
vt 0.290518 0.365570
vt 0.151479 0.365570
vt 0.151479 0.997003
vt 0.290518 0.997003
vt 0.008462 0.365570
vt 0.008462 0.997003
vt 0.572454 0.365570
vt 0.433536 0.365570
vt 0.433536 0.997003
vt 0.572454 0.997003
vt 0.896026 0.359679
vt 0.896026 0.166985
vt 0.990090 0.166985
vt 0.990090 0.359680
vt 0.896026 0.359680
vt 0.896026 0.166985
vt 0.990090 0.166985
vt 0.990090 0.359680
vt 0.009034 0.120766
vt 0.009034 0.081998
vt 0.990045 0.081998
vt 0.990045 0.120767
vt 0.990090 0.359679
vt 0.896026 0.359679
vt 0.896026 0.166985
vt 0.990090 0.166985
vt 0.990045 0.004462
vt 0.990045 0.043230
vt 0.009034 0.043232
vt 0.009034 0.004463
vt 0.990090 0.166985
vt 0.990090 0.359680
vt 0.896026 0.359680
vt 0.896026 0.166985
vt 0.990045 0.159535
vt 0.009034 0.159535
vt 0.681670 0.366081
vt 0.786991 0.366081
vt 0.786988 0.996523
vt 0.681670 0.996523
vt 0.990090 0.166985
vt 0.990090 0.359679
vt 0.896026 0.359679
vt 0.896026 0.166985
vt 0.990199 0.996523
vt 0.889396 0.996523
vt 0.889392 0.366081
vt 0.990192 0.366081
vt 0.990090 0.166985
vt 0.990090 0.359679
vt 0.896026 0.359679
vt 0.896026 0.166985
vt 0.583779 0.996523
vt 0.583786 0.366081
vt 0.681677 0.996523
vt 0.681670 0.366082
vt 0.786991 0.366082
vt 0.786995 0.996523
vt 0.896026 0.166985
vt 0.990090 0.166985
vt 0.990090 0.359679
vt 0.896026 0.359679
vt 0.990192 0.366081
vt 0.990206 0.996523
vt 0.889403 0.996523
vt 0.889391 0.366082
vt 0.896026 0.166985
vt 0.990090 0.166985
vt 0.990090 0.359679
vt 0.896026 0.359679
vt 0.583786 0.996523
vt 0.583786 0.366082
vt 0.885406 0.213451
vt 0.885406 0.263388
vt 0.009900 0.263387
vt 0.009900 0.213450
vt 0.009900 0.360381
vt 0.009900 0.309812
vt 0.885406 0.309813
vt 0.885406 0.360383
vt 0.009900 0.166393
vt 0.885406 0.166396
vt 0.009900 0.213452
vt 0.885406 0.213451
vt 0.885406 0.263388
vt 0.009900 0.263390
vt 0.885406 0.360383
vt 0.009900 0.360383
vt 0.009900 0.309814
vt 0.885406 0.309813
vt 0.009900 0.166396
vt 0.885406 0.166396
vn 0.7365 -0.3905 -0.5523
vn 0.1479 0.8035 -0.5766
vn 0.1479 0.8035 0.5766
vn 0.7365 -0.3905 0.5523
vn -0.8030 0.1457 0.5779
vn -0.3673 -0.6971 0.6157
vn -0.8030 0.1457 -0.5779
vn -0.3673 -0.6971 -0.6157
vn 0.3673 -0.6971 -0.6157
vn 0.8030 0.1457 -0.5779
vn 0.8030 0.1457 0.5779
vn 0.3673 -0.6971 0.6157
vn -0.1479 0.8035 0.5766
vn -0.7365 -0.3905 0.5523
vn -0.1479 0.8035 -0.5766
vn -0.7365 -0.3905 -0.5523
vn -0.8165 0.0000 0.5773
vn 0.0000 0.8165 0.5773
vn 0.0000 0.8165 -0.5773
vn -0.8165 0.0000 -0.5773
vn 0.8165 0.0000 -0.5773
vn 0.0000 -0.8165 -0.5773
vn 0.8165 0.0000 0.5773
vn 0.0000 -0.8165 0.5773
vn 0.8019 -0.1538 -0.5773
vn 0.1538 0.8019 -0.5773
vn 0.1538 0.8019 0.5773
vn 0.8019 -0.1538 0.5773
vn -0.8019 0.1538 0.5773
vn -0.1538 -0.8019 0.5773
vn -0.8019 0.1538 -0.5773
vn -0.1538 -0.8019 -0.5773
vn -0.8019 -0.1538 -0.5773
vn -0.8019 -0.1538 0.5773
vn -0.1538 0.8019 0.5773
vn -0.1538 0.8019 -0.5773
vn 0.1538 -0.8019 0.5773
vn 0.8019 0.1538 0.5773
vn 0.1538 -0.8019 -0.5773
vn 0.8019 0.1538 -0.5773
vn 0.0000 -0.8496 -0.5273
vn 0.0000 0.5869 -0.8096
vn 0.0000 -0.8496 0.5273
vn 0.0000 0.5869 0.8096
usemtl mat_sawbuck
s 1
f 1/1/1 2/2/2 4/3/3 3/4/4
f 3/5/4 4/6/3 8/7/5 7/8/6
f 7/8/6 8/7/5 6/9/7 5/10/8
f 5/10/8 6/9/7 2/2/2 1/1/1
f 3/11/4 7/12/6 5/13/8 1/14/1
f 8/15/5 4/16/3 2/17/2 6/18/7
f 9/19/9 10/20/10 12/21/11 11/22/12
f 11/22/12 12/21/11 16/23/13 15/24/14
f 15/25/14 16/26/13 14/27/15 13/28/16
f 13/28/16 14/27/15 10/20/10 9/19/9
f 11/29/12 15/30/14 13/31/16 9/32/9
f 16/33/13 12/34/11 10/35/10 14/36/15
f 17/37/16 19/38/14 20/39/13 18/40/15
f 19/41/14 23/42/12 24/43/11 20/44/13
f 23/42/12 21/45/9 22/46/10 24/43/11
f 21/45/9 17/37/16 18/40/15 22/46/10
f 19/47/14 17/48/16 21/49/9 23/50/12
f 24/51/11 22/52/10 18/53/15 20/54/13
f 25/55/8 27/56/6 28/57/5 26/58/7
f 27/56/6 31/59/4 32/60/3 28/57/5
f 31/61/4 29/62/1 30/63/2 32/64/3
f 29/62/1 25/55/8 26/58/7 30/63/2
f 27/65/6 25/66/8 29/67/1 31/68/4
f 32/69/3 30/70/2 26/71/7 28/72/5
f 33/73/17 34/74/18 36/75/19 35/76/20
f 35/77/20 36/78/19 40/79/21 39/80/22
f 39/81/22 40/82/21 38/83/23 37/84/24
f 37/85/24 38/86/23 34/87/18 33/88/17
f 35/76/20 39/89/22 37/90/24 33/73/17
f 40/82/21 36/75/19 34/74/18 38/83/23
f 41/91/25 42/92/26 44/93/27 43/94/28
f 43/95/28 44/96/27 48/97/29 47/98/30
f 47/99/30 48/100/29 46/101/31 45/102/32
f 45/103/32 46/104/31 42/105/26 41/106/25
f 43/94/28 47/107/30 45/108/32 41/91/25
f 48/100/29 44/93/27 42/92/26 46/101/31
f 49/109/33 51/110/34 52/111/35 50/112/36
f 51/113/34 55/114/37 56/115/38 52/116/35
f 55/117/37 53/118/39 54/119/40 56/120/38
f 53/121/39 49/122/33 50/123/36 54/124/40
f 51/110/34 49/109/33 53/125/39 55/126/37
f 56/120/38 54/119/40 50/112/36 52/111/35
f 57/127/41 58/128/42 60/129/42 59/130/41
f 63/131/43 64/132/44 62/133/44 61/134/43
f 59/130/41 63/135/43 61/136/43 57/127/41
f 64/132/44 60/129/42 58/128/42 62/133/44
f 65/137/43 67/138/43 68/139/44 66/140/44
f 71/141/41 69/142/41 70/143/42 72/144/42
f 67/138/43 65/137/43 69/145/41 71/146/41
f 72/144/42 70/143/42 66/140/44 68/139/44
