# Blender v2.79 (sub 0) OBJ File: 'medieval_tavern_props_pack.blend'
# www.blender.org
mtllib shelf_1_001.mtl
o shelf_wood
v -2.165130 0.721710 0.962280
v -2.165130 0.847362 0.962280
v -2.165130 0.721710 -0.000148
v -2.165130 0.847362 -0.000148
v 2.165130 0.721710 0.962280
v 2.165130 0.847362 0.962280
v 2.165130 0.721710 -0.000148
v 2.165130 0.847362 -0.000148
v 1.479787 -0.016454 -0.000148
v 1.479787 0.722577 0.738809
v 1.479787 0.722577 -0.000148
v 1.599509 -0.016454 -0.000148
v 1.599509 0.722577 0.738809
v 1.599509 0.722577 -0.000148
v -1.479787 -0.016454 -0.000148
v -1.479787 0.722577 0.738809
v -1.479787 0.722577 -0.000148
v -1.599509 -0.016454 -0.000148
v -1.599509 0.722577 0.738809
v -1.599509 0.722577 -0.000148
vt 0.990342 0.394217
vt 0.913770 0.394217
vt 0.913770 0.988998
vt 0.990342 0.988998
vt 0.010316 0.988998
vt 0.086898 0.988998
vt 0.086898 0.394217
vt 0.010316 0.394217
vt 0.086898 0.324125
vt 0.913770 0.324125
vt 0.913770 0.988998
vt 0.086898 0.988998
vt 0.086898 0.394217
vt 0.913770 0.394217
vt 0.554907 0.013275
vt 0.979750 0.304897
vt 0.979772 0.013289
vt 0.439033 0.013275
vt 0.014169 0.013289
vt 0.014191 0.304897
vt 0.439034 0.304897
vt 0.554907 0.304897
vt 0.554907 0.013275
vt 0.979772 0.013289
vt 0.979750 0.304897
vt 0.439033 0.013275
vt 0.014191 0.304897
vt 0.014169 0.013289
vt 0.554907 0.304897
vt 0.439033 0.304897
vn -0.5773 -0.5773 0.5773
vn -0.5773 0.5773 0.5773
vn -0.7071 0.7071 0.0000
vn -0.7071 -0.7071 0.0000
vn 0.7071 -0.7071 0.0000
vn 0.7071 0.7071 0.0000
vn 0.5773 0.5773 0.5773
vn 0.5773 -0.5773 0.5773
vn -0.4472 -0.6324 0.6325
vn -1.0000 0.0000 0.0000
vn 0.4472 -0.6324 0.6325
vn 1.0000 0.0000 0.0000
usemtl mat_shelf_wood
s 1
f 1/1/1 2/2/2 4/3/3 3/4/4
f 7/5/5 8/6/6 6/7/7 5/8/8
f 5/9/8 6/7/7 2/2/2 1/10/1
f 3/11/4 7/12/5 5/13/8 1/14/1
f 8/6/6 4/3/3 2/2/2 6/7/7
f 9/15/9 10/16/9 11/17/10
f 12/18/11 14/19/12 13/20/11
f 12/18/11 13/21/11 10/22/9 9/15/9
f 15/23/11 17/24/12 16/25/11
f 18/26/9 19/27/9 20/28/10
f 18/26/9 15/23/11 16/29/11 19/30/9
