# Blender v2.83.5 OBJ File: 'shrine_1_001.blend'
# www.blender.org
mtllib shrine_001.mtl
o Cube
v 0.500000 2.000000 -0.500000
v 0.500000 0.000000 -0.750000
v 0.500000 2.000000 0.500000
v 0.500000 0.000000 0.750000
v -0.500000 2.000000 -0.500000
v -0.500000 0.000000 -0.750000
v -0.500000 2.000000 0.500000
v -0.500000 0.000000 0.750000
v 0.500000 1.000000 -0.750000
v -0.500000 1.000000 0.750000
v 0.500000 1.000000 0.750000
v -0.500000 1.000000 -0.750000
v 0.500000 4.000000 0.500000
v -0.500000 4.000000 0.500000
v 0.500000 4.000000 -0.500000
v -0.500000 4.000000 -0.500000
v -0.900000 0.000000 -0.500000
v -1.000000 0.000000 0.000000
v -0.900000 0.000000 0.500000
v 0.900000 2.000000 -0.250000
v 1.000000 2.000000 0.000000
v 0.900000 2.000000 0.250000
v -0.900000 2.000000 0.250000
v -1.000000 2.000000 0.000000
v -0.900000 2.000000 -0.250000
v 0.900000 0.000000 0.500000
v 1.000000 0.000000 0.000000
v 0.900000 0.000000 -0.500000
v 0.900000 1.000000 -0.500000
v 1.000000 1.000000 0.000000
v 0.900000 1.000000 0.500000
v -0.900000 1.000000 0.500000
v -1.000000 1.000000 0.000000
v -0.900000 1.000000 -0.500000
v 0.900000 4.000000 -0.250000
v 1.000000 4.000000 0.000000
v 0.900000 4.000000 0.250000
v -0.900000 4.000000 0.250000
v -1.000000 4.000000 0.000000
v -0.900000 4.000000 -0.250000
vt 0.490234 0.240234
vt 0.501953 0.490234
vt 0.244141 0.498047
vt 0.255859 0.248047
vt 0.603516 0.248047
vt 0.626953 0.498047
vt 0.501953 0.490234
vt 0.490234 0.240234
vt 0.603516 0.248047
vt 0.626953 0.498047
vt 0.244141 0.498047
vt 0.255859 0.248047
vt 0.494141 -0.001953
vt 0.248047 0.013672
vt 0.611328 0.013672
vt 0.494141 -0.001953
vt 0.611328 0.013672
vt 0.248047 0.013672
vt 0.498047 0.990234
vt 0.255859 0.990234
vt 0.498047 0.990234
vt 0.255859 0.990234
vt 0.697266 0.501953
vt 0.685547 1.001953
vt 0.619141 1.001953
vt 0.150391 0.251953
vt 0.134766 0.017578
vt 0.029297 0.263672
vt -0.001953 0.021484
vt 0.732422 0.017578
vt 0.720703 0.255859
vt 0.150391 0.251953
vt 0.134766 0.017578
vt 0.029297 0.263672
vt -0.001953 0.021484
vt 0.732422 0.017578
vt 0.720703 0.255859
vt 0.126953 0.498047
vt 0.060547 0.501953
vt 0.126953 0.498047
vt 0.060547 0.501953
vt 0.697266 0.501953
vt 0.134766 1.001953
vt 0.076172 1.001953
vt 0.619141 1.001953
vt 0.134766 1.001953
vt 0.076172 1.001953
vt 0.685547 1.001953
vt 0.812988 0.525879
vt 0.812988 0.976074
vt 0.750488 0.875488
vt 0.750488 0.626465
vt 1.000488 0.626465
vt 1.000488 0.875488
vt 0.937988 0.976074
vt 0.937988 0.525879
vt 0.875488 1.000488
vt 0.875488 0.501465
vn 0.0000 0.2425 0.9701
vn -0.5185 0.2074 -0.8296
vn 0.5185 0.2074 0.8296
vn 0.0000 0.2425 -0.9701
vn 0.0000 0.0000 -1.0000
vn 0.5300 0.0000 0.8480
vn -0.5300 0.0000 -0.8480
vn 0.0000 0.0000 1.0000
vn 0.9285 0.0000 0.3714
vn -0.5300 0.0000 0.8480
vn -0.9806 0.0000 0.1961
vn -0.9806 0.0000 -0.1961
vn 0.5300 0.0000 -0.8480
vn 0.9806 0.0000 -0.1961
vn 0.9806 0.0000 0.1961
vn 0.5185 0.2074 -0.8296
vn 0.9657 0.0322 -0.2575
vn 0.9657 0.0322 0.2575
vn -0.5185 0.2074 0.8296
vn -0.9657 0.0322 0.2575
vn -0.9657 0.0322 -0.2575
vn 0.9285 0.0000 -0.3714
vn -0.9285 0.0000 0.3714
vn -0.9285 0.0000 -0.3714
vn 0.0000 1.0000 0.0000
usemtl Material
s off
f 11/1/1 3/2/1 7/3/1 10/4/1
f 34/5/2 25/6/2 5/7/2 12/8/2
f 31/9/3 22/10/3 3/2/3 11/1/3
f 12/8/4 5/7/4 1/11/4 9/12/4
f 6/13/5 12/8/5 9/12/5 2/14/5
f 26/15/6 31/9/6 11/1/6 4/16/6
f 17/17/7 34/5/7 12/8/7 6/13/7
f 4/16/8 11/1/8 10/4/8 8/18/8
f 1/11/5 5/7/5 16/19/5 15/20/5
f 7/3/8 3/2/8 13/21/8 14/22/8
f 22/10/9 21/23/9 36/24/9 37/25/9
f 3/2/6 22/10/6 37/25/6 13/21/6
f 8/18/10 10/4/10 32/26/10 19/27/10
f 19/27/11 32/26/11 33/28/11 18/29/11
f 18/30/12 33/31/12 34/5/12 17/17/12
f 2/14/13 9/12/13 29/32/13 28/33/13
f 28/33/14 29/32/14 30/34/14 27/35/14
f 27/36/15 30/37/15 31/9/15 26/15/15
f 9/12/16 1/11/16 20/38/16 29/32/16
f 29/32/17 20/38/17 21/39/17 30/34/17
f 30/37/18 21/23/18 22/10/18 31/9/18
f 10/4/19 7/3/19 23/40/19 32/26/19
f 32/26/20 23/40/20 24/41/20 33/28/20
f 33/31/21 24/42/21 25/6/21 34/5/21
f 21/39/22 20/38/22 35/43/22 36/44/22
f 15/20/13 35/43/13 20/38/13 1/11/13
f 5/7/7 25/6/7 40/45/7 16/19/7
f 14/22/10 38/46/10 23/40/10 7/3/10
f 24/41/23 23/40/23 38/46/23 39/47/23
f 25/6/24 24/42/24 39/48/24 40/45/24
f 40/49/25 35/50/25 15/51/25 16/52/25
f 14/53/25 13/54/25 37/55/25 38/56/25
f 36/57/25 39/58/25 38/56/25 37/55/25
f 35/50/25 40/49/25 39/58/25 36/57/25
