# Blender v2.83.5 OBJ File: 'spiked_gib_1_001.blend'
# www.blender.org
mtllib spiked_gib_1_001.mtl
o Cylinder
v 0.000000 0.000000 -0.050000
v 0.000000 4.000000 -0.050000
v 0.035355 0.000000 -0.035355
v 0.035355 4.000000 -0.035355
v 0.050000 0.000000 0.000000
v 0.050000 4.000000 0.000000
v 0.035355 0.000000 0.035355
v 0.035355 4.000000 0.035355
v -0.000000 0.000000 0.050000
v -0.000000 4.000000 0.050000
v -0.035355 0.000000 0.035355
v -0.035355 4.000000 0.035355
v -0.050000 0.000000 -0.000000
v -0.050000 4.000000 -0.000000
v -0.035355 0.000000 -0.035355
v -0.035355 4.000000 -0.035355
v -0.000000 4.300000 0.000000
vt 0.037201 0.000063
vt 0.041291 0.925009
vt 0.023618 0.930445
vt 0.018614 0.000125
vt 0.004974 0.939012
vt 0.000000 0.000208
vt 0.148070 0.000116
vt 0.145223 0.938833
vt 0.126448 0.930271
vt 0.130113 0.000062
vt 0.108694 0.924880
vt 0.111502 0.000021
vt 0.091646 0.921921
vt 0.092919 0.000000
vt 0.074964 0.920999
vt 0.074346 0.000000
vt 0.075077 0.999923
vt 0.058295 0.921989
vt 0.055775 0.000021
vn 0.3827 0.0000 -0.9239
vn 0.9239 0.0000 -0.3827
vn 0.9239 0.0000 0.3827
vn 0.3827 0.0000 0.9239
vn -0.3827 0.0000 0.9239
vn -0.9239 0.0000 0.3827
vn 0.9131 0.1522 0.3782
vn -0.9239 0.0000 -0.3827
vn -0.3827 0.0000 -0.9239
vn -0.9131 0.1522 0.3782
vn 0.3782 0.1522 0.9131
vn -0.9131 0.1522 -0.3782
vn 0.9131 0.1522 -0.3782
vn -0.3782 0.1522 0.9131
vn -0.3782 0.1522 -0.9131
vn 0.3782 0.1522 -0.9131
usemtl None
s off
f 1/1/1 2/2/1 4/3/1 3/4/1
f 3/4/2 4/3/2 6/5/2 5/6/2
f 5/7/3 6/8/3 8/9/3 7/10/3
f 7/10/4 8/9/4 10/11/4 9/12/4
f 9/12/5 10/11/5 12/13/5 11/14/5
f 11/14/6 12/13/6 14/15/6 13/16/6
f 8/9/7 6/8/7 17/17/7
f 13/16/8 14/15/8 16/18/8 15/19/8
f 15/19/9 16/18/9 2/2/9 1/1/9
f 14/15/10 12/13/10 17/17/10
f 10/11/11 8/9/11 17/17/11
f 16/18/12 14/15/12 17/17/12
f 6/5/13 4/3/13 17/17/13
f 12/13/14 10/11/14 17/17/14
f 2/2/15 16/18/15 17/17/15
f 4/3/16 2/2/16 17/17/16
