# Blender v2.79 (sub 0) OBJ File: 'medieval_tavern_props_pack.blend'
# www.blender.org
mtllib table_2_001.mtl
o table_wood_round
v -0.814368 0.336000 0.064000
v -0.745558 1.122543 0.064000
v -0.814368 0.336000 -0.064000
v -0.745558 1.122543 -0.064000
v 0.814368 0.336000 0.064000
v 0.745558 1.122543 0.064000
v 0.814368 0.336000 -0.064000
v 0.745558 1.122543 -0.064000
v 0.839961 -0.000111 0.880000
v 0.742346 1.122543 0.800000
v 0.839961 -0.000111 -0.880000
v 0.742346 1.122543 -0.800000
v 0.999351 -0.000111 0.880000
v 0.901737 1.122543 0.800000
v 0.999352 -0.000111 -0.880000
v 0.901737 1.122543 -0.800000
v 0.839961 -0.000111 -0.322667
v 0.839961 -0.000111 0.322667
v 0.742346 1.122543 -0.000000
v 0.999351 -0.000111 0.322667
v 0.999352 -0.000111 -0.322667
v 0.901737 1.122543 0.000000
v 0.974948 0.280677 0.000000
v 0.815557 0.280677 -0.000000
v -0.839961 -0.000111 0.880000
v -0.742346 1.122543 0.800000
v -0.839961 -0.000111 -0.880000
v -0.742346 1.122543 -0.800000
v -0.999351 -0.000111 0.880000
v -0.901737 1.122543 0.800000
v -0.999352 -0.000111 -0.880000
v -0.901737 1.122543 -0.800000
v -0.839961 -0.000111 -0.322667
v -0.839961 -0.000111 0.322667
v -0.742346 1.122543 -0.000000
v -0.999351 -0.000111 0.322667
v -0.999352 -0.000111 -0.322667
v -0.901737 1.122543 0.000000
v -0.974948 0.280677 0.000000
v -0.815557 0.280677 -0.000000
v 0.000000 1.280000 0.000000
v 0.000000 1.280000 -1.728000
v -1.015693 1.280000 -1.397982
v -1.643426 1.280000 -0.533981
v -1.643426 1.280000 0.533982
v -1.015693 1.280000 1.397982
v 0.000000 1.280000 1.728000
v 1.015693 1.280000 1.397981
v 1.643426 1.280000 0.533982
v 1.643426 1.280000 -0.533982
v 1.015692 1.280000 -1.397982
v 0.000000 1.120000 0.000000
v 0.000000 1.120000 -1.728000
v -1.015693 1.120000 -1.397982
v -1.643426 1.120000 -0.533981
v -1.643426 1.120000 0.533982
v -1.015693 1.120000 1.397982
v 0.000000 1.120000 1.728000
v 1.015693 1.120000 1.397981
v 1.643426 1.120000 0.533982
v 1.643426 1.120000 -0.533982
v 1.015692 1.120000 -1.397982
vt 0.980062 0.038118
vt 0.980062 0.217430
vt 0.015681 0.217428
vt 0.015681 0.038118
vt 0.015681 0.038118
vt 0.015681 0.217430
vt 0.980062 0.217428
vt 0.980062 0.038118
vt 0.015681 0.006938
vt 0.980062 0.006938
vt 0.499891 0.325134
vt 0.499891 0.520719
vt 0.894761 0.520719
vt 0.651572 0.263699
vt 0.499891 0.325134
vt 0.499891 0.274986
vt 0.599145 0.234876
vt 0.499891 0.520719
vt 0.105021 0.520719
vt 0.348210 0.263699
vt 0.400637 0.234876
vt 0.348210 0.224495
vt 0.105021 0.263699
vt 0.105021 0.224495
vt 0.894761 0.224495
vt 0.894761 0.263699
vt 0.651572 0.224495
vt 0.894761 0.520719
vt 0.105021 0.520719
vt 0.105021 0.263699
vt 0.348211 0.263699
vt 0.010537 0.520719
vt 0.010537 0.263699
vt 0.989245 0.263699
vt 0.989245 0.520719
vt 0.651572 0.263699
vt 0.894761 0.263699
vt 0.499891 0.325134
vt 0.105021 0.520719
vt 0.499891 0.520719
vt 0.348210 0.263699
vt 0.400637 0.234876
vt 0.499891 0.274986
vt 0.499891 0.325134
vt 0.894761 0.520719
vt 0.499891 0.520719
vt 0.651572 0.263699
vt 0.599145 0.234876
vt 0.651572 0.224495
vt 0.894761 0.224495
vt 0.894761 0.263699
vt 0.105021 0.224495
vt 0.348210 0.224495
vt 0.105021 0.263699
vt 0.105021 0.520719
vt 0.894761 0.520719
vt 0.894761 0.263699
vt 0.651572 0.263699
vt 0.989245 0.263699
vt 0.989245 0.520719
vt 0.010537 0.263699
vt 0.010537 0.520719
vt 0.348211 0.263699
vt 0.105021 0.263699
vt 0.499682 0.762362
vt 0.944137 0.763055
vt 0.858438 0.893544
vt 0.635707 0.973927
vt 0.361019 0.973498
vt 0.139295 0.892423
vt 0.055227 0.761668
vt 0.140925 0.631179
vt 0.363656 0.550797
vt 0.638345 0.551225
vt 0.860069 0.632301
vt 0.499682 0.762362
vt 0.858438 0.893544
vt 0.944137 0.763055
vt 0.635707 0.973927
vt 0.361019 0.973498
vt 0.139295 0.892423
vt 0.055227 0.761668
vt 0.140925 0.631179
vt 0.363656 0.550797
vt 0.638345 0.551225
vt 0.860069 0.632301
vt 0.991890 0.762362
vt 0.897887 0.907018
vt 0.651783 0.996421
vt 0.347581 0.996421
vt 0.101477 0.907018
vt 0.007473 0.762362
vt 0.101476 0.617705
vt 0.347581 0.528302
vt 0.651783 0.528302
vt 0.897887 0.617705
vn 0.0000 -0.7270 -0.6866
vn 0.0000 0.0000 -1.0000
vn 0.0000 -0.7270 0.6866
vn 0.0000 0.0000 1.0000
vn -0.8621 -0.5067 0.0000
vn -0.9962 -0.0866 0.0000
vn -0.7412 -0.0166 -0.6710
vn 0.6676 -0.6920 0.2747
vn 0.9114 -0.4115 0.0000
vn -0.6032 -0.7516 0.2669
vn 0.9962 0.0866 0.0000
vn 0.6989 0.1111 0.7065
vn 0.6676 -0.6920 -0.2747
vn -0.6032 -0.7516 -0.2669
vn 0.5997 -0.5359 0.5942
vn -0.5467 -0.5791 0.6048
vn -0.5467 -0.5791 -0.6048
vn 0.5997 -0.5359 -0.5942
vn 0.6989 0.1111 -0.7065
vn -0.7412 -0.0166 0.6710
vn 0.8621 -0.5067 0.0000
vn 0.7412 -0.0166 -0.6710
vn 0.9962 -0.0866 0.0000
vn -0.6676 -0.6920 0.2747
vn 0.6032 -0.7516 0.2669
vn -0.9114 -0.4115 0.0000
vn -0.6989 0.1111 0.7065
vn -0.9962 0.0866 0.0000
vn -0.6676 -0.6920 -0.2747
vn 0.6032 -0.7516 -0.2669
vn 0.5467 -0.5791 0.6048
vn -0.5997 -0.5359 0.5942
vn 0.5467 -0.5791 -0.6048
vn -0.5997 -0.5359 -0.5942
vn -0.6989 0.1111 -0.7065
vn 0.7412 -0.0166 0.6710
vn 0.0000 1.0000 0.0000
vn 0.0000 0.6437 -0.7653
vn -0.4498 0.6437 -0.6191
vn -0.7278 0.6437 -0.2365
vn -0.7278 0.6437 0.2365
vn -0.4498 0.6437 0.6191
vn 0.0000 0.6437 0.7653
vn 0.4498 0.6437 0.6191
vn 0.7278 0.6437 0.2365
vn 0.7278 0.6437 -0.2365
vn 0.4498 0.6437 -0.6191
vn 0.0000 -1.0000 0.0000
vn -0.4498 -0.6437 -0.6191
vn 0.0000 -0.6437 -0.7653
vn -0.7278 -0.6437 -0.2365
vn -0.7278 -0.6437 0.2365
vn -0.4498 -0.6437 0.6191
vn 0.0000 -0.6437 0.7653
vn 0.4498 -0.6437 0.6191
vn 0.7278 -0.6437 0.2365
vn 0.7278 -0.6437 -0.2365
vn 0.4498 -0.6437 -0.6191
usemtl mat_table_wood_round
s 1
f 3/1/1 4/2/2 8/3/2 7/4/1
f 5/5/3 6/6/4 2/7/4 1/8/3
f 3/1/1 7/4/1 5/9/3 1/10/3
f 24/11/5 19/12/6 12/13/7
f 21/14/8 23/15/9 24/16/5 17/17/10
f 23/15/9 22/18/11 14/19/12
f 20/20/13 18/21/14 24/16/5 23/15/9
f 18/22/14 20/20/13 13/23/15 9/24/16
f 11/25/17 15/26/18 21/14/8 17/27/10
f 16/28/19 22/18/11 23/15/9
f 10/29/20 19/12/6 24/11/5
f 9/30/16 10/29/20 24/11/5 18/31/14
f 15/26/18 16/28/19 23/15/9 21/14/8
f 13/23/15 14/19/12 10/32/20 9/33/16
f 20/20/13 23/15/9 14/19/12 13/23/15
f 11/34/17 12/35/7 16/28/19 15/26/18
f 17/36/10 24/11/5 12/13/7 11/37/17
f 40/38/21 28/39/22 35/40/23
f 37/41/24 33/42/25 40/43/21 39/44/26
f 39/44/26 30/45/27 38/46/28
f 36/47/29 39/44/26 40/43/21 34/48/30
f 34/49/30 25/50/31 29/51/32 36/47/29
f 27/52/33 33/53/25 37/41/24 31/54/34
f 32/55/35 39/44/26 38/46/28
f 26/56/36 40/38/21 35/40/23
f 25/57/31 34/58/30 40/38/21 26/56/36
f 31/54/34 37/41/24 39/44/26 32/55/35
f 29/51/32 25/59/31 26/60/36 30/45/27
f 36/47/29 29/51/32 30/45/27 39/44/26
f 27/61/33 31/54/34 32/55/35 28/62/22
f 33/63/25 27/64/33 28/39/22 40/38/21
f 41/65/37 42/66/38 43/67/39
f 41/65/37 43/67/39 44/68/40
f 41/65/37 44/68/40 45/69/41
f 41/65/37 45/69/41 46/70/42
f 41/65/37 46/70/42 47/71/43
f 41/65/37 47/71/43 48/72/44
f 41/65/37 48/72/44 49/73/45
f 41/65/37 49/73/45 50/74/46
f 41/65/37 50/74/46 51/75/47
f 41/65/37 51/75/47 42/66/38
f 52/76/48 54/77/49 53/78/50
f 52/76/48 55/79/51 54/77/49
f 52/76/48 56/80/52 55/79/51
f 52/76/48 57/81/53 56/80/52
f 52/76/48 58/82/54 57/81/53
f 52/76/48 59/83/55 58/82/54
f 52/76/48 60/84/56 59/83/55
f 52/76/48 61/85/57 60/84/56
f 52/76/48 62/86/58 61/85/57
f 52/76/48 53/78/50 62/86/58
f 43/67/39 42/66/38 53/87/50 54/88/49
f 44/68/40 43/67/39 54/88/49 55/89/51
f 45/69/41 44/68/40 55/89/51 56/90/52
f 46/70/42 45/69/41 56/90/52 57/91/53
f 47/71/43 46/70/42 57/91/53 58/92/54
f 48/72/44 47/71/43 58/92/54 59/93/55
f 49/73/45 48/72/44 59/93/55 60/94/56
f 50/74/46 49/73/45 60/94/56 61/95/57
f 51/75/47 50/74/46 61/95/57 62/96/58
f 42/66/38 51/75/47 62/96/58 53/87/50
