# Blender v2.79 (sub 0) OBJ File: 'medieval_tavern_props_pack.blend'
# www.blender.org
mtllib tankard_1_001.mtl
o tankard_wood
v -0.000000 0.129410 -0.326899
v 0.034213 0.162067 -0.326899
v -0.034213 0.162067 -0.326899
v -0.000000 0.192671 -0.292698
v 0.000000 0.192671 -0.183786
v 0.000000 0.129410 -0.183786
v 0.034213 0.162067 -0.183786
v -0.034213 0.162067 -0.183786
v -0.000000 0.162067 -0.361124
v -0.034213 0.484151 -0.326899
v 0.034213 0.484151 -0.326899
v -0.000000 0.453546 -0.292698
v -0.000000 0.484151 -0.361124
v -0.000000 0.516808 -0.326899
v -0.000000 0.453546 -0.183786
v -0.000000 0.516808 -0.183786
v -0.034213 0.484151 -0.183786
v 0.034213 0.484151 -0.183786
v 0.000000 -0.002016 -0.221760
v 0.000000 0.524160 -0.201600
v 0.156808 -0.002016 -0.156808
v 0.142553 0.524160 -0.142553
v 0.221760 -0.002016 0.000000
v 0.201600 0.524160 0.000000
v 0.156808 -0.002016 0.156808
v 0.142553 0.524160 0.142553
v -0.000000 -0.002016 0.221760
v -0.000000 0.524160 0.201600
v -0.156808 -0.002016 0.156808
v -0.142553 0.524160 0.142553
v -0.221760 -0.002016 -0.000000
v -0.201600 0.524160 -0.000000
v -0.156808 -0.002016 -0.156808
v -0.142553 0.524160 -0.142553
v -0.000000 -0.002016 -0.000000
v -0.000000 0.524160 -0.161280
v 0.114042 0.524160 -0.114042
v 0.161280 0.524160 0.000000
v 0.114042 0.524160 0.114042
v -0.000000 0.524160 0.161280
v -0.114042 0.524160 0.114042
v -0.161280 0.524160 -0.000000
v -0.114042 0.524160 -0.114042
v 0.000000 0.042336 -0.177408
v 0.125446 0.042336 -0.125446
v 0.177408 0.042336 0.000000
v 0.125446 0.042336 0.125446
v -0.000000 0.042336 0.177408
v -0.125446 0.042336 0.125446
v -0.177408 0.042336 -0.000000
v -0.125446 0.042336 -0.125446
v -0.000000 0.042336 -0.000000
vt 0.892925 0.080660
vt 0.877259 0.151675
vt 0.718037 0.151675
vt 0.700452 0.080660
vt 0.683168 0.151675
vt 0.593044 0.151675
vt 0.593044 0.080660
vt 0.700452 0.006285
vt 0.593044 0.006285
vt 0.700452 0.221692
vt 0.593044 0.221692
vt 0.700452 0.294239
vt 0.593044 0.294239
vt 0.892925 0.006285
vt 0.892925 0.221692
vt 0.892925 0.294239
vt 0.910346 0.151675
vt 0.994729 0.151675
vt 0.994729 0.221692
vt 0.994729 0.294239
vt 0.994729 0.080660
vt 0.994729 0.006285
vt 0.992448 0.301566
vt 0.992448 0.633755
vt 0.876705 0.633755
vt 0.876705 0.301566
vt 0.758151 0.633755
vt 0.758151 0.301566
vt 0.636957 0.633755
vt 0.636957 0.301566
vt 0.511086 0.633755
vt 0.511086 0.301566
vt 0.388338 0.633755
vt 0.388338 0.301566
vt 0.261899 0.633755
vt 0.261899 0.301566
vt 0.096114 0.009871
vt 0.210504 0.009871
vt 0.153309 0.147952
vt 0.134736 0.633755
vt 0.134736 0.301566
vt 0.007936 0.633755
vt 0.007936 0.301566
vt 0.015228 0.090757
vt 0.291390 0.090757
vt 0.291390 0.205148
vt 0.096114 0.286034
vt 0.015228 0.205148
vt 0.210504 0.286034
vt 0.636957 0.673412
vt 0.511086 0.673412
vt 0.261899 0.673412
vt 0.134736 0.673412
vt 0.876705 0.673412
vt 0.758151 0.673412
vt 0.388338 0.673412
vt 0.007936 0.673412
vt 0.992448 0.673412
vt 0.876705 0.991817
vt 0.758151 0.991817
vt 0.261899 0.991817
vt 0.134736 0.991817
vt 0.511086 0.991817
vt 0.388338 0.991817
vt 0.636957 0.991817
vt 0.992448 0.991817
vt 0.007936 0.991817
vt 0.388444 0.291885
vt 0.307151 0.210592
vt 0.445927 0.153109
vt 0.307151 0.095626
vt 0.388444 0.014333
vt 0.503410 0.014333
vt 0.584702 0.095626
vt 0.584702 0.210592
vt 0.503410 0.291885
vn -0.9434 0.2426 -0.2260
vn 0.0000 0.3408 -0.9401
vn 0.0000 -0.3408 -0.9401
vn -0.9434 -0.2426 -0.2260
vn 0.0000 -0.9457 -0.3249
vn 0.0000 -1.0000 0.0000
vn -0.9998 0.0161 0.0000
vn 0.0000 0.7373 0.6755
vn 0.0000 1.0000 0.0000
vn 0.9434 -0.2426 -0.2260
vn 0.9998 0.0161 0.0000
vn 0.0000 -0.7373 0.6755
vn 0.9434 0.2426 -0.2260
vn 0.0000 0.9457 -0.3249
vn 0.9998 -0.0161 0.0000
vn -0.9998 -0.0161 0.0000
vn 0.0000 -0.6158 -0.7879
vn 0.0000 0.6446 -0.7645
vn 0.5406 0.6446 -0.5406
vn 0.5571 -0.6158 -0.5571
vn 0.7645 0.6446 0.0000
vn 0.7879 -0.6158 0.0000
vn 0.5406 0.6446 0.5406
vn 0.5571 -0.6158 0.5571
vn 0.0000 0.6446 0.7645
vn 0.0000 -0.6158 0.7879
vn -0.5406 0.6446 0.5406
vn -0.5571 -0.6158 0.5571
vn -0.7645 0.6446 0.0000
vn -0.7879 -0.6158 0.0000
vn -0.5406 0.6446 -0.5406
vn -0.5571 -0.6158 -0.5571
vn -0.4292 0.7947 -0.4292
vn 0.0000 0.7947 -0.6070
vn 0.6070 0.7947 0.0000
vn 0.4292 0.7947 0.4292
vn -0.4292 0.7947 0.4292
vn -0.6070 0.7947 0.0000
vn 0.4292 0.7947 -0.4292
vn 0.0000 0.7947 0.6070
vn -0.5561 0.6176 0.5561
vn -0.7864 0.6176 0.0000
vn 0.7864 0.6176 0.0000
vn 0.5561 0.6176 0.5561
vn 0.0000 0.6176 -0.7864
vn 0.5561 0.6176 -0.5561
vn -0.5561 0.6176 -0.5561
vn 0.0000 0.6176 0.7864
usemtl mat_tankard_wood
s 1
f 10/1/1 13/2/2 9/3/3 3/4/4
f 3/4/4 1/5/5 6/6/6 8/7/7
f 4/8/8 3/4/4 8/7/7 5/9/9
f 1/5/5 2/10/10 7/11/11 6/6/6
f 2/10/10 4/12/8 5/13/9 7/11/11
f 9/3/3 2/10/10 1/5/5
f 3/4/4 9/3/3 1/5/5
f 3/4/4 4/8/8 12/14/12 10/1/1
f 2/10/10 11/15/13 12/16/12 4/12/8
f 2/10/10 9/3/3 13/2/2 11/15/13
f 11/15/13 14/17/14 16/18/9 18/19/15
f 12/16/12 11/15/13 18/19/15 15/20/6
f 14/17/14 10/1/1 17/21/16 16/18/9
f 10/1/1 12/14/12 15/22/6 17/21/16
f 13/2/2 10/1/1 14/17/14
f 11/15/13 13/2/2 14/17/14
f 19/23/17 20/24/18 22/25/19 21/26/20
f 21/26/20 22/25/19 24/27/21 23/28/22
f 23/28/22 24/27/21 26/29/23 25/30/24
f 25/30/24 26/29/23 28/31/25 27/32/26
f 27/32/26 28/31/25 30/33/27 29/34/28
f 29/34/28 30/33/27 32/35/29 31/36/30
f 19/37/17 21/38/20 35/39/6
f 31/36/30 32/35/29 34/40/31 33/41/32
f 33/41/32 34/40/31 20/42/18 19/43/17
f 33/44/32 19/37/17 35/39/6
f 23/45/22 25/46/24 35/39/6
f 29/47/28 31/48/30 35/39/6
f 25/46/24 27/49/26 35/39/6
f 31/48/30 33/44/32 35/39/6
f 21/38/20 23/45/22 35/39/6
f 27/49/26 29/47/28 35/39/6
f 28/31/25 26/29/23 39/50/33 40/51/34
f 34/40/31 32/35/29 42/52/35 43/53/36
f 24/27/21 22/25/19 37/54/37 38/55/38
f 30/33/27 28/31/25 40/51/34 41/56/39
f 20/42/18 34/40/31 43/53/36 36/57/40
f 22/25/19 20/24/18 36/58/40 37/54/37
f 26/29/23 24/27/21 38/55/38 39/50/33
f 32/35/29 30/33/27 41/56/39 42/52/35
f 38/55/38 37/54/37 45/59/41 46/60/42
f 43/53/36 42/52/35 50/61/43 51/62/44
f 41/56/39 40/51/34 48/63/45 49/64/46
f 39/50/33 38/55/38 46/60/42 47/65/47
f 37/54/37 36/58/40 44/66/48 45/59/41
f 36/57/40 43/53/36 51/62/44 44/67/48
f 42/52/35 41/56/39 49/64/46 50/61/43
f 40/51/34 39/50/33 47/65/47 48/63/45
f 44/68/48 51/69/44 52/70/9
f 50/71/43 49/72/46 52/70/9
f 48/73/45 47/74/47 52/70/9
f 46/75/42 45/76/41 52/70/9
f 51/69/44 50/71/43 52/70/9
f 49/72/46 48/73/45 52/70/9
f 47/74/47 46/75/42 52/70/9
f 45/76/41 44/68/48 52/70/9
