# Blender v2.79 (sub 0) OBJ File: ''
# www.blender.org
mtllib torch_1_002.mtl
o torch_2
v -0.635000 1.524081 0.028038
v -0.635000 1.983436 0.048283
v -0.683282 1.983436 0.000000
v -0.663038 1.524081 0.000000
v -0.635000 1.983436 -0.048283
v -0.635000 1.524081 -0.028038
v -0.586717 1.983436 -0.000000
v -0.606962 1.524081 -0.000000
v -0.635000 1.500000 0.000000
v -0.774552 1.764241 0.050332
v -0.774552 1.917249 0.050332
v -0.798701 1.932194 0.060164
v -0.798701 1.749296 0.060164
v -0.798701 1.749296 -0.060163
v -0.798701 1.932194 -0.060163
v -0.774552 1.917249 -0.050332
v -0.774552 1.764241 -0.050332
v -0.680725 1.841409 0.012933
v -0.680725 1.854342 0.000000
v -0.775723 1.854342 0.000000
v -0.775723 1.841409 0.012933
v -0.775723 1.828476 0.000000
v -0.775723 1.841409 -0.012933
v -0.680725 1.841409 -0.012933
v -0.680725 1.828476 0.000000
v -0.635000 1.798733 0.060353
v -0.635000 1.884085 0.060353
v -0.695353 1.884085 0.000000
v -0.695353 1.798733 0.000000
v -0.635000 1.884085 -0.060353
v -0.635000 1.798733 -0.060353
v -0.574647 1.884085 -0.000000
v -0.574647 1.798733 -0.000000
v -0.703713 1.992011 0.039672
v -0.714197 2.111781 0.045725
v -0.714197 2.111781 -0.045724
v -0.703713 1.992011 -0.039671
v -0.635000 2.111781 -0.091449
v -0.635000 1.992011 -0.079343
v -0.555803 2.111781 -0.045725
v -0.566287 1.992011 -0.039672
v -0.555803 2.111781 0.045724
v -0.566287 1.992011 0.039671
v -0.635000 2.111781 0.091449
v -0.635000 1.992011 0.079343
v -0.635000 1.958480 -0.000000
v -0.635000 1.991412 -0.000000
v -0.703671 2.111781 -0.039647
v -0.703673 2.111781 0.039648
v -0.635000 2.111781 -0.079297
v -0.566329 2.111781 -0.039647
v -0.566327 2.111781 0.039648
v -0.635000 2.111781 0.079295
v -0.561065 2.172705 0.000000
v -0.671967 2.172705 0.064029
v -0.671967 2.172705 -0.064029
vt 0.753597 0.279474
vt 0.753597 0.981348
vt 0.680098 0.981348
vt 0.680098 0.258043
vt 0.987300 0.258043
vt 0.987300 0.981348
vt 0.904871 0.981348
vt 0.904871 0.279474
vt 0.833343 0.981348
vt 0.833343 0.258043
vt 0.753597 0.219950
vt 0.904871 0.219950
vt 0.626249 0.276109
vt 0.417859 0.276109
vt 0.383483 0.235769
vt 0.660626 0.235769
vt 0.660626 0.475644
vt 0.383483 0.475644
vt 0.417859 0.435305
vt 0.626249 0.435305
vt 0.025940 0.938464
vt 0.025940 0.908882
vt 0.158267 0.908881
vt 0.158267 0.938464
vt 0.158267 0.849716
vt 0.158267 0.879299
vt 0.025940 0.879299
vt 0.025940 0.849716
vt 0.158267 0.968047
vt 0.025940 0.968047
vt 0.502568 0.065665
vt 0.502568 0.203717
vt 0.383679 0.203717
vt 0.383679 0.065665
vt 0.859238 0.065664
vt 0.859238 0.203717
vt 0.740348 0.203717
vt 0.740348 0.065665
vt 0.621458 0.203717
vt 0.621458 0.065665
vt 0.989891 0.065733
vt 0.989891 0.203786
vt 0.871001 0.203786
vt 0.871001 0.065734
vt 0.871001 0.203786
vt 0.871001 0.065734
vt 0.989891 0.065734
vt 0.989891 0.203786
vt 0.474432 0.488698
vt 0.667070 0.597134
vt 0.581307 0.786905
vt 0.454499 0.635662
vt 0.453203 0.901699
vt 0.401011 0.711365
vt 0.309520 0.918676
vt 0.334285 0.732445
vt 0.185219 0.844557
vt 0.271076 0.703191
vt 0.103269 0.710647
vt 0.225193 0.627730
vt 0.058798 0.557972
vt 0.212800 0.490390
vt 0.339096 0.581430
vt 0.192964 0.244040
vt 0.349125 0.139819
vt 0.349129 0.348263
vt 0.192963 0.035592
vt 0.036802 0.139819
vt 0.036797 0.348264
vt 0.192964 0.452481
vt 0.373062 0.123844
vt 0.373062 0.364235
vt 0.005322 0.244041
vt 0.012865 0.123844
vt 0.192964 0.003648
vt 0.296540 0.438395
vt 0.192963 0.484431
vt 0.012865 0.364235
vt 0.296539 0.049683
vt 0.004201 0.673823
vt 0.210069 0.992063
vt 0.575024 0.958128
vn -0.0000 -0.3791 0.9254
vn 0.0000 -0.0440 0.9990
vn -0.9990 -0.0440 0.0000
vn -0.9254 -0.3791 0.0000
vn 0.0000 -0.0440 -0.9990
vn -0.0000 -0.3791 -0.9254
vn 0.9990 -0.0440 0.0000
vn 0.9254 -0.3791 0.0000
vn -0.0000 -1.0000 0.0000
vn 0.7996 -0.3852 0.4607
vn 0.7996 0.3852 0.4607
vn 0.5900 0.5929 0.5481
vn 0.5900 -0.5929 0.5481
vn 0.5900 -0.5929 -0.5481
vn 0.5900 0.5929 -0.5481
vn 0.7996 0.3852 -0.4607
vn 0.7996 -0.3852 -0.4607
vn 0.0000 0.0000 1.0000
vn 0.0000 1.0000 0.0000
vn -0.0000 0.0000 -1.0000
vn 0.0000 -0.5774 0.8165
vn 0.0000 0.5774 0.8165
vn -0.8165 0.5774 -0.0000
vn -0.8165 -0.5774 0.0000
vn 0.0000 0.5774 -0.8165
vn 0.0000 -0.5774 -0.8165
vn 0.8165 0.5774 -0.0000
vn 0.8165 -0.5774 0.0000
vn -0.7363 -0.5265 0.4251
vn -0.8604 0.3936 0.3236
vn -0.8604 0.3936 -0.3236
vn -0.7363 -0.5265 -0.4251
vn 0.1500 0.3936 -0.9070
vn -0.0000 -0.5265 -0.8502
vn 0.7105 0.3936 -0.5833
vn 0.7363 -0.5265 -0.4251
vn 0.7105 0.3936 0.5833
vn 0.7363 -0.5265 0.4251
vn 0.1500 0.3936 0.9070
vn -0.0000 -0.5265 0.8502
vn 0.2540 0.7855 0.5643
vn 0.2540 0.7855 -0.5643
vn 0.3617 0.7855 0.5021
vn -0.6157 0.7855 -0.0622
vn -0.6157 0.7855 0.0622
vn 0.3617 0.7855 -0.5021
vn -0.0012 1.0000 0.0000
vn 0.0006 1.0000 -0.0010
vn 0.0006 1.0000 0.0010
usemtl mat_torch_2
s 1
f 1/1/1 2/2/2 3/3/3 4/4/4
f 4/5/4 3/6/3 5/7/5 6/8/6
f 6/8/6 5/7/5 7/9/7 8/10/8
f 8/10/8 7/9/7 2/2/2 1/1/1
f 9/11/9 8/10/8 1/1/1
f 9/12/9 6/8/6 8/10/8
f 9/12/9 4/5/4 6/8/6
f 9/11/9 1/1/1 4/4/4
f 10/13/10 11/14/11 12/15/12 13/16/13
f 14/17/14 15/18/15 16/19/16 17/20/17
f 17/20/17 16/19/16 11/14/11 10/13/10
f 13/16/13 14/17/14 17/20/17 10/13/10
f 15/18/15 12/15/12 11/14/11 16/19/16
f 18/21/18 19/22/19 20/23/19 21/24/18
f 22/25/9 23/26/20 24/27/20 25/28/9
f 21/24/18 22/29/9 25/30/9 18/21/18
f 23/26/20 20/23/19 19/22/19 24/27/20
f 26/31/21 27/32/22 28/33/23 29/34/24
f 29/35/24 28/36/23 30/37/25 31/38/26
f 31/38/26 30/37/25 32/39/27 33/40/28
f 33/40/28 32/39/27 27/32/22 26/31/21
f 29/41/24 31/42/26 33/43/28 26/44/21
f 30/45/25 28/46/23 27/47/22 32/48/27
f 34/49/29 35/50/30 36/51/31 37/52/32
f 37/52/32 36/51/31 38/53/33 39/54/34
f 39/54/34 38/53/33 40/55/35 41/56/36
f 41/56/36 40/55/35 42/57/37 43/58/38
f 43/58/38 42/57/37 44/59/39 45/60/40
f 45/60/40 44/59/39 35/61/30 34/62/29
f 41/56/36 43/58/38 46/63/9
f 37/52/32 39/54/34 46/63/9
f 43/58/38 45/60/40 46/63/9
f 34/49/29 37/52/32 46/63/9
f 39/54/34 41/56/36 46/63/9
f 45/60/40 34/62/29 46/63/9
f 47/64/19 48/65/41 49/66/42
f 47/64/19 50/67/43 48/65/41
f 47/64/19 51/68/44 50/67/43
f 47/64/19 52/69/45 51/68/44
f 47/64/19 53/70/46 52/69/45
f 47/64/19 49/66/42 53/70/46
f 36/71/31 35/72/30 49/66/42 48/65/41
f 51/68/44 52/69/45 54/73/47
f 40/74/35 38/75/33 50/67/43 51/68/44
f 53/70/46 49/66/42 55/76/48
f 44/77/39 42/78/37 52/69/45 53/70/46
f 50/67/43 38/75/33 56/79/49
f 40/74/35 51/68/44 54/73/47
f 35/61/30 44/59/39 55/80/48
f 49/66/42 35/72/30 55/76/48
f 42/57/37 40/55/35 54/81/47
f 52/69/45 42/78/37 54/73/47
f 48/65/41 50/67/43 56/79/49
f 36/71/31 48/65/41 56/79/49
f 38/53/33 36/51/31 56/82/49
f 44/77/39 53/70/46 55/76/48
