# Blender v2.79 (sub 0) OBJ File: 'medieval_tavern_props_pack.blend'
# www.blender.org
mtllib torch_1_001.mtl
o torch_2
v -0.193130 1.933743 -0.000000
v -0.000000 1.933743 -0.193130
v 0.000000 0.000000 -0.000000
v 0.000000 1.933743 0.193130
v 0.193130 1.933743 -0.000000
v -0.112153 0.096326 -0.000000
v -0.000000 0.096326 -0.112153
v 0.112153 0.096326 -0.000000
v 0.000000 0.096326 0.112153
v -0.201327 1.056962 -0.558207
v -0.201327 1.668998 -0.558207
v -0.240654 0.997185 -0.654804
v -0.240654 1.728776 -0.654804
v 0.201327 1.056962 -0.558207
v 0.201327 1.668998 -0.558207
v 0.240654 0.997185 -0.654804
v 0.240654 1.728776 -0.654804
v -0.051731 1.365637 -0.182898
v -0.000000 1.417368 -0.182898
v -0.051731 1.365637 -0.562893
v -0.000000 1.417368 -0.562893
v -0.000000 1.313905 -0.182898
v 0.051731 1.365637 -0.182898
v -0.000000 1.313905 -0.562893
v 0.051731 1.365637 -0.562893
v -0.241413 1.194932 0.000000
v -0.241413 1.536341 0.000000
v -0.000000 1.194932 -0.241413
v -0.000000 1.536341 -0.241413
v 0.000000 1.194932 0.241413
v 0.000000 1.536341 0.241413
v 0.241413 1.194932 -0.000000
v 0.241413 1.536341 -0.000000
v -0.158686 1.968044 -0.274852
v -0.182898 2.447124 -0.316788
v 0.158686 1.968044 -0.274852
v 0.182898 2.447124 -0.316788
v 0.317371 1.968044 0.000000
v 0.365796 2.447124 0.000000
v 0.158686 1.968044 0.274852
v 0.182898 2.447124 0.316788
v -0.158686 1.968044 0.274852
v -0.182898 2.447124 0.316788
v -0.317371 1.968044 0.000000
v -0.365796 2.447124 0.000000
v -0.000000 1.833918 0.000000
v -0.158593 2.447124 -0.274692
v 0.158588 2.447124 -0.274685
v 0.317188 2.447124 0.000000
v 0.158589 2.447124 0.274684
v -0.000000 1.965647 0.000000
v -0.158594 2.447124 0.274693
v -0.317178 2.447124 -0.000001
v 0.256117 2.690822 -0.147868
v -0.000001 2.690822 0.295738
v -0.256116 2.690822 -0.147870
vt 0.753597 0.279474
vt 0.753597 0.981348
vt 0.680098 0.981348
vt 0.680098 0.258043
vt 0.987300 0.258043
vt 0.987300 0.981348
vt 0.904871 0.981348
vt 0.904871 0.279474
vt 0.833343 0.981348
vt 0.833343 0.258043
vt 0.753597 0.219950
vt 0.904871 0.219950
vt 0.626249 0.276109
vt 0.417859 0.276109
vt 0.383483 0.235769
vt 0.660626 0.235769
vt 0.660626 0.475644
vt 0.383483 0.475644
vt 0.417859 0.435305
vt 0.626249 0.435305
vt 0.025940 0.938464
vt 0.025940 0.908882
vt 0.158267 0.908881
vt 0.158267 0.938464
vt 0.158267 0.849716
vt 0.158267 0.879299
vt 0.025940 0.879299
vt 0.025940 0.849716
vt 0.158267 0.968047
vt 0.025940 0.968047
vt 0.502568 0.065665
vt 0.502568 0.203717
vt 0.383679 0.203717
vt 0.383679 0.065665
vt 0.859238 0.065664
vt 0.859238 0.203717
vt 0.740348 0.203717
vt 0.740348 0.065665
vt 0.621458 0.203717
vt 0.621458 0.065665
vt 0.989891 0.065733
vt 0.989891 0.203786
vt 0.871001 0.203786
vt 0.871001 0.065734
vt 0.871001 0.203786
vt 0.871001 0.065734
vt 0.989891 0.065734
vt 0.989891 0.203786
vt 0.474432 0.488698
vt 0.667070 0.597134
vt 0.581307 0.786905
vt 0.454499 0.635662
vt 0.453203 0.901699
vt 0.401011 0.711365
vt 0.309520 0.918676
vt 0.334285 0.732445
vt 0.185219 0.844557
vt 0.271076 0.703191
vt 0.103269 0.710647
vt 0.225193 0.627730
vt 0.058798 0.557972
vt 0.212800 0.490390
vt 0.339096 0.581430
vt 0.192964 0.244040
vt 0.349125 0.139819
vt 0.349129 0.348263
vt 0.192963 0.035592
vt 0.036802 0.139819
vt 0.036797 0.348264
vt 0.192964 0.452481
vt 0.373062 0.123844
vt 0.373062 0.364235
vt 0.005322 0.244041
vt 0.012865 0.123844
vt 0.192964 0.003648
vt 0.296540 0.438395
vt 0.192963 0.484431
vt 0.012865 0.364235
vt 0.296539 0.049683
vt 0.004201 0.673823
vt 0.210069 0.992063
vt 0.575024 0.958128
vn -0.9254 -0.3790 0.0000
vn -0.9990 -0.0440 0.0000
vn 0.0000 -0.0440 -0.9990
vn 0.0000 -0.3790 -0.9254
vn 0.9990 -0.0440 0.0000
vn 0.9254 -0.3790 0.0000
vn 0.0000 -0.0440 0.9990
vn 0.0000 -0.3790 0.9254
vn 0.0000 -1.0000 0.0000
vn -0.4607 -0.3851 0.7996
vn -0.4607 0.3851 0.7996
vn -0.5481 0.5929 0.5900
vn -0.5481 -0.5929 0.5900
vn 0.5481 -0.5929 0.5900
vn 0.5481 0.5929 0.5900
vn 0.4607 0.3851 0.7996
vn 0.4607 -0.3851 0.7996
vn -1.0000 0.0000 0.0000
vn 0.0000 1.0000 0.0000
vn 1.0000 0.0000 0.0000
vn -0.8165 -0.5773 0.0000
vn -0.8165 0.5773 0.0000
vn 0.0000 0.5773 -0.8165
vn 0.0000 -0.5773 -0.8165
vn 0.8165 0.5773 0.0000
vn 0.8165 -0.5773 0.0000
vn 0.0000 0.5773 0.8165
vn 0.0000 -0.5773 0.8165
vn -0.4251 -0.5264 -0.7363
vn -0.3236 0.3936 -0.8604
vn 0.3236 0.3936 -0.8604
vn 0.4251 -0.5264 -0.7363
vn 0.9069 0.3936 0.1499
vn 0.8502 -0.5264 0.0000
vn 0.5833 0.3936 0.7105
vn 0.4251 -0.5264 0.7363
vn -0.5833 0.3936 0.7105
vn -0.4251 -0.5264 0.7363
vn -0.9069 0.3936 0.1499
vn -0.8502 -0.5264 0.0000
vn -0.5643 0.7855 0.2540
vn 0.5643 0.7855 0.2539
vn -0.5021 0.7855 0.3617
vn 0.0622 0.7855 -0.6157
vn -0.0622 0.7855 -0.6157
vn 0.5021 0.7855 0.3617
vn 0.0000 1.0000 -0.0012
vn 0.0010 1.0000 0.0006
vn -0.0010 1.0000 0.0006
usemtl mat_torch_2
s 1
f 6/1/1 1/2/2 2/3/3 7/4/4
f 7/5/4 2/6/3 5/7/5 8/8/6
f 8/8/6 5/7/5 4/9/7 9/10/8
f 9/10/8 4/9/7 1/2/2 6/1/1
f 3/11/9 9/10/8 6/1/1
f 3/12/9 8/8/6 9/10/8
f 3/12/9 7/5/4 8/8/6
f 3/11/9 6/1/1 7/4/4
f 10/13/10 11/14/11 13/15/12 12/16/13
f 16/17/14 17/18/15 15/19/16 14/20/17
f 14/20/17 15/19/16 11/14/11 10/13/10
f 12/16/13 16/17/14 14/20/17 10/13/10
f 17/18/15 13/15/12 11/14/11 15/19/16
f 18/21/18 19/22/19 21/23/19 20/24/18
f 24/25/9 25/26/20 23/27/20 22/28/9
f 20/24/18 24/29/9 22/30/9 18/21/18
f 25/26/20 21/23/19 19/22/19 23/27/20
f 26/31/21 27/32/22 29/33/23 28/34/24
f 28/35/24 29/36/23 33/37/25 32/38/26
f 32/38/26 33/37/25 31/39/27 30/40/28
f 30/40/28 31/39/27 27/32/22 26/31/21
f 28/41/24 32/42/26 30/43/28 26/44/21
f 33/45/25 29/46/23 27/47/22 31/48/27
f 34/49/29 35/50/30 37/51/31 36/52/32
f 36/52/32 37/51/31 39/53/33 38/54/34
f 38/54/34 39/53/33 41/55/35 40/56/36
f 40/56/36 41/55/35 43/57/37 42/58/38
f 42/58/38 43/57/37 45/59/39 44/60/40
f 44/60/40 45/59/39 35/61/30 34/62/29
f 40/56/36 42/58/38 46/63/9
f 36/52/32 38/54/34 46/63/9
f 42/58/38 44/60/40 46/63/9
f 34/49/29 36/52/32 46/63/9
f 38/54/34 40/56/36 46/63/9
f 44/60/40 34/62/29 46/63/9
f 51/64/19 48/65/41 47/66/42
f 51/64/19 49/67/43 48/65/41
f 51/64/19 50/68/44 49/67/43
f 51/64/19 52/69/45 50/68/44
f 51/64/19 53/70/46 52/69/45
f 51/64/19 47/66/42 53/70/46
f 37/71/31 35/72/30 47/66/42 48/65/41
f 50/68/44 52/69/45 55/73/47
f 41/74/35 39/75/33 49/67/43 50/68/44
f 53/70/46 47/66/42 56/76/48
f 45/77/39 43/78/37 52/69/45 53/70/46
f 49/67/43 39/75/33 54/79/49
f 41/74/35 50/68/44 55/73/47
f 35/61/30 45/59/39 56/80/48
f 47/66/42 35/72/30 56/76/48
f 43/57/37 41/55/35 55/81/47
f 52/69/45 43/78/37 55/73/47
f 48/65/41 49/67/43 54/79/49
f 37/71/31 48/65/41 54/79/49
f 39/53/33 37/51/31 54/82/49
f 45/77/39 53/70/46 56/76/48
