# Blender v2.79 (sub 0) OBJ File: 'mugs_and_torches_1_001.blend'
# www.blender.org
mtllib vase_6_001.mtl
o vase_6_mug_1.003_Plane.009
v -0.178741 0.167145 -0.335868
v -0.213427 0.244479 -0.324069
v -0.117348 0.298851 -0.273827
v -0.068783 0.190573 -0.290348
v -0.273758 0.276512 -0.272523
v -0.201819 0.343701 -0.201656
v -0.324392 0.244479 -0.211425
v -0.272715 0.298851 -0.116111
v -0.335670 0.167145 -0.176566
v -0.288505 0.190573 -0.067304
v -0.300984 0.089811 -0.188366
v -0.239940 0.082295 -0.083825
v -0.240654 0.057778 -0.239912
v -0.155469 0.037444 -0.155996
v -0.190019 0.089811 -0.301009
v -0.084574 0.082295 -0.241541
v -0.252968 0.167145 -0.260519
v -0.254841 0.171322 -0.259882
v -0.257232 0.172734 -0.257099
v -0.260577 0.171441 -0.254183
v -0.261834 0.167453 -0.252212
v -0.260267 0.163107 -0.252341
v -0.256312 0.161238 -0.255336
v -0.253577 0.162968 -0.258636
v 0.025108 0.361909 -0.169019
v 0.084776 0.228876 -0.189317
v -0.078676 0.417013 -0.080347
v -0.165780 0.361909 0.024756
v -0.185180 0.228876 0.084721
v -0.125512 0.095842 0.064423
v -0.021729 0.040738 -0.024249
v 0.065375 0.095843 -0.129351
v 0.200461 0.424489 -0.014040
v 0.265680 0.279079 -0.036227
v 0.087021 0.484720 0.082881
v -0.008187 0.424489 0.197763
v -0.029392 0.279078 0.263308
v 0.035827 0.133668 0.241121
v 0.149267 0.073437 0.144199
v 0.244475 0.133668 0.029318
v 0.235698 0.422652 0.041986
v 0.294255 0.292094 0.022066
v 0.133846 0.476731 0.129008
v 0.048362 0.422652 0.232155
v 0.029323 0.292094 0.291005
v 0.087881 0.161536 0.271084
v 0.189733 0.107457 0.184062
v 0.275216 0.161536 0.080916
v 0.244522 0.401621 0.091533
v 0.290311 0.299531 0.075956
v 0.164879 0.443908 0.159579
v 0.098036 0.401621 0.240234
v 0.083148 0.299531 0.286252
v 0.128937 0.197442 0.270675
v 0.208580 0.155155 0.202629
v 0.275423 0.197442 0.121973
v 0.295673 0.383953 0.198761
v 0.323697 0.321472 0.189228
v 0.246930 0.409834 0.240408
v 0.206020 0.383953 0.289771
v 0.196908 0.321472 0.317935
v 0.224932 0.258990 0.308401
v 0.273676 0.233110 0.266755
v 0.314586 0.258991 0.217392
v 0.285781 0.373801 0.201450
v 0.309918 0.319984 0.193238
v 0.243796 0.396093 0.237321
v 0.208559 0.373801 0.279839
v 0.200711 0.319984 0.304097
v 0.224849 0.266167 0.295886
v 0.266833 0.243876 0.260014
v 0.302070 0.266167 0.217497
v 0.219819 0.389110 0.076079
v 0.262833 0.293210 0.061447
v 0.145004 0.428834 0.140001
v 0.082213 0.389110 0.215767
v 0.068228 0.293209 0.258995
v 0.111241 0.197309 0.244362
v 0.186056 0.157586 0.180441
v 0.248847 0.197309 0.104675
v 0.023789 0.352257 -0.154331
v 0.078461 0.230363 -0.172930
v -0.071303 0.402747 -0.073084
v -0.151113 0.352257 0.023217
v -0.168889 0.230363 0.078161
v -0.114218 0.108470 0.059563
v -0.019125 0.057980 -0.021684
v 0.060685 0.108470 -0.117985
v -0.204306 0.244113 -0.309755
v -0.171285 0.170492 -0.320988
v -0.261740 0.274608 -0.260684
v -0.309943 0.244113 -0.202520
v -0.320680 0.170492 -0.169335
v -0.287659 0.096871 -0.180568
v -0.230225 0.066376 -0.229639
v -0.182022 0.096871 -0.287803
v -0.231915 0.195341 -0.266964
v -0.220770 0.170492 -0.270755
v -0.251301 0.205634 -0.250401
v -0.267571 0.195341 -0.230768
v -0.271195 0.170492 -0.219567
v -0.260050 0.145642 -0.223359
v -0.240664 0.135349 -0.239922
v -0.224394 0.145642 -0.259554
v -0.257206 0.167145 -0.256217
v -0.245983 0.170492 -0.245161
vt 0.438477 0.531250
vt 0.499023 0.531250
vt 0.499023 0.567383
vt 0.438477 0.567383
vt 0.000000 0.531250
vt 0.064453 0.531250
vt 0.064453 0.567383
vt 0.000000 0.567383
vt 0.125977 0.531250
vt 0.125977 0.567383
vt 0.188477 0.531250
vt 0.188477 0.567383
vt 0.250000 0.531250
vt 0.250000 0.567383
vt 0.313477 0.531250
vt 0.313477 0.567383
vt 0.375977 0.531250
vt 0.375977 0.567383
vt 0.438477 0.500977
vt 0.499023 0.500977
vt 0.000000 0.500977
vt 0.064453 0.500977
vt 0.125977 0.500977
vt 0.188477 0.500977
vt 0.250000 0.500977
vt 0.313477 0.500977
vt 0.375977 0.500977
vt 0.499023 0.621094
vt 0.438477 0.621094
vt 0.064453 0.621094
vt 0.000000 0.621094
vt 0.125977 0.621094
vt 0.188477 0.621094
vt 0.250000 0.621094
vt 0.313477 0.621094
vt 0.375977 0.621094
vt 0.499023 0.691406
vt 0.438477 0.691406
vt 0.064453 0.691406
vt 0.000000 0.691406
vt 0.125977 0.691406
vt 0.188477 0.691406
vt 0.250000 0.691406
vt 0.313477 0.691406
vt 0.375977 0.691406
vt 0.499023 0.709961
vt 0.438477 0.709961
vt 0.064453 0.709961
vt 0.000000 0.709961
vt 0.125977 0.709961
vt 0.188477 0.709961
vt 0.250000 0.709961
vt 0.313477 0.709961
vt 0.375977 0.709961
vt 0.499023 0.725586
vt 0.438477 0.725586
vt 0.064453 0.725586
vt 0.000000 0.725586
vt 0.125977 0.725586
vt 0.188477 0.725586
vt 0.250000 0.725586
vt 0.313477 0.725586
vt 0.375977 0.725586
vt 0.499023 0.759766
vt 0.438477 0.759766
vt 0.064453 0.759766
vt 0.000000 0.759766
vt 0.125977 0.759766
vt 0.188477 0.759766
vt 0.250000 0.759766
vt 0.313477 0.759766
vt 0.375977 0.759766
vt 0.499023 0.762695
vt 0.438477 0.762695
vt 0.064453 0.762695
vt 0.000000 0.762695
vt 0.125977 0.762695
vt 0.188477 0.762695
vt 0.250000 0.762695
vt 0.313477 0.762695
vt 0.375977 0.762695
vt 0.499023 0.804688
vt 0.438477 0.804688
vt 0.064453 0.804688
vt 0.000000 0.804688
vt 0.125977 0.804688
vt 0.188477 0.804688
vt 0.250000 0.804688
vt 0.313477 0.804688
vt 0.375977 0.804688
vt 0.499023 0.894531
vt 0.438477 0.894531
vt 0.064453 0.894531
vt 0.000000 0.894531
vt 0.125977 0.894531
vt 0.188477 0.894531
vt 0.250000 0.894531
vt 0.313477 0.894531
vt 0.375977 0.894531
vt 0.499023 0.979492
vt 0.438477 0.979492
vt 0.064453 0.979492
vt 0.000000 0.979492
vt 0.125977 0.979492
vt 0.188477 0.979492
vt 0.250000 0.979492
vt 0.313477 0.979492
vt 0.375977 0.979492
vt 0.499023 1.000000
vt 0.438477 1.000000
vt 0.064453 1.000000
vt 0.000000 1.000000
vt 0.125977 1.000000
vt 0.188477 1.000000
vt 0.250000 1.000000
vt 0.313477 1.000000
vt 0.375977 1.000000
vt 0.158203 0.927734
vt 0.146484 0.897461
vt 0.170898 0.897461
vt 0.188477 0.915039
vt 0.128906 0.939453
vt 0.128906 0.915039
vt 0.170898 0.957031
vt 0.188477 0.939453
vt 0.146484 0.957031
vt 0.282227 0.942383
vt 0.301758 0.934570
vt 0.301758 0.951172
vt 0.291016 0.962891
vt 0.274414 0.922852
vt 0.291016 0.922852
vt 0.262695 0.951172
vt 0.274414 0.962891
vt 0.262695 0.934570
vn -0.0820 -0.1591 -0.9839
vn -0.2830 0.2861 -0.9155
vn 0.1848 0.6078 -0.7722
vn 0.4831 -0.0572 -0.8737
vn -0.6286 0.4702 -0.6194
vn -0.3340 0.8833 -0.3290
vn -0.9193 0.2872 -0.2691
vn -0.7694 0.6078 0.1964
vn -0.9851 -0.1585 -0.0666
vn -0.8664 -0.0572 0.4961
vn -0.7848 -0.6050 -0.1347
vn -0.5681 -0.7221 0.3947
vn -0.4375 -0.7887 -0.4319
vn -0.0493 -0.9976 -0.0486
vn -0.1469 -0.6041 -0.7833
vn 0.3861 -0.7221 -0.5740
vn -0.6968 -0.2078 -0.6865
vn -0.6996 -0.1911 -0.6885
vn -0.6994 -0.1708 -0.6940
vn -0.6878 -0.1858 -0.7017
vn -0.6806 -0.1993 -0.7051
vn -0.6843 -0.2057 -0.6995
vn -0.6871 -0.2086 -0.6959
vn -0.6924 -0.2078 -0.6910
vn 0.2972 0.6586 -0.6913
vn 0.6047 -0.0271 -0.7960
vn -0.2378 0.9426 -0.2343
vn -0.6868 0.6586 0.3075
vn -0.7868 -0.0271 0.6166
vn -0.4792 -0.7129 0.5120
vn 0.0557 -0.9969 0.0549
vn 0.5047 -0.7129 -0.4869
vn 0.4737 0.7119 -0.5186
vn 0.7816 0.0254 -0.6233
vn -0.0619 0.9962 -0.0610
vn -0.5114 0.7119 0.4814
vn -0.6115 0.0254 0.7908
vn -0.3036 -0.6611 0.6861
vn 0.2320 -0.9455 0.2285
vn 0.6815 -0.6611 -0.3139
vn 0.7018 0.6965 -0.1498
vn 0.9647 0.1103 -0.2392
vn 0.2445 0.9392 0.2409
vn -0.1392 0.6965 0.7040
vn -0.2247 0.1103 0.9682
vn 0.0382 -0.4758 0.8787
vn 0.4954 -0.7186 0.4880
vn 0.8792 -0.4758 0.0250
vn 0.7498 0.6615 -0.0175
vn 0.9861 0.1346 -0.0978
vn 0.3388 0.8797 0.3337
vn -0.0062 0.6615 0.7499
vn -0.0830 0.1346 0.9874
vn 0.1533 -0.3922 0.9070
vn 0.5643 -0.6104 0.5559
vn 0.9092 -0.3922 0.1396
vn 0.7969 0.4795 0.3675
vn 0.9274 0.1885 0.3231
vn 0.5699 0.6000 0.5614
vn 0.3794 0.4795 0.7913
vn 0.3370 0.1885 0.9224
vn 0.4675 -0.1024 0.8780
vn 0.6945 -0.2229 0.6841
vn 0.8850 -0.1024 0.4543
vn -0.1129 -0.5696 0.8141
vn -0.4022 0.0752 0.9125
vn 0.3901 -0.8367 0.3843
vn 0.8123 -0.5696 -0.1252
vn 0.9063 0.0752 -0.4158
vn 0.6171 0.7200 -0.3174
vn 0.1141 0.9871 0.1124
vn -0.3081 0.7200 0.6218
vn -0.5645 -0.7221 0.4000
vn -0.8633 -0.0559 0.5016
vn -0.0448 -0.9980 -0.0441
vn 0.3914 -0.7221 -0.5704
vn 0.4886 -0.0559 -0.8707
vn 0.1898 0.6103 -0.7691
vn -0.3299 0.8863 -0.3250
vn -0.7661 0.6103 0.2013
vn -0.3529 -0.6793 0.6435
vn -0.6627 0.0114 0.7488
vn 0.1859 -0.9654 0.1831
vn 0.6381 -0.6793 -0.3625
vn 0.7388 0.0114 -0.6738
vn 0.4290 0.7020 -0.5684
vn -0.1097 0.9881 -0.1081
vn -0.5619 0.7020 0.4375
vn 0.2268 -0.3330 0.9152
vn 0.0106 0.1490 0.9888
vn 0.6029 -0.5327 0.5939
vn 0.9185 -0.3330 0.2131
vn 0.9888 0.1490 -0.0042
vn 0.7726 0.6311 0.0693
vn 0.3965 0.8308 0.3906
vn 0.0809 0.6311 0.7715
vn 0.6968 0.2078 0.6865
vn -0.6807 -0.1805 -0.7100
usemtl Mug_1.001
s 1
f 1/1/1 2/2/2 3/3/3 4/4/4
f 2/5/2 5/6/5 6/7/6 3/8/3
f 5/6/5 7/9/7 8/10/8 6/7/6
f 7/9/7 9/11/9 10/12/10 8/10/8
f 9/11/9 11/13/11 12/14/12 10/12/10
f 11/13/11 13/15/13 14/16/14 12/14/12
f 13/15/13 15/17/15 16/18/16 14/16/14
f 15/17/15 1/1/1 4/4/4 16/18/16
f 17/19/17 18/20/18 2/2/2 1/1/1
f 18/21/18 19/22/19 5/6/5 2/5/2
f 19/22/19 20/23/20 7/9/7 5/6/5
f 20/23/20 21/24/21 9/11/9 7/9/7
f 21/24/21 22/25/22 11/13/11 9/11/9
f 22/25/22 23/26/23 13/15/13 11/13/11
f 23/26/23 24/27/24 15/17/15 13/15/13
f 24/27/24 17/19/17 1/1/1 15/17/15
f 4/4/4 3/3/3 25/28/25 26/29/26
f 3/8/3 6/7/6 27/30/27 25/31/25
f 6/7/6 8/10/8 28/32/28 27/30/27
f 8/10/8 10/12/10 29/33/29 28/32/28
f 10/12/10 12/14/12 30/34/30 29/33/29
f 12/14/12 14/16/14 31/35/31 30/34/30
f 14/16/14 16/18/16 32/36/32 31/35/31
f 16/18/16 4/4/4 26/29/26 32/36/32
f 26/29/26 25/28/25 33/37/33 34/38/34
f 25/31/25 27/30/27 35/39/35 33/40/33
f 27/30/27 28/32/28 36/41/36 35/39/35
f 28/32/28 29/33/29 37/42/37 36/41/36
f 29/33/29 30/34/30 38/43/38 37/42/37
f 30/34/30 31/35/31 39/44/39 38/43/38
f 31/35/31 32/36/32 40/45/40 39/44/39
f 32/36/32 26/29/26 34/38/34 40/45/40
f 34/38/34 33/37/33 41/46/41 42/47/42
f 33/40/33 35/39/35 43/48/43 41/49/41
f 35/39/35 36/41/36 44/50/44 43/48/43
f 36/41/36 37/42/37 45/51/45 44/50/44
f 37/42/37 38/43/38 46/52/46 45/51/45
f 38/43/38 39/44/39 47/53/47 46/52/46
f 39/44/39 40/45/40 48/54/48 47/53/47
f 40/45/40 34/38/34 42/47/42 48/54/48
f 42/47/42 41/46/41 49/55/49 50/56/50
f 41/49/41 43/48/43 51/57/51 49/58/49
f 43/48/43 44/50/44 52/59/52 51/57/51
f 44/50/44 45/51/45 53/60/53 52/59/52
f 45/51/45 46/52/46 54/61/54 53/60/53
f 46/52/46 47/53/47 55/62/55 54/61/54
f 47/53/47 48/54/48 56/63/56 55/62/55
f 48/54/48 42/47/42 50/56/50 56/63/56
f 50/56/50 49/55/49 57/64/57 58/65/58
f 49/58/49 51/57/51 59/66/59 57/67/57
f 51/57/51 52/59/52 60/68/60 59/66/59
f 52/59/52 53/60/53 61/69/61 60/68/60
f 53/60/53 54/61/54 62/70/62 61/69/61
f 54/61/54 55/62/55 63/71/63 62/70/62
f 55/62/55 56/63/56 64/72/64 63/71/63
f 56/63/56 50/56/50 58/65/58 64/72/64
f 58/65/58 57/64/57 65/73/65 66/74/66
f 57/67/57 59/66/59 67/75/67 65/76/65
f 59/66/59 60/68/60 68/77/68 67/75/67
f 60/68/60 61/69/61 69/78/69 68/77/68
f 61/69/61 62/70/62 70/79/70 69/78/69
f 62/70/62 63/71/63 71/80/71 70/79/70
f 63/71/63 64/72/64 72/81/72 71/80/71
f 64/72/64 58/65/58 66/74/66 72/81/72
f 66/74/66 65/73/65 73/82/73 74/83/74
f 65/76/65 67/75/67 75/84/75 73/85/73
f 67/75/67 68/77/68 76/86/76 75/84/75
f 68/77/68 69/78/69 77/87/77 76/86/76
f 69/78/69 70/79/70 78/88/78 77/87/77
f 70/79/70 71/80/71 79/89/79 78/88/78
f 71/80/71 72/81/72 80/90/80 79/89/79
f 72/81/72 66/74/66 74/83/74 80/90/80
f 74/83/74 73/82/73 81/91/81 82/92/82
f 73/85/73 75/84/75 83/93/83 81/94/81
f 75/84/75 76/86/76 84/95/84 83/93/83
f 76/86/76 77/87/77 85/96/85 84/95/84
f 77/87/77 78/88/78 86/97/86 85/96/85
f 78/88/78 79/89/79 87/98/87 86/97/86
f 79/89/79 80/90/80 88/99/88 87/98/87
f 80/90/80 74/83/74 82/92/82 88/99/88
f 82/92/82 81/91/81 89/100/89 90/101/90
f 81/94/81 83/93/83 91/102/91 89/103/89
f 83/93/83 84/95/84 92/104/92 91/102/91
f 84/95/84 85/96/85 93/105/93 92/104/92
f 85/96/85 86/97/86 94/106/94 93/105/93
f 86/97/86 87/98/87 95/107/95 94/106/94
f 87/98/87 88/99/88 96/108/96 95/107/95
f 88/99/88 82/92/82 90/101/90 96/108/96
f 90/101/90 89/100/89 97/109/97 98/110/97
f 89/103/89 91/102/91 99/111/97 97/112/97
f 91/102/91 92/104/92 100/113/97 99/111/97
f 92/104/92 93/105/93 101/114/97 100/113/97
f 93/105/93 94/106/94 102/115/97 101/114/97
f 94/106/94 95/107/95 103/116/97 102/115/97
f 95/107/95 96/108/96 104/117/97 103/116/97
f 96/108/96 90/101/90 98/110/97 104/117/97
f 105/118/98 24/119/24 23/120/23 22/121/22
f 18/122/18 17/123/17 24/119/24 105/118/98
f 20/124/20 105/118/98 22/121/22 21/125/21
f 19/126/19 18/122/18 105/118/98 20/124/20
f 106/127/97 100/128/97 101/129/97 102/130/97
f 97/131/97 99/132/97 100/128/97 106/127/97
f 104/133/97 106/127/97 102/130/97 103/134/97
f 98/135/97 97/131/97 106/127/97 104/133/97
