# Blender v2.83.5 OBJ File: ''
# www.blender.org
mtllib vase_1_debris_001.mtl
o mug_3.005_cell.012_Mesh.050
v -0.156393 0.248705 -0.091464
v -0.173011 0.258250 -0.085208
v -0.158890 0.265924 -0.072247
v -0.127626 0.250401 -0.081199
v -0.151538 0.251507 -0.086818
v -0.233422 -0.003362 0.019347
v -0.283764 -0.003362 0.042673
v -0.292697 0.011274 0.024731
v -0.295679 0.028375 0.000308
v -0.251969 0.025769 -0.016013
v -0.247449 0.013790 -0.000030
v 0.208985 -0.003363 -0.185650
v 0.159906 -0.003362 -0.162908
v 0.158197 0.001314 -0.169170
v -0.296125 0.030985 -0.003269
v -0.253709 0.030474 -0.022033
v 0.020242 -0.003341 0.198736
v 0.050202 -0.003343 0.149762
v 0.074980 -0.003314 0.149607
v 0.181230 -0.003295 0.008174
v 0.173717 -0.003352 -0.052156
v 0.220360 -0.003355 -0.128407
v 0.233171 -0.003290 -0.063842
v 0.234593 -0.003213 0.031629
v 0.097025 -0.003253 0.194429
v -0.297856 0.049246 -0.004740
v -0.256422 0.063131 -0.024833
v -0.258077 0.051356 -0.022655
v -0.113497 -0.003346 0.206186
v -0.201495 -0.003354 0.136310
v -0.100318 -0.003349 0.150595
v -0.298432 0.055334 -0.005208
v -0.279852 0.126711 -0.021984
v -0.254950 0.073460 -0.026718
v 0.153244 0.015120 -0.186912
v 0.205065 0.003632 -0.194085
v 0.179824 0.097748 -0.169232
v 0.127353 0.123800 -0.154208
v 0.117150 0.169952 -0.103522
v -0.021529 0.245413 -0.056136
v -0.005542 0.268613 -0.024513
v 0.010998 0.261460 -0.028018
v 0.176963 0.127831 -0.135092
v 0.180830 0.087282 -0.181060
v 0.131245 0.106350 -0.173291
v 0.109331 0.218912 -0.048760
v 0.172516 0.174897 -0.081528
v 0.145157 0.059831 -0.180618
v 0.199690 0.022153 -0.191252
v 0.139155 0.093096 -0.175806
v 0.006145 0.318460 0.037006
v 0.017063 0.334238 0.058603
v 0.031800 0.332686 0.061118
v 0.042088 0.330681 0.061801
v 0.054948 0.321203 0.054526
v 0.067554 0.313263 0.048969
v 0.056774 0.297684 0.027644
v 0.032036 0.307761 0.032132
v 0.059191 0.264920 0.098980
v 0.036614 0.263100 0.101075
v 0.081612 0.261887 0.079516
v 0.045091 0.161538 0.105286
v 0.037132 0.160233 0.106057
v 0.068283 0.156158 0.095677
v 0.060352 0.159705 0.102457
v 0.020681 0.266438 0.068550
v 0.022258 0.199874 0.074299
v -0.131140 0.048117 0.189045
v 0.082814 0.091307 0.161920
v 0.055330 0.164554 0.103238
v 0.037681 0.211593 0.065553
v 0.024346 0.247134 0.037080
v -0.168440 0.208218 0.061521
v 0.042811 0.207632 0.063415
v 0.067421 0.188400 0.053468
v 0.082033 0.149458 0.084667
v 0.233503 0.041267 0.009716
v 0.065784 0.265047 0.047212
v -0.144426 0.154317 0.056122
v 0.022209 0.187954 0.034996
v 0.139571 0.148982 -0.083546
vt 0.312988 0.925293
vt 0.312988 0.941895
vt 0.295410 0.938965
vt 0.291504 0.909668
vt 0.306152 0.924316
vt 0.117676 0.600098
vt 0.095215 0.559082
vt 0.114746 0.549316
vt 0.140137 0.543457
vt 0.155762 0.579590
vt 0.139160 0.585449
vt 0.314941 0.958496
vt 0.293457 0.919434
vt 0.299316 0.916504
vt 0.144043 0.542480
vt 0.162598 0.576660
vt 0.030762 0.799316
vt 0.067871 0.824707
vt 0.071777 0.844238
vt 0.181152 0.932129
vt 0.220215 0.928223
vt 0.277832 0.967285
vt 0.235840 0.976074
vt 0.172363 0.975098
vt 0.044434 0.860840
vt 0.155762 0.537598
vt 0.182129 0.567871
vt 0.174316 0.568848
vt 0.007324 0.691895
vt 0.043457 0.622559
vt 0.047363 0.703613
vt 0.158691 0.535645
vt 0.213379 0.535645
vt 0.344238 0.594238
vt 0.345215 0.609863
vt 0.189941 0.566895
vt 0.318848 0.910645
vt 0.323730 0.954590
vt 0.255371 0.616699
vt 0.261230 0.666504
vt 0.216309 0.706543
vt 0.225098 0.843262
vt 0.188965 0.850098
vt 0.185059 0.835449
vt 0.224121 0.640137
vt 0.267090 0.608887
vt 0.278809 0.651855
vt 0.166504 0.746582
vt 0.173340 0.677246
vt 0.295410 0.621582
vt 0.290527 0.566895
vt 0.296387 0.555176
vt 0.312988 0.597168
vt 0.281738 0.641113
vt 0.452637 0.915527
vt 0.427246 0.915527
vt 0.421387 0.903809
vt 0.418457 0.895996
vt 0.424316 0.882324
vt 0.427246 0.869629
vt 0.452637 0.869629
vt 0.452637 0.892090
vt 0.114746 0.682129
vt 0.141113 0.740723
vt 0.107910 0.689941
vt 0.121582 0.675293
vt 0.159668 0.731934
vt 0.120605 0.744629
vt 0.100098 0.697754
vt 0.130371 0.666504
vt 0.197754 0.791504
vt 0.204590 0.788574
vt 0.180176 0.801270
vt 0.187012 0.799316
vt 0.163574 0.763184
vt 0.139160 0.683105
vt 0.156738 0.614746
vt 0.181152 0.619629
vt 0.167480 0.669434
vt 0.181152 0.722168
vt 0.397949 0.803223
vt 0.216309 0.870605
vt 0.187988 0.794434
vt 0.188965 0.747559
vt 0.170410 0.744629
vt 0.156738 0.707520
vt 0.320801 0.645996
vt 0.151855 0.655762
vt 0.250488 0.563965
vt 0.082520 0.727051
vt 0.167480 0.748535
vt 0.154785 0.766113
vt 0.170410 0.807129
vt 0.084473 0.906738
vt 0.044434 0.768066
vt 0.301270 0.822754
vt 0.225098 0.817871
vt 0.177246 0.785645
vt 0.135254 0.757324
vt 0.133301 0.747559
vt 0.144043 0.735840
vt 0.184082 0.693848
vt 0.197754 0.692871
vt 0.237793 0.687988
vt 0.301270 0.681152
vt 0.373535 0.948730
vt 0.372559 0.916504
vt 0.395996 0.956543
vt 0.416504 0.915527
vt 0.418457 0.965332
vt 0.195801 0.610840
vt 0.265137 0.599121
vt 0.265137 0.770020
vt 0.155762 0.788574
vt 0.125488 0.741699
vt 0.121582 0.697754
vt 0.126465 0.677246
vt 0.255371 0.941895
vt 0.412598 0.846191
vt 0.312988 0.906738
vt 0.397949 0.879395
vt 0.402832 0.882324
vt 0.418457 0.873535
vt 0.144043 0.838379
vt 0.374512 0.869629
vt 0.108887 0.939941
vt 0.248535 0.554199
vt 0.122559 0.736816
vt 0.113770 0.724121
vt 0.114746 0.721191
vt 0.293457 0.862793
vt 0.196777 0.618652
vt 0.258301 0.747559
vt 0.147949 0.749512
vt 0.191895 0.617676
vt 0.338379 0.718262
vt 0.249512 0.763184
vt 0.194824 0.636230
vt 0.345215 0.612793
vt 0.343262 0.632324
vt 0.258301 0.903809
vt 0.147949 0.825684
vt 0.141113 0.803223
vt 0.141113 0.766113
vt 0.145020 0.757324
vt 0.345215 0.846191
vt 0.323730 0.868652
vt 0.134277 0.787598
vt 0.131348 0.781738
vt 0.362793 0.769043
vt 0.458496 0.770020
vt 0.451660 0.798340
vt 0.393066 0.784668
vt 0.370605 0.778809
vt 0.344238 0.746582
vt 0.318848 0.717285
vt 0.326660 0.698730
vt 0.328613 0.692871
vt 0.412598 0.645020
vt 0.458496 0.618652
vt 0.179199 0.802246
vt 0.167480 0.864746
vt 0.179199 0.895020
vt 0.155762 0.902832
vt 0.139160 0.854004
vt 0.158691 0.763184
vt 0.412598 0.602051
vt 0.260254 0.556152
vn 0.1854 0.7437 -0.6423
vn -0.2480 -0.8075 -0.5352
vn -0.2480 -0.8075 -0.5353
vn -0.2527 -0.7964 -0.5495
vn 0.0012 -1.0000 0.0008
vn -0.4032 -0.1114 -0.9083
vn 0.0000 -1.0000 0.0001
vn -0.4042 -0.1083 -0.9083
vn -0.2520 -0.7974 -0.5482
vn 0.1864 0.7448 -0.6407
vn 0.1877 0.7455 -0.6395
vn -0.1102 0.1190 -0.9868
vn -0.1072 0.1234 -0.9866
vn 0.0001 -1.0000 0.0001
vn 0.3519 0.9134 0.2047
vn 0.3841 0.2988 0.8736
vn 0.5564 0.8304 -0.0305
vn 0.1141 0.9733 0.1993
vn -0.4419 0.1987 0.8748
vn 0.9534 0.1885 0.2356
vn 0.7685 0.6184 -0.1640
vn -0.4703 0.8664 0.1677
vn 0.0531 0.3476 0.9361
vn -0.1619 0.3422 0.9256
vn 0.6882 0.3353 0.6434
vn 0.6337 0.3360 0.6968
vn -0.7659 0.2868 -0.5754
vn -0.9039 -0.2411 -0.3533
vn -0.7762 0.3484 0.5255
vn -0.3582 0.3667 0.8586
vn 0.3856 0.5168 0.7643
vn 0.2263 0.3783 0.8976
vn 0.1750 0.9318 0.3179
vn 0.2614 0.8256 0.5000
vn -0.4286 0.6865 0.5874
vn 0.1304 0.9849 -0.1135
vn -0.2240 0.9652 -0.1347
vn 0.5079 0.8546 -0.1080
vn 0.3058 0.7181 -0.6252
vn 0.9010 0.3190 -0.2940
vn 0.8276 0.3225 0.4594
vn 0.9095 0.3429 0.2352
vn 0.6650 0.7256 -0.1767
vn 0.7973 -0.5893 -0.1306
vn 0.7908 -0.5916 -0.1569
vn 0.6433 -0.6237 -0.4440
vn 0.4758 -0.2578 -0.8409
vn 0.5523 0.2809 -0.7849
vn 0.5019 0.4163 -0.7581
vn 0.6436 0.5997 -0.4755
vn 0.6441 0.6000 -0.4745
vn 0.2882 0.0128 -0.9575
vn 0.2769 -0.2558 -0.9262
vn -0.1281 0.1345 -0.9826
vn -0.5962 -0.5766 0.5586
vn -0.9200 0.2982 -0.2544
vn -0.9620 0.1445 -0.2315
vn -0.9021 -0.4271 0.0616
vn -0.7513 -0.6149 0.2395
vn 0.3864 -0.4891 0.7820
vn -0.1870 -0.5409 0.8200
vn 0.0457 -0.5781 0.8147
vn 0.3282 0.8997 -0.2878
vn 0.7594 -0.5485 0.3498
vn -0.8480 -0.1211 -0.5160
vn -0.7524 -0.4044 -0.5199
vn -0.7732 -0.5574 -0.3023
vn 0.5301 -0.0859 -0.8436
vn 0.4103 -0.5750 -0.7079
vn 0.2146 -0.2790 -0.9360
vn 0.3352 0.0021 -0.9422
vn 0.0011 -0.2966 -0.9550
vn -0.3164 -0.7216 -0.6157
vn 0.2265 -0.0615 -0.9721
vn 0.1639 -0.8300 -0.5331
vn 0.2950 -0.7879 -0.5405
vn 0.3240 -0.5985 -0.7326
vn 0.2527 -0.1726 -0.9520
vn 0.1684 -0.2009 -0.9650
vn -0.7335 -0.3485 -0.5835
vn -0.8282 -0.5517 -0.0988
vn -0.2206 -0.8681 -0.4446
vn -0.0022 -0.8706 -0.4921
vn 0.6236 -0.5243 -0.5799
vn 0.4583 -0.3081 -0.8337
vn -0.8216 -0.1517 -0.5495
vn -0.8419 0.3031 -0.4465
vn -0.7897 0.1659 -0.5906
vn -0.5325 -0.8235 -0.1956
vn -0.7795 -0.0510 -0.6243
vn -0.6919 -0.3277 -0.6433
vn -0.7477 -0.6114 -0.2592
vn -0.6180 -0.7795 -0.1026
vn -0.6297 -0.7728 0.0791
vn -0.5295 0.6280 -0.5702
usemtl Mug_3
s off
f 1/1/1 2/2/1 3/3/1 4/4/1 5/5/1
f 6/6/2 7/7/2 8/8/2 9/9/2 10/10/2 11/11/2
f 12/12/3 13/13/3 14/14/3
f 10/10/4 9/9/4 15/15/4 16/16/4
f 17/17/5 18/18/5 19/19/5 20/20/5 21/21/5 22/22/5 23/23/5 24/24/5 25/25/5
f 16/16/6 15/15/6 26/26/6 27/27/6 28/28/6
f 18/18/7 17/17/7 29/29/7 30/30/7 7/7/7 6/6/7 31/31/7
f 27/27/8 26/26/8 32/32/8 33/33/8 2/34/8 1/35/8 34/36/8
f 35/37/9 36/38/9 12/12/9 14/14/9
f 37/39/10 38/40/10 39/41/10 40/42/10 4/4/10 3/3/10 41/43/10 42/44/10 43/45/10
f 44/46/1 45/47/1 38/40/1 37/39/1
f 43/45/11 42/44/11 46/48/11 47/49/11
f 48/50/12 49/51/12 36/52/12 35/53/12
f 45/47/13 44/46/13 49/51/13 48/50/13 50/54/13
f 51/55/11 52/56/11 53/57/11 54/58/11 55/59/11 56/60/11 57/61/11 58/62/11
f 13/13/14 12/12/14 22/22/14 21/21/14
s 1
f 54/63/15 59/64/16 55/65/17
f 53/66/18 60/67/19 59/64/16 54/63/15
f 55/65/17 59/64/16 61/68/20 56/69/21
f 52/70/22 60/67/19 53/66/18
f 62/71/23 59/64/16 60/67/19 63/72/24
f 64/73/25 61/68/20 59/64/16 65/74/26
f 63/75/24 60/76/19 52/77/22 51/78/27 66/79/28 67/80/29
f 68/81/30 69/82/31 70/83/32 62/71/23 63/72/24 67/84/29 71/85/33 72/86/34 73/87/35
f 59/64/16 62/71/23 70/83/32 65/74/26
f 73/87/35 72/86/34 41/88/36 3/89/37
f 46/90/38 72/86/34 71/85/33 74/91/39 75/92/40 76/93/41 64/73/25 65/74/26 70/83/32 69/82/31 77/94/42 47/95/43
f 76/93/41 61/68/20 64/73/25
f 77/96/42 23/97/44 22/98/45 12/99/46 36/100/47 49/101/48 44/102/49 37/103/50 43/104/51 47/105/43
f 57/106/52 78/107/53 58/108/54
f 58/108/54 78/107/53 66/109/28 51/110/27
f 30/111/55 68/112/30 73/113/35 33/114/56 32/115/57 8/116/58 7/117/59
f 25/118/60 69/82/31 68/81/30 29/119/61 17/120/62
f 66/109/28 74/121/39 71/122/33 67/123/29
f 72/124/34 46/48/38 42/44/63 41/43/36
f 74/121/39 66/109/28 78/107/53 75/125/40
f 24/126/64 77/94/42 69/82/31 25/118/60
f 29/127/61 68/112/30 30/111/55
f 8/116/58 32/115/57 26/128/65 15/129/66 9/130/67
f 23/97/44 77/96/42 24/131/64
f 5/132/68 79/133/69 34/134/70 1/135/71
f 40/136/72 80/137/73 79/138/69 5/139/68 4/140/74
f 34/134/70 79/133/69 31/141/75 6/142/76 11/143/77 28/144/78 27/145/79
f 39/146/80 81/147/81 80/137/73 40/136/72
f 79/138/69 80/137/73 19/19/82 18/18/83 31/31/75
f 28/144/78 11/143/77 10/148/84 16/149/85
f 50/150/86 81/151/81 39/152/80 38/153/87 45/154/88
f 19/19/82 80/137/73 81/147/81 20/20/89
f 81/151/81 50/150/86 48/155/90 35/156/91 14/157/92 13/158/93 21/159/94 20/160/89
f 75/161/40 78/162/53 57/163/52 56/164/21 61/165/20 76/166/41
f 33/167/56 73/87/35 3/89/37 2/168/95
