# Blender v2.79 (sub 0) OBJ File: 'mugs_and_torches_1_001.blend'
# www.blender.org
mtllib vase_10_001.mtl
o vase_10_mug_1.001_Plane.007
v -0.111795 0.000717 -0.000007
v -0.079047 0.000717 0.079053
v -0.110682 0.113456 0.110688
v -0.156533 0.113456 -0.000007
v 0.000013 0.000717 0.111801
v 0.000013 0.113456 0.156539
v 0.079073 0.000717 0.079053
v 0.110707 0.113456 0.110688
v 0.111821 0.000717 -0.000007
v 0.156559 0.113456 -0.000007
v 0.079073 0.000717 -0.079067
v 0.110707 0.113456 -0.110702
v 0.000013 0.000717 -0.111815
v 0.000013 0.113456 -0.156553
v -0.079048 0.000717 -0.079067
v -0.110682 0.113456 -0.110702
v -0.006026 0.000717 -0.000007
v -0.004257 0.000717 0.004263
v -0.000597 0.001255 0.005592
v 0.003828 0.000657 0.004397
v 0.006114 0.000305 0.000396
v 0.004922 0.000405 -0.004069
v 0.000013 0.000717 -0.006046
v -0.004257 0.000717 -0.004277
v -0.135989 0.297776 0.135995
v -0.192323 0.297776 -0.000007
v 0.000013 0.297776 0.192329
v 0.136015 0.297776 0.135995
v 0.192349 0.297776 -0.000007
v 0.136015 0.297776 -0.136009
v 0.000013 0.297776 -0.192343
v -0.135990 0.297776 -0.136009
v -0.148643 0.539361 0.148649
v -0.210219 0.539361 -0.000007
v 0.000013 0.539361 0.210224
v 0.148669 0.539361 0.148649
v 0.210244 0.539361 -0.000007
v 0.148669 0.539361 -0.148663
v 0.000013 0.539361 -0.210238
v -0.148643 0.539361 -0.148663
v -0.133459 0.601994 0.133465
v -0.188744 0.601994 -0.000007
v 0.000013 0.601994 0.188750
v 0.133484 0.601994 0.133464
v 0.188770 0.601994 -0.000007
v 0.133484 0.601994 -0.133478
v 0.000013 0.601994 -0.188764
v -0.133459 0.601994 -0.133478
v -0.104355 0.637784 0.104361
v -0.147586 0.637784 -0.000007
v 0.000013 0.637784 0.147591
v 0.104381 0.637784 0.104361
v 0.147611 0.637784 -0.000007
v 0.104380 0.637784 -0.104375
v 0.000013 0.637784 -0.147605
v -0.104355 0.637784 -0.104375
v -0.063863 0.743365 0.063869
v -0.090321 0.743365 -0.000007
v 0.000013 0.743365 0.090327
v 0.063888 0.743365 0.063869
v 0.090347 0.743365 -0.000007
v 0.063888 0.743365 -0.063883
v 0.000013 0.743365 -0.090341
v -0.063863 0.743365 -0.063883
v -0.055005 0.736207 0.055011
v -0.077795 0.736207 -0.000007
v 0.000013 0.736207 0.077800
v 0.055031 0.736207 0.055011
v 0.077820 0.736207 -0.000007
v 0.055031 0.736207 -0.055025
v 0.000013 0.736207 -0.077814
v -0.055005 0.736207 -0.055025
v -0.098028 0.607362 0.098034
v -0.138638 0.607362 -0.000007
v 0.000013 0.607362 0.138644
v 0.098054 0.607362 0.098034
v 0.138663 0.607362 -0.000007
v 0.098054 0.607362 -0.098048
v 0.000013 0.607362 -0.138658
v -0.098028 0.607362 -0.098048
v -0.124601 0.304934 0.124607
v -0.176218 0.304934 -0.000007
v 0.000013 0.304934 0.176224
v 0.124627 0.304934 0.124607
v 0.176243 0.304934 -0.000007
v 0.124626 0.304934 -0.124621
v 0.000013 0.304934 -0.176237
v -0.124601 0.304934 -0.124621
v -0.075251 0.016823 0.075257
v -0.106427 0.016823 -0.000007
v 0.000013 0.016823 0.106433
v 0.075277 0.016823 0.075257
v 0.106452 0.016823 -0.000007
v 0.075277 0.016823 -0.075271
v 0.000013 0.016823 -0.106446
v -0.075251 0.016823 -0.075271
v -0.025391 0.016823 0.025397
v -0.035914 0.016823 -0.000007
v 0.000013 0.016823 0.035920
v 0.025417 0.016823 0.025397
v 0.035939 0.016823 -0.000007
v 0.025417 0.016823 -0.025411
v 0.000013 0.016823 -0.035934
v -0.025391 0.016823 -0.025411
v 0.000013 0.000717 -0.000007
v 0.000013 0.016823 -0.000007
vt 0.438477 0.530273
vt 0.499023 0.530273
vt 0.499023 0.566406
vt 0.438477 0.566406
vt 0.000000 0.530273
vt 0.061523 0.530273
vt 0.061523 0.566406
vt 0.000000 0.566406
vt 0.125000 0.530273
vt 0.125000 0.566406
vt 0.186523 0.530273
vt 0.186523 0.566406
vt 0.250000 0.530273
vt 0.250000 0.566406
vt 0.312500 0.530273
vt 0.312500 0.566406
vt 0.375000 0.530273
vt 0.375000 0.566406
vt 0.438477 0.500977
vt 0.499023 0.500977
vt 0.000000 0.500977
vt 0.061523 0.500977
vt 0.125000 0.500977
vt 0.186523 0.500977
vt 0.250000 0.500977
vt 0.312500 0.500977
vt 0.375000 0.500977
vt 0.499023 0.620117
vt 0.438477 0.620117
vt 0.061523 0.620117
vt 0.000000 0.620117
vt 0.125000 0.620117
vt 0.186523 0.620117
vt 0.250000 0.620117
vt 0.312500 0.620117
vt 0.375000 0.620117
vt 0.499023 0.690430
vt 0.438477 0.690430
vt 0.061523 0.690430
vt 0.000000 0.690430
vt 0.125000 0.690430
vt 0.186523 0.690430
vt 0.250000 0.690430
vt 0.312500 0.690430
vt 0.375000 0.690430
vt 0.499023 0.709961
vt 0.438477 0.709961
vt 0.061523 0.709961
vt 0.000000 0.709961
vt 0.125000 0.709961
vt 0.186523 0.709961
vt 0.250000 0.709961
vt 0.312500 0.709961
vt 0.375000 0.709961
vt 0.499023 0.725586
vt 0.438477 0.725586
vt 0.061523 0.725586
vt 0.000000 0.725586
vt 0.125000 0.725586
vt 0.186523 0.725586
vt 0.250000 0.725586
vt 0.312500 0.725586
vt 0.375000 0.725586
vt 0.499023 0.759766
vt 0.438477 0.759766
vt 0.061523 0.759766
vt 0.000000 0.759766
vt 0.125000 0.759766
vt 0.186523 0.759766
vt 0.250000 0.759766
vt 0.312500 0.759766
vt 0.375000 0.759766
vt 0.499023 0.764648
vt 0.438477 0.764648
vt 0.061523 0.764648
vt 0.000000 0.764648
vt 0.125000 0.764648
vt 0.186523 0.764648
vt 0.250000 0.764648
vt 0.312500 0.764648
vt 0.375000 0.764648
vt 0.499023 0.805664
vt 0.438477 0.805664
vt 0.061523 0.805664
vt 0.000000 0.805664
vt 0.125000 0.805664
vt 0.186523 0.805664
vt 0.250000 0.805664
vt 0.312500 0.805664
vt 0.375000 0.805664
vt 0.499023 0.893555
vt 0.438477 0.893555
vt 0.061523 0.893555
vt 0.000000 0.893555
vt 0.125000 0.893555
vt 0.186523 0.893555
vt 0.250000 0.893555
vt 0.312500 0.893555
vt 0.375000 0.893555
vt 0.499023 0.979492
vt 0.438477 0.979492
vt 0.061523 0.979492
vt 0.000000 0.979492
vt 0.125000 0.979492
vt 0.186523 0.979492
vt 0.250000 0.979492
vt 0.312500 0.979492
vt 0.375000 0.979492
vt 0.499023 1.000000
vt 0.438477 1.000000
vt 0.061523 1.000000
vt 0.000000 1.000000
vt 0.125000 1.000000
vt 0.186523 1.000000
vt 0.250000 1.000000
vt 0.312500 1.000000
vt 0.375000 1.000000
vt 0.228516 0.933594
vt 0.215820 0.903320
vt 0.240234 0.903320
vt 0.257812 0.920898
vt 0.198242 0.945312
vt 0.198242 0.920898
vt 0.240234 0.962891
vt 0.257812 0.945312
vt 0.215820 0.962891
vt 0.402344 0.932617
vt 0.421875 0.924805
vt 0.421875 0.941406
vt 0.410156 0.953125
vt 0.393555 0.913086
vt 0.410156 0.913086
vt 0.382812 0.941406
vt 0.393555 0.953125
vt 0.382812 0.924805
vn -0.6434 -0.7656 0.0000
vn -0.4536 -0.7662 0.4552
vn -0.6798 -0.2750 0.6798
vn -0.9614 -0.2750 0.0000
vn -0.0001 -0.7656 0.6434
vn 0.0000 -0.2750 0.9614
vn 0.4534 -0.7657 0.4562
vn 0.6798 -0.2750 0.6798
vn 0.6439 -0.7651 0.0005
vn 0.9614 -0.2750 -0.0000
vn 0.4547 -0.7651 -0.4560
vn 0.6798 -0.2750 -0.6798
vn -0.0007 -0.7652 -0.6438
vn 0.0000 -0.2750 -0.9614
vn -0.4549 -0.7656 -0.4549
vn -0.6798 -0.2750 -0.6798
vn 0.0000 -1.0000 -0.0000
vn 0.0005 -0.9999 0.0171
vn -0.0036 -0.9993 0.0377
vn -0.0173 -0.9996 0.0225
vn -0.0247 -0.9997 0.0086
vn -0.0181 -0.9998 0.0021
vn -0.0136 -0.9999 -0.0009
vn -0.0064 -1.0000 -0.0000
vn -0.7010 -0.1306 0.7010
vn -0.9914 -0.1306 0.0000
vn 0.0000 -0.1306 0.9914
vn 0.7010 -0.1306 0.7010
vn 0.9914 -0.1306 -0.0000
vn 0.7010 -0.1306 -0.7010
vn 0.0000 -0.1306 -0.9914
vn -0.7010 -0.1306 -0.7010
vn -0.7018 0.1220 0.7018
vn -0.9925 0.1220 0.0000
vn 0.0000 0.1220 0.9925
vn 0.7018 0.1220 0.7018
vn 0.9925 0.1220 -0.0000
vn 0.7018 0.1220 -0.7018
vn 0.0000 0.1220 -0.9925
vn -0.7018 0.1220 -0.7018
vn -0.5992 0.5309 0.5992
vn -0.8474 0.5309 -0.0000
vn 0.0000 0.5309 0.8474
vn 0.5992 0.5309 0.5992
vn 0.8474 0.5309 -0.0000
vn 0.5992 0.5309 -0.5992
vn 0.0000 0.5309 -0.8474
vn -0.5992 0.5309 -0.5992
vn -0.5386 0.6479 0.5386
vn -0.7617 0.6479 -0.0000
vn 0.0000 0.6479 0.7617
vn 0.5386 0.6479 0.5386
vn 0.7617 0.6479 -0.0000
vn 0.5386 0.6479 -0.5386
vn 0.0000 0.6479 -0.7617
vn -0.5386 0.6479 -0.5386
vn -0.2974 0.9072 0.2974
vn -0.4206 0.9072 -0.0000
vn 0.0000 0.9072 0.4206
vn 0.2974 0.9072 0.2974
vn 0.4206 0.9072 -0.0000
vn 0.2974 0.9072 -0.2974
vn 0.0000 0.9072 -0.4206
vn -0.2974 0.9072 -0.2974
vn 0.6592 0.3618 -0.6592
vn 0.9323 0.3618 -0.0000
vn -0.0000 0.3618 -0.9323
vn -0.6592 0.3618 -0.6592
vn -0.9323 0.3618 -0.0000
vn -0.6592 0.3618 0.6592
vn -0.0000 0.3618 0.9323
vn 0.6592 0.3618 0.6592
vn 0.6811 -0.2689 -0.6811
vn 0.9632 -0.2689 -0.0000
vn 0.0000 -0.2689 -0.9632
vn -0.6811 -0.2689 -0.6811
vn -0.9632 -0.2689 0.0000
vn -0.6811 -0.2689 0.6811
vn -0.0000 -0.2689 0.9632
vn 0.6811 -0.2689 0.6811
vn 0.7061 0.0546 -0.7061
vn 0.9985 0.0546 0.0000
vn 0.0000 0.0546 -0.9985
vn -0.7061 0.0546 -0.7060
vn -0.9985 0.0546 0.0000
vn -0.7060 0.0546 0.7061
vn -0.0000 0.0546 0.9985
vn 0.7060 0.0546 0.7061
vn 0.4928 0.7171 -0.4928
vn 0.6970 0.7171 0.0000
vn -0.0000 0.7171 -0.6970
vn -0.4928 0.7171 -0.4928
vn -0.6970 0.7171 0.0000
vn -0.4928 0.7171 0.4928
vn -0.0000 0.7171 0.6970
vn 0.4928 0.7171 0.4928
vn -0.0000 1.0000 0.0000
vn -0.0281 -0.9992 0.0277
usemtl Mug_1.002
s 1
f 1/1/1 2/2/2 3/3/3 4/4/4
f 2/5/2 5/6/5 6/7/6 3/8/3
f 5/6/5 7/9/7 8/10/8 6/7/6
f 7/9/7 9/11/9 10/12/10 8/10/8
f 9/11/9 11/13/11 12/14/12 10/12/10
f 11/13/11 13/15/13 14/16/14 12/14/12
f 13/15/13 15/17/15 16/18/16 14/16/14
f 15/17/15 1/1/1 4/4/4 16/18/16
f 17/19/17 18/20/18 2/2/2 1/1/1
f 18/21/18 19/22/19 5/6/5 2/5/2
f 19/22/19 20/23/20 7/9/7 5/6/5
f 20/23/20 21/24/21 9/11/9 7/9/7
f 21/24/21 22/25/22 11/13/11 9/11/9
f 22/25/22 23/26/23 13/15/13 11/13/11
f 23/26/23 24/27/24 15/17/15 13/15/13
f 24/27/24 17/19/17 1/1/1 15/17/15
f 4/4/4 3/3/3 25/28/25 26/29/26
f 3/8/3 6/7/6 27/30/27 25/31/25
f 6/7/6 8/10/8 28/32/28 27/30/27
f 8/10/8 10/12/10 29/33/29 28/32/28
f 10/12/10 12/14/12 30/34/30 29/33/29
f 12/14/12 14/16/14 31/35/31 30/34/30
f 14/16/14 16/18/16 32/36/32 31/35/31
f 16/18/16 4/4/4 26/29/26 32/36/32
f 26/29/26 25/28/25 33/37/33 34/38/34
f 25/31/25 27/30/27 35/39/35 33/40/33
f 27/30/27 28/32/28 36/41/36 35/39/35
f 28/32/28 29/33/29 37/42/37 36/41/36
f 29/33/29 30/34/30 38/43/38 37/42/37
f 30/34/30 31/35/31 39/44/39 38/43/38
f 31/35/31 32/36/32 40/45/40 39/44/39
f 32/36/32 26/29/26 34/38/34 40/45/40
f 34/38/34 33/37/33 41/46/41 42/47/42
f 33/40/33 35/39/35 43/48/43 41/49/41
f 35/39/35 36/41/36 44/50/44 43/48/43
f 36/41/36 37/42/37 45/51/45 44/50/44
f 37/42/37 38/43/38 46/52/46 45/51/45
f 38/43/38 39/44/39 47/53/47 46/52/46
f 39/44/39 40/45/40 48/54/48 47/53/47
f 40/45/40 34/38/34 42/47/42 48/54/48
f 42/47/42 41/46/41 49/55/49 50/56/50
f 41/49/41 43/48/43 51/57/51 49/58/49
f 43/48/43 44/50/44 52/59/52 51/57/51
f 44/50/44 45/51/45 53/60/53 52/59/52
f 45/51/45 46/52/46 54/61/54 53/60/53
f 46/52/46 47/53/47 55/62/55 54/61/54
f 47/53/47 48/54/48 56/63/56 55/62/55
f 48/54/48 42/47/42 50/56/50 56/63/56
f 50/56/50 49/55/49 57/64/57 58/65/58
f 49/58/49 51/57/51 59/66/59 57/67/57
f 51/57/51 52/59/52 60/68/60 59/66/59
f 52/59/52 53/60/53 61/69/61 60/68/60
f 53/60/53 54/61/54 62/70/62 61/69/61
f 54/61/54 55/62/55 63/71/63 62/70/62
f 55/62/55 56/63/56 64/72/64 63/71/63
f 56/63/56 50/56/50 58/65/58 64/72/64
f 58/65/58 57/64/57 65/73/65 66/74/66
f 57/67/57 59/66/59 67/75/67 65/76/65
f 59/66/59 60/68/60 68/77/68 67/75/67
f 60/68/60 61/69/61 69/78/69 68/77/68
f 61/69/61 62/70/62 70/79/70 69/78/69
f 62/70/62 63/71/63 71/80/71 70/79/70
f 63/71/63 64/72/64 72/81/72 71/80/71
f 64/72/64 58/65/58 66/74/66 72/81/72
f 66/74/66 65/73/65 73/82/73 74/83/74
f 65/76/65 67/75/67 75/84/75 73/85/73
f 67/75/67 68/77/68 76/86/76 75/84/75
f 68/77/68 69/78/69 77/87/77 76/86/76
f 69/78/69 70/79/70 78/88/78 77/87/77
f 70/79/70 71/80/71 79/89/79 78/88/78
f 71/80/71 72/81/72 80/90/80 79/89/79
f 72/81/72 66/74/66 74/83/74 80/90/80
f 74/83/74 73/82/73 81/91/81 82/92/82
f 73/85/73 75/84/75 83/93/83 81/94/81
f 75/84/75 76/86/76 84/95/84 83/93/83
f 76/86/76 77/87/77 85/96/85 84/95/84
f 77/87/77 78/88/78 86/97/86 85/96/85
f 78/88/78 79/89/79 87/98/87 86/97/86
f 79/89/79 80/90/80 88/99/88 87/98/87
f 80/90/80 74/83/74 82/92/82 88/99/88
f 82/92/82 81/91/81 89/100/89 90/101/90
f 81/94/81 83/93/83 91/102/91 89/103/89
f 83/93/83 84/95/84 92/104/92 91/102/91
f 84/95/84 85/96/85 93/105/93 92/104/92
f 85/96/85 86/97/86 94/106/94 93/105/93
f 86/97/86 87/98/87 95/107/95 94/106/94
f 87/98/87 88/99/88 96/108/96 95/107/95
f 88/99/88 82/92/82 90/101/90 96/108/96
f 90/101/90 89/100/89 97/109/97 98/110/97
f 89/103/89 91/102/91 99/111/97 97/112/97
f 91/102/91 92/104/92 100/113/97 99/111/97
f 92/104/92 93/105/93 101/114/97 100/113/97
f 93/105/93 94/106/94 102/115/97 101/114/97
f 94/106/94 95/107/95 103/116/97 102/115/97
f 95/107/95 96/108/96 104/117/97 103/116/97
f 96/108/96 90/101/90 98/110/97 104/117/97
f 105/118/98 24/119/24 23/120/23 22/121/22
f 18/122/18 17/123/17 24/119/24 105/118/98
f 20/124/20 105/118/98 22/121/22 21/125/21
f 19/126/19 18/122/18 105/118/98 20/124/20
f 106/127/97 100/128/97 101/129/97 102/130/97
f 97/131/97 99/132/97 100/128/97 106/127/97
f 104/133/97 106/127/97 102/130/97 103/134/97
f 98/135/97 97/131/97 106/127/97 104/133/97
