# Blender v2.83.5 OBJ File: ''
# www.blender.org
mtllib vase_1_debris_004.mtl
o mug_3.005_cell.003_Mesh.004
v -0.067077 0.164140 0.169770
v -0.094746 0.163271 0.202898
v -0.095981 0.122861 0.192472
v -0.097213 0.083115 0.182185
v -0.083425 0.004565 0.142293
v -0.066807 -0.013183 0.116996
v -0.041668 -0.012536 0.086872
v 0.018155 -0.011838 0.014941
v 0.072370 -0.012344 -0.050581
v 0.106168 -0.013188 -0.091587
v 0.128568 0.004562 -0.113349
v 0.165467 0.083137 -0.134701
v 0.188161 0.172165 -0.135830
v 0.158110 0.171219 -0.099847
v 0.149333 0.087569 -0.113927
v 0.105978 0.007284 -0.085293
v 0.076997 0.008015 -0.050131
v 0.021035 0.008540 0.017508
v -0.040719 0.007814 0.091757
v -0.060954 0.007288 0.116002
v -0.080476 0.087547 0.163314
v 0.144956 0.168621 -0.144835
v 0.091513 0.165855 -0.111048
v 0.101181 0.166385 -0.116349
v -0.053320 0.158356 -0.019482
v -0.092824 0.156312 0.005492
v -0.128177 0.158471 0.138724
v -0.088773 0.161269 0.134904
v -0.050137 0.158055 -0.033401
v 0.094106 0.164313 -0.155423
v -0.077099 0.155190 -0.053827
v -0.078847 0.129610 -0.055638
v -0.129408 0.103719 0.125434
v 0.081949 0.109078 -0.154311
v -0.064730 0.040444 -0.046679
v -0.106258 0.019178 0.102044
v 0.067341 0.023580 -0.127725
v -0.045187 0.013410 -0.032432
v -0.080281 -0.004561 0.093248
v 0.066420 -0.000842 -0.100920
v -0.103801 0.102475 0.122198
v -0.058429 0.125708 -0.040286
v -0.071798 0.014228 0.096887
v -0.037425 0.031830 -0.026214
v 0.085861 0.107284 -0.128831
v 0.071893 0.017871 -0.093297
vt 0.225098 0.940918
vt 0.225098 0.985840
vt 0.183105 0.979980
vt 0.142090 0.972168
vt 0.059082 0.933105
vt 0.040527 0.901855
vt 0.040527 0.860840
vt 0.038574 0.761230
vt 0.035645 0.672363
vt 0.033691 0.614746
vt 0.053223 0.582520
vt 0.133301 0.537598
vt 0.225098 0.519043
vt 0.225098 0.568848
vt 0.139160 0.565918
vt 0.056152 0.620605
vt 0.057129 0.668457
vt 0.060059 0.760254
vt 0.062012 0.863770
vt 0.062012 0.895996
vt 0.145996 0.946777
vt 0.306152 0.963379
vt 0.286621 0.899902
vt 0.289551 0.910645
vt 0.345215 0.936035
vt 0.345215 0.985840
vt 0.233887 0.727051
vt 0.220215 0.680176
vt 0.277832 0.548340
vt 0.345215 0.518066
vt 0.345215 0.563965
vt 0.306152 0.577637
vt 0.227051 0.740723
vt 0.259277 0.937988
vt 0.192871 0.738770
vt 0.249512 0.695801
vt 0.225098 0.549316
vt 0.279785 0.544434
vt 0.277832 0.650879
vt 0.276855 0.697754
vt 0.277832 0.908691
vt 0.222168 0.895996
vt 0.158691 0.699707
vt 0.137207 0.578613
vt 0.234863 0.793457
vt 0.304199 0.788574
vt 0.304199 0.831543
vt 0.304199 0.875488
vt 0.232910 0.853027
vt 0.190918 0.958496
vt 0.278809 0.948730
vt 0.279785 0.982910
vt 0.134277 0.863770
vt 0.377441 0.740723
vt 0.434082 0.866699
vt 0.409668 0.891113
vt 0.343262 0.741699
vt 0.244629 0.698730
vt 0.294434 0.695801
vt 0.111816 0.909668
vt 0.422363 0.608887
vt 0.395020 0.587402
vt 0.460449 0.835449
vt 0.460449 0.735840
vt 0.455566 0.908691
vt 0.461426 0.877441
vt 0.461426 0.590332
vt 0.455566 0.557129
vt 0.460449 0.646973
vt 0.216309 0.930176
vt 0.153809 0.931152
vt 0.164551 0.770996
vt 0.198730 0.770996
vt 0.199707 0.784668
vt 0.362793 0.871582
vt 0.312988 0.863770
vt 0.322754 0.802246
vt 0.362793 0.792480
vt 0.064941 0.889160
vt 0.073730 0.768066
vt 0.150879 0.599121
vt 0.213379 0.597168
vt 0.211426 0.608887
vt 0.343262 0.967285
vt 0.319824 0.963379
vt 0.062012 0.638184
vt 0.386230 0.729004
vt 0.309082 0.726074
vt 0.363770 0.602051
vt 0.386230 0.627441
vt 0.333496 0.800293
vt 0.326660 0.738770
vt 0.373535 0.716309
vt 0.373535 0.804199
vt 0.386230 0.593262
vt 0.386230 0.822754
vt 0.352051 0.854980
vt 0.386230 0.871582
vn 0.7565 -0.1854 0.6271
vn -0.0743 0.9966 -0.0358
vn -0.0742 0.9966 -0.0359
vn -0.0763 0.9963 -0.0391
vn -0.7972 -0.0321 -0.6029
vn -0.9882 -0.1299 0.0812
vn -0.7937 0.5979 0.1120
vn -0.6794 0.7081 -0.1921
vn -0.6224 0.6345 -0.4583
vn -0.1216 0.6140 -0.7799
vn -0.1897 -0.1097 -0.9757
vn -0.7269 -0.4018 -0.5569
vn -0.8777 -0.4790 -0.0171
vn -0.1481 -0.3590 0.9215
vn -0.1090 -0.2456 0.9632
vn -0.0796 0.4821 0.8725
vn 0.8630 -0.3563 -0.3582
vn 0.0969 0.6740 -0.7324
vn 0.8264 0.4977 -0.2633
vn -0.2475 -0.4630 -0.8511
vn -0.4671 -0.8038 -0.3683
vn -0.5296 -0.8358 -0.1444
vn -0.1038 -0.6529 0.7503
vn 0.7027 -0.6574 -0.2719
vn -0.2683 -0.8292 -0.4903
vn 0.3967 -0.8606 0.3193
vn 0.3926 -0.8604 0.3249
vn 0.1469 -0.8799 0.4520
vn 0.4661 -0.8835 0.0457
vn 0.3879 -0.8606 0.3301
vn 0.8246 0.5157 -0.2325
vn 0.9935 0.0525 -0.1008
vn 0.7974 -0.0480 0.6015
vn 0.7246 0.4087 0.5548
vn 0.7596 0.6302 0.1607
vn 0.9967 -0.0027 0.0805
vn 0.8232 0.5635 0.0695
vn 0.7336 0.6747 0.0816
vn 0.6219 0.6175 0.4817
vn 0.1737 0.0317 0.9843
vn -0.0088 0.4945 0.8691
vn 0.3506 0.6200 0.7019
vn 0.8793 0.3874 0.2771
vn 0.2666 0.6628 0.6997
vn 0.6601 0.5139 0.5478
vn 0.6570 0.5121 0.5532
vn 0.3102 -0.0230 0.9504
vn 0.2393 0.5555 0.7963
vn 0.4542 0.3518 0.8185
vn 0.6648 0.5125 0.5435
usemtl Mug_3.004
s off
f 1/1/1 2/2/1 3/3/1 4/4/1 5/5/1 6/6/1 7/7/1 8/8/1 9/9/1 10/10/1 11/11/1 12/12/1 13/13/1 14/14/1 15/15/1 16/16/1 17/17/1 18/18/1 19/19/1 20/20/1 21/21/1
f 22/22/2 23/23/2 24/24/2 14/25/2 13/26/2
f 25/27/3 26/28/3 27/29/3 2/30/3 1/31/3 28/32/3
f 26/28/4 25/27/4 29/33/4 23/23/4 22/22/4 30/34/4 31/35/4
s 1
f 32/36/5 33/37/6 27/38/7 26/39/8 31/40/9
f 30/41/10 34/42/11 32/36/5 31/40/9
f 35/43/12 36/44/13 33/37/6 32/36/5
f 33/45/6 4/46/14 3/47/15 2/48/16 27/49/7
f 12/50/17 34/42/11 30/41/10 22/51/18 13/52/19
f 37/53/20 35/43/12 32/36/5 34/42/11
f 38/54/21 39/55/22 36/56/13 35/57/12
f 4/46/14 33/45/6 36/58/13 5/59/23
f 11/60/24 37/53/20 34/42/11 12/50/17
f 40/61/25 38/54/21 35/57/12 37/62/20
f 7/63/26 39/55/22 38/54/21 8/64/27
f 5/65/23 36/56/13 39/55/22 6/66/28
f 10/67/29 40/61/25 37/62/20 11/68/24
f 8/64/27 38/54/21 40/61/25 9/69/30
f 6/66/28 39/55/22 7/63/26
f 9/69/30 40/61/25 10/67/29
f 28/70/31 41/71/32 42/72/33 29/73/34 25/74/35
f 21/75/36 41/76/32 28/77/31 1/78/37
f 42/72/33 41/71/32 43/79/38 44/80/39
f 29/73/34 42/72/33 45/81/40 24/82/41 23/83/42
f 20/84/43 43/85/38 41/76/32 21/75/36
f 45/81/40 42/72/33 44/80/39 46/86/44
f 18/87/45 44/88/39 43/89/38 19/90/46
f 24/91/41 45/92/40 15/93/47 14/94/48
f 19/90/46 43/89/38 20/95/43
f 15/15/47 45/81/40 46/86/44 16/16/49
f 17/96/50 46/97/44 44/88/39 18/87/45
f 16/98/49 46/97/44 17/96/50
