# Blender v2.83.5 OBJ File: ''
# www.blender.org
mtllib vase_1_debris_009.mtl
o mug_3.005_cell.000_Mesh.056
v 0.068487 0.046974 0.031790
v 0.053803 0.046974 0.057804
v 0.058016 0.025533 0.062187
v 0.063670 -0.002933 0.067895
v 0.077889 -0.002933 0.042705
v 0.077915 0.005408 0.038049
v 0.079353 0.021455 0.026637
v 0.076895 0.027711 0.027536
v -0.163320 0.021697 0.034291
v -0.173923 0.046974 0.040548
v -0.189367 0.046974 0.016558
v -0.185785 0.033381 0.009900
v -0.182749 0.018169 0.000938
v -0.177435 0.009429 0.001335
v -0.168743 -0.002933 0.003721
v -0.153101 -0.002933 0.028020
v -0.018927 0.019153 -0.044113
v -0.132219 0.018131 -0.033316
v -0.129860 0.046974 -0.021826
v -0.022339 0.046974 -0.029513
v 0.055874 0.046974 0.016901
v 0.063761 0.020886 0.007008
v -0.021585 -0.002932 -0.029274
v -0.129081 -0.002933 -0.021757
v -0.120973 0.046974 0.006681
v -0.031581 0.046974 0.001803
v 0.034289 0.046974 0.037754
v -0.119647 -0.002933 0.006870
v -0.030348 -0.002933 0.002317
v 0.035298 -0.002933 0.038557
v 0.056536 -0.002932 0.017385
vt 0.422363 0.713379
vt 0.465332 0.714355
vt 0.465332 0.752441
vt 0.465332 0.804199
vt 0.423340 0.803223
vt 0.418457 0.787598
vt 0.404785 0.758301
vt 0.408691 0.747559
vt 0.479980 0.613770
vt 0.479980 0.659668
vt 0.441895 0.669434
vt 0.437012 0.646973
vt 0.428223 0.621582
vt 0.433105 0.604004
vt 0.441895 0.579590
vt 0.479980 0.569824
vt 0.150879 0.845215
vt 0.155762 0.654785
vt 0.203613 0.658691
vt 0.198730 0.837402
vt 0.226074 0.935059
vt 0.183105 0.947754
vt 0.248535 0.912598
vt 0.214355 0.771973
vt 0.255371 0.768066
vt 0.284668 0.902832
vt 0.119629 0.970215
vt 0.098145 0.945801
vt 0.035645 0.803223
vt 0.060059 0.615723
vt 0.126465 0.517090
vt 0.161621 0.546387
vt 0.103027 0.635254
vt 0.085449 0.790527
vt 0.133301 0.910645
vt 0.161621 0.947754
vt 0.202637 0.544434
vt 0.176270 0.551270
vt 0.163574 0.557129
vt 0.132324 0.646973
vt 0.146973 0.566895
vt 0.280762 0.698730
vt 0.280762 0.566895
vt 0.357910 0.568848
vt 0.356934 0.700684
vt 0.226074 0.538574
vt 0.280762 0.830566
vt 0.356934 0.832520
vt 0.232910 0.563965
vt 0.229980 0.605957
vt 0.203613 0.596191
vt 0.211426 0.563965
vt 0.270996 0.612793
vt 0.155762 0.607910
vt 0.118652 0.732910
vt 0.150879 0.886230
vt 0.191895 0.937012
vt 0.159668 0.971191
vt 0.109863 0.911621
vt 0.068848 0.728027
vt 0.117676 0.578613
vt 0.149902 0.533691
vt 0.191895 0.549316
vt 0.428223 0.955566
vt 0.390137 0.865723
vt 0.466309 0.868652
vt 0.466309 0.977051
vt 0.313965 0.888184
vt 0.357910 0.900879
vt 0.280762 0.877441
vt 0.239746 0.563965
vt 0.390137 0.934082
vt 0.270020 0.559082
vt 0.284668 0.557129
vn 0.8404 0.2621 0.4744
vn -0.7560 -0.4376 0.4867
vn 0.2257 -0.0443 -0.9732
vn -0.3238 -0.0586 -0.9443
vn -0.2086 0.7941 -0.5709
vn 0.1320 0.8063 -0.5766
vn 0.3672 0.8244 -0.4306
vn 0.6562 -0.0258 -0.7541
vn 0.1329 -0.8350 -0.5340
vn -0.1796 -0.8355 -0.5192
vn 0.6622 0.7492 -0.0128
vn -0.8768 0.4806 -0.0169
vn -0.2953 0.4435 0.8462
vn 0.2324 0.6607 0.7138
vn -0.1653 0.6528 0.7392
vn -0.4460 0.6749 0.5879
vn 0.0232 0.6391 0.7688
vn -0.9635 -0.0946 -0.2505
vn -0.9239 -0.2064 -0.3222
vn -0.8134 -0.5470 -0.1981
vn -0.5842 -0.8038 -0.1125
vn 0.2295 -0.6485 0.7258
vn -0.1731 -0.6479 0.7418
vn -0.4487 -0.6758 0.5848
vn 0.9152 0.3958 -0.0761
vn 0.3696 -0.8348 -0.4079
vn -0.0296 -0.6729 0.7391
vn 0.8134 -0.5770 0.0741
vn 0.1744 -0.4781 0.8608
vn -0.1534 -0.2988 0.9419
vn 0.1007 0.2157 0.9713
vn 0.9797 0.0554 -0.1927
vn 0.9929 -0.0905 -0.0777
usemtl Mug_2.001
s off
f 1/1/1 2/2/1 3/3/1 4/4/1 5/5/1 6/6/1 7/7/1 8/8/1
f 9/9/2 10/10/2 11/11/2 12/12/2 13/13/2 14/14/2 15/15/2 16/16/2
s 1
f 17/17/3 18/18/4 19/19/5 20/20/6
f 20/20/6 21/21/7 22/22/8 17/17/3
f 18/23/4 17/24/3 23/25/9 24/26/10
f 1/27/11 21/28/7 20/29/6 19/30/5 11/31/12 10/32/13 25/33/14 26/34/15 27/35/16 2/36/17
f 12/37/18 19/19/5 18/18/4 13/38/19
f 14/39/20 18/18/4 24/40/10 15/41/21
f 26/42/15 25/43/14 28/44/22 29/45/23
f 11/46/12 19/19/5 12/37/18
f 13/38/19 18/18/4 14/39/20
f 27/47/16 26/42/15 29/45/23 30/48/24
f 8/49/25 22/50/8 21/51/7 1/52/11
f 17/24/3 22/50/8 31/53/26 23/25/9
f 30/54/24 29/55/23 28/56/22 16/57/27 15/58/21 24/59/10 23/60/9 31/61/26 5/62/28 4/63/29
f 9/64/30 28/65/22 25/66/14 10/67/13
f 3/68/31 27/47/16 30/48/24 4/69/29
f 2/70/17 27/47/16 3/68/31
f 7/71/32 22/50/8 8/49/25
f 16/72/27 28/65/22 9/64/30
f 6/73/33 31/53/26 22/50/8 7/71/32
f 5/74/28 31/53/26 6/73/33
o Plane.006_Plane.012
v 14.620576 -0.132171 -30.246277
v 18.580524 -0.132171 -30.246277
v 18.580524 -0.132171 -34.206223
v 14.620576 -0.132171 -34.206223
vt 0.629276 0.147425
vt 0.629276 0.147425
vt 0.629276 0.147425
vt 0.629276 0.147425
vn 0.0000 1.0000 0.0000
usemtl None
s off
f 32/75/34 33/76/34 34/77/34 35/78/34
