# Blender v2.83.5 OBJ File: ''
# www.blender.org
mtllib vase_1_debris_002.mtl
o mug_3.005_cell.002_Mesh.002
v -0.052302 -0.022011 0.080804
v -0.060129 -0.018309 0.098711
v -0.084983 -0.013025 0.093960
v -0.077949 -0.017049 0.071236
v -0.038763 -0.020863 0.085748
v 0.042212 -0.022014 0.077101
v 0.046016 -0.012803 0.120747
v -0.025389 -0.014683 0.114596
v -0.048651 -0.017824 0.100567
v -0.308417 0.030095 0.001824
v -0.273136 0.018890 -0.025864
v -0.262914 0.018585 -0.005631
v -0.248218 0.016503 0.007688
v -0.235340 0.019447 0.065157
v -0.294193 0.028968 0.023235
v 0.047372 -0.013852 0.081480
v 0.050440 -0.005606 0.126995
v 0.119084 0.107382 0.194640
v 0.109406 0.093860 0.217136
v 0.092539 0.066017 0.199450
v 0.072159 0.030916 0.158666
v 0.062182 0.010410 0.094549
v 0.100138 0.076031 0.173775
v 0.106224 0.156956 0.192360
v 0.118187 0.206034 0.149137
v 0.152632 0.210906 0.089679
v 0.174853 0.185292 0.065018
v 0.184398 0.198627 0.042834
v 0.151432 0.236263 0.079590
v 0.106545 0.229488 0.157277
v 0.090979 0.165484 0.213586
v 0.097320 0.037027 -0.286458
v 0.067738 -0.008660 -0.275468
v 0.059710 -0.022026 -0.285702
v 0.086275 0.018284 -0.305516
v 0.131448 0.109957 -0.029461
v 0.105176 0.050385 -0.272895
v 0.120831 0.086436 -0.120332
v 0.160850 0.156029 -0.031425
v 0.166174 0.166031 -0.009652
v 0.151419 0.143598 0.000445
v 0.054638 0.023462 -0.280797
v 0.036671 0.093383 -0.265348
v -0.068558 0.177536 -0.181722
v -0.192521 0.153933 -0.085778
v -0.232515 0.098795 -0.055807
v -0.212845 0.198677 -0.069029
v -0.191187 0.204229 -0.085768
v -0.060552 0.223446 -0.186980
v 0.051478 0.140517 -0.275871
v 0.070084 0.123876 -0.290693
v 0.101477 0.211697 0.024041
v 0.038395 0.197215 0.091850
v 0.013646 0.189352 -0.080660
v -0.067177 0.170798 0.006219
v 0.019654 0.126987 0.151051
v 0.103934 0.125622 -0.127681
v -0.091188 0.080821 0.082068
v 0.056234 0.042157 0.166959
v -0.209556 0.200011 -0.066021
v -0.249178 0.051538 0.059138
v 0.072801 0.125465 -0.286975
v 0.124105 0.126985 -0.032654
v 0.068041 0.166560 -0.003458
v 0.017856 0.155036 0.050490
v 0.002947 0.099167 0.097586
v 0.032047 0.031682 0.110242
v -0.252083 0.025468 0.006007
vt 0.228027 0.741699
vt 0.246582 0.740723
vt 0.254395 0.763184
vt 0.232910 0.767090
vt 0.228027 0.729004
vt 0.190918 0.666504
vt 0.226074 0.645996
vt 0.246582 0.705566
vt 0.243652 0.730957
vt 0.285645 0.982910
vt 0.247559 0.965332
vt 0.257324 0.948730
vt 0.262207 0.932129
vt 0.301270 0.897949
vt 0.295410 0.962402
vt 0.064941 0.854004
vt 0.080566 0.823730
vt 0.083496 0.830566
vt 0.067871 0.860840
vt 0.134277 0.969238
vt 0.109863 0.975098
vt 0.094238 0.946777
vt 0.083496 0.902832
vt 0.099121 0.853027
vt 0.116699 0.938965
vt 0.331543 0.619629
vt 0.331543 0.645996
vt 0.288574 0.665527
vt 0.268066 0.721191
vt 0.294434 0.778809
vt 0.331543 0.792480
vt 0.331543 0.818848
vt 0.277832 0.797363
vt 0.241699 0.722168
vt 0.270020 0.648926
vt 0.186035 0.916504
vt 0.234863 0.934082
vt 0.241699 0.947754
vt 0.194824 0.938965
vt 0.241699 0.720215
vt 0.181152 0.900879
vt 0.220215 0.788574
vt 0.198730 0.695801
vt 0.199707 0.676270
vt 0.193848 0.626465
vt 0.218262 0.619629
vt 0.225098 0.683105
vt 0.349121 0.510254
vt 0.389160 0.535645
vt 0.347168 0.547363
vt 0.285645 0.574707
vt 0.220215 0.703613
vt 0.254395 0.843262
vt 0.310059 0.885254
vt 0.389160 0.924316
vt 0.382324 0.964355
vt 0.217285 0.872559
vt 0.208496 0.847168
vt 0.176270 0.699707
vt 0.239746 0.562012
vt 0.254395 0.538574
vt 0.263184 0.574707
vt 0.232910 0.638184
vt 0.181152 0.603027
vt 0.224121 0.524902
vt 0.306152 0.669434
vt 0.306152 0.611816
vt 0.351074 0.843262
vt 0.270996 0.833496
vt 0.307129 0.712402
vt 0.371582 0.721191
vt 0.341309 0.628418
vt 0.228027 0.679199
vt 0.267090 0.596191
vt 0.306152 0.692871
vt 0.271973 0.792480
vt 0.169434 0.749512
vt 0.168457 0.790527
vt 0.178223 0.641113
vt 0.201660 0.599121
vt 0.221191 0.578613
vt 0.300293 0.799316
vt 0.252441 0.970215
vt 0.082520 0.900879
vt 0.116699 0.722168
vt 0.109863 0.746582
vt 0.301270 0.575684
vt 0.279785 0.617676
vt 0.263184 0.608887
vt 0.439941 0.833496
vt 0.363770 0.833496
vt 0.381348 0.722168
vt 0.421387 0.722168
vt 0.063965 0.887207
vt 0.099121 0.772949
vt 0.104004 0.755371
vt 0.232910 0.639160
vt 0.058105 0.950684
vt 0.368652 0.532715
vt 0.368652 0.573730
vt 0.356934 0.568848
vt 0.357910 0.595215
vt 0.326660 0.711426
vt 0.262207 0.690918
vt 0.273926 0.651855
vt 0.319824 0.595215
vt 0.410645 0.586426
vt 0.383301 0.719238
vt 0.167480 0.969238
vt 0.145996 0.833496
vt 0.215332 0.823730
vt 0.227051 0.961426
vt 0.099121 0.846191
vt 0.254395 0.890137
vt 0.289551 0.885254
vt 0.298340 0.976074
vt 0.054199 0.774902
vt 0.052246 0.763184
vt 0.054199 0.741699
vt 0.064941 0.599121
vt 0.071777 0.597168
vt 0.244629 0.867676
vt 0.241699 0.859863
vt 0.298340 0.818848
vt 0.069824 0.582520
vt 0.380371 0.553223
vt 0.393066 0.532715
vt 0.393066 0.562988
vt 0.253418 0.686035
vt 0.150879 0.887207
vt 0.101074 0.890137
vt 0.083496 0.880371
vt 0.270020 0.973145
vt 0.377441 0.962402
vt 0.099121 0.836426
vt 0.253418 0.927246
vt 0.228027 0.916504
vt 0.373535 0.550293
vt 0.368652 0.550293
vt 0.369629 0.532715
vt 0.251465 0.930176
vt 0.250488 0.975098
vt 0.060059 0.975098
vt 0.306152 0.938965
vt 0.306152 0.956543
vt 0.304199 0.979980
vt 0.293457 0.908691
vt 0.410645 0.944824
vt 0.227051 0.604004
vt 0.161621 0.585449
vt 0.078613 0.562988
vn -0.2254 -0.9689 0.1018
vn 0.0080 -0.9785 0.2059
vn -0.2284 -0.9683 0.1008
vn 0.8338 -0.5504 0.0435
vn 0.8430 -0.5363 0.0403
vn 0.8316 0.2388 0.5013
vn 0.8430 -0.5364 0.0391
vn -0.6139 0.0166 -0.7892
vn 0.4555 0.8877 0.0668
vn 0.0081 0.9506 -0.3103
vn -0.4990 0.8342 0.2348
vn 0.1099 0.8385 0.5337
vn 0.8950 0.2406 -0.3755
vn 0.9338 0.3071 -0.1834
vn 0.2052 0.9764 -0.0671
vn -0.2490 0.8721 0.4212
vn -0.6497 0.2695 0.7108
vn -0.0042 0.3944 0.9189
vn 0.9146 0.2130 -0.3436
vn 0.7127 0.6182 -0.3314
vn -0.3840 0.3664 0.8475
vn -0.3556 -0.4125 0.8387
vn 0.1960 -0.6346 0.7476
vn 0.3770 -0.3339 0.8639
vn 0.9765 -0.1123 -0.1838
vn -0.3372 0.8689 0.3623
vn -0.4790 0.3374 0.8103
vn -0.2863 -0.6568 0.6976
vn -0.2561 -0.6022 0.7561
vn 0.4568 -0.7446 0.4866
vn 0.9608 -0.0787 -0.2660
vn 0.6736 0.6021 -0.4287
vn -0.3595 -0.5663 0.7416
vn -0.2724 -0.5973 0.7544
vn -0.1995 -0.6269 0.7531
vn 0.3951 -0.8234 0.4073
vn 0.4859 -0.7205 0.4947
vn -0.7615 -0.3464 0.5478
vn 0.3240 -0.8337 0.4471
vn -0.6294 -0.5795 0.5178
vn -0.0251 -0.8142 0.5800
vn 0.6044 -0.5564 0.5701
vn -0.0762 -0.9702 0.2300
vn 0.5732 -0.5259 0.6284
vn 0.9006 -0.4035 0.1616
vn 0.4185 -0.8566 -0.3018
vn 0.9889 -0.0330 -0.1450
vn 0.5654 -0.3060 -0.7659
vn 0.8667 -0.1876 -0.4622
vn 0.2786 0.3592 -0.8907
vn 0.9897 -0.0046 -0.1433
vn 0.7232 0.0967 -0.6838
vn 0.2428 -0.6525 -0.7178
vn 0.1737 -0.8004 -0.5737
vn 0.0900 -0.7627 -0.6404
vn 0.2258 -0.6928 -0.6849
vn 0.6159 -0.2849 -0.7345
vn 0.6805 -0.0324 -0.7320
vn 0.3421 -0.5534 -0.7594
vn 0.3811 -0.8900 -0.2502
vn 0.1437 -0.7770 0.6129
vn -0.9581 -0.1807 -0.2222
vn -0.3206 -0.9416 -0.1027
vn -0.8966 -0.3826 -0.2228
vn -0.4469 0.7892 -0.4212
vn -0.1938 0.8278 -0.5264
vn -0.0603 0.6873 -0.7238
vn -0.7649 0.5877 -0.2637
vn 0.0831 0.3636 -0.9278
vn -0.9624 -0.2718 -0.0040
vn 0.9194 -0.1926 -0.3428
vn 0.3717 -0.3417 -0.8632
vn -0.5308 -0.7294 -0.4315
vn -0.1589 -0.5790 -0.7997
vn -0.0814 -0.4138 -0.9067
vn -0.0723 -0.7365 -0.6725
usemtl Mug_3.002
s off
f 1/1/1 2/2/1 3/3/1 4/4/1
f 2/2/2 1/1/2 5/5/2 6/6/2 7/7/2 8/8/2 9/9/2
f 10/10/3 11/11/3 12/12/3 13/13/3 4/4/3 3/3/3 14/14/3 15/15/3
f 7/16/4 6/17/4 16/18/4 17/19/4
f 18/20/5 19/21/5 20/22/5 21/23/5 17/19/5 16/18/5 22/24/5 23/25/5
f 19/26/6 18/27/6 24/28/6 25/29/6 26/30/6 27/31/6 28/32/6 29/33/6 30/34/6 31/35/6
f 32/36/7 33/37/7 34/38/7 35/39/7
f 36/40/5 33/37/5 32/36/5 37/41/5 38/42/5 39/43/5 40/44/5 28/45/5 27/46/5 41/47/5
f 35/48/8 34/49/8 42/50/8 43/51/8 44/52/8 45/53/8 46/54/8 11/55/8 10/56/8 47/57/8 48/58/8 49/59/8 50/60/8 51/61/8
s 1
f 29/62/9 52/63/10 53/64/11 30/65/12
f 40/66/13 52/63/10 29/62/9 28/67/14
f 54/68/15 55/69/16 53/70/11 52/71/10
f 30/72/12 53/70/11 56/73/17 31/74/18
f 39/75/19 57/76/20 54/77/15 52/63/10 40/66/13
f 55/69/16 58/78/21 56/73/17 53/70/11
f 56/73/17 59/79/22 20/80/23 19/81/24 31/74/18
f 38/82/25 57/76/20 39/75/19
f 60/83/26 61/84/27 58/78/21 55/69/16
f 8/85/28 59/79/22 56/73/17 58/78/21 9/86/29
f 20/87/23 59/88/22 21/89/30
f 37/90/31 62/91/32 57/92/20 38/93/25
f 61/84/27 14/94/33 3/95/34 2/96/35 9/86/29 58/78/21
f 21/89/30 59/88/22 8/8/28 7/7/36 17/97/37
f 14/94/33 61/84/27 15/98/38
f 41/99/39 63/100/40 36/101/41
f 26/102/42 64/103/43 63/104/40 41/105/39 27/106/44
f 25/107/45 65/108/46 64/103/43 26/102/42
f 24/109/47 66/110/48 65/111/46 25/112/45
f 23/25/49 67/113/50 66/110/48 24/109/47 18/20/51
f 22/114/52 67/115/50 23/116/49
f 66/110/48 67/113/50 5/117/53 1/118/54 4/119/55 13/120/56 68/121/57
f 67/115/50 22/114/52 16/122/58 6/123/59 5/124/53
f 12/125/60 68/121/57 13/120/56
f 33/126/61 42/127/62 34/128/63
f 36/129/41 63/104/40 43/130/64 42/131/62 33/132/61
f 48/133/65 60/83/26 55/69/16 54/68/15 49/134/66
f 49/135/66 54/77/15 57/76/20 62/136/32 50/137/67
f 47/138/68 60/139/26 48/140/65
f 50/137/67 62/136/32 51/141/69
f 15/98/38 61/84/27 60/83/26 47/142/68 10/143/70
f 51/141/69 62/136/32 37/144/31 32/145/71 35/146/72
f 43/130/64 63/104/40 64/103/43 44/147/73
f 64/103/43 65/108/46 45/148/74 44/147/73
f 45/149/74 65/111/46 66/110/48 68/121/57 46/150/75
f 46/150/75 68/121/57 12/125/60 11/151/76
