# Blender v2.79 (sub 0) OBJ File: 'mugs_and_torches_1_001.blend'
# www.blender.org
mtllib vase_4_001.mtl
o vase_4_Plane.005_Plane.010
v -0.120123 0.341695 0.224165
v -0.139564 0.347921 0.219974
v -0.158842 0.288896 0.248571
v -0.138658 0.286475 0.252873
v -0.157241 0.207434 0.246198
v -0.138285 0.208639 0.252295
v -0.166245 0.208984 0.234067
v -0.131468 0.125630 0.180205
v -0.119195 0.120487 0.189770
v -0.128054 0.221762 0.236450
v -0.103416 0.125560 0.198291
v -0.100727 0.153036 0.194125
v -0.155977 0.222272 0.218163
v -0.128784 0.153140 0.176048
v -0.053187 0.368294 0.120497
v -0.065979 0.373960 0.110816
v -0.106863 0.372617 0.171464
v -0.090707 0.365660 0.178607
v -0.155923 0.282551 0.218079
v -0.128198 0.281959 0.236673
v -0.166526 0.286836 0.234501
v -0.147943 0.341992 0.205721
v -0.139968 0.327843 0.193369
v -0.112324 0.327397 0.212088
v -0.116111 0.348803 0.156420
v -0.088513 0.348557 0.175209
v -0.118470 0.365834 0.160074
v -0.080953 0.368351 0.101967
v -0.055541 0.353348 0.124142
v -0.083174 0.353433 0.105408
v 0.120892 0.341695 -0.223776
v 0.140333 0.347921 -0.219584
v 0.159611 0.288896 -0.248182
v 0.139428 0.286475 -0.252484
v 0.158010 0.207434 -0.245808
v 0.139054 0.208639 -0.251905
v 0.167015 0.208984 -0.233677
v 0.132238 0.125630 -0.179815
v 0.119964 0.120487 -0.189380
v 0.128824 0.221762 -0.236061
v 0.104186 0.125560 -0.197901
v 0.101496 0.153036 -0.193736
v 0.156746 0.222272 -0.217773
v 0.129554 0.153140 -0.175658
v 0.053957 0.368294 -0.120107
v 0.066749 0.373960 -0.110426
v 0.107633 0.372617 -0.171075
v 0.091477 0.365660 -0.178217
v 0.156692 0.282551 -0.217690
v 0.128967 0.281959 -0.236283
v 0.167295 0.286836 -0.234111
v 0.148713 0.341992 -0.205331
v 0.140737 0.327843 -0.192979
v 0.113094 0.327397 -0.211698
v 0.116880 0.348803 -0.156030
v 0.089282 0.348557 -0.174819
v 0.119240 0.365834 -0.159684
v 0.081722 0.368351 -0.101577
v 0.056310 0.353348 -0.123752
v 0.083944 0.353433 -0.105018
v 0.064179 0.020118 -0.098609
v -0.024371 0.020118 -0.114779
v -0.011758 0.009535 -0.056200
v 0.031676 0.009535 -0.048268
v -0.098419 0.020118 -0.063599
v -0.048078 0.009535 -0.031096
v -0.114589 0.020118 0.024950
v -0.056010 0.009535 0.012337
v -0.063409 0.020118 0.098998
v -0.030906 0.009535 0.048658
v 0.025140 0.020118 0.115168
v 0.012527 0.009535 0.056589
v 0.099188 0.020118 0.063989
v 0.048848 0.009535 0.031485
v 0.115359 0.020118 -0.024561
v 0.056779 0.009535 -0.011948
v 0.126523 0.191951 -0.195167
v -0.048563 0.191951 -0.227140
v -0.042229 0.077031 -0.197720
v 0.110199 0.077031 -0.169885
v -0.194977 0.191951 -0.125944
v -0.169695 0.077031 -0.109620
v -0.226950 0.191951 0.049143
v -0.197530 0.077031 0.042808
v -0.125753 0.191951 0.195556
v -0.109430 0.077031 0.170275
v 0.049333 0.191951 0.227529
v 0.042999 0.077031 0.198110
v 0.195746 0.191951 0.126333
v 0.170464 0.077031 0.110010
v 0.227719 0.191951 -0.048753
v 0.198300 0.077031 -0.042419
v 0.086967 0.294563 -0.133903
v -0.033214 0.294563 -0.155849
v -0.133713 0.294563 -0.086387
v -0.155659 0.294563 0.033793
v -0.086197 0.294563 0.134292
v 0.033983 0.294563 0.156239
v 0.134482 0.294563 0.086777
v 0.156429 0.294563 -0.033404
v 0.052270 0.406848 -0.080164
v -0.019749 0.406848 -0.093316
v -0.079974 0.406848 -0.051690
v -0.093126 0.406848 0.020329
v -0.051500 0.406848 0.080554
v 0.020519 0.406848 0.093705
v 0.080744 0.406848 0.052080
v 0.093895 0.406848 -0.019939
v 0.064259 0.451598 -0.098733
v 0.083347 0.457719 -0.128297
v -0.031809 0.457719 -0.149326
v -0.024402 0.451598 -0.114923
v -0.128107 0.457719 -0.082768
v -0.098543 0.451598 -0.063679
v -0.149136 0.457719 0.032389
v -0.114733 0.451598 0.024981
v -0.082578 0.457719 0.128686
v -0.063489 0.451598 0.099122
v 0.032579 0.457719 0.149716
v 0.025171 0.451598 0.115313
v 0.128877 0.457719 0.083157
v 0.099312 0.451598 0.064069
v 0.149906 0.457719 -0.031999
v 0.115503 0.451598 -0.024592
v 0.091999 0.451474 -0.141697
v -0.035166 0.451474 -0.164919
v -0.141507 0.451474 -0.091420
v -0.164729 0.451474 0.035746
v -0.091230 0.451474 0.142086
v 0.035936 0.451474 0.165308
v 0.142276 0.451474 0.091809
v 0.165498 0.451474 -0.035357
v 0.070502 0.403957 -0.108402
v -0.026825 0.403957 -0.126176
v -0.036357 0.440349 -0.170447
v 0.095067 0.440349 -0.146447
v -0.108212 0.403957 -0.069923
v -0.146257 0.440349 -0.094487
v -0.125985 0.403957 0.027404
v -0.170257 0.440349 0.036936
v -0.069733 0.403957 0.108792
v -0.094297 0.440349 0.146837
v 0.027594 0.403957 0.126565
v 0.037126 0.440349 0.170837
v 0.108982 0.403957 0.070312
v 0.147027 0.440349 0.094876
v 0.126755 0.403957 -0.027015
v 0.171027 0.440349 -0.036547
v 0.092347 0.334198 -0.142236
v -0.035302 0.334198 -0.165546
v -0.142046 0.334198 -0.091768
v -0.165356 0.334198 0.035881
v -0.091578 0.334198 0.142625
v 0.036071 0.334198 0.165935
v 0.142815 0.334198 0.092157
v 0.166126 0.334198 -0.035492
v 0.122810 0.052019 -0.189417
v -0.047123 0.052019 -0.220449
v -0.055467 0.156182 -0.259203
v 0.144314 0.156182 -0.222721
v -0.189227 0.052019 -0.122231
v -0.222531 0.156182 -0.143734
v -0.220259 0.052019 0.047702
v -0.259014 0.156182 0.056047
v -0.122041 0.052019 0.189806
v -0.143544 0.156182 0.223111
v 0.047892 0.052019 0.220838
v 0.056237 0.156182 0.259593
v 0.189996 0.052019 0.122620
v 0.223301 0.156182 0.144124
v 0.221028 0.052019 -0.047313
v 0.259783 0.156182 -0.055657
v 0.069833 0.001181 -0.107366
v -0.026565 0.001181 -0.124970
v -0.107176 0.001181 -0.069254
v -0.124780 0.001181 0.027144
v -0.069064 0.001181 0.107756
v 0.027334 0.001181 0.125359
v 0.107946 0.001181 0.069643
v 0.125549 0.001181 -0.026755
v 0.013539 -0.007400 -0.020179
v -0.004720 -0.007400 -0.023514
v -0.019989 -0.007400 -0.012960
v -0.023323 -0.007400 0.005300
v -0.012770 -0.007400 0.020568
v 0.005489 -0.007400 0.023903
v 0.020759 -0.007400 0.013349
v 0.024093 -0.007400 -0.004910
v 0.128227 0.236642 -0.197806
v -0.049225 0.236642 -0.230211
v -0.197616 0.236642 -0.127647
v -0.230021 0.236642 0.049804
v -0.127457 0.236642 0.198195
v 0.049994 0.236642 0.230600
v 0.198385 0.236642 0.128037
v 0.230790 0.236642 -0.049415
v 0.000385 -0.007400 0.000195
v 0.000385 0.009535 0.000195
vt 0.183594 0.766602
vt 0.175781 0.766602
vt 0.174805 0.708008
vt 0.184570 0.708008
vt 0.174805 0.638672
vt 0.183594 0.638672
vt 0.166016 0.639648
vt 0.165039 0.547852
vt 0.174805 0.547852
vt 0.200195 0.636719
vt 0.184570 0.547852
vt 0.201172 0.546875
vt 0.150391 0.637695
vt 0.148438 0.547852
vt 0.186523 0.864258
vt 0.175781 0.865234
vt 0.175781 0.805664
vt 0.184570 0.804688
vt 0.240234 0.702148
vt 0.208984 0.702148
vt 0.207031 0.635742
vt 0.238281 0.634766
vt 0.166016 0.708984
vt 0.148438 0.706055
vt 0.201172 0.704102
vt 0.204102 0.544922
vt 0.235352 0.544922
vt 0.166992 0.767578
vt 0.151367 0.765625
vt 0.242188 0.759766
vt 0.210938 0.759766
vt 0.243164 0.795898
vt 0.211914 0.795898
vt 0.166016 0.805664
vt 0.147461 0.804688
vt 0.203125 0.803711
vt 0.199219 0.763672
vt 0.164062 0.865234
vt 0.206055 0.861328
vt 0.144531 0.862305
vt 0.244141 0.845703
vt 0.212891 0.845703
vt 0.062500 0.769531
vt 0.054688 0.770508
vt 0.053711 0.711914
vt 0.063477 0.710938
vt 0.053711 0.642578
vt 0.062500 0.641602
vt 0.044922 0.642578
vt 0.043945 0.550781
vt 0.053711 0.550781
vt 0.079102 0.639648
vt 0.063477 0.550781
vt 0.080078 0.549805
vt 0.028320 0.640625
vt 0.027344 0.550781
vt 0.065430 0.868164
vt 0.054688 0.868164
vt 0.054688 0.808594
vt 0.063477 0.808594
vt 0.119141 0.705078
vt 0.087891 0.705078
vt 0.085938 0.638672
vt 0.117188 0.638672
vt 0.043945 0.711914
vt 0.027344 0.708984
vt 0.080078 0.708008
vt 0.083008 0.547852
vt 0.114258 0.547852
vt 0.045898 0.770508
vt 0.030273 0.768555
vt 0.121094 0.762695
vt 0.089844 0.762695
vt 0.122070 0.798828
vt 0.090820 0.798828
vt 0.044922 0.809570
vt 0.026367 0.807617
vt 0.082031 0.806641
vt 0.078125 0.766602
vt 0.042969 0.868164
vt 0.084961 0.864258
vt 0.023438 0.865234
vt 0.123047 0.848633
vt 0.091797 0.848633
vt 0.373047 0.974609
vt 0.436523 0.974609
vt 0.436523 1.000000
vt 0.373047 1.000000
vt 0.499023 0.974609
vt 0.499023 1.000000
vt 0.000000 0.974609
vt 0.062500 0.974609
vt 0.062500 1.000000
vt 0.000000 1.000000
vt 0.125977 0.974609
vt 0.125977 1.000000
vt 0.187500 0.974609
vt 0.187500 1.000000
vt 0.250000 0.974609
vt 0.250000 1.000000
vt 0.311523 0.974609
vt 0.311523 1.000000
vt 0.373047 0.882812
vt 0.436523 0.882812
vt 0.436523 0.931641
vt 0.373047 0.931641
vt 0.499023 0.882812
vt 0.499023 0.931641
vt 0.000000 0.882812
vt 0.062500 0.882812
vt 0.062500 0.931641
vt 0.000000 0.931641
vt 0.125977 0.882812
vt 0.125977 0.931641
vt 0.187500 0.882812
vt 0.187500 0.931641
vt 0.250000 0.882812
vt 0.250000 0.931641
vt 0.311523 0.882812
vt 0.311523 0.931641
vt 0.373047 0.831055
vt 0.436523 0.831055
vt 0.499023 0.831055
vt 0.000000 0.831055
vt 0.062500 0.831055
vt 0.125977 0.831055
vt 0.187500 0.831055
vt 0.250000 0.831055
vt 0.311523 0.831055
vt 0.373047 0.777344
vt 0.436523 0.777344
vt 0.499023 0.777344
vt 0.000000 0.777344
vt 0.062500 0.777344
vt 0.125977 0.777344
vt 0.187500 0.777344
vt 0.250000 0.777344
vt 0.311523 0.777344
vt 0.373047 0.761719
vt 0.373047 0.745117
vt 0.436523 0.745117
vt 0.436523 0.761719
vt 0.499023 0.745117
vt 0.499023 0.761719
vt 0.000000 0.761719
vt 0.000000 0.745117
vt 0.062500 0.745117
vt 0.062500 0.761719
vt 0.125977 0.745117
vt 0.125977 0.761719
vt 0.187500 0.745117
vt 0.187500 0.761719
vt 0.250000 0.745117
vt 0.250000 0.761719
vt 0.311523 0.745117
vt 0.311523 0.761719
vt 0.373047 0.740234
vt 0.436523 0.740234
vt 0.499023 0.740234
vt 0.000000 0.740234
vt 0.062500 0.740234
vt 0.125977 0.740234
vt 0.187500 0.740234
vt 0.250000 0.740234
vt 0.311523 0.740234
vt 0.373047 0.710938
vt 0.436523 0.710938
vt 0.436523 0.734375
vt 0.373047 0.734375
vt 0.499023 0.710938
vt 0.499023 0.734375
vt 0.000000 0.710938
vt 0.062500 0.710938
vt 0.062500 0.734375
vt 0.000000 0.734375
vt 0.125977 0.710938
vt 0.125977 0.734375
vt 0.187500 0.710938
vt 0.187500 0.734375
vt 0.250000 0.710938
vt 0.250000 0.734375
vt 0.311523 0.710938
vt 0.311523 0.734375
vt 0.373047 0.676758
vt 0.436523 0.676758
vt 0.499023 0.676758
vt 0.000000 0.676758
vt 0.062500 0.676758
vt 0.125977 0.676758
vt 0.187500 0.676758
vt 0.250000 0.676758
vt 0.311523 0.676758
vt 0.373047 0.546875
vt 0.436523 0.546875
vt 0.436523 0.593750
vt 0.373047 0.593750
vt 0.499023 0.546875
vt 0.499023 0.593750
vt 0.000000 0.546875
vt 0.062500 0.546875
vt 0.062500 0.593750
vt 0.000000 0.593750
vt 0.125977 0.546875
vt 0.125977 0.593750
vt 0.187500 0.546875
vt 0.187500 0.593750
vt 0.250000 0.546875
vt 0.250000 0.593750
vt 0.311523 0.546875
vt 0.311523 0.593750
vt 0.373047 0.500977
vt 0.436523 0.500977
vt 0.499023 0.500977
vt 0.000000 0.500977
vt 0.062500 0.500977
vt 0.125977 0.500977
vt 0.187500 0.500977
vt 0.250000 0.500977
vt 0.311523 0.500977
vt 0.293516 0.902651
vt 0.303484 0.912643
vt 0.273181 0.985859
vt 0.220317 0.932995
vt 0.317598 0.912660
vt 0.347942 0.985859
vt 0.327590 0.902692
vt 0.400806 0.932995
vt 0.327607 0.888578
vt 0.400806 0.858234
vt 0.317639 0.878586
vt 0.347942 0.805370
vt 0.303525 0.878569
vt 0.273181 0.805370
vt 0.293533 0.888537
vt 0.220317 0.858234
vt 0.373047 0.627930
vt 0.436523 0.627930
vt 0.499023 0.627930
vt 0.000000 0.627930
vt 0.062500 0.627930
vt 0.125977 0.627930
vt 0.187500 0.627930
vt 0.250000 0.627930
vt 0.311523 0.627930
vt 0.310562 0.895614
vt 0.174689 0.920632
vt 0.206245 0.933703
vt 0.187760 0.952188
vt 0.161618 0.952188
vt 0.143133 0.907561
vt 0.143133 0.933703
vt 0.187760 0.889076
vt 0.206245 0.907561
vt 0.161618 0.889076
vn 0.4563 0.4570 0.7635
vn -0.3986 0.7431 0.5375
vn -0.5716 0.2534 0.7805
vn 0.3297 0.1540 0.9315
vn -0.5493 -0.3340 0.7660
vn 0.2879 -0.2280 0.9301
vn -0.9736 -0.2167 0.0721
vn -0.8615 -0.4774 0.1731
vn -0.4522 -0.6135 0.6473
vn 0.9790 0.1931 -0.0657
vn 0.1542 -0.4931 0.8562
vn 0.9420 0.3277 0.0732
vn -0.3333 0.1926 -0.9229
vn -0.4499 0.3303 -0.8298
vn 0.6314 0.6439 0.4321
vn -0.0126 0.9996 0.0246
vn -0.1325 0.9749 0.1790
vn 0.6053 0.5840 0.5410
vn -0.3205 -0.1814 -0.9297
vn 0.9813 -0.1743 -0.0814
vn -0.9893 0.1442 0.0203
vn -0.8884 0.4355 -0.1451
vn -0.4222 -0.4787 -0.7698
vn 0.8787 -0.4725 0.0678
vn -0.5393 -0.6380 -0.5496
vn 0.7245 -0.6377 0.2617
vn -0.7425 0.5752 -0.3432
vn -0.6553 0.6373 -0.4054
vn 0.6742 -0.6353 0.3766
vn -0.6276 -0.6259 -0.4630
vn -0.4563 0.4570 -0.7635
vn 0.3986 0.7431 -0.5375
vn 0.5716 0.2534 -0.7805
vn -0.3297 0.1540 -0.9315
vn 0.5493 -0.3340 -0.7660
vn -0.2879 -0.2280 -0.9301
vn 0.9736 -0.2167 -0.0721
vn 0.8614 -0.4774 -0.1731
vn 0.4522 -0.6135 -0.6474
vn -0.9790 0.1931 0.0657
vn -0.1541 -0.4932 -0.8562
vn -0.9420 0.3277 -0.0733
vn 0.3333 0.1926 0.9229
vn 0.4499 0.3303 0.8298
vn -0.6314 0.6439 -0.4321
vn 0.0126 0.9996 -0.0246
vn 0.1325 0.9749 -0.1790
vn -0.6053 0.5840 -0.5409
vn 0.3205 -0.1814 0.9297
vn -0.9813 -0.1743 0.0814
vn 0.9893 0.1442 -0.0203
vn 0.8884 0.4355 0.1451
vn 0.4222 -0.4787 0.7698
vn -0.8787 -0.4725 -0.0678
vn 0.5393 -0.6380 0.5496
vn -0.7245 -0.6377 -0.2617
vn 0.7425 0.5752 0.3432
vn 0.6553 0.6373 0.4054
vn -0.6742 -0.6353 -0.3767
vn 0.6276 -0.6259 0.4630
vn -0.2257 0.9093 0.3496
vn 0.0876 0.9093 0.4068
vn 0.0229 0.9941 0.1064
vn -0.0590 0.9941 0.0914
vn 0.3496 0.9093 0.2257
vn 0.0914 0.9941 0.0590
vn 0.4068 0.9093 -0.0876
vn 0.1064 0.9941 -0.0229
vn 0.2257 0.9093 -0.3496
vn 0.0590 0.9941 -0.0915
vn -0.0876 0.9093 -0.4068
vn -0.0229 0.9941 -0.1064
vn -0.3496 0.9093 -0.2257
vn -0.0914 0.9941 -0.0590
vn -0.4068 0.9093 0.0876
vn -0.1064 0.9941 0.0229
vn -0.5351 -0.1640 0.8287
vn 0.2076 -0.1640 0.9644
vn 0.1769 0.5417 0.8217
vn -0.4559 0.5417 0.7062
vn 0.8287 -0.1640 0.5351
vn 0.7062 0.5417 0.4559
vn 0.9644 -0.1640 -0.2076
vn 0.8217 0.5417 -0.1769
vn 0.5351 -0.1640 -0.8287
vn 0.4559 0.5417 -0.7062
vn -0.2076 -0.1640 -0.9644
vn -0.1769 0.5417 -0.8217
vn -0.8287 -0.1640 -0.5351
vn -0.7062 0.5417 -0.4559
vn -0.9644 -0.1640 0.2076
vn -0.8217 0.5417 0.1769
vn -0.4553 -0.5435 0.7052
vn 0.1767 -0.5435 0.8206
vn 0.7052 -0.5435 0.4553
vn 0.8206 -0.5435 -0.1767
vn 0.4553 -0.5435 -0.7052
vn -0.1767 -0.5435 -0.8206
vn -0.7052 -0.5435 -0.4553
vn -0.8206 -0.5435 0.1767
vn -0.5421 -0.0336 0.8396
vn 0.2104 -0.0336 0.9770
vn 0.8396 -0.0336 0.5421
vn 0.9770 -0.0336 -0.2104
vn 0.5421 -0.0336 -0.8396
vn -0.2104 -0.0336 -0.9770
vn -0.8396 -0.0336 -0.5421
vn -0.9770 -0.0336 0.2104
vn -0.2803 0.8562 0.4341
vn 0.0899 0.9862 -0.1393
vn -0.0349 0.9862 -0.1621
vn 0.1088 0.8562 0.5051
vn -0.1393 0.9862 -0.0899
vn 0.4341 0.8562 0.2803
vn -0.1621 0.9862 0.0349
vn 0.5051 0.8562 -0.1088
vn -0.0899 0.9862 0.1393
vn 0.2803 0.8562 -0.4341
vn 0.0349 0.9862 0.1621
vn -0.1088 0.8562 -0.5051
vn 0.1393 0.9862 0.0899
vn -0.4341 0.8562 -0.2803
vn 0.1621 0.9862 -0.0349
vn -0.5051 0.8562 0.1088
vn 0.3878 0.6992 -0.6006
vn -0.1505 0.6992 -0.6989
vn -0.6006 0.6992 -0.3878
vn -0.6989 0.6992 0.1505
vn -0.3878 0.6992 0.6006
vn 0.1505 0.6992 0.6989
vn 0.6006 0.6992 0.3878
vn 0.6989 0.6992 -0.1505
vn 0.5290 -0.2213 -0.8193
vn -0.2053 -0.2213 -0.9534
vn -0.2069 -0.1843 -0.9609
vn 0.5331 -0.1842 -0.8257
vn -0.8193 -0.2213 -0.5290
vn -0.8257 -0.1842 -0.5331
vn -0.9534 -0.2213 0.2053
vn -0.9609 -0.1843 0.2069
vn -0.5290 -0.2213 0.8193
vn -0.5331 -0.1842 0.8257
vn 0.2053 -0.2213 0.9534
vn 0.2069 -0.1842 0.9609
vn 0.8193 -0.2213 0.5290
vn 0.8257 -0.1842 0.5331
vn 0.9534 -0.2213 -0.2053
vn 0.9609 -0.1842 -0.2069
vn 0.4583 0.5350 -0.7098
vn -0.1778 0.5350 -0.8259
vn -0.7098 0.5350 -0.4583
vn -0.8259 0.5350 0.1778
vn -0.4583 0.5350 0.7098
vn 0.1778 0.5350 0.8259
vn 0.7098 0.5350 0.4583
vn 0.8259 0.5350 -0.1778
vn 0.4237 -0.6243 -0.6563
vn -0.1644 -0.6243 -0.7637
vn -0.2105 -0.0049 -0.9776
vn 0.5424 -0.0049 -0.8401
vn -0.6563 -0.6243 -0.4237
vn -0.8401 -0.0049 -0.5424
vn -0.7637 -0.6243 0.1644
vn -0.9776 -0.0049 0.2105
vn -0.4237 -0.6243 0.6563
vn -0.5424 -0.0049 0.8401
vn 0.1644 -0.6243 0.7637
vn 0.2105 -0.0049 0.9776
vn 0.6563 -0.6243 0.4237
vn 0.8401 -0.0049 0.5424
vn 0.7637 -0.6243 -0.1644
vn 0.9776 -0.0049 -0.2105
vn 0.1745 -0.9469 -0.2702
vn -0.0677 -0.9469 -0.3145
vn -0.2702 -0.9469 -0.1745
vn -0.3145 -0.9469 0.0677
vn -0.1745 -0.9469 0.2702
vn 0.0677 -0.9469 0.3145
vn 0.2702 -0.9469 0.1745
vn 0.3145 -0.9469 -0.0677
vn 0.0279 -0.9987 -0.0433
vn -0.0108 -0.9987 -0.0504
vn -0.0433 -0.9987 -0.0279
vn -0.0504 -0.9987 0.0108
vn -0.0279 -0.9987 0.0433
vn 0.0108 -0.9987 0.0504
vn 0.0433 -0.9987 0.0279
vn 0.0504 -0.9987 -0.0108
vn 0.4857 0.4452 -0.7522
vn -0.1885 0.4452 -0.8753
vn -0.7522 0.4452 -0.4857
vn -0.8753 0.4453 0.1885
vn -0.4857 0.4453 0.7522
vn 0.1885 0.4453 0.8753
vn 0.7522 0.4453 0.4857
vn 0.8753 0.4453 -0.1885
vn -0.0000 -1.0000 -0.0000
vn -0.0000 1.0000 0.0000
usemtl Mug_2.001
s 1
f 1/1/1 2/2/2 3/3/3 4/4/4
f 4/4/4 3/3/3 5/5/5 6/6/6
f 5/5/5 7/7/7 8/8/8 9/9/9
f 10/10/10 6/6/6 11/11/11 12/12/12
f 7/7/7 13/13/13 14/14/14 8/8/8
f 15/15/15 16/16/16 17/17/17 18/18/18
f 19/19/19 20/20/20 10/21/10 13/22/13
f 21/23/21 19/24/19 13/13/13 7/7/7
f 20/25/20 4/4/4 6/6/6 10/10/10
f 13/22/13 10/21/10 12/26/12 14/27/14
f 22/28/22 23/29/23 19/24/19 21/23/21
f 23/30/23 24/31/24 20/20/20 19/19/19
f 2/2/2 22/28/22 21/23/21 3/3/3
f 3/3/3 21/23/21 7/7/7 5/5/5
f 25/32/25 26/33/26 24/31/24 23/30/23
f 27/34/27 25/35/25 23/29/23 22/28/22
f 26/36/26 18/18/18 1/1/1 24/37/24
f 24/37/24 1/1/1 4/4/4 20/25/20
f 16/16/16 28/38/28 27/34/27 17/17/17
f 29/39/29 15/15/15 18/18/18 26/36/26
f 28/38/28 30/40/30 25/35/25 27/34/27
f 30/41/30 29/42/29 26/33/26 25/32/25
f 17/17/17 27/34/27 22/28/22 2/2/2
f 18/18/18 17/17/17 2/2/2 1/1/1
f 6/6/6 5/5/5 9/9/9 11/11/11
f 31/43/31 32/44/32 33/45/33 34/46/34
f 34/46/34 33/45/33 35/47/35 36/48/36
f 35/47/35 37/49/37 38/50/38 39/51/39
f 40/52/40 36/48/36 41/53/41 42/54/42
f 37/49/37 43/55/43 44/56/44 38/50/38
f 45/57/45 46/58/46 47/59/47 48/60/48
f 49/61/49 50/62/50 40/63/40 43/64/43
f 51/65/51 49/66/49 43/55/43 37/49/37
f 50/67/50 34/46/34 36/48/36 40/52/40
f 43/64/43 40/63/40 42/68/42 44/69/44
f 52/70/52 53/71/53 49/66/49 51/65/51
f 53/72/53 54/73/54 50/62/50 49/61/49
f 32/44/32 52/70/52 51/65/51 33/45/33
f 33/45/33 51/65/51 37/49/37 35/47/35
f 55/74/55 56/75/56 54/73/54 53/72/53
f 57/76/57 55/77/55 53/71/53 52/70/52
f 56/78/56 48/60/48 31/43/31 54/79/54
f 54/79/54 31/43/31 34/46/34 50/67/50
f 46/58/46 58/80/58 57/76/57 47/59/47
f 59/81/59 45/57/45 48/60/48 56/78/56
f 58/80/58 60/82/60 55/77/55 57/76/57
f 60/83/60 59/84/59 56/75/56 55/74/55
f 47/59/47 57/76/57 52/70/52 32/44/32
f 48/60/48 47/59/47 32/44/32 31/43/31
f 36/48/36 35/47/35 39/51/39 41/53/41
f 61/85/61 62/86/62 63/87/63 64/88/64
f 62/86/62 65/89/65 66/90/66 63/87/63
f 65/91/65 67/92/67 68/93/68 66/94/66
f 67/92/67 69/95/69 70/96/70 68/93/68
f 69/95/69 71/97/71 72/98/72 70/96/70
f 71/97/71 73/99/73 74/100/74 72/98/72
f 73/99/73 75/101/75 76/102/76 74/100/74
f 75/101/75 61/85/61 64/88/64 76/102/76
f 77/103/77 78/104/78 79/105/79 80/106/80
f 78/104/78 81/107/81 82/108/82 79/105/79
f 81/109/81 83/110/83 84/111/84 82/112/82
f 83/110/83 85/113/85 86/114/86 84/111/84
f 85/113/85 87/115/87 88/116/88 86/114/86
f 87/115/87 89/117/89 90/118/90 88/116/88
f 89/117/89 91/119/91 92/120/92 90/118/90
f 91/119/91 77/103/77 80/106/80 92/120/92
f 80/106/80 79/105/79 62/86/62 61/85/61
f 79/105/79 82/108/82 65/89/65 62/86/62
f 82/112/82 84/111/84 67/92/67 65/91/65
f 84/111/84 86/114/86 69/95/69 67/92/67
f 86/114/86 88/116/88 71/97/71 69/95/69
f 88/116/88 90/118/90 73/99/73 71/97/71
f 90/118/90 92/120/92 75/101/75 73/99/73
f 92/120/92 80/106/80 61/85/61 75/101/75
f 93/121/93 94/122/94 78/104/78 77/103/77
f 94/122/94 95/123/95 81/107/81 78/104/78
f 95/124/95 96/125/96 83/110/83 81/109/81
f 96/125/96 97/126/97 85/113/85 83/110/83
f 97/126/97 98/127/98 87/115/87 85/113/85
f 98/127/98 99/128/99 89/117/89 87/115/87
f 99/128/99 100/129/100 91/119/91 89/117/89
f 100/129/100 93/121/93 77/103/77 91/119/91
f 101/130/101 102/131/102 94/122/94 93/121/93
f 102/131/102 103/132/103 95/123/95 94/122/94
f 103/133/103 104/134/104 96/125/96 95/124/95
f 104/134/104 105/135/105 97/126/97 96/125/96
f 105/135/105 106/136/106 98/127/98 97/126/97
f 106/136/106 107/137/107 99/128/99 98/127/98
f 107/137/107 108/138/108 100/129/100 99/128/99
f 108/138/108 101/130/101 93/121/93 100/129/100
f 109/139/109 110/140/110 111/141/111 112/142/112
f 112/142/112 111/141/111 113/143/113 114/144/114
f 114/145/114 113/146/113 115/147/115 116/148/116
f 116/148/116 115/147/115 117/149/117 118/150/118
f 118/150/118 117/149/117 119/151/119 120/152/120
f 120/152/120 119/151/119 121/153/121 122/154/122
f 122/154/122 121/153/121 123/155/123 124/156/124
f 124/156/124 123/155/123 110/140/110 109/139/109
f 125/157/125 126/158/126 111/141/111 110/140/110
f 126/158/126 127/159/127 113/143/113 111/141/111
f 127/160/127 128/161/128 115/147/115 113/146/113
f 128/161/128 129/162/129 117/149/117 115/147/115
f 129/162/129 130/163/130 119/151/119 117/149/117
f 130/163/130 131/164/131 121/153/121 119/151/119
f 131/164/131 132/165/132 123/155/123 121/153/121
f 132/165/132 125/157/125 110/140/110 123/155/123
f 133/166/133 134/167/134 135/168/135 136/169/136
f 134/167/134 137/170/137 138/171/138 135/168/135
f 137/172/137 139/173/139 140/174/140 138/175/138
f 139/173/139 141/176/141 142/177/142 140/174/140
f 141/176/141 143/178/143 144/179/144 142/177/142
f 143/178/143 145/180/145 146/181/146 144/179/144
f 145/180/145 147/182/147 148/183/148 146/181/146
f 147/182/147 133/166/133 136/169/136 148/183/148
f 149/184/149 150/185/150 134/167/134 133/166/133
f 150/185/150 151/186/151 137/170/137 134/167/134
f 151/187/151 152/188/152 139/173/139 137/172/137
f 152/188/152 153/189/153 141/176/141 139/173/139
f 153/189/153 154/190/154 143/178/143 141/176/141
f 154/190/154 155/191/155 145/180/145 143/178/143
f 155/191/155 156/192/156 147/182/147 145/180/145
f 156/192/156 149/184/149 133/166/133 147/182/147
f 157/193/157 158/194/158 159/195/159 160/196/160
f 158/194/158 161/197/161 162/198/162 159/195/159
f 161/199/161 163/200/163 164/201/164 162/202/162
f 163/200/163 165/203/165 166/204/166 164/201/164
f 165/203/165 167/205/167 168/206/168 166/204/166
f 167/205/167 169/207/169 170/208/170 168/206/168
f 169/207/169 171/209/171 172/210/172 170/208/170
f 171/209/171 157/193/157 160/196/160 172/210/172
f 173/211/173 174/212/174 158/194/158 157/193/157
f 174/212/174 175/213/175 161/197/161 158/194/158
f 175/214/175 176/215/176 163/200/163 161/199/161
f 176/215/176 177/216/177 165/203/165 163/200/163
f 177/216/177 178/217/178 167/205/167 165/203/165
f 178/217/178 179/218/179 169/207/169 167/205/167
f 179/218/179 180/219/180 171/209/171 169/207/169
f 180/219/180 173/211/173 157/193/157 171/209/171
f 181/220/181 182/221/182 174/222/174 173/223/173
f 182/221/182 183/224/183 175/225/175 174/222/174
f 183/224/183 184/226/184 176/227/176 175/225/175
f 184/226/184 185/228/185 177/229/177 176/227/176
f 185/228/185 186/230/186 178/231/178 177/229/177
f 186/230/186 187/232/187 179/233/179 178/231/178
f 187/232/187 188/234/188 180/235/180 179/233/179
f 188/234/188 181/220/181 173/223/173 180/235/180
f 189/236/189 190/237/190 150/185/150 149/184/149
f 190/237/190 191/238/191 151/186/151 150/185/150
f 191/239/191 192/240/192 152/188/152 151/187/151
f 192/240/192 193/241/193 153/189/153 152/188/152
f 193/241/193 194/242/194 154/190/154 153/189/153
f 194/242/194 195/243/195 155/191/155 154/190/154
f 195/243/195 196/244/196 156/192/156 155/191/155
f 196/244/196 189/236/189 149/184/149 156/192/156
f 160/196/160 159/195/159 190/237/190 189/236/189
f 159/195/159 162/198/162 191/238/191 190/237/190
f 162/202/162 164/201/164 192/240/192 191/239/191
f 164/201/164 166/204/166 193/241/193 192/240/192
f 166/204/166 168/206/168 194/242/194 193/241/193
f 168/206/168 170/208/170 195/243/195 194/242/194
f 170/208/170 172/210/172 196/244/196 195/243/195
f 172/210/172 160/196/160 189/236/189 196/244/196
f 197/245/197 187/232/187 186/230/186 185/228/185
f 181/220/181 188/234/188 187/232/187 197/245/197
f 183/224/183 197/245/197 185/228/185 184/226/184
f 182/221/182 181/220/181 197/245/197 183/224/183
f 198/246/198 70/247/70 72/248/72 74/249/74
f 64/250/64 198/246/198 74/249/74 76/251/76
f 66/252/66 68/253/68 70/247/70 198/246/198
f 63/254/63 66/252/66 198/246/198 64/250/64
f 148/183/148 136/169/136 125/157/125 132/165/132
f 146/181/146 148/183/148 132/165/132 131/164/131
f 144/179/144 146/181/146 131/164/131 130/163/130
f 142/177/142 144/179/144 130/163/130 129/162/129
f 140/174/140 142/177/142 129/162/129 128/161/128
f 138/175/138 140/174/140 128/161/128 127/160/127
f 135/168/135 138/171/138 127/159/127 126/158/126
f 136/169/136 135/168/135 126/158/126 125/157/125
f 108/138/108 124/156/124 109/139/109 101/130/101
f 107/137/107 122/154/122 124/156/124 108/138/108
f 106/136/106 120/152/120 122/154/122 107/137/107
f 105/135/105 118/150/118 120/152/120 106/136/106
f 104/134/104 116/148/116 118/150/118 105/135/105
f 103/133/103 114/145/114 116/148/116 104/134/104
f 102/131/102 112/142/112 114/144/114 103/132/103
f 101/130/101 109/139/109 112/142/112 102/131/102
