# Blender v2.83.5 OBJ File: ''
# www.blender.org
mtllib vase_1_debris_007.mtl
o mug_3.005_cell.006_Mesh.007
v -0.154969 0.001665 0.004336
v -0.136309 0.001668 -0.002538
v -0.133361 0.001654 0.002576
v -0.108013 0.001613 0.012343
v -0.142684 0.001615 0.021779
v -0.146852 0.001623 0.019704
v -0.127348 0.105063 0.013998
v -0.091984 0.084612 -0.002955
v -0.135162 0.012412 -0.000898
v -0.151690 0.012766 0.005260
v -0.153482 0.035075 0.010199
v -0.009070 0.001620 0.050414
v 0.146632 0.001613 -0.001284
v 0.170896 0.001602 -0.063573
v 0.230347 0.001600 -0.079756
v 0.197838 0.001618 0.030966
v 0.126773 0.001624 0.067253
v -0.001867 0.001627 0.091746
v 0.180350 0.001654 -0.088014
v 0.234774 0.001633 -0.094907
v 0.067880 0.099956 -0.013861
v 0.197943 0.045471 -0.063523
v 0.061600 0.079594 -0.025481
v -0.065854 0.100005 0.003120
v -0.079223 0.135310 0.026342
v 0.030869 0.101477 -0.008242
v -0.147095 0.014389 0.013177
v -0.041061 0.063258 0.041340
v 0.180120 0.029970 0.030479
vt 0.061035 0.513184
vt 0.066895 0.537598
vt 0.063965 0.538574
vt 0.058105 0.566895
vt 0.049316 0.523926
vt 0.051270 0.519043
vt 0.166504 0.520020
vt 0.158691 0.570801
vt 0.077637 0.535645
vt 0.072754 0.514160
vt 0.093262 0.506348
vt 0.035645 0.673340
vt 0.082520 0.868652
vt 0.129395 0.911621
vt 0.144043 0.984863
vt 0.061035 0.921387
vt 0.030762 0.828613
vt 0.005371 0.672363
vt 0.147949 0.928223
vt 0.155762 0.994629
vt 0.191895 0.757324
vt 0.177246 0.933105
vt 0.178223 0.757324
vt 0.171387 0.596191
vt 0.191895 0.566895
vt 0.187012 0.711426
vt 0.437988 0.761230
vt 0.436035 0.771973
vt 0.408691 0.766113
vt 0.452637 0.778809
vt 0.451660 0.758301
vt 0.452637 0.942871
vt 0.371582 0.866699
vt 0.452637 0.783691
vt 0.248535 0.586426
vt 0.279785 0.614746
vt 0.219238 0.679199
vt 0.345215 0.646973
vt 0.341309 0.659668
vt 0.334473 0.654785
vt 0.244629 0.980957
vt 0.289551 0.881348
vt 0.376465 0.938965
vt 0.347168 0.982910
vt 0.269043 0.992676
vt 0.370605 0.793457
vt 0.376465 0.748535
vt 0.191895 0.834473
vt 0.360840 0.569824
vt 0.324707 0.516113
vt 0.334473 0.506348
vt 0.451660 0.585449
vt 0.451660 0.730957
vt 0.363770 0.674316
vt 0.420410 0.587402
vn -0.0007 -1.0000 -0.0024
vn -0.3402 0.1772 -0.9235
vn 0.0000 -1.0000 0.0002
vn -0.1074 0.5176 -0.8489
vn -0.9496 0.1771 -0.2588
vn -0.6515 0.1561 0.7425
vn -0.9639 0.2612 0.0511
vn -0.5653 -0.5054 0.6519
vn -0.8322 -0.4604 -0.3091
vn -0.0397 -0.3761 0.9257
vn -0.0555 0.4308 0.9008
vn -0.3744 -0.5440 0.7509
vn 0.7302 -0.4415 0.5214
vn 0.5288 0.6291 0.5698
vn 0.2169 -0.3990 0.8909
vn 0.0783 -0.0195 -0.9967
vn 0.4168 -0.7161 -0.5599
vn 0.2396 -0.5424 -0.8053
vn -0.1929 0.9473 0.2556
vn -0.7887 0.6142 0.0272
vn 0.0939 0.9956 0.0080
vn 0.0934 0.9894 -0.1113
vn 0.4530 0.8148 -0.3618
vn 0.8358 -0.4920 0.2438
vn 0.7351 -0.2575 -0.6271
vn 0.0087 0.0586 -0.9982
vn -0.0376 -0.8393 -0.5424
vn 0.2220 -0.7858 -0.5773
vn 0.0311 0.1228 -0.9919
vn -0.2893 -0.0845 -0.9535
vn -0.2905 -0.9213 -0.2586
vn -0.2819 -0.4939 -0.8225
vn -0.3302 -0.9351 -0.1288
usemtl Mug_3.007
s off
f 1/1/1 2/2/1 3/3/1 4/4/1 5/5/1 6/6/1
f 7/7/2 8/8/2 9/9/2 2/2/2 1/1/2 10/10/2 11/11/2
f 5/5/3 4/4/3 12/12/3 13/13/3 14/14/3 15/15/3 16/16/3 17/17/3 18/18/3
f 19/19/1 20/20/1 15/15/1 14/14/1
f 21/21/4 22/22/4 20/20/4 19/19/4 23/23/4 24/24/4 8/8/4 7/7/4 25/25/4 26/26/4
s 1
f 10/27/5 27/28/6 11/29/7
f 6/30/8 27/28/6 10/27/5 1/31/9
f 18/32/10 28/33/11 27/28/6 6/30/8 5/34/12
f 16/35/13 29/36/14 17/37/15
f 9/38/16 3/39/17 2/40/18
f 27/41/6 28/42/11 25/43/19 7/44/20 11/45/7
f 25/43/19 28/42/11 26/46/21
f 17/37/15 29/36/14 21/47/22 26/46/21 28/42/11 18/48/10
f 29/36/14 22/49/23 21/47/22
f 22/49/23 29/36/14 16/35/13 15/50/24 20/51/25
f 24/52/26 12/53/27 4/54/28 3/39/17 9/38/16 8/55/29
f 23/23/30 13/13/31 12/12/27 24/24/26
f 13/13/31 23/23/30 19/19/32 14/14/33
