# Blender v2.83.5 OBJ File: 'bug_gibs_001.blend'
# www.blender.org
mtllib bug_1_debris_004.mtl
o Shellbug.003_Plane.003
v -0.036625 -0.001775 0.028914
v 0.509478 -0.001775 0.410175
v -0.036625 0.107622 0.028914
v 0.509478 0.107622 0.410175
v -0.075218 0.014178 0.079102
v 0.470885 -0.001775 0.460361
v -0.075218 0.091668 0.079102
v 0.470885 0.107622 0.460361
v -0.452866 0.107622 -0.559197
v -0.452866 -0.001775 -0.559197
v -0.415653 0.083311 -0.419355
v -0.415653 0.022535 -0.419355
vt 0.791226 0.822966
vt 0.818318 0.996144
vt 0.822830 0.823748
vt 0.882288 0.823457
vt 0.869521 0.995868
vt 0.887957 0.996144
vt 0.841457 0.826249
vt 0.863657 0.826104
vt 0.835845 0.995834
vt 0.829754 0.639619
vt 0.872517 0.639533
vt 0.842746 0.679473
vt 0.859599 0.678764
vt 0.029781 0.699125
vt 0.029781 0.574144
vt 0.102109 0.574144
vt 0.102109 0.699125
vt 0.786507 0.995454
vt 0.798333 0.638658
vn 0.3745 0.8327 -0.4078
vn 0.8086 -0.5749 -0.1246
vn 0.3745 -0.8327 -0.4078
vn 0.1235 0.5801 0.8051
vn 0.8086 0.5749 -0.1246
vn -0.5847 -0.5797 0.5674
vn -0.5847 0.5797 0.5674
vn 0.1235 -0.5801 0.8051
vn -0.3510 -0.5789 -0.7360
vn -0.3510 0.5789 -0.7360
vn -0.7762 -0.4898 0.3969
vn -0.7762 0.4898 0.3969
usemtl MAT-shellbug.003
s 1
f 3/1/1 2/2/2 1/3/3
f 3/4/1 8/5/4 4/6/5
f 5/7/6 8/5/4 7/8/7
f 1/3/3 6/9/8 5/7/6
f 10/10/9 3/1/1 1/3/3
f 9/11/10 12/12/11 11/13/12
f 7/8/7 12/12/11 5/7/6
f 12/12/11 1/3/3 5/7/6
f 3/4/1 11/13/12 7/8/7
f 8/14/4 6/15/8 2/16/2 4/17/5
f 3/1/1 4/18/5 2/2/2
f 3/4/1 7/8/7 8/5/4
f 5/7/6 6/9/8 8/5/4
f 1/3/3 2/2/2 6/9/8
f 10/10/9 9/19/10 3/1/1
f 9/11/10 10/10/9 12/12/11
f 7/8/7 11/13/12 12/12/11
f 12/12/11 10/10/9 1/3/3
f 3/4/1 9/11/10 11/13/12
