# Blender v2.83.5 OBJ File: 'bug_gibs_001.blend'
# www.blender.org
mtllib bug_1_debris_001.mtl
o Shellbug.002_Plane.002
v -0.471259 0.185744 0.208971
v -0.071372 -0.001515 0.152016
v -0.628824 0.114174 0.038298
v -0.073750 -0.028913 -0.021143
v -0.245286 0.248286 -0.577070
v -0.104969 0.137456 -0.583617
v -0.022652 0.005185 0.068406
v 0.034916 -0.100955 0.102042
v 0.003856 -0.118442 0.098381
v -0.019315 -0.120664 0.130204
v -0.004035 -0.133708 0.062895
v -0.007311 -0.231864 0.125037
v -0.071752 -0.203915 0.124410
v -0.031621 -0.198540 0.174241
v 0.021791 0.141959 0.232336
v -0.270388 0.368848 0.311799
v -0.132797 0.612768 0.234196
v 0.144361 0.270665 0.168094
v -0.089709 0.794354 0.078478
v 0.180368 0.291697 -0.002204
v -0.096478 0.436031 -0.565980
v 0.043840 0.325201 -0.572527
v -0.170882 0.342159 -0.571525
v -0.030564 0.231329 -0.578072
v -0.359267 0.454264 0.058388
v 0.135352 0.063588 0.035310
v 0.153855 0.227875 0.081561
v 0.268279 0.193469 0.119435
v 0.278334 0.227856 0.118837
v 0.273337 0.248563 0.152015
v 0.293386 0.241536 0.085061
v 0.384425 0.262374 0.154232
v 0.342489 0.318716 0.155283
v 0.343637 0.274908 0.202208
vt 0.254471 0.737026
vt 0.180659 0.809105
vt 0.127251 0.735755
vt 0.054722 0.775985
vt 0.115401 0.775195
vt 0.084454 0.821087
vt 0.162375 0.663161
vt 0.265961 0.713279
vt 0.278958 0.787572
vt 0.263871 0.766151
vt 0.187760 0.852633
vt 0.158087 0.821823
vt 0.143591 0.852633
vt 0.023916 0.939371
vt 0.044887 0.977752
vt 0.019138 0.982846
vt 0.019138 0.885264
vt 0.045158 0.924209
vt 0.025073 0.937333
vt 0.071543 0.885264
vt 0.064970 0.910676
vt 0.061660 0.960596
vt 0.070637 0.982846
vt 0.065507 0.936919
vt 0.067606 0.937353
vt 0.120497 0.633317
vt 0.120497 0.695806
vt 0.027253 0.633317
vt 0.254471 0.737026
vt 0.180659 0.809105
vt 0.263871 0.766151
vt 0.115401 0.775195
vt 0.127251 0.735755
vt 0.158087 0.821823
vt 0.023916 0.939371
vt 0.019138 0.982846
vt 0.044887 0.977752
vt 0.019138 0.885264
vt 0.025073 0.937333
vt 0.045158 0.924209
vt 0.064970 0.910676
vt 0.071543 0.885264
vt 0.070637 0.982846
vt 0.061660 0.960596
vt 0.065507 0.936919
vt 0.067606 0.937353
vt 0.027253 0.570828
vt 0.120497 0.570828
vt 0.027253 0.695806
vn -0.6531 -0.0856 -0.7524
vn 0.0600 -0.9926 -0.1054
vn -0.9391 -0.3317 0.0902
vn -0.7840 0.6179 0.0592
vn -0.5928 -0.1961 0.7811
vn -0.2989 0.1816 0.9368
vn -0.4436 0.3990 -0.8025
vn 0.4913 -0.3421 -0.8010
vn 0.0761 -0.7041 -0.7060
vn 0.7795 -0.6221 0.0724
vn 0.0351 -0.8498 0.5260
vn 0.3684 -0.3431 0.8640
vn 0.3697 0.8437 -0.3892
vn 0.5089 -0.8323 -0.2196
vn -0.9517 -0.1989 -0.2338
vn -0.2134 0.9489 -0.2323
vn 0.9702 -0.0664 0.2331
vn -0.0947 -0.7268 -0.6803
vn -0.4281 -0.4422 0.7881
vn -0.0324 -0.0524 0.9981
vn -0.0238 0.7083 -0.7055
vn 0.9842 0.1733 -0.0365
vn 0.7421 0.1361 -0.6564
vn 0.0093 0.5636 0.8260
vn 0.1011 0.9806 0.1677
vn 0.8034 0.1196 0.5832
vn -0.7123 -0.5214 -0.4698
vn -0.0122 0.9864 -0.1638
vn 0.9383 -0.2906 -0.1876
vn -0.9576 0.0099 -0.2878
vn 0.7233 0.3053 -0.6193
vn 0.2742 -0.9444 0.1812
vn 0.2860 0.4586 0.8413
vn -0.0138 -0.0289 0.9995
usemtl MAT-shellbug.002
s 1
f 5/1/1 4/2/2 3/3/3
f 25/4/4 1/5/5 16/6/6
f 5/1/1 25/7/4 23/8/7
f 4/2/2 1/5/5 3/3/3
f 24/9/8 4/2/2 6/10/9
f 26/11/10 2/12/11 4/2/2
f 2/12/11 16/6/6 1/5/5
f 26/11/10 15/13/12 2/12/11
f 25/4/4 3/3/3 1/5/5
f 9/14/13 12/15/14 13/16/15
f 7/17/16 8/18/17 11/19/18
f 7/17/16 11/20/18 10/21/19
f 7/17/16 10/21/19 8/18/17
f 12/15/14 14/22/20 13/23/15
f 11/24/18 8/18/17 10/21/19
f 9/14/13 13/25/15 14/22/20
f 9/14/13 14/22/20 12/15/14
f 24/26/8 6/27/9 23/28/7
f 21/29/21 20/30/22 22/31/23
f 25/4/4 16/6/6 17/32/24
f 25/7/4 21/29/21 23/8/7
f 17/32/24 20/30/22 19/33/25
f 20/30/22 24/9/8 22/31/23
f 26/11/10 20/30/22 18/34/26
f 16/6/6 18/34/26 17/32/24
f 26/11/10 18/34/26 15/13/12
f 25/4/4 17/32/24 19/33/25
f 29/35/27 33/36/28 32/37/29
f 27/38/30 31/39/31 28/40/32
f 27/38/30 30/41/33 31/42/31
f 27/38/30 28/40/32 30/41/33
f 32/37/29 33/43/28 34/44/34
f 31/45/31 30/41/33 28/40/32
f 29/35/27 34/44/34 33/46/28
f 29/35/27 32/37/29 34/44/34
f 5/1/1 6/10/9 4/2/2
f 5/1/1 3/3/3 25/7/4
f 4/2/2 2/12/11 1/5/5
f 24/9/8 26/11/10 4/2/2
f 2/12/11 15/13/12 16/6/6
f 23/28/7 21/47/21 22/48/23
f 6/27/9 5/49/1 23/28/7
f 23/28/7 22/48/23 24/26/8
f 21/29/21 19/33/25 20/30/22
f 25/7/4 19/33/25 21/29/21
f 17/32/24 18/34/26 20/30/22
f 20/30/22 26/11/10 24/9/8
f 16/6/6 15/13/12 18/34/26
