# Blender v2.83.5 OBJ File: 'bug_gibs_001.blend'
# www.blender.org
mtllib bug_1_debris_003.mtl
o Shellbug.001_Plane.001
v 0.675736 1.492387 0.388754
v 0.129633 1.298058 0.276995
v 0.675736 1.437849 0.483587
v 0.129633 1.243520 0.371827
v 0.714329 1.440928 0.377563
v 0.168226 1.254553 0.251975
v 0.714329 1.402296 0.444736
v 0.168226 1.200014 0.346807
v 0.675736 1.238841 0.829626
v 0.129633 1.044511 0.717866
v 0.675736 1.184302 0.924458
v 0.129633 0.989973 0.812699
v 0.714329 1.187381 0.818435
v 0.168226 1.001006 0.692846
v 0.714329 1.148750 0.885608
v 0.168226 0.946468 0.787679
v 0.675736 0.985294 1.270497
v 0.129633 0.790965 1.158738
v 0.675736 0.930756 1.365330
v 0.129633 0.736426 1.253571
v 0.714329 0.933835 1.259307
v 0.168226 0.747460 1.133718
v 0.714329 0.895203 1.326480
v 0.168226 0.692921 1.228551
v 0.324690 1.223885 -0.272477
v 0.324690 1.075131 -0.358026
v 0.496290 1.223885 -0.272477
v 0.496290 1.075131 -0.358026
v 0.410490 0.935282 0.057248
v 0.345083 1.493760 -0.750696
v 0.345083 1.380361 -0.815912
v 0.475898 1.493760 -0.750696
v 0.475898 1.380361 -0.815912
v 0.692230 1.078521 -0.392776
v 0.469503 0.783966 -0.857033
v 0.695195 1.250774 0.300868
v 0.367462 0.644005 1.168748
v 1.035157 1.114337 -0.508814
v 0.573465 0.740419 -1.149616
v 0.999783 1.266390 0.460589
v 0.535943 0.670163 1.502579
v 1.144809 1.017036 -0.507558
v 0.626206 0.579557 -1.259214
v 1.074097 1.106060 0.444868
v 0.470029 0.485086 1.546302
v 0.931076 0.889605 -0.361889
v 0.557872 0.512690 -1.014025
v 0.794824 1.015740 0.554195
v 0.334753 0.523841 1.405638
v 0.733535 0.445819 -0.245430
v 0.527447 0.267410 -0.581810
v 0.682748 0.508669 0.433525
v 0.336782 0.299732 0.957880
v 0.468899 0.122259 -0.198242
v 0.403019 0.132659 0.363517
v 0.434426 1.271573 -0.885738
v 0.204772 0.884987 -1.268823
v 0.119912 0.847990 -0.631054
v 0.119912 0.692883 -0.720256
v -0.675736 1.492387 0.388754
v -0.129633 1.298058 0.276995
v -0.675736 1.437849 0.483587
v -0.129633 1.243520 0.371827
v -0.714329 1.440928 0.377563
v -0.168226 1.254553 0.251975
v -0.714329 1.402296 0.444736
v -0.168226 1.200014 0.346807
v -0.675736 1.238841 0.829626
v -0.129633 1.044511 0.717866
v -0.675736 1.184302 0.924458
v -0.129633 0.989973 0.812699
v -0.714329 1.187381 0.818435
v -0.168226 1.001006 0.692846
v -0.714329 1.148750 0.885608
v -0.168226 0.946468 0.787679
v -0.675736 0.985294 1.270497
v -0.129633 0.790965 1.158738
v -0.675736 0.930756 1.365330
v -0.129633 0.736426 1.253571
v -0.714329 0.933835 1.259307
v -0.168226 0.747460 1.133718
v -0.714329 0.895203 1.326480
v -0.168226 0.692921 1.228551
v -0.324690 1.223885 -0.272477
v -0.324690 1.075131 -0.358026
v -0.496290 1.223885 -0.272477
v -0.496290 1.075131 -0.358026
v -0.410490 0.935282 0.057248
v -0.345083 1.493760 -0.750696
v -0.345083 1.380361 -0.815912
v -0.475898 1.493760 -0.750696
v -0.475898 1.380361 -0.815912
v 0.000000 1.280267 -0.520737
v -0.692230 1.078521 -0.392776
v 0.000000 0.706369 -1.047254
v -0.469503 0.783966 -0.857033
v 0.000000 1.592710 0.275546
v -0.695195 1.250774 0.300868
v 0.000000 1.101926 1.232678
v -0.367462 0.644005 1.168748
v -1.035157 1.114337 -0.508814
v 0.000000 0.640222 -1.339316
v -0.573465 0.740419 -1.149616
v -0.999783 1.266390 0.460589
v 0.000000 0.689960 1.475433
v -0.535943 0.670163 1.502579
v -1.144809 1.017036 -0.507558
v 0.000000 0.462369 -1.483268
v -0.626206 0.579557 -1.259214
v -1.074097 1.106060 0.444868
v 0.000000 0.511724 1.696194
v -0.470029 0.485086 1.546302
v -0.931076 0.889605 -0.361889
v 0.000000 0.365942 -1.051611
v -0.557872 0.512690 -1.014025
v -0.794824 1.015740 0.554195
v 0.000000 0.512239 1.425811
v -0.334753 0.523841 1.405638
v -0.733535 0.445819 -0.245430
v 0.000000 0.167372 -0.749666
v -0.527447 0.267410 -0.581810
v -0.682748 0.508669 0.433525
v 0.000000 0.255619 1.114923
v -0.336782 0.299732 0.957880
v -0.468899 0.122259 -0.198242
v -0.403019 0.132659 0.363517
v 0.000000 -0.034018 -0.220446
v 0.000000 -0.024902 0.338986
v -0.434426 1.271573 -0.885738
v -0.204772 0.884987 -1.268823
v -0.119912 0.847990 -0.631054
v -0.119912 0.692883 -0.720256
v 0.000000 0.847990 -0.631054
v 0.000000 0.692883 -0.720256
v 0.000000 1.271573 -0.885738
v 0.000000 0.819672 -1.365103
vt 0.920338 0.996144
vt 0.893245 0.822966
vt 0.924850 0.823748
vt 0.984308 0.823457
vt 0.971540 0.995868
vt 0.965677 0.826104
vt 0.943477 0.826249
vt 0.937865 0.995834
vt 0.716299 0.996144
vt 0.689205 0.822966
vt 0.720810 0.823748
vt 0.780268 0.823456
vt 0.767501 0.995868
vt 0.761637 0.826103
vt 0.739437 0.826248
vt 0.733826 0.995834
vt 0.818318 0.996144
vt 0.791226 0.822966
vt 0.822830 0.823748
vt 0.882288 0.823457
vt 0.869521 0.995868
vt 0.863657 0.826104
vt 0.841457 0.826249
vt 0.835845 0.995834
vt 0.441203 0.942109
vt 0.567809 0.973012
vt 0.439324 0.973013
vt 0.563120 0.912883
vt 0.562115 0.884111
vt 0.644960 0.915484
vt 0.076894 0.567618
vt 0.076894 0.657893
vt 0.024650 0.644728
vt 0.024650 0.580783
vt 0.572696 0.849602
vt 0.564435 0.939930
vt 0.441181 0.908167
vt 0.441604 0.846739
vt 0.441187 0.877248
vt 0.851434 0.457630
vt 0.992561 0.548547
vt 0.907768 0.621401
vt 0.977964 0.262175
vt 0.999780 0.419602
vt 0.860796 0.098639
vt 0.991834 0.081764
vt 0.914294 0.006747
vt 0.999780 0.000220
vt 0.463971 0.001938
vt 0.301630 0.058908
vt 0.301244 0.000220
vt 0.037410 0.043786
vt 0.148132 0.108081
vt 0.011791 0.117502
vt 0.688280 0.036929
vt 0.487358 0.036979
vt 0.166921 0.042316
vt 0.139752 0.146592
vt 0.000220 0.183057
vt 0.723919 0.126927
vt 0.485650 0.067144
vt 0.303737 0.083541
vt 0.813939 0.127575
vt 0.736431 0.166134
vt 0.084562 0.290181
vt 0.504201 0.110286
vt 0.326141 0.124171
vt 0.176350 0.185907
vt 0.814654 0.200230
vt 0.708284 0.191880
vt 0.160065 0.360704
vt 0.612994 0.263913
vt 0.482447 0.212533
vt 0.339483 0.217244
vt 0.259261 0.258699
vt 0.688790 0.324085
vt 0.473133 0.309317
vt 0.343273 0.302219
vt 0.484466 0.427056
vt 0.316408 0.427056
vt 0.254471 0.737026
vt 0.180659 0.809105
vt 0.127251 0.735755
vt 0.162375 0.663161
vt 0.265961 0.713279
vt 0.278958 0.787572
vt 0.263871 0.766151
vt 0.893245 0.822966
vt 0.920338 0.996144
vt 0.924850 0.823748
vt 0.984308 0.823457
vt 0.971540 0.995868
vt 0.989977 0.996144
vt 0.943477 0.826249
vt 0.965677 0.826104
vt 0.937865 0.995834
vt 0.689205 0.822966
vt 0.716299 0.996144
vt 0.720810 0.823748
vt 0.780268 0.823456
vt 0.767501 0.995868
vt 0.785938 0.996144
vt 0.739437 0.826248
vt 0.761637 0.826103
vt 0.733826 0.995834
vt 0.791226 0.822966
vt 0.818318 0.996144
vt 0.822830 0.823748
vt 0.882288 0.823457
vt 0.869521 0.995868
vt 0.887957 0.996144
vt 0.841457 0.826249
vt 0.863657 0.826104
vt 0.835845 0.995834
vt 0.567809 0.973012
vt 0.441203 0.942109
vt 0.439324 0.973013
vt 0.563120 0.912883
vt 0.644960 0.915484
vt 0.562115 0.884111
vt 0.076894 0.657893
vt 0.024650 0.644727
vt 0.024650 0.580783
vt 0.076894 0.567618
vt 0.572696 0.849602
vt 0.564435 0.939930
vt 0.441604 0.846739
vt 0.441181 0.908167
vt 0.992561 0.548547
vt 0.999780 0.419602
vt 0.977964 0.262175
vt 0.815094 0.270920
vt 0.991834 0.081764
vt 0.301630 0.058908
vt 0.463971 0.001938
vt 0.301244 0.000220
vt 0.148132 0.108081
vt 0.166921 0.042316
vt 0.487358 0.036979
vt 0.688280 0.036929
vt 0.139752 0.146592
vt 0.485650 0.067144
vt 0.723919 0.126927
vt 0.303737 0.083541
vt 0.736431 0.166134
vt 0.504201 0.110286
vt 0.326141 0.124171
vt 0.176350 0.185907
vt 0.708284 0.191880
vt 0.612994 0.263913
vt 0.482447 0.212533
vt 0.259261 0.258699
vt 0.766344 0.252182
vt 0.339483 0.217244
vt 0.473133 0.309317
vt 0.343273 0.302219
vt 0.254471 0.737026
vt 0.180659 0.809105
vt 0.263871 0.766151
vt 0.888526 0.995454
vt 0.989977 0.996144
vt 0.684487 0.995454
vt 0.785938 0.996144
vt 0.786507 0.995454
vt 0.887957 0.996144
vt 0.076894 0.657893
vt 0.024650 0.644728
vt 0.024650 0.580783
vt 0.076894 0.567618
vt 0.016296 0.640625
vt 0.033705 0.609985
vt 0.033705 0.671265
vt 0.187760 0.852633
vt 0.115139 0.640625
vt 0.888526 0.995454
vt 0.684487 0.995454
vt 0.786507 0.995454
vt 0.024713 0.567681
vt 0.132662 0.567681
vt 0.132662 0.675630
vt 0.024713 0.675630
vt 0.132599 0.567618
vt 0.132599 0.675567
vt 0.024650 0.675567
vt 0.024650 0.567618
vt 0.024650 0.657893
vt 0.024650 0.567618
vt 0.076894 0.580783
vt 0.076894 0.644727
vt 0.076894 0.657893
vt 0.024650 0.644727
vt 0.024650 0.580783
vt 0.076894 0.567618
vt 0.441187 0.877248
vt 0.024650 0.657893
vt 0.024650 0.567618
vt 0.076894 0.580783
vt 0.076894 0.644728
vt 0.999780 0.000220
vt 0.127251 0.735755
vt 0.115139 0.705628
vt 0.115139 0.575622
vn -0.2921 0.9354 -0.1991
vn 0.2454 0.2795 0.9282
vn 0.2454 0.9429 -0.2252
vn 0.2479 -0.8997 0.3593
vn 0.8395 -0.4570 0.2940
vn 0.8395 0.0243 -0.5428
vn 0.2479 -0.1419 -0.9583
vn 0.8395 -0.4569 0.2940
vn -0.5688 -0.1824 -0.8020
vn -0.7059 0.5494 0.4471
vn -0.5659 0.7936 -0.2232
vn 0.7007 -0.6599 -0.2712
vn 0.7059 0.5494 0.4471
vn 0.0000 -0.4985 0.8668
vn -0.2454 0.2795 0.9282
vn -0.2454 0.9429 -0.2252
vn -0.8395 0.0243 -0.5428
vn -0.8395 -0.4570 0.2940
vn -0.7007 -0.6599 -0.2712
vn 0.5688 -0.1824 -0.8020
vn 0.5659 0.7936 -0.2232
vn 0.0000 0.8581 -0.5134
vn -0.0553 0.8951 -0.4423
vn 0.0000 0.9049 -0.4255
vn 0.1575 0.9815 0.1085
vn 0.0274 0.9257 -0.3772
vn 0.0000 0.6805 0.7327
vn 0.1026 0.9069 0.4085
vn 0.0000 0.7624 0.6471
vn 0.4897 0.5239 0.6969
vn 0.2988 0.8752 -0.3803
vn 0.1332 0.8128 -0.5671
vn 0.0000 0.8057 -0.5923
vn 0.4364 0.8492 0.2972
vn 0.6075 -0.2709 -0.7466
vn 0.0000 -0.3506 -0.9365
vn 0.9392 -0.2644 0.2190
vn 0.9718 -0.0094 -0.2357
vn 0.3813 -0.6986 0.6054
vn 0.0000 -0.9202 -0.3914
vn 0.5961 -0.8017 -0.0440
vn 0.7270 -0.6833 0.0679
vn 0.5243 -0.8259 -0.2072
vn 0.0000 -0.2861 0.9582
vn 0.2369 -0.9715 0.0070
vn 0.0000 -0.8939 -0.4482
vn 0.5934 -0.7288 0.3415
vn 0.8664 -0.4300 0.2537
vn 0.8567 -0.5128 -0.0548
vn 0.5927 -0.7439 -0.3086
vn 0.0000 -0.8907 0.4545
vn 0.5706 -0.8010 0.1811
vn 0.5583 -0.8263 -0.0736
vn 0.0000 -0.9852 0.1715
vn 0.0000 -0.9867 -0.1624
vn 0.6746 0.1607 0.7205
vn 0.6486 -0.1414 -0.7479
vn 0.8068 0.5823 0.0992
vn 0.0000 0.9928 0.1194
vn 0.0000 0.5153 0.8570
vn 0.0000 -0.9535 -0.3013
vn 0.6977 -0.7029 -0.1382
vn 0.2921 0.9354 -0.1991
vn -0.2479 -0.8997 0.3593
vn 0.2921 0.2983 0.9087
vn -0.2479 -0.1419 -0.9583
vn -0.8395 -0.4569 0.2940
vn 0.0553 0.8951 -0.4423
vn -0.0274 0.9257 -0.3772
vn -0.1575 0.9815 0.1085
vn 0.0000 0.9993 0.0377
vn -0.1026 0.9069 0.4085
vn -0.2988 0.8752 -0.3803
vn -0.1332 0.8128 -0.5671
vn -0.4364 0.8492 0.2972
vn -0.6075 -0.2709 -0.7466
vn -0.9392 -0.2644 0.2190
vn -0.4897 0.5239 0.6969
vn -0.9718 -0.0094 -0.2357
vn -0.3813 -0.6986 0.6054
vn -0.5961 -0.8017 -0.0440
vn -0.7270 -0.6833 0.0679
vn -0.5243 -0.8259 -0.2072
vn -0.2369 -0.9715 0.0070
vn -0.5934 -0.7288 0.3415
vn -0.8664 -0.4300 0.2537
vn -0.5927 -0.7439 -0.3086
vn 0.0000 -0.9446 0.3280
vn -0.8567 -0.5128 -0.0548
vn -0.5706 -0.8010 0.1811
vn -0.5583 -0.8263 -0.0736
vn -0.6746 0.1607 0.7205
vn -0.6486 -0.1414 -0.7479
vn -0.6977 -0.7029 -0.1382
vn -0.2921 0.2983 0.9087
vn 0.0000 -0.2776 -0.9607
vn -0.8068 0.5823 0.0992
usemtl MAT-shellbug.001
s 1
f 2/1/1 3/2/2 1/3/3
f 3/4/2 8/5/4 7/6/5
f 8/5/4 5/7/6 7/6/5
f 6/8/7 1/3/3 5/7/6
f 10/9/1 11/10/2 9/11/3
f 11/12/2 16/13/4 15/14/8
f 16/13/4 13/15/6 15/14/8
f 14/16/7 9/11/3 13/15/6
f 18/17/1 19/18/2 17/19/3
f 19/20/2 24/21/4 23/22/5
f 24/21/4 21/23/6 23/22/5
f 22/24/7 17/19/3 21/23/6
f 31/25/9 25/26/10 30/27/11
f 28/28/12 27/29/13 29/30/14
f 62/31/15 60/32/16 64/33/17 66/34/18
f 27/29/13 25/35/10 29/30/14
f 26/36/19 28/28/12 29/30/14
f 25/26/10 26/36/19 29/30/14
f 28/28/12 31/25/9 33/37/20
f 27/29/13 30/38/11 25/35/10
f 27/29/13 33/37/20 32/39/21
f 93/40/22 35/41/23 95/42/24
f 93/40/22 36/43/25 34/44/26
f 36/43/25 99/45/27 37/46/28
f 37/46/28 105/47/29 41/48/30
f 36/49/25 38/50/31 34/51/26
f 95/52/24 39/53/32 102/54/33
f 37/55/28 40/56/34 36/49/25
f 35/57/23 38/50/31 39/53/32
f 102/54/33 43/58/35 108/59/36
f 41/60/30 44/61/37 40/56/34
f 38/50/31 44/61/37 42/62/38
f 39/53/32 42/62/38 43/58/35
f 105/63/29 45/64/39 41/60/30
f 43/58/35 114/65/40 108/59/36
f 45/64/39 48/66/41 44/61/37
f 44/61/37 46/67/42 42/62/38
f 42/62/38 47/68/43 43/58/35
f 111/69/44 49/70/45 45/64/39
f 47/68/43 120/71/46 114/65/40
f 48/66/41 53/72/47 52/73/48
f 46/67/42 52/73/48 50/74/49
f 46/67/42 51/75/50 47/68/43
f 49/70/45 123/76/51 53/72/47
f 50/74/49 55/77/52 54/78/53
f 54/78/53 128/79/54 127/80/55
f 128/79/54 53/72/47 123/76/51
f 52/73/48 53/72/47 55/77/52
f 51/75/50 127/80/55 120/71/46
f 50/74/49 54/78/53 51/75/50
f 58/81/56 57/82/57 56/83/58
f 58/81/56 135/84/59 133/85/60
f 134/86/61 57/82/57 59/87/62
f 62/88/15 61/89/63 60/90/16
f 62/91/15 67/92/64 63/93/65
f 64/94/17 67/92/64 66/95/18
f 60/90/16 65/96/66 64/94/17
f 70/97/15 69/98/63 68/99/16
f 70/100/15 75/101/64 71/102/65
f 72/103/17 75/101/64 74/104/67
f 68/99/16 73/105/66 72/103/17
f 78/106/15 77/107/63 76/108/16
f 78/109/15 83/110/64 79/111/65
f 80/112/17 83/110/64 82/113/18
f 76/108/16 81/114/66 80/112/17
f 84/115/13 90/116/20 89/117/21
f 87/118/19 88/119/14 86/120/10
f 19/121/2 23/122/5 21/123/6 17/124/3
f 86/120/10 88/119/14 84/125/13
f 85/126/12 88/119/14 87/118/19
f 84/115/13 88/119/14 85/126/12
f 87/118/19 90/116/20 85/126/12
f 89/127/21 86/120/10 84/125/13
f 86/120/10 92/128/9 87/118/19
f 93/40/22 96/129/68 94/130/69
f 98/131/70 93/40/22 94/130/69
f 98/131/70 99/45/27 97/132/71
f 100/133/72 105/47/29 99/45/27
f 101/134/73 98/135/70 94/136/69
f 95/52/24 103/137/74 96/138/68
f 104/139/75 100/140/72 98/135/70
f 96/138/68 101/134/73 94/136/69
f 102/54/33 109/141/76 103/137/74
f 110/142/77 106/143/78 104/139/75
f 101/134/73 110/142/77 104/139/75
f 103/137/74 107/144/79 101/134/73
f 112/145/80 105/63/29 106/143/78
f 114/65/40 109/141/76 108/59/36
f 116/146/81 112/145/80 110/142/77
f 113/147/82 110/142/77 107/144/79
f 115/148/83 107/144/79 109/141/76
f 118/149/84 111/69/44 112/145/80
f 120/71/46 115/148/83 114/65/40
f 116/146/81 124/150/85 118/149/84
f 113/147/82 122/151/86 116/146/81
f 121/152/87 113/147/82 115/148/83
f 118/149/84 123/76/51 117/153/88
f 119/154/89 126/155/90 122/151/86
f 125/156/91 128/79/54 126/155/90
f 124/150/85 128/79/54 123/76/51
f 122/151/86 126/155/90 124/150/85
f 121/152/87 127/80/55 125/156/91
f 119/154/89 121/152/87 125/156/91
f 131/157/92 130/158/93 132/159/94
f 135/84/59 131/157/92 133/85/60
f 130/158/93 134/86/61 132/159/94
f 2/1/1 4/160/95 3/2/2
f 3/4/2 4/161/95 8/5/4
f 8/5/4 6/8/7 5/7/6
f 6/8/7 2/1/1 1/3/3
f 10/9/1 12/162/95 11/10/2
f 11/12/2 12/163/95 16/13/4
f 16/13/4 14/16/7 13/15/6
f 14/16/7 10/9/1 9/11/3
f 18/17/1 20/164/95 19/18/2
f 19/20/2 20/165/95 24/21/4
f 24/21/4 22/24/7 21/23/6
f 22/24/7 18/17/1 17/19/3
f 31/25/9 26/36/19 25/26/10
f 11/166/2 15/167/8 13/168/6 9/169/3
f 28/28/12 26/36/19 31/25/9
f 27/29/13 32/39/21 30/38/11
f 27/29/13 28/28/12 33/37/20
f 93/40/22 34/44/26 35/41/23
f 93/40/22 97/132/71 36/43/25
f 36/43/25 97/132/71 99/45/27
f 37/46/28 99/45/27 105/47/29
f 36/49/25 40/56/34 38/50/31
f 95/52/24 35/57/23 39/53/32
f 37/55/28 41/60/30 40/56/34
f 35/57/23 34/51/26 38/50/31
f 102/54/33 39/53/32 43/58/35
f 41/60/30 45/64/39 44/61/37
f 38/50/31 40/56/34 44/61/37
f 39/53/32 38/50/31 42/62/38
f 105/63/29 111/69/44 45/64/39
f 43/58/35 47/68/43 114/65/40
f 45/64/39 49/70/45 48/66/41
f 44/61/37 48/66/41 46/67/42
f 42/62/38 46/67/42 47/68/43
f 111/69/44 117/153/88 49/70/45
f 47/68/43 51/75/50 120/71/46
f 48/66/41 49/70/45 53/72/47
f 46/67/42 48/66/41 52/73/48
f 46/67/42 50/74/49 51/75/50
f 49/70/45 117/153/88 123/76/51
f 50/74/49 52/73/48 55/77/52
f 54/78/53 55/77/52 128/79/54
f 128/79/54 55/77/52 53/72/47
f 51/75/50 54/78/53 127/80/55
f 58/81/56 59/87/62 57/82/57
f 58/81/56 56/83/58 135/84/59
f 136/170/96 130/171/93 57/172/57
f 134/86/61 136/173/96 57/82/57
f 57/172/57 130/171/93 135/174/59
f 62/88/15 63/175/65 61/89/63
f 62/91/15 66/95/18 67/92/64
f 64/94/17 65/96/66 67/92/64
f 60/90/16 61/89/63 65/96/66
f 70/97/15 71/176/65 69/98/63
f 70/100/15 74/104/67 75/101/64
f 72/103/17 73/105/66 75/101/64
f 68/99/16 69/98/63 73/105/66
f 78/106/15 79/177/65 77/107/63
f 78/109/15 82/113/18 83/110/64
f 80/112/17 81/114/66 83/110/64
f 76/108/16 77/107/63 81/114/66
f 84/115/13 85/126/12 90/116/20
f 90/178/20 92/179/9 91/180/11 89/181/21
f 31/182/9 30/183/11 32/184/21 33/185/20
f 78/186/15 76/187/16 80/188/17 82/189/18
f 3/190/2 7/191/5 5/192/6 1/193/3
f 87/118/19 92/128/9 90/116/20
f 89/127/21 91/194/11 86/120/10
f 86/120/10 91/194/11 92/128/9
f 70/195/15 68/196/16 72/197/17 74/198/67
f 93/40/22 95/42/24 96/129/68
f 98/131/70 97/132/71 93/40/22
f 98/131/70 100/133/72 99/45/27
f 100/133/72 106/199/78 105/47/29
f 101/134/73 104/139/75 98/135/70
f 95/52/24 102/54/33 103/137/74
f 104/139/75 106/143/78 100/140/72
f 96/138/68 103/137/74 101/134/73
f 102/54/33 108/59/36 109/141/76
f 110/142/77 112/145/80 106/143/78
f 101/134/73 107/144/79 110/142/77
f 103/137/74 109/141/76 107/144/79
f 112/145/80 111/69/44 105/63/29
f 114/65/40 115/148/83 109/141/76
f 116/146/81 118/149/84 112/145/80
f 113/147/82 116/146/81 110/142/77
f 115/148/83 113/147/82 107/144/79
f 118/149/84 117/153/88 111/69/44
f 120/71/46 121/152/87 115/148/83
f 116/146/81 122/151/86 124/150/85
f 113/147/82 119/154/89 122/151/86
f 121/152/87 119/154/89 113/147/82
f 118/149/84 124/150/85 123/76/51
f 119/154/89 125/156/91 126/155/90
f 125/156/91 127/80/55 128/79/54
f 124/150/85 126/155/90 128/79/54
f 121/152/87 120/71/46 127/80/55
f 131/157/92 129/200/97 130/158/93
f 135/84/59 129/200/97 131/157/92
f 56/201/58 57/172/57 135/174/59
f 130/158/93 136/173/96 134/86/61
f 130/171/93 129/202/97 135/174/59
