# Blender v2.79 (sub 0) OBJ File: ''
# www.blender.org
mtllib cave_001_wall_tx.mtl
o Cube.004_Cube.008
v 0.149456 2.429665 0.166667
v 0.500000 2.482176 0.074729
v 0.074728 2.482176 0.166667
v 0.186951 2.281812 -0.166666
v 0.500001 2.429665 -0.149455
v 0.500001 2.281812 -0.186950
v 0.500000 2.429665 0.149456
v 0.500000 2.281812 0.186951
v 0.186950 2.281812 0.166667
v 0.500000 0.097205 0.427716
v 0.500000 -0.000000 0.500000
v 0.500000 0.000000 -0.500000
v 0.322878 0.097205 -0.330525
v 0.500000 0.097205 -0.453021
v 0.500000 0.539694 0.200852
v 0.195607 0.433036 0.166667
v 0.500000 0.412927 0.195607
v 0.500000 0.673389 0.171108
v 0.200852 0.539694 0.166667
v 0.198412 0.833333 0.166667
v 0.171107 0.673389 0.166667
v 0.500000 1.041667 0.125000
v 0.500000 0.833333 0.198412
v 0.500000 1.175362 0.125000
v 0.125000 1.041667 0.166667
v 0.198411 1.458333 0.166667
v 0.125000 1.175362 0.166667
v 0.500000 1.666667 0.171108
v 0.500000 1.458333 0.198412
v 0.500000 1.800362 0.103992
v 0.171107 1.666667 0.166667
v 0.159315 2.091488 0.166667
v 0.103992 1.800362 0.166667
v 0.500000 2.091488 0.159316
v 0.500000 0.263596 -0.292322
v 0.500000 0.263596 0.292322
v 0.500000 0.433036 -0.195607
v 0.500000 0.673389 -0.171107
v 0.500000 0.539694 -0.200852
v 0.500000 0.833333 -0.198411
v 0.500000 1.175362 -0.125000
v 0.500000 1.041667 -0.125000
v 0.500000 1.458333 -0.198411
v 0.500000 1.666667 -0.171107
v 0.500000 2.091488 -0.159315
v 0.500000 1.800362 -0.103992
v 0.200852 0.539694 -0.166667
v 0.195607 0.433036 -0.166667
v 0.198412 0.833333 -0.166666
v 0.171107 0.673389 -0.166667
v 0.125000 1.175362 -0.166666
v 0.125000 1.041667 -0.166666
v 0.198412 1.458333 -0.166666
v 0.215714 1.800362 -0.166666
v 0.193032 1.666667 -0.166666
v 0.159316 2.091488 -0.166666
v 0.070986 2.499249 -0.000001
v 0.500000 2.482176 -0.074727
v 0.074728 2.482176 -0.166666
v 0.149456 2.429665 -0.166666
v 0.500000 2.500000 0.000001
v 0.396584 0.198110 0.353598
v 0.292434 0.263596 -0.249586
v 0.300000 0.263596 0.224184
v 0.000000 2.500000 0.000000
v -0.074728 2.482176 -0.166667
v -0.083110 2.500000 0.000001
v 0.000000 2.500000 -0.166666
v 0.000000 2.500000 0.166667
v -0.074728 2.482176 0.166667
v -0.149456 2.429665 0.500000
v -0.074729 2.482176 0.500000
v 0.186950 2.281812 0.500001
v -0.186951 2.281812 0.500000
v -0.149456 2.429665 -0.166667
v -0.186951 2.281812 -0.500000
v -0.186951 2.281812 -0.166667
v 0.292322 0.263596 -0.500000
v -0.195606 0.412927 -0.500000
v 0.195607 0.433036 -0.500000
v -0.474011 0.097205 -0.453020
v -0.453020 0.097205 -0.500000
v 0.453020 0.097205 0.500000
v 0.186951 2.281812 -0.500000
v -0.074728 2.482176 -0.500000
v 0.074728 2.482176 -0.500000
v 0.159316 2.091488 -0.500000
v 0.103992 1.800362 -0.500000
v -0.159315 2.091488 -0.500000
v -0.171107 1.666667 -0.500000
v -0.103992 1.800362 -0.500000
v 0.171108 1.666667 -0.500000
v -0.198411 1.458333 -0.500000
v 0.125000 1.175362 -0.500000
v 0.198412 1.458333 -0.500000
v 0.125000 1.041667 -0.500000
v -0.125000 1.175362 -0.500000
v -0.198411 0.833333 -0.500000
v -0.125000 1.041667 -0.500000
v 0.171108 0.673389 -0.500000
v 0.198412 0.833333 -0.500000
v 0.200852 0.539694 -0.500000
v -0.171107 0.673389 -0.500000
v -0.200852 0.539694 -0.500000
v -0.195607 0.412927 -0.166667
v -0.200852 0.539694 -0.166667
v -0.198411 0.833333 -0.166667
v -0.171107 0.673389 -0.166667
v -0.125000 1.041667 -0.166667
v -0.125000 1.175362 -0.166667
v -0.198412 1.458333 -0.166667
v -0.103992 1.800362 -0.166667
v -0.171107 1.666667 -0.166667
v -0.159316 2.091488 -0.166667
v 0.292322 0.263596 0.500000
v -0.195607 0.412927 0.500000
v -0.292322 0.263596 0.500000
v 0.195607 0.433036 0.500000
v -0.200852 0.539694 0.500000
v 0.171107 0.673389 0.500000
v 0.200852 0.539694 0.500000
v 0.198411 0.833333 0.500000
v -0.171108 0.673389 0.500000
v -0.125000 1.041667 0.500000
v -0.198412 0.833333 0.500000
v 0.125000 1.175362 0.500000
v 0.125000 1.041667 0.500000
v 0.198411 1.458333 0.500000
v -0.125000 1.175362 0.500000
v -0.171108 1.666667 0.500000
v -0.198412 1.458333 0.500000
v 0.171107 1.666667 0.500000
v -0.103992 1.800362 0.500000
v 0.159315 2.091488 0.500000
v 0.103992 1.800362 0.500000
v -0.159316 2.091488 0.500000
v -0.000001 2.500000 0.500000
v 0.074727 2.482176 0.500000
v 0.149455 2.429665 0.500001
v -0.292321 0.263596 -0.500000
v -0.292322 0.263596 -0.263359
v -0.453021 0.097205 0.500000
v 0.453020 0.097205 -0.500000
v -0.292322 0.263596 0.166666
v -0.416290 0.097205 0.402645
v 0.000001 2.500000 -0.500000
v 0.149457 2.429665 -0.499999
v -0.159316 2.091488 0.166666
v -0.103992 1.800362 0.166666
v -0.171108 1.666667 0.166666
v -0.198412 1.458333 0.166666
v -0.125000 1.175362 0.166666
v -0.125000 1.041667 0.166666
v -0.198412 0.833333 0.166666
v -0.171107 0.673389 0.166666
v -0.200852 0.539694 0.166666
v -0.195607 0.412927 0.166666
v -0.500000 -0.000000 0.500000
v -0.186951 2.281812 0.166666
v -0.149456 2.429665 0.166666
v -0.149456 2.429665 -0.500000
v -0.500000 2.482176 -0.074728
v -0.500001 2.429665 0.149455
v -0.500001 2.281812 0.186950
v -0.500000 2.429665 -0.149456
v -0.500000 2.281812 -0.186951
v -0.500000 0.000000 -0.500000
v -0.500000 0.097205 -0.453021
v -0.500000 0.097205 0.453021
v -0.500000 0.412927 -0.195607
v -0.500000 0.673389 -0.171108
v -0.500000 0.539694 -0.200852
v -0.500000 1.041667 -0.125000
v -0.500000 0.833333 -0.198412
v -0.500000 1.175362 -0.125000
v -0.500000 1.666667 -0.171108
v -0.500000 1.458333 -0.198412
v -0.500000 1.800362 -0.103992
v -0.500000 2.091488 -0.159316
v -0.500000 0.263596 0.292322
v -0.500000 0.263596 -0.292322
v -0.500000 0.433036 0.195607
v -0.500000 0.673389 0.171107
v -0.500000 0.539694 0.200852
v -0.500000 0.833333 0.198411
v -0.500000 1.175362 0.125000
v -0.500000 1.041667 0.125000
v -0.500000 1.458333 0.198411
v -0.500000 1.666667 0.171107
v -0.500000 2.091488 0.159315
v -0.500000 1.800362 0.103992
v -0.500000 2.482176 0.074727
v -0.500000 2.500000 -0.000001
vt 0.000162 0.647103
vt 0.249838 0.669907
vt 0.000162 0.669906
vt 0.499838 0.608294
vt 0.250162 0.646378
vt 0.250162 0.608294
vt 0.249838 0.647103
vt 0.000162 0.609019
vt 0.249838 0.609019
vt 0.750162 0.000162
vt 0.416613 0.027118
vt 0.250162 0.027118
vt 0.249838 0.160972
vt 0.000162 0.129295
vt 0.249838 0.129294
vt 0.249838 0.195169
vt 0.000162 0.160972
vt 0.000162 0.235681
vt 0.000162 0.195169
vt 0.249838 0.290831
vt 0.249838 0.235681
vt 0.249838 0.324212
vt 0.000162 0.290831
vt 0.000162 0.397202
vt 0.000162 0.324212
vt 0.249838 0.449663
vt 0.249838 0.397202
vt 0.249838 0.487013
vt 0.000162 0.449663
vt 0.000162 0.561001
vt 0.000162 0.487013
vt 0.249838 0.561001
vt 0.499838 0.160247
vt 0.250162 0.133585
vt 0.499838 0.133585
vt 0.250162 0.194444
vt 0.250162 0.160247
vt 0.499838 0.234955
vt 0.499838 0.194444
vt 0.250162 0.290106
vt 0.250162 0.234956
vt 0.499838 0.323487
vt 0.499838 0.290106
vt 0.499838 0.396477
vt 0.250162 0.323487
vt 0.250162 0.448938
vt 0.250162 0.396477
vt 0.499838 0.486288
vt 0.499838 0.448938
vt 0.250162 0.560276
vt 0.250162 0.486288
vt 0.499838 0.560276
vt 0.499838 0.688363
vt 0.250162 0.669181
vt 0.499838 0.669182
vt 0.499838 0.646378
vt 0.000162 0.689088
vt 0.249838 0.689088
vt 0.249838 0.084873
vt 0.000162 0.027118
vt 0.249838 0.027118
vt 0.499838 0.084873
vt 0.250162 0.084873
vt 0.499838 0.027117
vt 0.000162 0.084874
vt 0.125000 0.689088
vt 0.083387 0.669906
vt 0.000162 0.689088
vt 0.083387 0.689088
vt 0.333387 0.688363
vt 0.333387 0.669181
vt 0.499838 0.669182
vt 0.166613 0.689088
vt 0.000162 0.000162
vt 0.250162 0.688363
vt 0.416613 0.669181
vt 0.499838 0.688363
vt 0.166613 0.669907
vt 0.249838 0.647103
vt 0.249838 0.669907
vt 0.333387 0.646378
vt 0.250162 0.608294
vt 0.333387 0.608294
vt 0.083387 0.647103
vt 0.000162 0.609019
vt 0.083387 0.609019
vt 0.083387 0.027118
vt 0.000162 0.027118
vt 0.083387 0.000162
vt 0.333387 0.027118
vt 0.250162 0.027118
vt 0.333387 0.000162
vt 0.083387 0.129294
vt 0.000162 0.160972
vt 0.000162 0.129295
vt 0.083387 0.160972
vt 0.000162 0.195169
vt 0.083387 0.235681
vt 0.083387 0.195169
vt 0.083387 0.290831
vt 0.000162 0.235681
vt 0.000162 0.324212
vt 0.000162 0.290831
vt 0.083387 0.324212
vt 0.000162 0.397202
vt 0.083387 0.397202
vt 0.000162 0.449663
vt 0.083387 0.487013
vt 0.083387 0.449663
vt 0.083387 0.561001
vt 0.000162 0.487013
vt 0.000162 0.561001
vt 0.333388 0.160247
vt 0.250162 0.133585
vt 0.333387 0.133585
vt 0.333388 0.194444
vt 0.250162 0.160247
vt 0.333388 0.234956
vt 0.250162 0.194444
vt 0.333388 0.290106
vt 0.250162 0.234956
vt 0.333388 0.323487
vt 0.250162 0.290106
vt 0.250162 0.396477
vt 0.250162 0.323487
vt 0.333388 0.448938
vt 0.333388 0.396477
vt 0.333388 0.486288
vt 0.250162 0.448938
vt 0.333388 0.560276
vt 0.250162 0.486288
vt 0.250162 0.560276
vt 0.250162 0.688363
vt 0.250162 0.669181
vt 0.250162 0.646378
vt 0.249838 0.689088
vt 0.000162 0.084874
vt 0.083387 0.084874
vt 0.333387 0.084873
vt 0.250162 0.084873
vt 0.249838 0.129294
vt 0.166613 0.084873
vt 0.249838 0.084873
vt 0.499838 0.084873
vt 0.499838 0.027117
vt 0.499838 0.133585
vt 0.416613 0.084873
vt 0.166613 0.027118
vt 0.249838 0.027118
vt 0.000162 0.689088
vt 0.499838 0.669182
vt 0.416613 0.646378
vt 0.499838 0.646378
vt 0.416613 0.688363
vt 0.499838 0.608294
vt 0.416613 0.560276
vt 0.499838 0.560276
vt 0.499838 0.486288
vt 0.416613 0.486288
vt 0.499838 0.448938
vt 0.416613 0.448938
vt 0.499838 0.396477
vt 0.416613 0.396477
vt 0.499838 0.323487
vt 0.416613 0.323487
vt 0.416613 0.290106
vt 0.499838 0.290106
vt 0.416613 0.234956
vt 0.499838 0.234955
vt 0.416613 0.194444
vt 0.499838 0.194444
vt 0.416613 0.160247
vt 0.499838 0.160247
vt 0.416613 0.133585
vt 0.249838 0.609019
vt 0.166613 0.561001
vt 0.249838 0.561001
vt 0.166613 0.487013
vt 0.249838 0.487013
vt 0.166613 0.449663
vt 0.249838 0.449663
vt 0.166613 0.397202
vt 0.249838 0.397202
vt 0.166613 0.324212
vt 0.249838 0.324212
vt 0.166613 0.290831
vt 0.249838 0.290831
vt 0.166613 0.235681
vt 0.249838 0.235681
vt 0.166613 0.195169
vt 0.249838 0.195169
vt 0.166613 0.160972
vt 0.249838 0.160972
vt 0.166613 0.129294
vt 0.166613 0.609019
vt 0.416613 0.608294
vt 0.000162 0.669906
vt 0.166613 0.647103
vt 0.000162 0.647103
vt 0.499838 0.688363
vt 0.166613 0.000162
vt 0.000162 0.647103
vt 0.249838 0.669907
vt 0.000162 0.669906
vt 0.499838 0.608294
vt 0.250162 0.646378
vt 0.250162 0.608294
vt 0.249838 0.647103
vt 0.000162 0.609019
vt 0.249838 0.609019
vt 0.000162 0.027118
vt 0.249838 0.000162
vt 0.249838 0.027118
vt 0.499838 0.027117
vt 0.250162 0.027118
vt 0.499838 0.000162
vt 0.249838 0.129294
vt 0.000162 0.160972
vt 0.000162 0.129295
vt 0.249838 0.195169
vt 0.249838 0.160972
vt 0.000162 0.235681
vt 0.000162 0.195169
vt 0.249838 0.290831
vt 0.249838 0.235681
vt 0.249838 0.324212
vt 0.000162 0.290831
vt 0.000162 0.397202
vt 0.000162 0.324212
vt 0.249838 0.449663
vt 0.249838 0.397202
vt 0.249838 0.487013
vt 0.000162 0.449663
vt 0.000162 0.561001
vt 0.000162 0.487013
vt 0.249838 0.561001
vt 0.499838 0.160247
vt 0.250162 0.133585
vt 0.499838 0.133585
vt 0.250162 0.194444
vt 0.250162 0.160247
vt 0.499838 0.234955
vt 0.499838 0.194444
vt 0.250162 0.290106
vt 0.250162 0.234956
vt 0.499838 0.323487
vt 0.499838 0.290106
vt 0.499838 0.396477
vt 0.250162 0.323487
vt 0.250162 0.448938
vt 0.250162 0.396477
vt 0.499838 0.448938
vt 0.250162 0.486288
vt 0.499838 0.560276
vt 0.499838 0.486288
vt 0.250162 0.560276
vt 0.250162 0.669181
vt 0.499838 0.646378
vt 0.249838 0.689088
vt 0.249838 0.084873
vt 0.499838 0.084873
vt 0.250162 0.084873
vt 0.000162 0.084874
vt 0.250162 0.688363
vn 0.2024 0.2880 0.9360
vn -0.0627 0.2453 -0.9674
vn -0.0627 0.2453 0.9674
vn -0.5286 0.3694 -0.7643
vn -0.0973 -0.0411 0.9944
vn -0.1109 0.2158 0.9701
vn -0.0135 -0.0028 0.9999
vn -0.0135 0.0023 0.9999
vn -0.0135 -0.0003 0.9999
vn -0.0988 0.3307 0.9385
vn 0.1104 0.0000 0.9939
vn 0.1104 -0.0286 0.9935
vn -0.1038 0.1292 0.9862
vn -0.0121 0.4486 0.8936
vn 0.1563 -0.0297 0.9873
vn 0.0216 -0.0031 0.9998
vn -0.0946 0.0047 -0.9955
vn -0.1109 0.2158 -0.9701
vn -0.0135 0.0023 -0.9999
vn -0.0135 -0.0028 -0.9999
vn -0.0135 -0.0003 -0.9999
vn -0.0988 0.3307 -0.9385
vn 0.1104 0.0000 -0.9939
vn 0.1104 -0.0286 -0.9935
vn -0.1038 0.1292 -0.9862
vn -0.0145 0.0025 -0.9999
vn -0.0147 0.0023 -0.9999
vn -0.0145 0.0010 -0.9999
vn 0.2117 -0.1825 -0.9602
vn 0.0216 -0.0031 -0.9998
vn 0.0217 -0.0025 -0.9998
vn 0.0216 0.0005 -0.9998
vn 0.0219 0.9946 -0.1014
vn 0.0282 0.8179 -0.5747
vn -0.0017 0.9727 0.2320
vn 0.0598 0.6300 0.7743
vn -0.1760 0.4880 -0.8549
vn -0.1846 0.4024 -0.8967
vn -0.2749 0.5227 0.8070
vn -0.0000 0.9943 -0.1063
vn 0.0106 0.9999 0.0000
vn 0.2310 0.9684 0.0940
vn -0.2320 0.9727 0.0000
vn 0.0282 0.8179 0.5747
vn 0.0490 0.0124 -0.9987
vn 0.0490 0.0124 0.9987
vn 0.0071 0.5967 0.8024
vn -0.1135 0.0056 0.9935
vn -0.0135 -0.0030 0.9999
vn -0.1032 -0.1674 0.9805
vn 0.1103 0.0389 0.9931
vn -0.1014 -0.2498 0.9630
vn -0.0135 -0.0018 0.9999
vn 0.1558 0.0782 0.9847
vn 0.0212 -0.1867 0.9822
vn -0.0640 -0.1434 0.9876
vn -0.1134 -0.0488 -0.9924
vn -0.0135 -0.0030 -0.9999
vn -0.1032 -0.1674 -0.9805
vn 0.1103 0.0389 -0.9931
vn -0.1014 -0.2498 -0.9630
vn -0.0145 -0.0004 -0.9999
vn 0.1933 0.4402 -0.8769
vn 0.0216 0.0042 -0.9998
vn -0.0640 -0.1434 -0.9876
vn -0.0017 0.9727 -0.2320
vn 0.2024 0.2880 -0.9360
vn 0.0219 0.9946 0.1014
vn -0.1879 0.8127 0.5515
vn -0.0869 0.3974 -0.9135
vn -0.4454 0.6220 -0.6440
vn -0.0725 0.2803 0.9572
vn 0.2310 0.9684 -0.0940
vn 0.0000 0.9943 0.1063
vn -0.5749 0.8182 -0.0000
vn 0.9693 0.2458 0.0000
vn -0.9693 0.2458 0.0000
vn -0.8353 0.4037 -0.3732
vn 0.8994 0.4347 -0.0471
vn -0.9991 -0.0413 -0.0000
vn -0.9761 0.2172 0.0000
vn -0.9857 -0.1683 0.0000
vn -0.9432 0.3323 0.0000
vn -1.0000 0.0000 0.0000
vn -0.9680 -0.2511 -0.0000
vn -0.9915 0.1300 -0.0000
vn -0.9915 0.1299 -0.0000
vn -0.8937 0.4486 0.0000
vn -0.9824 -0.1867 -0.0000
vn -0.9896 -0.1437 -0.0000
vn 0.9988 -0.0491 0.0000
vn 0.9761 0.2172 0.0000
vn 0.9857 -0.1683 0.0000
vn 0.9432 0.3323 0.0000
vn 1.0000 0.0000 0.0000
vn 0.9680 -0.2511 0.0000
vn 0.9915 0.1299 0.0000
vn 0.8937 0.4486 0.0000
vn 0.9824 -0.1867 0.0000
vn 0.9896 -0.1437 0.0000
vn 0.2320 0.9727 0.0000
vn 0.5749 0.8182 0.0000
vn -0.6754 0.7375 -0.0000
vn 0.8682 0.4956 0.0242
vn 0.5471 0.8370 0.0152
vn -0.8393 0.5436 -0.0000
vn 0.6296 0.6081 0.4835
vn 0.8684 0.4959 -0.0002
vn 0.8683 0.4960 -0.0001
vn 0.8685 0.4957 -0.0004
vn -0.6942 0.6704 -0.2619
vn 0.9326 0.1807 -0.3126
vn 0.9838 -0.1669 -0.0647
vn 0.9997 0.0258 0.0000
vn 0.7406 0.3579 0.5687
vn -0.6848 0.6614 -0.3060
vn 0.8514 0.5245 0.0000
vn 0.7051 0.6810 0.1976
vn 0.9836 0.1802 -0.0004
vn 0.8682 0.4962 0.0000
vn -0.8019 0.5975 0.0000
vn 0.8561 0.4298 -0.2869
vn 0.9894 0.1297 -0.0651
vn -0.8525 0.4120 -0.3216
vn -0.2024 0.2880 -0.9360
vn 0.0627 0.2453 0.9674
vn 0.0627 0.2453 -0.9674
vn 0.0000 0.4351 -0.9004
vn 0.4764 0.3826 0.7916
vn 0.0946 0.0039 -0.9955
vn 0.1109 0.2158 -0.9701
vn 0.0135 -0.0028 -0.9999
vn 0.0135 0.0023 -0.9999
vn 0.0135 -0.0003 -0.9999
vn 0.0988 0.3307 -0.9385
vn -0.1104 0.0000 -0.9939
vn -0.1104 -0.0286 -0.9935
vn 0.1038 0.1292 -0.9862
vn 0.0121 0.4486 -0.8936
vn -0.1563 -0.0297 -0.9873
vn -0.0216 -0.0031 -0.9998
vn 0.0949 0.0039 0.9955
vn 0.1109 0.2158 0.9701
vn 0.0135 0.0023 0.9999
vn 0.0135 -0.0028 0.9999
vn 0.0135 -0.0003 0.9999
vn 0.0988 0.3307 0.9385
vn -0.1104 0.0000 0.9939
vn -0.1104 -0.0286 0.9935
vn 0.1038 0.1292 0.9862
vn 0.0121 0.4486 0.8936
vn -0.1563 -0.0297 0.9873
vn -0.0216 -0.0031 0.9998
vn -0.0232 0.9939 0.1075
vn -0.0282 0.8179 0.5747
vn 0.0000 0.9727 -0.2320
vn 0.0000 0.6947 -0.7193
vn 0.4652 0.4388 0.7688
vn 0.3976 0.6375 0.6599
vn 0.3986 0.6375 0.6593
vn 0.3988 0.6376 0.6591
vn 0.1163 0.5399 -0.8336
vn -0.0282 0.8179 -0.5747
vn -0.0490 0.0124 0.9987
vn -0.0490 0.0124 -0.9987
vn 0.1134 -0.0411 -0.9927
vn 0.0135 -0.0030 -0.9999
vn 0.1032 -0.1674 -0.9805
vn -0.1103 0.0389 -0.9931
vn 0.1014 -0.2498 -0.9630
vn 0.0135 -0.0018 -0.9999
vn -0.1558 0.0782 -0.9847
vn -0.0212 -0.1867 -0.9822
vn 0.0640 -0.1434 -0.9876
vn 0.1134 -0.0488 0.9923
vn 0.0135 -0.0030 0.9999
vn 0.1032 -0.1674 0.9805
vn -0.1103 0.0389 0.9931
vn 0.1014 -0.2498 0.9630
vn 0.0135 -0.0018 0.9999
vn -0.1558 0.0782 0.9847
vn -0.0212 -0.1866 0.9822
vn 0.0640 -0.1434 0.9876
vn -0.0000 0.9727 0.2320
vn -0.2024 0.2880 0.9360
vn -0.0232 0.9939 -0.1075
vn 0.0987 0.6992 -0.7080
vn 0.0906 -0.0587 0.9942
vn 0.3972 0.6375 0.6601
vn 0.0818 0.5038 -0.8599
usemtl Material.011
s 1
f 1/1/1 2/2/1 3/3/1
f 4/4/2 5/5/2 6/6/2
f 7/7/3 9/8/3 8/9/3
f 12/10/4 13/11/4 14/12/4
f 15/13/5 16/14/5 17/15/5
f 18/16/6 19/17/6 15/13/6
f 18/16/7 20/18/8 21/19/9
f 22/20/10 20/18/10 23/21/10
f 24/22/11 25/23/11 22/20/11
f 24/22/12 26/24/12 27/25/12
f 28/26/13 26/24/13 29/27/13
f 30/28/14 31/29/14 28/26/14
f 30/28/15 32/30/15 33/31/15
f 34/32/16 9/8/16 32/30/16
f 47/33/17 37/34/17 48/35/17
f 47/33/18 38/36/18 39/37/18
f 49/38/19 38/36/20 50/39/21
f 49/38/22 42/40/22 40/41/22
f 51/42/23 42/40/23 52/43/23
f 53/44/24 41/45/24 51/42/24
f 53/44/25 44/46/25 43/47/25
f 54/48/26 44/46/27 55/49/28
f 54/48/29 45/50/29 46/51/29
f 4/4/30 45/50/31 56/52/32
f 57/53/33 58/54/33 59/55/33
f 60/56/34 58/54/34 5/5/34
f 57/57/35 2/2/35 61/58/35
f 36/59/36 62/60/36 10/61/36
f 63/62/37 37/34/37 35/63/37
f 35/63/38 13/64/38 63/62/38
f 17/15/39 64/65/39 36/59/39
f 65/66/40 66/67/40 67/68/40
f 57/53/41 68/69/41 65/66/41
f 57/53/42 69/70/42 3/71/42
f 65/66/43 70/72/43 69/73/43
f 1/1/44 7/7/44 2/2/44
f 4/4/45 60/56/45 5/5/45
f 7/7/46 1/1/46 9/8/46
f 10/61/47 62/60/47 11/74/47
f 15/13/48 19/17/48 16/14/48
f 18/16/7 21/19/9 19/17/49
f 18/16/50 23/21/50 20/18/50
f 22/20/51 25/23/51 20/18/51
f 24/22/11 27/25/11 25/23/11
f 24/22/52 29/27/52 26/24/52
f 28/26/53 31/29/53 26/24/53
f 30/28/54 33/31/54 31/29/54
f 30/28/55 34/32/55 32/30/55
f 34/32/56 8/9/56 9/8/56
f 47/33/57 39/37/57 37/34/57
f 47/33/58 50/39/21 38/36/20
f 49/38/59 40/41/59 38/36/59
f 49/38/60 52/43/60 42/40/60
f 51/42/23 41/45/23 42/40/23
f 53/44/61 43/47/61 41/45/61
f 53/44/62 55/49/28 44/46/27
f 54/48/63 46/51/63 44/46/63
f 54/48/64 56/52/32 45/50/31
f 4/4/65 6/6/65 45/50/65
f 57/53/66 61/75/66 58/54/66
f 60/56/67 59/55/67 58/54/67
f 57/57/68 3/3/68 2/2/68
f 36/59/69 64/65/69 62/60/69
f 63/62/70 48/35/70 37/34/70
f 35/63/71 14/12/71 13/64/71
f 17/15/72 16/14/72 64/65/72
f 65/66/43 68/69/43 66/67/43
f 57/53/73 59/76/73 68/69/73
f 57/53/41 65/66/41 69/70/41
f 65/66/74 67/77/74 70/72/74
usemtl Material.010
f 70/78/75 71/79/75 72/80/75
f 1/81/76 73/82/76 9/83/76
f 75/84/77 76/85/77 77/86/77
f 81/87/78 82/88/78 167/89/78
f 62/90/79 83/91/79 11/92/79
f 105/93/80 104/94/80 79/95/80
f 106/96/81 103/97/81 104/94/81
f 107/98/82 103/97/82 108/99/82
f 109/100/83 98/101/83 107/98/83
f 109/100/84 97/102/84 99/103/84
f 110/104/85 93/105/85 97/102/85
f 111/106/86 90/107/87 93/105/87
f 112/108/88 90/107/88 113/109/88
f 114/110/89 91/111/89 112/108/89
f 114/110/90 76/85/90 89/112/90
f 19/113/91 118/114/91 16/115/91
f 21/116/92 121/117/92 19/113/92
f 20/118/93 120/119/93 21/116/93
f 25/120/94 122/121/94 20/118/94
f 27/122/95 127/123/95 25/120/95
f 27/122/96 128/124/96 126/125/96
f 31/126/97 128/124/97 26/127/97
f 33/128/98 132/129/98 31/126/98
f 32/130/99 135/131/99 33/128/99
f 9/83/100 134/132/100 32/130/100
f 3/71/101 137/133/101 138/134/101
f 1/81/102 138/134/102 139/135/102
f 69/73/43 72/80/43 137/136/43
f 140/137/103 81/87/103 141/138/103
f 64/139/104 118/114/104 115/140/104
f 115/140/105 62/90/105 64/139/105
f 141/138/106 79/95/106 140/137/106
f 116/141/106 144/142/106 117/143/106
f 78/144/107 13/11/107 143/145/107
f 80/146/108 63/147/109 78/144/110
f 117/143/111 145/148/111 142/149/111
f 146/150/43 66/67/43 68/69/43
f 86/151/102 60/152/102 147/153/102
f 86/151/101 68/154/101 59/76/101
f 84/155/100 56/156/100 87/157/100
f 88/158/112 56/156/112 54/159/112
f 92/160/113 54/159/113 55/161/113
f 95/162/114 55/161/114 53/163/114
f 94/164/96 53/163/96 51/165/96
f 94/164/95 52/166/95 96/167/95
f 96/167/94 49/168/94 101/169/94
f 101/169/93 50/170/93 100/171/93
f 100/171/92 47/172/92 102/173/92
f 102/173/91 48/174/91 80/146/91
f 74/175/90 148/176/90 136/177/90
f 136/177/89 149/178/89 133/179/89
f 133/179/88 150/180/88 130/181/88
f 130/181/87 151/182/87 131/183/87
f 131/183/85 152/184/85 129/185/85
f 129/185/84 153/186/84 124/187/84
f 124/187/83 154/188/83 125/189/83
f 125/189/82 155/190/82 123/191/82
f 123/191/81 156/192/81 119/193/81
f 116/141/80 156/192/80 157/194/80
f 143/145/115 13/11/115 12/10/115
f 71/79/77 159/195/77 74/175/77
f 147/153/76 4/196/76 84/155/76
f 85/197/75 75/84/75 66/67/75
f 70/78/75 160/198/75 71/79/75
f 1/81/76 139/135/76 73/82/76
f 75/84/77 161/199/77 76/85/77
f 105/93/80 106/96/80 104/94/80
f 106/96/81 108/99/81 103/97/81
f 107/98/82 98/101/82 103/97/82
f 109/100/83 99/103/83 98/101/83
f 109/100/84 110/104/84 97/102/84
f 110/104/85 111/106/85 93/105/85
f 111/106/86 113/109/86 90/107/87
f 112/108/88 91/111/88 90/107/88
f 114/110/89 89/112/89 91/111/89
f 114/110/90 77/86/90 76/85/90
f 19/113/91 121/117/91 118/114/91
f 21/116/92 120/119/92 121/117/92
f 20/118/93 122/121/93 120/119/93
f 25/120/94 127/123/94 122/121/94
f 27/122/95 126/125/95 127/123/95
f 27/122/96 26/127/96 128/124/96
f 31/126/97 132/129/97 128/124/97
f 33/128/98 135/131/98 132/129/98
f 32/130/99 134/132/99 135/131/99
f 9/83/100 73/82/100 134/132/100
f 3/71/101 69/70/101 137/133/101
f 1/81/102 3/71/102 138/134/102
f 69/73/43 70/78/43 72/80/43
f 140/137/116 82/88/116 81/87/116
f 64/139/117 16/115/117 118/114/117
f 115/140/118 83/91/118 62/90/118
f 141/138/106 105/93/106 79/95/106
f 116/141/106 157/194/106 144/142/106
f 78/144/119 63/147/119 13/11/119
f 80/146/108 48/174/120 63/147/109
f 117/143/121 144/142/121 145/148/121
f 146/150/43 85/197/43 66/67/43
f 86/151/102 59/76/102 60/152/102
f 86/151/101 146/200/101 68/154/101
f 84/155/100 4/196/100 56/156/100
f 88/158/99 87/157/99 56/156/99
f 92/160/122 88/158/122 54/159/122
f 95/162/123 92/160/123 55/161/123
f 94/164/96 95/162/96 53/163/96
f 94/164/95 51/165/95 52/166/95
f 96/167/94 52/166/94 49/168/94
f 101/169/93 49/168/93 50/170/93
f 100/171/92 50/170/92 47/172/92
f 102/173/91 47/172/91 48/174/91
f 74/175/90 159/195/90 148/176/90
f 136/177/89 148/176/89 149/178/89
f 133/179/88 149/178/88 150/180/88
f 130/181/87 150/180/87 151/182/87
f 131/183/85 151/182/85 152/184/85
f 129/185/84 152/184/84 153/186/84
f 124/187/83 153/186/83 154/188/83
f 125/189/82 154/188/82 155/190/82
f 123/191/81 155/190/81 156/192/81
f 116/141/80 119/193/80 156/192/80
f 142/149/124 145/148/124 158/201/124
f 71/79/77 160/198/77 159/195/77
f 147/153/76 60/152/76 4/196/76
f 85/197/75 161/199/75 75/84/75
usemtl Material.009
f 75/202/125 162/203/125 66/204/125
f 159/205/126 163/206/126 164/207/126
f 165/208/127 77/209/127 166/210/127
f 81/211/128 167/212/128 168/213/128
f 145/214/129 169/215/129 158/216/129
f 170/217/130 106/218/130 105/219/130
f 171/220/131 106/218/131 172/221/131
f 171/220/132 107/222/133 108/223/134
f 173/224/135 107/222/135 174/225/135
f 175/226/136 109/227/136 173/224/136
f 175/226/137 111/228/137 110/229/137
f 176/230/138 111/228/138 177/231/138
f 178/232/139 113/233/139 176/230/139
f 178/232/140 114/234/140 112/235/140
f 179/236/141 77/209/141 114/234/141
f 156/237/142 182/238/142 157/239/142
f 156/237/143 183/240/143 184/241/143
f 154/242/144 183/240/145 155/243/146
f 154/242/147 187/244/147 185/245/147
f 152/246/148 187/244/148 153/247/148
f 151/248/149 186/249/149 152/246/149
f 151/248/150 189/250/150 188/251/150
f 150/252/151 191/253/151 189/250/151
f 148/254/152 191/253/152 149/255/152
f 159/205/153 190/256/153 148/254/153
f 67/77/154 192/257/154 70/72/154
f 160/258/155 192/257/155 163/206/155
f 67/68/156 162/203/156 193/259/156
f 181/260/157 81/211/157 168/213/157
f 144/261/158 182/238/158 180/262/158
f 180/262/159 145/214/160 144/261/161
f 170/217/162 141/263/162 181/260/162
f 75/202/163 165/208/163 162/203/163
f 159/205/164 160/258/164 163/206/164
f 165/208/165 75/202/165 77/209/165
f 170/217/166 172/221/166 106/218/166
f 171/220/132 108/223/134 106/218/167
f 171/220/168 174/225/168 107/222/168
f 173/224/169 109/227/169 107/222/169
f 175/226/136 110/229/136 109/227/136
f 175/226/170 177/231/170 111/228/170
f 176/230/171 113/233/171 111/228/171
f 178/232/172 112/235/172 113/233/172
f 178/232/173 179/236/173 114/234/173
f 179/236/174 166/210/174 77/209/174
f 156/237/175 184/241/175 182/238/175
f 156/237/176 155/243/146 183/240/145
f 154/242/177 185/245/177 183/240/177
f 154/242/178 153/247/178 187/244/178
f 152/246/148 186/249/148 187/244/148
f 151/248/179 188/251/179 186/249/179
f 151/248/180 150/252/180 189/250/180
f 150/252/181 149/255/181 191/253/181
f 148/254/182 190/256/182 191/253/182
f 159/205/183 164/207/183 190/256/183
f 67/77/184 193/264/184 192/257/184
f 160/258/185 70/72/185 192/257/185
f 67/68/186 66/204/186 162/203/186
f 181/260/187 141/263/187 81/211/187
f 144/261/188 157/239/188 182/238/188
f 180/262/159 169/215/189 145/214/160
f 170/217/190 105/219/190 141/263/190
