# Blender v2.79 (sub 0) OBJ File: ''
# www.blender.org
mtllib cave_001_wall_wt.mtl
o Cube.008_Cube.004
v -0.314141 3.010381 0.211556
v -0.500000 3.000000 0.500000
v -0.250000 3.100000 0.500000
v 0.500000 3.040000 0.000000
v 0.162958 2.970139 -0.038116
v 0.200478 3.026492 0.224171
v 0.240066 2.984153 -0.307609
v 0.500000 3.000000 -0.500000
v 0.250000 3.100000 -0.500000
v -0.083629 2.999273 -0.051015
v -0.041318 2.992827 0.197049
v -0.020285 3.014961 -0.295645
v 0.000000 3.040000 -0.500000
v -0.370875 3.020670 -0.010251
v -0.306979 3.058558 -0.258656
v -0.250000 3.100000 -0.500000
v 0.000000 3.040000 0.500000
v 0.500000 3.100000 0.250000
v 0.250000 3.100000 0.500000
v 0.500000 3.000000 0.500000
v -0.500000 3.100000 0.250000
v 0.500000 3.100000 -0.250000
v -0.500000 3.000000 -0.500000
v -0.500000 3.100000 -0.250000
v -0.500000 3.040000 0.000000
vt 0.070011 0.928103
vt 0.000902 0.969415
vt 0.000196 0.908644
vt 0.123346 0.738643
vt 0.132528 0.817250
vt 0.071210 0.806429
vt 0.195892 0.799394
vt 0.242039 0.739340
vt 0.248673 0.800343
vt 0.134316 0.874959
vt 0.076621 0.863230
vt 0.191963 0.861472
vt 0.239442 0.858174
vt 0.123031 0.942193
vt 0.183399 0.930328
vt 0.240439 0.916561
vt 0.006112 0.850049
vt 0.064970 0.735885
vt 0.006486 0.791333
vt 0.003875 0.730012
vt 0.061684 0.977086
vt 0.181262 0.732979
vt 0.239666 0.977086
vt 0.178858 0.976288
vt 0.120336 0.972244
vn -0.3638 0.9094 -0.2017
vn -0.1798 0.9667 -0.1820
vn -0.2022 0.9793 -0.0069
vn 0.3215 0.8038 0.5006
vn 0.1170 0.9931 0.0058
vn 0.1125 0.9893 0.0925
vn 0.1121 0.9894 0.0925
vn 0.1165 0.9892 0.0892
vn 0.1225 0.9836 0.1327
vn 0.0780 0.9966 0.0263
vn 0.0978 0.9798 0.1746
vn 0.1731 0.9631 0.2062
vn 0.0450 0.9511 -0.3055
vn -0.1216 0.9832 -0.1365
vn -0.2150 0.9523 -0.2165
vn -0.2137 0.9503 -0.2266
vn -0.2152 0.9526 -0.2152
vn 0.3482 0.8704 0.3482
vn -0.2281 0.9502 -0.2123
vn 0.2296 0.9565 -0.1802
vn 0.4645 0.8222 0.3289
vn 0.2310 0.9627 0.1409
vn 0.1627 0.9811 0.1051
vn 0.0650 0.9978 0.0148
vn -0.2024 0.8435 0.4975
vn 0.1210 0.9889 0.0860
vn -0.1140 0.9745 -0.1931
vn -0.3147 0.8813 -0.3525
vn -0.4365 0.8749 0.2100
vn -0.2135 0.9500 -0.2280
vn -0.3704 0.9261 0.0716
vn 0.2142 0.9559 0.2009
vn 0.1487 0.9889 0.0078
vn 0.1797 0.9134 -0.3653
vn 0.1619 0.9596 0.2303
vn 0.3877 0.8963 -0.2151
usemtl None.005
s 1
f 1/1/1 2/2/1 3/3/1
f 4/4/2 5/5/2 6/6/2
f 7/7/3 5/5/3 4/4/3
f 8/8/4 9/9/4 7/7/4
f 5/5/5 10/10/5 11/11/5
f 12/12/6 10/10/7 5/5/8
f 13/13/9 12/12/9 7/7/9
f 10/10/10 14/14/10 1/1/10
f 15/15/11 14/14/11 10/10/11
f 16/16/12 15/15/12 12/12/12
f 11/11/13 1/1/13 3/3/13
f 6/6/14 11/11/14 17/17/14
f 18/18/15 6/6/16 19/19/17
f 18/18/18 19/19/18 20/20/18
f 6/6/19 17/17/19 19/19/19
f 11/11/20 3/3/20 17/17/20
f 1/1/21 21/21/21 2/2/21
f 16/16/22 12/12/22 13/13/22
f 15/15/23 10/10/23 12/12/23
f 10/10/24 1/1/24 11/11/24
f 13/13/25 7/7/25 9/9/25
f 12/12/6 5/5/8 7/7/26
f 5/5/27 11/11/27 6/6/27
f 8/8/28 7/7/28 22/22/28
f 7/7/29 4/4/29 22/22/29
f 4/4/30 6/6/16 18/18/15
f 23/23/31 15/15/31 16/16/31
f 24/24/32 14/14/32 15/15/32
f 25/25/33 1/1/33 14/14/33
f 23/23/34 24/24/34 15/15/34
f 24/24/35 25/25/35 14/14/35
f 25/25/36 21/21/36 1/1/36
