# Blender v2.79 (sub 0) OBJ File: ''
# www.blender.org
mtllib cave_001_wall_tl.mtl
o Cube.019_Cube.000
v 0.149456 2.429665 0.500000
v 0.074729 2.482176 0.400000
v 0.074728 2.482176 0.500000
v -0.149456 2.429665 0.499999
v -0.186950 2.281812 0.399999
v -0.186951 2.281812 0.500000
v -0.149456 2.429665 -0.500000
v -0.149455 2.429665 0.399999
v 0.149456 2.429665 0.400000
v 0.186951 2.281812 0.500000
v 0.186951 2.281812 0.400000
v -0.292322 0.263596 0.500000
v 0.195607 0.412927 0.500000
v -0.195607 0.433036 0.500000
v 0.453021 0.097205 0.400000
v 0.500000 -0.000000 0.500000
v 0.500000 -0.000000 0.400000
v -0.453020 0.097205 0.400000
v -0.500000 -0.000000 0.500000
v -0.453020 0.097205 0.500000
v -0.074728 2.482176 0.500000
v -0.159316 2.091488 0.500000
v -0.103992 1.800362 0.500000
v 0.159315 2.091488 0.500000
v 0.171107 1.666667 0.500000
v 0.103992 1.800362 0.500000
v -0.171108 1.666667 0.500000
v 0.198411 1.458333 0.500000
v -0.125000 1.175362 0.500000
v -0.198412 1.458333 0.500000
v -0.125000 1.041667 0.500000
v 0.125000 1.175362 0.500000
v 0.198411 0.833333 0.500000
v 0.125000 1.041667 0.500000
v -0.171108 0.673389 0.500000
v -0.198412 0.833333 0.500000
v -0.200852 0.539694 0.500000
v 0.171107 0.673389 0.500000
v 0.200852 0.539694 0.500000
v 0.195607 0.412927 0.400000
v 0.171108 0.673389 0.400000
v 0.200852 0.539694 0.400000
v 0.125000 1.041667 0.400000
v 0.198412 0.833333 0.400000
v 0.125000 1.175362 0.400000
v 0.171108 1.666667 0.400000
v 0.198412 1.458333 0.400000
v 0.103992 1.800362 0.400000
v 0.159316 2.091488 0.400000
v -0.292322 0.263596 0.400000
v 0.292322 0.263596 0.400000
v -0.195607 0.433036 0.400000
v -0.171107 0.673389 0.400000
v -0.200852 0.539694 0.400000
v -0.198411 0.833333 0.400000
v -0.125000 1.175362 0.400000
v -0.125000 1.041667 0.400000
v -0.198411 1.458333 0.400000
v -0.171107 1.666667 0.400000
v -0.074728 2.482176 -0.500000
v -0.074727 2.482176 0.400000
v 0.000001 2.500000 -0.500000
v 0.000001 2.500000 0.400000
v -0.159315 2.091488 0.400000
v -0.103992 1.800362 0.400000
v -0.000001 2.500000 0.500000
v 0.453020 0.097205 0.500000
v 0.292321 0.263596 0.500000
v -0.500000 -0.000000 0.400000
v 0.074728 2.482176 -0.500000
v -0.159315 2.091488 -0.500000
v 0.149457 2.429665 -0.499999
v 0.186951 2.281812 -0.500000
v 0.159316 2.091488 -0.500000
v -0.186951 2.281812 -0.500000
vt 0.692627 0.521546
vt 0.669585 0.500486
vt 0.692634 0.500494
vt 0.692547 0.753962
vt 0.669509 0.718796
vt 0.692559 0.718804
vt 0.485102 0.753890
vt 0.669497 0.753954
vt 0.669578 0.521538
vt 0.692615 0.556704
vt 0.669566 0.556696
vt 0.970388 0.025095
vt 0.947339 0.000210
vt 0.970388 0.000210
vt 0.693060 0.507592
vt 0.716110 0.482707
vt 0.716110 0.507592
vt 0.970388 0.119421
vt 0.947338 0.148666
vt 0.947338 0.119421
vt 0.970388 0.180235
vt 0.970388 0.148666
vt 0.947338 0.217635
vt 0.947338 0.180235
vt 0.970388 0.268548
vt 0.970388 0.217635
vt 0.947338 0.299364
vt 0.947338 0.268548
vt 0.970388 0.299364
vt 0.947339 0.366747
vt 0.970388 0.415177
vt 0.970388 0.366747
vt 0.970388 0.449658
vt 0.947339 0.415177
vt 0.947339 0.517962
vt 0.947339 0.449658
vt 0.669550 0.601024
vt 0.692600 0.601032
vt 0.644665 0.060968
vt 0.532200 0.095387
vt 0.509908 0.060968
vt 0.622373 0.100022
vt 0.530991 0.124607
vt 0.616726 0.155423
vt 0.623582 0.124607
vt 0.623019 0.192289
vt 0.537847 0.155423
vt 0.548475 0.240309
vt 0.531554 0.192289
vt 0.606098 0.271125
vt 0.606098 0.240309
vt 0.623019 0.336348
vt 0.548475 0.271125
vt 0.537847 0.384368
vt 0.531554 0.336348
vt 0.616726 0.384368
vt 0.553317 0.415184
vt 0.485095 0.774942
vt 0.669490 0.775006
vt 0.485088 0.792649
vt 0.669484 0.792713
vt 0.716110 0.630493
vt 0.693061 0.605879
vt 0.716110 0.605879
vt 0.716110 0.662063
vt 0.693061 0.630493
vt 0.693061 0.699462
vt 0.693061 0.662063
vt 0.716110 0.750376
vt 0.716110 0.699462
vt 0.716110 0.781192
vt 0.693061 0.750376
vt 0.693061 0.848575
vt 0.693061 0.781192
vt 0.716110 0.897005
vt 0.716110 0.848575
vt 0.716110 0.931486
vt 0.693061 0.897005
vt 0.693060 0.999790
vt 0.693060 0.931486
vt 0.692574 0.674475
vt 0.669525 0.674467
vt 0.692533 0.792721
vt 0.692540 0.775013
vt 0.669591 0.482779
vt 0.692640 0.482786
vt 0.970388 0.078413
vt 0.947338 0.025095
vt 0.693060 0.560910
vt 0.716110 0.560910
vt 0.947338 0.078413
vt 0.472868 0.022615
vt 0.681705 0.022615
vt 0.692534 0.000210
vt 0.485189 0.500422
vt 0.485195 0.482715
vt 0.614008 0.482287
vt 0.601256 0.415184
vt 0.485129 0.674403
vt 0.485182 0.521474
vt 0.485170 0.556632
vt 0.485155 0.600961
vt 0.485114 0.718732
vt 0.693060 0.482707
vt 0.970388 0.517962
vt 0.716110 0.999790
vt 0.462039 0.000210
vt 0.540565 0.482287
vn 0.5749 0.8182 0.0000
vn -0.9693 0.2458 -0.0000
vn 0.9693 0.2458 0.0000
vn 0.9004 0.4351 0.0000
vn -0.9004 0.4352 0.0000
vn 0.9991 -0.0413 0.0000
vn 0.9761 0.2172 0.0000
vn 0.9857 -0.1683 0.0000
vn 0.9432 0.3323 0.0000
vn 1.0000 0.0000 0.0000
vn 0.9680 -0.2511 0.0000
vn 0.9915 0.1299 0.0000
vn 0.8937 0.4486 0.0000
vn 0.9824 -0.1867 0.0000
vn 0.9896 -0.1437 0.0000
vn -0.0000 0.0000 -1.0000
vn -0.5749 0.8182 0.0000
vn -0.2320 0.9727 0.0000
vn -0.9988 -0.0491 0.0000
vn -0.9761 0.2172 -0.0000
vn -0.9857 -0.1683 -0.0000
vn -0.9432 0.3323 -0.0000
vn -1.0000 0.0000 0.0000
vn -0.9680 -0.2511 -0.0000
vn -0.9915 0.1299 -0.0000
vn -0.8937 0.4486 -0.0000
vn -0.9824 -0.1867 -0.0000
vn -0.9896 -0.1437 -0.0000
vn 0.2320 0.9727 0.0000
vn 0.7193 0.6947 0.0000
vn -0.8685 0.4957 0.0000
vn -0.7193 0.6947 0.0000
vn 0.8393 0.5436 0.0000
vn 0.0000 -1.0000 0.0000
usemtl Material.001
s 1
f 1/1/1 2/2/1 3/3/1
f 4/4/2 5/5/2 6/6/2
f 7/7/2 5/5/2 8/8/2
f 9/9/3 10/10/3 11/11/3
f 15/12/4 16/13/4 17/14/4
f 18/15/5 19/16/5 20/17/5
f 40/18/6 39/19/6 13/20/6
f 41/21/7 39/19/7 42/22/7
f 41/21/8 33/23/8 38/24/8
f 43/25/9 33/23/9 44/26/9
f 43/25/10 32/27/10 34/28/10
f 45/29/11 28/30/11 32/27/11
f 46/31/12 28/30/12 47/32/12
f 48/33/13 25/34/13 46/31/13
f 48/33/14 24/35/14 26/36/14
f 49/37/15 10/10/15 24/38/15
f 50/39/16 40/40/16 51/41/16
f 52/42/16 42/43/16 40/40/16
f 53/44/16 42/43/16 54/45/16
f 55/46/16 41/47/16 53/44/16
f 55/46/16 43/48/16 44/49/16
f 56/50/16 43/48/16 57/51/16
f 58/52/16 45/53/16 56/50/16
f 58/52/16 46/54/16 47/55/16
f 59/56/16 48/57/16 46/54/16
f 60/58/17 8/8/17 61/59/17
f 62/60/18 61/59/18 63/61/18
f 37/62/19 52/63/19 14/64/19
f 35/65/20 54/66/20 37/62/20
f 35/65/21 55/67/21 53/68/21
f 31/69/22 55/67/22 36/70/22
f 29/71/23 57/72/23 31/69/23
f 29/71/24 58/73/24 56/74/24
f 27/75/25 58/73/25 30/76/25
f 23/77/26 59/78/26 27/75/26
f 23/77/27 64/79/27 65/80/27
f 22/81/28 5/5/28 64/82/28
f 66/83/18 61/59/18 21/84/18
f 21/84/17 8/8/17 4/4/17
f 3/3/29 63/85/29 66/86/29
f 51/87/30 67/88/30 15/12/30
f 14/64/31 50/89/31 12/90/31
f 50/89/32 20/17/32 12/90/32
f 40/18/33 68/91/33 51/87/33
f 50/39/16 15/92/16 18/93/16
f 15/92/16 69/94/16 18/93/16
f 63/85/29 70/95/29 62/96/29
f 64/97/16 48/57/16 65/98/16
f 5/5/28 71/99/28 64/82/28
f 2/2/1 72/100/1 70/95/1
f 11/11/3 72/100/3 9/9/3
f 49/37/15 73/101/15 11/11/15
f 74/102/34 64/82/34 71/99/34
f 1/1/1 9/9/1 2/2/1
f 4/4/2 8/8/2 5/5/2
f 7/7/2 75/103/2 5/5/2
f 9/9/3 1/1/3 10/10/3
f 15/12/4 67/88/4 16/13/4
f 18/15/5 69/104/5 19/16/5
f 40/18/6 42/22/6 39/19/6
f 41/21/7 38/24/7 39/19/7
f 41/21/8 44/26/8 33/23/8
f 43/25/9 34/28/9 33/23/9
f 43/25/10 45/29/10 32/27/10
f 45/29/11 47/32/11 28/30/11
f 46/31/12 25/34/12 28/30/12
f 48/33/13 26/36/13 25/34/13
f 48/33/14 49/105/14 24/35/14
f 49/37/15 11/11/15 10/10/15
f 50/39/16 52/42/16 40/40/16
f 52/42/16 54/45/16 42/43/16
f 53/44/16 41/47/16 42/43/16
f 55/46/16 44/49/16 41/47/16
f 55/46/16 57/51/16 43/48/16
f 56/50/16 45/53/16 43/48/16
f 58/52/16 47/55/16 45/53/16
f 58/52/16 59/56/16 46/54/16
f 59/56/16 65/98/16 48/57/16
f 60/58/17 7/7/17 8/8/17
f 62/60/18 60/58/18 61/59/18
f 37/62/19 54/66/19 52/63/19
f 35/65/20 53/68/20 54/66/20
f 35/65/21 36/70/21 55/67/21
f 31/69/22 57/72/22 55/67/22
f 29/71/23 56/74/23 57/72/23
f 29/71/24 30/76/24 58/73/24
f 27/75/25 59/78/25 58/73/25
f 23/77/26 65/80/26 59/78/26
f 23/77/27 22/106/27 64/79/27
f 22/81/28 6/6/28 5/5/28
f 66/83/18 63/61/18 61/59/18
f 21/84/17 61/59/17 8/8/17
f 3/3/29 2/2/29 63/85/29
f 51/87/30 68/91/30 67/88/30
f 14/64/31 52/63/31 50/89/31
f 50/89/32 18/15/32 20/17/32
f 40/18/33 13/20/33 68/91/33
f 50/39/16 51/41/16 15/92/16
f 15/92/16 17/107/16 69/94/16
f 63/85/29 2/2/29 70/95/29
f 64/97/16 49/108/16 48/57/16
f 5/5/28 75/103/28 71/99/28
f 2/2/1 9/9/1 72/100/1
f 11/11/3 73/101/3 72/100/3
f 49/37/15 74/102/15 73/101/15
f 74/102/34 49/37/34 64/82/34
