# Blender v2.79 (sub 0) OBJ File: ''
# www.blender.org
mtllib cave_001_wall_tc.mtl
o Cube.007_Cube.009
v -0.455144 0.097205 0.453735
v -0.500000 0.000000 -0.500000
v -0.500000 -0.000000 0.500000
v -0.453020 0.097205 -0.500000
v -0.275797 0.263596 0.281681
v -0.292321 0.263596 -0.500000
v -0.151445 2.429665 0.146576
v -0.186951 2.281812 -0.500000
v -0.185627 2.281812 0.183280
v 0.292322 0.263596 -0.500000
v -0.195606 0.412927 -0.500000
v 0.195607 0.433036 -0.500000
v 0.186951 2.281812 -0.500000
v -0.074728 2.482176 -0.500000
v 0.074728 2.482176 -0.500000
v 0.159316 2.091488 -0.500000
v 0.103992 1.800362 -0.500000
v -0.159315 2.091488 -0.500000
v -0.171107 1.666667 -0.500000
v -0.103992 1.800362 -0.500000
v 0.171108 1.666667 -0.500000
v -0.198411 1.458333 -0.500000
v 0.125000 1.175362 -0.500000
v 0.198412 1.458333 -0.500000
v 0.125000 1.041667 -0.500000
v -0.125000 1.175362 -0.500000
v -0.198411 0.833333 -0.500000
v -0.125000 1.041667 -0.500000
v 0.171108 0.673389 -0.500000
v 0.198412 0.833333 -0.500000
v 0.200852 0.539694 -0.500000
v -0.171107 0.673389 -0.500000
v -0.200852 0.539694 -0.500000
v -0.171247 0.539694 0.156138
v -0.195607 0.412927 0.185972
v -0.144326 0.673389 0.136702
v -0.144893 0.833333 0.132534
v -0.135841 1.041667 0.120340
v -0.130290 1.175362 0.120162
v -0.171107 1.666667 0.155138
v -0.212851 1.458333 0.188905
v -0.103992 1.800362 0.082426
v -0.159316 2.091488 0.154095
v 0.453020 0.097205 -0.500000
v 0.500000 0.000000 -0.500000
v 0.412375 0.097205 -0.371848
v 0.292434 0.263596 -0.249586
v -0.000982 2.500000 0.000899
v 0.000001 2.500000 -0.500000
v 0.158061 2.429665 -0.158061
v 0.149457 2.429665 -0.499999
v 0.075440 2.482176 -0.075055
v 0.176809 2.281812 -0.176808
v 0.162991 2.091488 -0.100009
v 0.191191 1.800362 -0.135329
v 0.179849 1.666667 -0.168887
v 0.182539 1.458333 -0.182539
v 0.145833 1.175362 -0.145833
v 0.145833 1.041667 -0.145833
v 0.182539 0.833333 -0.182539
v 0.168887 0.673389 -0.168887
v 0.183759 0.539694 -0.183759
v 0.181137 0.422981 -0.181137
v -0.149456 2.429665 -0.500000
v -0.070922 2.482176 0.074841
v 0.500000 2.429665 -0.149456
v 0.500000 2.281812 -0.186951
v 0.500000 0.263596 0.292322
v 0.500000 0.412927 -0.195607
v 0.500000 0.433036 0.195607
v 0.500000 0.097205 -0.377733
v 0.500000 2.281812 0.186951
v 0.500000 2.482176 -0.074728
v 0.500000 2.482176 0.074728
v 0.500000 2.091488 0.159316
v 0.500000 1.800362 0.103992
v 0.500000 2.091488 -0.159315
v 0.500000 1.666667 -0.171107
v 0.500000 1.800362 -0.103992
v 0.500000 1.666667 0.171108
v 0.500000 1.458333 -0.198411
v 0.500000 1.175362 0.125000
v 0.500000 1.458333 0.198412
v 0.500000 1.041667 0.125000
v 0.500000 1.175362 -0.125000
v 0.500000 0.833333 -0.198411
v 0.500000 1.041667 -0.125000
v 0.500000 0.673389 0.171108
v 0.500000 0.833333 0.198412
v 0.500000 0.539694 0.200852
v 0.500000 0.673389 -0.171107
v 0.500000 0.539694 -0.200852
v 0.500000 0.263596 -0.292321
v 0.500000 -0.000000 0.500000
v 0.500000 2.500000 0.000001
v 0.499999 2.429665 0.149457
v 0.500000 0.097205 0.453020
vt 0.381710 0.021196
vt 0.194769 0.001242
vt 0.390658 0.000176
vt 0.194884 0.022390
vt 0.348234 0.069280
vt 0.195083 0.067704
vt 0.326816 0.506758
vt 0.199720 0.478893
vt 0.333555 0.476925
vt 0.323649 0.127770
vt 0.195103 0.102556
vt 0.329479 0.102480
vt 0.320009 0.154509
vt 0.194987 0.127410
vt 0.319120 0.185839
vt 0.195174 0.154239
vt 0.316950 0.226701
vt 0.194769 0.186022
vt 0.317453 0.252908
vt 0.195439 0.229287
vt 0.197322 0.312722
vt 0.195991 0.255471
vt 0.326239 0.352026
vt 0.332281 0.310317
vt 0.312420 0.381533
vt 0.197916 0.353878
vt 0.199176 0.441223
vt 0.198339 0.383179
vt 0.327295 0.439374
vt 0.884464 0.066527
vt 0.857951 0.027249
vt 0.883588 0.021221
vt 0.885818 0.104721
vt 0.835441 0.068254
vt 0.200410 0.526660
vt 0.298734 0.540119
vt 0.200625 0.541708
vt 0.882310 0.524327
vt 0.816497 0.501355
vt 0.883306 0.506463
vt 0.881481 0.539353
vt 0.799201 0.519604
vt 0.887800 0.439060
vt 0.822292 0.472507
vt 0.809589 0.434266
vt 0.819949 0.377492
vt 0.893302 0.381272
vt 0.828199 0.351684
vt 0.893083 0.351968
vt 0.831036 0.310881
vt 0.893302 0.310808
vt 0.892517 0.253547
vt 0.823036 0.255095
vt 0.822452 0.228912
vt 0.891934 0.227364
vt 0.828282 0.187259
vt 0.890468 0.184118
vt 0.888598 0.152388
vt 0.823836 0.156015
vt 0.825291 0.129543
vt 0.887204 0.125594
vt 0.823293 0.106755
vt 0.881498 0.000176
vt 0.885497 0.476664
vt 0.200172 0.508770
vt 0.313015 0.525775
vt 0.783497 0.534132
vt 0.963237 0.476455
vt 0.901049 0.508211
vt 0.899924 0.478353
vt 0.917375 0.031827
vt 0.900203 0.030773
vt 0.900474 0.000176
vt 0.960855 0.107347
vt 0.897211 0.127061
vt 0.898506 0.102241
vt 0.959173 0.130160
vt 0.896185 0.153872
vt 0.956974 0.187912
vt 0.960991 0.156610
vt 0.893878 0.228886
vt 0.894750 0.185624
vt 0.963374 0.229481
vt 0.893654 0.255075
vt 0.955915 0.311560
vt 0.963150 0.255670
vt 0.894438 0.353494
vt 0.893654 0.312342
vt 0.955422 0.379482
vt 0.957145 0.352444
vt 0.898965 0.440691
vt 0.894708 0.382797
vt 0.965849 0.436245
vt 0.899079 0.067394
vt 0.940262 0.072622
vt 0.185826 0.091455
vt 0.046098 0.109721
vt 0.034932 0.073261
vt 0.901701 0.541146
vt 0.984558 0.524412
vt 0.999824 0.539399
vt 0.129741 0.528388
vt 0.016538 0.531910
vt 0.003104 0.512633
vt 0.127469 0.546135
vt 0.028236 0.548429
vt 0.133463 0.498741
vt 0.009909 0.445385
vt 0.138077 0.461351
vt 0.027815 0.388409
vt 0.145211 0.403741
vt 0.149471 0.374747
vt 0.019173 0.356993
vt 0.155154 0.333982
vt 0.016807 0.314915
vt 0.040444 0.260538
vt 0.162784 0.277225
vt 0.166323 0.251276
vt 0.042907 0.234442
vt 0.172276 0.208417
vt 0.046150 0.193651
vt 0.175431 0.176789
vt 0.049840 0.162527
vt 0.178767 0.150167
vt 0.047789 0.135619
vt 0.181008 0.129368
vt 0.000176 0.482189
vt 0.901407 0.526099
vt 0.967998 0.505493
vt 0.191678 0.046520
vt 0.125557 0.561062
vt 0.006157 0.022225
vt 0.194418 0.025549
vt 0.000176 0.000176
vn -0.9080 0.4190 0.0000
vn -0.7192 0.6946 0.0152
vn -0.9004 0.4351 -0.0020
vn -0.6809 0.7324 -0.0015
vn -0.9742 0.2257 0.0019
vn -0.9820 0.1887 -0.0000
vn -0.9781 0.2034 0.0441
vn -0.9991 -0.0024 0.0420
vn -0.9953 0.0482 0.0842
vn -0.9990 0.0415 -0.0175
vn -0.9679 -0.2511 -0.0083
vn -0.9809 0.1932 -0.0206
vn -0.8937 0.4486 0.0000
vn -0.9824 -0.1867 -0.0000
vn -0.9898 -0.1422 0.0004
vn -0.9903 -0.1387 0.0015
vn -0.9896 -0.1437 -0.0000
vn -0.8759 0.4822 0.0185
vn 0.7013 0.6773 0.2224
vn 0.8685 0.4957 -0.0004
vn -0.2418 0.9703 0.0010
vn -0.2357 0.9718 0.0001
vn -0.2320 0.9727 -0.0005
vn 0.5749 0.8181 -0.0145
vn 0.2287 0.9735 0.0002
vn 0.2308 0.9730 -0.0002
vn 0.2320 0.9727 -0.0004
vn 0.9971 -0.0761 -0.0092
vn 0.9564 -0.1817 -0.2287
vn 0.8935 0.4485 -0.0236
vn 0.9903 0.1298 0.0495
vn 0.9890 -0.1358 -0.0582
vn 0.9983 0.0000 -0.0587
vn 0.9421 0.3320 0.0471
vn 0.9964 -0.0845 0.0067
vn 0.9748 0.2169 0.0527
vn 0.9988 -0.0214 0.0446
vn 0.8658 0.4184 0.2746
vn 0.9689 0.2457 0.0304
vn -0.5749 0.8182 0.0038
vn -0.9693 0.2458 -0.0030
vn -0.9981 -0.0413 0.0450
vn -0.9753 0.2170 0.0410
vn -0.9823 -0.1677 0.0831
vn -0.9430 0.3323 -0.0165
vn -1.0000 0.0000 -0.0085
vn -0.9611 -0.2755 -0.0201
vn -0.9915 0.1299 0.0000
vn -0.9905 -0.1372 0.0019
vn -0.8393 0.5436 -0.0000
vn 0.8111 0.5849 -0.0004
vn 0.8296 0.5556 0.0552
vn -0.2453 0.9694 0.0016
vn 0.5358 0.8444 -0.0009
vn 0.2276 0.9738 0.0004
vn 0.9891 -0.1436 0.0310
vn 0.9952 0.0975 -0.0091
vn 0.9723 -0.0241 -0.2325
vn 0.9995 0.0146 -0.0264
vn 0.9668 -0.2508 0.0483
vn 0.9814 0.1831 -0.0577
vn 0.9845 -0.1681 0.0492
vn 0.9939 0.1098 0.0067
vn 0.9973 -0.0490 0.0539
vn 0.9913 0.1289 -0.0249
vn -0.5473 0.8369 -0.0017
vn -0.0304 0.2457 -0.9689
vn -0.0418 0.7821 -0.6218
vn -0.0466 -0.0413 -0.9981
vn -0.0527 0.2169 -0.9748
vn -0.0067 -0.0845 -0.9964
vn -0.0471 0.3320 -0.9421
vn 0.0587 0.0000 -0.9983
vn 0.0582 -0.1358 -0.9890
vn -0.0495 0.1298 -0.9903
vn -0.0067 0.2440 -0.9698
vn 0.0992 -0.1858 -0.9776
vn -0.1618 -0.3592 -0.9192
vn -0.1749 0.4980 -0.8493
vn -0.1703 0.5357 -0.8271
vn -0.0115 0.5439 0.8390
vn -0.0002 0.9733 -0.2297
vn 0.0000 0.9729 -0.2311
vn -0.0004 0.9735 -0.2289
vn -0.0026 0.8083 0.5888
vn 0.0001 0.9723 0.2338
vn 0.0003 0.9726 0.2326
vn 0.0000 0.9721 0.2344
vn -0.0059 -0.1503 0.9886
vn -0.0072 -0.1457 0.9893
vn -0.0078 -0.1437 0.9896
vn -0.0351 -0.1866 0.9818
vn -0.0208 0.4857 0.8739
vn -0.0132 0.1625 0.9866
vn -0.0119 -0.2416 0.9703
vn -0.0085 -0.2488 0.9685
vn -0.0074 -0.2511 0.9679
vn -0.0074 0.0012 1.0000
vn -0.0076 0.0005 1.0000
vn -0.0073 0.0016 1.0000
vn -0.1014 0.0625 0.9929
vn -0.0533 0.0258 0.9982
vn -0.0656 0.1565 0.9855
vn -0.0202 0.2327 0.9723
vn -0.0050 0.2430 0.9700
vn -0.0045 0.2449 0.9695
vn -0.0052 0.2421 0.9702
vn 0.0004 0.8453 -0.5343
vn -0.0099 0.6947 0.7193
vn 0.0249 0.1289 -0.9913
vn -0.0540 -0.0212 -0.9983
vn -0.0067 0.1098 -0.9939
vn -0.0492 -0.1681 -0.9845
vn 0.0577 0.1831 -0.9814
vn -0.0483 -0.2508 -0.9668
vn -0.0069 0.0653 -0.9978
vn 0.0903 0.4468 -0.8901
vn -0.1724 0.1022 -0.9797
vn -0.0310 -0.1436 -0.9891
vn -0.0596 0.4559 -0.8881
vn -0.0301 0.3766 -0.9259
vn -0.0264 0.4955 0.8682
vn 0.0002 0.9727 -0.2320
vn 0.0001 0.8182 0.5749
vn 0.0004 0.9727 0.2320
vn -0.0053 -0.1523 0.9883
vn -0.0077 -0.2404 0.9706
vn -0.0319 0.4484 0.8933
vn -0.0236 0.1299 0.9912
vn -0.0129 -0.2396 0.9708
vn -0.0077 0.0000 1.0000
vn -0.0069 0.3323 0.9431
vn -0.1002 -0.1674 0.9808
vn -0.0521 0.2169 0.9748
vn -0.0664 -0.0490 0.9966
vn -0.0043 0.2458 0.9693
vn 0.0145 0.8181 -0.5749
vn 0.0005 0.7186 0.6955
vn 0.0007 0.4352 0.9004
vn 0.0000 0.4298 0.9029
usemtl Material.013
s 1
f 1/1/1 2/2/1 3/3/1
f 4/4/2 5/5/2 6/6/2
f 1/1/3 4/4/3 2/2/3
f 4/4/4 1/1/4 5/5/4
usemtl Material.007
f 7/7/5 8/8/5 9/9/5
f 34/10/6 11/11/6 35/12/6
f 36/13/7 33/14/7 34/10/7
f 37/15/8 32/16/8 36/13/8
f 38/17/9 27/18/9 37/15/9
f 39/19/10 28/20/10 38/17/10
f 39/19/11 22/21/11 26/22/11
f 40/23/12 22/21/12 41/24/12
f 42/25/13 19/26/13 40/23/13
f 42/25/14 18/27/14 20/28/14
f 43/29/15 8/8/16 18/27/17
f 35/12/18 6/6/18 5/5/18
f 10/30/19 46/31/19 44/32/19
f 12/33/20 47/34/20 10/30/20
f 14/35/21 48/36/22 49/37/23
f 15/38/24 50/39/24 51/40/24
f 49/41/25 52/42/26 15/38/27
f 16/43/28 53/44/28 54/45/28
f 16/43/29 55/46/29 17/47/29
f 17/47/30 56/48/30 21/49/30
f 21/49/31 57/50/31 24/51/31
f 23/52/32 57/50/32 58/53/32
f 23/52/33 59/54/33 25/55/33
f 25/55/34 60/56/34 30/57/34
f 29/58/35 60/56/35 61/59/35
f 29/58/36 62/60/36 31/61/36
f 12/33/37 62/60/37 63/62/37
f 44/32/38 46/31/38 45/63/38
f 51/40/39 53/44/39 13/64/39
f 64/65/40 65/66/40 14/35/40
f 7/7/41 64/65/41 8/8/41
f 34/10/42 33/14/42 11/11/42
f 36/13/43 32/16/43 33/14/43
f 37/15/44 27/18/44 32/16/44
f 38/17/45 28/20/45 27/18/45
f 39/19/46 26/22/46 28/20/46
f 39/19/47 41/24/47 22/21/47
f 40/23/48 19/26/48 22/21/48
f 42/25/13 20/28/13 19/26/13
f 42/25/14 43/29/14 18/27/14
f 43/29/15 9/9/49 8/8/16
f 35/12/50 11/11/50 6/6/50
f 10/30/51 47/34/51 46/31/51
f 12/33/52 63/62/52 47/34/52
f 14/35/21 65/66/53 48/36/22
f 15/38/54 52/42/54 50/39/54
f 49/41/25 48/67/55 52/42/26
f 16/43/56 13/64/56 53/44/56
f 16/43/57 54/45/57 55/46/57
f 17/47/58 55/46/58 56/48/58
f 21/49/59 56/48/59 57/50/59
f 23/52/60 24/51/60 57/50/60
f 23/52/33 58/53/33 59/54/33
f 25/55/61 59/54/61 60/56/61
f 29/58/62 30/57/62 60/56/62
f 29/58/63 61/59/63 62/60/63
f 12/33/64 31/61/64 62/60/64
f 51/40/65 50/39/65 53/44/65
f 64/65/66 7/7/66 65/66/66
usemtl Material.016
f 53/68/67 66/69/67 67/70/67
f 46/71/68 71/72/68 45/73/68
f 63/74/69 92/75/69 69/76/69
f 62/77/70 91/78/70 92/75/70
f 60/79/71 91/78/71 61/80/71
f 60/79/72 87/81/72 86/82/72
f 59/83/73 85/84/73 87/81/73
f 57/85/74 85/84/74 58/86/74
f 57/85/75 78/87/75 81/88/75
f 55/89/76 78/87/76 56/90/76
f 55/89/77 77/91/77 79/92/77
f 53/68/78 77/91/78 54/93/78
f 93/94/79 46/71/79 47/95/79
f 47/95/80 69/76/80 93/94/80
f 68/96/81 35/97/81 5/98/81
f 95/99/82 52/100/83 48/101/84
f 96/102/85 65/103/85 7/104/85
f 74/105/86 48/106/87 65/103/88
f 72/107/89 43/108/90 75/109/91
f 75/109/92 42/110/92 76/111/92
f 80/112/93 42/110/93 40/113/93
f 83/114/94 40/113/94 41/115/94
f 83/114/95 39/116/96 82/117/97
f 84/118/98 39/116/99 38/119/100
f 89/120/101 38/119/101 37/121/101
f 88/122/102 37/121/102 36/123/102
f 90/124/103 36/123/103 34/125/103
f 70/126/104 34/125/104 35/97/104
f 72/107/105 7/104/106 9/127/107
f 73/128/108 50/129/108 52/100/108
f 5/98/109 97/130/109 68/96/109
f 53/68/110 50/129/110 66/69/110
f 63/74/111 62/77/111 92/75/111
f 62/77/112 61/80/112 91/78/112
f 60/79/113 86/82/113 91/78/113
f 60/79/114 59/83/114 87/81/114
f 59/83/73 58/86/73 85/84/73
f 57/85/115 81/88/115 85/84/115
f 57/85/116 56/90/116 78/87/116
f 55/89/117 79/92/117 78/87/117
f 55/89/118 54/93/118 77/91/118
f 53/68/119 67/70/119 77/91/119
f 93/94/120 71/72/120 46/71/120
f 47/95/121 63/74/121 69/76/121
f 68/96/122 70/126/122 35/97/122
f 95/99/82 73/128/123 52/100/83
f 96/102/124 74/105/124 65/103/124
f 74/105/86 95/131/125 48/106/87
f 72/107/89 9/127/126 43/108/90
f 75/109/127 43/108/127 42/110/127
f 80/112/128 76/111/128 42/110/128
f 83/114/129 80/112/129 40/113/129
f 83/114/95 41/115/130 39/116/96
f 84/118/98 82/117/131 39/116/99
f 89/120/132 84/118/132 38/119/132
f 88/122/133 89/120/133 37/121/133
f 90/124/134 88/122/134 36/123/134
f 70/126/135 90/124/135 34/125/135
f 72/107/105 96/102/136 7/104/106
f 73/128/137 66/69/137 50/129/137
f 5/98/138 1/132/138 97/130/138
usemtl Material.019
f 1/132/139 94/133/139 97/130/139
f 1/132/140 3/134/140 94/133/140
