# Blender v2.79 (sub 0) OBJ File: ''
# www.blender.org
mtllib cave_001_wall_wd.mtl
o Cube.008_Cube.001
v -0.440271 2.858035 -0.273325
v -0.500000 3.000000 -0.500000
v -0.500000 2.750000 -0.500000
v 0.580737 0.810654 -0.392521
v 0.530943 0.842637 -0.074988
v 0.652392 0.462457 -0.152840
v 0.458281 2.863403 0.319548
v 0.500000 3.000000 0.500000
v 0.500000 2.750000 0.500000
v 0.500000 0.750000 -0.500000
v 0.649783 0.497340 -0.434377
v -0.314141 3.010381 0.211556
v -0.500000 3.000000 0.500000
v -0.250000 3.100000 0.500000
v 0.414701 1.166856 -0.107601
v 0.417832 1.172071 0.215568
v 0.461376 1.095836 -0.392641
v 0.500000 1.000000 -0.500000
v 0.490769 1.411254 -0.063224
v 0.502509 1.351874 0.272186
v 0.445202 1.361823 -0.289366
v 0.500000 1.250000 -0.500000
v 0.569307 1.644560 -0.036659
v 0.556877 1.567401 0.233048
v 0.498594 1.590090 -0.227611
v 0.500000 1.500000 -0.500000
v 0.453611 1.842896 0.060599
v 0.511718 1.780980 0.215882
v 0.461507 1.795162 -0.128891
v 0.500000 -0.000000 0.250000
v 0.500000 0.250000 0.500000
v 0.500000 -0.000000 0.500000
v 0.551853 0.456880 0.232367
v 0.568794 0.244261 0.171300
v 0.500000 0.750000 0.500000
v 0.500000 0.500000 0.500000
v 0.460429 0.845535 0.247205
v 0.500000 1.000000 0.500000
v 0.500000 1.250000 0.500000
v 0.500000 1.500000 0.500000
v 0.500000 1.750000 0.500000
v 0.500000 2.000000 0.500000
v 0.567769 2.060933 0.189070
v 0.500000 2.250000 0.500000
v 0.544640 2.321151 0.169136
v 0.500000 2.500000 0.500000
v 0.491329 2.590575 0.264086
v 0.500000 1.750000 -0.500000
v 0.552946 2.098238 0.031716
v 0.563882 2.062360 -0.110911
v 0.500000 2.000000 -0.500000
v 0.547855 2.322003 -0.104055
v 0.523464 2.298028 -0.225154
v 0.500000 2.250000 -0.500000
v 0.481790 2.562880 -0.024444
v 0.467996 2.525685 -0.209311
v 0.500000 2.500000 -0.500000
v 0.446845 2.817420 0.089491
v -0.500000 0.000000 -0.250000
v -0.500000 0.250000 -0.500000
v -0.500000 0.000000 -0.500000
v -0.437328 0.330019 -0.159780
v -0.500000 0.500000 -0.500000
v -0.458519 0.555173 -0.193434
v -0.500000 0.750000 -0.500000
v -0.473019 0.784774 -0.173793
v -0.500000 1.000000 -0.500000
v -0.494752 1.156194 -0.112410
v -0.449782 0.937790 -0.133714
v -0.495450 1.447005 -0.115167
v -0.500000 1.250000 -0.500000
v -0.518264 1.759072 -0.148420
v -0.500000 1.500000 -0.500000
v -0.500000 2.000000 -0.500000
v -0.500000 1.750000 -0.500000
v -0.475822 2.085988 -0.194955
v -0.500000 2.250000 -0.500000
v -0.392349 2.446112 -0.258457
v -0.500000 2.500000 -0.500000
v -0.377833 2.671466 -0.311548
v 0.468924 2.785867 -0.138565
v 0.500000 2.750000 -0.500000
v -0.500000 0.000000 0.000000
v -0.459325 0.293962 0.090899
v -0.486064 0.180077 0.272005
v -0.500000 -0.000000 0.500000
v -0.500000 0.250000 0.500000
v -0.437713 0.556877 0.054121
v -0.479589 0.480881 0.253045
v -0.500000 0.500000 0.500000
v -0.489090 0.816880 0.082862
v -0.492162 0.757414 0.238465
v -0.500000 0.750000 0.500000
v -0.498676 0.966801 0.129931
v -0.470053 0.983373 0.274436
v -0.500000 1.000000 0.500000
v -0.480487 1.209862 0.155791
v -0.409762 1.275197 0.304053
v -0.500000 1.250000 0.500000
v -0.501793 1.474098 0.227882
v -0.460964 1.527758 0.393346
v -0.500000 1.500000 0.500000
v -0.575191 1.781538 0.185771
v -0.539305 1.785597 0.366188
v -0.500000 1.750000 0.500000
v -0.507086 2.131316 0.103230
v -0.514987 2.086085 0.299731
v -0.500000 2.000000 0.500000
v -0.391666 2.539202 0.025828
v -0.453759 2.427976 0.262452
v -0.500000 2.250000 0.500000
v -0.366639 2.761043 0.001135
v -0.435444 2.682866 0.263343
v -0.500000 2.500000 0.500000
v -0.370007 2.891246 0.059298
v -0.433840 2.860105 0.297589
v -0.500000 2.750000 0.500000
v 0.500000 3.040000 0.000000
v 0.162958 2.970139 -0.038116
v 0.200478 3.026492 0.224171
v 0.240066 2.984153 -0.307609
v 0.500000 3.000000 -0.500000
v 0.250000 3.100000 -0.500000
v -0.083629 2.999273 -0.051015
v -0.041318 2.992827 0.197049
v -0.020285 3.014961 -0.295645
v 0.000000 3.040000 -0.500000
v -0.370875 3.020670 -0.010251
v -0.306979 3.058558 -0.258656
v -0.250000 3.100000 -0.500000
v 0.000000 3.040000 0.500000
v 0.500000 3.100000 0.250000
v 0.250000 3.100000 0.500000
v -0.500000 3.100000 0.250000
v -0.500000 3.100000 -0.250000
v 0.500000 3.100000 -0.250000
v -0.500000 -0.000000 0.250000
v 0.500000 0.500000 -0.500000
v 0.500000 0.250000 -0.500000
v 0.596021 0.235880 -0.385176
v 0.627909 0.223771 -0.166389
v 0.500000 0.000000 -0.500000
v 0.500000 0.000000 -0.250000
v 0.500000 0.000000 0.000000
v -0.500000 3.040000 0.000000
vt 0.810173 0.670782
vt 0.755541 0.703404
vt 0.755874 0.645429
vt 0.714724 0.189802
vt 0.641683 0.199996
vt 0.660738 0.111976
vt 0.551145 0.682784
vt 0.507573 0.715929
vt 0.507044 0.655937
vt 0.748077 0.179354
vt 0.719920 0.119835
vt 0.070011 0.928103
vt 0.000902 0.969415
vt 0.000196 0.908644
vt 0.648009 0.278287
vt 0.575286 0.278462
vt 0.713651 0.261436
vt 0.739373 0.238242
vt 0.637286 0.336039
vt 0.560629 0.323195
vt 0.689836 0.322954
vt 0.740806 0.296920
vt 0.629387 0.389722
vt 0.570358 0.373928
vt 0.675423 0.378281
vt 0.740190 0.356235
vt 0.612529 0.439243
vt 0.574745 0.424895
vt 0.653957 0.427641
vt 0.565387 0.002181
vt 0.506748 0.062358
vt 0.505979 0.002950
vt 0.570849 0.111223
vt 0.585912 0.061569
vt 0.507158 0.180393
vt 0.506806 0.121524
vt 0.566381 0.203744
vt 0.506539 0.239523
vt 0.507657 0.298641
vt 0.507091 0.357709
vt 0.507086 0.417347
vt 0.506479 0.476242
vt 0.580581 0.491528
vt 0.506093 0.536116
vt 0.585427 0.552418
vt 0.506747 0.595995
vt 0.563202 0.617455
vt 0.740965 0.415284
vt 0.617518 0.499993
vt 0.650724 0.492424
vt 0.741707 0.474578
vt 0.649111 0.551947
vt 0.678212 0.546932
vt 0.743269 0.534037
vt 0.631779 0.610814
vt 0.675490 0.601979
vt 0.744443 0.593660
vt 0.605249 0.671590
vt 0.820004 0.000331
vt 0.760960 0.059173
vt 0.761060 0.000230
vt 0.841587 0.078709
vt 0.760618 0.118181
vt 0.833176 0.131241
vt 0.760675 0.177066
vt 0.837573 0.185225
vt 0.760731 0.235629
vt 0.851434 0.273153
vt 0.846723 0.221253
vt 0.850037 0.341136
vt 0.760209 0.294247
vt 0.841658 0.414368
vt 0.759739 0.352904
vt 0.758840 0.470020
vt 0.759271 0.411523
vt 0.830216 0.491258
vt 0.757888 0.528459
vt 0.816345 0.576085
vt 0.755539 0.586890
vt 0.805631 0.626016
vt 0.659387 0.663710
vt 0.745941 0.653644
vt 0.879051 0.000196
vt 0.900185 0.070061
vt 0.943106 0.043004
vt 0.996995 0.000466
vt 0.997049 0.059445
vt 0.890964 0.131475
vt 0.938595 0.114002
vt 0.997150 0.118466
vt 0.898058 0.193422
vt 0.935102 0.179543
vt 0.997241 0.177596
vt 0.908929 0.229069
vt 0.943562 0.233614
vt 0.998042 0.236883
vt 0.914403 0.286560
vt 0.951337 0.301124
vt 0.999804 0.296180
vt 0.929830 0.348004
vt 0.969956 0.359107
vt 0.996629 0.354237
vt 0.919032 0.419882
vt 0.960714 0.420788
vt 0.992830 0.412340
vt 0.899799 0.500713
vt 0.945560 0.490392
vt 0.992540 0.470620
vt 0.880222 0.597143
vt 0.935674 0.571053
vt 0.992021 0.529239
vt 0.873815 0.646916
vt 0.934777 0.629987
vt 0.992199 0.588004
vt 0.886430 0.675203
vt 0.941140 0.671142
vt 0.991483 0.646870
vt 0.123346 0.738643
vt 0.132528 0.817250
vt 0.071210 0.806429
vt 0.195892 0.799394
vt 0.242039 0.739340
vt 0.248673 0.800343
vt 0.134316 0.874959
vt 0.076621 0.863230
vt 0.191963 0.861472
vt 0.239442 0.858174
vt 0.123031 0.942193
vt 0.183399 0.930328
vt 0.240439 0.916561
vt 0.006112 0.850049
vt 0.064970 0.735885
vt 0.006486 0.791333
vt 0.003875 0.730012
vt 0.061684 0.977086
vt 0.567576 0.740008
vt 0.812642 0.728855
vt 0.181262 0.732979
vt 0.938011 0.000363
vt 0.755147 0.121103
vt 0.750440 0.062414
vt 0.714623 0.061516
vt 0.664284 0.059266
vt 0.745031 0.002618
vt 0.685049 0.000196
vt 0.625031 0.000409
vt 0.239666 0.977086
vt 0.178858 0.976288
vt 0.120336 0.972244
vt 0.746916 0.713442
vt 0.627456 0.725425
vt 0.989390 0.705761
vt 0.930433 0.729188
vt 0.871269 0.718434
vt 0.687566 0.738533
vn -0.9670 0.0000 0.2548
vn 0.9525 0.2794 0.1212
vn 0.9743 0.0000 -0.2253
vn 0.7041 0.2442 -0.6668
vn -0.3638 0.9094 -0.2017
vn 0.9417 0.3362 -0.0145
vn 0.9370 0.3428 0.0680
vn 0.9224 0.3861 -0.0128
vn 0.9120 -0.3973 -0.1023
vn 0.9530 -0.2726 -0.1324
vn 0.9600 -0.0486 0.2756
vn 0.9483 -0.3140 -0.0461
vn 0.9233 -0.2810 -0.2618
vn 0.9645 -0.2492 0.0874
vn 0.8373 0.5375 -0.1000
vn 0.8373 0.5374 -0.1003
vn 0.8376 0.5372 -0.0992
vn 0.8372 0.5376 -0.1006
vn 1.0000 0.0000 0.0000
vn 0.9787 0.0192 0.2045
vn 0.9817 0.0000 0.1902
vn 0.9880 0.0000 -0.1547
vn 0.9607 0.0000 -0.2775
vn 0.9999 0.0000 0.0110
vn 0.9780 0.0000 0.2084
vn 0.9992 0.0000 0.0412
vn 0.9771 0.0000 0.2130
vn 0.9910 0.0000 0.1337
vn 0.9993 0.0000 -0.0367
vn 0.9868 0.1372 0.0857
vn 0.9108 -0.3741 -0.1745
vn 0.9263 -0.3426 0.1572
vn 0.9316 -0.3504 -0.0968
vn 0.9995 0.0299 0.0119
vn 0.9756 0.0658 -0.2095
vn 0.9964 0.0000 -0.0851
vn 0.9759 0.2116 -0.0526
vn 0.9441 0.3023 -0.1313
vn 0.9693 0.2302 0.0864
vn 0.9879 0.1351 -0.0761
vn -1.0000 0.0000 0.0000
vn -0.9835 0.0000 0.1812
vn -0.9910 0.0000 0.1341
vn -0.9966 0.0000 0.0824
vn -0.9728 -0.2098 0.0977
vn -0.9999 -0.0004 0.0120
vn -0.9999 -0.0017 0.0126
vn -0.9999 -0.0004 0.0134
vn -0.9974 -0.0727 0.0018
vn -0.9987 0.0000 -0.0519
vn -0.9969 0.0000 0.0790
vn -0.9134 0.0000 0.4071
vn -0.8391 0.0000 0.5440
vn 0.9916 0.0993 0.0823
vn 0.9957 -0.0276 0.0883
vn -0.9857 0.1562 -0.0640
vn -0.9871 0.1521 -0.0501
vn -0.9981 0.0000 -0.0610
vn -0.9936 -0.0755 0.0840
vn -0.9934 -0.0708 0.0903
vn -0.9932 -0.0809 0.0840
vn -0.9811 0.0547 -0.1856
vn -0.9966 0.0000 -0.0824
vn -0.9811 -0.1897 -0.0377
vn -0.9789 -0.1835 -0.0895
vn -0.9984 -0.0470 -0.0313
vn -0.9833 -0.0058 -0.1817
vn -0.9802 0.0662 0.1866
vn -0.9807 0.0537 0.1882
vn -0.9802 0.0659 0.1867
vn -0.9913 0.0000 -0.1316
vn -0.9968 0.0705 0.0389
vn -0.9164 0.1518 0.3703
vn -0.8958 0.2240 -0.3838
vn -0.9970 -0.0770 -0.0124
vn -0.9010 -0.2951 0.3180
vn -0.9391 0.0000 -0.3437
vn -0.9829 -0.0891 -0.1614
vn -0.9596 -0.2023 0.1954
vn -0.9421 -0.2645 0.2063
vn -0.9865 0.1110 -0.1203
vn -0.9813 0.1922 0.0048
vn -0.9871 0.1063 0.1196
vn -0.9630 0.2570 -0.0818
vn -0.9597 0.2457 -0.1363
vn -0.9835 0.1691 -0.0648
vn -0.9936 0.1125 0.0034
vn -0.9697 0.0789 -0.2311
vn -0.9696 0.0836 -0.2299
vn -0.9697 0.0839 -0.2295
vn -0.9749 0.0708 -0.2112
vn -0.9748 0.0712 -0.2115
vn -0.9725 0.0711 -0.2216
vn -0.9686 -0.1219 0.2168
vn -0.9662 0.0573 -0.2513
vn -0.9582 0.0626 -0.2791
vn -0.1798 0.9667 -0.1820
vn -0.2022 0.9793 -0.0069
vn 0.3215 0.8038 0.5006
vn 0.1170 0.9931 0.0058
vn 0.1125 0.9893 0.0925
vn 0.1121 0.9894 0.0925
vn 0.1165 0.9892 0.0892
vn 0.1225 0.9836 0.1327
vn 0.0780 0.9966 0.0263
vn 0.0978 0.9798 0.1746
vn 0.1731 0.9631 0.2062
vn 0.0450 0.9511 -0.3055
vn -0.1216 0.9832 -0.1365
vn -0.2150 0.9523 -0.2165
vn -0.2137 0.9503 -0.2266
vn -0.2152 0.9526 -0.2152
vn -0.8436 -0.3633 0.3954
vn -0.8881 0.1588 0.4313
vn -0.9430 0.2560 0.2124
vn -0.9901 0.1343 0.0406
vn -0.9999 0.0000 0.0118
vn -0.9999 0.0000 0.0135
vn -0.9822 0.1090 0.1532
vn -0.9939 -0.0701 0.0846
vn -0.9935 -0.0704 0.0897
vn -0.9867 -0.0710 0.1463
vn -0.9785 0.1459 0.1459
vn 0.9800 0.1461 -0.1348
vn 0.9826 0.1825 0.0339
vn 0.9831 0.0992 0.1540
vn 0.9683 -0.1770 0.1764
vn 0.9754 0.2113 0.0633
vn 0.9647 -0.2159 0.1510
vn 0.9115 -0.3791 -0.1595
vn 0.9706 0.1056 -0.2165
vn 0.3482 0.8704 0.3482
vn -0.2281 0.9502 -0.2123
vn 0.2296 0.9565 -0.1802
vn 0.9708 0.2308 -0.0647
vn 0.9575 -0.2040 0.2040
vn 0.4645 0.8222 0.3289
vn 0.9776 -0.1954 -0.0781
vn -0.9638 -0.2475 0.0990
vn 0.2310 0.9627 0.1409
vn 0.1627 0.9811 0.1051
vn 0.0650 0.9978 0.0148
vn -0.2024 0.8435 0.4975
vn 0.1210 0.9889 0.0860
vn -0.1140 0.9745 -0.1931
vn -0.3147 0.8813 -0.3525
vn -0.4365 0.8749 0.2100
vn -0.2135 0.9500 -0.2280
vn -0.9648 0.0000 -0.2632
vn -0.9698 0.0782 -0.2312
vn -0.9319 -0.3386 0.1304
vn -0.9816 0.0000 -0.1911
vn -0.9725 0.0707 -0.2220
vn -0.9980 0.0602 -0.0173
vn -0.9972 0.0000 0.0746
vn -0.9843 0.1764 0.0010
vn -0.9705 0.2016 -0.1324
vn -0.9595 0.0000 0.2818
vn -0.9741 0.1211 0.1910
vn -0.9732 0.1480 -0.1757
vn -0.9191 -0.2469 0.3069
vn -0.9727 -0.2322 0.0004
vn -0.9061 -0.0346 -0.4217
vn -0.8461 -0.2027 0.4930
vn -0.9986 -0.0019 0.0535
vn -0.9807 0.0534 0.1881
vn -0.9699 -0.1841 -0.1596
vn -0.9945 0.1016 -0.0269
vn -0.9979 -0.0514 -0.0394
vn -0.9818 0.1708 -0.0828
vn -0.9725 -0.0561 -0.2262
vn -0.9977 0.0173 -0.0663
vn -0.9903 0.0126 -0.1383
vn -0.9945 0.0710 -0.0771
vn -0.9970 0.0772 0.0000
vn -0.9824 0.1866 0.0000
vn 0.9940 0.0000 0.1094
vn 0.9968 0.0176 -0.0779
vn 0.9865 0.1568 -0.0477
vn 0.9397 0.2455 -0.2379
vn 0.9653 0.2607 0.0122
vn 0.9811 0.0837 -0.1745
vn 0.9963 0.0599 0.0613
vn 0.9938 0.0827 -0.0740
vn 0.9947 0.0000 0.1032
vn 0.9230 -0.3624 0.1297
vn 0.8828 -0.2167 -0.4167
vn 1.0000 -0.0000 0.0052
vn 0.8414 0.3503 -0.4115
vn 0.9711 0.2138 0.1059
vn 0.9678 0.0000 0.2518
vn 0.9704 -0.1850 -0.1551
vn 0.9631 -0.2573 -0.0793
vn 0.9410 0.0000 0.3385
vn 0.9867 -0.0030 0.1623
vn 0.9550 -0.2964 -0.0045
vn 0.7995 0.0000 -0.6006
vn 0.9173 0.3840 0.1052
vn 0.9666 0.1465 0.2102
vn 0.4013 0.0000 -0.9159
vn 0.9769 0.2130 0.0173
vn 0.9364 0.2483 0.2480
vn 0.7225 -0.2685 -0.6372
vn 0.9846 -0.0926 -0.1486
vn 0.9778 -0.1104 0.1779
vn 0.9262 -0.3770 0.0000
vn 0.8682 -0.4963 -0.0000
vn 0.9626 -0.2711 -0.0000
vn -0.3704 0.9261 0.0716
vn 0.2142 0.9559 0.2009
vn 0.1487 0.9889 0.0078
vn 0.9963 0.0000 0.0857
vn 0.9754 -0.1847 0.1200
vn 0.9840 -0.1775 -0.0134
vn -0.9505 0.0000 -0.3107
vn -0.9086 -0.3068 -0.2835
vn -0.7763 -0.5896 0.2229
vn 0.9541 0.2165 0.2069
vn 0.9776 -0.2076 -0.0348
vn 0.9676 0.0045 0.2526
vn 0.7671 0.0000 -0.6415
vn 0.8815 -0.4466 -0.1532
vn 0.9058 -0.3826 0.1818
vn 0.1797 0.9134 -0.3653
vn 0.1619 0.9596 0.2303
vn 0.3877 0.8963 -0.2151
vn 0.9957 -0.0863 0.0345
vn 0.9939 -0.1075 -0.0258
vn 0.9758 -0.2125 0.0510
vn -0.9517 -0.2851 -0.1140
vn -0.7732 -0.6167 0.1480
vn -0.9706 -0.2342 -0.0562
usemtl None.002
s 1
f 1/1/1 2/2/1 3/3/1
f 4/4/2 5/5/2 6/6/2
f 7/7/3 8/8/3 9/9/3
f 10/10/4 4/4/4 11/11/4
f 12/12/5 13/13/5 14/14/5
f 5/5/6 15/15/6 16/16/6
f 17/17/7 15/15/7 5/5/7
f 18/18/8 17/17/8 4/4/8
f 19/19/9 20/20/9 16/16/9
f 21/21/10 19/19/10 15/15/10
f 22/22/11 21/21/11 17/17/11
f 19/19/12 23/23/12 24/24/12
f 25/25/13 23/23/13 19/19/13
f 26/26/14 25/25/14 21/21/14
f 23/23/15 27/27/16 28/28/17
f 29/29/18 27/27/16 23/23/15
f 30/30/19 31/31/19 32/32/19
f 33/33/20 31/31/20 34/34/20
f 33/33/21 35/35/21 36/36/21
f 37/37/22 38/38/22 35/35/22
f 16/16/23 39/39/23 38/38/23
f 20/20/24 40/40/24 39/39/24
f 24/24/25 41/41/25 40/40/25
f 28/28/26 42/42/26 41/41/26
f 43/43/27 44/44/27 42/42/27
f 45/45/28 46/46/28 44/44/28
f 47/47/29 9/9/29 46/46/29
f 48/48/30 29/29/30 25/25/30
f 27/27/31 49/49/31 43/43/31
f 50/50/32 49/49/32 27/27/32
f 51/51/33 50/50/33 29/29/33
f 49/49/34 52/52/34 45/45/34
f 50/50/35 53/53/35 52/52/35
f 51/51/36 54/54/36 53/53/36
f 55/55/37 47/47/37 45/45/37
f 56/56/38 55/55/38 52/52/38
f 57/57/39 56/56/39 53/53/39
f 58/58/40 7/7/40 47/47/40
f 59/59/41 60/60/41 61/61/41
f 62/62/42 63/63/42 60/60/42
f 64/64/43 65/65/43 63/63/43
f 66/66/44 67/67/44 65/65/44
f 68/68/45 67/67/45 69/69/45
f 70/70/46 71/71/47 68/68/48
f 72/72/49 73/73/49 70/70/49
f 72/72/50 74/74/50 75/75/50
f 76/76/51 77/77/51 74/74/51
f 78/78/52 79/79/52 77/77/52
f 80/80/53 3/3/53 79/79/53
f 81/81/54 58/58/54 55/55/54
f 82/82/55 81/81/55 56/56/55
f 83/83/56 84/84/56 62/62/56
f 85/85/57 84/84/57 83/83/57
f 86/86/58 87/87/58 85/85/58
f 88/88/59 64/64/60 62/62/61
f 89/89/62 88/88/62 84/84/62
f 87/87/63 90/90/63 89/89/63
f 88/88/64 91/91/64 66/66/64
f 92/92/65 91/91/65 88/88/65
f 93/93/66 92/92/66 89/89/66
f 91/91/67 94/94/67 69/69/67
f 92/92/68 95/95/69 94/94/70
f 93/93/71 96/96/71 95/95/71
f 94/94/72 97/97/72 68/68/72
f 95/95/73 98/98/73 97/97/73
f 99/99/74 98/98/74 95/95/74
f 97/97/75 100/100/75 70/70/75
f 98/98/76 101/101/76 100/100/76
f 99/99/77 102/102/77 101/101/77
f 103/103/78 72/72/78 70/70/78
f 104/104/79 103/103/79 100/100/79
f 105/105/80 104/104/80 101/101/80
f 106/106/81 76/76/81 72/72/81
f 107/107/82 106/106/82 103/103/82
f 108/108/83 107/107/83 104/104/83
f 106/106/84 109/109/84 78/78/84
f 110/110/85 109/109/85 106/106/85
f 111/111/86 110/110/86 107/107/86
f 109/109/87 112/112/87 80/80/87
f 113/113/88 112/112/89 109/109/90
f 114/114/91 113/113/92 110/110/93
f 112/112/94 115/115/94 1/1/94
f 113/113/95 116/116/95 115/115/95
f 117/117/96 116/116/96 113/113/96
f 118/118/97 119/119/97 120/120/97
f 121/121/98 119/119/98 118/118/98
f 122/122/99 123/123/99 121/121/99
f 119/119/100 124/124/100 125/125/100
f 126/126/101 124/124/102 119/119/103
f 127/127/104 126/126/104 121/121/104
f 124/124/105 128/128/105 12/12/105
f 129/129/106 128/128/106 124/124/106
f 130/130/107 129/129/107 126/126/107
f 125/125/108 12/12/108 14/14/108
f 120/120/109 125/125/109 131/131/109
f 132/132/110 120/120/111 133/133/112
f 80/80/113 1/1/113 3/3/113
f 78/78/114 80/80/114 79/79/114
f 76/76/115 78/78/115 77/77/115
f 72/72/116 76/76/116 74/74/116
f 72/72/50 75/75/50 73/73/50
f 70/70/46 73/73/117 71/71/47
f 68/68/48 71/71/47 67/67/118
f 66/66/119 69/69/119 67/67/119
f 64/64/60 66/66/120 65/65/121
f 62/62/122 64/64/122 63/63/122
f 59/59/123 62/62/123 60/60/123
f 47/47/124 7/7/124 9/9/124
f 45/45/125 47/47/125 46/46/125
f 43/43/126 45/45/126 44/44/126
f 28/28/127 43/43/127 42/42/127
f 24/24/128 28/28/128 41/41/128
f 20/20/129 24/24/129 40/40/129
f 16/16/130 20/20/130 39/39/130
f 37/37/131 16/16/131 38/38/131
f 132/132/132 133/133/132 8/134/132
f 120/120/133 131/131/133 133/133/133
f 125/125/134 14/14/134 131/131/134
f 33/33/135 37/37/135 35/35/135
f 33/33/21 36/36/21 31/31/21
f 30/30/136 34/34/136 31/31/136
f 12/12/137 134/135/137 13/13/137
f 7/7/138 132/136/138 8/8/138
f 1/1/139 135/137/139 2/2/139
f 130/130/140 126/126/140 127/127/140
f 129/129/141 124/124/141 126/126/141
f 124/124/142 12/12/142 125/125/142
f 127/127/143 121/121/143 123/123/143
f 126/126/101 119/119/103 121/121/144
f 119/119/145 125/125/145 120/120/145
f 122/122/146 121/121/146 136/138/146
f 121/121/147 118/118/147 136/138/147
f 118/118/148 120/120/111 132/132/110
f 117/117/149 113/113/149 114/114/149
f 113/113/88 115/115/150 112/112/89
f 112/112/151 1/1/151 80/80/151
f 114/114/152 110/110/152 111/111/152
f 113/113/92 109/109/153 110/110/93
f 109/109/154 80/80/154 78/78/154
f 111/111/155 107/107/155 108/108/155
f 110/110/156 106/106/156 107/107/156
f 106/106/157 78/78/157 76/76/157
f 108/108/158 104/104/158 105/105/158
f 107/107/159 103/103/159 104/104/159
f 106/106/160 72/72/160 103/103/160
f 105/105/77 101/101/77 102/102/77
f 104/104/161 100/100/161 101/101/161
f 103/103/162 70/70/162 100/100/162
f 99/99/163 101/101/163 98/98/163
f 98/98/164 100/100/164 97/97/164
f 97/97/165 70/70/165 68/68/165
f 99/99/71 95/95/71 96/96/71
f 95/95/69 97/97/166 94/94/70
f 94/94/167 68/68/167 69/69/167
f 93/93/168 95/95/168 92/92/168
f 92/92/169 94/94/169 91/91/169
f 91/91/170 69/69/170 66/66/170
f 93/93/63 89/89/63 90/90/63
f 92/92/171 88/88/171 89/89/171
f 88/88/59 66/66/120 64/64/60
f 87/87/172 89/89/172 85/85/172
f 89/89/173 84/84/173 85/85/173
f 88/88/174 62/62/174 84/84/174
f 86/86/175 85/85/175 137/139/175
f 85/85/175 83/83/175 137/139/175
f 83/83/176 62/62/176 59/59/176
f 82/82/177 56/56/177 57/57/177
f 81/81/178 55/55/178 56/56/178
f 58/58/179 47/47/179 55/55/179
f 57/57/36 53/53/36 54/54/36
f 56/56/180 52/52/180 53/53/180
f 55/55/181 45/45/181 52/52/181
f 51/51/182 53/53/182 50/50/182
f 50/50/183 52/52/183 49/49/183
f 49/49/184 45/45/184 43/43/184
f 51/51/185 29/29/185 48/48/185
f 50/50/186 27/27/186 29/29/186
f 27/27/187 43/43/187 28/28/187
f 48/48/188 25/25/188 26/26/188
f 29/29/189 23/23/189 25/25/189
f 23/23/190 28/28/190 24/24/190
f 26/26/191 21/21/191 22/22/191
f 25/25/192 19/19/192 21/21/192
f 19/19/193 24/24/193 20/20/193
f 22/22/194 17/17/194 18/18/194
f 21/21/195 15/15/195 17/17/195
f 19/19/196 16/16/196 15/15/196
f 18/18/197 4/4/197 10/10/197
f 17/17/198 5/5/198 4/4/198
f 5/5/199 16/16/199 37/37/199
f 10/10/200 11/11/200 138/140/200
f 4/4/201 6/6/201 11/11/201
f 5/5/202 33/33/202 6/6/202
f 139/141/203 11/11/203 140/142/203
f 140/142/204 6/6/204 141/143/204
f 6/6/205 34/34/205 141/143/205
f 142/144/206 140/142/206 143/145/206
f 143/145/207 141/143/207 144/146/207
f 144/146/208 34/34/208 30/30/208
f 2/147/209 129/129/209 130/130/209
f 135/148/210 128/128/210 129/129/210
f 145/149/211 12/12/211 128/128/211
f 122/150/212 81/81/212 82/82/212
f 81/81/213 118/151/213 58/58/213
f 58/58/214 132/136/214 7/7/214
f 13/152/215 116/116/215 117/117/215
f 134/153/216 115/115/216 116/116/216
f 145/154/217 1/1/217 115/115/217
f 5/5/218 37/37/218 33/33/218
f 139/141/200 138/140/200 11/11/200
f 140/142/219 11/11/219 6/6/219
f 6/6/220 33/33/220 34/34/220
f 142/144/221 139/141/221 140/142/221
f 143/145/222 140/142/222 141/143/222
f 144/146/223 141/143/223 34/34/223
f 2/147/224 135/148/224 129/129/224
f 135/148/225 145/149/225 128/128/225
f 145/149/226 134/135/226 12/12/226
f 122/150/227 136/155/227 81/81/227
f 81/81/228 136/155/228 118/151/228
f 58/58/229 118/151/229 132/136/229
f 13/152/230 134/153/230 116/116/230
f 134/153/231 145/154/231 115/115/231
f 145/154/232 135/137/232 1/1/232
