# Blender v2.79 (sub 0) OBJ File: 'dungeon_003.blend'
# www.blender.org
mtllib dungeon_003_wall_1td_001.mtl
o dungeon_003_wall_1td_001_Cube.004
v -0.500000 0.000000 0.500000
v -0.500000 3.000000 0.500000
v -0.500000 0.000000 -0.500000
v -0.500000 3.000000 -0.500000
v 0.500000 0.000000 0.500000
v 0.500000 0.000000 -0.500000
v -0.250000 0.500000 0.500000
v -0.250000 2.500000 0.500000
v -0.250000 2.500000 -0.500000
v -0.250000 0.500000 -0.500000
v 0.250000 0.500000 -0.500000
v 0.250000 0.500000 0.500000
v -0.500000 3.000000 0.000000
v -0.250000 2.500000 0.000000
v -0.370833 2.716667 0.250000
v -0.370833 2.716667 0.150000
v -0.370833 2.716667 -0.150000
v -0.370833 2.716666 -0.250000
v -0.406667 2.783334 0.250000
v -0.406667 2.783334 0.150000
v -0.406667 2.783334 -0.150000
v -0.406667 2.783334 -0.250000
v -0.370833 2.691667 -0.200000
v -0.406667 2.808334 -0.200000
v -0.370833 2.691667 0.200000
v -0.406667 2.808334 0.200000
v -0.388750 2.750000 0.275000
v -0.388750 2.750000 0.125000
v -0.388750 2.750000 -0.125000
v -0.388750 2.750000 -0.275000
v -0.466829 2.736264 0.240000
v -0.481163 2.770719 0.260000
v -0.480523 2.795828 0.247604
v -0.471245 2.809598 0.200000
v -0.480523 2.797385 0.160000
v -0.481163 2.762931 0.147604
v -0.466829 2.736264 0.160000
v -0.466829 2.716264 0.200000
v -0.466829 2.736264 -0.240000
v -0.466829 2.716264 -0.200000
v -0.466829 2.736264 -0.160000
v -0.481163 2.770719 -0.140000
v -0.480523 2.795828 -0.152396
v -0.471245 2.809598 -0.200000
v -0.480523 2.797385 -0.240000
v -0.481163 2.762931 -0.249521
v -0.573575 2.824722 0.248000
v -0.588940 2.803389 0.232000
v -0.562973 2.846056 0.232000
v -0.562973 2.869542 0.200000
v -0.562973 2.846056 0.168000
v -0.600406 2.824722 0.152000
v -0.599421 2.803389 0.168000
v -0.588940 2.787389 0.200000
v -0.588940 2.787389 -0.200000
v -0.599421 2.803389 -0.232000
v -0.588940 2.803389 -0.168000
v -0.573575 2.824722 -0.152000
v -0.562973 2.846056 -0.168000
v -0.562973 2.869542 -0.200000
v -0.562973 2.846056 -0.232000
v -0.600406 2.824722 -0.248000
v -0.665988 2.973475 0.200000
v -0.665988 2.973475 -0.200000
v 0.500000 3.000000 -0.500000
v 0.500000 3.000000 0.500000
v 0.250000 2.500000 -0.500000
v 0.250000 2.500000 0.500000
v 0.500000 3.000000 -0.000000
v 0.250000 2.500000 -0.056120
v 0.370833 2.716667 -0.250000
v 0.370833 2.716667 -0.150000
v 0.370833 2.716667 0.150000
v 0.370833 2.716666 0.250000
v 0.406667 2.783334 -0.250000
v 0.406667 2.783334 -0.150000
v 0.406667 2.783334 0.150000
v 0.406667 2.783334 0.250000
v 0.370833 2.691667 0.200000
v 0.406667 2.808334 0.200000
v 0.370833 2.691667 -0.200000
v 0.406667 2.808334 -0.200000
v 0.388750 2.750000 -0.275000
v 0.388750 2.750000 -0.125000
v 0.388750 2.750000 0.125000
v 0.388750 2.750000 0.275000
v 0.466829 2.736264 -0.240000
v 0.481163 2.770719 -0.260000
v 0.480523 2.795828 -0.247604
v 0.471244 2.809598 -0.200000
v 0.480523 2.797385 -0.160000
v 0.481163 2.762931 -0.147604
v 0.466829 2.736264 -0.160000
v 0.466829 2.716264 -0.200000
v 0.466829 2.736264 0.240000
v 0.466829 2.716264 0.200000
v 0.466829 2.736264 0.160000
v 0.481163 2.770719 0.140000
v 0.480523 2.795828 0.152396
v 0.471245 2.809598 0.200000
v 0.480523 2.797385 0.240000
v 0.481163 2.762931 0.249521
v 0.573575 2.824722 -0.248000
v 0.588940 2.803389 -0.232000
v 0.562973 2.846056 -0.232000
v 0.562973 2.869542 -0.200000
v 0.562973 2.846056 -0.168000
v 0.600406 2.824722 -0.152000
v 0.599421 2.803389 -0.168000
v 0.588940 2.787389 -0.200000
v 0.588940 2.787389 0.200000
v 0.599421 2.803389 0.232000
v 0.588940 2.803389 0.168000
v 0.573575 2.824722 0.152000
v 0.562973 2.846056 0.168000
v 0.562973 2.869542 0.200000
v 0.562973 2.846056 0.232000
v 0.600406 2.824722 0.248000
v 0.665988 2.973475 -0.200000
v 0.665988 2.973475 0.200000
vt 0.193848 0.509277
vt 0.193848 0.596680
vt 0.038086 0.596680
vt 0.038086 0.509277
vt 0.075684 0.953125
vt 0.071289 0.958496
vt 0.074707 0.965332
vt 0.027344 0.994629
vt 0.038086 0.908203
vt 0.193848 0.908203
vt 0.205078 0.994629
vt 0.156738 0.965332
vt 0.160645 0.958496
vt 0.155762 0.953125
vt 0.141113 0.949707
vt 0.136230 0.956543
vt 0.141602 0.961426
vt 0.090332 0.961914
vt 0.095703 0.956543
vt 0.090332 0.949707
vt 0.149414 0.953613
vt 0.116211 0.909668
vt 0.082031 0.953613
vt 0.285156 0.879883
vt 0.285156 0.801758
vt 0.285156 0.723633
vt 0.440918 0.723633
vt 0.440918 0.801758
vt 0.440918 0.879883
vt 0.218750 0.908203
vt 0.218750 0.596680
vt 0.374512 0.596680
vt 0.374512 0.908203
vt 0.302734 0.910156
vt 0.374512 0.509277
vt 0.218750 0.509277
vt 0.115723 1.000000
vt 0.147949 0.961426
vt 0.083496 0.961426
vt 0.834961 0.715332
vt 0.834473 0.701172
vt 0.790039 0.710938
vt 0.789062 0.722168
vt 0.854004 0.779785
vt 0.825195 0.777344
vt 0.830566 0.789551
vt 0.859375 0.792480
vt 0.846680 0.768555
vt 0.823242 0.768555
vt 0.846191 0.752930
vt 0.825195 0.750977
vt 0.849609 0.737305
vt 0.824219 0.735840
vt 0.858887 0.727051
vt 0.828125 0.723633
vt 0.865234 0.714844
vt 0.865234 0.697266
vt 0.829102 0.802734
vt 0.857910 0.809082
vt 0.724121 0.665039
vt 0.741699 0.664062
vt 0.739258 0.700684
vt 0.728516 0.695801
vt 0.797852 0.627930
vt 0.791504 0.658203
vt 0.777344 0.656738
vt 0.780273 0.626465
vt 0.702637 0.627441
vt 0.704102 0.656250
vt 0.690430 0.656738
vt 0.686035 0.628418
vt 0.714355 0.633301
vt 0.715820 0.662109
vt 0.725098 0.641602
vt 0.741211 0.643066
vt 0.756836 0.641113
vt 0.756836 0.666016
vt 0.767090 0.632324
vt 0.768555 0.663086
vt 0.750488 0.696777
vt 0.790527 0.778809
vt 0.788086 0.789062
vt 0.761230 0.703125
vt 0.792969 0.770020
vt 0.768066 0.702148
vt 0.792969 0.761719
vt 0.779297 0.702148
vt 0.789062 0.750488
vt 0.711914 0.697266
vt 0.701660 0.698730
vt 0.793457 0.740234
vt 0.720703 0.694824
vt 0.788574 0.729004
vt 0.745117 0.747070
vt 0.740234 0.744141
vt 0.254395 0.952637
vt 0.249512 0.956543
vt 0.252930 0.964355
vt 0.205078 0.991699
vt 0.381836 0.998535
vt 0.334473 0.966309
vt 0.338379 0.958984
vt 0.333984 0.954102
vt 0.318848 0.949707
vt 0.313477 0.956543
vt 0.318848 0.962402
vt 0.267578 0.961426
vt 0.272949 0.956543
vt 0.268066 0.949707
vt 0.327637 0.954102
vt 0.259766 0.952637
vt 0.291992 1.000000
vt 0.325684 0.961914
vt 0.261230 0.960938
vt 0.775391 0.838867
vt 0.790039 0.837891
vt 0.778320 0.793945
vt 0.767090 0.793945
vt 0.711426 0.860352
vt 0.713379 0.831543
vt 0.701172 0.836914
vt 0.699219 0.866699
vt 0.722168 0.852539
vt 0.721680 0.829590
vt 0.738281 0.852051
vt 0.739258 0.831055
vt 0.754395 0.854492
vt 0.754395 0.829102
vt 0.764160 0.863770
vt 0.766602 0.832520
vt 0.777344 0.869629
vt 0.794434 0.868652
vt 0.687988 0.836426
vt 0.682129 0.865234
vt 0.654785 0.759277
vt 0.654785 0.741211
vt 0.690918 0.746094
vt 0.685547 0.756348
vt 0.621094 0.683594
vt 0.651367 0.691406
vt 0.649414 0.705566
vt 0.619141 0.700684
vt 0.616211 0.778809
vt 0.645020 0.779297
vt 0.644531 0.792480
vt 0.615234 0.795410
vt 0.622559 0.767090
vt 0.651367 0.767578
vt 0.631348 0.756836
vt 0.633301 0.741211
vt 0.632324 0.725098
vt 0.657715 0.726562
vt 0.623535 0.714355
vt 0.655273 0.714355
vt 0.687500 0.734375
vt 0.710938 0.797363
vt 0.700195 0.794922
vt 0.694336 0.724121
vt 0.719238 0.799805
vt 0.694336 0.717285
vt 0.727051 0.798340
vt 0.694824 0.706055
vt 0.738281 0.793945
vt 0.685547 0.772949
vt 0.687012 0.783691
vt 0.749023 0.798828
vt 0.684570 0.764648
vt 0.759766 0.792969
vt 0.740723 0.750488
vt 0.734863 0.747559
vn -0.8944 0.4472 0.0000
vn -0.8919 -0.4495 -0.0496
vn -0.8919 -0.4495 0.0496
vn -0.8808 -0.4734 -0.0000
vn -0.8693 -0.4943 0.0000
vn -0.8734 -0.4871 0.0000
vn 0.0000 1.0000 -0.0000
vn -1.0000 0.0000 0.0000
vn 1.0000 0.0000 -0.0000
vn 0.8944 0.4472 0.0000
vn -0.9156 -0.4021 0.0000
vn -0.9184 -0.3956 0.0000
vn -0.4563 -0.8207 -0.3439
vn -0.2313 -0.6121 0.7562
vn 0.0207 0.5432 0.8393
vn 0.0853 0.9232 0.3748
vn 0.0737 0.9189 -0.3875
vn -0.0980 0.4614 -0.8817
vn -0.2359 -0.6022 -0.7627
vn -0.2234 -0.8718 -0.4359
vn -0.2234 -0.8718 0.4359
vn 0.4579 0.7835 0.4201
vn 0.0207 0.5432 0.8394
vn -0.1223 0.4255 -0.8967
vn -0.2463 -0.5794 -0.7769
vn 0.4601 0.7704 -0.4413
vn -0.4620 -0.7932 0.3966
vn 0.1381 0.3325 -0.9329
vn -0.3568 -0.5019 0.7879
vn -0.2967 -0.5204 -0.8007
vn 0.1551 0.4877 0.8591
vn 0.1453 0.3683 -0.9183
vn -0.3224 -0.5561 -0.7661
vn -0.6188 -0.1347 0.7739
vn 0.3163 0.4636 0.8277
vn 0.6310 0.6254 0.4590
vn 0.6310 0.6254 -0.4590
vn 0.1773 0.3722 -0.9111
vn -0.8983 -0.2894 -0.3305
vn -0.9183 -0.3802 0.1107
vn -0.9075 -0.3757 0.1879
vn 0.8919 -0.4495 0.0496
vn 0.8919 -0.4495 -0.0496
vn 0.8808 -0.4734 -0.0000
vn 0.8689 -0.4951 0.0000
vn 0.8734 -0.4871 -0.0000
vn 0.8696 -0.4937 -0.0000
vn 0.9156 -0.4021 0.0000
vn 0.9184 -0.3956 0.0000
vn 0.4563 -0.8207 0.3439
vn 0.2313 -0.6121 -0.7562
vn -0.0207 0.5432 -0.8393
vn -0.0853 0.9232 -0.3748
vn -0.0737 0.9189 0.3875
vn 0.0980 0.4614 0.8817
vn 0.2359 -0.6022 0.7627
vn 0.2234 -0.8718 0.4359
vn 0.2234 -0.8718 -0.4359
vn -0.4579 0.7835 -0.4201
vn -0.0207 0.5432 -0.8394
vn 0.1223 0.4255 0.8967
vn 0.2463 -0.5794 0.7769
vn -0.4601 0.7704 0.4413
vn 0.4620 -0.7932 -0.3966
vn -0.1381 0.3325 0.9329
vn 0.3568 -0.5019 -0.7879
vn 0.2967 -0.5204 0.8007
vn -0.1551 0.4877 -0.8591
vn -0.1453 0.3683 0.9183
vn 0.3224 -0.5561 0.7661
vn 0.6188 -0.1347 -0.7739
vn -0.3163 0.4636 -0.8277
vn -0.6310 0.6254 -0.4590
vn -0.6310 0.6254 0.4590
vn -0.1773 0.3722 0.9111
vn 0.8983 -0.2894 0.3305
vn 0.9183 -0.3802 -0.1107
vn 0.9075 -0.3757 -0.1879
usemtl None
s off
f 1/1/1 7/2/1 10/3/1 3/4/1
f 18/5/2 30/6/2 22/7/2 4/8/2 9/9/2
f 8/10/3 2/11/3 19/12/3 27/13/3 15/14/3
f 16/15/4 28/16/4 20/17/4 21/18/4 29/19/4 17/20/4
f 8/10/5 15/14/5 25/21/5 16/15/5 14/22/5
f 14/22/6 16/15/6 17/20/6
f 14/22/5 17/20/5 23/23/5 18/5/5 9/9/5
f 4/24/7 13/25/7 2/26/7 66/27/7 69/28/7 65/29/7
f 9/9/8 10/3/8 7/2/8 8/10/8 14/22/8
f 68/30/9 12/31/9 11/32/9 67/33/9 70/34/9
f 6/35/10 11/32/10 12/31/10 5/36/10
f 19/12/11 2/11/11 13/37/11 20/17/11 26/38/11
f 20/17/12 13/37/12 21/18/12
f 21/18/11 13/37/11 4/8/11 22/7/11 24/39/11
f 37/40/13 38/41/13 54/42/13 53/43/13
f 27/44/14 32/45/14 31/46/14 15/47/14
f 19/48/15 33/49/15 32/45/15 27/44/15
f 26/50/16 34/51/16 33/49/16 19/48/16
f 20/52/17 35/53/17 34/51/17 26/50/17
f 28/54/18 36/55/18 35/53/18 20/52/18
f 16/56/19 37/40/19 36/55/19 28/54/19
f 25/57/20 38/41/20 37/40/20 16/56/20
f 15/47/21 31/46/21 38/58/21 25/59/21
f 43/60/22 44/61/22 60/62/22 59/63/22
f 23/64/20 40/65/20 39/66/20 18/67/20
f 17/68/21 41/69/21 40/70/21 23/71/21
f 29/72/14 42/73/14 41/69/14 17/68/14
f 21/74/23 43/60/23 42/73/23 29/72/23
f 24/75/16 44/61/16 43/60/16 21/74/16
f 22/76/17 45/77/17 44/61/17 24/75/17
f 30/78/24 46/79/24 45/77/24 22/76/24
f 18/67/25 39/66/25 46/79/25 30/78/25
f 44/61/26 45/77/26 61/80/26 60/62/26
f 38/58/27 31/46/27 48/81/27 54/82/27
f 45/77/28 46/79/28 62/83/28 61/80/28
f 31/46/29 32/45/29 47/84/29 48/81/29
f 46/79/30 39/66/30 56/85/30 62/83/30
f 32/45/31 33/49/31 49/86/31 47/84/31
f 39/66/13 40/65/13 55/87/13 56/85/13
f 33/49/22 34/51/22 50/88/22 49/86/22
f 40/70/27 41/69/27 57/89/27 55/90/27
f 34/51/26 35/53/26 51/91/26 50/88/26
f 41/69/29 42/73/29 58/92/29 57/89/29
f 35/53/32 36/55/32 52/93/32 51/91/32
f 42/73/31 43/60/31 59/63/31 58/92/31
f 36/55/33 37/40/33 53/43/33 52/93/33
f 47/84/34 63/94/34 48/81/34
f 49/86/35 63/94/35 47/84/35
f 50/88/36 63/94/36 49/86/36
f 51/91/37 63/94/37 50/88/37
f 52/93/38 63/94/38 51/91/38
f 53/43/39 63/94/39 52/93/39
f 54/42/40 63/94/40 53/43/40
f 48/81/41 63/94/41 54/82/41
f 55/87/40 64/95/40 56/85/40
f 57/89/41 64/95/41 55/90/41
f 58/92/34 64/95/34 57/89/34
f 59/63/35 64/95/35 58/92/35
f 60/62/36 64/95/36 59/63/36
f 61/80/37 64/95/37 60/62/37
f 62/83/38 64/95/38 61/80/38
f 56/85/39 64/95/39 62/83/39
f 74/96/42 86/97/42 78/98/42 66/99/42 68/30/42
f 67/33/43 65/100/43 75/101/43 83/102/43 71/103/43
f 72/104/44 84/105/44 76/106/44 77/107/44 85/108/44 73/109/44
f 67/33/45 71/103/45 81/110/45 72/104/45 70/34/45
f 70/34/46 72/104/46 73/109/46
f 70/34/47 73/109/47 79/111/47 74/96/47 68/30/47
f 75/101/48 65/100/48 69/112/48 76/106/48 82/113/48
f 76/106/49 69/112/49 77/107/49
f 77/107/48 69/112/48 66/99/48 78/98/48 80/114/48
f 93/115/50 94/116/50 110/117/50 109/118/50
f 83/119/51 88/120/51 87/121/51 71/122/51
f 75/123/52 89/124/52 88/120/52 83/119/52
f 82/125/53 90/126/53 89/124/53 75/123/53
f 76/127/54 91/128/54 90/126/54 82/125/54
f 84/129/55 92/130/55 91/128/55 76/127/55
f 72/131/56 93/115/56 92/130/56 84/129/56
f 81/132/57 94/116/57 93/115/57 72/131/57
f 71/122/58 87/121/58 94/133/58 81/134/58
f 99/135/59 100/136/59 116/137/59 115/138/59
f 79/139/57 96/140/57 95/141/57 74/142/57
f 73/143/58 97/144/58 96/145/58 79/146/58
f 85/147/51 98/148/51 97/144/51 73/143/51
f 77/149/60 99/135/60 98/148/60 85/147/60
f 80/150/53 100/136/53 99/135/53 77/149/53
f 78/151/54 101/152/54 100/136/54 80/150/54
f 86/153/61 102/154/61 101/152/61 78/151/61
f 74/142/62 95/141/62 102/154/62 86/153/62
f 100/136/63 101/152/63 117/155/63 116/137/63
f 94/133/64 87/121/64 104/156/64 110/157/64
f 101/152/65 102/154/65 118/158/65 117/155/65
f 87/121/66 88/120/66 103/159/66 104/156/66
f 102/154/67 95/141/67 112/160/67 118/158/67
f 88/120/68 89/124/68 105/161/68 103/159/68
f 95/141/50 96/140/50 111/162/50 112/160/50
f 89/124/59 90/126/59 106/163/59 105/161/59
f 96/145/64 97/144/64 113/164/64 111/165/64
f 90/126/63 91/128/63 107/166/63 106/163/63
f 97/144/66 98/148/66 114/167/66 113/164/66
f 91/128/69 92/130/69 108/168/69 107/166/69
f 98/148/68 99/135/68 115/138/68 114/167/68
f 92/130/70 93/115/70 109/118/70 108/168/70
f 103/159/71 119/169/71 104/156/71
f 105/161/72 119/169/72 103/159/72
f 106/163/73 119/169/73 105/161/73
f 107/166/74 119/169/74 106/163/74
f 108/168/75 119/169/75 107/166/75
f 109/118/76 119/169/76 108/168/76
f 110/117/77 119/169/77 109/118/77
f 104/156/78 119/169/78 110/157/78
f 111/162/77 120/170/77 112/160/77
f 113/164/78 120/170/78 111/165/78
f 114/167/71 120/170/71 113/164/71
f 115/138/72 120/170/72 114/167/72
f 116/137/73 120/170/73 115/138/73
f 117/155/74 120/170/74 116/137/74
f 118/158/75 120/170/75 117/155/75
f 112/160/76 120/170/76 118/158/76
