# Blender v2.79 (sub 0) OBJ File: 'dungeon_003.blend'
# www.blender.org
mtllib dungeon_003_wall_1tt_001.mtl
o dungeon_003_wall_1tt_001_Cube.000
v -0.500000 0.000000 0.500000
v -0.500000 3.000000 0.500000
v -0.500000 0.000000 -0.500000
v -0.500000 3.000000 -0.500000
v -0.250000 0.500000 0.500000
v -0.250000 2.500000 0.500000
v -0.250000 2.500000 -0.500000
v -0.250000 0.500000 -0.500000
v -0.500000 3.000000 0.000000
v -0.250000 2.500000 0.000000
v -0.370833 2.716667 0.250000
v -0.370833 2.716667 0.150000
v -0.370833 2.716667 -0.150000
v -0.370833 2.716666 -0.250000
v -0.406667 2.783334 0.250000
v -0.406667 2.783334 0.150000
v -0.406667 2.783334 -0.150000
v -0.406667 2.783334 -0.250000
v -0.370833 2.691667 -0.200000
v -0.406667 2.808334 -0.200000
v -0.370833 2.691667 0.200000
v -0.406667 2.808334 0.200000
v -0.388750 2.750000 0.275000
v -0.388750 2.750000 0.125000
v -0.388750 2.750000 -0.125000
v -0.388750 2.750000 -0.275000
v -0.466829 2.736264 0.240000
v -0.481163 2.770719 0.260000
v -0.480523 2.795828 0.247604
v -0.471245 2.809598 0.200000
v -0.480523 2.797385 0.160000
v -0.481163 2.762931 0.147604
v -0.466829 2.736264 0.160000
v -0.466829 2.716264 0.200000
v -0.466829 2.736264 -0.240000
v -0.466829 2.716264 -0.200000
v -0.466829 2.736264 -0.160000
v -0.481163 2.770719 -0.140000
v -0.480523 2.795828 -0.152396
v -0.471245 2.809598 -0.200000
v -0.480523 2.797385 -0.240000
v -0.481163 2.762931 -0.249521
v -0.573575 2.824722 0.248000
v -0.588940 2.803389 0.232000
v -0.562973 2.846056 0.232000
v -0.562973 2.869542 0.200000
v -0.562973 2.846056 0.168000
v -0.600406 2.824722 0.152000
v -0.599421 2.803389 0.168000
v -0.588940 2.787389 0.200000
v -0.588940 2.787389 -0.200000
v -0.599421 2.803389 -0.232000
v -0.588940 2.803389 -0.168000
v -0.573575 2.824722 -0.152000
v -0.562973 2.846056 -0.168000
v -0.562973 2.869542 -0.200000
v -0.562973 2.846056 -0.232000
v -0.600406 2.824722 -0.248000
v -0.665988 2.973475 0.200000
v -0.665988 2.973475 -0.200000
v 0.500000 0.000000 0.500000
v 0.500000 0.000000 -0.500000
v 0.250000 0.500000 -0.500000
v 0.250000 0.500000 0.500000
v 0.500000 3.000000 -0.500000
v 0.500000 3.000000 0.500000
v 0.250000 2.500000 -0.500000
v 0.250000 2.500000 0.500000
v 0.500000 0.500000 0.250000
v 0.500000 2.500000 0.250000
v 0.500000 0.500000 -0.250000
v 0.500000 2.500000 -0.250000
v 0.250000 0.500000 -0.250000
v 0.250000 2.500000 -0.250000
v 0.250000 0.500000 0.250000
v 0.250000 2.500000 0.250000
vt 0.229980 0.502441
vt 0.229980 0.590820
vt 0.071777 0.590820
vt 0.071777 0.502441
vt 0.110352 0.952148
vt 0.105469 0.957520
vt 0.109375 0.964844
vt 0.060547 0.994629
vt 0.071777 0.906738
vt 0.229980 0.906738
vt 0.240723 0.995117
vt 0.191895 0.964844
vt 0.196289 0.957520
vt 0.191406 0.952148
vt 0.176270 0.948730
vt 0.171387 0.956055
vt 0.177246 0.961426
vt 0.124512 0.961426
vt 0.129883 0.956543
vt 0.125000 0.949219
vt 0.185059 0.952637
vt 0.150879 0.908203
vt 0.116699 0.952637
vt 0.150391 1.000000
vt 0.183594 0.960938
vt 0.117676 0.960938
vt 0.839844 0.714844
vt 0.848145 0.727051
vt 0.804688 0.745605
vt 0.797852 0.736328
vt 0.817871 0.648438
vt 0.794922 0.667969
vt 0.791992 0.654297
vt 0.814453 0.634277
vt 0.817871 0.662109
vt 0.798340 0.676270
vt 0.827637 0.675781
vt 0.810547 0.689941
vt 0.839355 0.687500
vt 0.818848 0.703613
vt 0.853516 0.690430
vt 0.829590 0.711426
vt 0.866699 0.697266
vt 0.876953 0.711914
vt 0.782715 0.644043
vt 0.803223 0.621582
vt 0.683594 0.815918
vt 0.671875 0.802246
vt 0.702148 0.779785
vt 0.705566 0.791992
vt 0.605469 0.781250
vt 0.633301 0.766113
vt 0.642090 0.778320
vt 0.615234 0.795898
vt 0.667480 0.857910
vt 0.690430 0.837891
vt 0.700195 0.848145
vt 0.679199 0.871094
vt 0.664551 0.844238
vt 0.687500 0.824707
vt 0.664062 0.830078
vt 0.654785 0.816406
vt 0.642578 0.805176
vt 0.663086 0.788086
vt 0.628418 0.802734
vt 0.652344 0.781250
vt 0.691895 0.774414
vt 0.764648 0.687500
vt 0.756348 0.680176
vt 0.689941 0.761230
vt 0.771973 0.692871
vt 0.684570 0.756348
vt 0.776367 0.700195
vt 0.677246 0.746582
vt 0.779785 0.712402
vt 0.717285 0.804688
vt 0.726074 0.812012
vt 0.790039 0.718262
vt 0.709961 0.799316
vt 0.792480 0.730957
vt 0.744629 0.741699
vt 0.737305 0.750977
vt 0.400391 0.909668
vt 0.360840 0.909668
vt 0.360840 0.591309
vt 0.400391 0.591309
vt 0.241211 0.909668
vt 0.241211 0.591309
vt 0.280762 0.591309
vt 0.280762 0.909668
vt 0.320801 0.591309
vt 0.320801 0.909668
vt 0.320801 0.909668
vt 0.320801 0.591309
vt 0.400391 0.502441
vt 0.320801 0.502441
vt 0.400391 0.998535
vt 0.320801 0.998535
vt 0.241211 0.998535
vt 0.320801 0.998535
vt 0.241211 0.502441
vt 0.320801 0.502441
vt 0.069336 0.686523
vt 0.228516 0.686523
vt 0.228516 0.845215
vt 0.069336 0.845215
vt 0.068848 0.766113
vn -0.8944 0.4472 0.0000
vn -0.8919 -0.4495 -0.0496
vn -0.8919 -0.4495 0.0496
vn -0.8808 -0.4734 -0.0000
vn -0.8693 -0.4943 0.0000
vn -0.8734 -0.4871 0.0000
vn -1.0000 0.0000 0.0000
vn -0.9156 -0.4021 0.0000
vn -0.9184 -0.3956 0.0000
vn -0.4563 -0.8207 -0.3439
vn -0.2313 -0.6121 0.7562
vn 0.0207 0.5432 0.8393
vn 0.0853 0.9232 0.3748
vn 0.0737 0.9189 -0.3875
vn -0.0980 0.4614 -0.8817
vn -0.2359 -0.6022 -0.7627
vn -0.2234 -0.8718 -0.4359
vn -0.2234 -0.8718 0.4359
vn 0.4579 0.7835 0.4201
vn 0.0207 0.5432 0.8394
vn -0.1223 0.4255 -0.8967
vn -0.2463 -0.5794 -0.7769
vn 0.4601 0.7704 -0.4413
vn -0.4620 -0.7932 0.3966
vn 0.1381 0.3325 -0.9329
vn -0.3568 -0.5019 0.7879
vn -0.2967 -0.5204 -0.8007
vn 0.1551 0.4877 0.8591
vn 0.1453 0.3683 -0.9183
vn -0.3224 -0.5561 -0.7661
vn -0.6188 -0.1347 0.7739
vn 0.3163 0.4636 0.8277
vn 0.6310 0.6254 0.4590
vn 0.6310 0.6254 -0.4590
vn 0.1773 0.3722 -0.9111
vn -0.8983 -0.2894 -0.3305
vn -0.9183 -0.3802 0.1107
vn -0.9075 -0.3757 0.1879
vn 1.0000 0.0000 0.0000
vn 0.0000 0.0000 1.0000
vn -0.0000 -0.0000 -1.0000
vn 0.8944 0.4472 0.0000
vn 0.0000 0.4472 -0.8944
vn 0.8944 -0.4472 0.0000
vn -0.0000 -0.4472 -0.8944
vn 0.0000 -0.4472 0.8944
vn 0.0000 0.4472 0.8944
vn 0.0000 1.0000 0.0000
usemtl None
s off
f 1/1/1 5/2/1 8/3/1 3/4/1
f 14/5/2 26/6/2 18/7/2 4/8/2 7/9/2
f 6/10/3 2/11/3 15/12/3 23/13/3 11/14/3
f 12/15/4 24/16/4 16/17/4 17/18/4 25/19/4 13/20/4
f 6/10/5 11/14/5 21/21/5 12/15/5 10/22/5
f 10/22/6 12/15/6 13/20/6
f 10/22/5 13/20/5 19/23/5 14/5/5 7/9/5
f 7/9/7 8/3/7 5/2/7 6/10/7 10/22/7
f 15/12/8 2/11/8 9/24/8 16/17/8 22/25/8
f 16/17/9 9/24/9 17/18/9
f 17/18/8 9/24/8 4/8/8 18/7/8 20/26/8
f 33/27/10 34/28/10 50/29/10 49/30/10
f 23/31/11 28/32/11 27/33/11 11/34/11
f 15/35/12 29/36/12 28/32/12 23/31/12
f 22/37/13 30/38/13 29/36/13 15/35/13
f 16/39/14 31/40/14 30/38/14 22/37/14
f 24/41/15 32/42/15 31/40/15 16/39/15
f 12/43/16 33/27/16 32/42/16 24/41/16
f 21/44/17 34/28/17 33/27/17 12/43/17
f 11/34/18 27/33/18 34/45/18 21/46/18
f 39/47/19 40/48/19 56/49/19 55/50/19
f 19/51/17 36/52/17 35/53/17 14/54/17
f 13/55/18 37/56/18 36/57/18 19/58/18
f 25/59/11 38/60/11 37/56/11 13/55/11
f 17/61/20 39/47/20 38/60/20 25/59/20
f 20/62/13 40/48/13 39/47/13 17/61/13
f 18/63/14 41/64/14 40/48/14 20/62/14
f 26/65/21 42/66/21 41/64/21 18/63/21
f 14/54/22 35/53/22 42/66/22 26/65/22
f 40/48/23 41/64/23 57/67/23 56/49/23
f 34/45/24 27/33/24 44/68/24 50/69/24
f 41/64/25 42/66/25 58/70/25 57/67/25
f 27/33/26 28/32/26 43/71/26 44/68/26
f 42/66/27 35/53/27 52/72/27 58/70/27
f 28/32/28 29/36/28 45/73/28 43/71/28
f 35/53/10 36/52/10 51/74/10 52/72/10
f 29/36/19 30/38/19 46/75/19 45/73/19
f 36/57/24 37/56/24 53/76/24 51/77/24
f 30/38/23 31/40/23 47/78/23 46/75/23
f 37/56/26 38/60/26 54/79/26 53/76/26
f 31/40/29 32/42/29 48/80/29 47/78/29
f 38/60/28 39/47/28 55/50/28 54/79/28
f 32/42/30 33/27/30 49/30/30 48/80/30
f 43/71/31 59/81/31 44/68/31
f 45/73/32 59/81/32 43/71/32
f 46/75/33 59/81/33 45/73/33
f 47/78/34 59/81/34 46/75/34
f 48/80/35 59/81/35 47/78/35
f 49/30/36 59/81/36 48/80/36
f 50/29/37 59/81/37 49/30/37
f 44/68/38 59/81/38 50/69/38
f 51/74/37 60/82/37 52/72/37
f 53/76/38 60/82/38 51/77/38
f 54/79/31 60/82/31 53/76/31
f 55/50/32 60/82/32 54/79/32
f 56/49/33 60/82/33 55/50/33
f 57/67/34 60/82/34 56/49/34
f 58/70/35 60/82/35 57/67/35
f 52/72/36 60/82/36 58/70/36
f 67/83/39 74/84/39 73/85/39 63/86/39
f 68/87/39 64/88/39 75/89/39 76/90/39
f 76/90/40 75/89/40 69/91/40 70/92/40
f 72/93/41 71/94/41 73/85/41 74/84/41
f 62/95/42 63/86/42 73/85/42
f 62/96/43 73/85/43 71/94/43
f 65/97/44 74/84/44 67/83/44
f 74/84/45 65/98/45 72/93/45
f 68/87/44 76/90/44 66/99/44
f 66/100/46 76/90/46 70/92/46
f 61/101/42 75/89/42 64/88/42
f 69/91/47 75/89/47 61/102/47
f 2/103/48 66/104/48 65/105/48 4/106/48 9/107/48
