# Blender v2.79 (sub 0) OBJ File: 'dungeon_003.blend'
# www.blender.org
mtllib dungeon_003_wall_1tc_001.mtl
o dungeon_003_wall_1tc_001_Cube.007
v 0.500000 0.000000 0.500000
v 0.500000 3.000000 0.500000
v -0.500000 0.000000 0.500000
v -0.500000 3.000000 0.500000
v 0.500000 0.500000 0.250000
v 0.500000 2.500000 0.250000
v -0.250000 2.500000 0.250000
v -0.250000 0.500000 0.250000
v 0.000000 3.000000 0.500000
v 0.000000 2.500000 0.250000
v 0.250000 2.716667 0.370833
v 0.150000 2.716667 0.370833
v -0.150000 2.716667 0.370833
v -0.250000 2.716666 0.370833
v 0.250000 2.783334 0.406667
v 0.150000 2.783334 0.406667
v -0.150000 2.783334 0.406667
v -0.250000 2.783334 0.406667
v -0.200000 2.691667 0.370833
v -0.200000 2.808334 0.406667
v 0.200000 2.691667 0.370833
v 0.200000 2.808334 0.406667
v 0.275000 2.750000 0.388750
v 0.125000 2.750000 0.388750
v -0.125000 2.750000 0.388750
v -0.275000 2.750000 0.388750
v 0.240000 2.736264 0.466829
v 0.260000 2.770719 0.481163
v 0.247604 2.795828 0.480523
v 0.200000 2.809598 0.471245
v 0.160000 2.797385 0.480523
v 0.147604 2.762931 0.481163
v 0.160000 2.736264 0.466829
v 0.200000 2.716264 0.466829
v -0.240000 2.736264 0.466829
v -0.200000 2.716264 0.466829
v -0.160000 2.736264 0.466829
v -0.140000 2.770719 0.481163
v -0.152396 2.795828 0.480523
v -0.200000 2.809598 0.471245
v -0.240000 2.797385 0.480523
v -0.249521 2.762931 0.481163
v 0.248000 2.824722 0.573575
v 0.232000 2.803389 0.588940
v 0.232000 2.846056 0.562973
v 0.200000 2.869542 0.562973
v 0.168000 2.846056 0.562973
v 0.152000 2.824722 0.600406
v 0.168000 2.803389 0.599421
v 0.200000 2.787389 0.588940
v -0.200000 2.787389 0.588940
v -0.232000 2.803389 0.599421
v -0.168000 2.803389 0.588940
v -0.152000 2.824722 0.573575
v -0.168000 2.846056 0.562973
v -0.200000 2.869542 0.562973
v -0.232000 2.846056 0.562973
v -0.248000 2.824722 0.600406
v 0.200000 2.973475 0.665988
v -0.200000 2.973475 0.665988
v -0.500000 0.000000 -0.500000
v -0.500000 3.000000 -0.500000
v -0.250000 2.500000 -0.500000
v -0.250000 0.500000 -0.500000
v -0.500000 3.000000 0.000000
v -0.250000 2.500000 0.000000
v -0.370833 2.716667 0.250000
v -0.370833 2.716667 0.150000
v -0.370833 2.716667 -0.150000
v -0.370833 2.716666 -0.250000
v -0.406667 2.783334 0.250000
v -0.406667 2.783334 0.150000
v -0.406667 2.783334 -0.150000
v -0.406667 2.783334 -0.250000
v -0.370833 2.691667 -0.200000
v -0.406667 2.808334 -0.200000
v -0.370833 2.691667 0.200000
v -0.406667 2.808334 0.200000
v -0.388750 2.750000 0.275000
v -0.388750 2.750000 0.125000
v -0.388750 2.750000 -0.125000
v -0.388750 2.750000 -0.275000
v -0.466829 2.736264 0.240000
v -0.481163 2.770719 0.260000
v -0.480523 2.795828 0.247604
v -0.471245 2.809598 0.200000
v -0.480523 2.797385 0.160000
v -0.481163 2.762931 0.147604
v -0.466829 2.736264 0.160000
v -0.466829 2.716264 0.200000
v -0.466829 2.736264 -0.240000
v -0.466829 2.716264 -0.200000
v -0.466829 2.736264 -0.160000
v -0.481163 2.770719 -0.140000
v -0.480523 2.795828 -0.152396
v -0.471245 2.809598 -0.200000
v -0.480523 2.797385 -0.240000
v -0.481163 2.762931 -0.249521
v -0.573575 2.824722 0.248000
v -0.588940 2.803389 0.232000
v -0.562973 2.846056 0.232000
v -0.562973 2.869542 0.200000
v -0.562973 2.846056 0.168000
v -0.600406 2.824722 0.152000
v -0.599421 2.803389 0.168000
v -0.588940 2.787389 0.200000
v -0.588940 2.787389 -0.200000
v -0.599421 2.803389 -0.232000
v -0.588940 2.803389 -0.168000
v -0.573575 2.824722 -0.152000
v -0.562973 2.846056 -0.168000
v -0.562973 2.869542 -0.200000
v -0.562973 2.846056 -0.232000
v -0.600406 2.824722 -0.248000
v -0.665988 2.973475 0.200000
v -0.665988 2.973475 -0.200000
v 0.500000 0.000000 -0.500000
v 0.250000 0.500000 -0.500000
v 0.500000 3.000000 -0.500000
v 0.250000 2.500000 -0.500000
v 0.500000 0.500000 -0.250000
v 0.500000 2.500000 -0.250000
v 0.250000 0.500000 -0.250000
v 0.250000 2.500000 -0.250000
vt 0.473145 0.514160
vt 0.473145 0.592773
vt 0.354492 0.592773
vt 0.315430 0.514160
vt 0.354492 0.942383
vt 0.350586 0.947754
vt 0.354492 0.953125
vt 0.315430 0.986816
vt 0.354492 0.908203
vt 0.473145 0.908203
vt 0.473145 0.986816
vt 0.434082 0.953125
vt 0.437988 0.947754
vt 0.434082 0.942383
vt 0.417969 0.942383
vt 0.414062 0.947754
vt 0.417969 0.953125
vt 0.370605 0.953125
vt 0.374512 0.947754
vt 0.370605 0.942383
vt 0.425781 0.938477
vt 0.394531 0.908203
vt 0.362793 0.938477
vt 0.394531 0.986816
vt 0.425781 0.957031
vt 0.362793 0.957031
vt 0.833008 0.773438
vt 0.833496 0.787598
vt 0.788574 0.779785
vt 0.787598 0.768555
vt 0.850098 0.707520
vt 0.820801 0.711914
vt 0.825684 0.699219
vt 0.854492 0.694824
vt 0.842773 0.719238
vt 0.819336 0.720703
vt 0.843262 0.734863
vt 0.822266 0.737793
vt 0.847168 0.750977
vt 0.821777 0.753418
vt 0.856934 0.760742
vt 0.826172 0.765137
vt 0.863770 0.772949
vt 0.864258 0.790527
vt 0.823730 0.686035
vt 0.852051 0.678223
vt 0.720703 0.663086
vt 0.738281 0.661621
vt 0.736328 0.698730
vt 0.725098 0.693848
vt 0.793945 0.625000
vt 0.788574 0.655273
vt 0.774414 0.654297
vt 0.776855 0.623535
vt 0.699219 0.625000
vt 0.700195 0.654785
vt 0.687012 0.655273
vt 0.682129 0.626465
vt 0.711426 0.630859
vt 0.711914 0.660645
vt 0.721680 0.639160
vt 0.737793 0.640625
vt 0.753418 0.638184
vt 0.753418 0.664062
vt 0.764160 0.629395
vt 0.765625 0.660156
vt 0.747070 0.694824
vt 0.786133 0.711914
vt 0.783203 0.701660
vt 0.757812 0.700195
vt 0.789062 0.720215
vt 0.765137 0.699707
vt 0.789062 0.728516
vt 0.776367 0.700195
vt 0.785645 0.739746
vt 0.708984 0.694824
vt 0.698242 0.696777
vt 0.791016 0.750000
vt 0.717285 0.692871
vt 0.786133 0.761719
vt 0.741699 0.745605
vt 0.737305 0.742188
vt 0.212891 0.511230
vt 0.172852 0.590820
vt 0.053223 0.590820
vt 0.053223 0.511230
vt 0.093262 0.943359
vt 0.089844 0.949219
vt 0.093262 0.954102
vt 0.053223 0.988770
vt 0.053223 0.909180
vt 0.172852 0.909180
vt 0.212891 0.988770
vt 0.172852 0.954102
vt 0.176758 0.949219
vt 0.172852 0.943359
vt 0.156738 0.943359
vt 0.152832 0.949219
vt 0.156738 0.954102
vt 0.109375 0.954102
vt 0.113281 0.949219
vt 0.109375 0.943359
vt 0.164551 0.939941
vt 0.133301 0.909180
vt 0.101562 0.939941
vt 0.133301 0.988770
vt 0.164551 0.958496
vt 0.101562 0.958496
vt 0.703613 0.829590
vt 0.689453 0.829102
vt 0.700195 0.784668
vt 0.711426 0.784668
vt 0.767578 0.851074
vt 0.766113 0.821777
vt 0.777832 0.827637
vt 0.780273 0.856934
vt 0.756836 0.843262
vt 0.757324 0.819824
vt 0.740723 0.842773
vt 0.739746 0.821289
vt 0.724609 0.845215
vt 0.724609 0.819824
vt 0.714355 0.854004
vt 0.712402 0.823242
vt 0.701660 0.860352
vt 0.684082 0.859375
vt 0.791504 0.826660
vt 0.796875 0.855469
vt 0.652832 0.765137
vt 0.650391 0.748047
vt 0.687500 0.747070
vt 0.683594 0.758301
vt 0.609375 0.694824
vt 0.640137 0.698242
vt 0.640137 0.712891
vt 0.609375 0.712402
vt 0.617188 0.790039
vt 0.646484 0.786621
vt 0.647949 0.799805
vt 0.619141 0.806641
vt 0.622070 0.777344
vt 0.651367 0.774414
vt 0.629395 0.766113
vt 0.629395 0.750488
vt 0.625977 0.734375
vt 0.651367 0.732422
vt 0.616211 0.725098
vt 0.646973 0.720703
vt 0.682617 0.736328
vt 0.768555 0.787598
vt 0.778809 0.785156
vt 0.687500 0.725098
vt 0.759766 0.790039
vt 0.686035 0.718262
vt 0.751465 0.789062
vt 0.685547 0.707031
vt 0.740234 0.784668
vt 0.686035 0.774902
vt 0.688477 0.785156
vt 0.729980 0.789062
vt 0.683105 0.766602
vt 0.718750 0.783203
vt 0.738281 0.740723
vt 0.730957 0.742676
vt 0.302734 0.907715
vt 0.263672 0.907715
vt 0.263672 0.593750
vt 0.302734 0.593750
vt 0.224121 0.907715
vt 0.224121 0.593750
vt 0.302734 0.505859
vt 0.224121 0.505859
vt 0.302734 0.995117
vt 0.224121 0.995117
vt 0.346191 0.777832
vt 0.221680 0.777832
vt 0.221680 0.654297
vt 0.283691 0.654297
vt 0.346191 0.654297
vt 0.346191 0.716309
vn 0.0000 0.4472 0.8944
vn -0.0981 -0.4818 0.8708
vn 0.0496 -0.4495 0.8919
vn 0.0000 -0.4734 0.8808
vn 0.0000 -0.4943 0.8693
vn 0.0000 -0.4871 0.8734
vn 0.0000 -0.4996 0.8663
vn 0.0000 -0.0000 1.0000
vn 0.0000 -0.4021 0.9156
vn 0.0000 -0.3956 0.9184
vn -0.3439 -0.8207 0.4563
vn 0.7562 -0.6121 0.2313
vn 0.8394 0.5432 -0.0207
vn 0.3748 0.9232 -0.0853
vn -0.3875 0.9189 -0.0737
vn -0.8817 0.4614 0.0980
vn -0.7627 -0.6022 0.2360
vn -0.4359 -0.8718 0.2234
vn 0.4359 -0.8718 0.2234
vn 0.4201 0.7835 -0.4579
vn -0.8967 0.4255 0.1223
vn -0.7769 -0.5794 0.2463
vn -0.4413 0.7704 -0.4601
vn 0.3966 -0.7932 0.4620
vn -0.9329 0.3325 -0.1381
vn 0.7879 -0.5019 0.3568
vn -0.8007 -0.5204 0.2967
vn 0.8591 0.4877 -0.1551
vn -0.9183 0.3683 -0.1453
vn -0.7661 -0.5561 0.3224
vn 0.7739 -0.1347 0.6188
vn 0.8277 0.4636 -0.3163
vn 0.4590 0.6254 -0.6310
vn -0.4590 0.6254 -0.6310
vn -0.9111 0.3722 -0.1773
vn -0.3305 -0.2894 0.8983
vn 0.1107 -0.3802 0.9183
vn 0.1879 -0.3757 0.9075
vn -0.8944 0.4472 0.0000
vn -0.8919 -0.4495 -0.0496
vn -0.8708 -0.4818 0.0981
vn -0.8808 -0.4734 -0.0000
vn -0.8663 -0.4996 0.0000
vn -0.8734 -0.4871 0.0000
vn -0.8693 -0.4943 0.0000
vn -1.0000 0.0000 0.0000
vn -0.9156 -0.4021 0.0000
vn -0.9184 -0.3956 0.0000
vn -0.4563 -0.8207 -0.3439
vn -0.2313 -0.6121 0.7562
vn 0.0207 0.5432 0.8393
vn 0.0853 0.9232 0.3748
vn 0.0737 0.9189 -0.3875
vn -0.0980 0.4614 -0.8817
vn -0.2359 -0.6022 -0.7627
vn -0.2234 -0.8718 -0.4359
vn -0.2234 -0.8718 0.4359
vn 0.4579 0.7835 0.4201
vn 0.0207 0.5432 0.8394
vn -0.1223 0.4255 -0.8967
vn -0.2463 -0.5794 -0.7769
vn 0.4601 0.7704 -0.4413
vn -0.4620 -0.7932 0.3966
vn 0.1381 0.3325 -0.9329
vn -0.3568 -0.5019 0.7879
vn -0.2967 -0.5204 -0.8007
vn 0.1551 0.4877 0.8591
vn 0.1453 0.3683 -0.9183
vn -0.3224 -0.5561 -0.7661
vn -0.6188 -0.1347 0.7739
vn 0.3163 0.4636 0.8277
vn 0.6310 0.6254 0.4590
vn 0.6310 0.6254 -0.4590
vn 0.1773 0.3722 -0.9111
vn -0.8983 -0.2894 -0.3305
vn -0.9183 -0.3802 0.1107
vn -0.9075 -0.3757 0.1879
vn 1.0000 0.0000 0.0000
vn -0.0000 -0.0000 -1.0000
vn 0.8944 0.4472 0.0000
vn 0.0000 0.4472 -0.8944
vn 0.8944 -0.4472 0.0000
vn -0.0000 -0.4472 -0.8944
vn 0.0000 1.0000 -0.0000
usemtl None
s off
f 1/1/1 5/2/1 8/3/1 3/4/1
f 14/5/2 26/6/2 18/7/2 4/8/2 7/9/2
f 6/10/3 2/11/3 15/12/3 23/13/3 11/14/3
f 12/15/4 24/16/4 16/17/4 17/18/4 25/19/4 13/20/4
f 6/10/5 11/14/5 21/21/5 12/15/5 10/22/5
f 10/22/6 12/15/6 13/20/6
f 10/22/7 13/20/7 19/23/7 14/5/7 7/9/7
f 7/9/8 8/3/8 5/2/8 6/10/8 10/22/8
f 15/12/9 2/11/9 9/24/9 16/17/9 22/25/9
f 16/17/10 9/24/10 17/18/10
f 17/18/9 9/24/9 4/8/9 18/7/9 20/26/9
f 33/27/11 34/28/11 50/29/11 49/30/11
f 23/31/12 28/32/12 27/33/12 11/34/12
f 15/35/13 29/36/13 28/32/13 23/31/13
f 22/37/14 30/38/14 29/36/14 15/35/14
f 16/39/15 31/40/15 30/38/15 22/37/15
f 24/41/16 32/42/16 31/40/16 16/39/16
f 12/43/17 33/27/17 32/42/17 24/41/17
f 21/44/18 34/28/18 33/27/18 12/43/18
f 11/34/19 27/33/19 34/45/19 21/46/19
f 39/47/20 40/48/20 56/49/20 55/50/20
f 19/51/18 36/52/18 35/53/18 14/54/18
f 13/55/19 37/56/19 36/57/19 19/58/19
f 25/59/12 38/60/12 37/56/12 13/55/12
f 17/61/13 39/47/13 38/60/13 25/59/13
f 20/62/14 40/48/14 39/47/14 17/61/14
f 18/63/15 41/64/15 40/48/15 20/62/15
f 26/65/21 42/66/21 41/64/21 18/63/21
f 14/54/22 35/53/22 42/66/22 26/65/22
f 40/48/23 41/64/23 57/67/23 56/49/23
f 34/45/24 27/33/24 44/68/24 50/69/24
f 41/64/25 42/66/25 58/70/25 57/67/25
f 27/33/26 28/32/26 43/71/26 44/68/26
f 42/66/27 35/53/27 52/72/27 58/70/27
f 28/32/28 29/36/28 45/73/28 43/71/28
f 35/53/11 36/52/11 51/74/11 52/72/11
f 29/36/20 30/38/20 46/75/20 45/73/20
f 36/57/24 37/56/24 53/76/24 51/77/24
f 30/38/23 31/40/23 47/78/23 46/75/23
f 37/56/26 38/60/26 54/79/26 53/76/26
f 31/40/29 32/42/29 48/80/29 47/78/29
f 38/60/28 39/47/28 55/50/28 54/79/28
f 32/42/30 33/27/30 49/30/30 48/80/30
f 43/71/31 59/81/31 44/68/31
f 45/73/32 59/81/32 43/71/32
f 46/75/33 59/81/33 45/73/33
f 47/78/34 59/81/34 46/75/34
f 48/80/35 59/81/35 47/78/35
f 49/30/36 59/81/36 48/80/36
f 50/29/37 59/81/37 49/30/37
f 44/68/38 59/81/38 50/69/38
f 51/74/37 60/82/37 52/72/37
f 53/76/38 60/82/38 51/77/38
f 54/79/31 60/82/31 53/76/31
f 55/50/32 60/82/32 54/79/32
f 56/49/33 60/82/33 55/50/33
f 57/67/34 60/82/34 56/49/34
f 58/70/35 60/82/35 57/67/35
f 52/72/36 60/82/36 58/70/36
f 3/83/39 8/84/39 64/85/39 61/86/39
f 70/87/40 82/88/40 74/89/40 62/90/40 63/91/40
f 7/92/41 4/93/41 71/94/41 79/95/41 67/96/41
f 68/97/42 80/98/42 72/99/42 73/100/42 81/101/42 69/102/42
f 7/92/43 67/96/43 77/103/43 68/97/43 66/104/43
f 66/104/44 68/97/44 69/102/44
f 66/104/45 69/102/45 75/105/45 70/87/45 63/91/45
f 63/91/46 64/85/46 8/84/46 7/92/46 66/104/46
f 71/94/47 4/93/47 65/106/47 72/99/47 78/107/47
f 72/99/48 65/106/48 73/100/48
f 73/100/47 65/106/47 62/90/47 74/89/47 76/108/47
f 89/109/49 90/110/49 106/111/49 105/112/49
f 79/113/50 84/114/50 83/115/50 67/116/50
f 71/117/51 85/118/51 84/114/51 79/113/51
f 78/119/52 86/120/52 85/118/52 71/117/52
f 72/121/53 87/122/53 86/120/53 78/119/53
f 80/123/54 88/124/54 87/122/54 72/121/54
f 68/125/55 89/109/55 88/124/55 80/123/55
f 77/126/56 90/110/56 89/109/56 68/125/56
f 67/116/57 83/115/57 90/127/57 77/128/57
f 95/129/58 96/130/58 112/131/58 111/132/58
f 75/133/56 92/134/56 91/135/56 70/136/56
f 69/137/57 93/138/57 92/139/57 75/140/57
f 81/141/50 94/142/50 93/138/50 69/137/50
f 73/143/59 95/129/59 94/142/59 81/141/59
f 76/144/52 96/130/52 95/129/52 73/143/52
f 74/145/53 97/146/53 96/130/53 76/144/53
f 82/147/60 98/148/60 97/146/60 74/145/60
f 70/136/61 91/135/61 98/148/61 82/147/61
f 96/130/62 97/146/62 113/149/62 112/131/62
f 90/127/63 83/115/63 100/150/63 106/151/63
f 97/146/64 98/148/64 114/152/64 113/149/64
f 83/115/65 84/114/65 99/153/65 100/150/65
f 98/148/66 91/135/66 108/154/66 114/152/66
f 84/114/67 85/118/67 101/155/67 99/153/67
f 91/135/49 92/134/49 107/156/49 108/154/49
f 85/118/58 86/120/58 102/157/58 101/155/58
f 92/139/63 93/138/63 109/158/63 107/159/63
f 86/120/62 87/122/62 103/160/62 102/157/62
f 93/138/65 94/142/65 110/161/65 109/158/65
f 87/122/68 88/124/68 104/162/68 103/160/68
f 94/142/67 95/129/67 111/132/67 110/161/67
f 88/124/69 89/109/69 105/112/69 104/162/69
f 99/153/70 115/163/70 100/150/70
f 101/155/71 115/163/71 99/153/71
f 102/157/72 115/163/72 101/155/72
f 103/160/73 115/163/73 102/157/73
f 104/162/74 115/163/74 103/160/74
f 105/112/75 115/163/75 104/162/75
f 106/111/76 115/163/76 105/112/76
f 100/150/77 115/163/77 106/151/77
f 107/156/76 116/164/76 108/154/76
f 109/158/77 116/164/77 107/159/77
f 110/161/70 116/164/70 109/158/70
f 111/132/71 116/164/71 110/161/71
f 112/131/72 116/164/72 111/132/72
f 113/149/73 116/164/73 112/131/73
f 114/152/74 116/164/74 113/149/74
f 108/154/75 116/164/75 114/152/75
f 120/165/78 124/166/78 123/167/78 118/168/78
f 122/169/79 121/170/79 123/167/79 124/166/79
f 117/171/80 118/168/80 123/167/80
f 117/172/81 123/167/81 121/170/81
f 119/173/82 124/166/82 120/165/82
f 124/166/83 119/174/83 122/169/83
f 2/175/84 119/176/84 62/177/84 65/178/84 4/179/84 9/180/84
