# Blender v2.83.5 OBJ File: 'mine_parts.blend'
# www.blender.org
mtllib coins_1_007.mtl
o coins_7_Circle.004
v -0.108487 0.040930 -0.150023
v -0.158414 0.043625 -0.136626
v -0.194963 0.045599 -0.100023
v -0.208341 0.046321 -0.050023
v -0.194963 0.045599 -0.000023
v -0.158414 0.043625 0.036579
v -0.108487 0.040930 0.049977
v -0.058560 0.038234 0.036579
v -0.022010 0.036260 -0.000023
v -0.008632 0.035538 -0.050023
v -0.022010 0.036260 -0.100023
v -0.058560 0.038234 -0.136626
v -0.110557 0.002589 -0.150023
v -0.160484 0.005285 -0.136626
v -0.197034 0.007258 -0.100023
v -0.210412 0.007980 -0.050023
v -0.197034 0.007258 -0.000023
v -0.160484 0.005285 0.036579
v -0.110557 0.002589 0.049977
v -0.060630 -0.000107 0.036579
v -0.024080 -0.002080 -0.000023
v -0.010702 -0.002803 -0.050023
v -0.024080 -0.002080 -0.100023
v -0.060630 -0.000107 -0.136626
v -0.108487 0.040930 -0.050023
v -0.110557 0.002589 -0.050023
v 0.082848 0.010882 0.086902
v 0.086647 0.049090 0.086902
v 0.132603 0.005935 0.000300
v 0.169026 0.002314 0.036902
v 0.182357 0.000988 0.086902
v 0.169026 0.002314 0.136902
v 0.132603 0.005935 0.173505
v 0.082848 0.010882 0.186902
v 0.033093 0.015829 0.173505
v -0.003330 0.019450 0.136902
v -0.016661 0.020775 0.086902
v -0.003330 0.019450 0.036902
v 0.033093 0.015829 0.000300
v 0.082848 0.010882 -0.013098
v 0.136402 0.044143 0.000300
v 0.172825 0.040522 0.036902
v 0.186156 0.039196 0.086902
v 0.172825 0.040522 0.136902
v 0.136402 0.044143 0.173505
v 0.086647 0.049090 0.186902
v 0.036892 0.054037 0.173505
v 0.000469 0.057658 0.136902
v -0.012863 0.058984 0.086902
v 0.000469 0.057658 0.036902
v 0.036892 0.054037 0.000300
v 0.086647 0.049090 -0.013098
v 0.109274 0.053007 -0.143652
v 0.081465 0.050605 -0.187246
v 0.035735 0.052619 -0.211416
v -0.015664 0.058508 -0.209685
v -0.058958 0.066695 -0.182519
v -0.082548 0.074987 -0.137195
v -0.080113 0.081160 -0.085858
v -0.052304 0.083562 -0.042264
v -0.006574 0.081548 -0.018095
v 0.044824 0.075659 -0.019825
v 0.088119 0.067472 -0.046991
v 0.111709 0.059180 -0.092315
v 0.105094 0.015135 -0.138900
v 0.077286 0.012734 -0.182493
v 0.031555 0.014747 -0.206663
v -0.019843 0.020637 -0.204933
v -0.063138 0.028824 -0.177766
v -0.086728 0.037115 -0.132442
v -0.084292 0.043289 -0.081106
v -0.056484 0.045691 -0.037512
v -0.010754 0.043677 -0.013342
v 0.040645 0.037788 -0.015072
v 0.083940 0.029600 -0.042239
v 0.107530 0.021309 -0.087563
v 0.014580 0.067084 -0.114755
v 0.010401 0.029212 -0.110003
v 0.208071 0.070832 -0.071848
v 0.243911 0.060892 -0.107850
v 0.256949 0.054328 -0.157513
v 0.243691 0.052899 -0.207530
v 0.207689 0.056988 -0.244498
v 0.158591 0.065499 -0.258513
v 0.109551 0.076151 -0.245818
v 0.073711 0.086091 -0.209816
v 0.060673 0.092655 -0.160153
v 0.073931 0.094084 -0.110136
v 0.109933 0.089995 -0.073168
v 0.159031 0.081484 -0.059153
v 0.200696 0.033272 -0.068820
v 0.236536 0.023332 -0.104822
v 0.249574 0.016768 -0.154485
v 0.236316 0.015339 -0.204502
v 0.200314 0.019428 -0.241470
v 0.151216 0.027939 -0.255485
v 0.102176 0.038591 -0.242790
v 0.066336 0.048531 -0.206788
v 0.053298 0.055095 -0.157125
v 0.066556 0.056524 -0.107108
v 0.102558 0.052435 -0.070140
v 0.151656 0.043924 -0.056125
v 0.158811 0.073491 -0.158833
v 0.151436 0.035932 -0.155805
v -0.096223 0.060196 0.061324
v -0.145978 0.065143 0.074722
v -0.182401 0.068764 0.111324
v -0.195733 0.070090 0.161324
v -0.182401 0.068764 0.211325
v -0.145978 0.065143 0.247927
v -0.096223 0.060196 0.261324
v -0.046468 0.055250 0.247927
v -0.010046 0.051628 0.211325
v 0.003286 0.050303 0.161325
v -0.010045 0.051628 0.111325
v -0.046468 0.055250 0.074722
v -0.100022 0.021988 0.061324
v -0.149777 0.026935 0.074722
v -0.186200 0.030556 0.111324
v -0.199531 0.031882 0.161324
v -0.186200 0.030556 0.211325
v -0.149777 0.026935 0.247927
v -0.100022 0.021988 0.261324
v -0.050267 0.017041 0.247927
v -0.013844 0.013420 0.211325
v -0.000513 0.012095 0.161325
v -0.013844 0.013420 0.111325
v -0.050267 0.017041 0.074722
v -0.096223 0.060196 0.161325
v -0.100022 0.021988 0.161325
v -0.141827 0.096034 0.089957
v -0.118948 0.097059 0.136379
v -0.075947 0.096391 0.165187
v -0.024346 0.094211 0.168664
v 0.022028 0.091101 0.145877
v 0.050750 0.087896 0.102932
v 0.054123 0.085453 0.051336
v 0.031244 0.084428 0.004914
v -0.011757 0.085096 -0.023895
v -0.063358 0.087276 -0.027372
v -0.109732 0.090386 -0.004584
v -0.138454 0.093591 0.038361
v -0.143561 0.057714 0.091657
v -0.120682 0.058739 0.138079
v -0.077681 0.058072 0.166888
v -0.026080 0.055891 0.170365
v 0.020294 0.052782 0.147578
v 0.049016 0.049576 0.104632
v 0.052389 0.047134 0.053036
v 0.029510 0.046109 0.006615
v -0.013491 0.046776 -0.022194
v -0.065092 0.048956 -0.025671
v -0.111466 0.052066 -0.002884
v -0.140188 0.055271 0.040061
v -0.043852 0.090743 0.070646
v -0.045586 0.052424 0.072347
vt 0.118207 0.541737
vt 0.246728 0.467535
vt 0.192408 0.413216
vt 0.118207 0.393333
vt 0.118207 0.541737
vt 0.118207 0.393333
vt 0.192408 0.413216
vt 0.246728 0.467535
vt -0.010315 0.467535
vt 0.044005 0.413216
vt 0.266610 0.541737
vt 0.246728 0.615939
vt 0.044005 0.670258
vt -0.010315 0.615939
vt 0.118207 0.690141
vt 0.192408 0.670258
vt 0.989685 0.615939
vt 0.969803 0.541737
vt 0.989685 0.467535
vt 1.118207 0.541737
vt 0.044005 0.413216
vt -0.010315 0.467535
vt 0.246728 0.615939
vt 0.266610 0.541737
vt 0.044005 0.670258
vt 0.118207 0.690141
vt -0.010315 0.615939
vt 0.192408 0.670258
vt 0.989685 0.615939
vt 1.118207 0.541737
vt 0.989685 0.467535
vt 0.969803 0.541737
vt 0.275755 0.412736
vt 0.404145 0.338534
vt 0.275755 0.264333
vt 0.255893 0.338534
vt 0.404145 0.486938
vt 0.478271 0.467056
vt 0.532535 0.412736
vt 0.330019 0.467056
vt 0.552398 0.338534
vt 0.532535 0.264333
vt 0.404145 0.190131
vt 0.330019 0.210013
vt 0.278327 0.412736
vt 0.258465 0.338534
vt 0.278327 0.264333
vt 0.406718 0.338534
vt 0.406718 0.486938
vt 0.535108 0.412736
vt 0.480844 0.467056
vt 0.332592 0.467056
vt 0.535108 0.264333
vt 0.554970 0.338534
vt 0.332592 0.210013
vt 0.406718 0.190131
vt 0.480844 0.210013
vt 0.478271 0.210013
vt 0.295321 0.630748
vt 0.262815 0.487301
vt 0.194888 0.523170
vt 0.153871 0.587864
vt 0.298484 0.637801
vt 0.157034 0.594917
vt 0.198051 0.530223
vt 0.265979 0.494354
vt 0.189540 0.738365
vt 0.153919 0.671103
vt 0.342616 0.496921
vt 0.407429 0.537238
vt 0.398918 0.745380
vt 0.330990 0.781249
vt 0.439934 0.680686
vt 0.443049 0.604500
vt 0.254353 0.778681
vt 0.150756 0.664050
vt 0.186377 0.731312
vt 0.404265 0.530185
vt 0.339453 0.489869
vt 0.395754 0.738327
vt 0.436771 0.673632
vt 0.327827 0.774196
vt 0.439886 0.597446
vt 0.251189 0.771628
vt 0.503780 0.698720
vt 0.356819 0.700679
vt 0.376664 0.774381
vt 0.430571 0.827810
vt 0.511704 0.703214
vt 0.438494 0.832303
vt 0.384588 0.778875
vt 0.364742 0.705173
vt 0.585456 0.830345
vt 0.512017 0.851143
vt 0.384275 0.630947
vt 0.437952 0.576084
vt 0.638819 0.627554
vt 0.658665 0.701256
vt 0.584913 0.574126
vt 0.511390 0.555286
vt 0.639132 0.775482
vt 0.504093 0.846649
vt 0.577532 0.825851
vt 0.430028 0.571590
vt 0.376351 0.626452
vt 0.630896 0.623061
vt 0.576990 0.569632
vt 0.650741 0.696763
vt 0.503467 0.550793
vt 0.631209 0.770988
vt 0.132266 0.228089
vt 0.260656 0.153888
vt 0.206392 0.099568
vt 0.132266 0.079686
vt 0.134838 0.228089
vt 0.134838 0.079686
vt 0.208964 0.099568
vt 0.263228 0.153888
vt 0.006448 0.153888
vt 0.060712 0.099568
vt 0.283091 0.228089
vt 0.263228 0.302291
vt 0.060712 0.356611
vt 0.006448 0.302291
vt 0.134838 0.376493
vt 0.208964 0.356611
vt -0.013414 0.228089
vt 0.058140 0.099568
vt 0.003876 0.153888
vt 0.260656 0.302291
vt 0.280518 0.228089
vt 0.058140 0.356611
vt 0.132266 0.376493
vt 0.003876 0.302291
vt 0.206392 0.356611
vt -0.015986 0.228089
vt 0.210498 0.360136
vt 0.258511 0.500438
vt 0.322286 0.457685
vt 0.356108 0.388793
vt 0.210001 0.362659
vt 0.355612 0.391316
vt 0.321790 0.460208
vt 0.258014 0.502962
vt 0.307599 0.251014
vt 0.350418 0.314746
vt 0.181373 0.508121
vt 0.112404 0.474304
vt 0.098213 0.265110
vt 0.161989 0.222357
vt 0.064391 0.334002
vt 0.069585 0.410573
vt 0.238630 0.217197
vt 0.350914 0.312222
vt 0.308096 0.248490
vt 0.112900 0.471781
vt 0.181870 0.505598
vt 0.098710 0.262587
vt 0.064888 0.331478
vt 0.162486 0.219833
vt 0.070082 0.408049
vt 0.239126 0.214674
vt 0.192408 0.648404
vt 0.192408 0.591422
vt 0.118207 0.591422
vt 0.118207 0.648404
vt 0.615939 0.648404
vt 0.615939 0.591422
vt 0.670258 0.591422
vt 0.670258 0.648404
vt 0.541737 0.648404
vt 0.541737 0.591422
vt 0.467535 0.648404
vt 0.467535 0.591422
vt 0.192408 0.648404
vt 0.192408 0.591422
vt 0.246728 0.591422
vt 0.246728 0.648404
vt 0.118207 0.648404
vt 0.118207 0.591422
vt 0.044005 0.648404
vt 0.044005 0.591422
vt 0.467535 0.648404
vt 0.467535 0.591422
vt 0.413216 0.591422
vt 0.413216 0.648404
vt 0.541737 0.648404
vt 0.541737 0.591422
vt 0.615939 0.648404
vt 0.615939 0.591422
vt 0.670258 0.648404
vt 0.670258 0.591422
vt 0.044005 0.591422
vt 0.044005 0.648404
vt 0.406718 0.676109
vt 0.404145 0.619186
vt 0.330019 0.622535
vt 0.332592 0.679459
vt 0.275755 0.624987
vt 0.278327 0.681911
vt 0.412736 0.681911
vt 0.412736 0.624987
vt 0.338534 0.625885
vt 0.338534 0.682808
vt 0.264333 0.624987
vt 0.264333 0.681911
vt 0.278327 0.681911
vt 0.275755 0.624987
vt 0.330019 0.622535
vt 0.332592 0.679459
vt 0.404145 0.619186
vt 0.406718 0.676109
vt 0.478271 0.615836
vt 0.480844 0.672760
vt 0.532535 0.613384
vt 0.535108 0.670308
vt 0.264333 0.670308
vt 0.264333 0.613384
vt 0.338534 0.612486
vt 0.338534 0.669410
vt 0.412736 0.613384
vt 0.412736 0.670308
vt 0.535108 0.670308
vt 0.532535 0.613384
vt 0.478271 0.615836
vt 0.480844 0.672760
vt 0.604500 0.693067
vt 0.597446 0.636612
vt 0.673632 0.627269
vt 0.680686 0.683724
vt 0.537238 0.703466
vt 0.530185 0.647011
vt 0.342616 0.712135
vt 0.339453 0.655680
vt 0.404265 0.647011
vt 0.407429 0.703466
vt 0.265979 0.716750
vt 0.262815 0.660295
vt 0.198051 0.716075
vt 0.194888 0.659620
vt 0.594917 0.710291
vt 0.587864 0.653836
vt 0.523170 0.659620
vt 0.530223 0.716075
vt 0.671103 0.700947
vt 0.664050 0.644492
vt 0.738365 0.690548
vt 0.731312 0.634093
vt 0.254353 0.681880
vt 0.251189 0.625425
vt 0.186377 0.634093
vt 0.189540 0.690548
vt 0.330990 0.677265
vt 0.327827 0.620810
vt 0.398918 0.677940
vt 0.395754 0.621485
vt 0.738327 0.621485
vt 0.745380 0.677940
vt 0.511390 0.729905
vt 0.503467 0.673656
vt 0.576990 0.661794
vt 0.584913 0.718043
vt 0.437952 0.738588
vt 0.430028 0.682339
vt 0.630947 0.741767
vt 0.626452 0.685518
vt 0.571590 0.682339
vt 0.576084 0.738588
vt 0.705173 0.738588
vt 0.700679 0.682339
vt 0.778875 0.729905
vt 0.774381 0.673656
vt 0.438494 0.718043
vt 0.430571 0.661794
vt 0.376664 0.673656
vt 0.384588 0.729905
vt 0.512017 0.706181
vt 0.504093 0.649932
vt 0.585456 0.697497
vt 0.577532 0.641249
vt 0.775482 0.694319
vt 0.770988 0.638070
vt 0.825851 0.641249
vt 0.830345 0.697497
vt 0.701256 0.697497
vt 0.696763 0.641249
vt 0.627554 0.706181
vt 0.623061 0.649932
vt 0.630896 0.649932
vt 0.638819 0.706181
vt 0.208964 0.674586
vt 0.206392 0.617662
vt 0.132266 0.621012
vt 0.134838 0.677936
vt 0.263228 0.672134
vt 0.260656 0.615210
vt 0.228089 0.671237
vt 0.228089 0.614313
vt 0.302291 0.615210
vt 0.302291 0.672134
vt 0.153888 0.672134
vt 0.153888 0.615210
vt 0.208964 0.674586
vt 0.206392 0.617662
vt 0.260656 0.615210
vt 0.263228 0.672134
vt 0.134838 0.677936
vt 0.132266 0.621012
vt 0.060712 0.681285
vt 0.058140 0.624362
vt 0.006448 0.683737
vt 0.003876 0.626814
vt 0.228089 0.684635
vt 0.228089 0.627711
vt 0.153888 0.626814
vt 0.153888 0.683737
vt 0.302291 0.683737
vt 0.302291 0.626814
vt 0.060712 0.681285
vt 0.058140 0.624362
vt 0.003876 0.626814
vt 0.006448 0.683737
vt 0.410573 0.724044
vt 0.408049 0.667120
vt 0.331478 0.670469
vt 0.334002 0.727393
vt 0.474304 0.721592
vt 0.471781 0.664668
vt 0.181373 0.720694
vt 0.181870 0.663770
vt 0.112900 0.664668
vt 0.112404 0.721592
vt 0.258014 0.721592
vt 0.258511 0.664668
vt 0.321790 0.724044
vt 0.322286 0.667120
vt 0.391316 0.727393
vt 0.388793 0.670469
vt 0.457685 0.667120
vt 0.460208 0.724044
vt 0.314746 0.730743
vt 0.312222 0.673819
vt 0.251014 0.733195
vt 0.248490 0.676271
vt 0.238630 0.734092
vt 0.239126 0.677168
vt 0.308096 0.676271
vt 0.307599 0.733195
vt 0.161989 0.733195
vt 0.162486 0.676271
vt 0.098213 0.730743
vt 0.098710 0.673819
vt 0.262587 0.673819
vt 0.265110 0.730743
vn -0.0539 -0.9985 0.0000
vn 0.0539 0.9985 0.0000
vn -0.0989 -0.9951 -0.0000
vn 0.0989 0.9951 0.0000
vn -0.1089 -0.9863 0.1238
vn 0.1089 0.9863 -0.1238
vn -0.1921 -0.9782 0.0789
vn 0.1921 0.9782 -0.0789
vn -0.0452 -0.9980 0.0443
vn 0.0452 0.9980 -0.0443
vn 0.4132 0.6319 -0.6557
vn 0.3428 -0.6727 -0.6557
vn -0.0352 -0.6523 -0.7571
vn 0.0352 0.6523 -0.7571
vn 0.6900 0.6169 -0.3786
vn 0.6195 -0.6876 -0.3786
vn 0.7913 0.6114 0.0000
vn 0.7208 -0.6931 0.0000
vn 0.6900 0.6169 0.3786
vn 0.6195 -0.6876 0.3786
vn 0.4132 0.6319 0.6557
vn 0.3428 -0.6727 0.6557
vn 0.0352 0.6523 0.7571
vn -0.0352 -0.6523 0.7571
vn -0.3428 0.6727 0.6557
vn -0.4132 -0.6319 0.6557
vn -0.6195 0.6876 0.3786
vn -0.6900 -0.6169 0.3786
vn -0.7208 0.6931 0.0000
vn -0.7913 -0.6114 0.0000
vn -0.6195 0.6876 -0.3786
vn -0.6900 -0.6169 -0.3786
vn -0.3428 0.6727 -0.6557
vn -0.4132 -0.6319 -0.6557
vn 0.0646 0.6500 -0.7571
vn -0.0646 -0.6500 -0.7571
vn -0.4413 -0.6126 -0.6557
vn -0.3121 0.6875 -0.6557
vn -0.7171 -0.5851 -0.3786
vn -0.5878 0.7149 -0.3786
vn -0.8180 -0.5751 0.0000
vn -0.6888 0.7249 0.0000
vn -0.7171 -0.5851 0.3786
vn -0.5878 0.7149 0.3786
vn -0.4413 -0.6125 0.6557
vn -0.3121 0.6875 0.6557
vn -0.0646 -0.6500 0.7571
vn 0.0646 0.6500 0.7571
vn 0.3121 -0.6875 0.6557
vn 0.4413 0.6125 0.6557
vn 0.5878 -0.7149 0.3786
vn 0.7171 0.5851 0.3786
vn 0.6888 -0.7249 0.0000
vn 0.8180 0.5751 0.0000
vn 0.5879 -0.7149 -0.3786
vn 0.7171 0.5851 -0.3786
vn 0.3121 -0.6875 -0.6557
vn 0.4413 0.6125 -0.6557
vn 0.8065 0.5844 0.0890
vn 0.6643 -0.7041 0.2507
vn 0.6459 -0.7508 -0.1379
vn 0.7881 0.5377 -0.2996
vn 0.6279 0.6472 0.4322
vn 0.4857 -0.6413 0.5939
vn 0.3001 0.7092 0.6379
vn 0.1579 -0.5793 0.7996
vn -0.0891 0.7538 0.6510
vn -0.2313 -0.5347 0.8127
vn -0.4353 0.7690 0.4680
vn -0.5775 -0.5195 0.6297
vn -0.6459 0.7508 0.1379
vn -0.7881 -0.5377 0.2996
vn -0.6643 0.7041 -0.2507
vn -0.8065 -0.5844 -0.0890
vn -0.4857 0.6413 -0.5939
vn -0.6279 -0.6472 -0.4322
vn -0.1579 0.5793 -0.7996
vn -0.3001 -0.7092 -0.6379
vn 0.2313 0.5347 -0.8127
vn 0.0891 -0.7538 -0.6510
vn 0.5775 0.5195 -0.6297
vn 0.4353 -0.7690 -0.4680
vn 0.1271 0.6995 0.7032
vn -0.1238 -0.5784 0.8062
vn 0.2475 -0.6591 0.7101
vn 0.4984 0.6188 0.6071
vn -0.2446 0.7639 0.5971
vn -0.4955 -0.5140 0.7001
vn -0.5172 0.7949 0.3172
vn -0.7681 -0.4830 0.4202
vn -0.6176 0.7841 -0.0615
vn -0.8685 -0.4939 0.0415
vn -0.5189 0.7344 -0.4375
vn -0.7698 -0.5436 -0.3345
vn -0.2475 0.6591 -0.7101
vn -0.4984 -0.6188 -0.6071
vn 0.1238 0.5784 -0.8062
vn -0.1271 -0.6995 -0.7032
vn 0.4955 0.5140 -0.7001
vn 0.2446 -0.7639 -0.5971
vn 0.7681 0.4830 -0.4202
vn 0.5172 -0.7949 -0.3172
vn 0.8685 0.4939 -0.0415
vn 0.6176 -0.7841 0.0615
vn 0.7698 0.5436 0.3345
vn 0.5189 -0.7344 0.4375
vn -0.4413 -0.6125 -0.6557
vn -0.6868 0.6735 -0.2734
vn -0.7458 -0.6303 -0.2155
vn -0.7713 -0.6118 0.1751
vn -0.7123 0.6919 0.1173
vn -0.4693 0.6492 -0.5985
vn -0.5283 -0.6546 -0.5407
vn -0.1182 0.6257 -0.7711
vn -0.1772 -0.6782 -0.7132
vn 0.2725 0.6091 -0.7447
vn 0.2135 -0.6947 -0.6869
vn 0.5981 0.6041 -0.5266
vn 0.5391 -0.6997 -0.4688
vn 0.7713 0.6118 -0.1751
vn 0.7123 -0.6919 -0.1173
vn 0.7458 0.6303 0.2155
vn 0.6868 -0.6735 0.2734
vn 0.5283 0.6546 0.5407
vn 0.4693 -0.6492 0.5985
vn 0.1772 0.6782 0.7132
vn 0.1182 -0.6257 0.7711
vn -0.2135 0.6947 0.6869
vn -0.2725 -0.6091 0.7447
vn -0.5391 0.6997 0.4688
vn -0.5981 -0.6041 0.5266
usemtl Material
s off
f 26/1/1 21/2/1 20/3/1 19/4/1
f 25/5/2 7/6/2 8/7/2 9/8/2
f 25/5/2 5/9/2 6/10/2 7/6/2
f 25/5/2 9/8/2 10/11/2 11/12/2
f 2/13/2 3/14/2 25/5/2 1/15/2
f 1/15/2 25/5/2 11/12/2 12/16/2
f 3/17/2 4/18/2 5/19/2 25/20/2
f 26/1/1 19/4/1 18/21/1 17/22/1
f 26/1/1 23/23/1 22/24/1 21/2/1
f 14/25/1 13/26/1 26/1/1 15/27/1
f 13/26/1 24/28/1 23/23/1 26/1/1
f 15/29/1 26/30/1 17/31/1 16/32/1
f 38/33/3 27/34/3 36/35/3 37/36/3
f 40/37/3 29/38/3 30/39/3 27/34/3
f 39/40/3 40/37/3 27/34/3 38/33/3
f 27/34/3 30/39/3 31/41/3 32/42/3
f 27/34/3 34/43/3 35/44/3 36/35/3
f 50/45/4 49/46/4 48/47/4 28/48/4
f 52/49/4 28/48/4 42/50/4 41/51/4
f 51/52/4 50/45/4 28/48/4 52/49/4
f 28/48/4 44/53/4 43/54/4 42/50/4
f 28/48/4 48/47/4 47/55/4 46/56/4
f 28/48/4 46/56/4 45/57/4 44/53/4
f 27/34/3 32/42/3 33/58/3 34/43/3
f 78/59/5 73/60/5 72/61/5 71/62/5
f 77/63/6 59/64/6 60/65/6 61/66/6
f 77/63/6 57/67/6 58/68/6 59/64/6
f 77/63/6 61/66/6 62/69/6 63/70/6
f 54/71/6 55/72/6 77/63/6 53/73/6
f 53/73/6 77/63/6 63/70/6 64/74/6
f 55/72/6 56/75/6 57/67/6 77/63/6
f 78/59/5 71/62/5 70/76/5 69/77/5
f 78/59/5 75/78/5 74/79/5 73/60/5
f 66/80/5 65/81/5 78/59/5 67/82/5
f 65/81/5 76/83/5 75/78/5 78/59/5
f 67/82/5 78/59/5 69/77/5 68/84/5
f 104/85/7 99/86/7 98/87/7 97/88/7
f 103/89/8 85/90/8 86/91/8 87/92/8
f 103/89/8 83/93/8 84/94/8 85/90/8
f 103/89/8 87/92/8 88/95/8 89/96/8
f 80/97/8 81/98/8 103/89/8 79/99/8
f 79/99/8 103/89/8 89/96/8 90/100/8
f 81/98/8 82/101/8 83/93/8 103/89/8
f 104/85/7 97/88/7 96/102/7 95/103/7
f 104/85/7 101/104/7 100/105/7 99/86/7
f 92/106/7 91/107/7 104/85/7 93/108/7
f 91/107/7 102/109/7 101/104/7 104/85/7
f 93/108/7 104/85/7 95/103/7 94/110/7
f 130/111/3 125/112/3 124/113/3 123/114/3
f 129/115/4 111/116/4 112/117/4 113/118/4
f 129/115/4 109/119/4 110/120/4 111/116/4
f 129/115/4 113/118/4 114/121/4 115/122/4
f 106/123/4 107/124/4 129/115/4 105/125/4
f 105/125/4 129/115/4 115/122/4 116/126/4
f 107/124/4 108/127/4 109/119/4 129/115/4
f 130/111/3 123/114/3 122/128/3 121/129/3
f 130/111/3 127/130/3 126/131/3 125/112/3
f 118/132/3 117/133/3 130/111/3 119/134/3
f 117/133/3 128/135/3 127/130/3 130/111/3
f 119/134/3 130/111/3 121/129/3 120/136/3
f 156/137/9 151/138/9 150/139/9 149/140/9
f 155/141/10 137/142/10 138/143/10 139/144/10
f 155/141/10 135/145/10 136/146/10 137/142/10
f 155/141/10 139/144/10 140/147/10 141/148/10
f 132/149/10 133/150/10 155/141/10 131/151/10
f 131/151/10 155/141/10 141/148/10 142/152/10
f 133/150/10 134/153/10 135/145/10 155/141/10
f 156/137/9 149/140/9 148/154/9 147/155/9
f 156/137/9 153/156/9 152/157/9 151/138/9
f 144/158/9 143/159/9 156/137/9 145/160/9
f 143/159/9 154/161/9 153/156/9 156/137/9
f 145/160/9 156/137/9 147/155/9 146/162/9
s 1
f 12/163/11 24/164/12 13/165/13 1/166/14
f 11/167/15 23/168/16 24/169/12 12/170/11
f 10/171/17 22/172/18 23/168/16 11/167/15
f 9/173/19 21/174/20 22/172/18 10/171/17
f 8/175/21 20/176/22 21/177/20 9/178/19
f 7/179/23 19/180/24 20/176/22 8/175/21
f 6/181/25 18/182/26 19/180/24 7/179/23
f 5/183/27 17/184/28 18/185/26 6/186/25
f 4/187/29 16/188/30 17/184/28 5/183/27
f 3/189/31 15/190/32 16/188/30 4/187/29
f 2/191/33 14/192/34 15/190/32 3/189/31
f 1/166/14 13/165/13 14/193/34 2/194/33
f 52/195/35 40/196/36 39/197/37 51/198/38
f 51/198/38 39/197/37 38/199/39 50/200/40
f 50/201/40 38/202/39 37/203/41 49/204/42
f 49/204/42 37/203/41 36/205/43 48/206/44
f 48/207/44 36/208/43 35/209/45 47/210/46
f 47/210/46 35/209/45 34/211/47 46/212/48
f 46/212/48 34/211/47 33/213/49 45/214/50
f 45/214/50 33/213/49 32/215/51 44/216/52
f 44/217/52 32/218/51 31/219/53 43/220/54
f 43/220/54 31/219/53 30/221/55 42/222/56
f 42/223/56 30/224/55 29/225/57 41/226/58
f 41/226/58 29/225/57 40/196/36 52/195/35
f 64/227/59 76/228/60 65/229/61 53/230/62
f 63/231/63 75/232/64 76/228/60 64/227/59
f 62/233/65 74/234/66 75/235/64 63/236/63
f 61/237/67 73/238/68 74/234/66 62/233/65
f 60/239/69 72/240/70 73/238/68 61/237/67
f 59/241/71 71/242/72 72/243/70 60/244/69
f 58/245/73 70/246/74 71/242/72 59/241/71
f 57/247/75 69/248/76 70/246/74 58/245/73
f 56/249/77 68/250/78 69/251/76 57/252/75
f 55/253/79 67/254/80 68/250/78 56/249/77
f 54/255/81 66/256/82 67/254/80 55/253/79
f 53/230/62 65/229/61 66/257/82 54/258/81
f 90/259/83 102/260/84 91/261/85 79/262/86
f 89/263/87 101/264/88 102/260/84 90/259/83
f 88/265/89 100/266/90 101/267/88 89/268/87
f 87/269/91 99/270/92 100/266/90 88/265/89
f 86/271/93 98/272/94 99/270/92 87/269/91
f 85/273/95 97/274/96 98/275/94 86/276/93
f 84/277/97 96/278/98 97/274/96 85/273/95
f 83/279/99 95/280/100 96/278/98 84/277/97
f 82/281/101 94/282/102 95/283/100 83/284/99
f 81/285/103 93/286/104 94/282/102 82/281/101
f 80/287/105 92/288/106 93/286/104 81/285/103
f 79/262/86 91/261/85 92/289/106 80/290/105
f 116/291/58 128/292/57 117/293/36 105/294/35
f 115/295/56 127/296/55 128/292/57 116/291/58
f 114/297/54 126/298/53 127/299/55 115/300/56
f 113/301/52 125/302/51 126/298/53 114/297/54
f 112/303/50 124/304/49 125/305/51 113/306/52
f 111/307/48 123/308/47 124/304/49 112/303/50
f 110/309/46 122/310/45 123/308/47 111/307/48
f 109/311/44 121/312/43 122/310/45 110/309/46
f 108/313/42 120/314/41 121/315/43 109/316/44
f 107/317/40 119/318/39 120/314/41 108/313/42
f 106/319/38 118/320/107 119/321/39 107/322/40
f 105/294/35 117/293/36 118/320/107 106/319/38
f 142/323/108 154/324/109 143/325/110 131/326/111
f 141/327/112 153/328/113 154/324/109 142/323/108
f 140/329/114 152/330/115 153/331/113 141/332/112
f 139/333/116 151/334/117 152/330/115 140/329/114
f 138/335/118 150/336/119 151/334/117 139/333/116
f 137/337/120 149/338/121 150/339/119 138/340/118
f 136/341/122 148/342/123 149/338/121 137/337/120
f 135/343/124 147/344/125 148/342/123 136/341/122
f 134/345/126 146/346/127 147/347/125 135/348/124
f 133/349/128 145/350/129 146/346/127 134/345/126
f 132/351/130 144/352/131 145/350/129 133/349/128
f 131/326/111 143/325/110 144/353/131 132/354/130
