# Blender v2.83.5 OBJ File: 'mine_parts.blend'
# www.blender.org
mtllib coins_1_006.mtl
o coins_6_Circle.002
v 0.179734 0.059280 -0.118723
v 0.129234 0.068174 -0.125807
v 0.082300 0.078083 -0.106353
v 0.051506 0.086351 -0.065574
v 0.045105 0.090764 -0.014398
v 0.064811 0.090139 0.033464
v 0.105345 0.084643 0.065187
v 0.155845 0.075749 0.072270
v 0.202779 0.065840 0.052816
v 0.233573 0.057571 0.012038
v 0.239974 0.053159 -0.039139
v 0.220267 0.053784 -0.087001
v 0.172764 0.021597 -0.116346
v 0.122264 0.030490 -0.123429
v 0.075329 0.040399 -0.103975
v 0.044536 0.048668 -0.063197
v 0.038135 0.053080 -0.012020
v 0.057841 0.052455 0.035842
v 0.098375 0.046959 0.067564
v 0.148874 0.038065 0.074648
v 0.195809 0.028156 0.055194
v 0.226602 0.019888 0.014415
v 0.233003 0.015475 -0.036761
v 0.213297 0.016101 -0.084623
v 0.142539 0.071961 -0.026768
v 0.135569 0.034278 -0.024391
v -0.090572 0.039389 -0.312506
v -0.140572 0.039389 -0.299109
v -0.177174 0.039389 -0.262506
v -0.190572 0.039389 -0.212506
v -0.177174 0.039389 -0.162506
v -0.140572 0.039389 -0.125904
v -0.090572 0.039389 -0.112506
v -0.040572 0.039389 -0.125904
v -0.003969 0.039389 -0.162506
v 0.009428 0.039389 -0.212506
v -0.003969 0.039389 -0.262506
v -0.040572 0.039389 -0.299109
v -0.090572 0.000993 -0.312506
v -0.140572 0.000993 -0.299109
v -0.177174 0.000993 -0.262506
v -0.190572 0.000993 -0.212506
v -0.177174 0.000993 -0.162506
v -0.140572 0.000993 -0.125904
v -0.090572 0.000993 -0.112506
v -0.040572 0.000993 -0.125904
v -0.003969 0.000993 -0.162506
v 0.009428 0.000993 -0.212506
v -0.003969 0.000993 -0.262506
v -0.040572 0.000993 -0.299109
v -0.090572 0.039389 -0.212506
v -0.090572 0.000993 -0.212506
v 0.001738 0.039389 -0.040499
v -0.048262 0.039389 -0.027102
v -0.084864 0.039389 0.009501
v -0.098262 0.039389 0.059501
v -0.084864 0.039389 0.109501
v -0.048262 0.039389 0.146103
v 0.001738 0.039389 0.159501
v 0.051738 0.039389 0.146103
v 0.088341 0.039389 0.109501
v 0.101738 0.039389 0.059501
v 0.088341 0.039389 0.009501
v 0.051739 0.039389 -0.027102
v 0.001738 0.000993 -0.040499
v -0.048262 0.000993 -0.027102
v -0.084864 0.000993 0.009501
v -0.098262 0.000993 0.059501
v -0.084864 0.000993 0.109501
v -0.048262 0.000993 0.146103
v 0.001738 0.000993 0.159501
v 0.051738 0.000993 0.146103
v 0.088341 0.000993 0.109501
v 0.101738 0.000993 0.059501
v 0.088341 0.000993 0.009501
v 0.051739 0.000993 -0.027102
v 0.001738 0.039389 0.059501
v 0.001738 0.000993 0.059501
v -0.012208 0.083444 0.089121
v -0.063367 0.081137 0.081576
v -0.111308 0.076434 0.100523
v -0.143186 0.070595 0.140887
v -0.150458 0.065184 0.191851
v -0.131177 0.061651 0.239759
v -0.090508 0.060943 0.271776
v -0.039349 0.063250 0.279321
v 0.008592 0.067953 0.260373
v 0.040470 0.073792 0.220010
v 0.047742 0.079203 0.169046
v 0.028461 0.082736 0.121137
v -0.009938 0.045296 0.085394
v -0.061097 0.042990 0.077849
v -0.109039 0.038286 0.096797
v -0.140916 0.032447 0.137160
v -0.148189 0.027036 0.188124
v -0.128907 0.023503 0.236033
v -0.088239 0.022795 0.268049
v -0.037080 0.025102 0.275595
v 0.010861 0.029805 0.256647
v 0.042739 0.035644 0.216283
v 0.050012 0.041055 0.165319
v 0.030730 0.044588 0.117411
v -0.051358 0.072194 0.180448
v -0.049089 0.034046 0.176722
vt 0.530456 0.669386
vt 0.619854 0.551280
vt 0.550202 0.522410
vt 0.475259 0.532922
vt 0.540800 0.672915
vt 0.485603 0.536450
vt 0.560546 0.525938
vt 0.630198 0.554809
vt 0.396205 0.654556
vt 0.425450 0.583528
vt 0.675897 0.615325
vt 0.685396 0.691274
vt 0.521055 0.819891
vt 0.451402 0.791021
vt 0.595998 0.809380
vt 0.656151 0.762302
vt 0.405704 0.730504
vt 0.415106 0.579999
vt 0.385861 0.651028
vt 0.675052 0.687745
vt 0.665553 0.611797
vt 0.510711 0.816363
vt 0.585654 0.805851
vt 0.441058 0.787493
vt 0.645807 0.758774
vt 0.395360 0.726976
vt 0.194856 0.948556
vt 0.323377 0.874355
vt 0.269058 0.820035
vt 0.194856 0.800153
vt 0.194856 0.948556
vt 0.194856 0.800153
vt 0.269058 0.820035
vt 0.323377 0.874355
vt 0.066335 0.874355
vt 0.120654 0.820035
vt 0.343259 0.948556
vt 0.323377 1.022758
vt 0.120654 0.077078
vt 0.066335 0.022758
vt 0.194856 -0.051444
vt 0.194856 0.096960
vt 0.323377 0.022758
vt 0.269058 0.077078
vt 0.046452 -0.051444
vt 0.066335 -0.125645
vt 0.120654 0.820035
vt 0.066335 0.874355
vt 0.323377 1.022758
vt 0.343259 0.948556
vt 0.120654 0.077078
vt 0.194856 0.096960
vt 0.194856 -0.051444
vt 0.066335 0.022758
vt 0.269058 0.077078
vt 0.323377 0.022758
vt 0.066335 -0.125645
vt 0.046452 -0.051444
vt 0.331847 0.544889
vt 0.460368 0.470687
vt 0.406049 0.416368
vt 0.331847 0.396485
vt 0.331847 0.544889
vt 0.331847 0.396485
vt 0.406049 0.416368
vt 0.460368 0.470687
vt 0.203326 0.470687
vt 0.257645 0.416368
vt 0.480251 0.544889
vt 0.460368 0.619091
vt 0.257645 0.673410
vt 0.203326 0.619091
vt 0.331847 0.693292
vt 0.406049 0.673410
vt 0.183444 0.544889
vt 0.257645 0.416368
vt 0.203326 0.470687
vt 0.460368 0.619091
vt 0.480251 0.544889
vt 0.257645 0.673410
vt 0.331847 0.693292
vt 0.203326 0.619091
vt 0.406049 0.673410
vt 0.183444 0.544889
vt 0.256418 0.370929
vt 0.345386 0.252317
vt 0.274240 0.224198
vt 0.198318 0.235396
vt 0.253050 0.365398
vt 0.194950 0.229866
vt 0.270871 0.218668
vt 0.342018 0.246787
vt 0.105982 0.348477
vt 0.134596 0.277379
vt 0.389326 0.306688
vt 0.400118 0.382320
vt 0.235229 0.512129
vt 0.164082 0.484010
vt 0.311150 0.500932
vt 0.371504 0.453418
vt 0.116775 0.424109
vt 0.137964 0.282909
vt 0.109350 0.354007
vt 0.403486 0.387850
vt 0.392694 0.312218
vt 0.238597 0.517659
vt 0.314518 0.506462
vt 0.167450 0.489540
vt 0.374872 0.458948
vt 0.120143 0.429639
vt 0.656151 0.669766
vt 0.645807 0.613842
vt 0.585654 0.621998
vt 0.595998 0.677922
vt 0.691274 0.668838
vt 0.687745 0.612914
vt 0.758774 0.613842
vt 0.762302 0.669766
vt 0.615325 0.675386
vt 0.611797 0.619463
vt 0.554809 0.687657
vt 0.551280 0.631733
vt 0.560546 0.702362
vt 0.550202 0.646438
vt 0.619854 0.631733
vt 0.630198 0.687657
vt 0.485603 0.715561
vt 0.475259 0.659637
vt 0.425450 0.723717
vt 0.415106 0.667793
vt 0.654556 0.724645
vt 0.651028 0.668721
vt 0.579999 0.667793
vt 0.583528 0.723717
vt 0.730504 0.718097
vt 0.726976 0.662173
vt 0.791021 0.705826
vt 0.787493 0.649902
vt 0.521055 0.691121
vt 0.510711 0.635197
vt 0.441058 0.649902
vt 0.451402 0.705826
vt 0.269058 0.648403
vt 0.269058 0.591422
vt 0.194856 0.591422
vt 0.194856 0.648403
vt 0.022758 0.648403
vt 0.022758 0.591422
vt 0.077078 0.591422
vt 0.077078 0.648403
vt 0.948556 0.648403
vt 0.948556 0.591422
vt 1.022758 0.591422
vt 1.022758 0.648403
vt 0.874355 0.648403
vt 0.874355 0.591422
vt 0.269058 0.648403
vt 0.269058 0.591422
vt 0.323377 0.591422
vt 0.323377 0.648403
vt 0.194856 0.648403
vt 0.194856 0.591422
vt 0.120654 0.648403
vt 0.120654 0.591422
vt 0.874355 0.648403
vt 0.874355 0.591422
vt 0.820035 0.591422
vt 0.820035 0.648403
vt 0.948556 0.648403
vt 0.948556 0.591422
vt 0.022758 0.648403
vt 0.022758 0.591422
vt -0.051444 0.591422
vt -0.051444 0.648403
vt 0.077078 0.648403
vt 0.077078 0.591422
vt 0.120654 0.591422
vt 0.120654 0.648403
vt 0.406049 0.648403
vt 0.406049 0.591422
vt 0.331847 0.591422
vt 0.331847 0.648403
vt 0.619091 0.648403
vt 0.619091 0.591422
vt 0.673410 0.591422
vt 0.673410 0.648403
vt 0.544889 0.648403
vt 0.544889 0.591422
vt 0.470687 0.648403
vt 0.470687 0.591422
vt 0.406049 0.648403
vt 0.406049 0.591422
vt 0.460368 0.591422
vt 0.460368 0.648403
vt 0.331847 0.648403
vt 0.331847 0.591422
vt 0.257645 0.648403
vt 0.257645 0.591422
vt 0.470687 0.648403
vt 0.470687 0.591422
vt 0.416368 0.591422
vt 0.416368 0.648403
vt 0.544889 0.648403
vt 0.544889 0.591422
vt 0.619091 0.648403
vt 0.619091 0.591422
vt 0.257645 0.648403
vt 0.257645 0.591422
vt 0.203326 0.591422
vt 0.203326 0.648403
vt 0.371504 0.712731
vt 0.374872 0.656119
vt 0.314518 0.657169
vt 0.311150 0.713782
vt 0.382320 0.707489
vt 0.387850 0.650876
vt 0.458948 0.656119
vt 0.453418 0.712731
vt 0.306688 0.699458
vt 0.312218 0.642846
vt 0.246787 0.690792
vt 0.252317 0.634180
vt 0.270871 0.683813
vt 0.274240 0.627200
vt 0.345386 0.634180
vt 0.342018 0.690792
vt 0.194950 0.680390
vt 0.198318 0.623777
vt 0.134596 0.681441
vt 0.137964 0.624828
vt 0.348477 0.686683
vt 0.354007 0.630071
vt 0.282909 0.624828
vt 0.277379 0.681441
vt 0.424109 0.694714
vt 0.429639 0.638101
vt 0.484010 0.703380
vt 0.489540 0.646767
vt 0.235229 0.710359
vt 0.238597 0.653746
vt 0.167450 0.646767
vt 0.164082 0.703380
vn -0.1815 -0.9814 0.0619
vn 0.1815 0.9814 -0.0619
vn 0.0000 -1.0000 -0.0000
vn 0.0000 1.0000 0.0000
vn 0.0591 -0.9935 -0.0971
vn -0.0591 0.9935 0.0971
vn 0.7071 0.5035 -0.4965
vn 0.4699 -0.7787 -0.4156
vn 0.1630 -0.7371 -0.6558
vn 0.4002 0.5451 -0.7367
vn 0.8563 0.4987 -0.1341
vn 0.6191 -0.7834 -0.0532
vn 0.8078 0.5321 0.2534
vn 0.5707 -0.7501 0.3343
vn 0.5747 0.5947 0.5621
vn 0.3375 -0.6874 0.6430
vn 0.2193 0.6698 0.7094
vn -0.0178 -0.6124 0.7903
vn -0.1630 0.7371 0.6558
vn -0.4002 -0.5451 0.7367
vn -0.4699 0.7787 0.4156
vn -0.7071 -0.5035 0.4965
vn -0.6191 0.7834 0.0532
vn -0.8563 -0.4987 0.1341
vn -0.5707 0.7501 -0.3343
vn -0.8078 -0.5321 -0.2534
vn -0.3375 0.6874 -0.6430
vn -0.5747 -0.5947 -0.5621
vn 0.0178 0.6124 -0.7903
vn -0.2193 -0.6698 -0.7094
vn 0.3786 0.6532 -0.6557
vn 0.3786 -0.6532 -0.6557
vn 0.0000 -0.6532 -0.7571
vn 0.0000 0.6532 -0.7571
vn 0.6557 0.6532 -0.3786
vn 0.6557 -0.6532 -0.3786
vn 0.7571 0.6532 0.0000
vn 0.7571 -0.6532 0.0000
vn 0.6557 0.6532 0.3786
vn 0.6557 -0.6532 0.3786
vn 0.3786 0.6532 0.6557
vn 0.3786 -0.6532 0.6557
vn 0.0000 0.6532 0.7571
vn 0.0000 -0.6532 0.7571
vn -0.3786 0.6532 0.6557
vn -0.3786 -0.6532 0.6557
vn -0.6557 0.6532 0.3786
vn -0.6557 -0.6532 0.3786
vn -0.7571 0.6532 0.0000
vn -0.7571 -0.6532 0.0000
vn -0.6557 0.6532 -0.3786
vn -0.6557 -0.6532 -0.3786
vn -0.3786 0.6532 -0.6557
vn -0.3786 -0.6532 -0.6557
vn 0.5657 0.7288 -0.3857
vn 0.6430 -0.5692 -0.5125
vn 0.3350 -0.5638 -0.7549
vn 0.2578 0.7342 -0.6281
vn 0.7117 0.7020 -0.0229
vn 0.7889 -0.5959 -0.1497
vn 0.6567 0.6611 0.3629
vn 0.7339 -0.6369 0.2361
vn 0.4153 0.6169 0.6685
vn 0.4925 -0.6811 0.5418
vn 0.0523 0.5813 0.8120
vn 0.1295 -0.7167 0.6852
vn -0.3350 0.5638 0.7549
vn -0.2578 -0.7342 0.6281
vn -0.6430 0.5692 0.5125
vn -0.5657 -0.7288 0.3857
vn -0.7889 0.5959 0.1497
vn -0.7117 -0.7020 0.0229
vn -0.7339 0.6369 -0.2361
vn -0.6567 -0.6611 -0.3629
vn -0.4925 0.6811 -0.5417
vn -0.4153 -0.6169 -0.6685
vn -0.1295 0.7167 -0.6852
vn -0.0523 -0.5813 -0.8120
usemtl Material
s off
f 26/1/1 21/2/1 20/3/1 19/4/1
f 25/5/2 7/6/2 8/7/2 9/8/2
f 25/5/2 5/9/2 6/10/2 7/6/2
f 25/5/2 9/8/2 10/11/2 11/12/2
f 2/13/2 3/14/2 25/5/2 1/15/2
f 1/15/2 25/5/2 11/12/2 12/16/2
f 3/14/2 4/17/2 5/9/2 25/5/2
f 26/1/1 19/4/1 18/18/1 17/19/1
f 26/1/1 23/20/1 22/21/1 21/2/1
f 14/22/1 13/23/1 26/1/1 15/24/1
f 13/23/1 24/25/1 23/20/1 26/1/1
f 15/24/1 26/1/1 17/19/1 16/26/1
f 52/27/3 47/28/3 46/29/3 45/30/3
f 51/31/4 33/32/4 34/33/4 35/34/4
f 51/31/4 31/35/4 32/36/4 33/32/4
f 51/31/4 35/34/4 36/37/4 37/38/4
f 28/39/4 29/40/4 51/41/4 27/42/4
f 27/42/4 51/41/4 37/43/4 38/44/4
f 29/40/4 30/45/4 31/46/4 51/41/4
f 52/27/3 45/30/3 44/47/3 43/48/3
f 52/27/3 49/49/3 48/50/3 47/28/3
f 40/51/3 39/52/3 52/53/3 41/54/3
f 39/52/3 50/55/3 49/56/3 52/53/3
f 41/54/3 52/53/3 43/57/3 42/58/3
f 78/59/3 73/60/3 72/61/3 71/62/3
f 77/63/4 59/64/4 60/65/4 61/66/4
f 77/63/4 57/67/4 58/68/4 59/64/4
f 77/63/4 61/66/4 62/69/4 63/70/4
f 54/71/4 55/72/4 77/63/4 53/73/4
f 53/73/4 77/63/4 63/70/4 64/74/4
f 55/72/4 56/75/4 57/67/4 77/63/4
f 78/59/3 71/62/3 70/76/3 69/77/3
f 78/59/3 75/78/3 74/79/3 73/60/3
f 66/80/3 65/81/3 78/59/3 67/82/3
f 65/81/3 76/83/3 75/78/3 78/59/3
f 67/82/3 78/59/3 69/77/3 68/84/3
f 104/85/5 99/86/5 98/87/5 97/88/5
f 103/89/6 85/90/6 86/91/6 87/92/6
f 103/89/6 83/93/6 84/94/6 85/90/6
f 103/89/6 87/92/6 88/95/6 89/96/6
f 80/97/6 81/98/6 103/89/6 79/99/6
f 79/99/6 103/89/6 89/96/6 90/100/6
f 81/98/6 82/101/6 83/93/6 103/89/6
f 104/85/5 97/88/5 96/102/5 95/103/5
f 104/85/5 101/104/5 100/105/5 99/86/5
f 92/106/5 91/107/5 104/85/5 93/108/5
f 91/107/5 102/109/5 101/104/5 104/85/5
f 93/108/5 104/85/5 95/103/5 94/110/5
s 1
f 12/111/7 24/112/8 13/113/9 1/114/10
f 11/115/11 23/116/12 24/117/8 12/118/7
f 10/119/13 22/120/14 23/116/12 11/115/11
f 9/121/15 21/122/16 22/120/14 10/119/13
f 8/123/17 20/124/18 21/125/16 9/126/15
f 7/127/19 19/128/20 20/124/18 8/123/17
f 6/129/21 18/130/22 19/128/20 7/127/19
f 5/131/23 17/132/24 18/133/22 6/134/21
f 4/135/25 16/136/26 17/132/24 5/131/23
f 3/137/27 15/138/28 16/136/26 4/135/25
f 2/139/29 14/140/30 15/141/28 3/142/27
f 1/114/10 13/113/9 14/140/30 2/139/29
f 38/143/31 50/144/32 39/145/33 27/146/34
f 37/147/35 49/148/36 50/149/32 38/150/31
f 36/151/37 48/152/38 49/153/36 37/154/35
f 35/155/39 47/156/40 48/152/38 36/151/37
f 34/157/41 46/158/42 47/159/40 35/160/39
f 33/161/43 45/162/44 46/158/42 34/157/41
f 32/163/45 44/164/46 45/162/44 33/161/43
f 31/165/47 43/166/48 44/167/46 32/168/45
f 30/169/49 42/170/50 43/166/48 31/165/47
f 29/171/51 41/172/52 42/173/50 30/174/49
f 28/175/53 40/176/54 41/172/52 29/171/51
f 27/146/34 39/145/33 40/177/54 28/178/53
f 64/179/31 76/180/32 65/181/33 53/182/34
f 63/183/35 75/184/36 76/185/32 64/186/31
f 62/187/37 74/188/38 75/184/36 63/183/35
f 61/189/39 73/190/40 74/188/38 62/187/37
f 60/191/41 72/192/42 73/193/40 61/194/39
f 59/195/43 71/196/44 72/192/42 60/191/41
f 58/197/45 70/198/46 71/196/44 59/195/43
f 57/199/47 69/200/48 70/201/46 58/202/45
f 56/203/49 68/204/50 69/200/48 57/199/47
f 55/205/51 67/206/52 68/204/50 56/203/49
f 54/207/53 66/208/54 67/209/52 55/210/51
f 53/182/34 65/181/33 66/208/54 54/207/53
f 90/211/55 102/212/56 91/213/57 79/214/58
f 89/215/59 101/216/60 102/217/56 90/218/55
f 88/219/61 100/220/62 101/216/60 89/215/59
f 87/221/63 99/222/64 100/220/62 88/219/61
f 86/223/65 98/224/66 99/225/64 87/226/63
f 85/227/67 97/228/68 98/224/66 86/223/65
f 84/229/69 96/230/70 97/228/68 85/227/67
f 83/231/71 95/232/72 96/233/70 84/234/69
f 82/235/73 94/236/74 95/232/72 83/231/71
f 81/237/75 93/238/76 94/236/74 82/235/73
f 80/239/77 92/240/78 93/241/76 81/242/75
f 79/214/58 91/213/57 92/240/78 80/239/77
