# Blender v2.83.5 OBJ File: 'mine_parts.blend'
# www.blender.org
mtllib coins_1_001.mtl
o coins_4_Circle
v -0.077755 0.065105 -0.050229
v -0.127130 0.057226 -0.036832
v -0.163276 0.051459 -0.000229
v -0.176506 0.049348 0.049771
v -0.163276 0.051459 0.099771
v -0.127130 0.057226 0.136373
v -0.077755 0.065105 0.149771
v -0.028380 0.072983 0.136373
v 0.007766 0.078750 0.099771
v 0.020996 0.080861 0.049771
v 0.007766 0.078750 -0.000229
v -0.028379 0.072983 -0.036832
v -0.071705 0.027188 -0.050229
v -0.121080 0.019310 -0.036832
v -0.157226 0.013542 -0.000229
v -0.170456 0.011431 0.049771
v -0.157226 0.013542 0.099771
v -0.121080 0.019310 0.136373
v -0.071705 0.027188 0.149771
v -0.022329 0.035066 0.136373
v 0.013816 0.040833 0.099771
v 0.027046 0.042944 0.049771
v 0.013816 0.040833 -0.000229
v -0.022329 0.035066 -0.036832
v -0.077755 0.065105 0.049771
v -0.071705 0.027188 0.049771
v 0.074731 0.036690 -0.149770
v 0.024731 0.036690 -0.136372
v -0.011872 0.036690 -0.099770
v -0.025269 0.036690 -0.049770
v -0.011872 0.036690 0.000231
v 0.024731 0.036690 0.036833
v 0.074731 0.036690 0.050231
v 0.124731 0.036690 0.036833
v 0.161333 0.036690 0.000231
v 0.174731 0.036690 -0.049770
v 0.161333 0.036690 -0.099770
v 0.124731 0.036690 -0.136372
v 0.074731 -0.001707 -0.149770
v 0.024731 -0.001707 -0.136372
v -0.011872 -0.001707 -0.099770
v -0.025269 -0.001707 -0.049770
v -0.011872 -0.001707 0.000231
v 0.024731 -0.001707 0.036833
v 0.074731 -0.001707 0.050231
v 0.124731 -0.001707 0.036833
v 0.161333 -0.001707 0.000231
v 0.174731 -0.001707 -0.049770
v 0.161333 -0.001707 -0.099770
v 0.124731 -0.001707 -0.136372
v 0.074731 0.036690 -0.049770
v 0.074731 -0.001707 -0.049770
vt 0.302633 0.827636
vt 0.429549 0.753434
vt 0.375908 0.699115
vt 0.302633 0.679233
vt 0.293655 0.827636
vt 0.293655 0.679233
vt 0.366930 0.699115
vt 0.420571 0.753434
vt 0.166739 0.753434
vt 0.220380 0.699115
vt 0.440205 0.827636
vt 0.420571 0.901838
vt 0.220380 0.956157
vt 0.166739 0.901838
vt 0.293655 0.976040
vt 0.366930 0.956157
vt 0.147105 0.827636
vt 0.229358 0.699115
vt 0.175718 0.753434
vt 0.429549 0.901838
vt 0.449183 0.827636
vt 0.229359 0.956157
vt 0.302633 0.976040
vt 0.175718 0.901838
vt 0.375908 0.956157
vt 0.156084 0.827636
vt 0.519949 0.975357
vt 0.648470 0.901155
vt 0.594150 0.846836
vt 0.519949 0.826954
vt 0.519949 0.975357
vt 0.519949 0.826954
vt 0.594150 0.846836
vt 0.648470 0.901155
vt 0.391428 0.901155
vt 0.445747 0.846836
vt 0.668352 0.975357
vt 0.648470 1.049559
vt 0.445747 0.103878
vt 0.391428 0.049559
vt 0.519949 -0.024643
vt 0.519949 0.123761
vt 0.648470 0.049559
vt 0.594151 0.103878
vt 0.371545 -0.024643
vt 0.391428 -0.098845
vt 0.445747 0.846836
vt 0.391428 0.901155
vt 0.648470 1.049559
vt 0.668352 0.975357
vt 0.445747 0.103878
vt 0.519949 0.123761
vt 0.519949 -0.024643
vt 0.391428 0.049559
vt 0.594151 0.103878
vt 0.648470 0.049559
vt 0.391428 -0.098845
vt 0.371545 -0.024643
vt 0.366930 0.702264
vt 0.375908 0.645994
vt 0.302633 0.634302
vt 0.293655 0.690573
vt 0.420571 0.710823
vt 0.429549 0.654553
vt 0.827636 0.713956
vt 0.827636 0.657686
vt 0.901838 0.654553
vt 0.901838 0.710823
vt 0.753434 0.710823
vt 0.753434 0.654553
vt 0.366930 0.702264
vt 0.375908 0.645994
vt 0.429549 0.654553
vt 0.420571 0.710823
vt 0.293655 0.690573
vt 0.302633 0.634302
vt 0.220380 0.678881
vt 0.229358 0.622611
vt 0.166739 0.670322
vt 0.175718 0.614052
vt 0.827636 0.667189
vt 0.827636 0.610919
vt 0.753434 0.614052
vt 0.753434 0.670322
vt 0.901838 0.670322
vt 0.901838 0.614052
vt 0.220380 0.678881
vt 0.229359 0.622611
vt 0.175718 0.614052
vt 0.166739 0.670322
vt 0.594151 0.648403
vt 0.594151 0.591422
vt 0.519949 0.591422
vt 0.519949 0.648403
vt 0.049559 0.648403
vt 0.049559 0.591422
vt 0.103878 0.591422
vt 0.103878 0.648403
vt 0.975357 0.648403
vt 0.975357 0.591422
vt 1.049559 0.591422
vt 1.049559 0.648403
vt 0.901155 0.648403
vt 0.901155 0.591422
vt 0.594150 0.648403
vt 0.594150 0.591422
vt 0.648470 0.591422
vt 0.648470 0.648403
vt 0.519949 0.648403
vt 0.519949 0.591422
vt 0.445747 0.648403
vt 0.445747 0.591422
vt 0.901155 0.648403
vt 0.901155 0.591422
vt 0.846836 0.591422
vt 0.846836 0.648403
vt 0.975357 0.648403
vt 0.975357 0.591422
vt 0.049559 0.648403
vt 0.049559 0.591422
vt -0.024643 0.591422
vt -0.024643 0.648403
vt 0.103878 0.648403
vt 0.103878 0.591422
vt 0.445747 0.591422
vt 0.445747 0.648403
vn 0.1576 -0.9875 0.0000
vn -0.1576 0.9875 0.0000
vn 0.0000 -1.0000 0.0000
vn 0.0000 1.0000 0.0000
vn 0.2709 0.7047 -0.6557
vn 0.4768 -0.5854 -0.6557
vn 0.1029 -0.6450 -0.7571
vn -0.1029 0.6450 -0.7571
vn 0.5446 0.7484 -0.3786
vn 0.7505 -0.5417 -0.3786
vn 0.6448 0.7644 0.0000
vn 0.8506 -0.5257 0.0000
vn 0.5446 0.7484 0.3786
vn 0.7505 -0.5417 0.3786
vn 0.2709 0.7047 0.6557
vn 0.4768 -0.5854 0.6557
vn -0.1029 0.6450 0.7571
vn 0.1029 -0.6450 0.7571
vn -0.4768 0.5854 0.6557
vn -0.2709 -0.7047 0.6557
vn -0.7505 0.5417 0.3786
vn -0.5446 -0.7484 0.3786
vn -0.8506 0.5257 0.0000
vn -0.6448 -0.7644 0.0000
vn -0.7505 0.5417 -0.3786
vn -0.5446 -0.7484 -0.3786
vn -0.4768 0.5854 -0.6557
vn -0.2709 -0.7047 -0.6557
vn 0.3786 0.6532 -0.6557
vn 0.3786 -0.6532 -0.6557
vn 0.0000 -0.6532 -0.7571
vn 0.0000 0.6532 -0.7571
vn 0.6557 0.6532 -0.3786
vn 0.6557 -0.6532 -0.3786
vn 0.7571 0.6532 0.0000
vn 0.7571 -0.6532 0.0000
vn 0.6557 0.6532 0.3786
vn 0.6557 -0.6532 0.3786
vn 0.3786 0.6532 0.6557
vn 0.3786 -0.6532 0.6557
vn 0.0000 0.6532 0.7571
vn 0.0000 -0.6532 0.7571
vn -0.3786 0.6532 0.6557
vn -0.3786 -0.6532 0.6557
vn -0.6557 0.6532 0.3786
vn -0.6557 -0.6532 0.3786
vn -0.7571 0.6532 0.0000
vn -0.7571 -0.6532 0.0000
vn -0.6557 0.6532 -0.3786
vn -0.6557 -0.6532 -0.3786
vn -0.3786 0.6532 -0.6557
vn -0.3786 -0.6532 -0.6557
usemtl Material
s off
f 26/1/1 21/2/1 20/3/1 19/4/1
f 25/5/2 7/6/2 8/7/2 9/8/2
f 25/5/2 5/9/2 6/10/2 7/6/2
f 25/5/2 9/8/2 10/11/2 11/12/2
f 2/13/2 3/14/2 25/5/2 1/15/2
f 1/15/2 25/5/2 11/12/2 12/16/2
f 3/14/2 4/17/2 5/9/2 25/5/2
f 26/1/1 19/4/1 18/18/1 17/19/1
f 26/1/1 23/20/1 22/21/1 21/2/1
f 14/22/1 13/23/1 26/1/1 15/24/1
f 13/23/1 24/25/1 23/20/1 26/1/1
f 15/24/1 26/1/1 17/19/1 16/26/1
f 52/27/3 47/28/3 46/29/3 45/30/3
f 51/31/4 33/32/4 34/33/4 35/34/4
f 51/31/4 31/35/4 32/36/4 33/32/4
f 51/31/4 35/34/4 36/37/4 37/38/4
f 28/39/4 29/40/4 51/41/4 27/42/4
f 27/42/4 51/41/4 37/43/4 38/44/4
f 29/40/4 30/45/4 31/46/4 51/41/4
f 52/27/3 45/30/3 44/47/3 43/48/3
f 52/27/3 49/49/3 48/50/3 47/28/3
f 40/51/3 39/52/3 52/53/3 41/54/3
f 39/52/3 50/55/3 49/56/3 52/53/3
f 41/54/3 52/53/3 43/57/3 42/58/3
s 1
f 12/59/5 24/60/6 13/61/7 1/62/8
f 11/63/9 23/64/10 24/60/6 12/59/5
f 10/65/11 22/66/12 23/67/10 11/68/9
f 9/69/13 21/70/14 22/66/12 10/65/11
f 8/71/15 20/72/16 21/73/14 9/74/13
f 7/75/17 19/76/18 20/72/16 8/71/15
f 6/77/19 18/78/20 19/76/18 7/75/17
f 5/79/21 17/80/22 18/78/20 6/77/19
f 4/81/23 16/82/24 17/83/22 5/84/21
f 3/85/25 15/86/26 16/82/24 4/81/23
f 2/87/27 14/88/28 15/89/26 3/90/25
f 1/62/8 13/61/7 14/88/28 2/87/27
f 38/91/29 50/92/30 39/93/31 27/94/32
f 37/95/33 49/96/34 50/97/30 38/98/29
f 36/99/35 48/100/36 49/101/34 37/102/33
f 35/103/37 47/104/38 48/100/36 36/99/35
f 34/105/39 46/106/40 47/107/38 35/108/37
f 33/109/41 45/110/42 46/106/40 34/105/39
f 32/111/43 44/112/44 45/110/42 33/109/41
f 31/113/45 43/114/46 44/115/44 32/116/43
f 30/117/47 42/118/48 43/114/46 31/113/45
f 29/119/49 41/120/50 42/121/48 30/122/47
f 28/123/51 40/124/52 41/120/50 29/119/49
f 27/94/32 39/93/31 40/125/52 28/126/51
