# Blender v2.83.5 OBJ File: 'mine_parts.blend'
# www.blender.org
mtllib coins_1_008.mtl
o coins_8_Circle.003
v 0.196330 0.059492 -0.041933
v 0.145830 0.068386 -0.049016
v 0.098896 0.078294 -0.029562
v 0.068103 0.086563 0.011216
v 0.061702 0.090976 0.062393
v 0.081408 0.090350 0.110255
v 0.121941 0.084854 0.141978
v 0.172441 0.075960 0.149061
v 0.219375 0.066051 0.129607
v 0.250169 0.057783 0.088828
v 0.256570 0.053370 0.037652
v 0.236864 0.053996 -0.010210
v 0.189360 0.021808 -0.039555
v 0.138860 0.030702 -0.046638
v 0.091926 0.040611 -0.027185
v 0.061132 0.048879 0.013594
v 0.054731 0.053292 0.064771
v 0.074438 0.052666 0.112632
v 0.114971 0.047170 0.144355
v 0.165471 0.038277 0.151439
v 0.212405 0.028368 0.131984
v 0.243199 0.020099 0.091206
v 0.249600 0.015687 0.040029
v 0.229893 0.016312 -0.007833
v 0.159136 0.072173 0.050023
v 0.152165 0.034489 0.052400
v 0.046530 0.039601 -0.249893
v -0.003470 0.039601 -0.236495
v -0.040072 0.039601 -0.199893
v -0.053470 0.039601 -0.149893
v -0.040072 0.039601 -0.099893
v -0.003470 0.039601 -0.063290
v 0.046530 0.039601 -0.049893
v 0.096530 0.039601 -0.063290
v 0.133133 0.039601 -0.099893
v 0.146530 0.039601 -0.149893
v 0.133133 0.039601 -0.199893
v 0.096530 0.039601 -0.236495
v 0.046530 0.001204 -0.249893
v -0.003470 0.001204 -0.236495
v -0.040072 0.001204 -0.199893
v -0.053470 0.001204 -0.149893
v -0.040072 0.001204 -0.099893
v -0.003470 0.001204 -0.063290
v 0.046530 0.001204 -0.049893
v 0.096530 0.001204 -0.063290
v 0.133133 0.001204 -0.099893
v 0.146530 0.001204 -0.149893
v 0.133133 0.001204 -0.199893
v 0.096530 0.001204 -0.236495
v 0.046530 0.039601 -0.149893
v 0.046530 0.001204 -0.149893
v 0.018335 0.039601 0.036292
v -0.031665 0.039601 0.049689
v -0.068268 0.039601 0.086292
v -0.081665 0.039601 0.136292
v -0.068268 0.039601 0.186292
v -0.031665 0.039601 0.222894
v 0.018335 0.039601 0.236292
v 0.068335 0.039601 0.222894
v 0.104937 0.039601 0.186292
v 0.118335 0.039601 0.136292
v 0.104937 0.039601 0.086292
v 0.068335 0.039601 0.049689
v 0.018335 0.001204 0.036292
v -0.031665 0.001204 0.049689
v -0.068268 0.001204 0.086292
v -0.081665 0.001204 0.136292
v -0.068268 0.001204 0.186292
v -0.031665 0.001204 0.222894
v 0.018335 0.001204 0.236292
v 0.068335 0.001204 0.222894
v 0.104937 0.001204 0.186292
v 0.118335 0.001204 0.136292
v 0.104937 0.001204 0.086292
v 0.068335 0.001204 0.049689
v 0.018335 0.039601 0.136292
v 0.018335 0.001204 0.136292
v -0.070683 0.072328 -0.003300
v -0.121842 0.069104 -0.010501
v -0.169783 0.066787 0.008884
v -0.201661 0.065997 0.049660
v -0.208933 0.066947 0.100901
v -0.189652 0.069382 0.148879
v -0.148983 0.072649 0.180735
v -0.097824 0.075874 0.187936
v -0.049883 0.078191 0.168552
v -0.018005 0.078981 0.127776
v -0.010733 0.078031 0.076534
v -0.030014 0.075596 0.028557
v -0.068413 0.034013 -0.002267
v -0.119572 0.030789 -0.009468
v -0.167514 0.028471 0.009916
v -0.199391 0.027682 0.050692
v -0.206664 0.028632 0.101934
v -0.187382 0.031067 0.149911
v -0.146714 0.034334 0.181768
v -0.095555 0.037558 0.188969
v -0.047614 0.039876 0.169584
v -0.015736 0.040665 0.128809
v -0.008463 0.039715 0.077567
v -0.027745 0.037280 0.029590
v -0.109833 0.072489 0.088718
v -0.107564 0.034173 0.089750
v -0.119584 0.064992 -0.214450
v -0.168941 0.056999 -0.201053
v -0.205073 0.051148 -0.164450
v -0.218298 0.049006 -0.114450
v -0.205073 0.051148 -0.064450
v -0.168941 0.056999 -0.027847
v -0.119584 0.064992 -0.014450
v -0.070227 0.072985 -0.027847
v -0.034095 0.078837 -0.064450
v -0.020870 0.080978 -0.114450
v -0.034095 0.078837 -0.164450
v -0.070227 0.072985 -0.201053
v -0.113446 0.027090 -0.214450
v -0.162803 0.019096 -0.201053
v -0.198935 0.013245 -0.164450
v -0.212160 0.011103 -0.114450
v -0.198935 0.013245 -0.064450
v -0.162803 0.019096 -0.027847
v -0.113446 0.027090 -0.014450
v -0.064089 0.035083 -0.027847
v -0.027957 0.040934 -0.064450
v -0.014732 0.043076 -0.114450
v -0.027957 0.040934 -0.164450
v -0.064089 0.035083 -0.201053
v -0.119584 0.064992 -0.114450
v -0.113446 0.027090 -0.114450
v 0.005565 0.122257 -0.112376
v -0.044384 0.124514 -0.098978
v -0.080950 0.126167 -0.062376
v -0.094334 0.126771 -0.012376
v -0.080950 0.126167 0.037624
v -0.044384 0.124514 0.074227
v 0.005565 0.122257 0.087624
v 0.055514 0.120000 0.074227
v 0.092079 0.118348 0.037624
v 0.105463 0.117743 -0.012376
v 0.092079 0.118348 -0.062376
v 0.055514 0.120000 -0.098978
v 0.003831 0.083900 -0.112376
v -0.046118 0.086157 -0.098978
v -0.082683 0.087809 -0.062376
v -0.096067 0.088414 -0.012376
v -0.082683 0.087809 0.037624
v -0.046118 0.086157 0.074227
v 0.003831 0.083900 0.087624
v 0.053780 0.081643 0.074227
v 0.090346 0.079991 0.037624
v 0.103729 0.079386 -0.012376
v 0.090346 0.079991 -0.062376
v 0.053780 0.081643 -0.098978
v 0.005565 0.122257 -0.012376
v 0.003831 0.083900 -0.012376
vt 0.340991 0.874914
vt 0.310885 0.750142
vt 0.371098 0.749828
vt 0.423244 0.783031
vt 0.798040 0.125086
vt 0.880293 0.216969
vt 0.828147 0.250172
vt 0.767933 0.249859
vt 0.910400 0.092197
vt 0.910400 0.159146
vt 0.715787 0.216112
vt 0.685680 0.157976
vt 0.767933 0.000000
vt 0.828147 0.000314
vt 0.715787 0.033203
vt 0.685680 0.091026
vt 0.880293 0.034060
vt 0.453351 0.840855
vt 0.453351 0.907804
vt 0.228631 0.842025
vt 0.258738 0.783888
vt 0.310884 1.000000
vt 0.258738 0.966797
vt 0.371098 0.999687
vt 0.228631 0.908974
vt 0.423244 0.965940
vt 0.114314 0.374908
vt 0.083684 0.499876
vt 0.030631 0.466389
vt 0.000000 0.408389
vt 0.342946 0.374907
vt 0.228633 0.341422
vt 0.259266 0.283424
vt 0.312320 0.249938
vt 0.259259 0.466391
vt 0.228631 0.408393
vt 0.373581 0.249938
vt 0.426634 0.283423
vt 0.426627 0.466391
vt 0.373573 0.499876
vt 0.457260 0.408392
vt 0.457262 0.341422
vt 0.312312 0.499876
vt 0.000000 0.341418
vt 0.030630 0.283421
vt 0.197998 0.466395
vt 0.144945 0.499878
vt 0.197998 0.283428
vt 0.228629 0.341427
vt 0.144944 0.249940
vt 0.228629 0.408398
vt 0.083684 0.249938
vt 0.342947 0.124969
vt 0.312321 0.249938
vt 0.259266 0.216453
vt 0.228633 0.158454
vt 0.114315 0.124969
vt 0.000002 0.091484
vt 0.030635 0.033485
vt 0.083689 0.000000
vt 0.030628 0.216453
vt 0.000000 0.158454
vt 0.144950 0.000000
vt 0.198003 0.033485
vt 0.197996 0.216453
vt 0.144941 0.249938
vt 0.228629 0.158454
vt 0.228631 0.091484
vt 0.083680 0.249938
vt 0.228631 0.091484
vt 0.259259 0.033485
vt 0.426634 0.216453
vt 0.373581 0.249938
vt 0.426627 0.033485
vt 0.457260 0.091484
vt 0.373573 0.000000
vt 0.457262 0.158454
vt 0.312312 0.000000
vt 0.342742 0.624852
vt 0.426276 0.716316
vt 0.373317 0.749814
vt 0.312166 0.749828
vt 0.114110 0.624854
vt 0.083535 0.499878
vt 0.144686 0.499893
vt 0.197645 0.533390
vt 0.000000 0.591343
vt 0.030576 0.533351
vt 0.228221 0.591395
vt 0.228221 0.658366
vt 0.083535 0.749816
vt 0.030576 0.716318
vt 0.144686 0.749830
vt 0.197645 0.716357
vt 0.000000 0.658313
vt 0.259207 0.716355
vt 0.228631 0.658364
vt 0.456852 0.591341
vt 0.456852 0.658311
vt 0.312166 0.499891
vt 0.373318 0.499876
vt 0.259207 0.533388
vt 0.426276 0.533350
vt 0.228631 0.591393
vt 0.570124 0.624954
vt 0.652745 0.716005
vt 0.600366 0.749731
vt 0.539883 0.750023
vt 0.795849 0.624954
vt 0.826091 0.750023
vt 0.765608 0.749731
vt 0.713228 0.716005
vt 0.908711 0.658972
vt 0.878470 0.716803
vt 0.682987 0.657882
vt 0.682987 0.590936
vt 0.826091 0.500177
vt 0.878470 0.533903
vt 0.765608 0.499885
vt 0.713228 0.533106
vt 0.908711 0.592026
vt 0.487503 0.716803
vt 0.457262 0.658972
vt 0.682987 0.590936
vt 0.682987 0.657882
vt 0.539883 0.500177
vt 0.600366 0.499885
vt 0.487503 0.533903
vt 0.652745 0.533106
vt 0.457262 0.592026
vt 0.571467 0.374911
vt 0.685671 0.408380
vt 0.655070 0.466383
vt 0.602067 0.499876
vt 0.571471 0.124969
vt 0.602056 0.000000
vt 0.655063 0.033486
vt 0.685672 0.091484
vt 0.487856 0.033486
vt 0.540855 0.000000
vt 0.685680 0.158454
vt 0.655087 0.216453
vt 0.487879 0.216452
vt 0.457271 0.158454
vt 0.540886 0.249938
vt 0.602088 0.249938
vt 0.457262 0.091484
vt 0.540865 0.499885
vt 0.487863 0.466408
vt 0.655070 0.283416
vt 0.685671 0.341409
vt 0.487863 0.283441
vt 0.540866 0.249947
vt 0.457262 0.341443
vt 0.602068 0.249938
vt 0.457262 0.408414
vt 0.097693 0.930586
vt 0.052485 0.931373
vt 0.049355 0.868912
vt 0.094563 0.868125
vt 0.730473 0.369628
vt 0.685671 0.371078
vt 0.690812 0.319708
vt 0.735613 0.318258
vt 0.730473 0.435577
vt 0.685671 0.437028
vt 0.735613 0.498435
vt 0.690812 0.499885
vt 0.097693 0.878452
vt 0.142901 0.879240
vt 0.146032 0.931373
vt 0.100824 0.930586
vt 0.097693 0.812291
vt 0.142901 0.813078
vt 0.100824 0.749830
vt 0.146032 0.750617
vt 0.735613 0.447065
vt 0.780415 0.448515
vt 0.785555 0.499885
vt 0.740754 0.498435
vt 0.735613 0.381115
vt 0.780415 0.382566
vt 0.740754 0.318258
vt 0.785555 0.319708
vt 0.094563 0.801963
vt 0.049355 0.802751
vt 0.052485 0.750617
vt 0.097693 0.749830
vt 0.829922 0.809113
vt 0.875365 0.809132
vt 0.875365 0.876065
vt 0.829922 0.876046
vt 0.830269 0.750023
vt 0.875712 0.750042
vt 0.954155 0.556595
vt 0.908711 0.556614
vt 0.909024 0.499904
vt 0.954468 0.499885
vt 0.954155 0.623520
vt 0.908711 0.623539
vt 0.954468 0.682726
vt 0.909024 0.682745
vt 0.692899 0.876065
vt 0.738342 0.876046
vt 0.737995 0.932888
vt 0.692552 0.932907
vt 0.692899 0.809132
vt 0.738342 0.809113
vt 0.692552 0.750042
vt 0.737995 0.750023
vt 0.875712 0.876153
vt 0.921156 0.876172
vt 0.921469 0.932882
vt 0.876025 0.932864
vt 0.875712 0.809229
vt 0.921156 0.809248
vt 0.876025 0.750023
vt 0.921469 0.750042
vt 0.875712 0.932906
vt 0.830269 0.932887
vt 0.738342 0.809113
vt 0.783785 0.809132
vt 0.783785 0.876065
vt 0.738342 0.876046
vt 0.738689 0.750023
vt 0.784132 0.750042
vt 0.926110 0.373490
vt 0.880667 0.373509
vt 0.880980 0.316799
vt 0.926423 0.316780
vt 0.926110 0.440414
vt 0.880667 0.440433
vt 0.926423 0.499620
vt 0.880980 0.499639
vt 0.829575 0.806864
vt 0.784132 0.806883
vt 0.784479 0.750042
vt 0.829922 0.750023
vt 0.829575 0.873798
vt 0.784132 0.873816
vt 0.829922 0.932888
vt 0.784479 0.932907
vt 0.834910 0.442911
vt 0.880354 0.442930
vt 0.880667 0.499640
vt 0.835223 0.499621
vt 0.834910 0.375986
vt 0.880354 0.376005
vt 0.835223 0.316780
vt 0.880667 0.316799
vt 0.784132 0.932907
vt 0.738689 0.932888
vt 0.999914 0.680695
vt 0.954468 0.680673
vt 0.954554 0.618212
vt 1.000000 0.618234
vt 0.645492 0.878700
vt 0.690870 0.879130
vt 0.692552 0.931134
vt 0.647174 0.930705
vt 0.645493 0.812566
vt 0.690870 0.812995
vt 0.647174 0.750023
vt 0.692552 0.750453
vt 0.971869 0.368934
vt 0.926423 0.368955
vt 0.926510 0.316801
vt 0.971955 0.316780
vt 0.971869 0.435107
vt 0.926423 0.435128
vt 0.971955 0.497568
vt 0.926509 0.497589
vt 0.643811 0.802027
vt 0.598433 0.802457
vt 0.600115 0.750453
vt 0.645492 0.750023
vt 0.643811 0.868162
vt 0.598433 0.868591
vt 0.645492 0.930704
vt 0.600115 0.931134
vt 1.000000 0.552061
vt 0.954554 0.552039
vt 0.954468 0.499885
vt 0.999914 0.499907
vt 0.457262 0.808941
vt 0.502632 0.809022
vt 0.502632 0.875967
vt 0.457262 0.875886
vt 0.459030 0.750023
vt 0.504401 0.750104
vt 0.785555 0.442976
vt 0.830536 0.443260
vt 0.834910 0.499885
vt 0.789930 0.499601
vt 0.785555 0.376059
vt 0.830536 0.376343
vt 0.789930 0.316780
vt 0.834910 0.317064
vt 0.191403 0.806862
vt 0.146032 0.806943
vt 0.147801 0.749911
vt 0.193171 0.749830
vt 0.191403 0.873807
vt 0.146032 0.873887
vt 0.193171 0.932725
vt 0.147801 0.932806
vt 0.044980 0.806455
vt 0.000000 0.806739
vt 0.004374 0.750114
vt 0.049355 0.749830
vt 0.044980 0.873372
vt 0.000000 0.873656
vt 0.049355 0.932651
vt 0.004374 0.932935
vt 0.504401 0.932999
vt 0.459030 0.932918
vt 0.966915 0.873790
vt 0.921469 0.873793
vt 0.921469 0.806860
vt 0.966915 0.806857
vt 0.966971 0.932886
vt 0.921525 0.932890
vt 0.596798 0.806721
vt 0.551417 0.806821
vt 0.553052 0.750123
vt 0.598433 0.750023
vt 0.596798 0.873645
vt 0.551417 0.873745
vt 0.598433 0.932861
vt 0.553052 0.932961
vt 0.910400 0.126029
vt 0.955846 0.126033
vt 0.955902 0.182867
vt 0.910456 0.182864
vt 0.910400 0.059097
vt 0.955846 0.059100
vt 0.910456 0.000000
vt 0.955902 0.000003
vt 0.504401 0.876162
vt 0.549782 0.876262
vt 0.551417 0.932961
vt 0.506036 0.932861
vt 0.504401 0.809239
vt 0.549782 0.809339
vt 0.506036 0.750023
vt 0.551417 0.750123
vt 0.921525 0.750026
vt 0.966971 0.750023
vn -0.1815 -0.9814 0.0619
vn 0.1815 0.9814 -0.0619
vn 0.0000 -1.0000 -0.0000
vn 0.0000 1.0000 0.0000
vn 0.0591 -0.9979 0.0269
vn -0.0591 0.9979 -0.0269
vn 0.1599 -0.9871 0.0000
vn -0.1599 0.9871 0.0000
vn -0.0451 -0.9990 0.0000
vn 0.0451 0.9990 0.0000
vn 0.7071 0.5035 -0.4965
vn 0.4699 -0.7787 -0.4156
vn 0.1630 -0.7371 -0.6558
vn 0.4002 0.5451 -0.7367
vn 0.8563 0.4987 -0.1341
vn 0.6191 -0.7834 -0.0532
vn 0.8078 0.5321 0.2534
vn 0.5707 -0.7500 0.3343
vn 0.5747 0.5947 0.5621
vn 0.3375 -0.6874 0.6430
vn 0.2193 0.6698 0.7094
vn -0.0178 -0.6124 0.7903
vn -0.1630 0.7371 0.6558
vn -0.4002 -0.5451 0.7367
vn -0.4699 0.7787 0.4156
vn -0.7071 -0.5035 0.4965
vn -0.6191 0.7834 0.0532
vn -0.8563 -0.4987 0.1341
vn -0.5707 0.7500 -0.3343
vn -0.8078 -0.5321 -0.2534
vn -0.3375 0.6874 -0.6430
vn -0.5747 -0.5947 -0.5621
vn 0.0178 0.6124 -0.7903
vn -0.2193 -0.6698 -0.7094
vn 0.3786 0.6532 -0.6557
vn 0.3786 -0.6532 -0.6557
vn 0.0000 -0.6532 -0.7571
vn 0.0000 0.6532 -0.7571
vn 0.6557 0.6532 -0.3786
vn 0.6557 -0.6532 -0.3786
vn 0.7571 0.6532 0.0000
vn 0.7571 -0.6532 0.0000
vn 0.6557 0.6532 0.3786
vn 0.6557 -0.6532 0.3786
vn 0.3786 0.6532 0.6557
vn 0.3786 -0.6532 0.6557
vn 0.0000 0.6532 0.7571
vn 0.0000 -0.6532 0.7571
vn -0.3786 0.6532 0.6557
vn -0.3786 -0.6532 0.6557
vn -0.6557 0.6532 0.3786
vn -0.6557 -0.6532 0.3786
vn -0.7571 0.6532 0.0000
vn -0.7571 -0.6532 0.0000
vn -0.6557 0.6532 -0.3786
vn -0.6557 -0.6532 -0.3786
vn -0.3786 0.6532 -0.6557
vn -0.3786 -0.6532 -0.6557
vn 0.5657 0.6753 -0.4731
vn 0.6430 -0.6283 -0.4379
vn 0.3350 -0.6530 -0.6792
vn 0.2578 0.6506 -0.7143
vn 0.7117 0.6938 -0.1098
vn 0.7889 -0.6099 -0.0747
vn 0.6567 0.7010 0.2781
vn 0.7339 -0.6027 0.3133
vn 0.4153 0.6950 0.5869
vn 0.4925 -0.6087 0.6220
vn 0.0523 0.6774 0.7337
vn 0.1295 -0.6262 0.7688
vn -0.3350 0.6530 0.6791
vn -0.2578 -0.6506 0.7143
vn -0.6430 0.6283 0.4379
vn -0.5657 -0.6753 0.4731
vn -0.7889 0.6099 0.0747
vn -0.7117 -0.6938 0.1098
vn -0.7339 0.6027 -0.3133
vn -0.6567 -0.7010 -0.2781
vn -0.4925 0.6087 -0.6220
vn -0.4153 -0.6950 -0.5869
vn -0.1295 0.6262 -0.7688
vn -0.0523 -0.6774 -0.7337
vn 0.2693 0.7053 -0.6557
vn 0.4781 -0.5843 -0.6557
vn 0.1044 -0.6448 -0.7571
vn -0.1044 0.6448 -0.7571
vn 0.5429 0.7496 -0.3786
vn 0.7517 -0.5400 -0.3786
vn 0.6430 0.7659 0.0000
vn 0.8518 -0.5238 0.0000
vn 0.5429 0.7496 0.3786
vn 0.7517 -0.5400 0.3786
vn 0.2693 0.7053 0.6557
vn 0.4781 -0.5843 0.6557
vn -0.1044 0.6448 0.7571
vn 0.1044 -0.6448 0.7571
vn -0.4781 0.5843 0.6557
vn -0.2693 -0.7053 0.6557
vn -0.7517 0.5400 0.3786
vn -0.5429 -0.7496 0.3786
vn -0.8518 0.5238 0.0000
vn -0.6430 -0.7659 0.0000
vn -0.7517 0.5400 -0.3786
vn -0.5429 -0.7496 -0.3786
vn -0.4781 0.5843 -0.6557
vn -0.2693 -0.7053 -0.6557
vn 0.4077 0.6355 -0.6557
vn 0.3487 -0.6696 -0.6557
vn -0.0295 -0.6525 -0.7571
vn 0.0295 0.6525 -0.7571
vn 0.6845 0.6229 -0.3786
vn 0.6255 -0.6821 -0.3786
vn 0.7859 0.6184 0.0000
vn 0.7269 -0.6867 0.0000
vn 0.6845 0.6229 0.3786
vn 0.6255 -0.6821 0.3786
vn 0.4077 0.6355 0.6557
vn 0.3487 -0.6696 0.6557
vn 0.0295 0.6525 0.7571
vn -0.0295 -0.6525 0.7571
vn -0.3487 0.6696 0.6557
vn -0.4077 -0.6355 0.6557
vn -0.6255 0.6821 0.3786
vn -0.6845 -0.6229 0.3786
vn -0.7269 0.6867 0.0000
vn -0.7859 -0.6184 0.0000
vn -0.6255 0.6821 -0.3786
vn -0.6845 -0.6229 -0.3786
vn -0.3487 0.6696 -0.6557
vn -0.4077 -0.6355 -0.6557
usemtl Material
s off
f 26/1/1 21/2/1 20/3/1 19/4/1
f 25/5/2 7/6/2 8/7/2 9/8/2
f 25/5/2 5/9/2 6/10/2 7/6/2
f 25/5/2 9/8/2 10/11/2 11/12/2
f 2/13/2 3/14/2 25/5/2 1/15/2
f 1/15/2 25/5/2 11/12/2 12/16/2
f 3/14/2 4/17/2 5/9/2 25/5/2
f 26/1/1 19/4/1 18/18/1 17/19/1
f 26/1/1 23/20/1 22/21/1 21/2/1
f 14/22/1 13/23/1 26/1/1 15/24/1
f 13/23/1 24/25/1 23/20/1 26/1/1
f 15/24/1 26/1/1 17/19/1 16/26/1
f 52/27/3 47/28/3 46/29/3 45/30/3
f 51/31/4 33/32/4 34/33/4 35/34/4
f 51/31/4 31/35/4 32/36/4 33/32/4
f 51/31/4 35/34/4 36/37/4 37/38/4
f 28/39/4 29/40/4 51/31/4 27/41/4
f 27/41/4 51/31/4 37/38/4 38/42/4
f 29/40/4 30/43/4 31/35/4 51/31/4
f 52/27/3 45/30/3 44/44/3 43/45/3
f 52/27/3 49/46/3 48/47/3 47/28/3
f 40/48/3 39/49/3 52/27/3 41/50/3
f 39/49/3 50/51/3 49/46/3 52/27/3
f 41/50/3 52/27/3 43/45/3 42/52/3
f 78/53/3 73/54/3 72/55/3 71/56/3
f 77/57/4 59/58/4 60/59/4 61/60/4
f 77/57/4 57/61/4 58/62/4 59/58/4
f 77/57/4 61/60/4 62/63/4 63/64/4
f 54/65/4 55/66/4 77/57/4 53/67/4
f 53/67/4 77/57/4 63/64/4 64/68/4
f 55/66/4 56/69/4 57/61/4 77/57/4
f 78/53/3 71/56/3 70/70/3 69/71/3
f 78/53/3 75/72/3 74/73/3 73/54/3
f 66/74/3 65/75/3 78/53/3 67/76/3
f 65/75/3 76/77/3 75/72/3 78/53/3
f 67/76/3 78/53/3 69/71/3 68/78/3
f 104/79/5 99/80/5 98/81/5 97/82/5
f 103/83/6 85/84/6 86/85/6 87/86/6
f 103/83/6 83/87/6 84/88/6 85/84/6
f 103/83/6 87/86/6 88/89/6 89/90/6
f 80/91/6 81/92/6 103/83/6 79/93/6
f 79/93/6 103/83/6 89/90/6 90/94/6
f 81/92/6 82/95/6 83/87/6 103/83/6
f 104/79/5 97/82/5 96/96/5 95/97/5
f 104/79/5 101/98/5 100/99/5 99/80/5
f 92/100/5 91/101/5 104/79/5 93/102/5
f 91/101/5 102/103/5 101/98/5 104/79/5
f 93/102/5 104/79/5 95/97/5 94/104/5
f 130/105/7 125/106/7 124/107/7 123/108/7
f 129/109/8 111/110/8 112/111/8 113/112/8
f 129/109/8 109/113/8 110/114/8 111/110/8
f 129/109/8 113/112/8 114/115/8 115/116/8
f 106/117/8 107/118/8 129/109/8 105/119/8
f 105/119/8 129/109/8 115/116/8 116/120/8
f 107/118/8 108/121/8 109/113/8 129/109/8
f 130/105/7 123/108/7 122/122/7 121/123/7
f 130/105/7 127/124/7 126/125/7 125/106/7
f 118/126/7 117/127/7 130/105/7 119/128/7
f 117/127/7 128/129/7 127/124/7 130/105/7
f 119/128/7 130/105/7 121/123/7 120/130/7
f 156/131/9 151/132/9 150/133/9 149/134/9
f 155/135/10 137/136/10 138/137/10 139/138/10
f 155/135/10 135/139/10 136/140/10 137/136/10
f 155/135/10 139/138/10 140/141/10 141/142/10
f 132/143/10 133/144/10 155/135/10 131/145/10
f 131/145/10 155/135/10 141/142/10 142/146/10
f 133/144/10 134/147/10 135/139/10 155/135/10
f 156/131/9 149/134/9 148/148/9 147/149/9
f 156/131/9 153/150/9 152/151/9 151/132/9
f 144/152/9 143/153/9 156/131/9 145/154/9
f 143/153/9 154/155/9 153/150/9 156/131/9
f 145/154/9 156/131/9 147/149/9 146/156/9
s 1
f 12/157/11 24/158/12 13/159/13 1/160/14
f 11/161/15 23/162/16 24/163/12 12/164/11
f 10/165/17 22/166/18 23/162/16 11/161/15
f 9/167/19 21/168/20 22/166/18 10/165/17
f 8/169/21 20/170/22 21/171/20 9/172/19
f 7/173/23 19/174/24 20/170/22 8/169/21
f 6/175/25 18/176/26 19/174/24 7/173/23
f 5/177/27 17/178/28 18/179/26 6/180/25
f 4/181/29 16/182/30 17/178/28 5/177/27
f 3/183/31 15/184/32 16/182/30 4/181/29
f 2/185/33 14/186/34 15/187/32 3/188/31
f 1/160/14 13/159/13 14/186/34 2/185/33
f 38/189/35 50/190/36 39/191/37 27/192/38
f 37/193/39 49/194/40 50/190/36 38/189/35
f 36/195/41 48/196/42 49/197/40 37/198/39
f 35/199/43 47/200/44 48/196/42 36/195/41
f 34/201/45 46/202/46 47/200/44 35/199/43
f 33/203/47 45/204/48 46/205/46 34/206/45
f 32/207/49 44/208/50 45/204/48 33/203/47
f 31/209/51 43/210/52 44/208/50 32/207/49
f 30/211/53 42/212/54 43/213/52 31/214/51
f 29/215/55 41/216/56 42/212/54 30/211/53
f 28/217/57 40/218/58 41/216/56 29/215/55
f 27/192/38 39/191/37 40/219/58 28/220/57
f 64/221/35 76/222/36 65/223/37 53/224/38
f 63/225/39 75/226/40 76/222/36 64/221/35
f 62/227/41 74/228/42 75/229/40 63/230/39
f 61/231/43 73/232/44 74/228/42 62/227/41
f 60/233/45 72/234/46 73/232/44 61/231/43
f 59/235/47 71/236/48 72/237/46 60/238/45
f 58/239/49 70/240/50 71/236/48 59/235/47
f 57/241/51 69/242/52 70/240/50 58/239/49
f 56/243/53 68/244/54 69/245/52 57/246/51
f 55/247/55 67/248/56 68/244/54 56/243/53
f 54/249/57 66/250/58 67/248/56 55/247/55
f 53/224/38 65/223/37 66/251/58 54/252/57
f 90/253/59 102/254/60 91/255/61 79/256/62
f 89/257/63 101/258/64 102/259/60 90/260/59
f 88/261/65 100/262/66 101/258/64 89/257/63
f 87/263/67 99/264/68 100/262/66 88/261/65
f 86/265/69 98/266/70 99/267/68 87/268/67
f 85/269/71 97/270/72 98/266/70 86/265/69
f 84/271/73 96/272/74 97/270/72 85/269/71
f 83/273/75 95/274/76 96/275/74 84/276/73
f 82/277/77 94/278/78 95/274/76 83/273/75
f 81/279/79 93/280/80 94/278/78 82/277/77
f 80/281/81 92/282/82 93/283/80 81/284/79
f 79/256/62 91/255/61 92/282/82 80/281/81
f 116/285/83 128/286/84 117/287/85 105/288/86
f 115/289/87 127/290/88 128/286/84 116/285/83
f 114/291/89 126/292/90 127/293/88 115/294/87
f 113/295/91 125/296/92 126/292/90 114/291/89
f 112/297/93 124/298/94 125/296/92 113/295/91
f 111/299/95 123/300/96 124/301/94 112/302/93
f 110/303/97 122/304/98 123/300/96 111/299/95
f 109/305/99 121/306/100 122/304/98 110/303/97
f 108/307/101 120/308/102 121/309/100 109/310/99
f 107/311/103 119/312/104 120/308/102 108/307/101
f 106/313/105 118/314/106 119/312/104 107/311/103
f 105/288/86 117/287/85 118/315/106 106/316/105
f 142/317/107 154/318/108 143/319/109 131/320/110
f 141/321/111 153/322/112 154/318/108 142/317/107
f 140/323/113 152/324/114 153/325/112 141/326/111
f 139/327/115 151/328/116 152/324/114 140/323/113
f 138/329/117 150/330/118 151/328/116 139/327/115
f 137/331/119 149/332/120 150/333/118 138/334/117
f 136/335/121 148/336/122 149/332/120 137/331/119
f 135/337/123 147/338/124 148/336/122 136/335/121
f 134/339/125 146/340/126 147/341/124 135/342/123
f 133/343/127 145/344/128 146/340/126 134/339/125
f 132/345/129 144/346/130 145/344/128 133/343/127
f 131/320/110 143/319/109 144/347/130 132/348/129
