# Blender v2.83.5 OBJ File: 'mine_parts.blend'
# www.blender.org
mtllib coins_1_004.mtl
o coins_5_Circle.006
v 0.049223 0.000702 0.128163
v 0.049223 0.039098 0.128164
v 0.099223 0.000702 0.041561
v 0.135826 0.000702 0.078164
v 0.149223 0.000702 0.128164
v 0.135826 0.000702 0.178164
v 0.099223 0.000702 0.214766
v 0.049223 0.000702 0.228164
v -0.000777 0.000702 0.214766
v -0.037380 0.000702 0.178163
v -0.050777 0.000702 0.128163
v -0.037380 0.000702 0.078163
v -0.000777 0.000702 0.041561
v 0.049223 0.000702 0.028164
v 0.099223 0.039098 0.041561
v 0.135826 0.039098 0.078164
v 0.149223 0.039098 0.128164
v 0.135826 0.039098 0.178164
v 0.099223 0.039098 0.214766
v 0.049223 0.039098 0.228164
v -0.000777 0.039098 0.214766
v -0.037380 0.039098 0.178163
v -0.050777 0.039098 0.128163
v -0.037380 0.039098 0.078163
v -0.000777 0.039098 0.041561
v 0.049223 0.039098 0.028164
v 0.212935 0.039098 -0.207838
v 0.162935 0.039098 -0.194440
v 0.126333 0.039098 -0.157838
v 0.112935 0.039098 -0.107838
v 0.126333 0.039098 -0.057838
v 0.162935 0.039098 -0.021235
v 0.212935 0.039098 -0.007838
v 0.262936 0.039098 -0.021235
v 0.299538 0.039098 -0.057838
v 0.312936 0.039098 -0.107837
v 0.299538 0.039098 -0.157837
v 0.262936 0.039098 -0.194440
v 0.212935 0.000702 -0.207838
v 0.162935 0.000702 -0.194440
v 0.126333 0.000702 -0.157838
v 0.112935 0.000702 -0.107838
v 0.126333 0.000702 -0.057838
v 0.162935 0.000702 -0.021235
v 0.212935 0.000702 -0.007838
v 0.262936 0.000702 -0.021235
v 0.299538 0.000702 -0.057838
v 0.312936 0.000702 -0.107837
v 0.299538 0.000702 -0.157837
v 0.262936 0.000702 -0.194440
v 0.212935 0.039098 -0.107837
v 0.212935 0.000702 -0.107838
v -0.105099 0.039098 -0.169706
v -0.155099 0.039098 -0.156308
v -0.191701 0.039098 -0.119705
v -0.205099 0.039098 -0.069705
v -0.191701 0.039098 -0.019705
v -0.155099 0.039098 0.016897
v -0.105099 0.039098 0.030295
v -0.055099 0.039098 0.016897
v -0.018496 0.039098 -0.019705
v -0.005099 0.039098 -0.069705
v -0.018496 0.039098 -0.119705
v -0.055099 0.039098 -0.156308
v -0.105099 0.000702 -0.169706
v -0.155099 0.000702 -0.156308
v -0.191701 0.000702 -0.119705
v -0.205099 0.000702 -0.069705
v -0.191701 0.000702 -0.019705
v -0.155099 0.000702 0.016897
v -0.105099 0.000702 0.030295
v -0.055099 0.000702 0.016897
v -0.018496 0.000702 -0.019705
v -0.005099 0.000702 -0.069705
v -0.018496 0.000702 -0.119705
v -0.055099 0.000702 -0.156308
v -0.105099 0.039098 -0.069705
v -0.105099 0.000702 -0.069705
v -0.119045 0.083153 -0.040085
v -0.170204 0.080846 -0.047630
v -0.218145 0.076143 -0.028683
v -0.250023 0.070304 0.011681
v -0.257295 0.064893 0.062645
v -0.238014 0.061360 0.110553
v -0.197345 0.060652 0.142569
v -0.146186 0.062958 0.150115
v -0.098245 0.067661 0.131167
v -0.066367 0.073501 0.090804
v -0.059095 0.078912 0.039840
v -0.078376 0.082445 -0.008069
v -0.116776 0.045005 -0.043812
v -0.167935 0.042698 -0.051357
v -0.215876 0.037995 -0.032409
v -0.247753 0.032156 0.007954
v -0.255026 0.026745 0.058918
v -0.235745 0.023212 0.106827
v -0.195076 0.022504 0.138843
v -0.143917 0.024811 0.146388
v -0.095976 0.029514 0.127441
v -0.064098 0.035353 0.087077
v -0.056825 0.040764 0.036113
v -0.076107 0.044297 -0.011795
v -0.158195 0.071902 0.051242
v -0.155926 0.033754 0.047516
vt 0.172377 0.743722
vt 0.300898 0.669521
vt 0.172377 0.595319
vt 0.152494 0.669521
vt 0.300898 0.817924
vt 0.375100 0.798042
vt 0.429419 0.743722
vt 0.226696 0.798042
vt 0.449301 0.669520
vt 0.429419 0.595319
vt 0.300898 0.521117
vt 0.226696 0.540999
vt 0.172377 0.743722
vt 0.152494 0.669521
vt 0.172377 0.595319
vt 0.300898 0.669520
vt 0.300898 0.817924
vt 0.429419 0.743722
vt 0.375100 0.798042
vt 0.226696 0.798042
vt 0.429419 0.595319
vt 0.449301 0.669520
vt 0.226696 0.540999
vt 0.300898 0.521117
vt 0.375100 0.540999
vt 0.375100 0.540999
vt 0.543853 0.019754
vt 0.672374 -0.054448
vt 0.618055 -0.108767
vt 0.543853 -0.128649
vt 0.543853 0.019754
vt 0.543853 -0.128649
vt 0.618055 -0.108767
vt 0.672374 -0.054448
vt 0.415332 -0.054447
vt 0.469651 -0.108767
vt 0.692256 0.019754
vt 0.672374 0.093956
vt 0.469651 0.148275
vt 0.415332 0.093956
vt 0.543853 0.168158
vt 0.618055 0.148275
vt 0.395449 0.019754
vt 0.469651 -0.108767
vt 0.415332 -0.054447
vt 0.672374 0.093956
vt 0.692256 0.019754
vt 0.469651 0.148275
vt 0.543853 0.168158
vt 0.415332 0.093956
vt 0.618055 0.148275
vt 0.395449 0.019754
vt 0.071879 0.963165
vt 0.200400 0.888963
vt 0.146081 0.834644
vt 0.071879 0.814762
vt 0.071879 0.963165
vt 0.071879 0.814762
vt 0.146081 0.834644
vt 0.200400 0.888963
vt -0.056642 0.888963
vt -0.002323 0.834644
vt 0.220283 0.963165
vt 0.200400 1.037366
vt 0.997677 0.091686
vt 0.943358 0.037367
vt 1.071879 -0.036835
vt 1.071879 0.111568
vt 0.071879 0.111568
vt 0.071879 -0.036835
vt 0.200400 0.037366
vt 0.146081 0.091686
vt 0.923476 -0.036835
vt 0.943358 -0.111037
vt -0.002323 0.834644
vt -0.056642 0.888963
vt 0.200400 1.037366
vt 0.220283 0.963165
vt 0.997677 0.091686
vt 1.071879 0.111568
vt 1.071879 -0.036835
vt 0.943358 0.037367
vt 0.071879 0.111568
vt 0.146081 0.091686
vt 0.200400 0.037366
vt 0.071879 -0.036835
vt 0.943358 -0.111037
vt 0.923476 -0.036835
vt 0.996450 0.789205
vt 1.085418 0.670593
vt 1.014272 0.642474
vt 0.938350 0.653672
vt 0.993082 0.783674
vt 0.934982 0.648142
vt 1.010904 0.636944
vt 1.082050 0.665063
vt 0.846014 0.766753
vt 0.874628 0.695655
vt 1.129358 0.724964
vt 1.140150 0.800596
vt 0.975260 0.930405
vt 0.904114 0.902286
vt 1.051182 0.919208
vt 0.051182 0.919208
vt -0.006918 0.783674
vt 0.140150 0.800596
vt 0.111536 0.871694
vt 0.856807 0.842385
vt 0.877996 0.701185
vt 0.849382 0.772283
vt 1.143518 0.806126
vt 1.132725 0.730494
vt 0.978629 0.935935
vt 1.054550 0.924738
vt 0.907482 0.907816
vt 0.054550 0.924738
vt 0.114904 0.877224
vt 0.143518 0.806126
vt -0.003550 0.789205
vt 0.860174 0.847915
vt 0.300898 0.648403
vt 0.300898 0.591422
vt 0.226696 0.591422
vt 0.226696 0.648403
vt 0.172377 0.591422
vt 0.172377 0.648403
vt 0.743722 0.648403
vt 0.743722 0.591422
vt 0.669521 0.591422
vt 0.669521 0.648403
vt 0.595319 0.591422
vt 0.595319 0.648403
vt 0.540999 0.591422
vt 0.540999 0.648403
vt 0.226696 0.648403
vt 0.226696 0.591422
vt 0.300898 0.591422
vt 0.300898 0.648403
vt 0.375100 0.591422
vt 0.375100 0.648403
vt 0.540999 0.648403
vt 0.540999 0.591422
vt 0.595319 0.591422
vt 0.595319 0.648403
vt 0.669520 0.591422
vt 0.669520 0.648403
vt 0.743722 0.591422
vt 0.743722 0.648403
vt 0.798042 0.591422
vt 0.798042 0.648403
vt 0.375100 0.648403
vt 0.375100 0.591422
vt 0.618055 0.648403
vt 0.618055 0.591422
vt 0.543853 0.591422
vt 0.543853 0.648403
vt 0.093956 0.648403
vt 0.093956 0.591422
vt 0.148275 0.591422
vt 0.148275 0.648403
vt 0.019754 0.648403
vt 0.019754 0.591422
vt 0.945552 0.648403
vt 0.945552 0.591422
vt 1.019754 0.591422
vt 1.019754 0.648403
vt 0.891233 0.648403
vt 0.891233 0.591422
vt 0.543853 0.648403
vt 0.543853 0.591422
vt 0.618055 0.591422
vt 0.618055 0.648403
vt 0.469651 0.648403
vt 0.469651 0.591422
vt 0.415332 0.648403
vt 0.415332 0.591422
vt 0.019754 0.648403
vt 0.019754 0.591422
vt -0.054447 0.591422
vt -0.054447 0.648403
vt 0.093956 0.648403
vt 0.093956 0.591422
vt 0.469651 0.648403
vt 0.469651 0.591422
vt 0.415332 0.591422
vt 0.415332 0.648403
vt 0.146081 0.648403
vt 0.146081 0.591422
vt 0.071879 0.591422
vt 0.071879 0.648403
vt 0.037366 0.648403
vt 0.037366 0.591422
vt 0.091686 0.591422
vt 0.091686 0.648403
vt 0.963165 0.648403
vt 0.963165 0.591422
vt 1.037366 0.591422
vt 1.037366 0.648403
vt 0.888963 0.648403
vt 0.888963 0.591422
vt 0.834644 0.648403
vt 0.834644 0.591422
vt 0.071879 0.648403
vt 0.071879 0.591422
vt 0.146081 0.591422
vt 0.146081 0.648403
vt 0.997677 0.648403
vt 0.997677 0.591422
vt 1.071879 0.591422
vt 1.071879 0.648403
vt 0.888963 0.648403
vt 0.888963 0.591422
vt 0.834644 0.591422
vt 0.834644 0.648403
vt 0.963165 0.648403
vt 0.963165 0.591422
vt 0.037367 0.648403
vt 0.037367 0.591422
vt -0.036835 0.591422
vt -0.036835 0.648403
vt 0.997677 0.648403
vt 0.997677 0.591422
vt 0.943358 0.591422
vt 0.943358 0.648403
vt -0.002323 0.591422
vt -0.002323 0.648403
vt 0.111536 0.712731
vt 0.114904 0.656119
vt 0.054550 0.657169
vt 0.051182 0.713782
vt 0.800596 0.707489
vt 0.806126 0.650876
vt 0.877224 0.656119
vt 0.871694 0.712731
vt 0.724964 0.699458
vt 0.730494 0.642846
vt 0.665063 0.690792
vt 0.670593 0.634180
vt 0.010904 0.683813
vt 0.014272 0.627200
vt 0.085418 0.634180
vt 0.082050 0.690792
vt 0.934982 0.680390
vt 0.938350 0.623777
vt 1.014272 0.627200
vt 1.010904 0.683813
vt 0.874628 0.681441
vt 0.877996 0.624828
vt 0.766753 0.686683
vt 0.772283 0.630071
vt 0.701185 0.624828
vt 0.695655 0.681441
vt 0.842385 0.694714
vt 0.847915 0.638101
vt 0.902286 0.703380
vt 0.907816 0.646767
vt 0.975260 0.710359
vt 0.978629 0.653746
vt 0.907482 0.646767
vt 0.904114 0.703380
vt -0.021371 0.653746
vt -0.024740 0.710359
vn 0.0000 -1.0000 -0.0000
vn 0.0000 1.0000 -0.0000
vn 0.0591 -0.9935 -0.0971
vn -0.0591 0.9935 0.0971
vn 0.0000 0.6532 -0.7571
vn 0.0000 -0.6532 -0.7571
vn -0.3786 -0.6532 -0.6557
vn -0.3786 0.6532 -0.6557
vn -0.6557 -0.6532 -0.3786
vn -0.6557 0.6532 -0.3786
vn -0.7571 -0.6532 0.0000
vn -0.7571 0.6532 0.0000
vn -0.6557 -0.6532 0.3786
vn -0.6557 0.6532 0.3786
vn -0.3786 -0.6532 0.6557
vn -0.3786 0.6532 0.6557
vn 0.0000 -0.6532 0.7571
vn 0.0000 0.6532 0.7571
vn 0.3786 -0.6532 0.6557
vn 0.3786 0.6532 0.6557
vn 0.6557 -0.6532 0.3786
vn 0.6557 0.6532 0.3786
vn 0.7571 -0.6532 0.0000
vn 0.7571 0.6532 0.0000
vn 0.6557 -0.6532 -0.3786
vn 0.6557 0.6532 -0.3786
vn 0.3786 -0.6532 -0.6557
vn 0.3786 0.6532 -0.6557
vn 0.5657 0.7288 -0.3857
vn 0.6430 -0.5692 -0.5125
vn 0.3350 -0.5638 -0.7549
vn 0.2578 0.7342 -0.6281
vn 0.7117 0.7020 -0.0229
vn 0.7889 -0.5959 -0.1497
vn 0.6567 0.6611 0.3629
vn 0.7339 -0.6369 0.2361
vn 0.4153 0.6169 0.6685
vn 0.4925 -0.6811 0.5418
vn 0.0523 0.5813 0.8120
vn 0.1295 -0.7167 0.6852
vn -0.3350 0.5638 0.7549
vn -0.2578 -0.7342 0.6281
vn -0.6430 0.5692 0.5125
vn -0.5657 -0.7288 0.3857
vn -0.7889 0.5959 0.1497
vn -0.7117 -0.7020 0.0229
vn -0.7339 0.6369 -0.2361
vn -0.6567 -0.6611 -0.3629
vn -0.4925 0.6811 -0.5418
vn -0.4153 -0.6169 -0.6685
vn -0.1295 0.7167 -0.6852
vn -0.0523 -0.5813 -0.8120
usemtl Material
s off
f 12/1/1 1/2/1 10/3/1 11/4/1
f 14/5/1 3/6/1 4/7/1 1/2/1
f 13/8/1 14/5/1 1/2/1 12/1/1
f 1/2/1 4/7/1 5/9/1 6/10/1
f 1/2/1 8/11/1 9/12/1 10/3/1
f 24/13/2 23/14/2 22/15/2 2/16/2
f 26/17/2 2/16/2 16/18/2 15/19/2
f 25/20/2 24/13/2 2/16/2 26/17/2
f 2/16/2 18/21/2 17/22/2 16/18/2
f 2/16/2 22/15/2 21/23/2 20/24/2
f 2/16/2 20/24/2 19/25/2 18/21/2
f 1/2/1 6/10/1 7/26/1 8/11/1
f 52/27/1 47/28/1 46/29/1 45/30/1
f 51/31/2 33/32/2 34/33/2 35/34/2
f 51/31/2 31/35/2 32/36/2 33/32/2
f 51/31/2 35/34/2 36/37/2 37/38/2
f 28/39/2 29/40/2 51/31/2 27/41/2
f 27/41/2 51/31/2 37/38/2 38/42/2
f 29/40/2 30/43/2 31/35/2 51/31/2
f 52/27/1 45/30/1 44/44/1 43/45/1
f 52/27/1 49/46/1 48/47/1 47/28/1
f 40/48/1 39/49/1 52/27/1 41/50/1
f 39/49/1 50/51/1 49/46/1 52/27/1
f 41/50/1 52/27/1 43/45/1 42/52/1
f 78/53/1 73/54/1 72/55/1 71/56/1
f 77/57/2 59/58/2 60/59/2 61/60/2
f 77/57/2 57/61/2 58/62/2 59/58/2
f 77/57/2 61/60/2 62/63/2 63/64/2
f 54/65/2 55/66/2 77/67/2 53/68/2
f 53/69/2 77/70/2 63/71/2 64/72/2
f 55/66/2 56/73/2 57/74/2 77/67/2
f 78/53/1 71/56/1 70/75/1 69/76/1
f 78/53/1 75/77/1 74/78/1 73/54/1
f 66/79/1 65/80/1 78/81/1 67/82/1
f 65/83/1 76/84/1 75/85/1 78/86/1
f 67/82/1 78/81/1 69/87/1 68/88/1
f 104/89/3 99/90/3 98/91/3 97/92/3
f 103/93/4 85/94/4 86/95/4 87/96/4
f 103/93/4 83/97/4 84/98/4 85/94/4
f 103/93/4 87/96/4 88/99/4 89/100/4
f 80/101/4 81/102/4 103/93/4 79/103/4
f 79/104/4 103/105/4 89/106/4 90/107/4
f 81/102/4 82/108/4 83/97/4 103/93/4
f 104/89/3 97/92/3 96/109/3 95/110/3
f 104/89/3 101/111/3 100/112/3 99/90/3
f 92/113/3 91/114/3 104/89/3 93/115/3
f 91/116/3 102/117/3 101/118/3 104/119/3
f 93/115/3 104/89/3 95/110/3 94/120/3
s 1
f 26/121/5 14/122/6 13/123/7 25/124/8
f 25/124/8 13/123/7 12/125/9 24/126/10
f 24/127/10 12/128/9 11/129/11 23/130/12
f 23/130/12 11/129/11 10/131/13 22/132/14
f 22/132/14 10/131/13 9/133/15 21/134/16
f 21/135/16 9/136/15 8/137/17 20/138/18
f 20/138/18 8/137/17 7/139/19 19/140/20
f 19/141/20 7/142/19 6/143/21 18/144/22
f 18/144/22 6/143/21 5/145/23 17/146/24
f 17/146/24 5/145/23 4/147/25 16/148/26
f 16/148/26 4/147/25 3/149/27 15/150/28
f 15/151/28 3/152/27 14/122/6 26/121/5
f 38/153/28 50/154/27 39/155/6 27/156/5
f 37/157/26 49/158/25 50/159/27 38/160/28
f 36/161/24 48/162/23 49/158/25 37/157/26
f 35/163/22 47/164/21 48/165/23 36/166/24
f 34/167/20 46/168/19 47/164/21 35/163/22
f 33/169/18 45/170/17 46/171/19 34/172/20
f 32/173/16 44/174/15 45/170/17 33/169/18
f 31/175/14 43/176/13 44/174/15 32/173/16
f 30/177/12 42/178/11 43/179/13 31/180/14
f 29/181/10 41/182/9 42/178/11 30/177/12
f 28/183/8 40/184/7 41/185/9 29/186/10
f 27/156/5 39/155/6 40/184/7 28/183/8
f 64/187/28 76/188/27 65/189/6 53/190/5
f 63/191/26 75/192/25 76/193/27 64/194/28
f 62/195/24 74/196/23 75/197/25 63/198/26
f 61/199/22 73/200/21 74/196/23 62/195/24
f 60/201/20 72/202/19 73/200/21 61/199/22
f 59/203/18 71/204/17 72/205/19 60/206/20
f 58/207/16 70/208/15 71/209/17 59/210/18
f 57/211/14 69/212/13 70/213/15 58/214/16
f 56/215/12 68/216/11 69/212/13 57/211/14
f 55/217/10 67/218/9 68/219/11 56/220/12
f 54/221/8 66/222/7 67/223/9 55/224/10
f 53/190/5 65/189/6 66/225/7 54/226/8
f 90/227/29 102/228/30 91/229/31 79/230/32
f 89/231/33 101/232/34 102/233/30 90/234/29
f 88/235/35 100/236/36 101/232/34 89/231/33
f 87/237/37 99/238/38 100/236/36 88/235/35
f 86/239/39 98/240/40 99/241/38 87/242/37
f 85/243/41 97/244/42 98/245/40 86/246/39
f 84/247/43 96/248/44 97/244/42 85/243/41
f 83/249/45 95/250/46 96/251/44 84/252/43
f 82/253/47 94/254/48 95/250/46 83/249/45
f 81/255/49 93/256/50 94/254/48 82/253/47
f 80/257/51 92/258/52 93/259/50 81/260/49
f 79/230/32 91/229/31 92/261/52 80/262/51
