# Blender v2.83.5 OBJ File: 'mine_parts.blend'
# www.blender.org
mtllib coins_1_003.mtl
o coins_2_Circle.007
v 0.048481 0.000151 0.111617
v 0.048481 0.038547 0.111617
v 0.098481 0.000151 0.025014
v 0.135083 0.000151 0.061617
v 0.148481 0.000151 0.111617
v 0.135083 0.000151 0.161617
v 0.098481 0.000151 0.198219
v 0.048481 0.000151 0.211617
v -0.001519 0.000151 0.198219
v -0.038122 0.000151 0.161617
v -0.051519 0.000151 0.111617
v -0.038122 0.000151 0.061617
v -0.001519 0.000151 0.025014
v 0.048481 0.000151 0.011617
v 0.098481 0.038547 0.025014
v 0.135083 0.038547 0.061617
v 0.148481 0.038547 0.111617
v 0.135083 0.038547 0.161617
v 0.098481 0.038547 0.198219
v 0.048481 0.038547 0.211617
v -0.001519 0.038547 0.198219
v -0.038122 0.038547 0.161617
v -0.051519 0.038547 0.111617
v -0.038122 0.038547 0.061617
v -0.001519 0.038547 0.025014
v 0.048481 0.038547 0.011617
v 0.052024 0.038547 -0.211618
v 0.002024 0.038547 -0.198220
v -0.034578 0.038547 -0.161618
v -0.047976 0.038547 -0.111618
v -0.034578 0.038547 -0.061618
v 0.002024 0.038547 -0.025015
v 0.052024 0.038547 -0.011618
v 0.102024 0.038547 -0.025015
v 0.138627 0.038547 -0.061618
v 0.152024 0.038547 -0.111618
v 0.138627 0.038547 -0.161618
v 0.102024 0.038547 -0.198220
v 0.052024 0.000151 -0.211618
v 0.002024 0.000151 -0.198220
v -0.034578 0.000151 -0.161618
v -0.047976 0.000151 -0.111618
v -0.034578 0.000151 -0.061618
v 0.002024 0.000151 -0.025015
v 0.052024 0.000151 -0.011618
v 0.102024 0.000151 -0.025015
v 0.138627 0.000151 -0.061618
v 0.152024 0.000151 -0.111618
v 0.138627 0.000151 -0.161618
v 0.102024 0.000151 -0.198220
v 0.052024 0.038547 -0.111618
v 0.052024 0.000151 -0.111618
v -0.095468 0.027480 -0.000000
v -0.105542 0.064531 -0.000000
v -0.047220 0.040598 -0.086603
v -0.011899 0.050201 -0.050000
v 0.001029 0.053716 -0.000000
v -0.011899 0.050201 0.050000
v -0.047220 0.040598 0.086602
v -0.095468 0.027480 0.100000
v -0.143717 0.014362 0.086602
v -0.179037 0.004759 0.050000
v -0.191965 0.001244 -0.000000
v -0.179037 0.004759 -0.050000
v -0.143717 0.014362 -0.086603
v -0.095468 0.027480 -0.100000
v -0.057293 0.077649 -0.086603
v -0.021973 0.087252 -0.050000
v -0.009045 0.090767 -0.000000
v -0.021973 0.087252 0.050000
v -0.057293 0.077649 0.086602
v -0.105542 0.064531 0.100000
v -0.153790 0.051413 0.086602
v -0.189111 0.041810 0.050000
v -0.202039 0.038295 -0.000000
v -0.189111 0.041810 -0.050000
v -0.153790 0.051413 -0.086603
v -0.105542 0.064531 -0.100000
vt 0.364647 0.796973
vt 0.493168 0.722771
vt 0.364647 0.648569
vt 0.344765 0.722771
vt 0.493168 0.871175
vt 0.567370 0.851292
vt 0.621690 0.796973
vt 0.418967 0.851292
vt 0.641572 0.722771
vt 0.621689 0.648569
vt 0.493168 0.574368
vt 0.418967 0.594250
vt 0.364647 0.796973
vt 0.344765 0.722771
vt 0.364647 0.648569
vt 0.493168 0.722771
vt 0.493168 0.871175
vt 0.621690 0.796973
vt 0.567370 0.851292
vt 0.418967 0.851292
vt 0.621689 0.648569
vt 0.641572 0.722771
vt 0.418967 0.594250
vt 0.493168 0.574368
vt 0.567370 0.594250
vt 0.567370 0.594250
vt 0.498427 0.054059
vt 0.626948 -0.020143
vt 0.572628 -0.074462
vt 0.498427 -0.094345
vt 0.498427 0.054059
vt 0.498427 -0.094345
vt 0.572628 -0.074462
vt 0.626948 -0.020143
vt 0.369906 -0.020143
vt 0.424225 -0.074462
vt 0.646830 0.054059
vt 0.626948 0.128260
vt 0.424225 0.182580
vt 0.369906 0.128260
vt 0.498427 0.202462
vt 0.572629 0.182580
vt 0.350023 0.054059
vt 0.424225 -0.074462
vt 0.369906 -0.020143
vt 0.626948 0.128260
vt 0.646830 0.054059
vt 0.424225 0.182580
vt 0.498427 0.202462
vt 0.369906 0.128260
vt 0.572629 0.182580
vt 0.350023 0.054059
vt 0.155524 0.962617
vt 0.279543 0.888415
vt 0.155524 0.814213
vt 0.136338 0.888415
vt 0.279543 0.036818
vt 0.351146 0.016936
vt 0.403562 -0.037383
vt 0.279543 -0.111585
vt 0.207941 0.016936
vt 0.155524 -0.037383
vt 0.403562 0.962617
vt 0.422748 0.888415
vt 0.403562 0.814213
vt 0.279543 0.740011
vt 0.207941 0.759894
vt 0.140574 0.962617
vt 0.121388 0.888415
vt 0.140574 0.814213
vt 0.264593 0.888415
vt 0.264593 0.036818
vt 0.264593 -0.111585
vt 0.388613 -0.037383
vt 0.336196 0.016936
vt 0.192991 0.016936
vt 0.140574 -0.037383
vt 0.388613 0.814213
vt 0.407798 0.888415
vt 0.388613 0.962617
vt 0.192991 0.759894
vt 0.264593 0.740011
vt 0.336196 0.759894
vt 0.351146 0.759894
vt 0.493168 0.648403
vt 0.493168 0.591422
vt 0.418967 0.591422
vt 0.418967 0.648403
vt 0.364647 0.591422
vt 0.364647 0.648403
vt 0.796973 0.648403
vt 0.796973 0.591422
vt 0.722771 0.591422
vt 0.722771 0.648403
vt 0.648569 0.591422
vt 0.648569 0.648403
vt 0.594250 0.591422
vt 0.594250 0.648403
vt 0.418967 0.648403
vt 0.418967 0.591422
vt 0.493168 0.591422
vt 0.493168 0.648403
vt 0.567370 0.591422
vt 0.567370 0.648403
vt 0.621689 0.591422
vt 0.621689 0.648403
vt 0.648569 0.648403
vt 0.648569 0.591422
vt 0.722771 0.591422
vt 0.722771 0.648403
vt 0.796973 0.591422
vt 0.796973 0.648403
vt 0.851292 0.591422
vt 0.851292 0.648403
vt 0.567370 0.648403
vt 0.567370 0.591422
vt 0.572629 0.648403
vt 0.572629 0.591422
vt 0.498427 0.591422
vt 0.498427 0.648403
vt 0.128260 0.648403
vt 0.128260 0.591422
vt 0.182580 0.591422
vt 0.182580 0.648403
vt 0.054059 0.648403
vt 0.054059 0.591422
vt 0.979857 0.648403
vt 0.979857 0.591422
vt 1.054059 0.591422
vt 1.054059 0.648403
vt 0.572628 0.648403
vt 0.572628 0.591422
vt 0.626948 0.591422
vt 0.626948 0.648403
vt 0.498427 0.648403
vt 0.498427 0.591422
vt 0.424225 0.648403
vt 0.424225 0.591422
vt 0.979857 0.648403
vt 0.979857 0.591422
vt 0.925538 0.591422
vt 0.925538 0.648403
vt 0.054059 0.648403
vt 0.054059 0.591422
vt -0.020143 0.591422
vt -0.020143 0.648403
vt 0.128260 0.648403
vt 0.128260 0.591422
vt 0.424225 0.648403
vt 0.424225 0.591422
vt 0.369906 0.591422
vt 0.369906 0.648403
vt 0.264593 0.686965
vt 0.279543 0.631980
vt 0.207941 0.612512
vt 0.192991 0.667498
vt 0.155524 0.598261
vt 0.140574 0.653246
vt 0.962617 0.653246
vt 0.962617 0.598261
vt 0.888415 0.593044
vt 0.888415 0.648030
vt 0.814213 0.598261
vt 0.814213 0.653246
vt 0.140574 0.653246
vt 0.155524 0.598261
vt 0.207941 0.612512
vt 0.192991 0.667498
vt 0.279543 0.631979
vt 0.264593 0.686965
vt 0.351146 0.651447
vt 0.336196 0.706433
vt 0.403562 0.665698
vt 0.388613 0.720684
vt 0.814213 0.720684
vt 0.814213 0.665698
vt 0.888415 0.670915
vt 0.888415 0.725900
vt 0.962617 0.665698
vt 0.962617 0.720684
vt 0.388613 0.720684
vt 0.403562 0.665698
vt 0.351146 0.651447
vt 0.336196 0.706433
vn 0.0000 -1.0000 -0.0000
vn 0.0000 1.0000 0.0000
vn 0.2624 -0.9650 -0.0000
vn -0.2624 0.9650 0.0000
vn 0.0000 0.6532 -0.7571
vn 0.0000 -0.6532 -0.7571
vn -0.3786 -0.6532 -0.6557
vn -0.3786 0.6532 -0.6557
vn -0.6557 -0.6532 -0.3786
vn -0.6557 0.6532 -0.3786
vn -0.7571 -0.6532 0.0000
vn -0.7571 0.6532 0.0000
vn -0.6557 -0.6532 0.3786
vn -0.6557 0.6532 0.3786
vn -0.3786 -0.6532 0.6557
vn -0.3786 0.6532 0.6557
vn 0.0000 -0.6532 0.7571
vn 0.0000 0.6532 0.7571
vn 0.3786 -0.6532 0.6557
vn 0.3786 0.6532 0.6557
vn 0.6557 -0.6532 0.3786
vn 0.6557 0.6532 0.3786
vn 0.7571 -0.6532 0.0000
vn 0.7571 0.6532 0.0000
vn 0.6557 -0.6532 -0.3786
vn 0.6557 0.6532 -0.3786
vn 0.3786 -0.6532 -0.6557
vn 0.3786 0.6532 -0.6557
vn -0.1714 0.6303 -0.7571
vn 0.1714 -0.6303 -0.7571
vn -0.1939 -0.7297 -0.6557
vn -0.5367 0.5310 -0.6557
vn -0.4613 -0.8024 -0.3786
vn -0.8041 0.4583 -0.3786
vn -0.5593 -0.8290 0.0000
vn -0.9020 0.4317 0.0000
vn -0.4613 -0.8024 0.3786
vn -0.8041 0.4583 0.3786
vn -0.1939 -0.7297 0.6557
vn -0.5367 0.5310 0.6557
vn 0.1714 -0.6303 0.7571
vn -0.1714 0.6303 0.7571
vn 0.5367 -0.5310 0.6557
vn 0.1939 0.7297 0.6557
vn 0.8041 -0.4583 0.3786
vn 0.4613 0.8024 0.3786
vn 0.9020 -0.4317 0.0000
vn 0.5593 0.8290 0.0000
vn 0.8041 -0.4583 -0.3786
vn 0.4613 0.8024 -0.3786
vn 0.5367 -0.5310 -0.6557
vn 0.1939 0.7297 -0.6557
usemtl Material
s off
f 12/1/1 1/2/1 10/3/1 11/4/1
f 14/5/1 3/6/1 4/7/1 1/2/1
f 13/8/1 14/5/1 1/2/1 12/1/1
f 1/2/1 4/7/1 5/9/1 6/10/1
f 1/2/1 8/11/1 9/12/1 10/3/1
f 24/13/2 23/14/2 22/15/2 2/16/2
f 26/17/2 2/16/2 16/18/2 15/19/2
f 25/20/2 24/13/2 2/16/2 26/17/2
f 2/16/2 18/21/2 17/22/2 16/18/2
f 2/16/2 22/15/2 21/23/2 20/24/2
f 2/16/2 20/24/2 19/25/2 18/21/2
f 1/2/1 6/10/1 7/26/1 8/11/1
f 52/27/1 47/28/1 46/29/1 45/30/1
f 51/31/2 33/32/2 34/33/2 35/34/2
f 51/31/2 31/35/2 32/36/2 33/32/2
f 51/31/2 35/34/2 36/37/2 37/38/2
f 28/39/2 29/40/2 51/31/2 27/41/2
f 27/41/2 51/31/2 37/38/2 38/42/2
f 29/40/2 30/43/2 31/35/2 51/31/2
f 52/27/1 45/30/1 44/44/1 43/45/1
f 52/27/1 49/46/1 48/47/1 47/28/1
f 40/48/1 39/49/1 52/27/1 41/50/1
f 39/49/1 50/51/1 49/46/1 52/27/1
f 41/50/1 52/27/1 43/45/1 42/52/1
f 64/53/3 53/54/3 62/55/3 63/56/3
f 66/57/3 55/58/3 56/59/3 53/60/3
f 65/61/3 66/57/3 53/60/3 64/62/3
f 53/54/3 56/63/3 57/64/3 58/65/3
f 53/54/3 60/66/3 61/67/3 62/55/3
f 76/68/4 75/69/4 74/70/4 54/71/4
f 78/72/4 54/73/4 68/74/4 67/75/4
f 77/76/4 76/77/4 54/73/4 78/72/4
f 54/71/4 70/78/4 69/79/4 68/80/4
f 54/71/4 74/70/4 73/81/4 72/82/4
f 54/71/4 72/82/4 71/83/4 70/78/4
f 53/54/3 58/65/3 59/84/3 60/66/3
s 1
f 26/85/5 14/86/6 13/87/7 25/88/8
f 25/88/8 13/87/7 12/89/9 24/90/10
f 24/91/10 12/92/9 11/93/11 23/94/12
f 23/94/12 11/93/11 10/95/13 22/96/14
f 22/96/14 10/95/13 9/97/15 21/98/16
f 21/99/16 9/100/15 8/101/17 20/102/18
f 20/102/18 8/101/17 7/103/19 19/104/20
f 19/104/20 7/103/19 6/105/21 18/106/22
f 18/107/22 6/108/21 5/109/23 17/110/24
f 17/110/24 5/109/23 4/111/25 16/112/26
f 16/112/26 4/111/25 3/113/27 15/114/28
f 15/115/28 3/116/27 14/86/6 26/85/5
f 38/117/28 50/118/27 39/119/6 27/120/5
f 37/121/26 49/122/25 50/123/27 38/124/28
f 36/125/24 48/126/23 49/122/25 37/121/26
f 35/127/22 47/128/21 48/129/23 36/130/24
f 34/131/20 46/132/19 47/133/21 35/134/22
f 33/135/18 45/136/17 46/132/19 34/131/20
f 32/137/16 44/138/15 45/136/17 33/135/18
f 31/139/14 43/140/13 44/141/15 32/142/16
f 30/143/12 42/144/11 43/145/13 31/146/14
f 29/147/10 41/148/9 42/144/11 30/143/12
f 28/149/8 40/150/7 41/151/9 29/152/10
f 27/120/5 39/119/6 40/150/7 28/149/8
f 78/153/29 66/154/30 65/155/31 77/156/32
f 77/156/32 65/155/31 64/157/33 76/158/34
f 76/159/34 64/160/33 63/161/35 75/162/36
f 75/162/36 63/161/35 62/163/37 74/164/38
f 74/165/38 62/166/37 61/167/39 73/168/40
f 73/168/40 61/167/39 60/169/41 72/170/42
f 72/170/42 60/169/41 59/171/43 71/172/44
f 71/172/44 59/171/43 58/173/45 70/174/46
f 70/175/46 58/176/45 57/177/47 69/178/48
f 69/178/48 57/177/47 56/179/49 68/180/50
f 68/181/50 56/182/49 55/183/51 67/184/52
f 67/184/52 55/183/51 66/154/30 78/153/29
