# Blender v2.83.5 OBJ File: 'mine_parts.blend'
# www.blender.org
mtllib coins_1_002.mtl
o coins_1_Circle.008
v 0.215430 0.038643 -0.193543
v 0.165430 0.038643 -0.180145
v 0.128828 0.038643 -0.143543
v 0.115430 0.038643 -0.093543
v 0.128828 0.038643 -0.043543
v 0.165430 0.038643 -0.006940
v 0.215430 0.038643 0.006457
v 0.265430 0.038643 -0.006940
v 0.302033 0.038643 -0.043543
v 0.315430 0.038643 -0.093542
v 0.302033 0.038643 -0.143542
v 0.265431 0.038643 -0.180145
v 0.215430 0.000247 -0.193543
v 0.165430 0.000247 -0.180145
v 0.128828 0.000247 -0.143543
v 0.115430 0.000247 -0.093543
v 0.128828 0.000247 -0.043543
v 0.165430 0.000247 -0.006940
v 0.215430 0.000247 0.006457
v 0.265430 0.000247 -0.006940
v 0.302033 0.000247 -0.043543
v 0.315430 0.000247 -0.093542
v 0.302033 0.000247 -0.143542
v 0.265431 0.000247 -0.180145
v 0.215430 0.038643 -0.093543
v 0.215430 0.000247 -0.093543
v 0.068739 0.038643 -0.010710
v 0.018739 0.038643 0.002688
v -0.017864 0.038643 0.039290
v -0.031261 0.038643 0.089290
v -0.017864 0.038643 0.139290
v 0.018739 0.038643 0.175893
v 0.068739 0.038643 0.189290
v 0.118739 0.038643 0.175893
v 0.155341 0.038643 0.139291
v 0.168739 0.038643 0.089291
v 0.155341 0.038643 0.039291
v 0.118739 0.038643 0.002688
v 0.068739 0.000247 -0.010710
v 0.018739 0.000247 0.002688
v -0.017864 0.000247 0.039290
v -0.031261 0.000247 0.089290
v -0.017864 0.000247 0.139290
v 0.018739 0.000247 0.175893
v 0.068739 0.000247 0.189290
v 0.118739 0.000247 0.175893
v 0.155341 0.000247 0.139291
v 0.168739 0.000247 0.089291
v 0.155341 0.000247 0.039291
v 0.118739 0.000247 0.002688
v 0.068739 0.038643 0.089290
v 0.068739 0.000247 0.089290
v -0.284172 0.038643 -0.095748
v -0.334172 0.038643 -0.082351
v -0.370774 0.038643 -0.045748
v -0.384172 0.038643 0.004252
v -0.370774 0.038643 0.054252
v -0.334172 0.038643 0.090854
v -0.284172 0.038643 0.104252
v -0.234172 0.038643 0.090854
v -0.197569 0.038643 0.054252
v -0.184172 0.038643 0.004252
v -0.197569 0.038643 -0.045748
v -0.234172 0.038643 -0.082351
v -0.284172 0.000247 -0.095748
v -0.334172 0.000247 -0.082351
v -0.370774 0.000247 -0.045748
v -0.384172 0.000247 0.004252
v -0.370774 0.000247 0.054252
v -0.334172 0.000247 0.090854
v -0.284172 0.000247 0.104252
v -0.234172 0.000247 0.090854
v -0.197569 0.000247 0.054252
v -0.184172 0.000247 0.004252
v -0.197569 0.000247 -0.045748
v -0.234172 0.000247 -0.082351
v -0.284172 0.038643 0.004252
v -0.284172 0.000247 0.004252
vt 0.675488 0.056384
vt 0.804009 -0.017817
vt 0.749689 -0.072137
vt 0.675488 -0.092019
vt 0.675488 0.056384
vt 0.675488 -0.092019
vt 0.749689 -0.072137
vt 0.804009 -0.017817
vt 0.546966 -0.017817
vt 0.601286 -0.072137
vt 0.823891 0.056384
vt 0.804009 0.130586
vt 0.601286 0.184906
vt 0.546966 0.130586
vt 0.675488 0.204788
vt 0.749689 0.184905
vt 0.527084 0.056384
vt 0.601286 -0.072137
vt 0.546966 -0.017817
vt 0.804009 0.130586
vt 0.823891 0.056384
vt 0.601286 0.184906
vt 0.675488 0.204788
vt 0.546966 0.130586
vt 0.749689 0.184905
vt 0.527084 0.056384
vt 0.457792 0.785054
vt 0.586313 0.710852
vt 0.531994 0.656532
vt 0.457792 0.636650
vt 0.457792 0.785054
vt 0.457792 0.636650
vt 0.531994 0.656532
vt 0.586313 0.710852
vt 0.329271 0.710852
vt 0.383590 0.656532
vt 0.606195 0.785053
vt 0.586313 0.859255
vt 0.383590 0.913575
vt 0.329271 0.859255
vt 0.457792 0.933457
vt 0.531994 0.913575
vt 0.309388 0.785054
vt 0.383590 0.656532
vt 0.329271 0.710852
vt 0.586313 0.859255
vt 0.606195 0.785053
vt 0.383590 0.913575
vt 0.457792 0.933457
vt 0.329271 0.859255
vt 0.531994 0.913575
vt 0.309388 0.785054
vt 0.934061 0.911254
vt 1.062582 0.837052
vt 1.008262 0.782733
vt 0.934061 0.762850
vt 0.934061 0.911254
vt 0.934061 0.762850
vt 1.008262 0.782733
vt 1.062582 0.837052
vt 0.805539 0.837052
vt 0.859859 0.782733
vt 1.082464 0.911254
vt 1.062582 0.985456
vt 0.859859 0.039775
vt 0.805539 -0.014544
vt 0.934061 -0.088746
vt 0.934061 0.059657
vt 1.062582 -0.014544
vt 1.008262 0.039775
vt 0.805539 0.985456
vt 0.785657 0.911254
vt 0.859859 0.782733
vt 0.805539 0.837052
vt 1.062582 0.985456
vt 1.082464 0.911254
vt 0.859859 0.039775
vt 0.934061 0.059657
vt 0.934061 -0.088746
vt 0.805539 -0.014544
vt 1.008262 0.039775
vt 1.062582 -0.014544
vt 0.805539 0.985456
vt 0.785657 0.911254
vt 0.749689 0.648403
vt 0.749689 0.591422
vt 0.675488 0.591422
vt 0.675488 0.648403
vt 0.130586 0.648403
vt 0.130586 0.591422
vt 0.184905 0.591422
vt 0.184905 0.648403
vt 0.056384 0.648403
vt 0.056384 0.591422
vt 0.982183 0.648403
vt 0.982183 0.591422
vt 1.056384 0.591422
vt 1.056384 0.648403
vt 0.749689 0.648403
vt 0.749689 0.591422
vt 0.804009 0.591422
vt 0.804009 0.648403
vt 0.675488 0.648403
vt 0.675488 0.591422
vt 0.601286 0.648403
vt 0.601286 0.591422
vt 0.546966 0.648403
vt 0.546966 0.591422
vt 0.056384 0.648403
vt 0.056384 0.591422
vt -0.017817 0.591422
vt -0.017817 0.648403
vt 0.130586 0.648403
vt 0.130586 0.591422
vt 0.601286 0.648403
vt 0.601286 0.591422
vt 0.546966 0.591422
vt 0.546966 0.648403
vt 0.531994 0.648403
vt 0.531994 0.591422
vt 0.457792 0.591422
vt 0.457792 0.648403
vt 0.859255 0.648403
vt 0.859255 0.591422
vt 0.913575 0.591422
vt 0.913575 0.648403
vt 0.785053 0.648403
vt 0.785053 0.591422
vt 0.710852 0.648403
vt 0.710852 0.591422
vt 0.531994 0.648403
vt 0.531994 0.591422
vt 0.586313 0.591422
vt 0.586313 0.648403
vt 0.457792 0.648403
vt 0.457792 0.591422
vt 0.383590 0.648403
vt 0.383590 0.591422
vt 0.329271 0.648403
vt 0.329271 0.591422
vt 0.785054 0.648403
vt 0.785054 0.591422
vt 0.710852 0.591422
vt 0.710852 0.648403
vt 0.859255 0.648403
vt 0.859255 0.591422
vt 0.383590 0.648403
vt 0.383590 0.591422
vt 0.329271 0.591422
vt 0.329271 0.648403
vt 0.008262 0.648403
vt 0.008262 0.591422
vt -0.065939 0.591422
vt -0.065939 0.648403
vt 0.985456 0.648403
vt 0.985456 0.591422
vt 1.039775 0.591422
vt 1.039775 0.648403
vt 0.911254 0.648403
vt 0.911254 0.591422
vt 0.837052 0.648403
vt 0.837052 0.591422
vt 0.008262 0.648403
vt 0.008262 0.591422
vt 0.062582 0.591422
vt 0.062582 0.648403
vt 0.934061 0.648403
vt 0.934061 0.591422
vt 1.008262 0.591422
vt 1.008262 0.648403
vt 0.859859 0.648403
vt 0.859859 0.591422
vt 0.837052 0.648403
vt 0.837052 0.591422
vt 0.782733 0.591422
vt 0.782733 0.648403
vt 0.911254 0.648403
vt 0.911254 0.591422
vt 0.985456 0.648403
vt 0.985456 0.591422
vt 0.039775 0.648403
vt 0.039775 0.591422
vt -0.014544 0.591422
vt -0.014544 0.648403
vt 0.934061 0.648403
vt 0.934061 0.591422
vt 0.859859 0.591422
vt 0.859859 0.648403
vn 0.0000 -1.0000 0.0000
vn 0.0000 1.0000 0.0000
vn 0.3786 0.6532 -0.6557
vn 0.3786 -0.6532 -0.6557
vn 0.0000 -0.6532 -0.7571
vn 0.0000 0.6532 -0.7571
vn 0.6557 0.6532 -0.3786
vn 0.6557 -0.6532 -0.3786
vn 0.7571 0.6532 0.0000
vn 0.7571 -0.6532 0.0000
vn 0.6557 0.6532 0.3786
vn 0.6557 -0.6532 0.3786
vn 0.3786 0.6532 0.6557
vn 0.3786 -0.6532 0.6557
vn 0.0000 0.6532 0.7571
vn 0.0000 -0.6532 0.7571
vn -0.3786 0.6532 0.6557
vn -0.3786 -0.6532 0.6557
vn -0.6557 0.6532 0.3786
vn -0.6557 -0.6532 0.3786
vn -0.7571 0.6532 0.0000
vn -0.7571 -0.6532 0.0000
vn -0.6557 0.6532 -0.3786
vn -0.6557 -0.6532 -0.3786
vn -0.3786 0.6532 -0.6557
vn -0.3786 -0.6532 -0.6557
usemtl Material
s off
f 26/1/1 21/2/1 20/3/1 19/4/1
f 25/5/2 7/6/2 8/7/2 9/8/2
f 25/5/2 5/9/2 6/10/2 7/6/2
f 25/5/2 9/8/2 10/11/2 11/12/2
f 2/13/2 3/14/2 25/5/2 1/15/2
f 1/15/2 25/5/2 11/12/2 12/16/2
f 3/14/2 4/17/2 5/9/2 25/5/2
f 26/1/1 19/4/1 18/18/1 17/19/1
f 26/1/1 23/20/1 22/21/1 21/2/1
f 14/22/1 13/23/1 26/1/1 15/24/1
f 13/23/1 24/25/1 23/20/1 26/1/1
f 15/24/1 26/1/1 17/19/1 16/26/1
f 52/27/1 47/28/1 46/29/1 45/30/1
f 51/31/2 33/32/2 34/33/2 35/34/2
f 51/31/2 31/35/2 32/36/2 33/32/2
f 51/31/2 35/34/2 36/37/2 37/38/2
f 28/39/2 29/40/2 51/31/2 27/41/2
f 27/41/2 51/31/2 37/38/2 38/42/2
f 29/40/2 30/43/2 31/35/2 51/31/2
f 52/27/1 45/30/1 44/44/1 43/45/1
f 52/27/1 49/46/1 48/47/1 47/28/1
f 40/48/1 39/49/1 52/27/1 41/50/1
f 39/49/1 50/51/1 49/46/1 52/27/1
f 41/50/1 52/27/1 43/45/1 42/52/1
f 78/53/1 73/54/1 72/55/1 71/56/1
f 77/57/2 59/58/2 60/59/2 61/60/2
f 77/57/2 57/61/2 58/62/2 59/58/2
f 77/57/2 61/60/2 62/63/2 63/64/2
f 54/65/2 55/66/2 77/67/2 53/68/2
f 53/68/2 77/67/2 63/69/2 64/70/2
f 55/71/2 56/72/2 57/61/2 77/57/2
f 78/53/1 71/56/1 70/73/1 69/74/1
f 78/53/1 75/75/1 74/76/1 73/54/1
f 66/77/1 65/78/1 78/79/1 67/80/1
f 65/78/1 76/81/1 75/82/1 78/79/1
f 67/83/1 78/53/1 69/74/1 68/84/1
s 1
f 12/85/3 24/86/4 13/87/5 1/88/6
f 11/89/7 23/90/8 24/91/4 12/92/3
f 10/93/9 22/94/10 23/90/8 11/89/7
f 9/95/11 21/96/12 22/97/10 10/98/9
f 8/99/13 20/100/14 21/101/12 9/102/11
f 7/103/15 19/104/16 20/100/14 8/99/13
f 6/105/17 18/106/18 19/104/16 7/103/15
f 5/107/19 17/108/20 18/106/18 6/105/17
f 4/109/21 16/110/22 17/111/20 5/112/19
f 3/113/23 15/114/24 16/110/22 4/109/21
f 2/115/25 14/116/26 15/117/24 3/118/23
f 1/88/6 13/87/5 14/116/26 2/115/25
f 38/119/3 50/120/4 39/121/5 27/122/6
f 37/123/7 49/124/8 50/125/4 38/126/3
f 36/127/9 48/128/10 49/124/8 37/123/7
f 35/129/11 47/130/12 48/128/10 36/127/9
f 34/131/13 46/132/14 47/133/12 35/134/11
f 33/135/15 45/136/16 46/132/14 34/131/13
f 32/137/17 44/138/18 45/136/16 33/135/15
f 31/139/19 43/140/20 44/138/18 32/137/17
f 30/141/21 42/142/22 43/143/20 31/144/19
f 29/145/23 41/146/24 42/142/22 30/141/21
f 28/147/25 40/148/26 41/149/24 29/150/23
f 27/122/6 39/121/5 40/148/26 28/147/25
f 64/151/3 76/152/4 65/153/5 53/154/6
f 63/155/7 75/156/8 76/157/4 64/158/3
f 62/159/9 74/160/10 75/156/8 63/155/7
f 61/161/11 73/162/12 74/160/10 62/159/9
f 60/163/13 72/164/14 73/165/12 61/166/11
f 59/167/15 71/168/16 72/169/14 60/170/13
f 58/171/17 70/172/18 71/168/16 59/167/15
f 57/173/19 69/174/20 70/175/18 58/176/17
f 56/177/21 68/178/22 69/174/20 57/173/19
f 55/179/23 67/180/24 68/178/22 56/177/21
f 54/181/25 66/182/26 67/183/24 55/184/23
f 53/185/6 65/186/5 66/187/26 54/188/25
