# Blender v2.83.5 OBJ File: ''
# www.blender.org
mtllib potion_1_001.mtl
o Cork_Mesh.002
v -0.037504 0.504717 -0.047804
v 0.015966 0.504653 -0.059131
v -0.007456 0.430775 -0.039886
v 0.059958 0.504698 -0.007346
v 0.039470 0.504579 0.047477
v 0.038657 0.432099 0.009017
v -0.034027 0.384391 0.029422
v -0.044716 0.384408 -0.012198
v 0.045982 0.384392 -0.005842
v -0.047016 0.504759 0.037552
v 0.015330 0.384452 0.045698
v -0.059189 0.504726 0.002088
v -0.032186 0.430335 0.025815
v 0.012729 0.432162 0.038284
v -0.010361 0.504712 0.058784
v 0.030438 0.429784 -0.025391
v -0.036954 0.432231 -0.014679
v 0.003325 0.384452 -0.048086
v 0.046219 0.455171 0.008150
v 0.067420 0.454052 0.011888
v 0.059288 0.454052 -0.034230
v 0.040645 0.455171 -0.023466
v 0.079955 0.438054 0.014098
v 0.070311 0.438054 -0.040594
v 0.053528 0.431343 0.009439
v 0.047072 0.431343 -0.027177
v -0.091105 0.007688 0.016064
v 0.000000 0.031285 0.000000
v -0.059464 0.007688 0.070867
v 0.057130 0.402234 0.010074
v 0.050239 0.402234 -0.029006
v 0.101907 0.316543 0.017969
v 0.089615 0.316543 -0.051739
v 0.161439 0.199644 0.028466
v 0.141967 0.199644 -0.081965
v 0.186211 0.035507 0.032834
v 0.163751 0.035507 -0.094542
v -0.037289 0.402234 0.044439
v -0.066515 0.316543 0.079269
v 0.000000 0.316543 0.103479
v 0.000000 0.402234 0.058011
v 0.165960 0.007511 0.029263
v 0.145943 0.007511 -0.084260
v 0.091105 0.007688 0.016064
v 0.080116 0.007688 -0.046255
v -0.105372 0.199644 0.125577
v 0.000000 0.199644 0.163929
v 0.016052 0.455171 -0.044102
v 0.023415 0.454052 -0.064332
v -0.023415 0.454052 -0.064332
v -0.016052 0.455171 -0.044102
v -0.079955 0.438054 0.014098
v -0.053528 0.431343 0.009439
v -0.034938 0.431343 0.041638
v -0.052187 0.438054 0.062194
v 0.035392 0.316543 -0.097238
v 0.056067 0.199644 -0.154043
v -0.056067 0.199644 -0.154043
v -0.035392 0.316543 -0.097238
v -0.057130 0.402234 0.010074
v -0.101907 0.316543 0.017969
v -0.161439 0.199644 0.028466
v -0.186211 0.035507 0.032834
v -0.121541 0.035507 0.144846
v 0.027768 0.438054 -0.076292
v -0.027768 0.438054 -0.076292
v -0.165960 0.007511 0.029263
v -0.108323 0.007511 0.129094
v 0.018590 0.431343 -0.051076
v -0.018590 0.431343 -0.051076
v -0.030167 0.455171 0.035952
v -0.044005 0.454052 0.052444
v 0.000000 0.454052 0.068460
v 0.000000 0.455171 0.046932
v 0.019841 0.402234 -0.054513
v 0.064670 0.035507 -0.177680
v -0.059288 0.454052 -0.034230
v -0.040645 0.455171 -0.023466
v -0.070311 0.438054 -0.040594
v -0.047072 0.431343 -0.027177
v -0.019841 0.402234 -0.054513
v -0.050239 0.402234 -0.029006
v -0.089615 0.316543 -0.051739
v -0.141967 0.199644 -0.081965
v -0.064670 0.035507 -0.177680
v -0.163751 0.035507 -0.094542
v 0.000000 0.035507 0.189083
v -0.057638 0.007511 -0.158358
v -0.145943 0.007511 -0.084260
v 0.044005 0.454052 0.052444
v 0.030167 0.455171 0.035952
v 0.000000 0.438053 0.081188
v 0.052187 0.438054 0.062194
v 0.000000 0.431343 0.054354
v 0.034938 0.431343 0.041638
v 0.057638 0.007511 -0.158358
v 0.037289 0.402234 0.044439
v 0.066515 0.316543 0.079269
v 0.105372 0.199644 0.125577
v 0.121541 0.035507 0.144846
v 0.000000 0.007511 0.168521
v 0.108323 0.007511 0.129094
v 0.000000 0.007688 0.092510
v 0.059464 0.007688 0.070867
v 0.031640 0.007688 -0.086931
v -0.031640 0.007688 -0.086931
v -0.080116 0.007688 -0.046255
v -0.067420 0.454052 0.011888
v -0.046219 0.455171 0.008150
vt 0.032831 0.312052
vt 0.026985 0.355854
vt 0.090677 0.343107
vt 0.036022 0.410416
vt 0.064968 0.432421
vt 0.093600 0.402087
vt 0.132105 0.433834
vt 0.158189 0.447002
vt 0.132203 0.388168
vt 0.066728 0.474256
vt 0.118792 0.420041
vt 0.085092 0.488867
vt 0.113433 0.451906
vt 0.100051 0.426634
vt 0.093126 0.521930
vt 0.073029 0.450024
vt 0.090718 0.375328
vt 0.069605 0.547414
vt 0.027830 0.536752
vt 0.098999 0.311924
vt 0.116379 0.353610
vt 0.140766 0.324957
vt 0.131529 0.475799
vt 0.317416 0.484073
vt 0.311245 0.465649
vt 0.277913 0.477931
vt 0.287195 0.494092
vt 0.307147 0.452571
vt 0.270803 0.462755
vt 0.299879 0.428004
vt 0.263355 0.442189
vt 0.422302 0.143363
vt 0.378875 0.078107
vt 0.396403 0.150629
vt 0.292758 0.399291
vt 0.252781 0.412456
vt 0.274935 0.314036
vt 0.220887 0.322253
vt 0.272135 0.234779
vt 0.208645 0.227012
vt 0.289109 0.168797
vt 0.241069 0.135688
vt 0.409745 0.391217
vt 0.410141 0.310419
vt 0.367151 0.310018
vt 0.370957 0.392158
vt 0.296222 0.156762
vt 0.255206 0.122300
vt 0.318749 0.130240
vt 0.294344 0.099290
vt 0.406520 0.240770
vt 0.364787 0.241956
vt 0.520063 0.514589
vt 0.539456 0.502355
vt 0.504517 0.478269
vt 0.495601 0.493159
vt 0.443122 0.444727
vt 0.444781 0.423572
vt 0.408305 0.420135
vt 0.408666 0.440907
vt 0.626717 0.337862
vt 0.656906 0.200876
vt 0.566209 0.216268
vt 0.559152 0.317282
vt 0.449824 0.395105
vt 0.454060 0.308578
vt 0.450539 0.237137
vt 0.438241 0.180082
vt 0.402302 0.188438
vt 0.554935 0.484444
vt 0.511866 0.464682
vt 0.434391 0.169360
vt 0.400762 0.178521
vt 0.555976 0.456981
vt 0.520486 0.441624
vt 0.244019 0.501494
vt 0.261846 0.513126
vt 0.229302 0.486951
vt 0.226097 0.455109
vt 0.406856 0.472690
vt 0.407456 0.454763
vt 0.375103 0.453869
vt 0.376540 0.471278
vt 0.214123 0.428269
vt 0.157880 0.344463
vt 0.107537 0.218491
vt 0.180966 0.064748
vt 0.473392 0.465457
vt 0.467537 0.482393
vt 0.477936 0.451103
vt 0.482523 0.431765
vt 0.568848 0.429683
vt 0.529829 0.412763
vt 0.489597 0.402307
vt 0.503088 0.312234
vt 0.500404 0.228963
vt 0.524622 0.128334
vt 0.476312 0.162223
vt 0.366522 0.190358
vt 0.510213 0.114467
vt 0.468977 0.150755
vt 0.343547 0.456908
vt 0.346835 0.473148
vt 0.374896 0.440124
vt 0.341293 0.443071
vt 0.372655 0.419305
vt 0.336492 0.421236
vt 0.209165 0.051054
vt 0.332760 0.393442
vt 0.322724 0.311122
vt 0.320976 0.240421
vt 0.330165 0.183838
vt 0.591818 0.049141
vt 0.367329 0.180016
vt 0.333480 0.173184
vt 0.371067 0.152676
vt 0.345122 0.146432
vt 0.560447 0.035484
vt 0.475118 0.027537
vt 0.467630 0.088057
vt 0.446501 0.122866
vt 0.440715 0.458816
vt 0.437455 0.477814
vt 0.285338 0.043608
vn -0.6214 -0.2520 -0.7419
vn 0.3236 -0.2439 -0.9142
vn -0.1834 -0.1439 -0.9724
vn 0.9537 -0.2392 -0.1825
vn 0.6665 -0.2655 0.6967
vn 0.9446 -0.0952 0.3140
vn 0.0001 -1.0000 0.0003
vn -0.0001 -1.0000 -0.0007
vn 0.0002 -1.0000 -0.0001
vn 0.0010 1.0000 0.0009
vn 0.0008 1.0000 -0.0001
vn 0.0020 1.0000 0.0006
vn 0.0007 -1.0000 0.0016
vn -0.7486 -0.2462 0.6156
vn -0.9668 -0.2555 0.0073
vn -0.7521 -0.0977 0.6518
vn 0.2677 -0.1391 0.9534
vn 0.3133 0.1032 0.9440
vn -0.0010 1.0000 -0.0006
vn 0.0001 1.0000 -0.0005
vn -0.1787 -0.2674 0.9469
vn 0.7442 -0.0737 -0.6639
vn 0.0005 1.0000 -0.0008
vn -0.8811 -0.1170 -0.4582
vn 0.0023 1.0000 -0.0017
vn -0.0607 0.0677 -0.9959
vn -0.9804 0.1073 -0.1652
vn 0.9838 0.0502 -0.1722
vn -0.0001 -1.0000 -0.0013
vn -0.7283 0.0826 0.6802
vn 0.0511 0.9987 0.0090
vn 0.4430 0.8931 0.0781
vn 0.3896 0.8931 -0.2249
vn 0.0449 0.9987 -0.0259
vn 0.7707 0.6226 0.1359
vn 0.6777 0.6226 -0.3913
vn 0.2389 -0.9701 0.0421
vn 0.2101 -0.9701 -0.1213
vn 0.1235 -0.9921 -0.0218
vn 0.0000 -1.0000 -0.0000
vn 0.0806 -0.9921 -0.0961
vn 0.9771 0.1247 0.1723
vn 0.9386 0.3027 0.1655
vn 0.8254 0.3027 -0.4765
vn 0.8593 0.1247 -0.4961
vn 0.8724 0.4640 0.1538
vn 0.7671 0.4642 -0.4429
vn 0.9362 0.3104 0.1651
vn 0.8232 0.3104 -0.4753
vn 0.9555 -0.2423 0.1685
vn 0.8402 -0.2423 -0.4851
vn -0.6126 0.3027 0.7301
vn -0.5694 0.4640 0.6786
vn -0.0000 0.4639 0.8859
vn -0.0000 0.3027 0.9531
vn 0.4345 -0.8974 0.0766
vn 0.3821 -0.8974 -0.2206
vn -0.1236 -0.9921 -0.0218
vn -0.1086 -0.9921 0.0627
vn -0.6110 0.3104 0.7282
vn -0.0000 0.3104 0.9506
vn 0.0177 0.9987 -0.0488
vn 0.1539 0.8931 -0.4227
vn -0.1539 0.8931 -0.4227
vn -0.0177 0.9987 -0.0488
vn -0.2389 -0.9701 0.0421
vn -0.1559 -0.9701 0.1858
vn 0.3030 0.4640 -0.8324
vn 0.3251 0.3104 -0.8933
vn -0.3251 0.3104 -0.8933
vn -0.3031 0.4636 -0.8326
vn -0.9771 0.1247 0.1723
vn -0.9386 0.3027 0.1655
vn -0.6378 0.1247 0.7601
vn -0.8723 0.4641 0.1538
vn -0.9362 0.3104 0.1651
vn -0.9555 -0.2423 0.1685
vn -0.6236 -0.2423 0.7432
vn 0.2677 0.6226 -0.7354
vn -0.2677 0.6226 -0.7354
vn -0.4345 -0.8974 0.0766
vn -0.2836 -0.8974 0.3380
vn 0.0830 -0.9701 -0.2280
vn -0.0830 -0.9701 -0.2280
vn -0.0334 0.9987 0.0397
vn -0.2892 0.8931 0.3446
vn -0.0000 0.8931 0.4498
vn -0.0000 0.9987 0.0519
vn 0.3260 0.3027 -0.8956
vn 0.3394 0.1247 -0.9324
vn 0.3318 -0.2423 -0.9117
vn -0.3896 0.8931 -0.2249
vn -0.0449 0.9987 -0.0259
vn -0.6777 0.6226 -0.3913
vn -0.2101 -0.9701 -0.1213
vn -0.3260 0.3027 -0.8956
vn -0.3394 0.1247 -0.9324
vn -0.8254 0.3027 -0.4765
vn -0.8593 0.1247 -0.4961
vn -0.7670 0.4643 -0.4429
vn -0.8232 0.3104 -0.4753
vn -0.3318 -0.2423 -0.9117
vn -0.8402 -0.2423 -0.4851
vn 0.0000 -0.2423 0.9702
vn -0.1509 -0.8974 -0.4146
vn -0.3821 -0.8974 -0.2206
vn 0.2892 0.8931 0.3446
vn 0.0334 0.9987 0.0397
vn -0.0000 0.6226 0.7826
vn 0.5030 0.6226 0.5995
vn 0.0000 -0.9701 0.2426
vn 0.1559 -0.9701 0.1858
vn 0.1509 -0.8974 -0.4146
vn 0.0000 0.1247 0.9922
vn 0.6126 0.3027 0.7301
vn 0.6378 0.1247 0.7601
vn 0.5694 0.4642 0.6785
vn 0.6110 0.3104 0.7282
vn 0.6236 -0.2423 0.7432
vn 0.0000 -0.8974 0.4412
vn 0.2836 -0.8974 0.3380
vn -0.0000 -0.9921 -0.1255
vn -0.0806 -0.9921 -0.0961
vn -0.0429 -0.9921 0.1179
vn 0.0429 -0.9921 0.1179
vn 0.1086 -0.9921 0.0627
vn -0.4430 0.8931 0.0781
vn -0.0511 0.9987 0.0090
vn -0.7707 0.6226 0.1359
vn -0.5030 0.6226 0.5995
usemtl Material.002
s 1
f 1/1/1 2/2/2 3/3/3
f 4/4/4 5/5/5 6/6/6
f 7/7/7 8/8/8 9/9/9
f 4/4/10 10/10/11 5/5/12
f 11/11/13 7/7/7 9/9/9
f 10/10/14 12/12/15 13/13/16
f 14/14/17 13/13/16 11/11/18
f 12/12/19 10/10/11 1/15/20
f 15/16/21 10/10/14 13/13/16
f 14/14/17 15/16/21 13/13/16
f 2/2/2 4/4/4 16/17/22
f 2/18/23 10/10/11 4/19/10
f 17/20/24 1/1/1 3/3/3
f 5/5/12 10/10/11 15/16/25
f 18/21/26 8/22/27 17/20/24
f 5/5/5 15/16/21 14/14/17
f 9/9/28 18/21/26 16/17/22
f 3/3/3 2/2/2 16/17/22
f 6/6/6 5/5/5 14/14/17
f 13/13/16 12/12/15 17/23/24
f 12/12/15 1/15/1 17/23/24
f 3/3/3 18/21/26 17/20/24
f 16/17/22 18/21/26 3/3/3
f 6/6/6 9/9/28 16/17/22
f 13/13/16 17/23/24 8/8/27
f 8/22/8 18/21/29 9/9/9
f 1/15/20 10/10/11 2/18/23
f 16/17/22 4/4/4 6/6/6
f 7/7/30 13/13/16 8/8/27
f 11/11/18 13/13/16 7/7/30
f 11/11/18 9/9/28 6/6/6
f 6/6/6 14/14/17 11/11/18
f 19/24/31 20/25/32 21/26/33 22/27/34
f 20/25/32 23/28/35 24/29/36 21/26/33
f 23/28/37 25/30/37 26/31/38 24/29/38
f 27/32/39 28/33/40 29/34/41
f 25/30/42 30/35/43 31/36/44 26/31/45
f 30/35/43 32/37/46 33/38/47 31/36/44
f 32/37/46 34/39/48 35/40/49 33/38/47
f 34/39/48 36/41/50 37/42/51 35/40/49
f 38/43/52 39/44/53 40/45/54 41/46/55
f 36/41/50 42/47/56 43/48/57 37/42/51
f 42/47/56 44/49/58 45/50/59 43/48/57
f 39/44/53 46/51/60 47/52/61 40/45/54
f 44/49/58 28/33/40 45/50/59
f 48/53/62 49/54/63 50/55/64 51/56/65
f 52/57/66 53/58/66 54/59/67 55/60/67
f 56/61/68 57/62/69 58/63/70 59/64/71
f 53/58/72 60/65/73 38/43/52 54/59/74
f 60/65/73 61/66/75 39/44/53 38/43/52
f 61/66/75 62/67/76 46/51/60 39/44/53
f 62/67/76 63/68/77 64/69/78 46/51/60
f 49/54/63 65/70/79 66/71/80 50/55/64
f 63/68/77 67/72/81 68/73/82 64/69/78
f 67/72/81 27/32/39 29/34/41 68/73/82
f 65/70/83 69/74/83 70/75/84 66/71/84
f 22/27/34 21/26/33 49/76/63 48/77/62
f 21/26/33 24/29/36 65/78/79 49/76/63
f 24/29/38 26/31/38 69/79/83 65/78/83
f 71/80/85 72/81/86 73/82/87 74/83/88
f 26/31/45 31/36/44 75/84/89 69/79/90
f 31/36/44 33/38/47 56/85/68 75/84/89
f 33/38/47 35/40/49 57/86/69 56/85/68
f 35/40/49 37/42/51 76/87/91 57/86/69
f 51/56/65 50/55/64 77/88/92 78/89/93
f 50/55/64 66/71/80 79/90/94 77/88/92
f 66/71/84 70/75/84 80/91/95 79/90/95
f 69/74/90 75/92/89 81/93/96 70/75/97
f 70/75/97 81/93/96 82/94/98 80/91/99
f 81/93/96 59/64/71 83/95/100 82/94/98
f 59/64/71 58/63/70 84/96/101 83/95/100
f 58/63/70 85/97/102 86/98/103 84/96/101
f 46/51/60 64/69/78 87/99/104 47/52/61
f 85/97/102 88/100/105 89/101/106 86/98/103
f 74/83/88 73/82/87 90/102/107 91/103/108
f 73/82/87 92/104/109 93/105/110 90/102/107
f 92/104/111 94/106/111 95/107/112 93/105/112
f 37/42/51 43/48/57 96/108/113 76/87/91
f 94/106/114 41/46/55 97/109/115 95/107/116
f 41/46/55 40/45/54 98/110/117 97/109/115
f 40/45/54 47/52/61 99/111/118 98/110/117
f 47/52/61 87/99/104 100/112/119 99/111/118
f 57/62/69 76/113/91 85/97/102 58/63/70
f 87/99/104 101/114/120 102/115/121 100/112/119
f 101/114/120 103/116/122 104/117/123 102/115/121
f 76/113/91 96/118/113 88/100/105 85/97/102
f 103/116/122 28/33/40 104/117/123
f 96/118/113 105/119/124 106/120/125 88/100/105
f 88/100/105 106/120/125 107/121/126 89/101/106
f 105/119/124 28/33/40 106/120/125
f 106/120/125 28/33/40 107/121/126
f 64/69/78 68/73/82 101/114/120 87/99/104
f 78/89/93 77/88/92 108/122/127 109/123/128
f 77/88/92 79/90/94 52/57/129 108/122/127
f 79/90/95 80/91/95 53/58/66 52/57/66
f 43/48/57 45/50/59 105/124/124 96/108/113
f 80/91/99 82/94/98 60/65/73 53/58/72
f 82/94/98 83/95/100 61/66/75 60/65/73
f 91/103/108 90/102/107 20/25/32 19/24/31
f 90/102/107 93/105/110 23/28/35 20/25/32
f 93/105/112 95/107/112 25/30/37 23/28/37
f 45/50/59 28/33/40 105/124/124
f 95/107/116 97/109/115 30/35/43 25/30/42
f 97/109/115 98/110/117 32/37/46 30/35/43
f 98/110/117 99/111/118 34/39/48 32/37/46
f 99/111/118 100/112/119 36/41/50 34/39/48
f 68/73/82 29/34/41 103/116/122 101/114/120
f 100/112/119 102/115/121 42/47/56 36/41/50
f 102/115/121 104/117/123 44/49/58 42/47/56
f 29/34/41 28/33/40 103/116/122
f 104/117/123 28/33/40 44/49/58
f 72/81/86 55/60/130 92/104/109 73/82/87
f 83/95/100 84/96/101 62/67/76 61/66/75
f 84/96/101 86/98/103 63/68/77 62/67/76
f 55/60/67 54/59/67 94/106/111 92/104/111
f 86/98/103 89/101/106 67/72/81 63/68/77
f 89/101/106 107/121/126 27/32/39 67/72/81
f 75/92/89 56/61/68 59/64/71 81/93/96
f 107/121/126 28/33/40 27/32/39
f 54/59/74 38/43/52 41/46/55 94/106/114
f 109/123/128 108/122/127 72/81/86 71/80/85
f 108/122/127 52/57/129 55/60/130 72/81/86
