# Blender v2.83.5 OBJ File: 'runes.blend'
# www.blender.org
mtllib rune_5_001.mtl
o rune_5_Plane.005
v 0.103432 0.766120 0.380649
v 0.040328 -0.049436 0.265252
v -0.494613 0.235015 0.734054
v 0.233939 -0.005993 -0.638987
v 0.321600 0.074980 -0.747562
v -0.332402 0.849019 -0.493374
v 0.174422 0.896631 -0.090571
v 0.133502 0.894927 -0.008552
v 0.437288 0.700500 -0.360803
v 0.403570 0.822649 -0.334478
v 0.720301 0.797498 -0.005707
v 0.760269 0.356244 0.110957
v 0.587604 0.032619 -0.155998
v -0.507780 -0.011825 -0.332387
v -0.835985 0.301219 0.061610
v -0.832799 0.378851 0.096168
v -0.766013 0.302155 -0.115020
v 0.246006 0.169304 0.743477
v 0.318423 0.562311 0.613720
v -0.446923 0.313501 -0.721244
v 0.129506 0.562715 0.751420
v -0.114978 0.137151 0.755684
v -0.325729 0.673575 0.531362
v 0.806926 0.649306 0.057643
v 0.502599 0.791965 0.269975
v -0.397769 0.772329 0.379407
v 0.581917 0.329601 -0.351401
v 0.633302 0.162710 -0.268451
v 0.097100 0.694495 -0.743569
v -0.118797 0.867083 -0.606467
v 0.167651 0.836393 -0.550664
v -0.520669 0.103417 0.643969
v -0.366125 0.137811 0.743560
v -0.632450 0.244326 0.633467
v 0.493334 0.885684 0.167667
v 0.203729 0.276809 -0.904141
v 0.264063 0.348597 -0.889817
v 0.331602 0.278804 -0.850546
v 0.306492 0.196731 -0.854755
v -0.710929 0.303718 0.552337
v -0.660892 0.490987 0.519709
v -0.699333 0.535691 0.418808
v -0.750968 0.492388 0.375120
v -0.811969 0.416759 0.352858
v 0.345313 0.001400 -0.597776
v -0.233009 0.886903 -0.564122
v -0.361941 0.691810 -0.591312
v -0.405240 0.756209 -0.452614
v -0.426425 0.779138 -0.366106
v -0.348759 0.858263 -0.350796
v -0.232027 0.903073 -0.468838
v -0.350266 0.729031 0.464689
v -0.056491 0.616956 0.653196
v -0.390402 0.790125 0.266167
vt 0.583836 0.089302
vt 0.552316 0.108732
vt 0.558917 0.011937
vt 0.683931 0.126173
vt 0.852360 0.110204
vt 0.851346 0.160326
vt 0.493699 0.222703
vt 0.603020 0.213271
vt 0.506234 0.290268
vt 0.200573 0.367558
vt 0.116720 0.340343
vt 0.209162 0.227436
vt 0.424107 0.365691
vt 0.238906 0.472455
vt 0.519735 0.767504
vt 0.444029 0.811085
vt 0.465912 0.719653
vt 0.417191 0.218395
vt 0.791604 0.417849
vt 0.877783 0.181586
vt 0.880922 0.398467
vt 0.511393 0.614591
vt 0.625000 0.739476
vt 0.162603 0.470732
vt 0.000172 0.473869
vt 0.688523 0.572826
vt 0.649277 0.438537
vt 0.740688 0.553570
vt 0.595485 0.945302
vt 0.473094 0.898485
vt 0.651109 0.340933
vt 0.704790 0.320053
vt 0.548812 0.436614
vt 0.633387 0.595389
vt 0.954825 0.904381
vt 0.813440 0.944203
vt 0.862387 0.751836
vt 0.400578 0.028153
vt 0.019475 0.270357
vt 0.145502 0.000172
vt 0.644562 0.746314
vt 0.726439 0.756455
vt 0.624017 0.773932
vt 0.794624 0.518111
vt 0.834064 0.477848
vt 0.850669 0.529243
vt 0.933165 0.543134
vt 0.424451 0.033596
vt 0.744330 0.434723
vt 0.814161 0.436271
vt 0.874294 0.557557
vt 0.914345 0.623633
vt 0.741032 0.807256
vt 0.880922 0.129194
vt 0.722204 0.710356
vt 0.991599 0.963004
vt 0.933180 0.940779
vt 0.981905 0.930503
vt 0.970637 0.885982
vt 0.692692 0.101145
vt 0.610134 0.757165
vt 0.896115 0.697968
vt 0.789912 0.004842
vt 0.860467 0.057354
vt 0.507119 0.008202
vt 0.693436 0.000172
vt 0.007511 0.319243
vt 0.053495 0.312789
vt 0.424451 0.841886
vt 0.495667 0.465430
vt 0.740688 0.999828
vt 0.769181 0.411166
vt 0.743162 0.281653
vt 0.424107 0.057835
vt 0.661361 0.358042
vt 0.682864 0.737531
vt 0.991599 0.436614
vt 0.873402 0.703253
vt 0.873733 0.091706
vt 0.470006 0.614211
vt 0.007595 0.474212
vt 0.007595 0.530531
vt 0.003671 0.504801
vt 0.003328 0.474212
vt 0.003328 0.623702
vt 0.000172 0.561051
vn 0.2835 0.9081 0.3081
vn 0.4884 0.5702 0.6605
vn 0.7320 0.6644 -0.1511
vn -0.0590 0.9882 0.1412
vn -0.1676 0.9838 -0.0637
vn -0.4908 0.8710 0.0222
vn 0.5746 0.4606 0.6765
vn 0.0392 0.8927 0.4490
vn 0.1314 0.4945 0.8592
vn 0.4322 -0.4631 0.7737
vn -0.0628 -0.4817 0.8741
vn 0.0774 -0.9814 0.1759
vn 0.9181 -0.2589 0.3000
vn 0.1838 0.5282 -0.8289
vn -0.0372 0.7851 -0.6182
vn 0.3875 0.8044 -0.4502
vn 0.6109 -0.7917 -0.0101
vn -0.7508 0.6279 0.2051
vn -0.7787 0.5992 -0.1857
vn -0.9313 0.3454 -0.1150
vn 0.7158 0.3447 -0.6072
vn 0.7471 0.0681 -0.6612
vn -0.2017 0.6605 0.7232
vn 0.8849 -0.2967 -0.3590
vn -0.5972 -0.1375 -0.7902
vn -0.6160 0.3941 -0.6820
vn -0.3433 0.8731 0.3462
vn 0.9620 0.2294 0.1480
vn 0.8493 0.1347 -0.5103
vn 0.1119 0.9358 -0.3341
vn -0.9089 -0.0429 -0.4147
vn -0.0305 -0.9134 -0.4059
vn -0.4544 -0.7721 0.4443
vn -0.4904 -0.8231 -0.2861
vn 0.4082 -0.4790 -0.7771
vn -0.0807 -0.2096 -0.9744
vn -0.2880 0.0530 0.9561
vn -0.7263 -0.1880 0.6612
vn -0.5588 0.4976 0.6634
vn -0.9590 0.1231 0.2550
vn -0.8599 -0.2301 0.4555
vn -0.6540 0.6758 -0.3400
vn 0.4481 -0.8484 -0.2817
vn -0.2785 0.7866 -0.5510
vn 0.0786 0.9952 -0.0573
vn 0.4132 0.3456 -0.8425
vn 0.4896 0.7378 -0.4645
vn -0.0678 -0.4354 0.8977
vn -0.6708 0.6813 0.2929
vn 0.2688 0.9492 0.1637
vn 0.5434 -0.5659 -0.6200
vn -0.9428 -0.3189 -0.0967
vn -0.6954 0.4055 0.5932
vn -0.1851 0.6690 0.7198
usemtl Material.006
s 1
f 35/1/1 25/2/2 11/3/3
f 8/4/4 51/5/5 50/6/6
f 19/7/7 1/8/8 21/9/9
f 18/10/10 22/11/11 2/12/12
f 12/13/13 19/14/7 18/10/10
f 29/15/14 30/16/15 31/17/16
f 18/10/10 2/12/12 13/18/17
f 43/19/18 49/20/19 16/21/20
f 9/22/21 38/23/22 29/15/14
f 22/11/11 21/24/9 23/25/23
f 28/26/24 12/27/13 13/28/17
f 29/15/14 20/29/25 47/30/26
f 23/31/23 1/8/8 26/32/27
f 9/22/21 24/33/28 27/34/29
f 48/35/30 20/36/25 17/37/31
f 49/20/19 43/19/18 26/32/27
f 2/12/12 4/38/32 13/18/17
f 32/39/33 14/40/34 2/12/12
f 18/10/10 21/24/9 22/11/11
f 39/41/35 4/42/32 36/43/36
f 32/44/33 3/45/37 34/46/38
f 3/45/37 41/47/39 34/46/38
f 12/48/13 25/2/2 19/7/7
f 41/49/39 43/19/18 44/50/40
f 40/51/41 44/52/40 32/44/33
f 14/53/34 17/37/31 20/36/25
f 51/5/5 6/54/42 50/6/6
f 28/26/24 45/55/43 39/41/35
f 25/2/2 35/1/1 1/8/8
f 46/56/44 47/57/26 6/58/42
f 47/57/26 49/59/19 6/58/42
f 35/1/1 7/60/45 8/4/4
f 37/61/46 39/41/35 36/43/36
f 27/34/29 39/41/35 38/23/22
f 49/59/19 17/37/31 16/62/20
f 31/63/16 30/64/15 51/5/5
f 13/18/17 12/13/13 18/10/10
f 11/3/3 25/2/2 24/65/28
f 11/3/3 10/66/47 35/1/1
f 7/60/45 35/1/1 10/66/47
f 50/6/6 26/32/27 8/4/4
f 1/8/8 8/4/4 26/32/27
f 19/7/7 25/2/2 1/8/8
f 44/50/40 43/19/18 16/21/20
f 37/61/46 29/15/14 38/23/22
f 31/17/16 9/22/21 29/15/14
f 27/34/29 38/23/22 9/22/21
f 23/25/23 3/67/37 33/68/48
f 33/68/48 22/11/11 23/25/23
f 28/26/24 24/33/28 12/27/13
f 36/43/36 20/29/25 29/15/14
f 47/30/26 46/69/44 29/15/14
f 23/31/23 21/9/9 1/8/8
f 9/22/21 11/70/3 24/33/28
f 4/42/32 14/71/34 20/29/25
f 48/35/30 47/57/26 20/36/25
f 42/72/49 26/32/27 43/19/18
f 50/6/6 49/20/19 54/73/50
f 45/74/43 13/18/17 4/38/32
f 2/12/12 14/40/34 4/38/32
f 2/12/12 22/11/11 33/68/48
f 33/68/48 32/39/33 2/12/12
f 23/75/23 26/32/27 41/49/39
f 18/10/10 19/14/7 21/24/9
f 20/29/25 36/43/36 4/42/32
f 39/41/35 5/76/51 4/42/32
f 32/39/33 33/68/48 3/67/37
f 40/51/41 34/46/38 41/47/39
f 3/45/37 23/77/23 41/47/39
f 12/48/13 24/65/28 25/2/2
f 44/52/40 40/51/41 41/47/39
f 41/49/39 42/72/49 43/19/18
f 14/53/34 32/44/33 15/78/52
f 34/46/38 40/51/41 32/44/33
f 44/52/40 15/78/52 32/44/33
f 5/76/51 45/55/43 4/42/32
f 51/5/5 46/79/44 6/54/42
f 39/41/35 45/55/43 5/76/51
f 13/28/17 45/55/43 28/26/24
f 50/6/6 6/54/42 49/20/19
f 8/4/4 1/8/8 35/1/1
f 15/78/52 16/62/20 17/37/31
f 9/22/21 10/80/47 11/70/3
f 14/53/34 15/78/52 17/37/31
f 26/81/27 23/82/23 52/83/53
f 23/84/23 21/85/9 53/86/54
f 24/33/28 28/26/24 27/34/29
f 46/69/44 30/16/15 29/15/14
f 10/80/47 9/22/21 31/17/16
f 37/61/46 38/23/22 39/41/35
f 27/34/29 28/26/24 39/41/35
f 29/15/14 37/61/46 36/43/36
f 16/62/20 15/78/52 44/52/40
f 42/72/49 41/49/39 26/32/27
f 48/35/30 49/59/19 47/57/26
f 51/5/5 8/4/4 7/60/45
f 49/59/19 48/35/30 17/37/31
f 51/5/5 7/60/45 31/63/16
f 10/66/47 31/63/16 7/60/45
f 30/64/15 46/79/44 51/5/5
f 54/73/50 49/20/19 26/32/27
f 54/73/50 26/32/27 50/6/6
