# Blender v2.83.5 OBJ File: 'runes.blend'
# www.blender.org
mtllib rune_6_001.mtl
o rune_6_Cube.011
v -0.502849 0.896539 0.644141
v -0.124768 1.072620 0.038135
v -0.444211 0.010517 0.132353
v -0.431338 1.056572 0.333177
v 0.309975 1.095027 -0.232738
v 0.546141 -0.004769 -0.203217
v -0.126649 0.285201 -0.930699
v -0.101454 0.685341 0.890219
v -0.692953 0.496943 0.547112
v 0.803870 0.454831 -0.424661
v 0.236456 0.469861 -0.951775
v 0.516859 0.725838 0.585935
v -0.809314 0.459627 -0.032320
v -0.767382 0.021665 0.128498
v -0.372064 0.244917 0.730708
v 0.729114 0.790037 -0.439039
v 0.852287 0.757328 -0.018908
v -0.123277 1.112564 0.683637
v -0.869444 0.113860 -0.416536
v 0.272320 0.701633 -0.955351
v 0.255782 0.927777 -0.713918
v 0.981119 0.523863 0.161680
v -0.503890 -0.066170 -0.633152
v 0.359278 1.110597 0.436106
v -0.574406 0.416478 -0.681509
v -0.628622 0.091647 -0.828210
v -0.733189 -0.038977 -0.499579
v -0.701914 0.797397 0.284043
v -0.619140 0.911229 -0.021197
v -0.477310 0.774683 -0.388030
v -0.902614 0.089357 0.059610
v -0.792184 0.206781 0.417576
v -0.074800 0.020165 -0.818569
v -0.318896 -0.005010 -0.858396
v 0.876554 0.676903 0.238147
v 0.769874 0.861277 0.249343
v 0.137398 1.014218 0.871523
v 0.127774 0.051799 -0.839740
v 0.251832 0.185742 -0.806754
v 0.073433 -0.047296 -0.674630
v 0.770035 0.126659 -0.361821
v 0.853848 0.295404 -0.013606
v 0.783364 0.414946 0.336974
v 0.436453 0.316171 0.589510
v 0.301774 -0.005819 -0.553164
v 0.735246 0.187062 -0.500705
v 0.154884 0.410708 0.855480
v 0.650318 0.981408 0.386512
v -0.929807 -0.017970 -0.195983
v -0.889697 -0.020410 -0.474554
v 0.469170 0.107188 0.230442
v 0.042357 0.135190 0.592910
v 0.552909 0.290019 -0.659827
v 0.604159 0.050474 -0.443198
v -0.027181 -0.032736 -0.272265
v 0.487109 0.795518 -0.715131
v -0.054417 0.769705 -0.869444
v 0.681695 0.572689 -0.683990
v 0.509425 0.552071 -0.788849
v 0.566507 1.013049 -0.336025
v 0.634198 1.068550 0.152739
v 0.181440 0.801036 -0.865763
v -0.155525 0.993398 0.947914
vt 0.077520 0.647379
vt 0.026575 0.581673
vt 0.146665 0.598964
vt 0.467260 0.104475
vt 0.478874 0.000197
vt 0.537143 0.060539
vt 0.062595 0.390029
vt 0.137827 0.303661
vt 0.136804 0.380272
vt 0.502472 0.359977
vt 0.648270 0.435155
vt 0.457872 0.427313
vt 0.653355 0.186416
vt 0.741755 0.244851
vt 0.666366 0.323573
vt 0.464558 0.681829
vt 0.310196 0.721225
vt 0.346519 0.620197
vt 0.427458 0.455646
vt 0.522465 0.483783
vt 0.032430 0.000197
vt 0.098641 0.068726
vt 0.026239 0.068847
vt 0.874196 0.400529
vt 0.825657 0.476068
vt 0.763816 0.424105
vt 0.115176 0.208317
vt 0.231400 0.258651
vt 0.885429 0.542881
vt 0.970318 0.619749
vt 0.945193 0.646967
vt 0.309803 0.724994
vt 0.227659 0.704147
vt 0.247253 0.641389
vt 0.940403 0.914303
vt 0.846045 0.877463
vt 0.899802 0.769722
vt 0.327232 0.333384
vt 0.330542 0.264681
vt 0.639515 0.771897
vt 0.513934 0.799829
vt 0.624625 0.669306
vt 0.445123 0.578537
vt 0.361888 0.533341
vt 0.463515 0.490815
vt 0.427849 0.892188
vt 0.330193 0.884235
vt 0.379308 0.094699
vt 0.402093 0.051927
vt 0.409487 0.135943
vt 0.354546 0.144868
vt 0.169958 0.490899
vt 0.198416 0.402515
vt 0.242189 0.510682
vt 0.973469 0.471898
vt 0.918440 0.520772
vt 0.085845 0.484842
vt 0.929843 0.271662
vt 0.845936 0.223830
vt 0.475537 0.216051
vt 0.572759 0.110106
vt 0.188569 0.094146
vt 0.309803 0.112307
vt 0.466556 0.946377
vt 0.549645 0.865105
vt 0.037304 0.256370
vt 0.040517 0.203199
vt 0.129464 0.426497
vt 0.763816 0.714594
vt 0.824811 0.611610
vt 0.681009 0.063382
vt 0.754199 0.130245
vt 0.763423 0.346360
vt 0.998393 0.754754
vt 0.999803 0.684250
vt 0.054497 0.140427
vt 0.366103 0.419014
vt 0.311072 0.371670
vt 0.183838 0.326719
vt 0.774745 0.299719
vt 0.547510 0.011117
vt 0.581284 0.034817
vt 0.782634 0.107885
vt 0.876441 0.045784
vt 0.945301 0.000197
vt 0.948165 0.130495
vt 0.763423 0.055663
vt 0.584811 0.484176
vt 0.555652 0.551479
vt 0.787007 0.002874
vt 0.182780 0.668459
vt 0.764333 0.224817
vt 0.639515 0.541194
vt 0.126624 0.666873
vt 0.000197 0.480504
vt 0.023321 0.447114
vt 0.060481 0.298294
vt 0.865746 0.513149
vt 0.220213 0.319809
vt 0.971034 0.579470
vt 0.382577 0.920051
vt 0.973469 0.361462
vt 0.963490 0.542488
vt 0.785323 0.817769
vt 0.310196 0.190795
vt 0.999803 0.854354
vn 0.9863 -0.0721 0.1485
vn 0.8672 -0.4926 0.0733
vn 0.9036 0.3999 -0.1533
vn 0.3164 -0.8947 -0.3152
vn 0.5508 -0.4065 -0.7289
vn 0.3905 -0.8210 -0.4165
vn 0.2221 -0.1677 -0.9604
vn 0.5705 -0.0364 -0.8205
vn -0.0145 -0.9745 0.2240
vn -0.3032 -0.5442 0.7823
vn -0.2825 -0.9055 0.3167
vn 0.3526 -0.8714 0.3411
vn 0.5442 -0.5095 0.6665
vn 0.1227 -0.8698 0.4779
vn -0.1811 0.9641 -0.1938
vn -0.5892 0.6905 -0.4196
vn -0.6526 0.7054 -0.2764
vn -0.9305 -0.2553 0.2624
vn -0.7854 -0.3316 0.5227
vn -0.1472 -0.9793 -0.1386
vn -0.5671 -0.1997 -0.7990
vn -0.1211 -0.9704 -0.2090
vn 0.6286 0.1399 0.7650
vn 0.6513 0.5281 0.5448
vn 0.2960 0.9095 0.2916
vn -0.1124 -0.0510 -0.9923
vn -0.3356 0.5834 -0.7396
vn -0.7733 -0.5408 -0.3307
vn -0.8949 0.3432 -0.2852
vn 0.5325 0.8461 0.0199
vn -0.7964 0.0895 0.5980
vn -0.8817 0.4469 0.1511
vn -0.9358 0.3394 -0.0955
vn -0.0011 0.9776 -0.2105
vn -0.4393 0.8975 0.0392
vn -0.6861 0.4531 0.5691
vn 0.0614 0.8598 -0.5069
vn 0.3298 -0.5436 -0.7718
vn 0.4736 -0.4331 -0.7668
vn 0.0200 -0.9779 -0.2082
vn 0.0429 -0.7872 -0.6152
vn 0.8025 0.4693 -0.3684
vn 0.5286 0.5619 -0.6362
vn 0.4836 0.8216 -0.3017
vn 0.6809 -0.3972 0.6153
vn 0.8193 0.3339 0.4660
vn 0.9345 -0.0220 -0.3552
vn 0.3022 -0.2851 0.9096
vn -0.0947 -0.1222 0.9879
vn 0.0413 -0.9959 0.0797
vn 0.3193 -0.9396 0.1230
vn -0.6548 0.4560 -0.6027
vn 0.7404 0.0493 -0.6703
vn -0.7697 -0.6380 0.0237
vn -0.0135 -0.7134 -0.7006
vn 0.2309 0.3325 -0.9144
vn 0.4140 0.4668 0.7815
vn 0.6914 -0.3698 -0.6206
vn 0.7911 -0.5919 -0.1538
vn -0.2602 0.3997 0.8789
vn -0.1675 0.9603 0.2228
vn 0.8281 0.4574 0.3240
vn 0.0582 0.7281 -0.6829
usemtl Material.002
s 1
f 22/1/1 42/2/2 17/3/3
f 45/4/4 53/5/5 54/6/6
f 53/7/5 11/8/7 59/9/8
f 3/10/9 15/11/10 14/12/11
f 51/13/12 44/14/13 52/15/14
f 2/16/15 30/17/16 29/18/17
f 31/19/18 14/12/11 32/20/19
f 27/21/20 26/22/21 23/23/22
f 12/24/23 48/25/24 24/26/25
f 11/8/7 7/27/26 57/28/27
f 26/29/21 50/30/28 19/31/29
f 24/32/25 48/33/24 61/34/30
f 9/35/31 28/36/32 13/37/33
f 3/10/9 27/38/20 23/39/22
f 61/40/30 5/41/34 24/42/25
f 4/43/35 28/44/32 1/45/36
f 21/46/37 57/47/27 5/41/34
f 14/12/11 15/11/10 32/20/19
f 45/4/4 38/48/38 39/49/39
f 38/48/38 40/50/40 33/51/41
f 16/52/42 56/53/43 60/54/44
f 43/55/45 35/56/46 12/24/23
f 16/52/42 17/3/3 10/57/47
f 47/58/48 12/24/23 8/59/49
f 51/13/12 55/60/50 6/61/51
f 57/28/27 25/62/52 30/63/16
f 56/64/43 21/46/37 60/65/44
f 38/66/38 33/67/41 7/27/26
f 10/57/47 53/7/5 58/68/53
f 30/69/16 25/70/52 13/37/33
f 42/71/2 43/72/45 51/13/12
f 55/60/50 3/10/9 23/39/22
f 52/15/14 44/14/13 47/73/48
f 19/31/29 31/74/18 13/37/33
f 49/75/54 19/31/29 50/30/28
f 24/42/25 5/41/34 2/16/15
f 45/4/4 6/61/51 55/60/50
f 34/76/55 26/22/21 7/27/26
f 14/12/11 49/77/54 50/78/28
f 59/9/8 20/79/56 56/53/43
f 37/80/57 8/59/49 12/24/23
f 54/6/6 46/81/58 41/82/59
f 1/83/36 9/84/31 8/59/49
f 9/84/31 32/85/19 15/86/10
f 43/72/45 42/71/2 22/87/1
f 1/45/36 63/88/60 18/89/61
f 52/15/14 3/10/9 55/60/50
f 56/53/43 58/68/53 59/9/8
f 53/7/5 59/9/8 58/68/53
f 16/52/42 58/68/53 56/53/43
f 1/83/36 28/90/32 9/84/31
f 17/3/3 60/54/44 61/34/30
f 61/34/30 48/33/24 36/91/62
f 1/83/36 8/59/49 63/92/60
f 24/26/25 37/80/57 12/24/23
f 4/43/35 2/16/15 29/18/17
f 24/42/25 18/89/61 37/93/57
f 10/57/47 17/3/3 42/2/2
f 35/94/46 22/1/1 17/3/3
f 42/2/2 41/95/59 10/57/47
f 46/96/58 10/57/47 41/95/59
f 45/4/4 39/49/39 53/5/5
f 53/7/5 39/97/39 11/8/7
f 2/16/15 57/47/27 30/17/16
f 12/24/23 36/98/62 48/25/24
f 57/28/27 62/99/63 20/79/56
f 20/79/56 11/8/7 57/28/27
f 19/31/29 13/37/33 25/70/52
f 25/70/52 26/29/21 19/31/29
f 27/100/20 50/30/28 26/29/21
f 3/10/9 14/12/11 27/38/20
f 61/40/30 60/65/44 5/41/34
f 4/43/35 29/18/17 28/44/32
f 2/16/15 5/41/34 57/47/27
f 21/46/37 62/101/63 57/47/27
f 45/4/4 40/50/40 38/48/38
f 18/89/61 2/16/15 4/43/35
f 36/98/62 12/24/23 35/56/46
f 44/102/13 43/55/45 12/24/23
f 22/103/1 35/56/46 43/55/45
f 47/58/48 44/102/13 12/24/23
f 51/13/12 52/15/14 55/60/50
f 57/28/27 7/27/26 25/62/52
f 5/41/34 60/65/44 21/46/37
f 62/101/63 21/46/37 56/64/43
f 7/27/26 11/8/7 39/97/39
f 39/97/39 38/66/38 7/27/26
f 10/57/47 46/96/58 53/7/5
f 13/37/33 28/36/32 29/104/17
f 29/104/17 30/69/16 13/37/33
f 6/61/51 54/6/6 41/82/59
f 41/82/59 42/71/2 6/61/51
f 43/72/45 44/14/13 51/13/12
f 51/13/12 6/61/51 42/71/2
f 23/39/22 34/105/55 55/60/50
f 33/51/41 55/60/50 34/105/55
f 9/35/31 13/37/33 32/106/19
f 19/31/29 49/75/54 31/74/18
f 31/74/18 32/106/19 13/37/33
f 40/50/40 45/4/4 55/60/50
f 55/60/50 33/51/41 40/50/40
f 25/62/52 7/27/26 26/22/21
f 33/67/41 34/76/55 7/27/26
f 23/23/22 26/22/21 34/76/55
f 50/78/28 27/38/20 14/12/11
f 14/12/11 31/19/18 49/77/54
f 62/99/63 56/53/43 20/79/56
f 59/9/8 11/8/7 20/79/56
f 47/73/48 15/11/10 52/15/14
f 37/80/57 63/92/60 8/59/49
f 54/6/6 53/5/5 46/81/58
f 9/84/31 15/86/10 8/59/49
f 8/59/49 15/86/10 47/58/48
f 45/4/4 54/6/6 6/61/51
f 52/15/14 15/11/10 3/10/9
f 16/52/42 10/57/47 58/68/53
f 17/3/3 16/52/42 60/54/44
f 36/91/62 35/94/46 17/3/3
f 17/3/3 61/34/30 36/91/62
f 63/88/60 37/93/57 18/89/61
f 24/42/25 2/16/15 18/89/61
f 1/45/36 18/89/61 4/43/35
