# Blender v2.83.5 OBJ File: 'oga_scroll.blend'
# www.blender.org
mtllib oga_scroll.mtl
o Scroll_Cylinder
v -0.140066 0.048000 -0.000000
v 0.144046 0.048000 -0.000000
v -0.000000 0.048000 -0.040164
v -0.000000 0.012067 -0.012411
v -0.000000 0.025792 0.032493
v 0.000000 0.070207 0.032493
v 0.000000 0.083932 -0.012411
v 0.149613 0.000447 -0.015451
v 0.149613 0.048000 -0.050000
v 0.149613 0.018611 0.040451
v 0.149613 0.077389 0.040451
v 0.149613 0.095553 -0.015451
v -0.149613 0.048000 -0.050000
v -0.149613 0.000447 -0.015451
v -0.149613 0.018611 0.040451
v -0.149613 0.077389 0.040451
v -0.149613 0.095553 -0.015451
vt 0.809887 0.375587
vt 0.809887 0.007383
vt 0.990767 0.007383
vt 0.983819 0.375587
vt 0.189128 0.375587
vt 0.191738 0.743792
vt 0.010846 0.743792
vt 0.009233 0.375587
vt 0.586710 0.375587
vt 0.592074 0.743792
vt 0.411175 0.743792
vt 0.416540 0.375587
vt 0.210204 0.375587
vt 0.211817 0.007383
vt 0.392709 0.007383
vt 0.390099 0.375587
vt 0.617489 0.375587
vt 0.610540 0.007383
vt 0.791421 0.007383
vt 0.791421 0.375587
vt 0.610540 0.743792
vt 0.791421 0.743792
vt 0.211817 0.743792
vt 0.392709 0.743792
vt 0.592074 0.007383
vt 0.411175 0.007383
vt 0.191738 0.007383
vt 0.010846 0.007383
vt 0.809887 0.743791
vt 0.990767 0.743791
vt 0.480913 0.875587
vt 0.306074 0.875587
vt 0.412404 0.758558
vt 0.466432 0.859649
vt 0.412404 0.992617
vt 0.443001 0.865737
vt 0.584449 0.947915
vt 0.443001 0.885438
vt 0.584449 0.803259
vt 0.466432 0.891526
vt 0.171102 0.870947
vt 0.287608 0.803259
vt 0.287608 0.947916
vt 0.171102 0.880228
vt 0.115563 0.992617
vt 0.160064 0.883096
vt 0.009233 0.875587
vt 0.153242 0.875587
vt 0.115563 0.758558
vt 0.160064 0.868079
vn -0.0576 -0.5971 -0.8001
vn -0.0647 -0.9514 0.3010
vn -0.0531 0.0000 0.9986
vn -0.0647 0.9514 0.3010
vn -0.0576 0.5971 -0.8001
vn 0.0576 0.5971 -0.8001
vn 0.0647 0.9514 0.3010
vn 0.0531 0.0000 0.9986
vn 0.0647 -0.9514 0.3010
vn 0.0576 -0.5971 -0.8001
vn 0.9907 0.0801 0.1103
vn 0.9907 0.1297 -0.0421
vn 0.9907 0.0000 -0.1363
vn 0.9907 -0.1297 -0.0421
vn 0.9907 -0.0801 0.1103
vn -0.9733 0.1350 0.1858
vn -0.9733 0.2185 -0.0710
vn -0.9733 -0.0000 -0.2297
vn -0.9733 -0.2185 -0.0710
vn -0.9733 -0.1350 0.1858
usemtl ScrollMat1
s 1
f 3/1/1 9/2/1 8/3/1 4/4/1
f 4/5/2 8/6/2 10/7/2 5/8/2
f 5/9/3 10/10/3 11/11/3 6/12/3
f 6/13/4 11/14/4 12/15/4 7/16/4
f 7/17/5 12/18/5 9/19/5 3/20/5
f 17/21/6 7/17/6 3/20/6 13/22/6
f 16/23/7 6/13/7 7/16/7 17/24/7
f 15/25/8 5/9/8 6/12/8 16/26/8
f 14/27/9 4/5/9 5/8/9 15/28/9
f 13/29/10 3/1/10 4/4/10 14/30/10
f 2/31/11 8/32/11 9/33/11
f 2/34/12 10/35/12 8/32/12
f 2/36/13 11/37/13 10/35/13
f 2/38/14 12/39/14 11/37/14
f 2/40/15 9/33/15 12/39/15
f 1/41/16 13/42/16 14/43/16
f 1/44/17 14/43/17 15/45/17
f 1/46/18 15/45/18 16/47/18
f 1/48/19 16/47/19 17/49/19
f 1/50/20 17/49/20 13/42/20
