# Blender v2.83.5 OBJ File: 'medieval_weapon_pack.blend'
# www.blender.org
mtllib shield.mtl
o shield_1
v 0.526260 0.001291 0.337283
v 0.526260 0.041208 0.337283
v 0.649704 -0.007087 -0.552313
v 0.649704 0.037265 -0.552313
v 0.360946 0.082849 -0.677053
v 0.360946 0.132129 -0.677053
v 0.292367 0.082233 0.726749
v 0.292367 0.126585 0.726749
v -0.526260 0.001291 0.337283
v -0.526260 0.041208 0.337283
v -0.649704 -0.007087 -0.552313
v -0.649704 0.037265 -0.552313
v -0.360947 0.082849 -0.677053
v -0.000000 0.113649 -0.923453
v -0.000000 0.162929 -0.923453
v -0.360947 0.132129 -0.677053
v 0.000000 0.109953 0.920789
v -0.292367 0.082233 0.726749
v -0.292367 0.126585 0.726749
v 0.000000 0.154305 0.920789
vt 0.443550 0.897615
vt 0.527205 0.822368
vt 0.543712 0.827986
vt 0.495019 0.519358
vt 0.864942 0.133165
vt 0.932370 0.511727
vt 0.839709 0.656766
vt 0.430988 0.881709
vt 0.480061 0.524022
vt 0.281507 0.360439
vt 0.381410 0.399660
vt 0.730203 0.729181
vt 0.729789 0.041322
vt 0.392500 0.388428
vt 0.281568 0.343540
vt 0.279312 0.963069
vt 0.115555 0.896420
vt 0.032452 0.820569
vt 0.128232 0.880607
vt 0.066842 0.517801
vt 0.015906 0.826067
vt 0.594746 0.133328
vt 0.527774 0.511970
vt 0.482052 0.180113
vt 0.081765 0.522574
vt 0.279388 0.942162
vt 0.170312 0.387619
vt 0.181321 0.398932
vt 0.977693 0.179815
vt 0.620610 0.656898
vn 0.2274 -0.7213 -0.6542
vn 0.7837 0.4807 -0.3933
vn 0.6039 -0.6874 -0.4035
vn 0.5614 -0.7816 0.2717
vn 0.4904 -0.6832 0.5410
vn 0.4363 0.7179 -0.5424
vn 0.8243 0.5122 0.2411
vn 0.0000 0.6178 0.7863
vn 0.5933 0.6313 0.4994
vn 0.0000 -0.5828 0.8126
vn 0.0000 -0.5814 -0.8136
vn -0.2274 -0.7213 -0.6542
vn -0.7837 0.4807 -0.3933
vn -0.4363 0.7179 -0.5424
vn -0.5614 -0.7816 0.2717
vn -0.6039 -0.6874 -0.4035
vn -0.8243 0.5122 0.2411
vn 0.0000 0.6177 -0.7864
vn -0.4904 -0.6832 0.5410
vn -0.5933 0.6313 0.4994
usemtl Material
s 1
f 5/1/1 4/2/2 3/3/3
f 4/2/2 1/4/4 3/3/3
f 5/5/1 1/6/4 7/7/5
f 6/8/6 2/9/7 4/2/2
f 6/8/6 20/10/8 8/11/9
f 5/5/1 17/12/10 14/13/11
f 2/9/7 7/14/5 1/4/4
f 8/11/9 17/15/10 7/14/5
f 14/16/11 6/8/6 5/1/1
f 13/17/12 12/18/13 16/19/14
f 9/20/15 12/18/13 11/21/16
f 13/22/12 9/23/15 11/24/16
f 10/25/17 16/19/14 12/18/13
f 16/19/14 20/10/8 15/26/18
f 17/12/10 13/22/12 14/13/11
f 18/27/19 10/25/17 9/20/15
f 17/15/10 19/28/20 18/27/19
f 14/16/11 16/19/14 15/26/18
f 5/1/1 6/8/6 4/2/2
f 4/2/2 2/9/7 1/4/4
f 5/5/1 3/29/3 1/6/4
f 6/8/6 8/11/9 2/9/7
f 6/8/6 15/26/18 20/10/8
f 5/5/1 7/7/5 17/12/10
f 2/9/7 8/11/9 7/14/5
f 8/11/9 20/10/8 17/15/10
f 14/16/11 15/26/18 6/8/6
f 13/17/12 11/21/16 12/18/13
f 9/20/15 10/25/17 12/18/13
f 13/22/12 18/30/19 9/23/15
f 10/25/17 19/28/20 16/19/14
f 16/19/14 19/28/20 20/10/8
f 17/12/10 18/30/19 13/22/12
f 18/27/19 19/28/20 10/25/17
f 17/15/10 20/10/8 19/28/20
f 14/16/11 13/17/12 16/19/14
