# Blender v2.83.5 OBJ File: 'medieval_weapon_pack.blend'
# www.blender.org
mtllib two_handed_sword.mtl
o two_handed_sword_1
v -0.284963 0.022377 0.846682
v -0.284963 0.022377 0.800632
v 0.000000 0.081544 1.614294
v -0.000001 0.032669 -1.494025
v 0.000000 0.032669 0.800631
v 0.000000 0.052581 1.574295
v 0.284963 0.022377 0.846681
v 0.284963 0.022377 0.800632
v 0.000000 0.052581 0.800631
v 0.000000 0.052581 0.846681
v -0.065167 0.016377 1.614296
v -0.076205 0.016377 -1.494025
v -0.036204 0.016377 1.574296
v -0.076204 0.016377 0.800632
v -0.036204 0.016377 0.846682
v -0.284963 0.010377 0.846682
v -0.284963 0.010377 0.800632
v 0.065168 0.016377 1.614296
v 0.076203 0.016377 -1.494025
v 0.000000 -0.048789 1.614294
v -0.000001 0.000085 -1.494025
v 0.000000 0.000086 0.800631
v 0.000000 0.016377 1.694296
v 0.036204 0.016377 1.574296
v 0.000000 -0.019826 1.574295
v 0.076204 0.016377 0.800632
v 0.036204 0.016377 0.846682
v 0.284963 0.010378 0.846681
v 0.284963 0.010378 0.800632
v 0.000000 -0.019826 0.800631
v 0.000000 -0.019826 0.846681
v -0.000001 0.016377 -1.694025
v 0.344963 0.016377 0.891350
v 0.344963 0.016377 0.755964
v -0.344963 0.016377 0.891350
v -0.344963 0.016377 0.755964
vt 0.460836 0.805719
vt 0.633785 0.890678
vt 0.603090 0.922974
vt 0.058121 0.124435
vt 0.805456 0.938012
vt 0.024991 0.157566
vt 0.836048 0.117658
vt 0.817950 0.070123
vt 0.891556 0.099926
vt 0.461180 0.839741
vt 0.934120 0.445163
vt 0.588925 0.027920
vt 0.971322 0.407705
vt 0.537401 0.788551
vt 0.486091 0.778714
vt 0.496704 0.767191
vt 0.793585 0.101969
vt 0.838332 0.904637
vt 0.906512 0.972816
vt 0.370176 0.661939
vt 0.343900 0.688479
vt 0.871707 0.871760
vt 0.091250 0.091305
vt 0.852125 0.139460
vt 0.426222 0.807978
vt 0.514521 0.102836
vt 0.896919 0.482621
vt 0.470738 0.730804
vt 0.830236 0.161406
vt 0.371058 0.611526
vt 0.689795 0.888022
vt 0.615035 0.974464
vt 0.097352 0.357798
vt 0.167424 0.508304
vt 0.070565 0.381433
vt 0.937958 0.805509
vt 0.124381 0.058175
vt 0.157511 0.025045
vt 0.873969 0.155480
vt 0.921551 0.173454
vt 0.135243 0.507195
vt 0.440117 0.177752
vt 0.859716 0.520078
vt 0.822515 0.557537
vt 0.193312 0.484112
vt 0.183683 0.435393
vt 0.204208 0.473773
vt 0.889768 0.197902
vt 0.972763 0.906566
vt 0.904584 0.838386
vt 0.319079 0.608746
vt 0.287664 0.637631
vt 0.164511 0.541883
vt 0.239764 0.498757
vt 0.293806 0.689551
vt 0.279144 0.644163
vt 0.639830 0.881197
vt 0.594630 0.930426
vt 0.325562 0.599980
vt 0.102953 0.308176
vt 0.551722 0.065378
vt 0.816274 0.129614
vt 0.477318 0.140294
vt 0.862065 0.175285
vt 0.024200 0.377662
vn 0.0000 0.9691 0.2465
vn 0.1061 0.7901 -0.6037
vn 0.1061 0.7901 0.6037
vn 0.0000 0.6530 -0.7573
vn -0.9865 0.0000 -0.1636
vn -0.1113 0.0000 -0.9938
vn 0.0000 0.9997 0.0228
vn -0.9997 0.0000 0.0228
vn 0.0000 0.0000 1.0000
vn -0.4264 0.0000 0.9045
vn 0.0000 0.9333 -0.3589
vn -0.9333 0.0000 -0.3589
vn 0.0000 0.7293 -0.6841
vn 0.0000 0.9992 -0.0404
vn 0.0000 0.0000 -1.0000
vn -0.1061 0.7901 -0.6037
vn -0.1061 0.7901 0.6037
vn 0.9865 0.0000 -0.1636
vn 0.1113 0.0000 -0.9938
vn 0.9997 0.0000 0.0228
vn 0.4264 0.0000 0.9045
vn 0.9333 0.0000 -0.3589
vn 0.5745 0.0000 -0.8185
vn -0.5745 0.0000 -0.8185
vn -0.5745 0.0000 0.8185
vn 0.1061 -0.7901 -0.6037
vn 0.0000 -0.9691 0.2465
vn 0.1061 -0.7901 0.6037
vn 0.0000 -0.6530 -0.7573
vn 0.0000 -0.9997 0.0228
vn 0.0000 -0.9333 -0.3589
vn 0.0000 -0.7293 -0.6841
vn 0.0000 -0.9992 -0.0404
vn -0.1061 -0.7901 -0.6037
vn -0.1061 -0.7901 0.6037
vn 0.5745 0.0000 0.8185
usemtl Material.001
s 1
f 10/1/1 2/2/2 1/3/3
f 5/4/4 12/5/5 14/6/6
f 3/7/7 11/8/8 23/9/9
f 15/10/10 10/1/1 1/3/3
f 6/11/11 15/12/10 13/13/12
f 14/14/6 9/15/13 5/16/4
f 3/7/7 13/17/12 11/8/8
f 12/5/5 4/18/14 32/19/15
f 8/20/16 10/1/1 7/21/17
f 19/22/18 5/4/4 26/23/19
f 3/7/7 23/9/9 18/24/20
f 27/25/21 7/21/17 10/1/1
f 27/26/21 6/11/11 24/27/22
f 9/15/13 26/28/19 5/16/4
f 24/29/22 3/7/7 18/24/20
f 19/22/18 32/19/15 4/18/14
f 7/21/17 34/30/23 8/20/16
f 1/3/3 36/31/24 35/32/25
f 17/33/26 31/34/27 16/35/28
f 12/36/5 22/37/29 14/38/6
f 20/39/30 23/9/9 11/40/8
f 15/41/10 16/35/28 31/34/27
f 15/42/10 25/43/31 13/44/12
f 30/45/32 14/46/6 22/47/29
f 13/48/12 20/39/30 11/40/8
f 12/36/5 32/49/15 21/50/33
f 31/34/27 29/51/34 28/52/35
f 22/37/29 19/22/18 26/23/19
f 20/39/30 18/24/20 23/9/9
f 27/53/21 31/34/27 28/52/35
f 25/43/31 27/26/21 24/27/22
f 26/54/19 30/45/32 22/47/29
f 20/39/30 24/29/22 18/24/20
f 19/22/18 21/50/33 32/49/15
f 28/52/35 33/55/36 7/56/17
f 17/57/26 36/31/24 2/2/2
f 17/57/26 2/2/2 14/14/6
f 16/58/28 15/10/10 1/3/3
f 29/51/34 26/54/19 8/59/16
f 28/52/35 7/56/17 27/53/21
f 34/30/23 28/52/35 29/51/34
f 8/59/16 34/30/23 29/51/34
f 16/35/28 36/60/24 17/33/26
f 1/3/3 35/32/25 16/58/28
f 10/1/1 9/15/13 2/2/2
f 5/4/4 4/18/14 12/5/5
f 6/11/11 10/61/1 15/12/10
f 14/14/6 2/2/2 9/15/13
f 3/7/7 6/62/11 13/17/12
f 8/20/16 9/15/13 10/1/1
f 19/22/18 4/18/14 5/4/4
f 27/26/21 10/61/1 6/11/11
f 9/15/13 8/20/16 26/28/19
f 24/29/22 6/62/11 3/7/7
f 7/21/17 33/55/36 34/30/23
f 1/3/3 2/2/2 36/31/24
f 17/33/26 30/45/32 31/34/27
f 12/36/5 21/50/33 22/37/29
f 15/42/10 31/63/27 25/43/31
f 30/45/32 17/33/26 14/46/6
f 13/48/12 25/64/31 20/39/30
f 31/34/27 30/45/32 29/51/34
f 22/37/29 21/50/33 19/22/18
f 25/43/31 31/63/27 27/26/21
f 26/54/19 29/51/34 30/45/32
f 20/39/30 25/64/31 24/29/22
f 34/30/23 33/55/36 28/52/35
f 16/35/28 35/65/25 36/60/24
