# Blender v2.83.5 OBJ File: 'medieval_weapon_pack.blend'
# www.blender.org
mtllib two_handed_mace_1_001.mtl
o two_handed_mace_1
v -0.294565 0.142779 -1.031454
v -0.294565 0.142779 -1.247454
v -0.243424 0.165220 -1.274454
v -0.243424 0.165220 -1.004454
v -0.000000 0.117859 -0.891444
v -0.000000 0.100921 -0.891444
v 0.000001 0.100921 1.176241
v 0.000001 0.115293 1.215198
v -0.000001 0.165220 -1.004454
v -0.000001 0.117859 -1.003910
v -0.000001 0.165220 -1.274454
v 0.294564 0.142779 -1.031454
v 0.294564 0.142779 -1.247454
v 0.243423 0.165220 -1.274454
v 0.243423 0.165220 -1.004454
v -0.064845 0.053014 -0.891444
v -0.047906 0.053014 1.176241
v -0.047908 0.053014 -0.891444
v -0.062278 0.053014 1.215198
v -0.064845 0.053014 -1.003910
v -0.294565 0.053014 -1.031454
v -0.294565 -0.036751 -1.031454
v -0.294565 0.053014 -1.247454
v -0.294565 -0.036751 -1.247454
v -0.243424 -0.059192 -1.274454
v -0.243424 -0.059192 -1.004454
v -0.243424 0.053014 -1.004454
v -0.243424 0.053014 -1.274454
v 0.064844 0.053014 -0.891444
v -0.000000 -0.011831 -0.891444
v 0.000001 0.053014 1.274479
v -0.000000 0.005107 -0.891444
v 0.000001 0.005107 1.176241
v 0.047907 0.053014 1.176241
v 0.000001 -0.009265 1.215198
v 0.047907 0.053014 -0.891444
v 0.062279 0.053014 1.215198
v -0.000001 -0.059192 -1.004454
v 0.064844 0.053014 -1.003910
v -0.000001 -0.011831 -1.003910
v -0.000001 -0.059192 -1.274454
v -0.000001 0.053014 -1.274454
v 0.294564 0.053014 -1.031454
v 0.294564 -0.036751 -1.031454
v 0.294564 0.053014 -1.247454
v 0.294564 -0.036751 -1.247454
v 0.243423 -0.059192 -1.274454
v 0.243423 -0.059192 -1.004454
v 0.243423 0.053014 -1.004454
v 0.243423 0.053014 -1.274454
vt 0.981717 0.295714
vt 0.030783 0.240082
vt 0.981717 0.240081
vt 0.720073 0.511498
vt 0.739204 0.533651
vt 0.714391 0.512881
vt 0.794336 0.170305
vt 0.852068 0.146338
vt 0.824662 0.185940
vt 0.791774 0.101809
vt 0.832996 0.135252
vt 0.696643 0.562845
vt 0.738291 0.602166
vt 0.737725 0.644677
vt 0.589374 0.650729
vt 0.556218 0.830460
vt 0.556219 0.670699
vt 0.502927 0.830460
vt 0.502928 0.670699
vt 0.588909 0.933672
vt 0.554844 0.866781
vt 0.589373 0.850430
vt 0.586796 0.568169
vt 0.554704 0.635872
vt 0.552642 0.569825
vt 0.733858 0.934927
vt 0.734970 0.851440
vt 0.030783 0.351351
vt 0.981717 0.351354
vt 0.758915 0.512302
vt 0.739285 0.527612
vt 0.842163 0.103519
vt 0.780965 0.564589
vt 0.764558 0.513918
vt 0.885833 0.656860
vt 0.914183 0.837863
vt 0.880514 0.856452
vt 0.967444 0.840067
vt 0.918438 0.678190
vt 0.971699 0.680393
vt 0.914588 0.874221
vt 0.878760 0.939667
vt 0.890609 0.574452
vt 0.920879 0.643445
vt 0.030783 0.462620
vt 0.981717 0.406987
vt 0.981717 0.462626
vt 0.285784 0.511495
vt 0.266653 0.533648
vt 0.266573 0.527609
vt 0.798974 0.033644
vt 0.854949 0.061471
vt 0.835169 0.071237
vt 0.309214 0.562842
vt 0.291467 0.512878
vt 0.268131 0.644673
vt 0.267565 0.602163
vt 0.416482 0.650728
vt 0.449637 0.830459
vt 0.416481 0.850429
vt 0.449638 0.670698
vt 0.451010 0.866780
vt 0.416945 0.933671
vt 0.419061 0.568168
vt 0.451152 0.635872
vt 0.270884 0.851436
vt 0.271996 0.934924
vt 0.246943 0.512298
vt 0.241300 0.513915
vt 0.871081 0.104500
vt 0.224892 0.564585
vt 0.120023 0.656855
vt 0.091672 0.837857
vt 0.087418 0.678184
vt 0.038410 0.840060
vt 0.034157 0.680387
vt 0.127093 0.939661
vt 0.091266 0.874215
vt 0.125341 0.856446
vt 0.115248 0.574447
vt 0.084977 0.643439
vt 0.081157 0.577513
vt 0.030783 0.295717
vt 0.554473 0.933374
vt 0.913185 0.940793
vt 0.924700 0.577519
vt 0.030783 0.406986
vt 0.830291 0.020101
vt 0.451381 0.933373
vt 0.453215 0.569824
vt 0.092668 0.940786
vn 0.0000 0.9815 -0.1913
vn -0.4264 0.0000 0.9045
vn -0.9815 0.0000 -0.1913
vn 0.0000 0.8165 0.5773
vn -0.8165 0.0000 0.5773
vn -0.9826 0.0000 0.1857
vn 0.0000 0.0000 1.0000
vn 0.0000 0.9826 0.1857
vn -0.4279 0.0000 0.9038
vn 0.0000 0.4349 0.9004
vn 0.0000 0.7096 0.7046
vn -0.2643 0.6776 0.6862
vn -0.7933 0.4464 -0.4140
vn -0.7933 0.4464 0.4140
vn -0.8564 0.0000 -0.5163
vn -0.8564 0.0000 0.5163
vn -0.2405 0.0000 -0.9706
vn -0.2636 0.6774 -0.6867
vn -0.2420 0.0000 0.9703
vn 0.0000 0.0000 -1.0000
vn 0.0000 0.7071 -0.7071
vn 0.4264 0.0000 0.9045
vn 0.9815 0.0000 -0.1913
vn 0.0000 0.4264 0.9045
vn 0.9826 0.0000 0.1857
vn 0.4279 0.0000 0.9038
vn 0.8165 0.0000 0.5773
vn 0.2643 0.6776 0.6862
vn 0.7933 0.4464 -0.4140
vn 0.2636 0.6774 -0.6867
vn 0.8564 0.0000 -0.5163
vn 0.7933 0.4464 0.4140
vn 0.8564 0.0000 0.5163
vn 0.2405 0.0000 -0.9706
vn 0.2420 0.0000 0.9703
vn 0.0000 -0.9815 -0.1913
vn 0.0000 -0.8165 0.5773
vn 0.0000 -0.4264 0.9045
vn 0.0000 -0.9826 0.1857
vn 0.0000 -0.7096 0.7046
vn 0.0000 -0.4349 0.9004
vn -0.2643 -0.6776 0.6862
vn -0.7933 -0.4464 -0.4140
vn -0.2636 -0.6774 -0.6867
vn -0.7933 -0.4464 0.4140
vn 0.0000 -0.7071 -0.7071
vn 0.2643 -0.6776 0.6862
vn 0.7933 -0.4464 -0.4140
vn 0.7933 -0.4464 0.4140
vn 0.2636 -0.6774 -0.6867
usemtl Material.003
s 1
f 7/1/1 18/2/2 17/3/3
f 18/4/2 5/5/4 16/6/5
f 19/7/6 7/8/1 17/9/3
f 31/10/7 8/11/8 19/7/6
f 5/5/4 20/12/9 16/6/5
f 20/12/9 10/13/10 9/14/11
f 4/15/12 2/16/13 1/17/14
f 1/17/14 23/18/15 21/19/16
f 28/20/17 2/21/13 3/22/18
f 27/23/19 1/24/14 21/25/16
f 20/12/9 4/15/12 27/23/19
f 42/26/20 3/22/18 11/27/21
f 11/27/21 4/15/12 9/14/11
f 36/28/22 7/1/1 34/29/23
f 36/30/22 5/5/4 6/31/24
f 37/32/25 7/8/1 8/11/8
f 31/10/7 37/32/25 8/11/8
f 39/33/26 5/5/4 29/34/27
f 39/33/26 9/14/11 10/13/10
f 15/35/28 13/36/29 14/37/30
f 45/38/31 12/39/32 43/40/33
f 13/41/29 50/42/34 14/37/30
f 49/43/35 12/44/32 15/35/28
f 39/33/26 15/35/28 9/14/11
f 11/27/21 50/42/34 42/26/20
f 9/14/11 14/37/30 11/27/21
f 18/45/2 33/46/36 17/47/3
f 18/48/2 30/49/37 32/50/38
f 19/51/6 33/52/36 35/53/39
f 31/10/7 19/51/6 35/53/39
f 20/54/9 30/49/37 16/55/5
f 20/54/9 38/56/40 40/57/41
f 26/58/42 24/59/43 25/60/44
f 23/18/15 22/61/45 21/19/16
f 24/62/43 28/63/17 25/60/44
f 27/64/19 22/65/45 26/58/42
f 20/54/9 26/58/42 38/56/40
f 41/66/46 28/63/17 42/67/20
f 26/58/42 41/66/46 38/56/40
f 33/46/36 36/28/22 34/29/23
f 36/68/22 30/49/37 29/69/27
f 37/32/25 33/52/36 34/70/23
f 31/10/7 35/53/39 37/32/25
f 30/49/37 39/71/26 29/69/27
f 39/71/26 40/57/41 38/56/40
f 48/72/47 46/73/48 44/74/49
f 44/74/49 45/75/31 43/76/33
f 50/77/34 46/78/48 47/79/50
f 49/80/35 44/81/49 43/82/33
f 39/71/26 48/72/47 49/80/35
f 42/67/20 47/79/50 41/66/46
f 38/56/40 47/79/50 48/72/47
f 7/1/1 6/83/24 18/2/2
f 18/4/2 6/31/24 5/5/4
f 19/7/6 8/11/8 7/8/1
f 5/5/4 10/13/10 20/12/9
f 4/15/12 3/22/18 2/16/13
f 1/17/14 2/16/13 23/18/15
f 28/20/17 23/84/15 2/21/13
f 27/23/19 4/15/12 1/24/14
f 20/12/9 9/14/11 4/15/12
f 42/26/20 28/20/17 3/22/18
f 11/27/21 3/22/18 4/15/12
f 36/28/22 6/83/24 7/1/1
f 36/30/22 29/34/27 5/5/4
f 37/32/25 34/70/23 7/8/1
f 39/33/26 10/13/10 5/5/4
f 15/35/28 12/39/32 13/36/29
f 45/38/31 13/36/29 12/39/32
f 13/41/29 45/85/31 50/42/34
f 49/43/35 43/86/33 12/44/32
f 39/33/26 49/43/35 15/35/28
f 11/27/21 14/37/30 50/42/34
f 9/14/11 15/35/28 14/37/30
f 18/45/2 32/87/38 33/46/36
f 18/48/2 16/55/5 30/49/37
f 19/51/6 17/88/3 33/52/36
f 20/54/9 40/57/41 30/49/37
f 26/58/42 22/61/45 24/59/43
f 23/18/15 24/59/43 22/61/45
f 24/62/43 23/89/15 28/63/17
f 27/64/19 21/90/16 22/65/45
f 20/54/9 27/64/19 26/58/42
f 41/66/46 25/60/44 28/63/17
f 26/58/42 25/60/44 41/66/46
f 33/46/36 32/87/38 36/28/22
f 36/68/22 32/50/38 30/49/37
f 37/32/25 35/53/39 33/52/36
f 30/49/37 40/57/41 39/71/26
f 48/72/47 47/79/50 46/73/48
f 44/74/49 46/73/48 45/75/31
f 50/77/34 45/91/31 46/78/48
f 49/80/35 48/72/47 44/81/49
f 39/71/26 38/56/40 48/72/47
f 42/67/20 50/77/34 47/79/50
f 38/56/40 41/66/46 47/79/50
