# Blender v2.79 (sub 0) OBJ File: 'dungeon_005.blend'
# www.blender.org
mtllib dungeon_005_wall_1td_002.mtl
o Cylinder.010_Cylinder.011
v -0.500000 0.125000 0.500000
v -0.500000 0.125000 -0.500000
v 0.500000 0.125000 0.500000
v 0.500000 0.125000 -0.500000
v 0.187500 0.125000 0.375000
v 0.187500 2.875000 0.375000
v -0.187500 0.125000 -0.375000
v -0.187500 2.875000 -0.375000
v -0.500000 0.000000 0.500000
v -0.500000 -0.000000 -0.500000
v 0.500000 0.000000 0.500000
v 0.500000 -0.000000 -0.500000
v -0.500000 2.875000 0.500000
v -0.500000 2.875000 -0.500000
v 0.500000 2.875000 -0.500000
v 0.500000 2.875000 0.500000
v -0.500000 3.000000 0.500000
v -0.500000 3.000000 -0.500000
v 0.500000 3.000000 -0.500000
v 0.500000 3.000000 0.500000
v 0.250000 0.125000 -0.500000
v -0.250000 0.125000 -0.500000
v 0.187500 0.125000 -0.375000
v -0.250000 0.125000 0.500000
v 0.250000 0.125000 0.500000
v -0.187500 0.125000 0.375000
v 0.187500 2.875000 -0.375000
v -0.187500 2.875000 0.375000
v -0.250000 2.875000 -0.500000
v 0.250000 2.875000 -0.500000
v 0.250000 2.875000 0.500000
v -0.250000 2.875000 0.500000
vt 0.083008 0.211914
vt 0.454102 0.188965
vt 0.454102 0.211914
vt 0.164551 0.479492
vt 0.213379 0.000000
vt 0.213379 0.479492
vt 0.079102 0.334961
vt 0.450195 0.357910
vt 0.079102 0.357910
vt 0.262695 0.479492
vt 0.213867 0.000000
vt 0.262695 0.000000
vt 0.403809 0.474121
vt 0.129395 0.243652
vt 0.083008 0.220703
vt 0.083008 0.127930
vt 0.454102 0.127930
vt 0.083008 0.104492
vt 0.454102 0.104492
vt 0.312500 0.479492
vt 0.361328 0.000000
vt 0.361328 0.479492
vt 0.129395 0.328125
vt 0.083008 0.304688
vt 0.263184 0.000000
vt 0.312012 0.479492
vt 0.263184 0.479492
vt 0.451172 0.445312
vt 0.080078 0.074219
vt 0.451172 0.074219
vt 0.506836 0.000000
vt 0.763184 0.470703
vt 0.506836 0.470703
vt 0.079590 0.045898
vt 0.451172 0.045898
vt 0.404785 0.161621
vt 1.000000 0.000000
vt 0.743652 0.470215
vt 0.743652 0.000000
vt 0.079590 0.022461
vt 0.083008 0.188965
vt 0.164551 0.000000
vt 0.450195 0.334961
vt 0.213867 0.479492
vt 0.450195 0.450684
vt 0.125488 0.474121
vt 0.079102 0.450684
vt 0.454102 0.220703
vt 0.407715 0.243652
vt 0.312500 0.000000
vt 0.454102 0.304688
vt 0.407715 0.328125
vt 0.312012 0.000000
vt 0.080078 0.445312
vt 0.763184 0.000000
vt 0.451172 0.138672
vt 0.126465 0.161621
vt 0.079590 0.138672
vt 1.000000 0.470215
vt 0.451172 0.022461
vn 1.0000 0.0000 0.0000
vn 0.8944 -0.0000 0.4472
vn -1.0000 0.0000 0.0000
vn -0.8944 0.0000 0.4472
vn -0.0000 1.0000 0.0000
vn 0.0000 -1.0000 0.0000
vn 0.8944 0.0000 -0.4472
vn -0.8944 0.0000 -0.4472
usemtl None
s off
f 15/1/1 20/2/1 16/3/1
f 21/4/2 27/5/2 23/6/2
f 10/7/3 1/8/3 2/9/3
f 22/10/4 8/11/4 29/12/4
f 2/9/5 1/8/5 26/13/5
f 28/14/6 32/15/6 13/16/6
f 14/17/3 17/18/3 18/19/3
f 5/20/7 31/21/7 25/22/7
f 27/23/6 30/24/6 15/1/6
f 32/25/8 26/26/8 24/27/8
f 19/28/5 17/29/5 20/30/5
f 28/31/3 7/32/3 26/33/3
f 3/34/5 4/35/5 23/36/5
f 6/37/1 23/38/1 27/39/1
f 11/40/1 4/35/1 3/34/1
f 15/1/1 19/41/1 20/2/1
f 21/4/2 30/42/2 27/5/2
f 10/7/3 9/43/3 1/8/3
f 22/10/4 7/44/4 8/11/4
f 1/8/5 24/45/5 26/13/5
f 26/13/5 7/46/5 2/9/5
f 7/46/5 22/47/5 2/9/5
f 13/16/6 14/17/6 28/14/6
f 14/17/6 29/48/6 8/49/6
f 28/14/6 14/17/6 8/49/6
f 14/17/3 13/16/3 17/18/3
f 5/20/7 6/50/7 31/21/7
f 15/1/6 16/3/6 27/23/6
f 16/3/6 31/51/6 6/52/6
f 27/23/6 16/3/6 6/52/6
f 32/25/8 28/53/8 26/26/8
f 19/28/5 18/54/5 17/29/5
f 28/31/3 8/55/3 7/32/3
f 4/35/5 21/56/5 23/36/5
f 23/36/5 5/57/5 3/34/5
f 5/57/5 25/58/5 3/34/5
f 6/37/1 5/59/1 23/38/1
f 11/40/1 12/60/1 4/35/1
