# Blender v2.79 (sub 0) OBJ File: 'dungeon_005.blend'
# www.blender.org
mtllib dungeon_005_wall_1te_001.mtl
o Cylinder.005_Cylinder.006
v -0.500000 0.125000 0.500000
v -0.375000 0.250000 0.375000
v -0.500000 0.125000 -0.500000
v -0.375000 0.250000 -0.375000
v 0.500000 0.125000 0.500000
v 0.375000 0.250000 0.375000
v 0.500000 0.125000 -0.500000
v 0.375000 0.250000 -0.375000
v 0.187500 0.250000 -0.187500
v 0.187500 2.750000 -0.187500
v 0.207867 0.250000 -0.138893
v 0.207867 2.750000 -0.138893
v 0.245196 0.250000 -0.048773
v 0.245196 2.750000 -0.048772
v 0.245196 0.250000 0.048773
v 0.245196 2.750000 0.048773
v 0.207867 0.250000 0.138893
v 0.207867 2.750000 0.138893
v 0.138893 0.250000 0.207867
v 0.138893 2.750000 0.207867
v 0.048773 0.250000 0.245196
v 0.048773 2.750000 0.245196
v -0.048773 0.250000 0.245196
v -0.048773 2.750000 0.245196
v -0.138893 0.250000 0.207867
v -0.138893 2.750000 0.207867
v -0.207867 0.250000 0.138893
v -0.207867 2.750000 0.138893
v -0.245196 0.250000 0.048773
v -0.245196 2.750000 0.048773
v -0.245196 0.250000 -0.048773
v -0.245196 2.750000 -0.048773
v -0.207867 0.250000 -0.138893
v -0.207867 2.750000 -0.138893
v -0.187500 0.250000 -0.187500
v -0.187500 2.750000 -0.187500
v -0.500000 0.000000 0.500000
v -0.500000 -0.000000 -0.500000
v 0.500000 0.000000 0.500000
v 0.500000 -0.000000 -0.500000
v -0.375000 2.750000 0.375000
v -0.375000 2.750000 -0.375000
v 0.375000 2.750000 0.375000
v 0.375000 2.750000 -0.375000
v -0.500000 2.875000 0.500000
v -0.500000 2.875000 -0.500000
v 0.500000 2.875000 -0.500000
v 0.500000 2.875000 0.500000
v -0.500000 3.000000 0.500000
v -0.500000 3.000000 -0.500000
v 0.500000 3.000000 -0.500000
v 0.500000 3.000000 0.500000
v 0.250000 0.125000 -0.500000
v -0.250000 0.125000 -0.500000
v -0.187500 0.250000 -0.375000
v 0.187500 0.250000 -0.375000
v -0.187500 2.750000 -0.375000
v 0.187500 2.750000 -0.375000
v -0.250000 2.875000 -0.500000
v 0.250000 2.875000 -0.500000
vt 0.161621 0.163574
vt 0.111816 0.119629
vt 0.161621 0.075195
vt 0.503906 0.000000
vt 0.526367 0.499023
vt 0.503906 0.499023
vt 0.526367 0.000000
vt 0.567383 0.499023
vt 0.567383 0.000000
vt 0.608398 0.499023
vt 0.608398 0.000000
vt 0.649414 0.499023
vt 0.649414 0.000000
vt 0.690430 0.499023
vt 0.690430 0.000000
vt 0.731445 0.499023
vt 0.731445 0.000000
vt 0.772461 0.499023
vt 0.772461 0.000000
vt 0.813477 0.499023
vt 0.813477 0.000000
vt 0.854492 0.499023
vt 0.854492 0.000000
vt 0.895508 0.499023
vt 0.895508 0.000000
vt 0.936523 0.499023
vt 0.936523 0.000000
vt 0.977539 0.499023
vt 0.977539 0.000000
vt 1.000000 0.499023
vt 0.331543 0.414062
vt 0.375977 0.364746
vt 0.398438 0.414062
vt 0.000000 0.000000
vt 0.354492 0.021973
vt 0.000000 0.021973
vt 0.354980 0.022461
vt 0.044434 0.071777
vt 0.310547 0.071777
vt 0.242676 0.252930
vt 0.234863 0.319336
vt 0.175781 0.252930
vt 0.000000 0.266113
vt 0.000000 0.000000
vt 0.066406 0.199707
vt 0.353516 0.319336
vt 0.287598 0.312012
vt 0.353516 0.252930
vt 0.044434 0.071777
vt 0.354492 0.021973
vt 0.310059 0.071777
vt 0.354980 0.000000
vt 0.000000 0.022461
vt 0.066406 0.266113
vt 0.354980 0.022461
vt 0.000000 0.000000
vt 0.000000 0.022461
vt 0.310547 0.071777
vt 0.044434 0.071777
vt 0.000000 0.021973
vt 0.354492 0.000000
vt 0.310059 0.071777
vt 0.044434 0.071777
vt 0.000000 0.021973
vt 0.310059 0.071777
vt 0.044434 0.071777
vt 0.424805 0.414062
vt 0.070312 0.059570
vt 0.424805 0.059570
vt 0.116699 0.487793
vt 0.166016 0.021973
vt 0.166016 0.465332
vt 0.116211 0.000000
vt 0.066406 0.465332
vt 0.066406 0.021973
vt 0.000000 0.021973
vt 0.000000 0.465332
vt 0.232910 0.021973
vt 0.232910 0.465332
vt -0.000000 0.266113
vt -0.000000 0.000000
vt 0.066406 0.066406
vt 0.000000 0.022461
vt 0.043945 0.071777
vt 0.354492 0.000000
vt 0.354492 0.022461
vt 0.000000 0.000000
vt 0.354492 0.021973
vt 0.266113 0.000000
vt 0.266113 0.266113
vt 0.199707 0.199707
vt 0.199707 0.266113
vt 0.066406 0.000000
vt 0.199707 0.000000
vt 0.266113 0.000000
vt 0.199707 0.066406
vt 0.266113 0.266113
vt 0.111816 0.186035
vt 1.000000 0.000000
vt 0.287598 0.364746
vt 0.354492 0.000000
vt 0.286621 0.302734
vt 0.303711 0.363770
vt 0.000000 0.000000
vt 0.354980 0.000000
vt -0.000000 0.000000
vt 0.070312 0.414062
vt 0.116699 0.000000
vt 0.116211 0.487793
vt 0.000000 0.000000
vn 0.0000 0.7071 -0.7071
vn 0.9223 0.0000 -0.3865
vn 0.9239 0.0000 -0.3827
vn 1.0000 0.0000 0.0000
vn 0.9239 -0.0000 0.3827
vn 0.7071 0.0000 0.7071
vn 0.3827 -0.0000 0.9239
vn 0.0000 -0.0000 1.0000
vn -0.3827 -0.0000 0.9239
vn -0.7071 -0.0000 0.7071
vn -0.9239 0.0000 0.3827
vn -1.0000 -0.0000 -0.0000
vn -0.9239 -0.0000 -0.3827
vn -0.9223 0.0000 -0.3865
vn 0.0000 -0.7071 -0.7071
vn -0.7071 -0.7071 0.0000
vn 0.0000 1.0000 0.0000
vn 0.7071 -0.7071 0.0000
vn 0.0000 -0.7071 0.7071
vn -0.7071 0.7071 0.0000
vn 0.0000 0.7071 0.7071
vn 0.8944 0.0000 0.4472
vn -0.8944 0.0000 0.4472
vn 0.0000 -1.0000 0.0000
vn 0.7071 0.7071 0.0000
usemtl None
s off
f 53/1/1 8/2/1 7/3/1
f 10/4/2 11/5/2 9/6/2
f 12/7/3 13/8/3 11/5/3
f 14/9/4 15/10/4 13/8/4
f 16/11/5 17/12/5 15/10/5
f 18/13/6 19/14/6 17/12/6
f 20/15/7 21/16/7 19/14/7
f 22/17/8 23/18/8 21/16/8
f 24/19/9 25/20/9 23/18/9
f 26/21/10 27/22/10 25/20/10
f 28/23/11 29/24/11 27/22/11
f 30/25/12 31/26/12 29/24/12
f 32/27/13 33/28/13 31/26/13
f 34/29/14 35/30/14 33/28/14
f 42/31/15 59/32/15 57/33/15
f 38/34/12 1/35/12 3/36/12
f 45/37/16 42/38/16 41/39/16
f 4/40/1 54/41/1 3/42/1
f 4/43/17 2/44/17 35/45/17
f 44/46/15 60/47/15 47/48/15
f 44/49/18 48/50/18 43/51/18
f 10/4/2 12/7/2 11/5/2
f 49/52/12 46/53/12 45/37/12
f 55/54/17 4/43/17 35/45/17
f 48/55/8 49/56/8 45/57/8
f 43/58/19 45/57/19 41/59/19
f 47/60/4 52/61/4 48/50/4
f 3/36/20 2/62/20 4/63/20
f 1/64/21 6/65/21 2/66/21
f 51/67/17 49/68/17 52/69/17
f 53/70/22 58/71/22 56/72/22
f 59/73/23 55/74/23 57/75/23
f 36/76/12 55/74/12 35/77/12
f 56/72/4 10/78/4 9/79/4
f 41/80/24 42/81/24 36/82/24
f 6/65/25 7/83/25 8/84/25
f 39/85/4 7/83/4 5/86/4
f 37/87/8 5/88/8 1/64/8
f 6/89/17 8/90/17 9/91/17
f 8/90/17 56/92/17 9/91/17
f 6/89/17 35/45/17 2/44/17
f 42/81/24 57/93/24 36/82/24
f 58/94/24 44/95/24 10/96/24
f 44/95/24 43/97/24 10/96/24
f 53/1/1 56/98/1 8/2/1
f 10/96/24 41/80/24 36/82/24
f 12/7/3 14/9/3 13/8/3
f 14/9/4 16/11/4 15/10/4
f 16/11/5 18/13/5 17/12/5
f 18/13/6 20/15/6 19/14/6
f 20/15/7 22/17/7 21/16/7
f 22/17/8 24/19/8 23/18/8
f 24/19/9 26/21/9 25/20/9
f 26/21/10 28/23/10 27/22/10
f 28/23/11 30/25/11 29/24/11
f 30/25/12 32/27/12 31/26/12
f 32/27/13 34/29/13 33/28/13
f 34/29/14 36/99/14 35/30/14
f 42/31/15 46/100/15 59/32/15
f 38/34/12 37/101/12 1/35/12
f 45/37/16 46/53/16 42/38/16
f 4/40/1 55/102/1 54/41/1
f 44/46/15 58/103/15 60/47/15
f 44/49/18 47/60/18 48/50/18
f 49/52/12 50/104/12 46/53/12
f 48/55/8 52/105/8 49/56/8
f 43/58/19 48/55/19 45/57/19
f 47/60/4 51/106/4 52/61/4
f 3/36/20 1/35/20 2/62/20
f 1/64/21 5/88/21 6/65/21
f 51/67/17 50/107/17 49/68/17
f 53/70/22 60/108/22 58/71/22
f 59/73/23 54/109/23 55/74/23
f 36/76/12 57/75/12 55/74/12
f 56/72/4 58/71/4 10/78/4
f 6/65/25 5/86/25 7/83/25
f 39/85/4 40/110/4 7/83/4
f 37/87/8 39/85/8 5/88/8
f 6/89/17 9/91/17 35/45/17
f 10/96/24 43/97/24 41/80/24
