# Blender v2.79 (sub 0) OBJ File: 'dungeon_005.blend'
# www.blender.org
mtllib dungeon_005_wall_1tp_003.mtl
o Cylinder.002
v -0.500000 0.125000 0.500000
v -0.375000 0.250000 0.375000
v -0.500000 0.125000 -0.500000
v -0.375000 0.250000 -0.375000
v 0.500000 0.125000 0.500000
v 0.375000 0.250000 0.375000
v 0.500000 0.125000 -0.500000
v 0.375000 0.250000 -0.375000
v -0.048773 0.250000 -0.245196
v -0.048773 1.102180 -0.245196
v 0.048773 0.250000 -0.245196
v 0.048773 0.919167 -0.245196
v 0.138893 0.250000 -0.207867
v 0.138893 1.013365 -0.207867
v 0.207867 0.250000 -0.138893
v 0.207867 0.983760 -0.138893
v 0.245196 0.250000 -0.048773
v 0.245196 0.905710 -0.048773
v 0.245196 0.250000 0.048773
v 0.245196 0.905710 0.048773
v 0.207867 0.250000 0.138893
v 0.207867 1.078872 0.138893
v 0.138893 0.250000 0.207867
v 0.138893 1.107898 0.207867
v 0.048773 0.250000 0.245196
v 0.048773 0.983760 0.245196
v -0.048773 0.250000 0.245196
v -0.048773 1.382663 0.245196
v -0.138893 0.250000 0.207867
v -0.138893 1.352284 0.207867
v -0.207867 0.250000 0.138893
v -0.207867 1.255510 0.138893
v -0.245196 0.250000 0.048773
v -0.245196 1.306074 0.048773
v -0.245196 0.250000 -0.048773
v -0.245196 1.013365 -0.048773
v -0.207867 0.250000 -0.138893
v -0.207867 1.075267 -0.138893
v -0.138892 0.250000 -0.207867
v -0.138892 1.075266 -0.207867
v -0.500000 0.000000 0.500000
v -0.500000 -0.000000 -0.500000
v 0.500000 0.000000 0.500000
v 0.500000 -0.000000 -0.500000
vt 0.437012 0.101074
vt 0.000000 0.031250
vt 0.499512 0.031250
vt 0.062500 0.101074
vt 0.500000 0.031250
vt 0.000000 0.031250
vt 0.437500 0.101074
vt 0.500000 0.031250
vt 0.437012 0.101074
vt 0.000000 0.031250
vt 0.499512 0.031250
vt 0.058594 0.062988
vt 0.433594 0.437500
vt 0.058594 0.437500
vt 0.843750 0.499512
vt 0.875000 0.352539
vt 0.875000 0.499512
vt 0.906250 0.499512
vt 0.937500 0.337891
vt 0.937500 0.499512
vt 0.968750 0.355469
vt 0.968750 0.499512
vt 1.000000 0.355469
vt 1.000000 0.499512
vt 0.500488 0.355469
vt 0.531738 0.499512
vt 0.500488 0.499512
vt 0.531738 0.316895
vt 0.562988 0.499512
vt 0.594238 0.337891
vt 0.594238 0.499512
vt 0.625488 0.499512
vt 0.656738 0.257812
vt 0.656738 0.499512
vt 0.687988 0.278320
vt 0.687988 0.499512
vt 0.719238 0.499512
vt 0.750488 0.331543
vt 0.750488 0.499512
vt 0.781250 0.499512
vt 0.781250 0.318359
vt 0.812500 0.499512
vt 0.812500 0.318359
vt 0.000000 0.000000
vt 0.499512 0.000000
vt 0.000000 0.000000
vt 0.499512 0.000000
vt 0.751953 0.444824
vt 0.828613 0.373047
vt 0.798340 0.430664
vt 0.655762 0.412598
vt 0.700684 0.432129
vt 0.603027 0.399902
vt 0.598145 0.333008
vt 0.598145 0.284180
vt 0.617676 0.239258
vt 0.898438 0.302246
vt 0.846680 0.327148
vt 0.837402 0.209961
vt 0.618164 0.188477
vt 0.703613 0.168457
vt 0.751465 0.152832
vt 0.799316 0.178223
vt 0.437500 0.101074
vt 0.062500 0.101074
vt 0.062500 0.101074
vt 0.433594 0.062988
vt 0.843750 0.312500
vt 0.906250 0.331543
vt 0.562988 0.311035
vt 0.625488 0.250488
vt 0.719238 0.267578
vt 0.500000 0.000000
vt 0.500000 0.000000
vt 0.000000 0.000000
vn -0.7071 0.7071 0.0000
vn 0.0000 0.7071 -0.7071
vn 0.7071 0.7071 0.0000
vn 0.0000 0.7071 0.7071
vn 0.0000 1.0000 0.0000
vn 0.0000 0.0000 -1.0000
vn 0.3827 0.0000 -0.9239
vn 0.7071 0.0000 -0.7071
vn 0.9239 -0.0000 -0.3827
vn 1.0000 0.0000 0.0000
vn 0.9239 -0.0000 0.3827
vn 0.7071 -0.0000 0.7071
vn 0.3827 -0.0000 0.9239
vn 0.0000 -0.0000 1.0000
vn -0.3827 -0.0000 0.9239
vn -0.7071 -0.0000 0.7071
vn -0.9239 0.0000 0.3827
vn -1.0000 0.0000 -0.0000
vn -0.9239 -0.0000 -0.3827
vn -0.7071 0.0000 -0.7071
vn -0.3827 0.0000 -0.9239
vn 0.9775 0.2107 0.0000
vn 0.5896 0.7641 -0.2616
vn 0.2547 0.1358 -0.9574
vn -0.4135 0.8112 -0.4135
vn 0.2952 0.0722 0.9527
vn -0.9423 0.1058 -0.3176
vn -0.8371 0.2497 0.4868
vn -0.2861 0.9543 -0.0861
vn 0.5318 0.4598 -0.7111
vn 0.5486 0.5791 -0.6031
vn 0.1563 0.9565 -0.2463
vn 0.1314 0.9690 -0.2092
vn 0.2533 0.7773 0.5759
vn 0.9402 0.3223 -0.1103
usemtl None
s off
f 2/1/1 3/2/1 1/3/1
f 4/4/2 7/5/2 3/2/2
f 7/6/3 6/7/3 5/8/3
f 6/9/4 1/10/4 5/11/4
f 4/12/5 6/13/5 8/14/5
f 9/15/6 12/16/6 11/17/6
f 12/16/7 13/18/7 11/17/7
f 13/18/8 16/19/8 15/20/8
f 15/20/9 18/21/9 17/22/9
f 17/22/10 20/23/10 19/24/10
f 20/25/11 21/26/11 19/27/11
f 22/28/12 23/29/12 21/26/12
f 23/29/13 26/30/13 25/31/13
f 26/30/14 27/32/14 25/31/14
f 27/32/15 30/33/15 29/34/15
f 29/34/16 32/35/16 31/36/16
f 32/35/17 33/37/17 31/36/17
f 33/37/18 36/38/18 35/39/18
f 36/38/19 37/40/19 35/39/19
f 38/41/20 39/42/20 37/40/20
f 40/43/21 9/15/21 39/42/21
f 7/5/6 42/44/6 3/2/6
f 3/2/18 41/45/18 1/3/18
f 5/8/10 44/46/10 7/6/10
f 1/10/14 43/47/14 5/11/14
f 18/48/22 22/49/22 20/50/22
f 14/51/23 22/49/23 16/52/23
f 12/53/24 10/54/24 14/51/24
f 40/55/25 38/56/25 10/54/25
f 26/57/26 24/58/26 28/59/26
f 36/60/27 34/61/27 38/56/27
f 32/62/28 30/63/28 34/61/28
f 28/59/29 34/61/29 30/63/29
f 28/59/30 24/58/30 34/61/30
f 34/61/31 24/58/31 38/56/31
f 24/58/32 22/49/32 38/56/32
f 22/49/33 14/51/33 38/56/33
f 10/54/34 38/56/34 14/51/34
f 2/1/1 4/4/1 3/2/1
f 4/4/2 8/64/2 7/5/2
f 7/6/3 8/65/3 6/7/3
f 6/9/4 2/66/4 1/10/4
f 4/12/5 2/67/5 6/13/5
f 9/15/6 10/68/6 12/16/6
f 12/16/7 14/69/7 13/18/7
f 13/18/8 14/69/8 16/19/8
f 15/20/9 16/19/9 18/21/9
f 17/22/10 18/21/10 20/23/10
f 20/25/11 22/28/11 21/26/11
f 22/28/12 24/70/12 23/29/12
f 23/29/13 24/70/13 26/30/13
f 26/30/14 28/71/14 27/32/14
f 27/32/15 28/71/15 30/33/15
f 29/34/16 30/33/16 32/35/16
f 32/35/17 34/72/17 33/37/17
f 33/37/18 34/72/18 36/38/18
f 36/38/19 38/41/19 37/40/19
f 38/41/20 40/43/20 39/42/20
f 40/43/21 10/68/21 9/15/21
f 7/5/6 44/73/6 42/44/6
f 3/2/18 42/44/18 41/45/18
f 5/8/10 43/74/10 44/46/10
f 1/10/14 41/75/14 43/47/14
f 18/48/35 16/52/35 22/49/35
