# Blender v2.79 (sub 0) OBJ File: 'dungeon_005.blend'
# www.blender.org
mtllib dungeon_005_wall_2td_001.mtl
o Cylinder.009_Cylinder.010
v -0.500000 0.125000 0.500000
v -0.500000 0.125000 -1.500000
v 0.500000 0.125000 0.500000
v 0.500000 0.125000 -1.500000
v 0.187500 0.125000 0.375000
v 0.187500 2.875000 0.375000
v -0.187500 0.125000 -1.375000
v -0.187500 2.875000 -1.375000
v -0.500000 0.000000 0.500000
v -0.500000 -0.000000 -1.500000
v 0.500000 0.000000 0.500000
v 0.500000 -0.000000 -1.500000
v -0.500000 2.875000 0.500000
v -0.500000 2.875000 -1.500000
v 0.500000 2.875000 -1.500000
v 0.500000 2.875000 0.500000
v -0.500000 3.000000 0.500000
v -0.500000 3.000000 -1.500000
v 0.500000 3.000000 -1.500000
v 0.500000 3.000000 0.500000
v 0.250000 0.125000 -1.500000
v -0.250000 0.125000 -1.500000
v 0.187500 0.125000 -1.375000
v -0.250000 0.125000 0.500000
v 0.250000 0.125000 0.500000
v -0.187500 0.125000 0.375000
v 0.187500 2.875000 -1.375000
v -0.187500 2.875000 0.375000
v -0.250000 2.875000 -1.500000
v 0.250000 2.875000 -1.500000
v 0.250000 2.875000 0.500000
v -0.250000 2.875000 0.500000
vt 0.000000 0.015625
vt 0.495117 0.000000
vt 0.495117 0.015625
vt 0.417480 0.327637
vt 0.077148 0.292969
vt 0.417480 0.292969
vt 0.000000 0.000000
vt 0.495117 0.015625
vt 0.000000 0.015625
vt 0.417480 0.257812
vt 0.077148 0.292480
vt 0.077148 0.257812
vt 0.464355 0.092773
vt 0.030762 0.092773
vt 0.000000 0.077148
vt 0.000000 0.015625
vt 0.495117 0.015625
vt 0.000000 0.000000
vt 0.495117 0.000000
vt 0.416504 0.219238
vt 0.076172 0.185059
vt 0.416504 0.185059
vt 0.030762 0.092773
vt 0.000000 0.077148
vt 0.076172 0.254395
vt 0.416504 0.219727
vt 0.416504 0.254395
vt 0.000000 0.374512
vt 0.495117 0.126953
vt 0.495117 0.374512
vt 0.601562 0.495605
vt 0.993652 0.000000
vt 0.993652 0.495605
vt 0.000000 0.015625
vt 0.495605 0.015625
vt 0.464355 0.093262
vt 0.500488 0.000000
vt 0.892578 0.496094
vt 0.500488 0.496094
vt 0.000000 0.000000
vt 0.000000 0.000000
vt 0.077148 0.327637
vt 0.495117 0.000000
vt 0.417480 0.292480
vt 0.495117 0.077148
vt 0.030762 0.092773
vt 0.000000 0.077148
vt 0.495117 0.077148
vt 0.463867 0.092773
vt 0.076172 0.219238
vt 0.495117 0.077148
vt 0.464355 0.092773
vt 0.076172 0.219727
vt 0.000000 0.126953
vt 0.601562 0.000000
vt 0.495605 0.077637
vt 0.031250 0.093262
vt 0.000000 0.077637
vt 0.892578 0.000000
vt 0.495605 0.000000
vn 1.0000 0.0000 0.0000
vn 0.8944 0.0000 0.4472
vn -1.0000 0.0000 0.0000
vn -0.8944 0.0000 0.4472
vn -0.0000 1.0000 0.0000
vn 0.0000 -1.0000 0.0000
vn 0.8944 0.0000 -0.4472
vn -0.8944 0.0000 -0.4472
usemtl None
s off
f 15/1/1 20/2/1 16/3/1
f 21/4/2 27/5/2 23/6/2
f 10/7/3 1/8/3 2/9/3
f 22/10/4 8/11/4 29/12/4
f 2/9/5 1/8/5 26/13/5
f 28/14/6 32/15/6 13/16/6
f 14/17/3 17/18/3 18/19/3
f 5/20/7 31/21/7 25/22/7
f 27/23/6 30/24/6 15/1/6
f 32/25/8 26/26/8 24/27/8
f 19/28/5 17/29/5 20/30/5
f 28/31/3 7/32/3 26/33/3
f 3/34/5 4/35/5 23/36/5
f 6/37/1 23/38/1 27/39/1
f 11/40/1 4/35/1 3/34/1
f 15/1/1 19/41/1 20/2/1
f 21/4/2 30/42/2 27/5/2
f 10/7/3 9/43/3 1/8/3
f 22/10/4 7/44/4 8/11/4
f 1/8/5 24/45/5 26/13/5
f 26/13/5 7/46/5 2/9/5
f 7/46/5 22/47/5 2/9/5
f 13/16/6 14/17/6 28/14/6
f 14/17/6 29/48/6 8/49/6
f 28/14/6 14/17/6 8/49/6
f 14/17/3 13/16/3 17/18/3
f 5/20/7 6/50/7 31/21/7
f 15/1/6 16/3/6 27/23/6
f 16/3/6 31/51/6 6/52/6
f 27/23/6 16/3/6 6/52/6
f 32/25/8 28/53/8 26/26/8
f 19/28/5 18/54/5 17/29/5
f 28/31/3 8/55/3 7/32/3
f 4/35/5 21/56/5 23/36/5
f 23/36/5 5/57/5 3/34/5
f 5/57/5 25/58/5 3/34/5
f 6/37/1 5/59/1 23/38/1
f 11/40/1 12/60/1 4/35/1
