# Blender v2.79 (sub 0) OBJ File: 'dungeon_005.blend'
# www.blender.org
mtllib dungeon_005_wall_1tp_004.mtl
o Cylinder.003_Cylinder.004
v -0.500000 0.125000 0.500000
v -0.375000 0.250000 0.375000
v -0.500000 0.125000 -0.500000
v -0.375000 0.250000 -0.375000
v 0.500000 0.125000 0.500000
v 0.375000 0.250000 0.375000
v 0.500000 0.125000 -0.500000
v 0.375000 0.250000 -0.375000
v -0.048773 0.250000 -0.245196
v -0.048773 2.290195 -0.245196
v 0.048773 0.250000 -0.245196
v 0.048773 2.208744 -0.245196
v 0.138893 0.250000 -0.207867
v 0.138893 2.337288 -0.207867
v 0.207867 0.250000 -0.138893
v 0.207867 2.146089 -0.138893
v 0.245196 0.250000 -0.048773
v 0.245196 2.283930 -0.048773
v 0.245196 0.250000 0.048773
v 0.245196 2.102230 0.048773
v 0.207867 0.250000 0.138893
v 0.207867 2.249209 0.138893
v 0.138893 0.250000 0.207867
v 0.138893 2.336850 0.207867
v 0.048773 0.250000 0.245196
v 0.048773 2.409240 0.245196
v -0.048773 0.250000 0.245196
v -0.048773 2.583784 0.245196
v -0.138893 0.250000 0.207867
v -0.138893 2.657895 0.207867
v -0.207867 0.250000 0.138893
v -0.207867 2.735046 0.138893
v -0.245196 0.250000 0.048773
v -0.245196 2.252603 0.048773
v -0.245196 0.250000 -0.048773
v -0.245196 2.709984 -0.048773
v -0.207867 0.250000 -0.138893
v -0.207867 2.465630 -0.138893
v -0.138892 0.250000 -0.207867
v -0.138892 2.290195 -0.207867
v -0.500000 0.000000 0.500000
v -0.500000 -0.000000 -0.500000
v 0.500000 0.000000 0.500000
v 0.500000 -0.000000 -0.500000
v 0.013474 2.551011 -0.038788
v -0.037911 2.594072 0.154264
v -0.034487 2.589143 0.079928
v 0.012665 2.505910 0.213136
vt 0.377930 0.087402
vt 0.000000 0.026855
vt 0.431641 0.026855
vt 0.054199 0.087402
vt 0.432129 0.026855
vt 0.000000 0.026855
vt 0.377930 0.087402
vt 0.432129 0.026855
vt 0.000000 0.026855
vt 0.431641 0.026855
vt 0.093750 0.091797
vt 0.417480 0.415527
vt 0.093750 0.415527
vt 0.657715 0.000000
vt 0.627441 0.372070
vt 0.627441 0.000000
vt 0.596680 0.000000
vt 0.565918 0.360840
vt 0.565918 0.000000
vt 0.533691 0.000000
vt 0.502930 0.352051
vt 0.502930 0.000000
vt 1.000000 0.352051
vt 0.969238 0.000000
vt 1.000000 0.000000
vt 0.969238 0.380371
vt 0.938477 0.000000
vt 0.938477 0.396973
vt 0.906250 0.000000
vt 0.906250 0.410156
vt 0.875977 0.000000
vt 0.875977 0.443359
vt 0.845215 0.000000
vt 0.845215 0.457520
vt 0.814453 0.000000
vt 0.782227 0.380859
vt 0.782227 0.000000
vt 0.751465 0.000000
vt 0.720703 0.420898
vt 0.720703 0.000000
vt 0.689941 0.387695
vt 0.689941 0.000000
vt 0.000000 0.000000
vt 0.431641 0.000000
vt 0.000000 0.000000
vt 0.431641 0.000000
vt 0.853027 0.245117
vt 0.750488 0.209961
vt 0.773926 0.187988
vt 0.710938 0.359863
vt 0.660645 0.362793
vt 0.635742 0.324707
vt 0.609863 0.291504
vt 0.618652 0.235840
vt 0.646484 0.174805
vt 0.623535 0.069824
vt 0.717773 0.131836
vt 0.762695 0.138184
vt 0.812500 0.193359
vt 0.840820 0.202148
vt 0.802246 0.160156
vt 0.853027 0.291992
vt 0.794922 0.352051
vt 0.852539 0.345215
vt 0.761230 0.392090
vt 0.726074 0.259766
vt 0.377930 0.087402
vt 0.054199 0.087402
vt 0.054199 0.087402
vt 0.417480 0.091797
vt 0.657715 0.387695
vt 0.596680 0.396973
vt 0.533691 0.386719
vt 0.814453 0.472168
vt 0.751465 0.467285
vt 0.432129 0.000000
vt 0.432129 0.000000
vt 0.000000 0.000000
vn -0.7071 0.7071 0.0000
vn 0.0000 0.7071 -0.7071
vn 0.7071 0.7071 0.0000
vn 0.0000 0.7071 0.7071
vn 0.0000 1.0000 0.0000
vn 0.0000 0.0000 -1.0000
vn 0.3827 0.0000 -0.9239
vn 0.7071 0.0000 -0.7071
vn 0.9239 0.0000 -0.3827
vn 1.0000 0.0000 0.0000
vn 0.9239 0.0000 0.3827
vn 0.7071 -0.0000 0.7071
vn 0.3827 -0.0000 0.9239
vn 0.0000 -0.0000 1.0000
vn -0.3827 -0.0000 0.9239
vn -0.7071 0.0000 0.7071
vn -0.9239 0.0000 0.3827
vn -1.0000 0.0000 -0.0000
vn -0.9239 -0.0000 -0.3827
vn -0.7071 0.0000 -0.7071
vn -0.3827 0.0000 -0.9239
vn 0.8241 0.5665 0.0004
vn 0.1488 0.1782 -0.9727
vn -0.3743 0.2081 -0.9037
vn -0.0621 0.3370 -0.9395
vn -0.9810 0.0405 0.1897
vn 0.6661 0.7305 0.1510
vn 0.7888 0.5829 0.1952
vn 0.7845 0.4385 0.4385
vn 0.8472 0.4662 0.2548
vn 0.9700 0.1150 0.2142
vn 0.8433 0.1148 -0.5250
vn 0.0321 0.5391 -0.8416
vn 0.5866 0.7939 0.1599
vn 0.7225 0.6369 -0.2691
vn 0.5243 0.8493 -0.0610
vn 0.5831 0.7820 -0.2204
vn 0.6240 0.4459 0.6417
vn 0.8060 0.5697 0.1607
vn 0.4523 0.7013 -0.5510
vn 0.7873 0.6040 0.1241
vn 0.5216 0.8526 -0.0325
vn 0.7467 0.6412 0.1771
usemtl None
s off
f 2/1/1 3/2/1 1/3/1
f 4/4/2 7/5/2 3/2/2
f 7/6/3 6/7/3 5/8/3
f 6/7/4 1/9/4 5/10/4
f 4/11/5 6/12/5 8/13/5
f 9/14/6 12/15/6 11/16/6
f 12/15/7 13/17/7 11/16/7
f 13/17/8 16/18/8 15/19/8
f 16/18/9 17/20/9 15/19/9
f 17/20/10 20/21/10 19/22/10
f 20/23/11 21/24/11 19/25/11
f 22/26/12 23/27/12 21/24/12
f 24/28/13 25/29/13 23/27/13
f 26/30/14 27/31/14 25/29/14
f 28/32/15 29/33/15 27/31/15
f 30/34/16 31/35/16 29/33/16
f 31/35/17 34/36/17 33/37/17
f 34/36/18 35/38/18 33/37/18
f 35/38/19 38/39/19 37/40/19
f 37/40/20 40/41/20 39/42/20
f 40/41/21 9/14/21 39/42/21
f 7/5/6 42/43/6 3/2/6
f 3/2/18 41/44/18 1/3/18
f 5/8/10 44/45/10 7/6/10
f 1/9/14 43/46/14 5/10/14
f 24/47/22 47/48/22 46/49/22
f 14/50/23 12/51/23 10/52/23
f 10/52/24 40/53/24 38/54/24
f 38/54/25 36/55/25 14/50/25
f 36/55/26 34/56/26 32/57/26
f 30/58/27 47/48/27 32/57/27
f 46/49/28 48/59/28 24/47/28
f 26/60/29 48/59/29 28/61/29
f 24/47/30 22/62/30 18/63/30
f 22/62/31 20/64/31 18/63/31
f 18/63/32 16/65/32 14/50/32
f 14/50/33 10/52/33 38/54/33
f 28/61/34 46/49/34 30/58/34
f 45/66/35 18/63/35 14/50/35
f 45/66/36 36/55/36 47/48/36
f 36/55/37 32/57/37 47/48/37
f 26/60/38 24/47/38 48/59/38
f 28/61/39 48/59/39 46/49/39
f 14/50/40 36/55/40 45/66/40
f 24/47/41 45/66/41 47/48/41
f 2/1/1 4/4/1 3/2/1
f 4/4/2 8/67/2 7/5/2
f 7/6/3 8/68/3 6/7/3
f 6/7/4 2/69/4 1/9/4
f 4/11/5 2/70/5 6/12/5
f 9/14/6 10/71/6 12/15/6
f 12/15/7 14/72/7 13/17/7
f 13/17/8 14/72/8 16/18/8
f 16/18/9 18/73/9 17/20/9
f 17/20/10 18/73/10 20/21/10
f 20/23/11 22/26/11 21/24/11
f 22/26/12 24/28/12 23/27/12
f 24/28/13 26/30/13 25/29/13
f 26/30/14 28/32/14 27/31/14
f 28/32/15 30/34/15 29/33/15
f 30/34/16 32/74/16 31/35/16
f 31/35/17 32/74/17 34/36/17
f 34/36/18 36/75/18 35/38/18
f 35/38/19 36/75/19 38/39/19
f 37/40/20 38/39/20 40/41/20
f 40/41/21 10/71/21 9/14/21
f 7/5/6 44/76/6 42/43/6
f 3/2/18 42/43/18 41/44/18
f 5/8/10 43/77/10 44/45/10
f 1/9/14 41/78/14 43/46/14
f 30/58/42 46/49/42 47/48/42
f 24/47/43 18/63/43 45/66/43
