# Blender v2.79 (sub 0) OBJ File: 'dungeon_005.blend'
# www.blender.org
mtllib dungeon_005_wall_1tt_001.mtl
o Cylinder.008_Cylinder.009
v -0.500000 0.125000 -0.500000
v -0.375000 0.250000 -0.375000
v -0.500000 0.125000 0.500000
v -0.375000 0.250000 0.375000
v -0.187500 0.250000 0.187500
v -0.187500 2.750000 0.187500
v -0.207867 0.250000 0.138893
v -0.207867 2.750000 0.138892
v -0.245196 0.250000 0.048773
v -0.245196 2.750000 0.048772
v -0.245196 0.250000 -0.048772
v -0.245196 2.750000 -0.048773
v -0.207867 0.250000 -0.138892
v -0.207867 2.750000 -0.138893
v -0.187500 0.250000 -0.187500
v -0.187500 2.750000 -0.187500
v -0.500000 -0.000000 -0.500000
v -0.500000 0.000000 0.500000
v -0.375000 2.750000 -0.375000
v -0.375000 2.750000 0.375000
v -0.500000 2.875000 0.500000
v -0.500000 2.875000 -0.500000
v -0.500000 3.000000 0.500000
v -0.500000 3.000000 -0.500000
v -0.250000 0.125000 0.500000
v -0.187500 0.250000 0.375000
v -0.250000 0.125000 -0.500000
v -0.187500 0.250000 -0.375000
v -0.187500 2.750000 0.375000
v -0.187500 2.750000 -0.375000
v -0.250000 2.875000 0.500000
v -0.250000 2.875000 -0.500000
v 0.500000 0.125000 -0.500000
v 0.375000 0.250000 -0.375000
v 0.500000 0.125000 0.500000
v 0.375000 0.250000 0.375000
v 0.500000 -0.000000 -0.500000
v 0.500000 0.000000 0.500000
v 0.375000 2.750000 -0.375000
v 0.375000 2.750000 0.375000
v 0.500000 2.875000 -0.500001
v 0.500000 2.875000 0.499999
v 0.500000 3.000000 -0.500001
v 0.500000 3.000000 0.499999
v 0.500000 2.875000 -0.250001
v 0.250000 0.125000 0.500000
v 0.187500 0.250000 0.375000
v 0.500000 2.875000 0.249999
v 0.250000 0.125000 -0.500000
v 0.187500 0.250000 -0.375000
v 0.250000 0.000000 0.500000
v 0.250000 -0.000000 -0.500000
v 0.187500 2.750000 0.375000
v 0.375000 2.750000 -0.187500
v 0.187500 2.750000 -0.375000
v 0.250000 2.875000 0.499999
v 0.375000 2.750000 0.187500
v 0.250000 2.875000 -0.500000
v 0.250000 3.000000 0.499999
v 0.250000 3.000000 -0.500001
v 0.500000 3.000000 -0.250001
v 0.500000 3.000000 0.249999
v 0.187500 2.750000 -0.187500
v 0.187500 2.750000 0.187500
v 0.500000 0.125000 0.250000
v 0.500000 0.125000 -0.250000
v 0.375000 0.250000 -0.187500
v 0.375000 0.250000 0.187500
v 0.500000 0.000000 0.250000
v 0.500000 -0.000000 -0.250000
v 0.187500 0.250000 0.187500
v 0.187500 0.250000 -0.187500
vt 0.048340 0.086426
vt 0.000000 0.042969
vt 0.048340 0.000000
vt 0.937012 0.000000
vt 0.896484 0.495605
vt 0.896484 0.000000
vt 0.021484 0.048340
vt 0.474121 0.000000
vt 0.452637 0.048340
vt 0.978027 0.000000
vt 1.000000 0.495605
vt 0.978027 0.495605
vt 0.937012 0.495605
vt 0.453125 0.112793
vt 0.021484 0.048340
vt 0.453125 0.048340
vt 0.855469 0.000000
vt 0.833496 0.495605
vt 0.833496 0.000000
vt 0.064453 0.000000
vt 0.021484 0.048340
vt -0.000000 0.000000
vt 0.000000 0.021484
vt 0.345215 0.000000
vt 0.345215 0.021484
vt 0.042969 0.064453
vt 0.050293 0.000000
vt 0.107910 0.064453
vt 0.452637 0.112793
vt 0.021484 0.112793
vt 0.064453 0.064453
vt 0.000000 0.057617
vt 0.064453 0.000000
vt 0.000000 0.107910
vt 0.394043 0.000000
vt 0.329102 0.064453
vt 0.199707 0.064453
vt 0.000000 0.000000
vt 0.474609 0.000000
vt 0.301758 0.069824
vt 0.000000 0.021484
vt 0.042969 0.069824
vt 0.042969 0.069824
vt 0.301758 0.069824
vt 0.000000 0.000000
vt 0.344727 0.021484
vt 0.344727 0.000000
vt 0.000000 0.064941
vt 0.000000 0.000000
vt 0.064453 0.000000
vt 0.855469 0.495605
vt 0.107910 0.048340
vt 0.000000 0.016113
vt 0.016113 0.107910
vt 0.135254 0.064453
vt 0.135254 0.000000
vt 0.394043 0.064453
vt 0.193848 0.000000
vt 0.258789 0.000000
vt 0.258789 0.064941
vt 0.068848 0.017578
vt 0.034180 0.056152
vt 0.000000 0.017578
vt 0.069336 0.017578
vt 0.034668 0.056641
vt 0.000000 0.017578
vt 0.079102 0.099121
vt 0.394531 0.051758
vt 0.394531 0.099121
vt 0.432129 0.107910
vt 0.085938 0.056152
vt 0.432129 0.056152
vt 0.086914 0.109375
vt 0.435547 0.056641
vt 0.435547 0.109375
vt 0.000000 0.064453
vt 0.064453 0.000000
vt 0.064453 0.064453
vt 0.453125 0.017578
vt 0.017578 0.056152
vt 0.381348 0.017090
vt 0.364258 0.056152
vt 0.079102 0.051758
vt 0.410645 0.016113
vt 0.000000 0.000000
vt 0.020508 0.000000
vt 0.025391 0.088867
vt 0.000000 0.006348
vt 0.000000 0.080566
vt 0.064453 0.073730
vt 0.048340 0.124023
vt 0.031738 0.051758
vt 0.062988 0.016113
vt 0.017578 0.107910
vt 0.014160 0.000000
vt 0.000000 0.016113
vt 0.381348 0.000000
vt 0.451172 0.017090
vt 0.416016 0.056152
vt 0.088867 0.073242
vt 0.000000 0.078125
vt 0.082520 0.052246
vt 0.026855 0.019043
vt 0.394531 0.064453
vt 0.459473 0.000000
vt 0.459473 0.064453
vt 0.473633 0.016113
vt 0.410645 0.000000
vt 0.473633 0.000000
vt 0.000000 0.000000
vt 0.062988 0.000000
vt 0.079590 0.026855
vt 0.045898 0.082520
vt 0.000000 0.000000
vt 0.064453 0.064453
vt 0.000000 0.064453
vt 0.441895 0.051758
vt 0.086914 0.056641
vt 0.000000 0.000000
vt 0.000000 0.016113
vt 0.088867 0.000000
vt 0.098633 0.088867
vt 0.259277 0.000000
vt 0.324219 0.064941
vt 0.259277 0.064941
vt 0.140625 0.434082
vt 0.054688 0.175293
vt 0.140625 0.088867
vt 0.000000 0.000000
vt 1.000000 0.000000
vt 0.021484 0.112793
vt 0.000000 0.000000
vt 0.085938 0.107910
vt 0.000000 0.000000
vt 0.449219 0.017578
vt 0.000000 0.017090
vt 0.069336 0.000000
vt 0.364258 0.107910
vt 0.078613 0.057617
vt 0.451172 0.000000
vt 0.006348 0.098633
vt 0.394531 0.000000
vt 0.064453 0.000000
vt 0.068848 0.000000
vt 0.324219 0.000000
vt 0.399414 0.088867
vt 0.399414 0.434082
vt 0.054688 0.434082
vt 0.054688 0.347656
vt 0.054688 0.088867
vn 0.0000 0.7071 0.7071
vn -1.0000 0.0000 0.0000
vn -0.8944 0.0000 0.4472
vn -0.9223 -0.0000 -0.3865
vn -0.9239 -0.0000 -0.3827
vn -0.9223 0.0000 0.3865
vn -0.0000 -0.7071 -0.7071
vn 0.0000 0.7071 -0.7071
vn 0.0000 -0.7071 0.7071
vn 0.0000 -1.0000 0.0000
vn -0.8944 -0.0000 -0.4472
vn -0.7071 0.7071 -0.0000
vn -0.7071 -0.7071 0.0000
vn -0.0000 1.0000 -0.0000
vn -0.9239 0.0000 0.3827
vn 0.7071 0.7071 -0.0000
vn -0.0000 -0.0000 -1.0000
vn 0.0000 0.0000 1.0000
vn 1.0000 0.0000 -0.0000
vn -0.4472 0.0000 0.8944
vn 0.8944 0.0000 0.4472
vn 0.8944 -0.0000 -0.4472
vn -0.4472 -0.0000 -0.8944
vn 0.7071 -0.7071 0.0000
usemtl None
s off
f 25/1/1 4/2/1 3/3/1
f 12/4/2 9/5/2 10/6/2
f 30/7/3 27/8/3 28/9/3
f 14/10/4 15/11/4 13/12/4
f 14/10/5 11/13/5 12/4/5
f 6/14/2 26/15/2 29/16/2
f 8/17/6 5/18/6 6/19/6
f 19/20/7 32/21/7 30/22/7
f 21/23/2 24/24/2 22/25/2
f 2/26/8 27/27/8 1/28/8
f 30/7/2 15/29/2 16/30/2
f 20/31/9 31/32/9 21/33/9
f 25/1/1 26/34/1 4/2/1
f 19/35/10 16/36/10 6/37/10
f 29/16/11 25/38/11 31/39/11
f 2/40/12 3/41/12 4/42/12
f 20/43/13 22/25/13 19/44/13
f 18/45/2 1/46/2 17/47/2
f 4/48/14 26/49/14 5/50/14
f 10/6/15 7/51/15 8/17/15
f 19/20/7 22/52/7 32/21/7
f 2/26/8 28/53/8 27/27/8
f 20/31/9 29/54/9 31/32/9
f 29/55/10 20/56/10 6/37/10
f 20/56/10 19/35/10 6/37/10
f 19/35/10 30/57/10 16/36/10
f 2/40/12 1/46/12 3/41/12
f 20/43/13 21/23/13 22/25/13
f 5/50/14 15/58/14 4/48/14
f 15/58/14 28/59/14 2/60/14
f 4/48/14 15/58/14 2/60/14
f 65/61/16 36/62/16 35/63/16
f 49/64/8 34/65/8 33/66/8
f 63/67/17 67/68/17 72/69/17
f 64/70/18 68/71/18 57/72/18
f 72/73/19 55/74/19 63/75/19
f 39/76/10 63/77/10 55/78/10
f 65/61/20 57/72/20 68/71/20
f 55/74/21 49/64/21 58/79/21
f 53/80/22 46/81/22 47/82/22
f 54/83/23 66/84/23 67/68/23
f 37/85/17 49/64/17 33/66/17
f 42/86/19 62/87/19 44/88/19
f 40/89/9 56/90/9 53/91/9
f 39/92/24 45/93/24 54/83/24
f 47/82/19 64/94/19 53/80/19
f 44/95/18 56/90/18 42/96/18
f 51/97/18 35/98/18 46/81/18
f 36/99/1 46/81/1 35/98/1
f 60/100/17 41/101/17 58/102/17
f 39/103/7 58/102/7 41/101/7
f 57/104/10 53/105/10 64/106/10
f 33/107/19 70/108/19 37/109/19
f 45/93/19 43/110/19 61/111/19
f 40/112/24 48/113/24 42/86/24
f 68/114/14 47/115/14 36/116/14
f 34/117/16 66/84/16 33/107/16
f 65/61/16 68/71/16 36/62/16
f 49/64/8 50/118/8 34/65/8
f 38/119/19 65/61/19 35/63/19
f 40/89/9 42/96/9 56/90/9
f 39/92/24 41/120/24 45/93/24
f 36/99/1 47/82/1 46/81/1
f 39/103/7 55/121/7 58/102/7
f 40/112/24 57/122/24 48/113/24
f 34/117/16 67/68/16 66/84/16
f 34/123/14 72/124/14 67/125/14
f 59/126/14 61/127/14 60/128/14
f 12/4/2 11/13/2 9/5/2
f 30/7/3 32/129/3 27/8/3
f 14/10/4 16/130/4 15/11/4
f 14/10/5 13/12/5 11/13/5
f 6/14/2 5/131/2 26/15/2
f 8/17/6 7/51/6 5/18/6
f 21/23/2 23/132/2 24/24/2
f 30/7/2 28/9/2 15/29/2
f 29/16/11 26/15/11 25/38/11
f 18/45/2 3/41/2 1/46/2
f 10/6/15 9/5/15 7/51/15
f 63/67/17 54/83/17 67/68/17
f 64/70/18 71/133/18 68/71/18
f 72/73/19 50/118/19 55/74/19
f 39/76/10 54/134/10 63/77/10
f 65/61/20 48/135/20 57/72/20
f 55/74/21 50/118/21 49/64/21
f 53/80/22 56/136/22 46/81/22
f 54/83/23 45/93/23 66/84/23
f 37/85/17 52/137/17 49/64/17
f 42/86/19 48/113/19 62/87/19
f 47/82/19 71/138/19 64/94/19
f 44/95/18 59/139/18 56/90/18
f 51/97/18 38/140/18 35/98/18
f 60/100/17 43/141/17 41/101/17
f 57/104/10 40/142/10 53/105/10
f 33/107/19 66/84/19 70/108/19
f 45/93/19 41/120/19 43/110/19
f 68/114/14 71/143/14 47/115/14
f 38/119/19 69/144/19 65/61/19
f 34/123/14 50/145/14 72/124/14
f 24/146/14 23/147/14 59/126/14
f 59/126/14 44/148/14 62/149/14
f 61/127/14 43/150/14 60/128/14
f 59/126/14 62/149/14 61/127/14
f 60/128/14 24/146/14 59/126/14
