# Blender v2.79 (sub 0) OBJ File: 'dungeon_005.blend'
# www.blender.org
mtllib dungeon_005_wall_1ts_001.mtl
o Cylinder.017_Cylinder.020
v -0.500000 0.125000 0.500000
v -0.247000 0.125000 0.250000
v 0.500000 0.125000 0.500000
v 0.250000 0.125000 0.250000
v 0.187500 0.125000 0.375000
v 0.187479 2.875000 0.375000
v -0.187500 0.125000 0.375000
v -0.187500 2.875000 0.375000
v -0.500000 0.000000 0.500000
v -0.247000 -0.000000 0.250000
v 0.500000 0.000000 0.500000
v 0.250000 -0.000000 0.250000
v -0.500000 2.875000 0.500000
v -0.500000 2.875000 -0.500000
v 0.500000 2.875000 -0.500000
v 0.500000 2.875000 0.500000
v -0.500000 3.000000 0.500000
v -0.500000 3.000000 -0.500000
v 0.500000 3.000000 -0.500000
v 0.500000 3.000000 0.500000
v -0.250000 0.125000 0.500000
v 0.250000 0.125000 0.500000
v 0.250000 2.875000 0.500000
v -0.250000 2.875000 0.500000
v 0.187479 0.125000 0.333336
v 0.187500 2.588936 -0.000000
v 0.187479 1.249258 0.333336
v 0.187479 2.478864 0.158261
v 0.187479 2.249519 0.247398
v -0.187521 0.125000 0.333336
v -0.187500 2.588936 -0.000000
v -0.187521 1.249258 0.333336
v -0.187521 2.478864 0.158261
v -0.187521 2.249519 0.247398
v 0.500000 0.125000 -0.500000
v 0.247000 0.125000 -0.250000
v -0.500000 0.125000 -0.500000
v -0.250000 0.125000 -0.250000
v -0.187500 0.125000 -0.375000
v -0.187479 2.875000 -0.375001
v 0.187500 0.125000 -0.375000
v 0.187500 2.875000 -0.375001
v 0.500000 -0.000000 -0.500000
v 0.247000 -0.000000 -0.250000
v -0.500000 -0.000000 -0.500000
v -0.250000 -0.000000 -0.250000
v 0.250000 0.125000 -0.500000
v -0.250000 0.125000 -0.500000
v -0.250000 2.875000 -0.500001
v 0.250000 2.875000 -0.500001
v -0.187479 0.125000 -0.333335
v -0.187479 1.249258 -0.333336
v -0.187479 2.478864 -0.158262
v -0.187479 2.249518 -0.247398
v 0.187521 0.125000 -0.333335
v 0.187521 1.249258 -0.333336
v 0.187521 2.478864 -0.158262
v 0.187521 2.249518 -0.247398
vt 0.218262 0.157227
vt 0.309570 0.235352
vt 0.218262 0.235352
vt 0.177734 0.312988
vt 0.075195 0.241699
vt 0.090332 0.226562
vt 0.218262 0.457520
vt 0.309570 0.320801
vt 0.309570 0.457520
vt 0.328613 0.284180
vt 0.350098 0.312988
vt 0.198730 0.269531
vt 0.328613 0.269531
vt 0.436523 0.226562
vt 0.176758 0.226562
vt 0.350098 0.226562
vt 0.303432 0.000242
vt 0.303439 0.476791
vt 0.288996 0.281967
vt 0.288999 0.476791
vt 0.259211 0.229447
vt 0.210989 0.190888
vt 0.109629 0.144573
vt 0.014648 0.476562
vt 0.000000 0.476562
vt 0.014648 0.281738
vt 0.000000 0.000000
vt 0.044434 0.229004
vt 0.092285 0.190430
vt 0.193848 0.144531
vt 0.344238 0.476562
vt 0.392578 0.000000
vt 0.392578 0.476562
vt 0.218262 0.320801
vt 0.309570 0.278320
vt 0.350098 0.334473
vt 0.452148 0.241699
vt 0.173828 0.000000
vt 0.125488 0.476562
vt 0.125488 0.000000
vt 0.218262 0.278320
vt 0.198242 0.284180
vt 0.309570 0.157227
vt 0.162598 0.328613
vt 0.344238 0.000000
vt 0.177734 0.334473
vt 0.365234 0.328125
vt 0.173828 0.476562
vt 0.435059 0.333984
vt 0.088379 0.312500
vt 0.435059 0.312500
vt 0.198730 0.269531
vt 0.177734 0.312988
vt 0.090332 0.226562
vt 0.350098 0.312988
vt 0.328613 0.269531
vt 0.436523 0.226562
vt 0.430176 0.210938
vt 0.125488 0.000000
vt 0.176758 0.226562
vt 0.350098 0.226562
vt 0.303432 0.000242
vt 0.303439 0.476791
vt 0.288996 0.281967
vt 0.288999 0.476791
vt 0.259211 0.229447
vt 0.210989 0.190888
vt 0.109629 0.144573
vt 0.014648 0.476562
vt 0.000000 0.476562
vt 0.014648 0.281738
vt 0.000000 0.000000
vt 0.044434 0.229004
vt 0.092285 0.190430
vt 0.193848 0.144531
vt 0.218262 0.278320
vt 0.309570 0.235352
vt 0.309570 0.278320
vt 0.218262 0.457520
vt 0.309570 0.320801
vt 0.309570 0.457520
vt 0.350098 0.334473
vt 0.328613 0.284180
vt 0.365234 0.328125
vt 0.435059 0.425781
vt 0.088379 0.079102
vt 0.435059 0.079102
vt 0.392578 0.000000
vt 0.162598 0.328613
vt 0.075195 0.241699
vt 0.218262 0.320801
vt 0.198242 0.284180
vt 0.083496 0.210938
vt 0.430176 0.189453
vt 0.392578 0.476562
vt 0.344238 0.000000
vt 0.173828 0.000000
vt 0.125488 0.476562
vt 0.218262 0.157227
vt 0.309570 0.157227
vt 0.088379 0.333984
vt 0.218262 0.235352
vt 0.177734 0.334473
vt 0.452148 0.241699
vt 0.088379 0.425781
vt 0.083496 0.189453
vt 0.344238 0.476562
vt 0.173828 0.476562
vt 0.000000 0.000000
vn 0.0000 -0.8210 0.5710
vn 0.7029 0.0000 0.7113
vn 0.0000 0.0000 1.0000
vn 0.0000 1.0000 0.0000
vn -1.0000 0.0000 0.0003
vn -1.0000 0.0000 0.0005
vn -1.0000 0.0000 0.0000
vn -1.0000 -0.0001 -0.0001
vn 1.0000 -0.0000 -0.0005
vn 1.0000 0.0000 -0.0001
vn 1.0000 0.0001 0.0001
vn 0.8944 0.0000 0.4472
vn 0.0000 -0.0856 0.9963
vn -0.7071 0.0000 0.7071
vn -0.8944 0.0000 0.4473
vn 0.0000 -0.3623 0.9321
vn -0.8944 0.0000 0.4472
vn 0.0000 -1.0000 0.0000
vn 1.0000 0.0000 -0.0003
vn 1.0000 0.0000 0.0000
vn 1.0000 -0.0001 0.0001
vn -1.0000 0.0000 0.0001
vn -1.0000 0.0001 -0.0001
vn 0.0000 -0.3623 -0.9321
vn 0.0000 0.0000 -1.0000
vn 0.7071 0.0000 -0.7071
vn -0.7029 0.0000 -0.7113
vn 0.0000 -0.0856 -0.9963
vn -0.8944 0.0000 -0.4472
vn 0.8944 0.0000 -0.4473
vn 0.0000 -0.8210 -0.5710
vn 0.8944 0.0000 -0.4472
usemtl None
s off
f 26/1/1 53/2/1 57/3/1
f 36/4/2 43/5/2 35/6/2
f 55/7/3 52/8/3 51/9/3
f 36/4/4 51/10/4 38/11/4
f 41/12/4 36/4/4 35/6/4
f 38/11/4 39/13/4 37/14/4
f 35/6/4 47/15/4 41/12/4
f 39/13/4 48/16/4 37/14/4
f 40/17/5 39/18/5 52/19/5
f 39/18/6 51/20/6 52/19/6
f 40/17/7 52/19/7 54/21/7
f 40/17/7 54/21/7 53/22/7
f 40/17/8 53/22/8 31/23/8
f 55/24/9 41/25/9 56/26/9
f 41/25/9 42/27/9 56/26/9
f 58/28/10 56/26/10 42/27/10
f 57/29/10 58/28/10 42/27/10
f 26/30/11 57/29/11 42/27/11
f 47/31/12 42/32/12 41/33/12
f 56/34/13 54/35/13 52/8/13
f 46/36/3 36/4/3 38/11/3
f 45/37/14 38/11/14 37/14/14
f 49/38/15 39/39/15 40/40/15
f 58/41/16 53/2/16 54/35/16
f 41/12/4 55/42/4 36/4/4
f 38/11/4 51/10/4 39/13/4
f 26/1/1 31/43/1 53/2/1
f 36/4/2 44/44/2 43/5/2
f 55/7/3 56/34/3 52/8/3
f 36/4/4 55/42/4 51/10/4
f 47/31/12 50/45/12 42/32/12
f 56/34/13 58/41/13 54/35/13
f 46/36/3 44/46/3 36/4/3
f 45/37/14 46/47/14 38/11/14
f 49/38/17 48/48/17 39/39/17
f 58/41/16 57/3/16 53/2/16
usemtl None_dungeon_wall_2_001_d.png.008
f 17/49/7 14/50/7 13/51/7
f 7/52/4 2/53/4 1/54/4
f 4/55/4 5/56/4 3/57/4
f 42/32/18 16/58/18 6/59/18
f 1/54/4 21/60/4 7/52/4
f 5/56/4 22/61/4 3/57/4
f 6/62/19 5/63/19 27/64/19
f 5/63/9 25/65/9 27/64/9
f 6/62/20 27/64/20 29/66/20
f 6/62/20 29/66/20 28/67/20
f 6/62/21 28/67/21 26/68/21
f 30/69/6 7/70/6 32/71/6
f 7/70/6 8/72/6 32/71/6
f 34/73/22 32/71/22 8/72/22
f 33/74/22 34/73/22 8/72/22
f 31/75/23 33/74/23 8/72/23
f 34/76/24 28/77/24 29/78/24
f 30/79/25 27/80/25 25/81/25
f 12/82/25 2/53/25 4/55/25
f 2/53/4 25/83/4 4/55/4
f 3/57/26 12/84/26 4/55/26
f 20/85/4 18/86/4 17/87/4
f 8/88/7 40/40/7 31/23/7
f 1/54/27 10/89/27 9/90/27
f 32/91/28 29/78/28 27/80/28
f 7/52/4 30/92/4 2/53/4
f 4/55/4 25/83/4 5/56/4
f 15/93/20 20/94/20 16/58/20
f 6/62/20 26/68/20 42/27/20
f 7/95/29 24/96/29 8/88/29
f 23/97/30 5/98/30 6/59/30
f 28/77/31 31/99/31 26/100/31
f 17/49/7 18/101/7 14/50/7
f 42/32/18 50/45/18 15/93/18
f 15/93/18 16/58/18 42/32/18
f 16/58/18 23/97/18 6/59/18
f 34/76/24 33/102/24 28/77/24
f 30/79/25 32/91/25 27/80/25
f 12/82/25 10/103/25 2/53/25
f 2/53/4 30/92/4 25/83/4
f 3/57/26 11/104/26 12/84/26
f 20/85/4 19/105/4 18/86/4
f 1/54/27 2/53/27 10/89/27
f 32/91/28 34/76/28 29/78/28
f 15/93/20 19/106/20 20/94/20
f 7/95/29 21/107/29 24/96/29
f 23/97/32 22/108/32 5/98/32
f 28/77/31 33/102/31 31/99/31
usemtl None_NONE
f 13/51/18 14/109/18 8/88/18
f 49/38/18 40/40/18 14/109/18
f 40/40/18 8/88/18 14/109/18
f 8/88/18 24/96/18 13/51/18
