# Blender v2.79 (sub 0) OBJ File: 'dungeon_005.blend'
# www.blender.org
mtllib dungeon_005_wall_3td_002.mtl
o Cylinder.001
v -0.500000 0.125000 1.500000
v -0.500000 0.125000 -1.500000
v 0.500000 0.125000 1.500000
v 0.500000 0.125000 -1.500000
v 0.187500 0.125000 1.375000
v 0.187479 2.875000 1.375000
v -0.187500 0.125000 1.375000
v -0.187500 2.875000 1.375000
v -0.500000 -0.000000 1.500000
v -0.500000 -0.000000 -1.500000
v 0.500000 -0.000000 1.500000
v 0.500000 -0.000000 -1.500000
v -0.500000 2.875000 1.500000
v -0.500000 2.875000 -1.500000
v 0.500000 2.875000 -1.500000
v 0.500000 2.875000 1.500000
v -0.500000 3.000000 1.500000
v -0.500000 3.000000 -1.500000
v 0.500000 3.000000 -1.500000
v 0.500000 3.000000 1.500000
v 0.250000 0.125000 -1.500000
v -0.250000 0.125000 -1.500000
v -0.187500 0.125000 -1.375000
v 0.187500 0.125000 -1.375000
v -0.250000 0.125000 1.500000
v 0.250000 0.125000 1.500000
v -0.187500 2.875000 -1.375000
v 0.187500 2.875000 -1.375000
v -0.250000 2.875000 -1.500000
v 0.250000 2.875000 -1.500000
v 0.250000 2.875000 1.500000
v -0.250000 2.875000 1.500000
v 0.187479 0.125000 -1.031250
v 0.187479 0.125000 1.031250
v 0.187479 2.516840 0.000000
v 0.187479 1.249258 -1.031250
v 0.187479 2.042128 -0.687500
v 0.187479 2.379589 -0.343750
v 0.187479 2.379589 0.343750
v 0.187479 2.042128 0.687500
v 0.187479 1.249258 1.031250
v 0.187479 1.774849 0.859375
v 0.187479 2.241120 0.515625
v 0.187479 2.467947 0.171875
v 0.187479 2.467947 -0.171875
v 0.187479 2.241120 -0.515625
v 0.187479 1.774849 -0.859375
v 0.187479 1.552339 0.945312
v 0.187479 1.552339 -0.945313
v -0.187521 0.125000 -1.031250
v -0.187521 0.125000 1.031250
v -0.187521 2.516840 0.000000
v -0.187521 1.249258 -1.031250
v -0.187521 2.042128 -0.687500
v -0.187521 2.379589 -0.343750
v -0.187521 2.379589 0.343750
v -0.187521 2.042128 0.687500
v -0.187521 1.249258 1.031250
v -0.187521 1.774849 0.859375
v -0.187521 2.241120 0.515625
v -0.187521 2.467947 0.171875
v -0.187521 2.467947 -0.171875
v -0.187521 2.241120 -0.515625
v -0.187521 1.774849 -0.859375
v -0.187521 1.552339 0.945312
v -0.187521 1.552339 -0.945313
v 0.087479 0.125000 -1.031250
v 0.087479 0.125000 1.031250
v 0.087479 2.516840 0.000000
v 0.087479 1.249258 -1.031250
v 0.087479 2.042128 -0.687500
v 0.087479 2.379589 -0.343750
v 0.087479 2.379589 0.343750
v 0.087479 2.042128 0.687500
v 0.087479 1.249258 1.031250
v 0.087479 1.774849 0.859375
v 0.087479 2.241120 0.515625
v 0.087479 2.467947 0.171875
v 0.087479 2.467947 -0.171875
v 0.087479 2.241120 -0.515625
v 0.087479 1.774849 -0.859375
v 0.087479 1.552339 0.945312
v 0.087479 1.552339 -0.945313
v -0.087521 0.125000 -1.031250
v -0.087521 0.125000 1.031250
v -0.087521 2.516840 0.000000
v -0.087521 1.249258 -1.031250
v -0.087521 2.042128 -0.687500
v -0.087521 2.379589 -0.343750
v -0.087521 2.379589 0.343750
v -0.087521 2.042128 0.687500
v -0.087521 1.249258 1.031250
v -0.087521 1.774849 0.859375
v -0.087521 2.241120 0.515625
v -0.087521 2.467947 0.171875
v -0.087521 2.467947 -0.171875
v -0.087521 2.241120 -0.515625
v -0.087521 1.774849 -0.859375
v -0.087521 1.552339 0.945312
v -0.087521 1.552339 -0.945313
vt 0.153320 0.437012
vt 0.153320 0.339355
vt 0.170898 0.339355
vt 0.153320 0.212402
vt 0.153320 0.180176
vt 0.170898 0.180176
vt 0.454102 0.179199
vt 0.473633 0.189453
vt 0.473633 0.228516
vt 0.000000 0.168945
vt 0.019531 0.119629
vt 0.454102 0.119629
vt 0.473633 0.069824
vt 0.454102 0.119141
vt 0.019531 0.119141
vt 0.019531 0.179199
vt 0.019531 0.059082
vt 0.000000 0.049316
vt 0.000000 0.009766
vt 0.078125 0.119141
vt 0.078125 0.357910
vt 0.054199 0.357910
vt 0.473633 0.009766
vt 0.454102 0.059082
vt 0.000000 0.228516
vt 0.473633 0.238770
vt 0.127930 0.357910
vt 0.104004 0.357910
vt 0.104004 0.119141
vt 0.473633 0.168945
vt 0.473633 0.178711
vt 0.000000 0.178711
vt 0.239195 0.031488
vt 0.000384 0.000302
vt 0.478028 0.000466
vt 0.000000 0.000000
vt 0.477539 0.000000
vt 0.238770 0.031250
vt 0.489258 0.479492
vt 0.000000 0.479492
vt 0.000000 0.316406
vt 0.575195 0.474609
vt 0.694824 0.278809
vt 0.814453 0.278809
vt 0.103027 0.357910
vt 0.079102 0.357910
vt 0.079102 0.119141
vt 0.069336 0.267578
vt 0.427246 0.267578
vt 0.427246 0.285156
vt 0.069336 0.285645
vt 0.427246 0.285645
vt 0.427246 0.303223
vt 0.191406 0.181641
vt 0.191406 0.213867
vt 0.174316 0.213867
vt 0.191406 0.286133
vt 0.191406 0.310547
vt 0.174316 0.310547
vt 0.191406 0.121094
vt 0.191406 0.150879
vt 0.174316 0.150879
vt 0.191406 0.248535
vt 0.174316 0.248535
vt 0.192383 0.150879
vt 0.192383 0.121094
vt 0.209473 0.121094
vt 0.174316 0.181641
vt 0.192383 0.213867
vt 0.192383 0.181641
vt 0.209473 0.181641
vt 0.209473 0.150879
vt 0.192383 0.286133
vt 0.192383 0.248535
vt 0.209473 0.248535
vt 0.209473 0.213867
vt 0.192383 0.438477
vt 0.192383 0.340820
vt 0.209473 0.340820
vt 0.192383 0.310547
vt 0.209473 0.286133
vt 0.191406 0.340820
vt 0.174316 0.340820
vt 0.174316 0.286133
vt 0.209473 0.310547
vt 0.191406 0.438477
vt 0.174316 0.438477
vt 0.153320 0.149414
vt 0.153320 0.119141
vt 0.170898 0.119141
vt 0.153320 0.247070
vt 0.170898 0.212402
vt 0.227539 0.121094
vt 0.227539 0.150879
vt 0.209961 0.150879
vt 0.170898 0.149414
vt 0.227539 0.181641
vt 0.227539 0.213867
vt 0.209961 0.213867
vt 0.209961 0.181641
vt 0.227539 0.248535
vt 0.227539 0.286133
vt 0.209961 0.286133
vt 0.209961 0.248535
vt 0.227539 0.340820
vt 0.227539 0.438477
vt 0.209961 0.438477
vt 0.227539 0.310547
vt 0.209961 0.310547
vt 0.153320 0.309082
vt 0.170898 0.309082
vt 0.153320 0.284668
vt 0.170898 0.247070
vt 0.209961 0.340820
vt 0.000000 0.069824
vt 0.000000 0.059570
vt 0.874023 0.308105
vt 0.918457 0.350586
vt 0.933594 0.474609
vt 0.477946 0.239288
vt 0.418275 0.141632
vt 0.418241 0.239267
vt 0.060007 0.239145
vt 0.000302 0.239124
vt 0.060041 0.141509
vt 0.403357 0.115306
vt 0.388438 0.095977
vt 0.074977 0.115193
vt 0.089910 0.095875
vt 0.358593 0.072755
vt 0.328746 0.055464
vt 0.119770 0.072673
vt 0.149629 0.055402
vt 0.298898 0.043428
vt 0.269047 0.035745
vt 0.179486 0.043387
vt 0.209341 0.035724
vt 0.059570 0.238770
vt 0.000000 0.238770
vt 0.059570 0.141113
vt 0.477539 0.238770
vt 0.417969 0.141113
vt 0.417969 0.238770
vt 0.074707 0.114746
vt 0.402832 0.114746
vt 0.387695 0.095703
vt 0.089355 0.095703
vt 0.119141 0.072266
vt 0.357910 0.072266
vt 0.328125 0.055176
vt 0.148926 0.055176
vt 0.179199 0.042969
vt 0.298340 0.042969
vt 0.268555 0.035645
vt 0.208984 0.035645
vt 0.170898 0.284668
vt 0.152832 0.357910
vt 0.128906 0.119141
vt 0.152832 0.119141
vt 0.473633 0.060059
vt 0.813965 0.195801
vt 0.575195 0.000000
vt 0.933594 0.000000
vt 0.000000 0.189453
vt 0.694824 0.195801
vt 0.000000 0.238770
vt 0.473633 0.000000
vt 0.000000 0.000000
vt 0.473633 0.049316
vt 0.054199 0.119141
vt 0.473633 0.109375
vt 0.000000 0.109375
vt 0.000000 0.129395
vt 0.473633 0.129395
vt 0.127930 0.119141
vt 0.170898 0.437012
vt 0.209961 0.121094
vt 0.209473 0.438477
vt 0.174316 0.121094
vt 0.069336 0.303223
vt 0.069336 0.285156
vt 0.103027 0.119141
vt 0.590332 0.124023
vt 0.575195 0.097656
vt 0.933594 0.097656
vt 0.918457 0.124023
vt 0.874023 0.166504
vt 0.903809 0.143066
vt 0.844238 0.183594
vt 0.784180 0.203613
vt 0.754395 0.207520
vt 0.724609 0.203613
vt 0.665039 0.183594
vt 0.635254 0.166504
vt 0.604980 0.143066
vt 0.575195 0.376953
vt 0.590332 0.350586
vt 0.605469 0.331543
vt 0.635254 0.308105
vt 0.665039 0.291016
vt 0.724609 0.270996
vt 0.784180 0.270996
vt 0.754395 0.267090
vt 0.844238 0.291016
vt 0.903809 0.331543
vt 0.933594 0.376953
vt 0.128906 0.357910
vt 0.489258 0.316406
vn 0.0000 0.0000 1.0000
vn 0.0000 -0.7787 0.6274
vn 0.0000 -1.0000 0.0000
vn 0.0000 1.0000 0.0000
vn 0.8944 0.0000 -0.4472
vn -1.0000 0.0000 0.0000
vn -0.8944 0.0000 -0.4472
vn 1.0000 0.0000 0.0000
vn -1.0000 0.0001 0.0000
vn 0.8944 -0.0000 0.4472
vn 0.0000 -0.3603 0.9328
vn 0.0000 -0.9618 0.2736
vn 0.0000 -0.6537 0.7568
vn 0.0000 -0.9618 -0.2736
vn 0.0000 -0.8894 0.4572
vn 0.0000 -0.7787 -0.6274
vn 0.0000 -0.8894 -0.4572
vn 0.0000 -0.5409 -0.8411
vn 0.0000 -0.6537 -0.7568
vn 0.0000 0.0000 -1.0000
vn 0.0000 -0.3603 -0.9328
vn 0.0000 -0.2728 0.9621
vn 0.0000 -0.5409 0.8411
vn 0.0000 -0.2728 -0.9621
vn 1.0000 0.0000 -0.0001
vn 1.0000 0.0000 0.0001
vn -1.0000 0.0000 0.0001
vn -1.0000 0.0000 -0.0001
vn -0.8944 -0.0000 0.4472
vn 0.8944 0.0000 -0.4473
usemtl None
s off
f 33/1/1 36/2/1 70/3/1
f 46/4/2 38/5/2 72/6/2
f 8/7/3 32/8/3 13/9/3
f 4/10/4 24/11/4 5/12/4
f 1/13/4 7/14/4 23/15/4
f 27/16/3 8/7/3 13/9/3
f 28/17/3 30/18/3 15/19/3
f 31/20/5 26/21/5 5/22/5
f 16/23/3 6/24/3 28/17/3
f 14/25/6 13/9/6 17/26/6
f 7/27/7 25/28/7 32/29/7
f 3/30/8 11/31/8 12/32/8
f 35/33/8 28/34/8 6/35/8
f 8/36/9 27/37/9 52/38/9
f 20/39/4 19/40/4 18/41/4
f 67/42/8 72/43/8 73/44/8
f 24/45/10 21/46/10 30/47/10
f 67/48/4 68/49/4 34/50/4
f 50/51/4 51/52/4 85/53/4
f 55/54/2 63/55/2 97/56/2
f 64/57/11 66/58/11 100/59/11
f 52/60/12 62/61/12 96/62/12
f 63/55/13 54/63/13 88/64/13
f 61/65/14 52/66/14 86/67/14
f 62/61/15 55/54/15 89/68/15
f 60/69/16 56/70/16 90/71/16
f 56/70/17 61/65/17 95/72/17
f 59/73/18 57/74/18 91/75/18
f 57/74/19 60/69/19 94/76/19
f 51/77/20 58/78/20 92/79/20
f 65/80/21 59/73/21 93/81/21
f 66/58/22 53/82/22 87/83/22
f 54/63/23 64/57/23 98/84/23
f 58/78/24 65/80/24 99/85/24
f 53/82/1 50/86/1 84/87/1
f 45/88/12 35/89/12 69/90/12
f 37/91/13 46/4/13 80/92/13
f 35/93/14 44/94/14 78/95/14
f 38/5/15 45/88/15 79/96/15
f 39/97/16 43/98/16 77/99/16
f 44/94/17 39/97/17 73/100/17
f 40/101/18 42/102/18 76/103/18
f 43/98/19 40/101/19 74/104/19
f 41/105/20 34/106/20 68/107/20
f 42/102/21 48/108/21 82/109/21
f 36/2/22 49/110/22 83/111/22
f 47/112/23 37/91/23 71/113/23
f 48/108/24 41/105/24 75/114/24
f 1/13/6 2/115/6 10/116/6
f 74/117/8 82/118/8 68/119/8
f 6/35/8 5/120/8 41/121/8
f 5/120/25 34/122/25 41/121/25
f 33/123/26 24/124/26 36/125/26
f 24/124/26 28/34/26 36/125/26
f 6/35/8 41/121/8 48/126/8
f 6/35/8 48/126/8 42/127/8
f 49/128/8 36/125/8 28/34/8
f 47/129/8 49/128/8 28/34/8
f 6/35/8 42/127/8 40/130/8
f 6/35/8 40/130/8 43/131/8
f 37/132/8 47/129/8 28/34/8
f 46/133/8 37/132/8 28/34/8
f 6/35/8 43/131/8 39/134/8
f 6/35/8 39/134/8 44/135/8
f 38/136/8 46/133/8 28/34/8
f 45/137/8 38/136/8 28/34/8
f 6/35/8 44/135/8 35/33/8
f 35/33/8 45/137/8 28/34/8
f 51/138/27 7/139/27 58/140/27
f 7/139/27 8/36/27 58/140/27
f 27/37/28 23/141/28 53/142/28
f 23/141/28 50/143/28 53/142/28
f 65/144/6 58/140/6 8/36/6
f 27/37/6 53/142/6 66/145/6
f 27/37/6 66/145/6 64/146/6
f 59/147/6 65/144/6 8/36/6
f 57/148/6 59/147/6 8/36/6
f 27/37/6 64/146/6 54/149/6
f 27/37/6 54/149/6 63/150/6
f 60/151/6 57/148/6 8/36/6
f 56/152/6 60/151/6 8/36/6
f 27/37/6 63/150/6 55/153/6
f 27/37/6 55/153/6 62/154/6
f 61/155/6 56/152/6 8/36/6
f 27/37/6 62/154/6 52/38/6
f 52/38/6 61/155/6 8/36/6
f 49/110/11 81/156/11 83/111/11
f 22/157/29 27/158/29 29/159/29
f 1/13/6 10/116/6 9/160/6
f 90/161/6 84/162/6 85/163/6
f 14/25/3 29/164/3 27/16/3
f 90/161/6 89/165/6 84/162/6
f 14/25/6 17/26/6 18/166/6
f 16/23/3 28/17/3 15/19/3
f 20/167/8 15/19/8 19/168/8
f 1/13/4 23/15/4 2/115/4
f 16/23/3 31/169/3 6/24/3
f 20/167/8 16/23/8 15/19/8
f 31/20/30 5/22/30 6/170/30
f 1/13/4 25/171/4 7/14/4
f 4/10/4 5/12/4 3/30/4
f 23/15/4 22/172/4 2/115/4
f 4/10/4 21/173/4 24/11/4
f 27/16/3 13/9/3 14/25/3
f 5/12/4 26/174/4 3/30/4
f 3/30/8 12/32/8 4/10/8
f 7/27/7 32/29/7 8/175/7
f 46/4/2 72/6/2 80/92/2
f 33/1/1 70/3/1 67/176/1
f 48/108/24 75/114/24 82/109/24
f 47/112/23 71/113/23 81/156/23
f 36/2/22 83/111/22 70/3/22
f 42/102/21 82/109/21 76/103/21
f 41/105/20 68/107/20 75/114/20
f 43/98/19 74/104/19 77/99/19
f 40/101/18 76/103/18 74/104/18
f 44/94/17 73/100/17 78/95/17
f 39/97/16 77/99/16 73/100/16
f 38/5/15 79/96/15 72/6/15
f 35/93/14 78/95/14 69/177/14
f 37/91/13 80/92/13 71/113/13
f 45/88/12 69/90/12 79/96/12
f 53/82/1 84/87/1 87/83/1
f 58/78/24 99/85/24 92/79/24
f 54/63/23 98/84/23 88/64/23
f 66/58/22 87/83/22 100/59/22
f 65/80/21 93/81/21 99/85/21
f 51/77/20 92/79/20 85/178/20
f 57/74/19 94/76/19 91/75/19
f 59/73/18 91/75/18 93/81/18
f 56/70/17 95/72/17 90/71/17
f 60/69/16 90/71/16 94/76/16
f 62/61/15 89/68/15 96/62/15
f 61/65/14 86/67/14 95/72/14
f 63/55/13 88/64/13 97/56/13
f 52/60/12 96/62/12 86/179/12
f 64/57/11 100/59/11 98/84/11
f 55/54/2 97/56/2 89/68/2
f 50/51/4 85/53/4 84/180/4
f 67/48/4 34/50/4 33/181/4
f 24/45/10 30/47/10 28/182/10
f 100/183/6 87/184/6 84/162/6
f 67/42/8 73/44/8 68/119/8
f 85/163/6 92/185/6 99/186/6
f 91/187/6 99/186/6 93/188/6
f 85/163/6 99/186/6 91/187/6
f 91/187/6 94/189/6 85/163/6
f 94/189/6 90/161/6 85/163/6
f 90/161/6 95/190/6 89/165/6
f 95/190/6 86/191/6 96/192/6
f 96/192/6 89/165/6 95/190/6
f 89/165/6 97/193/6 84/162/6
f 97/193/6 88/194/6 84/162/6
f 88/194/6 98/195/6 100/183/6
f 84/162/6 88/194/6 100/183/6
f 67/42/8 70/196/8 83/197/8
f 83/197/8 81/198/8 71/199/8
f 71/199/8 80/200/8 67/42/8
f 80/200/8 72/43/8 67/42/8
f 72/43/8 79/201/8 78/202/8
f 79/201/8 69/203/8 78/202/8
f 78/202/8 73/44/8 72/43/8
f 73/44/8 77/204/8 68/119/8
f 77/204/8 74/117/8 68/119/8
f 74/117/8 76/205/8 82/118/8
f 82/118/8 75/206/8 68/119/8
f 49/110/11 47/112/11 81/156/11
f 67/42/8 83/197/8 71/199/8
f 22/157/29 23/207/29 27/158/29
f 20/39/4 18/41/4 17/208/4
