# Blender v2.79 (sub 0) OBJ File: 'dungeon_005.blend'
# www.blender.org
mtllib dungeon_005_wall_3td_001.mtl
o Cylinder.011_Cylinder.012
v -0.500000 0.125000 1.500000
v -0.500000 0.125000 -1.500000
v 0.500000 0.125000 1.500000
v 0.500000 0.125000 -1.500000
v 0.187500 0.125000 1.375000
v 0.187500 2.875000 1.375000
v -0.187500 0.125000 1.375000
v -0.187500 2.875000 1.375000
v -0.500000 0.000000 1.500000
v -0.500000 0.000000 -1.500000
v 0.500000 0.000000 1.500000
v 0.500000 0.000000 -1.500000
v -0.500000 2.875000 1.500000
v -0.500000 2.875000 -1.500000
v 0.500000 2.875000 -1.500000
v 0.500000 2.875000 1.500000
v -0.500000 3.000000 1.500000
v -0.500000 3.000000 -1.500000
v 0.500000 3.000000 -1.500000
v 0.500000 3.000000 1.500000
v 0.250000 0.125000 -1.500000
v -0.250000 0.125000 -1.500000
v -0.187500 0.125000 -1.375000
v 0.187500 0.125000 -1.375000
v -0.250000 0.125000 1.500000
v 0.250000 0.125000 1.500000
v -0.187500 2.875000 -1.375000
v 0.187500 2.875000 -1.375000
v -0.250000 2.875000 -1.500000
v 0.250000 2.875000 -1.500000
v 0.250000 2.875000 1.500000
v -0.250000 2.875000 1.500000
vt 0.015625 0.321289
vt 0.488770 0.163086
vt 0.488770 0.321289
vt 0.319824 0.366699
vt 0.287598 0.052734
vt 0.319824 0.052734
vt 0.508301 0.498047
vt 1.000000 0.000000
vt 1.000000 0.498047
vt 0.287109 0.052734
vt 0.255371 0.366699
vt 0.255371 0.052734
vt 0.471680 0.238770
vt 0.492676 0.249023
vt 0.492676 0.290039
vt 0.492676 0.310547
vt 0.000000 0.300293
vt 0.492676 0.300293
vt 0.254883 0.052734
vt 0.222656 0.366699
vt 0.222656 0.052734
vt 0.506836 0.000000
vt 0.998535 0.498047
vt 0.506836 0.498047
vt 0.222168 0.366699
vt 0.190430 0.052734
vt 0.222168 0.052734
vt 0.020508 0.361816
vt 0.000000 0.351562
vt 0.000000 0.310547
vt 0.492676 0.299805
vt 0.000000 0.290039
vt 0.000000 0.186523
vt 0.492676 0.186523
vt 0.471680 0.238281
vt 0.492676 0.166016
vt 0.000000 0.166016
vt 0.020508 0.114746
vt 0.492676 0.176758
vt 0.492676 0.176270
vt 0.015625 0.163086
vt 0.287598 0.366699
vt 0.508301 0.000000
vt 0.287109 0.366699
vt 0.000000 0.249023
vt 0.020508 0.238770
vt 0.254883 0.366699
vt 0.998535 0.000000
vt 0.190430 0.366699
vt 0.492676 0.351562
vt 0.471680 0.361816
vt 0.000000 0.299805
vt 0.492676 0.227539
vt 0.020508 0.238281
vt 0.000000 0.227539
vt 0.000000 0.125000
vt 0.471680 0.114746
vt 0.492676 0.125000
vt 0.000000 0.176758
vt 0.000000 0.176270
vn 0.0000 1.0000 0.0000
vn 0.8944 -0.0000 0.4472
vn -1.0000 0.0000 0.0000
vn -0.8944 -0.0000 0.4472
vn 0.0000 -1.0000 0.0000
vn 1.0000 0.0000 0.0000
vn 0.8944 0.0000 -0.4472
vn -0.8944 0.0000 -0.4472
usemtl None
s off
f 19/1/1 17/2/1 20/3/1
f 30/4/2 24/5/2 21/6/2
f 8/7/3 23/8/3 7/9/3
f 23/10/4 29/11/4 22/12/4
f 8/13/5 32/14/5 13/15/5
f 16/16/6 19/17/6 20/18/6
f 5/19/7 31/20/7 26/21/7
f 6/22/6 24/23/6 28/24/6
f 32/25/8 7/26/8 25/27/8
f 28/28/5 30/29/5 15/30/5
f 17/31/3 14/32/3 13/15/3
f 2/33/1 1/34/1 7/35/1
f 3/36/1 4/37/1 24/38/1
f 2/33/3 9/39/3 1/34/3
f 11/40/6 4/37/6 3/36/6
f 19/1/1 18/41/1 17/2/1
f 30/4/2 28/42/2 24/5/2
f 8/7/3 27/43/3 23/8/3
f 23/10/4 27/44/4 29/11/4
f 13/15/5 14/32/5 8/13/5
f 14/32/5 29/45/5 27/46/5
f 8/13/5 14/32/5 27/46/5
f 16/16/6 15/30/6 19/17/6
f 5/19/7 6/47/7 31/20/7
f 6/22/6 5/48/6 24/23/6
f 32/25/8 8/49/8 7/26/8
f 15/30/5 16/16/5 28/28/5
f 16/16/5 31/50/5 6/51/5
f 28/28/5 16/16/5 6/51/5
f 17/31/3 18/52/3 14/32/3
f 1/34/1 25/53/1 7/35/1
f 7/35/1 23/54/1 2/33/1
f 23/54/1 22/55/1 2/33/1
f 4/37/1 21/56/1 24/38/1
f 24/38/1 5/57/1 3/36/1
f 5/57/1 26/58/1 3/36/1
f 2/33/3 10/59/3 9/39/3
f 11/40/6 12/60/6 4/37/6
