# Blender v2.79 (sub 0) OBJ File: 'dungeon_005.blend'
# www.blender.org
mtllib dungeon_005_wall_1td_001.mtl
o Cylinder.008_Cylinder.009
v -0.500000 0.125000 0.500000
v -0.375000 0.250000 0.375000
v -0.500000 0.125000 -0.500000
v -0.375000 0.250000 -0.375000
v 0.500000 0.125000 0.500000
v 0.375000 0.250000 0.375000
v 0.500000 0.125000 -0.500000
v 0.375000 0.250000 -0.375000
v 0.187500 0.250000 -0.187500
v 0.187500 2.750000 -0.187500
v 0.207867 0.250000 -0.138893
v 0.207867 2.750000 -0.138893
v 0.245196 0.250000 -0.048773
v 0.245196 2.750000 -0.048772
v 0.245196 0.250000 0.048773
v 0.245196 2.750000 0.048773
v 0.207867 0.250000 0.138893
v 0.207867 2.750000 0.138893
v 0.187500 0.250000 0.187500
v 0.187500 2.750000 0.187500
v -0.187500 0.250000 0.187500
v -0.187500 2.750000 0.187500
v -0.207867 0.250000 0.138893
v -0.207867 2.750000 0.138893
v -0.245196 0.250000 0.048773
v -0.245196 2.750000 0.048773
v -0.245196 0.250000 -0.048773
v -0.245196 2.750000 -0.048773
v -0.207867 0.250000 -0.138893
v -0.207867 2.750000 -0.138893
v -0.187500 0.250000 -0.187500
v -0.187500 2.750000 -0.187500
v -0.500000 0.000000 0.500000
v -0.500000 -0.000000 -0.500000
v 0.500000 0.000000 0.500000
v 0.500000 -0.000000 -0.500000
v -0.375000 2.750000 0.375000
v -0.375000 2.750000 -0.375000
v 0.375000 2.750000 0.375000
v 0.375000 2.750000 -0.375000
v -0.500000 2.875000 0.500000
v -0.500000 2.875000 -0.500000
v 0.500000 2.875000 -0.500000
v 0.500000 2.875000 0.500000
v -0.500000 3.000000 0.500000
v -0.500000 3.000000 -0.500000
v 0.500000 3.000000 -0.500000
v 0.500000 3.000000 0.500000
v 0.250000 0.125000 -0.500000
v -0.250000 0.125000 -0.500000
v -0.187500 0.250000 -0.375000
v 0.187500 0.250000 -0.375000
v -0.250000 0.125000 0.500000
v 0.250000 0.125000 0.500000
v 0.187500 0.250000 0.375000
v -0.187500 0.250000 0.375000
v -0.187500 2.750000 -0.375000
v 0.187500 2.750000 -0.375000
v 0.187500 2.750000 0.375000
v -0.187500 2.750000 0.375000
v -0.250000 2.875000 -0.500000
v 0.250000 2.875000 -0.500000
v 0.250000 2.875000 0.500000
v -0.250000 2.875000 0.500000
vt 0.126953 0.096680
vt 0.072754 0.048340
vt 0.126953 0.000000
vt 0.121582 0.024414
vt 0.175781 0.072754
vt 0.121582 0.121094
vt 0.762207 0.000000
vt 0.783203 0.493652
vt 0.762207 0.493652
vt 0.783203 0.000000
vt 0.821777 0.493652
vt 0.821777 0.000000
vt 0.859863 0.493652
vt 0.859863 0.000000
vt 0.898926 0.493652
vt 0.898926 0.000000
vt 0.919434 0.493652
vt 0.604004 0.493652
vt 0.624512 0.000000
vt 0.624512 0.493652
vt 0.663574 0.493652
vt 0.663574 0.000000
vt 0.701660 0.493652
vt 0.701660 0.000000
vt 0.740234 0.493652
vt 0.740234 0.000000
vt 0.761230 0.493652
vt 0.476562 0.000000
vt 0.021973 0.048340
vt 0.000000 0.000000
vt 0.072754 0.000000
vt 0.024414 0.054199
vt 0.000000 0.000000
vt 0.169922 0.054199
vt 0.218750 0.000000
vt 0.242676 0.054199
vt 0.455078 0.113281
vt 0.455078 0.048340
vt 0.463379 0.049805
vt 0.000000 0.000000
vt 0.485352 0.000000
vt 0.048340 0.121094
vt 0.056641 0.048828
vt 0.121094 0.121094
vt 0.000000 0.024414
vt 0.387207 0.000000
vt 0.387207 0.024414
vt 0.072754 0.000000
vt 0.064453 0.072266
vt 0.000000 0.000000
vt 0.022461 0.116211
vt 0.463379 0.116211
vt 0.072266 0.072754
vt 0.000000 0.064453
vt 0.072266 0.000000
vt 0.072754 0.121094
vt 0.145996 0.048340
vt 0.218262 0.056641
vt 0.145996 0.121094
vt 0.442383 0.046875
vt 0.000000 0.000000
vt 0.463867 0.000000
vt 0.020996 0.046875
vt 0.442383 0.110352
vt 0.020996 0.110352
vt 0.338867 0.078125
vt 0.000000 0.024414
vt 0.387207 0.024414
vt 0.000000 0.023926
vt 0.387207 0.000000
vt 0.000000 0.000000
vt 0.072754 0.072754
vt 0.000000 0.072754
vt 0.000000 0.000000
vt 0.000000 0.072754
vt 0.000000 0.000000
vt 0.072754 0.000000
vt 0.290527 0.000000
vt 0.217773 0.072754
vt 0.072754 0.072754
vt 0.476562 0.000000
vt 0.021973 0.048828
vt 0.000000 0.000000
vt 0.455078 0.048828
vt 0.021973 0.113281
vt 0.338379 0.078125
vt 0.000000 0.023926
vt 0.048340 0.078125
vt 0.048340 0.078125
vt 0.387207 0.023926
vt 0.048340 0.078125
vt 0.338867 0.078125
vt 0.387207 0.000000
vt 0.441406 0.438965
vt 0.054688 0.052246
vt 0.441406 0.052246
vt 0.000000 0.072754
vt 0.000000 0.000000
vt 0.072754 0.000000
vt 0.387207 0.000000
vt 0.387207 0.023926
vt 0.175781 0.000000
vt 0.919434 0.000000
vt 0.604004 0.000000
vt 0.761230 0.000000
vt 0.121094 0.054199
vt 0.121582 0.000000
vt 0.021973 0.113281
vt 0.022461 0.049805
vt 0.000000 0.066895
vt 0.000000 0.000000
vt 0.121094 0.054199
vt 0.018066 0.121094
vt 0.200195 0.000000
vt 0.048340 0.078125
vt 0.290527 0.000000
vt 0.217773 0.072754
vt 0.290527 0.072754
vt 0.217773 0.000000
vt 0.290527 0.000000
vt 0.290527 0.072754
vt 0.000000 0.072754
vt 0.000000 0.000000
vt 0.290527 0.072754
vt 0.455078 0.113281
vt 0.338867 0.078125
vt 0.000000 0.000000
vt 0.054688 0.438965
vt 0.217773 0.000000
vt 0.290527 0.000000
vt 0.290527 0.072754
vt 0.000000 0.000000
vn 0.0000 0.7071 -0.7071
vn 0.0000 0.7071 0.7071
vn 0.9223 0.0000 -0.3865
vn 0.9239 0.0000 -0.3827
vn 1.0000 0.0000 0.0000
vn 0.9239 -0.0000 0.3827
vn 0.9223 0.0000 0.3865
vn -0.9223 0.0000 0.3865
vn -0.9239 0.0000 0.3827
vn -1.0000 -0.0000 -0.0000
vn -0.9239 -0.0000 -0.3827
vn -0.9223 0.0000 -0.3865
vn 0.8944 0.0000 0.4472
vn 0.0000 -0.7071 0.7071
vn 0.0000 -0.7071 -0.7071
vn -0.8944 0.0000 0.4472
vn 0.8944 0.0000 -0.4472
vn -0.7071 0.7071 0.0000
vn 0.0000 1.0000 0.0000
vn 0.0000 -1.0000 0.0000
vn -0.8944 0.0000 -0.4472
vn 0.7071 0.7071 0.0000
vn -0.7071 -0.7071 0.0000
vn 0.7071 -0.7071 0.0000
usemtl None
s off
f 49/1/1 8/2/1 7/3/1
f 53/4/2 2/5/2 1/6/2
f 10/7/3 11/8/3 9/9/3
f 12/10/4 13/11/4 11/8/4
f 14/12/5 15/13/5 13/11/5
f 16/14/6 17/15/6 15/13/6
f 18/16/7 19/17/7 17/15/7
f 21/18/8 24/19/8 23/20/8
f 24/19/9 25/21/9 23/20/9
f 26/22/10 27/23/10 25/21/10
f 28/24/11 29/25/11 27/23/11
f 30/26/12 31/27/12 29/25/12
f 62/28/13 52/29/13 49/30/13
f 39/31/14 63/32/14 59/33/14
f 38/34/15 61/35/15 57/36/15
f 10/37/5 52/29/5 58/38/5
f 51/39/16 61/40/16 50/41/16
f 6/42/2 54/43/2 5/44/2
f 43/45/5 48/46/5 44/47/5
f 4/48/1 50/49/1 3/50/1
f 32/51/10 51/39/10 31/52/10
f 40/53/15 62/54/15 43/55/15
f 49/1/1 52/56/1 8/2/1
f 37/57/14 64/58/14 41/59/14
f 55/60/17 63/61/17 54/62/17
f 59/63/5 19/64/5 20/65/5
f 2/66/18 3/67/18 1/68/18
f 42/69/10 45/70/10 46/71/10
f 31/72/19 51/73/19 4/74/19
f 38/75/20 57/76/20 32/77/20
f 39/78/20 20/79/20 10/80/20
f 64/81/21 56/82/21 53/83/21
f 60/84/10 21/85/10 56/82/10
f 6/86/22 7/87/22 8/88/22
f 38/89/23 41/90/23 42/69/23
f 40/91/24 44/47/24 39/92/24
f 3/67/10 33/93/10 1/68/10
f 47/94/19 45/95/19 48/96/19
f 8/97/19 52/98/19 9/99/19
f 35/100/5 7/87/5 5/101/5
f 53/4/2 56/102/2 2/5/2
f 10/7/3 12/10/3 11/8/3
f 12/10/4 14/12/4 13/11/4
f 14/12/5 16/14/5 15/13/5
f 16/14/6 18/16/6 17/15/6
f 18/16/7 20/103/7 19/17/7
f 21/18/8 22/104/8 24/19/8
f 24/19/9 26/22/9 25/21/9
f 26/22/10 28/24/10 27/23/10
f 28/24/11 30/26/11 29/25/11
f 30/26/12 32/105/12 31/27/12
f 62/28/13 58/38/13 52/29/13
f 39/31/14 44/106/14 63/32/14
f 38/34/15 42/107/15 61/35/15
f 10/37/5 9/108/5 52/29/5
f 51/39/16 57/109/16 61/40/16
f 6/42/2 55/110/2 54/43/2
f 43/45/5 47/111/5 48/46/5
f 4/48/1 51/112/1 50/49/1
f 32/51/10 57/109/10 51/39/10
f 40/53/15 58/113/15 62/54/15
f 37/57/14 60/114/14 64/58/14
f 55/60/17 59/63/17 63/61/17
f 59/63/5 55/60/5 19/64/5
f 2/66/18 4/115/18 3/67/18
f 42/69/10 41/90/10 45/70/10
f 4/74/19 2/116/19 21/117/19
f 2/116/19 56/118/19 21/117/19
f 21/117/19 31/72/19 4/74/19
f 32/77/20 22/119/20 38/75/20
f 22/119/20 60/120/20 37/121/20
f 38/75/20 22/119/20 37/121/20
f 58/122/20 40/123/20 10/80/20
f 40/123/20 39/78/20 10/80/20
f 39/78/20 59/124/20 20/79/20
f 64/81/21 60/84/21 56/82/21
f 60/84/10 22/125/10 21/85/10
f 6/86/22 5/101/22 7/87/22
f 38/89/23 37/126/23 41/90/23
f 40/91/24 43/45/24 44/47/24
f 3/67/10 34/127/10 33/93/10
f 47/94/19 46/128/19 45/95/19
f 9/99/19 19/129/19 8/97/19
f 19/129/19 55/130/19 6/131/19
f 8/97/19 19/129/19 6/131/19
f 35/100/5 36/132/5 7/87/5
