# Blender v2.79 (sub 0) OBJ File: 'dungeon_005.blend'
# www.blender.org
mtllib dungeon_005_wall_2td_002.mtl
o Cylinder.006_Cylinder.014
v -0.500000 0.125000 -0.500000
v -0.375000 0.250000 -0.500000
v -0.500000 0.125000 -1.500000
v -0.375000 0.250000 -1.375000
v 0.500000 0.125000 -0.500000
v 0.375000 0.250000 -0.500000
v 0.500000 0.125000 -1.500000
v 0.375000 0.250000 -1.375000
v 0.187500 0.250000 -1.187500
v 0.187500 2.750000 -1.187500
v 0.207867 0.250000 -1.138893
v 0.207867 2.750000 -1.138893
v 0.245196 0.250000 -1.048773
v 0.245196 2.750000 -1.048772
v 0.245196 0.250000 -0.951227
v 0.245196 2.750000 -0.951227
v 0.207867 0.250000 -0.861107
v 0.207867 2.750000 -0.861107
v 0.187500 0.250000 -0.812500
v 0.187500 2.750000 -0.812500
v -0.187500 0.250000 -0.812500
v -0.187500 2.750000 -0.812500
v -0.207867 0.250000 -0.861107
v -0.207867 2.750000 -0.861107
v -0.245196 0.250000 -0.951227
v -0.245196 2.750000 -0.951227
v -0.245196 0.250000 -1.048773
v -0.245196 2.750000 -1.048773
v -0.207867 0.250000 -1.138893
v -0.207867 2.750000 -1.138893
v -0.187500 0.250000 -1.187500
v -0.187500 2.750000 -1.187500
v -0.500000 0.000000 -0.500000
v -0.500000 -0.000000 -1.500000
v 0.500000 0.000000 -0.500000
v 0.500000 -0.000000 -1.500000
v -0.375000 2.750000 -0.500000
v -0.375000 2.750000 -1.375000
v 0.375000 2.750000 -0.500000
v 0.375000 2.750000 -1.375000
v -0.500000 2.875000 -0.500000
v -0.500000 2.875000 -1.500000
v 0.500000 2.875000 -1.500000
v 0.500000 2.875000 -0.500000
v -0.500000 3.000000 -0.500000
v -0.500000 3.000000 -1.500000
v 0.500000 3.000000 -1.500000
v 0.500000 3.000000 -0.500000
v 0.250000 0.125000 -1.500000
v -0.250000 0.125000 -1.500000
v -0.187500 0.250000 -1.375000
v 0.187500 0.250000 -1.375000
v 0.187500 0.250000 -0.500000
v -0.187500 0.250000 -0.500000
v -0.187500 2.750000 -1.375000
v 0.187500 2.750000 -1.375000
v 0.187500 2.750000 -0.500000
v -0.187500 2.750000 -0.500000
v -0.250000 2.875000 -1.500000
v 0.250000 2.875000 -1.500000
v -0.500000 0.125000 0.500000
v -0.375000 0.250000 0.375000
v -0.500000 0.125000 -0.500000
v 0.500000 0.125000 0.500000
v 0.375000 0.250000 0.375000
v 0.500000 0.125000 -0.500000
v 0.187500 0.250000 -0.187500
v 0.187500 2.750000 -0.187500
v 0.207867 0.250000 -0.138893
v 0.207867 2.750000 -0.138893
v 0.245196 0.250000 -0.048773
v 0.245196 2.750000 -0.048772
v 0.245196 0.250000 0.048773
v 0.245196 2.750000 0.048773
v 0.207867 0.250000 0.138893
v 0.207867 2.750000 0.138893
v 0.187500 0.250000 0.187500
v 0.187500 2.750000 0.187500
v -0.187500 0.250000 0.187500
v -0.187500 2.750000 0.187500
v -0.207867 0.250000 0.138893
v -0.207867 2.750000 0.138893
v -0.245196 0.250000 0.048773
v -0.245196 2.750000 0.048773
v -0.245196 0.250000 -0.048773
v -0.245196 2.750000 -0.048773
v -0.207867 0.250000 -0.138893
v -0.207867 2.750000 -0.138893
v -0.187500 0.250000 -0.187500
v -0.187500 2.750000 -0.187500
v -0.500000 0.000000 0.500000
v -0.500000 0.000000 -0.500000
v 0.500000 0.000000 0.500000
v 0.500000 0.000000 -0.500000
v -0.375000 2.750000 0.375000
v 0.375000 2.750000 0.375000
v -0.500000 2.875000 0.500000
v -0.500000 2.875000 -0.500000
v 0.500000 2.875000 -0.500000
v 0.500000 2.875000 0.500000
v -0.500000 3.000000 0.500000
v -0.500000 3.000000 -0.500000
v 0.500000 3.000000 -0.500000
v 0.500000 3.000000 0.500000
v -0.250000 0.125000 0.500000
v 0.250000 0.125000 0.500000
v 0.187500 0.250000 0.375000
v -0.187500 0.250000 0.375000
v 0.187500 2.750000 0.375000
v -0.187500 2.750000 0.375000
v 0.250000 2.875000 0.500000
v -0.250000 2.875000 0.500000
vt 0.783203 0.000000
vt 0.762207 0.493652
vt 0.762207 0.000000
vt 0.821777 0.000000
vt 0.783203 0.493652
vt 0.898926 0.000000
vt 0.859863 0.493652
vt 0.859863 0.000000
vt 0.663574 0.000000
vt 0.624512 0.493652
vt 0.624512 0.000000
vt 0.740234 0.000000
vt 0.701660 0.493652
vt 0.701660 0.000000
vt 0.442383 0.046875
vt 0.000000 0.000000
vt 0.463867 0.000000
vt 0.663574 0.493652
vt 0.054688 0.438965
vt 0.441406 0.052246
vt 0.441406 0.438965
vt 0.000000 0.000000
vt 0.387207 0.024414
vt 0.000000 0.024414
vt 0.121582 0.024414
vt 0.175781 0.072754
vt 0.121582 0.121094
vt 0.761230 0.000000
vt 0.740234 0.493652
vt 0.821777 0.493652
vt 0.604004 0.000000
vt 0.604004 0.493652
vt 0.919434 0.493652
vt 0.898926 0.493652
vt 0.455078 0.113281
vt 0.021973 0.048340
vt 0.455078 0.048340
vt 0.072754 0.000000
vt 0.024414 0.054199
vt 0.000000 0.000000
vt 0.022461 0.116211
vt 0.463379 0.049805
vt 0.463379 0.116211
vt 0.048340 0.121094
vt 0.056641 0.048828
vt 0.121094 0.121094
vt 0.000000 0.023926
vt 0.387207 0.000000
vt 0.000000 0.000000
vt 0.020996 0.046875
vt 0.442383 0.110352
vt 0.020996 0.110352
vt 0.145996 0.048340
vt 0.218262 0.056641
vt 0.145996 0.121094
vt 0.476562 0.000000
vt 0.021973 0.048828
vt 0.000000 0.000000
vt 0.455078 0.048828
vt 0.021973 0.113281
vt 0.338867 0.078125
vt 0.072754 0.072754
vt 0.000000 0.072754
vt 0.000000 0.000000
vt 0.000000 0.072754
vt 0.000000 0.000000
vt 0.072754 0.000000
vt 0.290527 0.000000
vt 0.217773 0.072754
vt 0.072754 0.072754
vt 0.338379 0.078125
vt 0.000000 0.023926
vt 0.048340 0.078125
vt 0.048340 0.078125
vt 0.387207 0.023926
vt 0.048340 0.078125
vt 0.387207 0.024414
vt 0.338867 0.078125
vt 0.000000 0.000000
vt 0.387207 0.023926
vt 0.387207 0.000000
vt 0.000000 0.072754
vt 0.000000 0.000000
vt 0.072754 0.000000
vt 0.000000 0.000000
vt 0.000000 0.024414
vt 0.175781 0.000000
vt 0.121094 0.054199
vt 0.000000 0.066895
vt 0.200195 0.000000
vt 0.048340 0.078125
vt 0.290527 0.000000
vt 0.217773 0.072754
vt 0.290527 0.072754
vt 0.217773 0.000000
vt 0.290527 0.000000
vt 0.290527 0.072754
vt 0.000000 0.072754
vt 0.000000 0.000000
vt 0.290527 0.072754
vt 0.338867 0.078125
vt 0.217773 0.000000
vt 0.290527 0.000000
vt 0.290527 0.072754
vt 0.054688 0.052246
vt 0.387207 0.000000
vt 0.761230 0.493652
vt 0.919434 0.000000
vt 0.021973 0.113281
vt 0.022461 0.049805
vt 0.455078 0.113281
vt 0.387207 0.000000
vt 0.126953 0.096680
vt 0.072754 0.048340
vt 0.126953 0.000000
vt 0.859863 0.000000
vt 0.821777 0.493652
vt 0.821777 0.000000
vt 0.898926 0.000000
vt 0.919434 0.493652
vt 0.898926 0.493652
vt 0.455078 0.113281
vt 0.021973 0.048340
vt 0.455078 0.048340
vt 0.783203 0.000000
vt 0.762207 0.493652
vt 0.762207 0.000000
vt 0.022461 0.049805
vt 0.485352 0.000000
vt 0.463379 0.049805
vt 0.169922 0.054199
vt 0.218750 0.000000
vt 0.242676 0.054199
vt 0.000000 0.024414
vt 0.387207 0.000000
vt 0.387207 0.024414
vt 0.022461 0.116211
vt 0.463379 0.116211
vt 0.072754 0.000000
vt 0.064453 0.072266
vt 0.000000 0.000000
vt 0.020996 0.046875
vt 0.442383 0.110352
vt 0.020996 0.110352
vt 0.072266 0.072754
vt 0.000000 0.064453
vt 0.072266 0.000000
vt 0.072754 0.121094
vt 0.000000 0.023926
vt 0.387207 0.000000
vt 0.000000 0.000000
vt 0.338867 0.078125
vt 0.000000 0.024414
vt 0.387207 0.024414
vt 0.455078 0.048828
vt 0.021973 0.113281
vt 0.021973 0.048828
vt 0.072754 0.072754
vt 0.000000 0.072754
vt 0.000000 0.000000
vt 0.000000 0.072754
vt 0.000000 0.000000
vt 0.072754 0.000000
vt 0.290527 0.000000
vt 0.217773 0.072754
vt 0.072754 0.072754
vt 0.338379 0.078125
vt 0.000000 0.023926
vt 0.048340 0.078125
vt 0.048340 0.078125
vt 0.387207 0.023926
vt 0.048340 0.078125
vt 0.338867 0.078125
vt 0.000000 0.000000
vt 0.387207 0.023926
vt 0.387207 0.000000
vt 0.000000 0.072754
vt 0.000000 0.000000
vt 0.072754 0.000000
vt 0.121582 0.000000
vt 0.121094 0.054199
vt 0.018066 0.121094
vt 0.048340 0.078125
vt 0.290527 0.000000
vt 0.217773 0.072754
vt 0.290527 0.072754
vt 0.217773 0.000000
vt 0.290527 0.000000
vt 0.290527 0.072754
vt 0.000000 0.072754
vt 0.000000 0.000000
vt 0.290527 0.072754
vt 0.338867 0.078125
vt 0.217773 0.000000
vt 0.290527 0.000000
vt 0.290527 0.072754
vt 0.663574 0.000000
vt 0.701660 0.493652
vt 0.663574 0.493652
vt 0.604004 0.493652
vt 0.624512 0.000000
vt 0.624512 0.493652
vt 0.859863 0.493652
vt 0.701660 0.000000
vt 0.740234 0.493652
vt 0.783203 0.493652
vt 0.000000 0.000000
vt 0.476562 0.000000
vt 0.761230 0.000000
vt 0.740234 0.000000
vt 0.000000 0.000000
vt 0.054688 0.438965
vt 0.441406 0.052246
vt 0.441406 0.438965
vt 0.919434 0.000000
vt 0.021973 0.113281
vt 0.000000 0.000000
vt 0.000000 0.000000
vt 0.442383 0.046875
vt 0.455078 0.113281
vt 0.604004 0.000000
vt 0.761230 0.493652
vt 0.387207 0.000000
vt 0.054688 0.052246
vn 0.9223 0.0000 -0.3865
vn 0.9239 0.0000 -0.3827
vn 0.9239 -0.0000 0.3827
vn -0.9239 0.0000 0.3827
vn -0.9239 -0.0000 -0.3827
vn 0.8944 0.0000 -0.4472
vn -1.0000 0.0000 -0.0000
vn 0.0000 1.0000 0.0000
vn 0.0000 0.7071 0.7071
vn -0.9223 0.0000 -0.3865
vn 1.0000 0.0000 0.0000
vn -0.9223 0.0000 0.3865
vn 0.9223 0.0000 0.3865
vn 0.0000 -0.7071 0.7071
vn -0.8944 0.0000 -0.4472
vn -0.7071 0.7071 -0.0000
vn 0.0000 -1.0000 0.0000
vn 0.7071 0.7071 0.0000
vn -0.7071 -0.7071 0.0000
vn 0.7071 -0.7071 0.0000
vn 0.0000 0.7071 -0.7071
vn -0.8944 0.0000 0.4472
vn 0.0000 -0.7071 -0.7071
vn 0.8944 0.0000 0.4472
usemtl None
s off
f 70/1/1 67/2/1 68/3/1
f 72/4/2 69/5/2 70/1/2
f 76/6/3 73/7/3 74/8/3
f 84/9/4 81/10/4 82/11/4
f 88/12/5 85/13/5 86/14/5
f 107/15/6 111/16/6 106/17/6
f 84/9/7 85/13/7 83/18/7
f 102/19/8 104/20/8 103/21/8
f 92/22/7 61/23/7 63/24/7
f 105/25/9 62/26/9 61/27/9
f 90/28/10 87/29/10 88/12/10
f 74/8/11 71/30/11 72/4/11
f 80/31/12 81/10/12 79/32/12
f 76/6/13 77/33/13 75/34/13
f 68/35/11 53/36/11 57/37/11
f 96/38/14 111/39/14 109/40/14
f 90/41/7 54/42/7 89/43/7
f 65/44/9 106/45/9 64/46/9
f 98/47/7 101/48/7 102/49/7
f 109/50/11 77/51/11 78/52/11
f 95/53/14 112/54/14 97/55/14
f 112/56/15 108/57/15 105/58/15
f 110/59/7 79/60/7 108/57/7
f 62/61/16 63/24/16 61/23/16
f 89/62/8 54/63/8 2/64/8
f 37/65/17 58/66/17 90/67/17
f 96/68/17 78/69/17 68/70/17
f 65/71/18 66/72/18 6/73/18
f 37/74/19 97/75/19 98/47/19
f 39/76/20 100/77/20 96/78/20
f 94/79/11 64/80/11 93/81/11
f 6/82/8 53/83/8 67/84/8
f 103/85/11 100/77/11 99/86/11
f 105/25/9 108/87/9 62/26/9
f 96/38/14 100/88/14 111/39/14
f 65/44/9 107/89/9 106/45/9
f 95/53/14 110/90/14 112/54/14
f 62/61/16 2/91/16 63/24/16
f 2/64/8 62/92/8 79/93/8
f 62/92/8 108/94/8 79/93/8
f 79/93/8 89/62/8 2/64/8
f 90/67/17 80/95/17 37/65/17
f 80/95/17 110/96/17 95/97/17
f 37/65/17 80/95/17 95/97/17
f 57/98/17 39/99/17 68/70/17
f 39/99/17 96/68/17 68/70/17
f 96/68/17 109/100/17 78/69/17
f 65/71/18 64/80/18 66/72/18
f 37/74/19 95/101/19 97/75/19
f 39/76/20 99/86/20 100/77/20
f 67/84/8 77/102/8 6/82/8
f 77/102/8 107/103/8 65/104/8
f 6/82/8 77/102/8 65/104/8
f 70/1/1 69/5/1 67/2/1
f 72/4/2 71/30/2 69/5/2
f 76/6/3 75/34/3 73/7/3
f 84/9/4 83/18/4 81/10/4
f 88/12/5 87/29/5 85/13/5
f 107/15/6 109/50/6 111/16/6
f 84/9/7 86/14/7 85/13/7
f 102/19/8 101/105/8 104/20/8
f 92/22/7 91/106/7 61/23/7
f 90/28/10 89/107/10 87/29/10
f 74/8/11 73/7/11 71/30/11
f 80/31/12 82/11/12 81/10/12
f 76/6/13 78/108/13 77/33/13
f 68/35/11 67/109/11 53/36/11
f 90/41/7 58/110/7 54/42/7
f 98/47/7 97/75/7 101/48/7
f 109/50/11 107/15/11 77/51/11
f 112/56/15 110/59/15 108/57/15
f 110/59/7 80/111/7 79/60/7
f 94/79/11 66/72/11 64/80/11
f 103/85/11 104/112/11 100/77/11
usemtl None_dungeon_wall_2_001_d.png.002
f 49/113/21 8/114/21 7/115/21
f 16/116/11 13/117/11 14/118/11
f 18/119/13 19/120/13 17/121/13
f 10/122/11 52/123/11 56/124/11
f 12/125/1 9/126/1 10/127/1
f 55/128/22 50/129/22 51/130/22
f 38/131/23 59/132/23 55/133/23
f 43/134/11 48/135/11 44/136/11
f 32/137/7 51/130/7 31/138/7
f 4/139/21 50/140/21 3/141/21
f 57/142/11 19/143/11 20/144/11
f 40/145/23 60/146/23 43/147/23
f 49/113/21 52/148/21 8/114/21
f 42/149/7 45/150/7 46/151/7
f 2/152/16 3/153/16 1/154/16
f 58/155/7 21/156/7 54/157/7
f 31/158/8 51/159/8 4/160/8
f 38/161/17 55/162/17 32/163/17
f 39/164/17 20/165/17 10/166/17
f 6/167/18 7/168/18 8/169/18
f 38/170/19 41/171/19 42/149/19
f 40/172/20 44/136/20 39/173/20
f 36/174/11 5/175/11 35/176/11
f 8/177/8 52/178/8 9/179/8
f 38/131/23 42/180/23 59/132/23
f 4/139/21 51/181/21 50/140/21
f 40/145/23 56/182/23 60/146/23
f 2/152/16 4/183/16 3/153/16
f 4/160/8 2/184/8 21/185/8
f 2/184/8 54/186/8 21/185/8
f 21/185/8 31/158/8 4/160/8
f 32/163/17 22/187/17 38/161/17
f 22/187/17 58/188/17 37/189/17
f 38/161/17 22/187/17 37/189/17
f 56/190/17 40/191/17 10/166/17
f 40/191/17 39/164/17 10/166/17
f 39/164/17 57/192/17 20/165/17
f 6/167/18 5/175/18 7/168/18
f 38/170/19 37/193/19 41/171/19
f 40/172/20 43/134/20 44/136/20
f 9/179/8 19/194/8 8/177/8
f 19/194/8 53/195/8 6/196/8
f 8/177/8 19/194/8 6/196/8
f 26/197/7 27/198/7 25/199/7
f 21/200/12 24/201/12 23/202/12
f 18/119/3 15/203/3 16/116/3
f 24/201/4 25/199/4 23/202/4
f 28/204/5 29/205/5 27/198/5
f 14/118/2 11/206/2 12/125/2
f 56/124/24 49/207/24 60/208/24
f 32/209/10 29/205/10 30/210/10
f 34/211/7 1/154/7 3/153/7
f 46/212/8 48/213/8 47/214/8
f 16/116/11 15/203/11 13/117/11
f 18/119/13 20/215/13 19/120/13
f 10/122/11 9/216/11 52/123/11
f 12/125/1 11/206/1 9/126/1
f 55/128/22 59/217/22 50/129/22
f 43/134/11 47/218/11 48/135/11
f 32/137/7 55/128/7 51/130/7
f 57/142/11 53/219/11 19/143/11
f 42/149/7 41/171/7 45/150/7
f 58/155/7 22/220/7 21/156/7
f 36/174/11 7/168/11 5/175/11
f 26/197/7 28/204/7 27/198/7
f 21/200/12 22/221/12 24/201/12
f 18/119/3 17/121/3 15/203/3
f 24/201/4 26/197/4 25/199/4
f 28/204/5 30/210/5 29/205/5
f 14/118/2 13/117/2 11/206/2
f 56/124/24 52/123/24 49/207/24
f 32/209/10 31/222/10 29/205/10
f 34/211/7 33/223/7 1/154/7
f 46/212/8 45/224/8 48/213/8
