# Blender v2.79 (sub 0) OBJ File: 'dungeon_005.blend'
# www.blender.org
mtllib dungeon_005_wall_1tl_001.mtl
o Cylinder.015_Cylinder.017
v -0.500000 0.125000 0.500000
v -0.247000 0.125000 0.250000
v 0.500000 0.125000 0.500000
v 0.250000 0.125000 0.250000
v 0.187500 0.125000 0.375000
v 0.187479 2.875000 0.375000
v -0.187500 0.125000 0.375000
v -0.187500 2.875000 0.375000
v -0.500000 0.000000 0.500000
v -0.247000 -0.000000 0.250000
v 0.500000 0.000000 0.500000
v 0.250000 -0.000000 0.250000
v -0.500000 2.875000 0.500000
v -0.500000 2.875000 -0.500000
v 0.500000 2.875000 -0.500000
v 0.500000 2.875000 0.500000
v -0.500000 3.000000 0.500000
v -0.500000 3.000000 -0.500000
v 0.500000 3.000000 -0.500000
v 0.500000 3.000000 0.500000
v -0.250000 0.125000 0.500000
v 0.250000 0.125000 0.500000
v -0.187500 2.875000 -0.499805
v 0.187500 2.875000 -0.499805
v 0.250000 2.875000 0.500000
v -0.250000 2.875000 0.500000
v 0.187479 0.125000 0.333336
v 0.187500 2.245000 -0.499805
v 0.187479 2.042128 -0.184192
v 0.187479 1.249258 0.333336
v 0.187479 1.774849 0.108261
v 0.187479 1.552339 0.247398
v -0.187521 0.125000 0.333336
v -0.187500 2.245000 -0.499805
v -0.187521 2.042128 -0.184192
v -0.187521 1.249258 0.333336
v -0.187521 1.774849 0.108261
v -0.187521 1.552339 0.247398
vt 0.391602 0.204102
vt 0.435059 0.225586
vt 0.435059 0.312500
vt 0.000243 0.109419
vt 0.000242 0.000246
vt 0.303432 0.000242
vt 0.000000 0.000000
vt 0.303223 0.000000
vt 0.303223 0.109375
vt 0.430176 0.189453
vt 0.083496 0.210938
vt 0.083496 0.189453
vt 0.198730 0.269531
vt 0.177734 0.312988
vt 0.090332 0.226562
vt 0.350098 0.312988
vt 0.328613 0.269531
vt 0.436523 0.226562
vt 0.430176 0.210938
vt 0.430176 0.297852
vt 0.386719 0.319336
vt 0.176758 0.226562
vt 0.350098 0.226562
vt 0.303439 0.476791
vt 0.288996 0.281967
vt 0.288999 0.476791
vt 0.259211 0.229447
vt 0.210989 0.190888
vt 0.109629 0.144573
vt 0.014648 0.476562
vt 0.000000 0.476562
vt 0.014648 0.281738
vt 0.044434 0.229004
vt 0.092285 0.190430
vt 0.193848 0.144531
vt 0.309570 0.320801
vt 0.218262 0.278320
vt 0.309570 0.278320
vt 0.218262 0.235352
vt 0.309570 0.235352
vt 0.309570 0.457520
vt 0.218262 0.320801
vt 0.309570 0.157227
vt 0.218262 0.076660
vt 0.309570 0.076660
vt 0.218262 0.157227
vt 0.109375 0.251465
vt 0.456055 0.251465
vt 0.347656 0.272949
vt 0.392578 0.476562
vt 0.344238 0.000000
vt 0.392578 0.000000
vt 0.088379 0.312500
vt 0.435059 0.333984
vt 0.088379 0.333984
vt 0.173828 0.000000
vt 0.125488 0.476562
vt 0.125488 0.000000
vt 0.162598 0.328613
vt 0.075195 0.241699
vt 0.365234 0.328125
vt 0.088379 0.425781
vt 0.435059 0.079102
vt 0.435059 0.425781
vt 0.083496 0.319336
vt 0.177734 0.334473
vt 0.328613 0.284180
vt 0.309570 0.000000
vt 0.218262 0.000000
vt 0.198242 0.284180
vt 0.218262 0.457520
vt 0.456055 0.272949
vt 0.217773 0.272949
vt 0.109375 0.272949
vt 0.344238 0.476562
vt 0.088379 0.204102
vt 0.173828 0.476562
vt 0.452148 0.241699
vt 0.088379 0.079102
vt 0.350098 0.334473
vn 0.0000 -1.0000 0.0000
vn 1.0000 0.0000 0.0000
vn -1.0000 0.0000 0.0000
vn -0.0000 1.0000 -0.0000
vn 1.0000 0.0000 -0.0003
vn 1.0000 0.0000 -0.0005
vn -1.0000 0.0000 0.0005
vn 0.0000 -0.2728 -0.9621
vn 0.0000 -0.5302 -0.8479
vn 0.0000 0.0000 -1.0000
vn 0.0000 -0.8412 -0.5407
vn 0.0000 -0.7382 -0.6746
vn 0.0000 -0.0016 -1.0000
vn -0.8944 0.0000 -0.4472
vn 0.8944 0.0000 -0.4473
vn -0.7029 0.0000 -0.7113
vn 0.7071 0.0000 -0.7071
vn -0.0006 -0.0000 -1.0000
vn 0.0006 -0.0000 -1.0000
vn 0.8944 0.0000 -0.4472
usemtl None
s off
f 8/1/1 26/2/1 13/3/1
f 28/4/2 24/5/2 6/6/2
f 8/7/3 23/8/3 34/9/3
f 20/10/2 15/11/2 19/12/2
f 7/13/4 2/14/4 1/15/4
f 4/16/4 5/17/4 3/18/4
f 16/19/1 25/20/1 6/21/1
f 1/15/4 21/22/4 7/13/4
f 5/17/4 22/23/4 3/18/4
f 6/6/5 5/24/5 30/25/5
f 5/24/6 27/26/6 30/25/6
f 6/6/2 30/25/2 32/27/2
f 6/6/2 32/27/2 31/28/2
f 6/6/2 31/28/2 29/29/2
f 6/6/2 29/29/2 28/4/2
f 33/30/7 7/31/7 36/32/7
f 7/31/7 8/7/7 36/32/7
f 38/33/3 36/32/3 8/7/3
f 37/34/3 38/33/3 8/7/3
f 35/35/3 37/34/3 8/7/3
f 34/9/3 35/35/3 8/7/3
f 30/36/8 38/37/8 32/38/8
f 32/38/9 37/39/9 31/40/9
f 27/41/10 36/42/10 30/36/10
f 29/43/11 34/44/11 28/45/11
f 31/40/12 35/46/12 29/43/12
f 18/47/13 19/48/13 24/49/13
f 7/50/14 26/51/14 8/52/14
f 14/53/3 17/54/3 18/55/3
f 14/53/1 8/1/1 13/3/1
f 25/56/15 5/57/15 6/58/15
f 1/15/16 10/59/16 9/60/16
f 3/18/17 12/61/17 4/16/17
f 19/62/4 17/63/4 20/64/4
f 15/11/1 6/21/1 24/65/1
f 4/16/10 10/66/10 2/14/10
f 2/14/4 27/67/4 4/16/4
f 24/68/10 34/44/10 23/69/10
f 20/10/2 16/19/2 15/11/2
f 7/13/4 33/70/4 2/14/4
f 4/16/4 27/67/4 5/17/4
f 30/36/8 36/42/8 38/37/8
f 32/38/9 38/37/9 37/39/9
f 27/41/10 33/71/10 36/42/10
f 29/43/11 35/46/11 34/44/11
f 31/40/12 37/39/12 35/46/12
f 19/48/18 15/72/18 24/49/18
f 24/49/13 23/73/13 18/47/13
f 23/73/19 14/74/19 18/47/19
f 7/50/14 21/75/14 26/51/14
f 14/53/3 13/3/3 17/54/3
f 14/53/1 23/76/1 8/1/1
f 25/56/20 22/77/20 5/57/20
f 1/15/16 2/14/16 10/59/16
f 3/18/17 11/78/17 12/61/17
f 19/62/4 18/79/4 17/63/4
f 15/11/1 16/19/1 6/21/1
f 4/16/10 12/80/10 10/66/10
f 2/14/4 33/70/4 27/67/4
f 24/68/10 28/45/10 34/44/10
