# Blender v2.79 (sub 0) OBJ File: 'dungeon_005.blend'
# www.blender.org
mtllib dungeon_005_wall_1tp_001.mtl
o Cylinder
v -0.500000 0.125000 0.500000
v -0.375000 0.250000 0.375000
v -0.500000 0.125000 -0.500000
v -0.375000 0.250000 -0.375000
v 0.500000 0.125000 0.500000
v 0.375000 0.250000 0.375000
v 0.500000 0.125000 -0.500000
v 0.375000 0.250000 -0.375000
v -0.048773 0.250000 -0.245196
v -0.048773 2.750000 -0.245196
v 0.048773 0.250000 -0.245196
v 0.048773 2.750000 -0.245196
v 0.138893 0.250000 -0.207867
v 0.138893 2.750000 -0.207867
v 0.207867 0.250000 -0.138893
v 0.207867 2.750000 -0.138893
v 0.245196 0.250000 -0.048773
v 0.245196 2.750000 -0.048773
v 0.245196 0.250000 0.048773
v 0.245196 2.750000 0.048773
v 0.207867 0.250000 0.138893
v 0.207867 2.750000 0.138893
v 0.138893 0.250000 0.207867
v 0.138893 2.750000 0.207867
v 0.048773 0.250000 0.245196
v 0.048773 2.750000 0.245196
v -0.048773 0.250000 0.245196
v -0.048773 2.750000 0.245196
v -0.138893 0.250000 0.207867
v -0.138893 2.750000 0.207867
v -0.207867 0.250000 0.138893
v -0.207867 2.750000 0.138893
v -0.245196 0.250000 0.048773
v -0.245196 2.750000 0.048773
v -0.245196 0.250000 -0.048773
v -0.245196 2.750000 -0.048773
v -0.207867 0.250000 -0.138893
v -0.207867 2.750000 -0.138893
v -0.138892 0.250000 -0.207867
v -0.138892 2.750000 -0.207867
v -0.500000 0.000000 0.500000
v -0.500000 -0.000000 -0.500000
v 0.500000 0.000000 0.500000
v 0.500000 -0.000000 -0.500000
vt 0.390137 0.180664
vt 0.000000 0.118652
vt 0.445801 0.118652
vt 0.055664 0.089844
vt 0.445801 0.027832
vt 0.000000 0.027832
vt 0.000000 0.118164
vt 0.390137 0.180664
vt 0.445801 0.118164
vt 0.390137 0.090332
vt 0.000000 0.027832
vt 0.445801 0.027832
vt 0.056152 0.089844
vt 0.390137 0.424316
vt 0.056152 0.424316
vt 0.656250 0.500000
vt 0.625000 0.000000
vt 0.656250 0.000000
vt 0.625000 0.500000
vt 0.593750 0.000000
vt 0.593750 0.500000
vt 0.562988 0.000000
vt 0.531250 0.500000
vt 0.531250 0.000000
vt 0.500000 0.000000
vt 1.000000 0.000000
vt 0.968750 0.500000
vt 0.968750 0.000000
vt 0.937012 0.000000
vt 0.937012 0.500000
vt 0.906250 0.000000
vt 0.906250 0.500000
vt 0.875000 0.000000
vt 0.875000 0.500000
vt 0.843750 0.000000
vt 0.843750 0.500000
vt 0.812988 0.000000
vt 0.812500 0.500000
vt 0.781250 0.000000
vt 0.780762 0.500000
vt 0.750000 0.000000
vt 0.750000 0.500000
vt 0.718750 0.000000
vt 0.912598 0.486816
vt 0.781250 0.399414
vt 0.869141 0.268066
vt 0.718750 0.500000
vt 0.687500 0.000000
vt 0.687012 0.500000
vt 0.000000 0.000000
vt 0.445801 0.090332
vt 0.000000 0.090332
vt 0.445801 0.000000
vt 0.055664 0.180664
vt 0.390137 0.089844
vt 0.055664 0.180664
vt 0.055664 0.090332
vt 0.390137 0.089844
vt 0.562988 0.500000
vt 0.500000 0.500000
vt 0.999512 0.500000
vt 0.869141 0.486816
vt 0.828613 0.470215
vt 0.797852 0.439453
vt 0.781250 0.355957
vt 0.797852 0.315430
vt 0.828613 0.284668
vt 0.912598 0.268066
vt 0.952637 0.284668
vt 0.983398 0.315430
vt 1.000000 0.355957
vt 1.000000 0.399414
vt 0.983398 0.439453
vt 0.952637 0.470215
vt 0.445801 0.000000
vt 0.000000 0.090332
vt 0.445801 0.090332
vt 0.000000 0.000000
vn -0.7071 0.7071 0.0000
vn 0.0000 0.7071 -0.7071
vn 0.7071 0.7071 0.0000
vn 0.0000 0.7071 0.7071
vn 0.0000 1.0000 0.0000
vn 0.0000 0.0000 -1.0000
vn 0.3827 0.0000 -0.9239
vn 0.7071 0.0000 -0.7071
vn 0.9239 0.0000 -0.3827
vn 1.0000 0.0000 0.0000
vn 0.9239 0.0000 0.3827
vn 0.7071 0.0000 0.7071
vn 0.3827 0.0000 0.9239
vn 0.0000 0.0000 1.0000
vn -0.3827 0.0000 0.9239
vn -0.7071 0.0000 0.7071
vn -0.9239 0.0000 0.3827
vn -1.0000 0.0000 -0.0000
vn -0.9239 -0.0000 -0.3827
vn -0.7071 0.0000 -0.7071
vn -0.3827 0.0000 -0.9239
usemtl None
s off
f 2/1/1 3/2/1 1/3/1
f 4/4/2 7/5/2 3/6/2
f 7/7/3 6/8/3 5/9/3
f 6/10/4 1/11/4 5/12/4
f 4/13/5 6/14/5 8/15/5
f 10/16/6 11/17/6 9/18/6
f 12/19/7 13/20/7 11/17/7
f 14/21/8 15/22/8 13/20/8
f 15/22/9 18/23/9 17/24/9
f 18/23/10 19/25/10 17/24/10
f 19/26/11 22/27/11 21/28/11
f 22/27/12 23/29/12 21/28/12
f 24/30/13 25/31/13 23/29/13
f 26/32/14 27/33/14 25/31/14
f 28/34/15 29/35/15 27/33/15
f 30/36/16 31/37/16 29/35/16
f 32/38/17 33/39/17 31/37/17
f 34/40/18 35/41/18 33/39/18
f 36/42/19 37/43/19 35/41/19
f 14/44/5 38/45/5 30/46/5
f 38/47/20 39/48/20 37/43/20
f 40/49/21 9/18/21 39/48/21
f 7/5/6 42/50/6 3/6/6
f 3/2/18 41/51/18 1/3/18
f 5/9/10 44/52/10 7/7/10
f 1/11/14 43/53/14 5/12/14
f 2/1/1 4/54/1 3/2/1
f 4/4/2 8/55/2 7/5/2
f 7/7/3 8/56/3 6/8/3
f 6/10/4 2/57/4 1/11/4
f 4/13/5 2/58/5 6/14/5
f 10/16/6 12/19/6 11/17/6
f 12/19/7 14/21/7 13/20/7
f 14/21/8 16/59/8 15/22/8
f 15/22/9 16/59/9 18/23/9
f 18/23/10 20/60/10 19/25/10
f 19/26/11 20/61/11 22/27/11
f 22/27/12 24/30/12 23/29/12
f 24/30/13 26/32/13 25/31/13
f 26/32/14 28/34/14 27/33/14
f 28/34/15 30/36/15 29/35/15
f 30/36/16 32/38/16 31/37/16
f 32/38/17 34/40/17 33/39/17
f 34/40/18 36/42/18 35/41/18
f 36/42/19 38/47/19 37/43/19
f 14/44/5 12/62/5 38/45/5
f 12/62/5 10/63/5 38/45/5
f 10/63/5 40/64/5 38/45/5
f 38/45/5 36/65/5 34/66/5
f 34/66/5 32/67/5 30/46/5
f 30/46/5 28/68/5 26/69/5
f 26/69/5 24/70/5 22/71/5
f 22/71/5 20/72/5 18/73/5
f 18/73/5 16/74/5 14/44/5
f 38/45/5 34/66/5 30/46/5
f 30/46/5 26/69/5 14/44/5
f 26/69/5 22/71/5 14/44/5
f 22/71/5 18/73/5 14/44/5
f 38/47/20 40/49/20 39/48/20
f 40/49/21 10/16/21 9/18/21
f 7/5/6 44/75/6 42/50/6
f 3/2/18 42/76/18 41/51/18
f 5/9/10 43/77/10 44/52/10
f 1/11/14 41/78/14 43/53/14
