# Blender v2.83.5 OBJ File: 'biome_tileset_town_001.blend'
# www.blender.org
mtllib town_1_hw_sc_001.mtl
o town_1_hw_sc_002.001_tile_set_001_hw_sc_1_001_Cube.005
v 0.500000 3.000000 0.500000
v 0.750000 0.000000 0.500000
v -0.500000 3.000000 0.500000
v -0.500000 3.000000 -0.500000
v 0.757550 1.500000 0.500000
v 0.659394 0.750000 0.500000
v 0.654361 2.250000 0.500000
v 0.666945 0.375000 0.500000
v 0.719798 1.875000 0.500000
v 0.787752 1.125000 0.500000
v 0.697147 2.625000 0.500000
v -0.500000 0.000000 -0.750000
v -0.500000 1.500000 -0.757550
v -0.500000 2.250000 -0.654361
v -0.500000 0.750000 -0.659394
v -0.500000 2.625000 -0.697147
v -0.500000 1.125000 -0.787752
v -0.500000 1.875000 -0.719798
v -0.500000 0.375000 -0.666945
v 0.171459 0.758422 -0.167532
v 0.194535 0.000000 -0.249059
v 0.230718 1.041167 -0.224695
v 0.201940 0.327446 -0.136569
v 0.237115 1.558891 -0.273707
v 0.212609 2.289622 -0.227796
v 0.156595 1.849229 -0.259864
v 0.258549 2.635818 -0.236544
v 0.075300 3.000000 -0.075000
v -0.160846 0.756943 -0.428013
v -0.137200 0.000000 -0.511559
v -0.179966 1.108356 -0.500627
v -0.150637 0.389551 -0.426157
v -0.123470 1.411155 -0.470672
v -0.150446 2.247446 -0.409242
v -0.142982 1.876246 -0.466212
v -0.151321 2.614205 -0.436811
v -0.209086 3.000000 -0.288250
v 0.440179 0.784968 0.145385
v 0.517073 0.000000 0.137500
v 0.576583 1.077731 0.134348
v 0.465192 0.316865 0.162580
v 0.481208 1.483255 0.171172
v 0.397236 2.268205 0.118537
v 0.455834 1.830508 0.104628
v 0.435903 2.659129 0.179569
v 0.309745 3.000000 0.200000
v -0.261442 0.772204 -0.603252
v -0.318450 0.000000 -0.618750
v -0.343111 1.135730 -0.660456
v -0.297077 0.368309 -0.522999
v -0.332466 1.427371 -0.560581
v -0.342669 2.242991 -0.540074
v -0.328037 1.874443 -0.589735
v -0.373001 2.598063 -0.628597
v -0.349700 3.000000 -0.400000
v 0.273779 0.744862 -0.019193
v 0.356550 0.000000 -0.043750
v 0.391028 1.105416 -0.020404
v 0.303097 0.372615 -0.013011
v 0.370028 1.454471 -0.083225
v 0.361144 2.262442 0.027871
v 0.306159 1.923825 0.018747
v 0.349339 2.610263 -0.029995
v 0.190914 3.000000 0.050000
v -0.006674 0.780480 -0.288558
v 0.013285 0.000000 -0.380309
v 0.068664 1.115100 -0.374220
v 0.033053 0.366109 -0.354841
v 0.071690 1.464775 -0.365508
v 0.008162 2.250019 -0.296609
v -0.016554 1.932554 -0.281764
v 0.024230 2.623776 -0.322388
v -0.049700 3.000000 -0.200000
v 0.609474 0.711793 0.360785
v 0.619050 0.000000 0.318750
v 0.639701 1.170595 0.377213
v 0.505433 0.335807 0.389515
v 0.586266 1.492249 0.349606
v 0.538324 2.278013 0.281553
v 0.543171 1.853287 0.286297
v 0.550581 2.625957 0.325971
v 0.400300 3.000000 0.350000
vt 0.499512 1.000326
vt 0.499512 0.667643
vt -0.000488 1.000326
vt 0.085205 0.167643
vt 0.084473 0.084961
vt 0.028809 0.084961
vt 0.029785 0.167643
vt 0.072876 -0.000326
vt 0.013184 -0.000326
vt 0.077271 0.414388
vt 0.072144 0.331706
vt 0.012207 0.331706
vt 0.019043 0.414388
vt 0.080933 0.577799
vt 0.085938 0.496419
vt 0.030762 0.496419
vt 0.023926 0.577799
vt 0.061768 0.248372
vt -0.000488 0.248372
vt 0.108765 0.663737
vt 0.061035 0.663737
vt 0.299683 0.663737
vt 0.308960 0.577799
vt 0.251953 0.577799
vt 0.251953 0.663737
vt 0.306641 0.496419
vt 0.310181 0.414388
vt 0.251953 0.414388
vt 0.251465 0.496419
vt 0.310791 0.248372
vt 0.306885 0.167643
vt 0.251465 0.167643
vt 0.248535 0.248372
vt 0.311890 0.331706
vt 0.251953 0.331706
vt 0.311646 -0.000326
vt 0.251953 -0.000326
vt 0.251465 0.084961
vt 0.307129 0.084961
vt 0.417725 0.167643
vt 0.418457 0.084961
vt 0.362793 0.084961
vt 0.362305 0.167643
vt 0.431030 -0.000326
vt 0.371338 -0.000326
vt 0.426636 0.414388
vt 0.431763 0.331706
vt 0.371826 0.331706
vt 0.368408 0.414388
vt 0.422974 0.577799
vt 0.416992 0.496419
vt 0.361816 0.496419
vt 0.365967 0.577799
vt 0.435303 0.248372
vt 0.373047 0.248372
vt 0.395142 0.663737
vt 0.347412 0.663737
vt 0.204224 0.663737
vt 0.194946 0.577799
vt 0.137939 0.577799
vt 0.156494 0.663737
vt 0.196289 0.496419
vt 0.193726 0.414388
vt 0.135498 0.414388
vt 0.141113 0.496419
vt 0.186279 0.248372
vt 0.196045 0.167643
vt 0.140625 0.167643
vt 0.124023 0.248372
vt 0.192017 0.331706
vt 0.132080 0.331706
vt 0.192261 -0.000326
vt 0.132568 -0.000326
vt 0.140137 0.084961
vt 0.195801 0.084961
vt 0.442871 0.663737
vt 0.479980 0.577799
vt 0.472168 0.496419
vt 0.484863 0.414388
vt 0.497559 0.248372
vt 0.473145 0.167643
vt 0.491699 0.331706
vt 0.490723 -0.000326
vt 0.474121 0.084961
vt 0.050293 0.950846
vt 0.425293 0.700846
vt 0.350098 0.734049
vt 0.100098 0.900716
vt 0.149902 0.850586
vt 0.274902 0.767253
vt 0.212402 0.808919
vn 0.0000 1.0000 0.0000
vn 0.6202 -0.0892 -0.7794
vn 0.5671 0.0513 -0.8220
vn 0.5037 0.0403 -0.8630
vn 0.4200 -0.1385 -0.8969
vn 0.5464 0.1844 -0.8170
vn 0.5750 0.1757 -0.7991
vn 0.5842 0.0647 -0.8090
vn 0.6105 0.0597 -0.7898
vn 0.7038 0.0558 -0.7082
vn 0.6486 0.0661 -0.7582
vn 0.5709 0.1200 -0.8122
vn 0.5791 0.0136 -0.8152
vn 0.5639 0.0011 -0.8258
vn 0.5334 0.1600 -0.8306
vn 0.6253 0.0128 -0.7803
vn 0.5879 -0.0243 -0.8085
vn 0.3395 0.8250 -0.4518
vn 0.4803 0.4882 -0.7287
vn 0.4633 0.8409 -0.2795
vn 0.8735 0.1659 -0.4577
vn 0.6728 0.2093 -0.7096
vn 0.3556 0.8616 -0.3622
vn 0.8525 -0.0457 -0.5207
vn 0.8099 0.0444 -0.5849
vn 0.5863 0.1185 -0.8014
vn 0.6395 -0.0756 -0.7650
vn 0.7725 -0.1080 -0.6258
vn 0.7587 -0.1080 -0.6424
vn 0.7266 -0.1139 -0.6776
vn 0.6937 -0.1923 -0.6941
vn 0.8140 0.0743 -0.5761
vn 0.6639 0.1228 -0.7376
vn 0.7501 0.1722 -0.6385
vn 0.7295 0.1397 -0.6696
vn 0.7459 0.1115 -0.6567
vn 0.7576 0.0896 -0.6465
vn 0.8387 -0.1379 -0.5269
vn 0.8370 0.0827 -0.5410
vn 0.8391 0.1046 -0.5338
vn 0.7888 -0.1511 -0.5957
vn 0.8042 0.2724 -0.5283
vn 0.8401 0.2267 -0.4929
vn 0.8221 0.0389 -0.5680
vn 0.8043 0.0683 -0.5903
vn 0.8531 0.0989 -0.5123
vn 0.8143 0.0607 -0.5773
vn 0.7964 0.1721 -0.5798
vn 0.8141 0.0356 -0.5797
vn 0.8231 0.0217 -0.5674
vn 0.8264 0.2084 -0.5232
vn 0.8153 0.0027 -0.5790
vn 0.8370 -0.0661 -0.5432
vn 0.4640 0.8251 -0.3222
vn 0.4903 0.8131 -0.3138
vn 0.2889 0.8174 -0.4984
vn 0.4687 0.1761 -0.8656
vn 0.5782 0.1482 -0.8023
vn 0.3076 0.8412 -0.4447
vn 0.4687 -0.0296 -0.8828
vn 0.4947 0.0705 -0.8662
vn 0.5937 0.0787 -0.8008
vn 0.6189 -0.0042 -0.7854
vn 0.5434 -0.1269 -0.8299
vn 0.5905 -0.0981 -0.8011
vn 0.6541 -0.0597 -0.7540
vn 0.6167 -0.0217 -0.7869
vn 0.5303 0.0645 -0.8453
vn 0.5286 0.0578 -0.8469
vn 0.6138 0.1164 -0.7808
vn 0.5150 0.1598 -0.8421
vn 0.5857 0.0752 -0.8070
vn 0.6209 0.1061 -0.7767
vn 0.7111 0.4511 -0.5394
vn 0.8062 0.1529 -0.5716
vn 0.8290 0.0240 -0.5587
vn 0.7770 0.0446 -0.6280
vn 0.7341 -0.0543 -0.6769
vn 0.7833 -0.1321 -0.6074
vn 0.6874 0.0345 -0.7254
vn 0.6658 0.2541 -0.7016
vn 0.7391 0.0552 -0.6713
usemtl town_biome_material.025
s off
f 3/1/1 1/2/1 4/3/1
s 1
f 47/4/2 50/5/3 19/6/4 15/7/5
f 48/8/6 12/9/7 19/6/4 50/5/3
f 53/10/8 51/11/9 13/12/10 18/13/11
f 54/14/12 52/15/13 14/16/14 16/17/15
f 51/11/9 49/18/16 17/19/17 13/12/10
f 49/18/16 47/4/2 15/7/5 17/19/17
f 52/15/13 53/10/8 18/13/11 14/16/14
f 55/20/18 54/14/12 16/17/15 4/21/19
f 64/22/20 63/23/21 27/24/22 28/25/23
f 61/26/24 62/27/25 26/28/26 25/29/27
f 58/30/28 56/31/29 20/32/30 22/33/31
f 60/34/32 58/30/28 22/33/31 24/35/33
f 63/23/21 61/26/24 25/29/27 27/24/22
f 62/27/25 60/34/32 24/35/33 26/28/26
f 57/36/34 21/37/35 23/38/36 59/39/37
f 56/31/29 59/39/37 23/38/36 20/32/30
f 74/40/38 77/41/39 41/42/40 38/43/41
f 75/44/42 39/45/43 41/42/40 77/41/39
f 80/46/44 78/47/45 42/48/46 44/49/47
f 81/50/48 79/51/49 43/52/50 45/53/51
f 78/47/45 76/54/52 40/55/53 42/48/46
f 76/54/52 74/40/38 38/43/41 40/55/53
f 79/51/49 80/46/44 44/49/47 43/52/50
f 82/56/54 81/50/48 45/53/51 46/57/55
f 73/58/56 72/59/57 36/60/58 37/61/59
f 70/62/60 71/63/61 35/64/62 34/65/63
f 67/66/64 65/67/65 29/68/66 31/69/67
f 69/70/68 67/66/64 31/69/67 33/71/69
f 72/59/57 70/62/60 34/65/63 36/60/58
f 71/63/61 69/70/68 33/71/69 35/64/62
f 66/72/70 30/73/71 32/74/72 68/75/73
f 65/67/65 68/75/73 32/74/72 29/68/66
f 20/32/30 23/38/36 68/75/73 65/67/65
f 21/37/35 66/72/70 68/75/73 23/38/36
f 26/28/26 24/35/33 69/70/68 71/63/61
f 27/24/22 25/29/27 70/62/60 72/59/57
f 24/35/33 22/33/31 67/66/64 69/70/68
f 22/33/31 20/32/30 65/67/65 67/66/64
f 25/29/27 26/28/26 71/63/61 70/62/60
f 28/25/23 27/24/22 72/59/57 73/58/56
f 1/76/74 11/77/75 81/50/48 82/56/54
f 7/78/76 9/79/77 80/46/44 79/51/49
f 10/80/78 6/81/79 74/40/38 76/54/52
f 5/82/80 10/80/78 76/54/52 78/47/45
f 11/77/75 7/78/76 79/51/49 81/50/48
f 9/79/77 5/82/80 78/47/45 80/46/44
f 2/83/81 75/44/42 77/41/39 8/84/82
f 6/81/79 8/84/82 77/41/39 74/40/38
f 38/43/41 41/42/40 59/39/37 56/31/29
f 39/45/43 57/36/34 59/39/37 41/42/40
f 44/49/47 42/48/46 60/34/32 62/27/25
f 45/53/51 43/52/50 61/26/24 63/23/21
f 42/48/46 40/55/53 58/30/28 60/34/32
f 40/55/53 38/43/41 56/31/29 58/30/28
f 43/52/50 44/49/47 62/27/25 61/26/24
f 46/57/55 45/53/51 63/23/21 64/22/20
f 37/61/59 36/60/58 54/14/12 55/20/18
f 34/65/63 35/64/62 53/10/8 52/15/13
f 31/69/67 29/68/66 47/4/2 49/18/16
f 33/71/69 31/69/67 49/18/16 51/11/9
f 36/60/58 34/65/63 52/15/13 54/14/12
f 35/64/62 33/71/69 51/11/9 53/10/8
f 30/73/71 48/8/6 50/5/3 32/74/72
f 29/68/66 32/74/72 50/5/3 47/4/2
f 55/85/18 4/3/19 1/2/74 82/86/54
f 82/86/54 46/87/55 37/88/59 55/85/18
f 73/89/56 37/88/59 46/87/55 64/90/20 28/91/23
