# Blender v2.83.5 OBJ File: 'tile_set_001.blend'
# www.blender.org
mtllib tile_set_001_pw_dt_1_001.mtl
o wall_high_double_T.003_Cube.030
v -0.500000 2.400000 0.250000
v -0.500000 3.000000 0.250000
v -0.500000 2.400000 -0.250000
v -0.500000 3.000000 -0.250000
v 0.500000 2.400000 0.250000
v 0.500000 3.000000 0.250000
v 0.500000 2.400000 -0.250000
v 0.500000 3.000000 -0.250000
v 0.250000 2.400000 0.500000
v 0.250000 3.000000 0.500000
v -0.250000 2.400000 0.500000
v -0.250000 3.000000 0.500000
v 0.250000 3.000000 -0.250000
v -0.250000 3.000000 0.250000
v -0.250000 3.000000 -0.250000
v 0.250000 3.000000 0.250000
v -0.250000 2.400000 0.250000
v 0.250000 2.400000 -0.250000
v -0.250000 2.400000 -0.250000
v 0.250000 2.400000 0.250000
v -0.500000 0.000000 0.250000
v -0.500000 0.600000 0.250000
v -0.500000 0.000000 -0.250000
v -0.500000 0.600000 -0.250000
v 0.500000 0.000000 0.250000
v 0.500000 0.600000 0.250000
v 0.500000 0.000000 -0.250000
v 0.500000 0.600000 -0.250000
v 0.250000 0.000000 0.500000
v 0.250000 0.600000 0.500000
v -0.250000 0.000000 0.500000
v -0.250000 0.600000 0.500000
v 0.250000 0.600000 -0.250000
v -0.250000 0.600000 0.250000
v -0.250000 0.600000 -0.250000
v 0.250000 0.600000 0.250000
v -0.250000 0.000000 0.250000
v 0.250000 0.000000 -0.250000
v -0.250000 0.000000 -0.250000
v 0.250000 0.000000 0.250000
vt 0.500000 0.500000
vt 0.500000 0.000000
vt 0.666667 0.000000
vt 0.666667 0.500000
vt 0.500000 0.833333
vt 0.333333 0.833333
vt 0.333333 0.750000
vt 0.500000 0.750000
vt 0.500000 0.000000
vt 0.500000 0.500000
vt 0.333333 0.500000
vt 0.333333 0.000000
vt 0.250000 0.583333
vt 0.333333 0.583333
vt 0.250000 0.750000
vt 0.083333 0.500000
vt 0.250000 0.500000
vt 0.250000 0.583333
vt 0.083333 0.583333
vt 0.250000 0.833333
vt 0.083333 0.833333
vt 0.083333 0.750000
vt 0.250000 0.750000
vt 0.666667 0.500000
vt 0.666667 0.000000
vt 0.833333 0.000000
vt 0.833333 0.500000
vt 0.333333 0.500000
vt 0.500000 0.500000
vt 0.500000 0.583333
vt 0.000000 0.750000
vt 0.000000 0.583333
vt 0.666667 1.000000
vt 0.583333 1.000000
vt 0.583333 0.500000
vt 0.666667 0.500000
vt 1.000000 0.000000
vt 1.000000 0.500000
vt 0.916667 0.500000
vt 0.916667 0.000000
vt 0.333333 0.000000
vt 0.333333 0.500000
vt 0.250000 0.500000
vt 0.250000 0.000000
vt 0.083333 0.500000
vt 0.083333 0.000000
vt 0.833333 0.000000
vt 0.916667 0.000000
vt 0.916667 0.500000
vt 0.833333 0.500000
vt 0.500000 1.000000
vt 0.500000 0.500000
vt 0.583333 0.500000
vt 0.583333 1.000000
vt 0.000000 0.000000
vt 0.000000 0.500000
vt 0.500000 0.500000
vt 0.500000 0.000000
vt 0.666667 0.000000
vt 0.666667 0.500000
vt 0.500000 0.833333
vt 0.333333 0.833333
vt 0.333333 0.750000
vt 0.500000 0.750000
vt 0.500000 0.000000
vt 0.500000 0.500000
vt 0.333333 0.500000
vt 0.333333 0.000000
vt 0.250000 0.583333
vt 0.333333 0.583333
vt 0.250000 0.750000
vt 0.083333 0.500000
vt 0.250000 0.500000
vt 0.250000 0.583333
vt 0.083333 0.583333
vt 0.250000 0.833333
vt 0.083333 0.833333
vt 0.083333 0.750000
vt 0.250000 0.750000
vt 0.666667 0.500000
vt 0.666667 0.000000
vt 0.833333 0.000000
vt 0.833333 0.500000
vt 0.333333 0.500000
vt 0.500000 0.500000
vt 0.500000 0.583333
vt 0.000000 0.750000
vt 0.000000 0.583333
vt 0.666667 1.000000
vt 0.583333 1.000000
vt 0.583333 0.500000
vt 0.666667 0.500000
vt 1.000000 0.000000
vt 1.000000 0.500000
vt 0.916667 0.500000
vt 0.916667 0.000000
vt 0.333333 0.000000
vt 0.333333 0.500000
vt 0.250000 0.500000
vt 0.250000 0.000000
vt 0.083333 0.500000
vt 0.083333 0.000000
vt 0.833333 0.000000
vt 0.916667 0.000000
vt 0.916667 0.500000
vt 0.833333 0.500000
vt 0.500000 1.000000
vt 0.500000 0.500000
vt 0.583333 0.500000
vt 0.583333 1.000000
vt 0.000000 0.000000
vt 0.000000 0.500000
vn -1.0000 0.0000 0.0000
vn 0.0000 -1.0000 0.0000
vn 1.0000 0.0000 0.0000
vn 0.0000 1.0000 0.0000
vn 0.0000 0.0000 1.0000
vn 0.0000 0.0000 -1.0000
usemtl None
s off
f 1/1/1 2/2/1 4/3/1 3/4/1
f 7/5/2 5/6/2 20/7/2 18/8/2
f 7/9/3 8/10/3 6/11/3 5/12/3
f 11/13/2 17/14/2 20/7/2 9/15/2
f 6/16/4 8/17/4 13/18/4 16/19/4
f 4/20/4 2/21/4 14/22/4 15/23/4
f 9/24/5 10/25/5 12/26/5 11/27/5
f 1/28/2 3/29/2 19/30/2 17/14/2
f 14/22/4 12/31/4 10/32/4 16/19/4
f 18/8/2 20/7/2 17/14/2 19/30/2
f 13/18/4 15/23/4 14/22/4 16/19/4
f 12/33/1 14/34/1 17/35/1 11/36/1
f 2/37/5 1/38/5 17/39/5 14/40/5
f 3/41/6 4/42/6 15/43/6 19/44/6
f 13/45/6 18/46/6 19/44/6 15/43/6
f 9/47/3 20/48/3 16/49/3 10/50/3
f 5/51/5 6/52/5 16/53/5 20/54/5
f 7/55/6 18/46/6 13/45/6 8/56/6
f 21/57/1 22/58/1 24/59/1 23/60/1
f 27/61/2 25/62/2 40/63/2 38/64/2
f 27/65/3 28/66/3 26/67/3 25/68/3
f 31/69/2 37/70/2 40/63/2 29/71/2
f 26/72/4 28/73/4 33/74/4 36/75/4
f 24/76/4 22/77/4 34/78/4 35/79/4
f 29/80/5 30/81/5 32/82/5 31/83/5
f 21/84/2 23/85/2 39/86/2 37/70/2
f 34/78/4 32/87/4 30/88/4 36/75/4
f 38/64/2 40/63/2 37/70/2 39/86/2
f 33/74/4 35/79/4 34/78/4 36/75/4
f 32/89/1 34/90/1 37/91/1 31/92/1
f 22/93/5 21/94/5 37/95/5 34/96/5
f 23/97/6 24/98/6 35/99/6 39/100/6
f 33/101/6 38/102/6 39/100/6 35/99/6
f 29/103/3 40/104/3 36/105/3 30/106/3
f 25/107/5 26/108/5 36/109/5 40/110/5
f 27/111/6 38/102/6 33/101/6 28/112/6
