# Blender v2.79 (sub 0) OBJ File: 'medieval_tools.blend'
# www.blender.org
mtllib axe_1_001.mtl
o axe
v 0.072374 0.000000 1.265172
v 0.072374 0.000000 1.319188
v 0.072374 0.000000 1.100204
v 0.052109 0.000000 -1.285996
v -0.072374 0.000000 1.265172
v -0.072374 0.000000 1.319188
v -0.072374 0.000000 1.100204
v -0.052109 0.000000 -1.285996
v 0.000000 -0.072374 1.265172
v 0.000000 -0.072374 1.100204
v 0.000000 0.072374 1.265172
v 0.000000 0.072374 1.319188
v 0.000000 -0.072374 1.319188
v 0.000000 0.072374 1.100204
v 0.000000 0.052109 -1.336396
v 0.000000 -0.052109 -1.336396
v 0.086615 0.000000 1.265172
v 0.035079 -0.106272 1.100204
v 0.086615 0.000000 1.100204
v 0.035079 -0.106272 1.265172
v 0.027479 -0.166572 1.100204
v 0.008142 -0.226572 0.740204
v 0.016487 -0.226572 0.920204
v 0.000000 -0.376872 1.271172
v 0.000000 -0.388872 1.100204
v -0.086615 0.000000 1.265172
v -0.035079 -0.106272 1.100204
v 0.000000 0.086615 1.265172
v -0.086615 0.000000 1.100204
v 0.000000 0.086615 1.100204
v -0.035079 -0.106272 1.265172
v -0.027479 -0.166572 1.100204
v 0.000000 -0.166572 1.100204
v -0.008142 -0.226572 0.740204
v 0.000000 -0.346872 0.740204
v 0.000000 -0.226572 0.740204
v 0.000000 -0.382872 0.920204
v 0.000000 -0.226572 0.920204
v -0.016487 -0.226572 0.920204
vt 0.384136 0.135468
vt 0.384136 0.019489
vt 0.500114 0.019489
vt 0.874383 0.936550
vt 0.758757 0.936550
vt 0.758757 0.988453
vt 0.874383 0.988453
vt 0.990010 0.936550
vt 0.990010 0.988453
vt 0.643560 0.008225
vt 0.759262 0.008225
vt 0.759262 0.921947
vt 0.643560 0.921947
vt 0.528660 0.008225
vt 0.528660 0.921947
vt 0.500114 0.135468
vt 0.384136 0.135468
vt 0.500114 0.019489
vt 0.500114 0.135468
vt 0.643130 0.936550
vt 0.643130 0.988453
vt 0.527503 0.936550
vt 0.527503 0.988453
vt 0.874966 0.008225
vt 0.874965 0.921947
vt 0.989865 0.008225
vt 0.989865 0.921947
vt 0.384136 0.019489
vt 0.303670 0.942562
vt 0.313110 0.985017
vt 0.010917 0.942562
vt 0.282393 0.635073
vt 0.015941 0.635073
vt 0.388638 0.642026
vt 0.428564 0.679435
vt 0.346557 0.679435
vt 0.428564 0.985017
vt 0.428564 0.942562
vt 0.428564 0.642026
vt 0.512021 0.679435
vt 0.512021 0.942562
vt 0.512021 0.642026
vt 0.512021 0.985018
vt 0.302660 0.600219
vt 0.156609 0.011635
vt 0.143332 0.036577
vt 0.039389 0.036577
vt 0.192935 0.343623
vt 0.024316 0.343623
vt 0.211012 0.326260
vt 0.303670 0.942562
vt 0.282393 0.635073
vt 0.346557 0.679435
vt 0.428564 0.679435
vt 0.428564 0.985017
vt 0.428564 0.942562
vt 0.428564 0.642026
vt 0.143332 0.036577
vt 0.192935 0.343623
vn 0.0000 -0.8165 0.5773
vn 0.8165 0.0000 0.5773
vn 0.0000 0.8165 0.5773
vn 0.4264 0.0000 0.9045
vn 0.0000 0.4264 0.9045
vn 0.0000 -0.4214 0.9069
vn 0.9738 0.0000 -0.2272
vn 0.0000 0.7084 -0.7057
vn 0.0000 0.4231 -0.9061
vn 0.4243 0.0000 -0.9055
vn 0.0000 -0.7084 -0.7057
vn 0.0000 -0.4231 -0.9061
vn -0.8165 0.0000 0.5773
vn -0.4264 0.0000 0.9045
vn -0.9738 0.0000 -0.2272
vn -0.4243 0.0000 -0.9055
vn 0.6478 -0.1797 0.7403
vn 0.0000 -0.8277 0.5612
vn 0.8791 0.1812 -0.4407
vn 0.0000 -0.9994 -0.0356
vn 0.7911 0.1333 -0.5969
vn 0.6389 -0.1896 -0.7455
vn 0.7911 0.1333 0.5969
vn 0.0000 0.8165 -0.5773
vn 0.0000 0.5847 -0.8112
vn 0.0000 0.7071 -0.7071
vn 0.5900 0.5564 -0.5850
vn 0.0000 -0.7841 -0.6207
vn 0.7785 0.6133 -0.1333
vn 0.0000 -0.9784 -0.2066
vn 0.0000 0.9871 -0.1602
vn -0.6478 -0.1797 0.7403
vn -0.8791 0.1812 -0.4407
vn -0.6389 -0.1896 -0.7455
vn -0.7911 0.1333 -0.5969
vn -0.7911 0.1333 0.5969
vn -0.5900 0.5564 -0.5850
vn -0.7785 0.6133 -0.1333
usemtl mat_axe
s 1
f 13/1/1 2/2/2 12/3/3
f 1/4/4 11/5/5 12/6/3 2/7/2
f 9/8/6 1/4/4 2/7/2 13/9/1
f 4/10/7 15/11/8 14/12/9 3/13/10
f 16/14/11 4/10/7 3/13/10 10/15/12
f 4/16/7 16/17/11 15/18/8
f 13/1/1 12/3/3 6/19/13
f 5/20/14 6/21/13 12/6/3 11/5/5
f 9/22/6 13/23/1 6/21/13 5/20/14
f 8/24/15 7/25/16 14/12/9 15/11/8
f 16/26/11 10/27/12 7/25/16 8/24/15
f 8/28/15 15/18/8 16/17/11
f 20/29/17 9/30/6 24/31/18
f 21/32/19 20/29/17 24/31/18 25/33/20
f 10/34/12 19/35/21 18/36/22
f 1/37/4 9/30/6 17/38/23
f 10/34/12 3/39/10 19/35/21
f 19/35/21 30/40/24 28/41/3 17/38/23
f 3/39/10 14/42/9 30/40/24 19/35/21
f 11/43/5 1/37/4 17/38/23 28/41/3
f 17/38/23 9/30/6 20/29/17
f 19/35/21 17/38/23 20/29/17 18/36/22
f 10/34/12 18/36/22 21/32/19 33/44/25
f 18/36/22 20/29/17 21/32/19
f 36/45/26 22/46/27 35/47/28
f 23/48/29 37/49/30 35/47/28 22/46/27
f 38/50/31 23/48/29 22/46/27 36/45/26
f 33/44/25 21/32/19 23/48/29 38/50/31
f 21/32/19 25/33/20 37/49/30 23/48/29
f 31/51/32 24/31/18 9/30/6
f 32/52/33 25/33/20 24/31/18 31/51/32
f 10/34/12 27/53/34 29/54/35
f 5/55/14 26/56/36 9/30/6
f 10/34/12 29/54/35 7/57/16
f 29/54/35 26/56/36 28/41/3 30/40/24
f 7/57/16 29/54/35 30/40/24 14/42/9
f 11/43/5 28/41/3 26/56/36 5/55/14
f 26/56/36 31/51/32 9/30/6
f 29/54/35 27/53/34 31/51/32 26/56/36
f 10/34/12 33/44/25 32/52/33 27/53/34
f 27/53/34 32/52/33 31/51/32
f 36/45/26 35/47/28 34/58/37
f 39/59/38 34/58/37 35/47/28 37/49/30
f 38/50/31 36/45/26 34/58/37 39/59/38
f 33/44/25 38/50/31 39/59/38 32/52/33
f 32/52/33 39/59/38 37/49/30 25/33/20
