# Blender v2.79 (sub 0) OBJ File: 'medieval_tools.blend'
# www.blender.org
mtllib broom_1_001.mtl
o broom
v -0.000000 0.000000 0.455750
v -0.000000 -0.264599 1.664250
v -0.000000 -0.093170 0.435750
v 0.176777 -0.176777 1.614250
v 0.065881 -0.065881 0.435750
v 0.264599 -0.000000 1.664250
v 0.093170 0.000000 0.435750
v 0.176777 0.176777 1.614250
v 0.065881 0.065881 0.435750
v -0.000000 0.264599 1.664250
v -0.000000 0.093170 0.435750
v -0.176777 0.176777 1.614250
v -0.065881 0.065881 0.435750
v -0.264599 -0.000000 1.664250
v -0.093170 0.000000 0.435750
v -0.176777 -0.176777 1.614250
v -0.065881 -0.065881 0.435750
v -0.000000 -0.072600 0.854750
v -0.000000 -0.072600 0.495250
v 0.051336 -0.051336 0.495250
v 0.051336 -0.051336 0.854750
v 0.072600 0.000000 0.495250
v 0.072600 -0.000000 0.854750
v 0.051336 0.051336 0.495250
v 0.051336 0.051336 0.854750
v -0.000000 0.072600 0.495250
v -0.000000 0.072600 0.854750
v -0.051336 0.051336 0.495250
v -0.051336 0.051336 0.854750
v -0.072600 0.000000 0.495250
v -0.072600 -0.000000 0.854750
v -0.051336 -0.051336 0.495250
v -0.051336 -0.051336 0.854750
v 0.066737 0.066737 0.675000
v 0.066737 -0.066737 0.675000
v -0.000000 0.094380 0.675000
v 0.094380 0.000000 0.675000
v -0.000000 -0.094380 0.675000
v -0.066737 -0.066737 0.675000
v -0.094380 -0.000000 0.675000
v -0.066737 0.066737 0.675000
v -0.000000 -0.275000 1.714250
v 0.194454 -0.194454 1.764250
v 0.275000 -0.000000 1.714250
v 0.194454 0.194454 1.764250
v -0.000000 0.275000 1.714250
v -0.194454 0.194454 1.764250
v -0.275000 -0.000000 1.714250
v -0.194454 -0.194454 1.764250
v -0.000000 -0.000000 1.614250
v -0.000000 0.000000 -1.636036
v -0.054280 -0.000000 0.455725
v -0.000000 0.054280 0.455725
v 0.000000 -0.054280 0.455725
v 0.054280 0.000000 0.455725
v -0.000000 0.054280 -1.593666
v -0.000000 -0.054280 -1.593666
v -0.054280 0.000000 -1.593666
v 0.054280 0.000000 -1.593666
v -0.000000 -0.264599 1.664250
v 0.176777 -0.176777 1.614250
v 0.264599 -0.000000 1.664250
v 0.176777 0.176777 1.614250
v -0.000000 0.264599 1.664250
v -0.176777 0.176777 1.614250
v -0.264599 -0.000000 1.664250
v -0.176777 -0.176777 1.614250
v -0.000000 -0.275000 1.714250
v 0.194454 -0.194454 1.764250
v 0.275000 -0.000000 1.714250
v 0.194454 0.194454 1.764250
v -0.000000 0.275000 1.714250
v -0.194454 0.194454 1.764250
v -0.275000 -0.000000 1.714250
v -0.194454 -0.194454 1.764250
v 0.114307 -0.000000 1.609830
v 0.076368 0.076368 1.609830
v -0.000000 0.114307 1.609830
v -0.076368 0.076368 1.609830
v -0.114307 -0.000000 1.609830
v -0.076368 -0.076368 1.609830
v -0.000000 -0.114307 1.609830
v 0.076368 -0.076368 1.609830
v 0.118800 -0.000000 1.732357
v 0.084004 0.084004 1.753957
v -0.000000 0.118800 1.732357
v -0.084004 0.084004 1.753957
v -0.118800 0.000000 1.732357
v -0.084004 -0.084004 1.753957
v -0.000000 -0.118800 1.732357
v 0.084004 -0.084004 1.753957
v 0.114307 -0.000000 1.609830
v 0.076368 0.076368 1.609830
v -0.000000 0.114307 1.609830
v -0.076368 0.076368 1.609830
v -0.114307 -0.000000 1.609830
v -0.076368 -0.076368 1.609830
v -0.000000 -0.114307 1.609830
v 0.076368 -0.076368 1.609830
v 0.118800 -0.000000 1.732357
v 0.084004 0.084004 1.753957
v -0.000000 0.118800 1.732357
v -0.084004 0.084004 1.753957
v -0.118800 0.000000 1.732357
v -0.084004 -0.084004 1.753957
v -0.000000 -0.118800 1.732357
v 0.084004 -0.084004 1.753957
v 0.134712 -0.134712 1.609786
v 0.180000 -0.000000 1.609786
v 0.134712 0.134712 1.609786
v -0.000000 0.180000 1.609786
v -0.134712 0.134712 1.609786
v -0.180000 -0.000000 1.609786
v -0.134712 -0.134712 1.609786
v -0.000000 -0.180000 1.609786
v 0.140007 -0.140007 1.727250
v 0.198000 -0.000000 1.763250
v 0.140007 0.140007 1.727250
v -0.000000 0.198000 1.763250
v -0.140007 0.140007 1.727250
v -0.198000 -0.000000 1.763250
v -0.140007 -0.140007 1.727250
v -0.000000 -0.198000 1.763250
v 0.134712 -0.134712 1.609786
v 0.180000 -0.000000 1.609786
v 0.134712 0.134712 1.609786
v -0.000000 0.180000 1.609786
v -0.134712 0.134712 1.609786
v -0.180000 -0.000000 1.609786
v -0.134712 -0.134712 1.609786
v -0.000000 -0.180000 1.609786
v 0.140007 -0.140007 1.727250
v 0.198000 -0.000000 1.763250
v 0.140007 0.140007 1.727250
v -0.000000 0.198000 1.763250
v -0.140007 0.140007 1.727250
v -0.198000 -0.000000 1.763250
v -0.140007 -0.140007 1.727250
v -0.000000 -0.198000 1.763250
vt 0.083385 0.181479
vt 0.007075 0.108518
vt 0.051777 0.005335
vt 0.950809 0.365596
vt 0.995839 0.365596
vt 0.995839 0.444197
vt 0.950809 0.444197
vt 0.007075 0.254440
vt 0.995839 0.522798
vt 0.950809 0.522798
vt 0.051777 0.357623
vt 0.995839 0.601400
vt 0.950809 0.601400
vt 0.114993 0.357623
vt 0.995839 0.680001
vt 0.950809 0.680001
vt 0.159695 0.254440
vt 0.995839 0.758602
vt 0.950809 0.758602
vt 0.159695 0.108518
vt 0.995839 0.837204
vt 0.950809 0.837204
vt 0.114993 0.005335
vt 0.995839 0.915805
vt 0.950809 0.915805
vt 0.995839 0.994406
vt 0.950809 0.994406
vt 0.080725 0.915805
vt 0.681653 0.915805
vt 0.681653 0.994406
vt 0.080725 0.994406
vt 0.681653 0.758602
vt 0.816231 0.758602
vt 0.816231 0.837204
vt 0.681653 0.837204
vt 0.080725 0.837204
vt 0.681653 0.680001
vt 0.816231 0.680001
vt 0.080725 0.758602
vt 0.681653 0.601400
vt 0.816231 0.601400
vt 0.080725 0.680001
vt 0.681653 0.522798
vt 0.816231 0.522798
vt 0.080725 0.601400
vt 0.681653 0.444197
vt 0.816231 0.444197
vt 0.080725 0.522798
vt 0.681653 0.365596
vt 0.816231 0.365596
vt 0.080725 0.444197
vt 0.816231 0.915805
vt 0.080725 0.365596
vt 0.816231 0.994406
vt 0.005137 0.680001
vt 0.005137 0.601400
vt 0.005137 0.758602
vt 0.005137 0.444197
vt 0.005137 0.365596
vt 0.005137 0.522798
vt 0.005137 0.837204
vt 0.005137 0.994406
vt 0.005137 0.915805
vt 0.083385 0.181479
vt 0.114993 0.005335
vt 0.159695 0.108518
vt 0.159695 0.254440
vt 0.114993 0.357623
vt 0.051777 0.357623
vt 0.007075 0.254440
vt 0.007075 0.108518
vt 0.051777 0.005335
vt 0.943746 0.273142
vt 0.976572 0.180600
vt 0.993908 0.273142
vt 0.943746 0.097305
vt 0.169189 0.180601
vt 0.169189 0.097305
vt 0.976797 0.356608
vt 0.169189 0.356608
vt 0.169189 0.273142
vt 0.976797 0.004551
vt 0.169189 0.004552
vt 0.993908 0.097305
vt 0.080725 0.601400
vt 0.005137 0.601400
vt 0.005137 0.680001
vt 0.080725 0.680001
vt 0.005137 0.758602
vt 0.080725 0.758602
vt 0.080725 0.365596
vt 0.005137 0.365596
vt 0.005137 0.444197
vt 0.080725 0.444197
vt 0.005137 0.522798
vt 0.080725 0.522798
vt 0.005137 0.837204
vt 0.080725 0.837204
vt 0.080725 0.915805
vt 0.005137 0.915805
vt 0.005137 0.994406
vt 0.080725 0.994406
vt 0.080725 0.601400
vt 0.080725 0.680001
vt 0.005137 0.680001
vt 0.005137 0.601400
vt 0.080725 0.758602
vt 0.005137 0.758602
vt 0.080725 0.365596
vt 0.080725 0.444197
vt 0.005137 0.444197
vt 0.005137 0.365596
vt 0.080725 0.522798
vt 0.005137 0.522798
vt 0.080725 0.837204
vt 0.005137 0.837204
vt 0.080725 0.915805
vt 0.080725 0.994406
vt 0.005137 0.994406
vt 0.005137 0.915805
vt 0.080725 0.601400
vt 0.005137 0.601400
vt 0.005137 0.680001
vt 0.080725 0.680001
vt 0.005137 0.758602
vt 0.080725 0.758602
vt 0.080725 0.365596
vt 0.005137 0.365596
vt 0.005137 0.444197
vt 0.080725 0.444197
vt 0.005137 0.522798
vt 0.080725 0.522798
vt 0.005137 0.837204
vt 0.080725 0.837204
vt 0.080725 0.915805
vt 0.005137 0.915805
vt 0.005137 0.994406
vt 0.080725 0.994406
vt 0.080725 0.601400
vt 0.080725 0.680001
vt 0.005137 0.680001
vt 0.005137 0.601400
vt 0.080725 0.758602
vt 0.005137 0.758602
vt 0.080725 0.365596
vt 0.080725 0.444197
vt 0.005137 0.444197
vt 0.005137 0.365596
vt 0.080725 0.522798
vt 0.005137 0.522798
vt 0.080725 0.837204
vt 0.005137 0.837204
vt 0.080725 0.915805
vt 0.080725 0.994406
vt 0.005137 0.994406
vt 0.005137 0.915805
vt 0.080725 0.601400
vt 0.005137 0.601400
vt 0.005137 0.680001
vt 0.080725 0.680001
vt 0.005137 0.758602
vt 0.080725 0.758602
vt 0.080725 0.365596
vt 0.005137 0.365596
vt 0.005137 0.444197
vt 0.080725 0.444197
vt 0.005137 0.522798
vt 0.080725 0.522798
vt 0.005137 0.837204
vt 0.080725 0.837204
vt 0.080725 0.915805
vt 0.005137 0.915805
vt 0.005137 0.994406
vt 0.080725 0.994406
vn 0.0000 0.0000 -1.0000
vn 0.5793 -0.5793 -0.5735
vn 0.0000 -0.8192 -0.5735
vn 0.0000 -0.9937 0.1122
vn 0.7026 -0.7026 0.1122
vn 0.8192 0.0000 -0.5735
vn 0.9937 0.0000 0.1122
vn 0.5793 0.5793 -0.5735
vn 0.7026 0.7026 0.1122
vn 0.0000 0.8192 -0.5735
vn 0.0000 0.9937 0.1122
vn -0.5793 0.5793 -0.5735
vn -0.7026 0.7026 0.1122
vn -0.8192 0.0000 -0.5735
vn -0.9937 0.0000 0.1122
vn -0.5793 -0.5793 -0.5735
vn -0.7026 -0.7026 0.1122
vn -0.6909 -0.6909 0.2127
vn -0.7059 -0.7059 -0.0576
vn 0.0000 -0.9983 -0.0579
vn 0.0000 -0.9838 0.1790
vn -0.7059 0.7059 -0.0576
vn -0.7071 0.7071 0.0000
vn -1.0000 0.0000 0.0000
vn -0.9983 0.0000 -0.0579
vn -0.9838 0.0000 0.1790
vn 0.0000 0.9983 -0.0579
vn 0.0000 1.0000 0.0000
vn -0.6909 0.6909 0.2127
vn 0.7059 0.7059 -0.0576
vn 0.7071 0.7071 0.0000
vn 0.0000 0.9838 0.1790
vn 0.9983 0.0000 -0.0579
vn 1.0000 0.0000 0.0000
vn 0.6909 0.6909 0.2127
vn 0.7059 -0.7059 -0.0576
vn 0.7071 -0.7071 0.0000
vn 0.9838 0.0000 0.1790
vn 0.0000 -1.0000 0.0000
vn 0.6909 -0.6909 0.2127
vn -0.7071 -0.7071 0.0000
vn 0.0000 0.9841 -0.1776
vn 0.6964 0.6964 -0.1729
vn -0.6964 0.6964 -0.1729
vn 0.6964 -0.6964 -0.1729
vn 0.0000 -0.9841 -0.1776
vn 0.9841 0.0000 -0.1776
vn -0.9841 0.0000 -0.1776
vn -0.6964 -0.6964 -0.1729
vn 0.0000 0.0000 1.0000
vn -0.9269 0.0000 -0.3753
vn 0.0000 0.9269 -0.3753
vn 0.9269 0.0000 -0.3753
vn 0.0000 -0.9269 -0.3753
vn -0.6964 -0.6964 0.1729
vn 0.0000 -0.9841 0.1776
vn 0.6964 -0.6964 0.1729
vn 0.0000 0.9841 0.1776
vn -0.6964 0.6964 0.1729
vn -0.9841 0.0000 0.1776
vn 0.9841 0.0000 0.1776
vn 0.6964 0.6964 0.1729
vn -0.7060 0.7060 -0.0567
vn -0.9983 0.0000 -0.0586
vn -0.7060 -0.7060 -0.0567
vn 0.9983 0.0000 -0.0586
vn 0.7060 0.7060 -0.0567
vn 0.0000 0.9983 -0.0586
vn 0.0000 -0.9983 -0.0586
vn 0.7060 -0.7060 -0.0567
vn 0.7060 -0.7060 0.0567
vn 0.9983 0.0000 0.0586
vn 0.7060 0.7060 0.0567
vn -0.9983 0.0000 0.0586
vn -0.7060 -0.7060 0.0567
vn 0.0000 -0.9983 0.0586
vn 0.0000 0.9983 0.0586
vn -0.7060 0.7060 0.0567
vn 0.0000 0.9957 -0.0927
vn -0.7038 0.7038 -0.0961
vn -0.9957 0.0000 -0.0927
vn 0.7038 -0.7038 -0.0961
vn 0.9957 0.0000 -0.0927
vn 0.7038 0.7038 -0.0961
vn -0.7038 -0.7038 -0.0961
vn 0.0000 -0.9957 -0.0927
vn 0.0000 -0.9957 0.0927
vn 0.7038 -0.7038 0.0961
vn 0.9957 0.0000 0.0927
vn -0.7038 0.7038 0.0961
vn -0.9957 0.0000 0.0927
vn -0.7038 -0.7038 0.0961
vn 0.7038 0.7038 0.0961
vn 0.0000 0.9957 0.0927
usemtl mat_broom
s 1
f 1/1/1 5/2/2 3/3/3
f 19/4/4 3/5/3 5/6/2 20/7/5
f 1/1/1 7/8/6 5/2/2
f 20/7/5 5/6/2 7/9/6 22/10/7
f 1/1/1 9/11/8 7/8/6
f 22/10/7 7/9/6 9/12/8 24/13/9
f 1/1/1 11/14/10 9/11/8
f 24/13/9 9/12/8 11/15/10 26/16/11
f 1/1/1 13/17/12 11/14/10
f 26/16/11 11/15/10 13/18/12 28/19/13
f 1/1/1 15/20/14 13/17/12
f 28/19/13 13/18/12 15/21/14 30/22/15
f 1/1/1 17/23/16 15/20/14
f 30/22/15 15/21/14 17/24/16 32/25/17
f 1/1/1 3/3/3 17/23/16
f 32/25/17 17/24/16 3/26/3 19/27/4
f 16/28/18 33/29/19 18/30/20 2/31/21
f 29/32/22 41/33/23 40/34/24 31/35/25
f 14/36/26 31/35/25 33/29/19 16/28/18
f 27/37/27 36/38/28 41/33/23 29/32/22
f 12/39/29 29/32/22 31/35/25 14/36/26
f 25/40/30 34/41/31 36/38/28 27/37/27
f 10/42/32 27/37/27 29/32/22 12/39/29
f 23/43/33 37/44/34 34/41/31 25/40/30
f 8/45/35 25/40/30 27/37/27 10/42/32
f 21/46/36 35/47/37 37/44/34 23/43/33
f 6/48/38 23/43/33 25/40/30 8/45/35
f 18/49/20 38/50/39 35/47/37 21/46/36
f 4/51/40 21/46/36 23/43/33 6/48/38
f 31/35/25 40/34/24 39/52/41 33/29/19
f 2/53/21 18/49/20 21/46/36 4/51/40
f 33/29/19 39/52/41 38/54/39 18/30/20
f 38/50/39 19/4/4 20/7/5 35/47/37
f 35/47/37 20/7/5 22/10/7 37/44/34
f 37/44/34 22/10/7 24/13/9 34/41/31
f 34/41/31 24/13/9 26/16/11 36/38/28
f 36/38/28 26/16/11 28/19/13 41/33/23
f 41/33/23 28/19/13 30/22/15 40/34/24
f 40/34/24 30/22/15 32/25/17 39/52/41
f 39/52/41 32/25/17 19/27/4 38/54/39
f 8/45/35 10/42/32 46/55/42 45/56/43
f 10/42/32 12/39/29 47/57/44 46/55/42
f 2/53/21 4/51/40 43/58/45 42/59/46
f 4/51/40 6/48/38 44/60/47 43/58/45
f 12/39/29 14/36/26 48/61/48 47/57/44
f 16/28/18 2/31/21 42/62/46 49/63/49
f 6/48/38 8/45/35 45/56/43 44/60/47
f 14/36/26 16/28/18 49/63/49 48/61/48
f 50/64/50 2/65/21 4/66/40
f 50/64/50 4/66/40 6/67/38
f 50/64/50 6/67/38 8/68/35
f 50/64/50 8/68/35 10/69/32
f 50/64/50 10/69/32 12/70/29
f 50/64/50 12/70/29 14/71/26
f 50/64/50 14/71/26 16/72/18
f 50/64/50 16/72/18 2/65/21
f 58/73/51 56/74/52 51/75/1
f 59/76/53 56/74/52 53/77/28 55/78/34
f 58/73/51 57/79/54 54/80/39 52/81/24
f 57/82/54 59/76/53 55/78/34 54/83/39
f 51/84/1 59/76/53 57/82/54
f 51/75/1 57/79/54 58/73/51
f 51/84/1 56/74/52 59/76/53
f 52/81/24 53/77/28 56/74/52 58/73/51
f 63/85/55 71/86/55 72/87/56 64/88/56
f 64/88/56 72/87/56 73/89/57 65/90/57
f 60/91/58 68/92/58 69/93/59 61/94/59
f 61/94/59 69/93/59 70/95/60 62/96/60
f 65/90/57 73/89/57 74/97/61 66/98/61
f 67/99/62 75/100/62 68/101/58 60/102/58
f 62/96/60 70/95/60 71/86/55 63/85/55
f 66/98/61 74/97/61 75/100/62 67/99/62
f 79/103/63 80/104/64 88/105/64 87/106/63
f 80/104/64 81/107/65 89/108/65 88/105/64
f 76/109/66 77/110/67 85/111/67 84/112/66
f 77/110/67 78/113/68 86/114/68 85/111/67
f 81/107/65 82/115/69 90/116/69 89/108/65
f 83/117/70 76/118/66 84/119/66 91/120/70
f 78/113/68 79/103/63 87/106/63 86/114/68
f 82/115/69 83/117/70 91/120/70 90/116/69
f 95/121/71 103/122/71 104/123/72 96/124/72
f 96/124/72 104/123/72 105/125/73 97/126/73
f 92/127/74 100/128/74 101/129/75 93/130/75
f 93/130/75 101/129/75 102/131/76 94/132/76
f 97/126/73 105/125/73 106/133/77 98/134/77
f 99/135/78 107/136/78 100/137/74 92/138/74
f 94/132/76 102/131/76 103/122/71 95/121/71
f 98/134/77 106/133/77 107/136/78 99/135/78
f 111/139/79 112/140/80 120/141/80 119/142/79
f 112/140/80 113/143/81 121/144/81 120/141/80
f 108/145/82 109/146/83 117/147/83 116/148/82
f 109/146/83 110/149/84 118/150/84 117/147/83
f 113/143/81 114/151/85 122/152/85 121/144/81
f 115/153/86 108/154/82 116/155/82 123/156/86
f 110/149/84 111/139/79 119/142/79 118/150/84
f 114/151/85 115/153/86 123/156/86 122/152/85
f 127/157/87 135/158/87 136/159/88 128/160/88
f 128/160/88 136/159/88 137/161/89 129/162/89
f 124/163/90 132/164/90 133/165/91 125/166/91
f 125/166/91 133/165/91 134/167/92 126/168/92
f 129/162/89 137/161/89 138/169/93 130/170/93
f 131/171/94 139/172/94 132/173/90 124/174/90
f 126/168/92 134/167/92 135/158/87 127/157/87
f 130/170/93 138/169/93 139/172/94 131/171/94
