# Blender v2.79 (sub 0) OBJ File: 'medieval_tools.blend'
# www.blender.org
mtllib hoe_1_001.mtl
o hoe
v 0.072374 0.000000 1.265188
v 0.072374 0.000000 1.319188
v 0.086848 0.000000 1.265188
v 0.086848 0.000000 1.100188
v 0.072374 0.000000 1.100188
v 0.052109 0.000000 -1.405996
v 0.086848 0.000000 1.223938
v 0.056848 -0.115427 1.231808
v 0.056848 -0.115427 1.258794
v 0.360136 -0.132638 1.219810
v 0.360136 -0.132638 1.242986
v 0.246636 -0.358102 1.221102
v 0.328514 -0.257345 1.230145
v 0.128143 -0.409235 1.216489
v 0.328336 -0.257667 1.220889
v -0.072374 0.000000 1.265188
v -0.072374 0.000000 1.319188
v -0.086848 0.000000 1.265188
v -0.086848 0.000000 1.100188
v -0.072374 0.000000 1.100188
v -0.052109 0.000000 -1.405996
v -0.086848 0.000000 1.223938
v -0.056848 -0.115427 1.231808
v -0.056848 -0.115427 1.258794
v -0.360136 -0.132638 1.219810
v -0.360136 -0.132638 1.242986
v -0.246636 -0.358102 1.221102
v -0.328514 -0.257345 1.230145
v -0.128143 -0.409235 1.216489
v -0.328336 -0.257667 1.220889
v 0.000000 -0.072374 1.265188
v 0.000000 0.072374 1.265188
v 0.000000 0.072374 1.319188
v 0.000000 -0.072374 1.319188
v 0.000000 -0.086848 1.100188
v 0.000000 0.086848 1.100188
v 0.000000 0.086848 1.265188
v 0.000000 0.072374 1.100188
v 0.000000 -0.072374 1.100188
v 0.000000 0.052109 -1.456396
v 0.000000 -0.052109 -1.456396
v 0.000000 -0.086848 1.227498
v 0.000000 -0.115427 1.258794
v 0.000000 -0.115427 1.231808
v 0.000000 -0.425076 1.215414
vt 0.463067 0.877239
vt 0.565937 0.877239
vt 0.565937 0.980108
vt 0.687858 0.959566
vt 0.789859 0.959566
vt 0.789859 0.987216
vt 0.687858 0.987216
vt 0.585856 0.959566
vt 0.585856 0.987216
vt 0.477834 0.421342
vt 0.411751 0.498727
vt 0.477834 0.387514
vt 0.567351 0.129249
vt 0.530030 0.149633
vt 0.507317 0.128665
vt 0.567305 0.095305
vt 0.516333 0.188240
vt 0.484458 0.188240
vt 0.382864 0.498727
vt 0.477834 0.387514
vt 0.351613 0.425931
vt 0.351613 0.498727
vt 0.436077 0.074355
vt 0.378411 0.188239
vt 0.399549 0.066402
vt 0.687505 0.010443
vt 0.789862 0.010443
vt 0.789862 0.951809
vt 0.687505 0.951809
vt 0.585824 0.010443
vt 0.585824 0.951809
vt 0.543916 0.498727
vt 0.572803 0.498727
vt 0.463067 0.980108
vt 0.463067 0.877239
vt 0.565937 0.980108
vt 0.508915 0.008833
vt 0.476981 0.355359
vt 0.351613 0.425931
vt 0.372867 0.384276
vt 0.351613 0.498727
vt 0.196424 0.078051
vt 0.086246 0.182899
vt 0.332793 0.037558
vt 0.355770 0.032419
vt 0.030331 0.334634
vt 0.013009 0.498727
vt 0.196072 0.078279
vt 0.332793 0.037558
vt 0.332693 0.008555
vt 0.191075 0.049201
vt 0.463067 0.980108
vt 0.891861 0.959566
vt 0.891861 0.987216
vt 0.993863 0.959566
vt 0.993863 0.987216
vt 0.477834 0.576113
vt 0.477834 0.609940
vt 0.567351 0.247232
vt 0.567305 0.281176
vt 0.507317 0.247815
vt 0.530029 0.226847
vt 0.351613 0.571524
vt 0.477834 0.609940
vt 0.436075 0.302124
vt 0.399547 0.310077
vt 0.892220 0.010443
vt 0.892220 0.951809
vt 0.993904 0.010443
vt 0.993904 0.951809
vt 0.565937 0.877239
vt 0.508913 0.367648
vt 0.476981 0.642096
vt 0.372867 0.613178
vt 0.351613 0.571524
vt 0.196424 0.919403
vt 0.086246 0.814556
vt 0.355770 0.965036
vt 0.332793 0.959897
vt 0.030331 0.662821
vt 0.196072 0.919175
vt 0.332793 0.959897
vt 0.332692 0.988899
vt 0.191075 0.948253
vn 0.0000 -0.8165 0.5773
vn 0.8165 0.0000 0.5773
vn 0.0000 0.8165 0.5773
vn 0.4264 0.0000 0.9045
vn 0.0000 0.4264 0.9045
vn 0.0000 -0.4894 0.8720
vn 0.7633 0.1972 0.6151
vn 0.0000 -0.4233 -0.9060
vn 0.4244 0.0000 -0.9055
vn 0.8165 0.0000 -0.5773
vn 0.0000 -0.8165 -0.5773
vn 0.0000 0.4233 -0.9060
vn 0.0000 0.8165 -0.5773
vn 0.0000 -0.4864 -0.8737
vn 0.9849 0.1354 -0.1080
vn 0.3097 0.2044 -0.9286
vn 0.0000 -0.0273 -0.9996
vn 0.9739 0.0000 -0.2270
vn 0.0000 0.7085 -0.7057
vn 0.0000 -0.7085 -0.7057
vn 0.3549 0.1056 0.9289
vn 0.0000 -0.1095 0.9940
vn 0.6735 -0.3910 0.6273
vn 0.3613 -0.9298 -0.0694
vn 0.6691 0.4603 0.5835
vn 0.6525 0.4883 -0.5794
vn 0.2740 -0.9572 -0.0934
vn 0.0000 -0.9956 -0.0939
vn 0.6615 -0.3353 -0.6708
vn -0.8165 0.0000 0.5773
vn -0.4264 0.0000 0.9045
vn -0.7633 0.1972 0.6151
vn -0.8165 0.0000 -0.5773
vn -0.4244 0.0000 -0.9055
vn -0.3097 0.2044 -0.9286
vn -0.9849 0.1354 -0.1080
vn -0.9739 0.0000 -0.2270
vn -0.3549 0.1056 0.9289
vn -0.6735 -0.3910 0.6273
vn -0.3613 -0.9298 -0.0694
vn -0.6525 0.4883 -0.5794
vn -0.6691 0.4603 0.5835
vn -0.2740 -0.9572 -0.0934
vn -0.6615 -0.3353 -0.6708
usemtl mat_hoe
s 1
f 34/1/1 2/2/2 33/3/3
f 1/4/4 32/5/5 33/6/3 2/7/2
f 31/8/6 1/4/4 2/7/2 34/9/1
f 1/10/4 31/11/6 3/12/7
f 39/13/8 5/14/9 4/15/10 35/16/11
f 5/14/9 38/17/12 36/18/13 4/15/10
f 42/19/14 7/20/15 8/21/16 44/22/17
f 7/23/15 36/18/13 37/24/3 3/25/7
f 6/26/18 40/27/19 38/28/12 5/29/9
f 41/30/20 6/26/18 5/29/9 39/31/8
f 32/32/5 1/10/4 3/12/7 37/33/3
f 6/34/18 41/35/20 40/36/19
f 4/15/10 36/18/13 7/23/15
f 35/16/11 4/15/10 7/23/15 42/37/14
f 7/38/15 3/12/7 9/39/21 8/40/16
f 3/12/7 31/11/6 43/41/22 9/39/21
f 13/42/23 43/41/22 12/43/24
f 8/40/16 9/39/21 11/44/25 10/45/26
f 44/22/17 14/46/27 45/47/28
f 9/39/21 43/41/22 13/42/23 11/44/25
f 12/43/24 43/41/22 14/46/27
f 12/43/24 44/22/17 15/48/29
f 14/46/27 43/41/22 45/47/28
f 15/48/29 44/22/17 8/21/16 10/49/26
f 14/46/27 44/22/17 12/43/24
f 10/50/26 11/44/25 13/42/23 15/51/29
f 12/43/24 15/51/29 13/42/23
f 34/1/1 33/3/3 17/52/30
f 16/53/31 17/54/30 33/6/3 32/5/5
f 31/55/6 34/56/1 17/54/30 16/53/31
f 16/57/31 18/58/32 31/11/6
f 39/59/8 35/60/11 19/61/33 20/62/34
f 20/62/34 19/61/33 36/18/13 38/17/12
f 42/19/14 44/22/17 23/63/35 22/64/36
f 22/65/36 18/66/32 37/24/3 36/18/13
f 21/67/37 20/68/34 38/28/12 40/27/19
f 41/69/20 39/70/8 20/68/34 21/67/37
f 32/32/5 37/33/3 18/58/32 16/57/31
f 21/71/37 40/36/19 41/35/20
f 19/61/33 22/65/36 36/18/13
f 35/60/11 42/72/14 22/65/36 19/61/33
f 22/73/36 23/74/35 24/75/38 18/58/32
f 18/58/32 24/75/38 43/41/22 31/11/6
f 28/76/39 27/77/40 43/41/22
f 23/74/35 25/78/41 26/79/42 24/75/38
f 44/22/17 45/47/28 29/80/43
f 24/75/38 26/79/42 28/76/39 43/41/22
f 27/77/40 29/80/43 43/41/22
f 27/77/40 30/81/44 44/22/17
f 29/80/43 45/47/28 43/41/22
f 30/81/44 25/82/41 23/63/35 44/22/17
f 29/80/43 27/77/40 44/22/17
f 25/83/41 30/84/44 28/76/39 26/79/42
f 27/77/40 28/76/39 30/84/44
