# Blender v2.79 (sub 0) OBJ File: 'medieval_weapon_pack.blend'
# www.blender.org
mtllib one_handed_mace_1_001.mtl.mtl
o one_handed_mace_1
v 0.171600 0.000000 0.939550
v 0.038829 0.000000 0.806779
v 0.054360 0.000000 -0.451598
v 0.038829 0.000000 -0.409659
v -0.171600 0.000000 0.939550
v 0.000000 0.171600 0.939550
v 0.000000 0.000000 1.111150
v 0.000000 -0.171600 0.939550
v 0.000000 0.038829 0.806779
v -0.038829 0.000000 0.806779
v 0.000000 0.000000 -0.510697
v 0.000000 -0.038829 0.806779
v 0.000000 0.054360 -0.451598
v -0.054360 0.000000 -0.451598
v 0.000000 -0.038829 -0.409659
v 0.000000 -0.054360 -0.451598
v 0.000000 0.038829 -0.409659
v -0.038829 0.000000 -0.409659
v -0.000000 0.116816 0.885535
v 0.054014 0.116816 0.939550
v -0.000000 0.116816 0.993564
v -0.054014 0.116816 0.939550
v -0.000000 0.224845 0.939550
v 0.116816 0.000000 0.885535
v 0.116816 -0.054014 0.939550
v 0.116816 0.000000 0.993564
v 0.116816 0.054014 0.939550
v 0.224845 0.000000 0.939550
v 0.000000 -0.116816 0.885535
v -0.054014 -0.116816 0.939550
v 0.000000 -0.116816 0.993564
v 0.054014 -0.116816 0.939550
v 0.000000 -0.224845 0.939550
v -0.116816 -0.000000 0.885535
v -0.116816 0.054014 0.939550
v -0.116816 -0.000000 0.993564
v -0.116816 -0.054014 0.939550
v -0.224845 -0.000000 0.939550
v -0.054014 -0.000000 1.056366
v -0.000000 0.054014 1.056366
v 0.054014 -0.000000 1.056366
v -0.000000 -0.054014 1.056366
v -0.000000 -0.000000 1.164394
v 0.094202 -0.055703 0.958566
v 0.034101 -0.099949 0.974853
v 0.017814 -0.055703 1.034954
v 0.077915 -0.011457 1.018667
v 0.118581 -0.117666 1.059333
v -0.018573 0.056021 0.845927
v -0.034860 0.100267 0.906028
v -0.094961 0.056021 0.922315
v -0.078674 0.011775 0.862214
v -0.119340 0.117984 0.821548
v -0.018781 -0.056178 0.845583
v -0.078882 -0.011932 0.861870
v -0.095169 -0.056178 0.921971
v -0.035068 -0.100424 0.905684
v -0.119548 -0.118140 0.821204
v 0.093936 0.055389 0.958436
v 0.077649 0.011143 1.018537
v 0.017548 0.055389 1.034824
v 0.033834 0.099635 0.974723
v 0.118315 0.117352 1.059203
v -0.093967 -0.056178 0.958331
v -0.077680 -0.011932 1.018432
v -0.017579 -0.056178 1.034719
v -0.033865 -0.100424 0.974618
v -0.118346 -0.118140 1.059098
v 0.018886 0.055389 0.845614
v 0.078987 0.011143 0.861901
v 0.095274 0.055389 0.922002
v 0.035173 0.099635 0.905715
v 0.119653 0.117352 0.821235
v 0.019016 -0.055703 0.845348
v 0.035303 -0.099949 0.905449
v 0.095404 -0.055703 0.921736
v 0.079117 -0.011457 0.861635
v 0.119784 -0.117666 0.820969
v -0.093623 0.056021 0.958123
v -0.033522 0.100267 0.974410
v -0.017235 0.056021 1.034511
v -0.077336 0.011775 1.018224
v -0.118002 0.117984 1.058890
vt 0.377152 0.198566
vt 0.315300 0.079390
vt 0.402949 0.116831
vt 0.080262 0.592528
vt 0.296702 0.753415
vt 0.129129 0.964721
vt 0.502667 0.927510
vt 0.239394 0.117378
vt 0.295819 0.133843
vt 0.962064 0.395500
vt 0.037936 0.353783
vt 0.962064 0.353783
vt 0.037936 0.312067
vt 0.962064 0.312067
vt 0.502667 0.622574
vt 0.417551 0.601027
vt 0.377180 0.523058
vt 0.237362 0.220449
vt 0.098543 0.193074
vt 0.165044 0.076428
vt 0.182364 0.131606
vt 0.925073 0.592528
vt 0.876206 0.964721
vt 0.708633 0.753415
vt 0.037936 0.437217
vt 0.962064 0.437217
vt 0.037936 0.478934
vt 0.962064 0.478934
vt 0.587784 0.601027
vt 0.628155 0.523058
vt 0.954475 0.207218
vt 0.727813 0.267952
vt 0.872702 0.083367
vt 0.732973 0.033351
vt 0.591181 0.077174
vt 0.504040 0.197309
vt 0.872702 0.083367
vt 0.727813 0.267952
vt 0.732973 0.033351
vt 0.591181 0.077174
vt 0.504040 0.197309
vt 0.954475 0.207218
vt 0.732973 0.033351
vt 0.727813 0.267952
vt 0.591181 0.077174
vt 0.504040 0.197309
vt 0.954475 0.207218
vt 0.872702 0.083367
vt 0.591181 0.077174
vt 0.727813 0.267952
vt 0.504040 0.197309
vt 0.954475 0.207218
vt 0.872702 0.083367
vt 0.732973 0.033351
vt 0.591181 0.077174
vt 0.727813 0.267952
vt 0.504040 0.197309
vt 0.954475 0.207218
vt 0.872702 0.083367
vt 0.732973 0.033351
vt 0.872702 0.083367
vt 0.727813 0.267952
vt 0.732973 0.033351
vt 0.591181 0.077174
vt 0.504040 0.197309
vt 0.954475 0.207218
vt 0.591181 0.077174
vt 0.727813 0.267952
vt 0.504040 0.197309
vt 0.954475 0.207218
vt 0.872702 0.083367
vt 0.732973 0.033351
vt 0.591181 0.077174
vt 0.727813 0.267952
vt 0.504040 0.197309
vt 0.954475 0.207218
vt 0.872702 0.083367
vt 0.732973 0.033351
vt 0.872702 0.083367
vt 0.727813 0.267952
vt 0.732973 0.033351
vt 0.591181 0.077174
vt 0.504040 0.197309
vt 0.954475 0.207218
vt 0.591181 0.077174
vt 0.727813 0.267952
vt 0.504040 0.197309
vt 0.954475 0.207218
vt 0.872702 0.083367
vt 0.732973 0.033351
vt 0.872702 0.083367
vt 0.727813 0.267952
vt 0.732973 0.033351
vt 0.591181 0.077174
vt 0.504040 0.197309
vt 0.954475 0.207218
vt 0.872702 0.083367
vt 0.727813 0.267952
vt 0.732973 0.033351
vt 0.591181 0.077174
vt 0.504040 0.197309
vt 0.954475 0.207218
vt 0.591181 0.077174
vt 0.727813 0.267952
vt 0.504040 0.197309
vt 0.954475 0.207218
vt 0.872702 0.083367
vt 0.732973 0.033351
vt 0.240270 0.072940
vt 0.037936 0.395500
vt 0.075987 0.110386
vn 0.0000 -0.9872 -0.1597
vn 0.9814 0.0000 0.1920
vn 0.0000 -0.9814 0.1920
vn 0.0000 -1.0000 0.0000
vn 1.0000 0.0000 0.0000
vn 0.0000 0.0000 1.0000
vn 0.0000 1.0000 0.0000
vn 0.0000 0.9872 -0.1597
vn 0.9872 0.0000 -0.1597
vn 0.0000 0.9814 0.1920
vn 0.8867 0.0000 -0.4622
vn 0.0000 -0.8867 -0.4622
vn 0.0000 0.8867 -0.4622
vn 0.0000 0.0000 -1.0000
vn -0.9814 0.0000 0.1920
vn -0.9872 0.0000 -0.1597
vn -1.0000 0.0000 0.0000
vn -0.8867 0.0000 -0.4622
vn 0.0000 0.4472 -0.8944
vn 0.8944 0.4472 0.0000
vn 0.0000 0.4472 0.8944
vn -0.8944 0.4472 0.0000
vn 0.4472 0.0000 -0.8944
vn 0.4472 -0.8944 0.0000
vn 0.4472 0.0000 0.8944
vn 0.4472 0.8944 0.0000
vn 0.0000 -0.4472 -0.8944
vn -0.8944 -0.4472 0.0000
vn 0.0000 -0.4472 0.8944
vn 0.8944 -0.4472 0.0000
vn -0.4472 0.0000 -0.8944
vn -0.4472 0.8944 0.0000
vn -0.4472 0.0000 0.8944
vn -0.4472 -0.8944 0.0000
vn -0.8944 0.0000 0.4472
vn 0.0000 0.8944 0.4472
vn 0.8944 0.0000 0.4472
vn 0.0000 -0.8944 0.4472
vn 0.8915 -0.2565 -0.3734
vn 0.5792 -0.5736 0.5792
vn -0.1037 -0.9892 -0.1037
vn -0.3734 -0.2565 0.8915
vn 0.6218 0.4761 0.6218
vn 0.3734 0.2565 -0.8915
vn -0.5792 0.5736 -0.5792
vn 0.1037 0.9892 0.1037
vn -0.8915 0.2565 0.3734
vn -0.6218 -0.4761 -0.6218
vn 0.3734 -0.2565 -0.8915
vn -0.5792 -0.5736 -0.5792
vn -0.6218 0.4761 -0.6218
vn -0.8915 -0.2565 0.3734
vn 0.1037 -0.9892 0.1037
vn 0.8915 0.2565 -0.3734
vn 0.5792 0.5736 0.5792
vn 0.6218 -0.4761 0.6218
vn -0.3734 0.2565 0.8915
vn -0.1037 0.9892 -0.1037
vn -0.8915 -0.2565 -0.3734
vn -0.5792 -0.5736 0.5792
vn -0.6218 0.4761 0.6218
vn 0.3734 -0.2565 0.8915
vn 0.1037 -0.9892 -0.1037
vn -0.3734 0.2565 -0.8915
vn 0.5792 0.5736 -0.5792
vn 0.6218 -0.4761 -0.6218
vn 0.8915 0.2565 0.3734
vn -0.1037 0.9892 0.1037
vn -0.3734 -0.2565 -0.8915
vn 0.5792 -0.5736 -0.5792
vn -0.1037 -0.9892 0.1037
vn 0.8915 -0.2565 0.3734
vn 0.6218 0.4761 -0.6218
vn -0.8915 0.2565 -0.3734
vn -0.5792 0.5736 0.5792
vn 0.1037 0.9892 -0.1037
vn 0.3734 0.2565 0.8915
vn -0.6218 -0.4761 0.6218
usemtl mat_one_handed_mace_1
s 1
f 16/1/1 4/2/2 15/3/3
f 8/4/4 1/5/5 7/6/6
f 1/5/5 6/7/7 7/6/6
f 13/8/8 4/2/2 3/9/9
f 17/10/10 2/11/11 4/12/2
f 4/12/2 12/13/12 15/14/3
f 9/15/13 1/5/5 2/16/11
f 12/17/12 1/5/5 8/4/4
f 11/18/14 13/8/8 3/9/9
f 11/18/14 3/9/9 16/1/1
f 16/19/1 18/20/15 14/21/16
f 8/22/4 7/23/6 5/24/17
f 5/24/17 7/23/6 6/7/7
f 18/20/15 13/8/8 14/21/16
f 10/25/18 17/10/10 18/26/15
f 12/27/12 18/26/15 15/28/3
f 5/24/17 9/15/13 10/29/18
f 5/24/17 12/30/12 8/22/4
f 11/18/14 14/21/16 13/8/8
f 11/18/14 16/19/1 14/21/16
f 19/31/19 23/32/7 20/33/20
f 20/33/20 23/32/7 21/34/21
f 21/34/21 23/32/7 22/35/22
f 22/35/22 23/32/7 19/36/19
f 24/37/23 28/38/5 25/39/24
f 25/39/24 28/38/5 26/40/25
f 26/40/25 28/38/5 27/41/26
f 27/42/26 28/38/5 24/37/23
f 29/43/27 33/44/4 30/45/28
f 30/45/28 33/44/4 31/46/29
f 31/47/29 33/44/4 32/48/30
f 32/48/30 33/44/4 29/43/27
f 34/49/31 38/50/17 35/51/32
f 35/52/32 38/50/17 36/53/33
f 36/53/33 38/50/17 37/54/34
f 37/54/34 38/50/17 34/49/31
f 39/55/35 43/56/6 40/57/36
f 40/58/36 43/56/6 41/59/37
f 41/59/37 43/56/6 42/60/38
f 42/60/38 43/56/6 39/55/35
f 44/61/39 48/62/40 45/63/41
f 45/63/41 48/62/40 46/64/42
f 46/64/42 48/62/40 47/65/43
f 47/66/43 48/62/40 44/61/39
f 49/67/44 53/68/45 50/69/46
f 50/70/46 53/68/45 51/71/47
f 51/71/47 53/68/45 52/72/48
f 52/72/48 53/68/45 49/67/44
f 54/73/49 58/74/50 55/75/51
f 55/76/51 58/74/50 56/77/52
f 56/77/52 58/74/50 57/78/53
f 57/78/53 58/74/50 54/73/49
f 59/79/54 63/80/55 60/81/56
f 60/81/56 63/80/55 61/82/57
f 61/82/57 63/80/55 62/83/58
f 62/84/58 63/80/55 59/79/54
f 64/85/59 68/86/60 65/87/61
f 65/88/61 68/86/60 66/89/62
f 66/89/62 68/86/60 67/90/63
f 67/90/63 68/86/60 64/85/59
f 69/91/64 73/92/65 70/93/66
f 70/93/66 73/92/65 71/94/67
f 71/94/67 73/92/65 72/95/68
f 72/96/68 73/92/65 69/91/64
f 74/97/69 78/98/70 75/99/71
f 75/99/71 78/98/70 76/100/72
f 76/100/72 78/98/70 77/101/73
f 77/102/73 78/98/70 74/97/69
f 79/103/74 83/104/75 80/105/76
f 80/106/76 83/104/75 81/107/77
f 81/107/77 83/104/75 82/108/78
f 82/108/78 83/104/75 79/103/74
f 16/1/1 3/9/9 4/2/2
f 13/8/8 17/109/10 4/2/2
f 17/10/10 9/110/13 2/11/11
f 4/12/2 2/11/11 12/13/12
f 9/15/13 6/7/7 1/5/5
f 12/17/12 2/16/11 1/5/5
f 16/19/1 15/111/3 18/20/15
f 18/20/15 17/109/10 13/8/8
f 10/25/18 9/110/13 17/10/10
f 12/27/12 10/25/18 18/26/15
f 5/24/17 6/7/7 9/15/13
f 5/24/17 10/29/18 12/30/12
