# Blender v2.79 (sub 0) OBJ File: 'medieval_weapon_pack.blend'
# www.blender.org
mtllib one_handed_axe_1_001.mtl
o one_handed_axe_1
v -0.042745 -0.055225 -0.355630
v 0.000000 -0.048083 0.949410
v 0.000000 -0.048083 0.927054
v 0.000000 -0.048083 0.808578
v 0.019187 -0.043275 0.297869
v -0.002175 -0.043275 -0.114775
v 0.000000 -0.062225 0.808578
v 0.000000 -0.062225 0.927054
v -0.211361 -0.009693 0.736631
v -0.211361 -0.009693 0.926802
v -0.072404 -0.019233 0.927054
v -0.072404 -0.019233 0.808578
v -0.163361 -0.009701 0.424631
v -0.119656 0.000000 -0.379628
v -0.048083 0.000000 0.969409
v -0.042745 0.055225 -0.355630
v 0.000000 0.048083 0.949410
v 0.048083 -0.000000 0.969409
v 0.015150 -0.000000 -0.409442
v -0.048083 0.000000 0.927054
v 0.000000 0.048083 0.927054
v 0.048083 -0.000000 0.927054
v 0.048083 -0.000000 0.808577
v -0.048083 0.000000 0.808577
v 0.000000 0.048083 0.808578
v 0.062456 -0.000000 0.297141
v -0.024082 0.000000 0.297141
v 0.019187 0.043275 0.297869
v 0.040079 -0.000000 -0.114753
v -0.044429 0.000000 -0.114753
v -0.002175 0.043275 -0.114775
v 0.000000 0.062225 0.808578
v 0.000000 0.062225 0.927054
v 0.062226 -0.000000 0.927054
v 0.062226 -0.000000 0.808577
v -0.211361 0.000000 0.736630
v -0.211361 0.000000 0.926802
v -0.211361 0.009693 0.736631
v -0.211361 0.009693 0.926802
v -0.072404 0.019233 0.927054
v -0.072404 0.019233 0.808578
v -0.403361 0.000000 0.736630
v -0.427361 0.000000 0.998802
v -0.283361 0.000000 0.424630
v -0.163361 0.009701 0.424631
v -0.163361 0.000000 0.424630
vt 0.499012 0.502413
vt 0.550396 0.481196
vt 0.556397 0.497530
vt 0.603293 0.464100
vt 0.576893 0.433021
vt 0.499012 0.461633
vt 0.063237 0.264809
vt 0.021544 0.335934
vt 0.014331 0.200803
vt 0.499999 0.726456
vt 0.459606 0.744706
vt 0.499999 0.719323
vt 0.562901 0.258734
vt 0.972592 0.200798
vt 0.973644 0.265255
vt 0.561531 0.316556
vt 0.973964 0.329841
vt 0.230484 0.257630
vt 0.227914 0.315186
vt 0.233642 0.200802
vt 0.403737 0.772769
vt 0.458183 0.756133
vt 0.423789 0.789524
vt 0.448284 0.646186
vt 0.499999 0.659708
vt 0.456814 0.640887
vt 0.377764 0.640530
vt 0.290054 0.812303
vt 0.222690 0.614730
vt 0.292821 0.821233
vt 0.226304 0.604229
vt 0.396253 0.613159
vt 0.443655 0.634643
vt 0.077617 0.429344
vt 0.076474 0.438207
vt 0.010320 0.471180
vt 0.096312 0.717522
vt 0.145770 0.938559
vt 0.447629 0.481196
vt 0.441628 0.497530
vt 0.394732 0.464100
vt 0.421132 0.433021
vt 0.063237 0.136797
vt 0.021543 0.065673
vt 0.540393 0.744705
vt 0.531364 0.748518
vt 0.562901 0.142867
vt 0.562791 0.200800
vt 0.561530 0.085045
vt 0.973644 0.136342
vt 0.230484 0.143974
vt 0.227913 0.086418
vt 0.541815 0.756133
vt 0.596262 0.772769
vt 0.576209 0.789524
vt 0.551714 0.646186
vt 0.499999 0.668615
vt 0.543185 0.640887
vt 0.622234 0.640530
vt 0.709944 0.812303
vt 0.707177 0.821233
vt 0.773695 0.604229
vt 0.603746 0.613159
vt 0.556344 0.634643
vt 0.922382 0.429344
vt 0.989679 0.471180
vt 0.923525 0.438207
vt 0.903687 0.717522
vt 0.777309 0.614730
vt 0.854229 0.938561
vt 0.468634 0.748518
vt 0.973963 0.071756
vn 0.4264 0.0000 0.9045
vn 0.0000 -0.9185 0.3953
vn 0.0000 -0.4264 0.9045
vn -0.4267 0.0000 0.9044
vn -0.7662 0.0000 0.6426
vn 0.7662 0.0000 0.6426
vn -0.0334 -0.9654 -0.2587
vn -0.8869 0.0000 -0.4619
vn 0.6299 0.0000 -0.7767
vn 0.1003 -0.7999 0.5916
vn 0.8165 0.0000 0.5773
vn 0.0203 -0.9998 -0.0056
vn 0.4355 0.0000 -0.9002
vn -0.0071 -0.4231 -0.9060
vn -1.0000 0.0000 0.0027
vn -0.3239 0.0000 -0.9461
vn 0.0280 -0.9994 0.0183
vn -0.9898 0.0000 0.1422
vn 0.9967 0.0000 -0.0809
vn -0.1932 -0.6160 0.7636
vn 0.1003 -0.7999 -0.5916
vn -0.0207 -0.8195 -0.5727
vn 0.0607 -0.7450 0.6643
vn 0.4106 -0.8773 -0.2485
vn 0.1593 0.0000 0.9872
vn 0.8904 0.0000 -0.4552
vn 0.7589 0.0000 -0.6511
vn 0.6036 -0.5934 -0.5325
vn -0.7855 0.0000 -0.6188
vn -0.9820 0.0000 -0.1888
vn -0.7490 0.0000 0.6625
vn 0.0000 0.9185 0.3953
vn 0.0000 0.4264 0.9045
vn -0.0334 0.9654 -0.2587
vn 0.1003 0.7999 0.5916
vn 0.0203 0.9998 -0.0056
vn 0.9999 0.0000 -0.0132
vn -0.0071 0.4231 -0.9060
vn 0.0280 0.9994 0.0183
vn -0.1932 0.6160 0.7636
vn 0.1003 0.7999 -0.5916
vn 0.8165 0.0000 -0.5773
vn -0.0207 0.8195 -0.5727
vn 0.0607 0.7450 0.6643
vn 0.6036 0.5934 -0.5325
vn 0.4106 0.8773 -0.2485
usemtl mat_one_handed_axe_1
s 1
f 22/1/1 2/2/2 3/3/3
f 20/4/4 2/2/2 15/5/5
f 15/5/5 2/2/2 18/6/6
f 1/7/7 14/8/8 19/9/9
f 22/10/1 8/11/10 34/12/11
f 5/13/12 23/14/13 4/15/14
f 27/16/15 4/15/14 24/17/16
f 6/18/17 27/16/15 30/19/18
f 29/20/19 5/13/12 6/18/17
f 1/7/7 29/20/19 6/18/17
f 1/7/7 30/19/18 14/8/8
f 11/21/20 3/22/3 20/23/4
f 7/24/21 34/12/11 8/11/10
f 23/25/13 7/24/21 4/26/14
f 12/27/22 10/28/23 9/29/24
f 11/21/20 37/30/25 10/28/23
f 12/27/22 36/31/26 24/32/16
f 4/33/14 12/27/22 24/32/16
f 7/24/21 11/21/20 12/27/22
f 46/34/27 13/35/28 44/36/29
f 10/28/23 42/37/30 9/29/24
f 10/28/23 37/30/25 43/38/31
f 9/29/24 44/36/29 13/35/28
f 36/31/26 13/35/28 46/34/27
f 17/39/32 22/1/1 21/40/33
f 20/41/4 17/39/32 21/40/33
f 15/42/5 18/6/6 17/39/32
f 16/43/34 19/9/9 14/44/8
f 22/10/1 33/45/35 21/46/33
f 28/47/36 23/14/13 26/48/37
f 27/49/15 25/50/38 28/47/36
f 27/49/15 31/51/39 30/52/18
f 28/47/36 29/20/19 31/51/39
f 16/43/34 29/20/19 19/9/9
f 30/52/18 16/43/34 14/44/8
f 21/53/33 40/54/40 20/55/4
f 32/56/41 34/12/11 35/57/42
f 32/56/41 23/25/13 25/58/38
f 41/59/43 39/60/44 40/54/40
f 40/54/40 37/61/25 20/55/4
f 36/62/26 41/59/43 24/63/16
f 25/64/38 41/59/43 32/56/41
f 32/56/41 40/54/40 33/45/35
f 46/65/27 44/66/29 45/67/45
f 42/68/30 39/60/44 38/69/46
f 39/60/44 43/70/31 37/61/25
f 38/69/46 44/66/29 42/68/30
f 36/62/26 45/67/45 38/69/46
f 22/1/1 18/6/6 2/2/2
f 20/4/4 3/3/3 2/2/2
f 22/10/1 3/71/3 8/11/10
f 5/13/12 26/48/37 23/14/13
f 27/16/15 5/13/12 4/15/14
f 6/18/17 5/13/12 27/16/15
f 29/20/19 26/48/37 5/13/12
f 1/7/7 19/9/9 29/20/19
f 1/7/7 6/18/17 30/19/18
f 11/21/20 8/11/10 3/22/3
f 7/24/21 35/57/42 34/12/11
f 23/25/13 35/57/42 7/24/21
f 12/27/22 11/21/20 10/28/23
f 11/21/20 20/23/4 37/30/25
f 12/27/22 9/29/24 36/31/26
f 4/33/14 7/24/21 12/27/22
f 7/24/21 8/11/10 11/21/20
f 10/28/23 43/38/31 42/37/30
f 9/29/24 42/37/30 44/36/29
f 36/31/26 9/29/24 13/35/28
f 17/39/32 18/6/6 22/1/1
f 20/41/4 15/42/5 17/39/32
f 22/10/1 34/12/11 33/45/35
f 28/47/36 25/50/38 23/14/13
f 27/49/15 24/72/16 25/50/38
f 27/49/15 28/47/36 31/51/39
f 28/47/36 26/48/37 29/20/19
f 16/43/34 31/51/39 29/20/19
f 30/52/18 31/51/39 16/43/34
f 21/53/33 33/45/35 40/54/40
f 32/56/41 33/45/35 34/12/11
f 32/56/41 35/57/42 23/25/13
f 41/59/43 38/69/46 39/60/44
f 40/54/40 39/60/44 37/61/25
f 36/62/26 38/69/46 41/59/43
f 25/64/38 24/63/16 41/59/43
f 32/56/41 41/59/43 40/54/40
f 42/68/30 43/70/31 39/60/44
f 38/69/46 45/67/45 44/66/29
f 36/62/26 46/65/27 45/67/45
