# Blender v2.79 (sub 0) OBJ File: 'medieval_tools.blend'
# www.blender.org
mtllib pitchfork_1_001.mtl
o pitchfork
v -0.030479 -0.006749 1.181794
v 0.000001 0.029483 1.132952
v 0.032281 -0.006749 1.181794
v 0.000001 -0.037284 1.132952
v -0.043843 -0.000000 1.109789
v 0.043842 -0.000000 1.109789
v 0.315990 -0.001942 1.226371
v 0.293940 0.028790 1.252917
v 0.293940 -0.036590 1.252917
v 0.269812 -0.006749 1.276794
v 0.400682 0.067720 2.125089
v -0.293940 -0.036590 1.252917
v -0.293940 0.028790 1.252917
v -0.269812 -0.006749 1.276794
v -0.315990 -0.001942 1.226371
v -0.400682 0.067720 2.125088
v 0.400301 -0.086030 1.818685
v 0.377529 -0.062493 1.808990
v 0.400301 -0.038956 1.799294
v 0.424599 -0.062493 1.808990
v -0.424599 -0.062493 1.808990
v -0.377529 -0.062493 1.808990
v -0.400301 -0.038956 1.799294
v -0.400301 -0.086030 1.818685
v -0.371741 -0.072269 1.484553
v -0.430578 -0.072269 1.484553
v -0.400205 -0.040584 1.481625
v -0.400205 -0.103954 1.487481
v 0.371741 -0.072269 1.484553
v 0.400205 -0.103954 1.487481
v 0.400205 -0.040584 1.481625
v 0.430578 -0.072269 1.484553
v 0.000001 0.067720 2.125089
v 0.000001 -0.086030 1.818685
v -0.022761 -0.062493 1.808990
v 0.000001 -0.038956 1.799294
v 0.024309 -0.062493 1.808990
v -0.028549 -0.072269 1.484553
v 0.000001 -0.103954 1.487481
v 0.000001 -0.040584 1.481625
v 0.030288 -0.072269 1.484553
v -0.000000 0.000000 -1.868474
v -0.060311 -0.000000 0.773074
v -0.000000 0.060311 0.773074
v 0.000000 -0.060311 0.773074
v 0.060311 0.000000 0.773074
v -0.000000 0.060311 -1.821397
v -0.000000 -0.060311 -1.821397
v -0.060311 0.000000 -1.821397
v 0.060311 0.000000 -1.821397
vt 0.235742 0.211961
vt 0.206673 0.193941
vt 0.071871 0.284483
vt 0.083306 0.305098
vt 0.028148 0.733173
vt 0.015547 0.733173
vt 0.027950 0.982416
vt 0.039957 0.733173
vt 0.028148 0.733173
vt 0.251548 0.249865
vt 0.375665 0.323641
vt 0.388178 0.305098
vt 0.235742 0.211961
vt 0.388178 0.305098
vt 0.264811 0.193941
vt 0.399613 0.284483
vt 0.443336 0.733173
vt 0.455937 0.733173
vt 0.443534 0.982416
vt 0.431527 0.733173
vt 0.443336 0.733173
vt 0.028198 0.483847
vt 0.042959 0.483847
vt 0.012447 0.483847
vt 0.028198 0.483847
vt 0.443286 0.483848
vt 0.428525 0.483847
vt 0.459038 0.483848
vt 0.443286 0.483848
vt 0.095819 0.323641
vt 0.083306 0.305098
vt 0.235741 0.733173
vt 0.223136 0.733173
vt 0.235741 0.982416
vt 0.247546 0.733173
vt 0.235741 0.733173
vt 0.235741 0.483847
vt 0.250548 0.483847
vt 0.220035 0.483847
vt 0.235741 0.483847
vt 0.219001 0.249865
vt 0.868571 0.092783
vt 0.733370 0.029076
vt 0.868571 0.011080
vt 0.611677 0.092783
vt 0.733370 0.989210
vt 0.611676 0.989210
vt 0.990514 0.028843
vt 0.990513 0.989210
vt 0.868571 0.989210
vt 0.476165 0.028843
vt 0.476165 0.989210
vt 0.235742 0.014000
vt 0.269944 0.014000
vt 0.235742 0.014000
vt 0.201541 0.014000
vt 0.611677 0.011080
vn -0.0007 -0.9956 -0.0936
vn 0.8383 0.0543 -0.5426
vn 0.7036 0.0857 -0.7054
vn 0.0645 -0.9706 -0.2317
vn -0.0150 -0.9633 0.2678
vn 0.9968 -0.0664 0.0448
vn -0.0003 0.3809 0.9246
vn -0.9970 -0.0640 0.0434
vn -0.0176 0.9893 -0.1450
vn -0.5701 0.0495 0.8201
vn 0.6752 0.0157 0.7374
vn -0.0650 -0.9704 -0.2323
vn 0.0003 0.9989 0.0466
vn -0.1602 0.9865 0.0322
vn -0.8383 0.0543 -0.5426
vn -0.7036 0.0857 -0.7054
vn 0.0176 0.9893 -0.1450
vn -0.9968 -0.0664 0.0448
vn 0.0003 0.3809 0.9246
vn 0.9970 -0.0640 0.0434
vn 0.0150 -0.9633 0.2678
vn 0.1334 0.9865 0.0946
vn -0.9717 -0.0677 0.2260
vn 0.9777 -0.0652 -0.1994
vn 0.0407 -0.9923 -0.1167
vn -0.0407 -0.9923 -0.1167
vn 0.9717 -0.0677 0.2260
vn -0.9777 -0.0652 -0.1994
vn -0.1334 0.9865 0.0946
vn -0.6750 0.0156 0.7376
vn 0.1597 0.9866 0.0332
vn -0.0145 -0.9633 0.2678
vn 0.9968 -0.0661 0.0454
vn -0.0015 0.3808 0.9246
vn -0.9970 -0.0643 0.0428
vn -0.0172 0.9893 -0.1450
vn -0.0156 0.9936 0.1121
vn -0.9997 -0.0241 0.0047
vn 0.9996 -0.0256 0.0049
vn -0.0142 -0.9981 -0.0591
vn 0.5396 0.0480 0.8405
vn -0.9269 0.0000 -0.3753
vn 0.0000 0.9269 -0.3753
vn 0.0000 0.0000 -1.0000
vn 0.9269 0.0000 -0.3753
vn 0.0000 0.9995 0.0328
vn 0.9994 0.0095 0.0319
vn 0.0000 -0.9269 -0.3753
vn 0.0000 -0.9996 0.0276
vn -0.9994 0.0095 0.0319
usemtl mat_pitchfork
s 1
f 4/1/1 6/2/2 7/3/3 9/4/4
f 17/5/5 20/6/6 11/7/7
f 18/8/8 17/5/5 11/7/7
f 20/6/6 19/9/9 11/7/7
f 19/9/9 18/8/8 11/7/7
f 4/1/1 1/10/10 14/11/11 12/12/12
f 2/13/13 13/14/14 14/11/11 1/10/10
f 2/13/13 5/15/15 15/16/16 13/14/14
f 23/17/17 21/18/18 16/19/19
f 22/20/20 23/17/17 16/19/19
f 21/18/18 24/21/21 16/19/19
f 24/21/21 22/20/20 16/19/19
f 31/22/22 29/23/23 18/8/8 19/9/9
f 32/24/24 31/22/22 19/9/9 20/6/6
f 29/23/23 30/25/25 17/5/5 18/8/8
f 30/25/25 32/24/24 20/6/6 17/5/5
f 28/26/26 25/27/27 22/20/20 24/21/21
f 26/28/28 28/26/26 24/21/21 21/18/18
f 25/27/27 27/29/29 23/17/17 22/20/20
f 27/29/29 26/28/28 21/18/18 23/17/17
f 13/14/14 15/16/16 26/28/28 27/29/29
f 14/11/11 13/14/14 27/29/29 25/27/27
f 15/16/16 12/12/12 28/26/26 26/28/28
f 12/12/12 14/11/11 25/27/27 28/26/26
f 9/4/4 7/3/3 32/24/24 30/25/25
f 10/30/30 9/4/4 30/25/25 29/23/23
f 7/3/3 8/31/31 31/22/22 32/24/24
f 8/31/31 10/30/30 29/23/23 31/22/22
f 34/32/32 37/33/33 33/34/34
f 35/35/35 34/32/32 33/34/34
f 37/33/33 36/36/36 33/34/34
f 36/36/36 35/35/35 33/34/34
f 40/37/37 38/38/38 35/35/35 36/36/36
f 41/39/39 40/37/37 36/36/36 37/33/33
f 38/38/38 39/40/40 34/32/32 35/35/35
f 39/40/40 41/39/39 37/33/33 34/32/32
f 4/1/1 3/41/41 41/39/39 39/40/40
f 1/10/10 4/1/1 39/40/40 38/38/38
f 3/41/41 2/13/13 40/37/37 41/39/39
f 2/13/13 1/10/10 38/38/38 40/37/37
f 8/31/31 7/3/3 6/2/2 2/13/13
f 8/31/31 2/13/13 3/41/41 10/30/30
f 9/4/4 10/30/30 3/41/41 4/1/1
f 12/12/12 15/16/16 5/15/15 4/1/1
f 49/42/42 47/43/43 42/44/44
f 50/45/45 47/43/43 44/46/46 46/47/47
f 49/42/42 48/48/48 45/49/49 43/50/50
f 48/51/48 50/45/45 46/47/47 45/52/49
f 44/53/46 43/54/50 5/15/15 2/13/13
f 43/54/50 45/55/49 4/1/1 5/15/15
f 45/55/49 46/56/47 6/2/2 4/1/1
f 46/56/47 44/53/46 2/13/13 6/2/2
f 42/57/44 50/45/45 48/51/48
f 42/44/44 48/48/48 49/42/42
f 42/57/44 47/43/43 50/45/45
f 43/50/50 44/46/46 47/43/43 49/42/42
