# Blender v2.79 (sub 0) OBJ File: 'medieval_tools.blend'
# www.blender.org
mtllib shovel_1_001.mtl
o shovel
v -0.043843 -0.000000 0.609789
v -0.293940 -0.099709 0.756412
v -0.293940 -0.036556 0.756412
v -0.315990 -0.073112 0.721810
v -0.400301 0.036903 1.515238
v -0.430578 -0.074220 0.990422
v -0.400205 -0.043615 0.990422
v -0.400205 -0.104825 0.990422
v -0.059105 -0.000000 0.273074
v -0.059105 0.000000 -1.249999
v 0.000000 0.029483 0.632952
v 0.000000 -0.104825 0.990422
v 0.000000 -0.037284 0.632952
v 0.043843 -0.000000 0.609789
v 0.000000 -0.074204 0.990422
v 0.293940 -0.099709 0.756412
v 0.293940 -0.036556 0.756412
v 0.315990 -0.073112 0.721810
v 0.000000 0.036903 1.515238
v 0.400301 0.036903 1.515238
v 0.430578 -0.074220 0.990422
v 0.400205 -0.043615 0.990422
v 0.400205 -0.104825 0.990422
v 0.059105 -0.000000 0.273074
v 0.000000 0.059105 0.273074
v 0.000000 -0.059105 0.273074
v 0.000000 0.059105 -1.249999
v 0.000000 -0.059105 -1.249999
v 0.059105 0.000000 -1.249999
v -0.259447 -0.000000 -1.310311
v 0.259447 0.000000 -1.310311
v -0.259447 -0.000000 -1.189689
v -0.259447 0.060311 -1.250000
v -0.259447 -0.060311 -1.250000
v 0.259447 0.060311 -1.250000
v 0.259447 -0.060311 -1.250000
v 0.259447 0.000000 -1.189689
vt 0.447352 0.388116
vt 0.510519 0.572083
vt 0.272624 0.572083
vt 0.272624 0.291058
vt 0.510576 0.984667
vt 0.272624 0.984667
vt 0.298685 0.272848
vt 0.460459 0.360914
vt 0.528574 0.572083
vt 0.510519 0.572083
vt 0.447352 0.388116
vt 0.272624 0.291058
vt 0.272624 0.572083
vt 0.880115 0.257551
vt 0.989814 0.257551
vt 0.989814 0.986822
vt 0.880114 0.986822
vt 0.272624 0.008139
vt 0.307758 0.008139
vt 0.272624 0.008139
vt 0.770414 0.986822
vt 0.770414 0.257551
vt 0.097896 0.388116
vt 0.034728 0.572083
vt 0.034671 0.984667
vt 0.084788 0.360914
vt 0.246562 0.272848
vt 0.016673 0.572083
vt 0.034728 0.572083
vt 0.097896 0.388116
vt 0.660715 0.257551
vt 0.660714 0.986822
vt 0.551014 0.986822
vt 0.551015 0.257551
vt 0.237490 0.008139
vt 0.880093 0.005343
vt 0.990281 0.005343
vt 0.990281 0.246939
vt 0.880093 0.246939
vt 0.769905 0.246939
vt 0.769905 0.005343
vt 0.659717 0.005343
vt 0.659717 0.246939
vt 0.549528 0.246939
vt 0.549529 0.005343
vt 0.394905 0.005343
vt 0.505093 0.005343
vt 0.505093 0.119916
vt 0.394905 0.119916
vt 0.505093 0.119916
vt 0.394905 0.119916
vt 0.394905 0.005343
vt 0.505093 0.005343
vn -0.3716 0.9117 -0.1754
vn -0.4227 0.8955 -0.1391
vn 0.0000 1.0000 0.0004
vn 0.0000 0.9985 -0.0542
vn -0.3576 0.1978 0.9127
vn 0.0000 0.2120 0.9772
vn -0.8591 0.1123 -0.4993
vn -0.6769 -0.0433 -0.7347
vn -0.9867 -0.0702 -0.1466
vn -0.3778 -0.9259 0.0045
vn -0.2307 -0.9088 -0.3476
vn 0.0000 -0.9565 -0.2915
vn 0.0000 -0.9970 0.0772
vn -1.0000 0.0000 0.0000
vn 0.0000 -1.0000 0.0000
vn 0.0000 -0.9996 0.0260
vn -0.9995 0.0096 0.0302
vn 0.0000 0.9995 0.0312
vn 0.0000 1.0000 0.0000
vn 0.3716 0.9117 -0.1754
vn 0.4227 0.8955 -0.1391
vn 0.3576 0.1978 0.9127
vn 0.6769 -0.0433 -0.7347
vn 0.8591 0.1123 -0.4993
vn 0.9867 -0.0702 -0.1466
vn 0.3778 -0.9259 0.0045
vn 0.2307 -0.9088 -0.3476
vn 1.0000 0.0000 0.0000
vn 0.9995 0.0096 0.0302
vn 0.5773 0.0000 -0.8165
vn 0.5773 -0.8165 0.0000
vn -0.5773 -0.8165 0.0000
vn -0.5773 0.0000 -0.8165
vn -0.5773 0.8165 0.0000
vn 0.5773 0.8165 0.0000
vn 0.5773 0.0000 0.8165
vn -0.5773 0.0000 0.8165
usemtl mat_shovel
s 1
f 3/1/1 7/2/2 15/3/3 11/4/4
f 7/2/2 5/5/5 19/6/6 15/3/3
f 11/4/4 1/7/7 4/8/8 3/1/1
f 6/9/9 8/10/10 5/5/5
f 7/2/2 6/9/9 5/5/5
f 3/1/1 4/8/8 6/9/9 7/2/2
f 4/8/8 2/11/11 8/10/10 6/9/9
f 8/10/10 2/11/11 13/12/12 12/13/13
f 5/5/5 8/10/10 12/13/13 19/6/6
f 2/11/11 4/8/8 1/7/7 13/12/12
f 10/14/14 28/15/15 26/16/16 9/17/17
f 25/18/18 9/19/17 1/7/7 11/4/4
f 9/19/17 26/20/16 13/12/12 1/7/7
f 9/17/17 25/21/18 27/22/19 10/14/14
f 17/23/20 11/4/4 15/3/3 22/24/21
f 22/24/21 15/3/3 19/6/6 20/25/22
f 11/4/4 17/23/20 18/26/23 14/27/24
f 21/28/25 20/25/22 23/29/26
f 22/24/21 20/25/22 21/28/25
f 17/23/20 22/24/21 21/28/25 18/26/23
f 18/26/23 21/28/25 23/29/26 16/30/27
f 23/29/26 12/13/13 13/12/12 16/30/27
f 20/25/22 19/6/6 12/13/13 23/29/26
f 16/30/27 13/12/12 14/27/24 18/26/23
f 29/31/28 24/32/29 26/33/16 28/34/15
f 25/18/18 11/4/4 14/27/24 24/35/29
f 24/35/29 14/27/24 13/12/12 26/20/16
f 24/32/29 29/31/28 27/22/19 25/21/18
f 31/36/30 36/37/31 34/38/32 30/39/33
f 30/39/33 33/40/34 35/41/35 31/36/30
f 37/42/36 32/43/37 34/44/32 36/45/31
f 32/43/37 37/42/36 35/41/35 33/40/34
f 36/46/31 31/47/30 35/48/35 37/49/36
f 34/50/32 32/51/37 33/52/34 30/53/33
