# Blender v2.79 (sub 0) OBJ File: 'medieval_weapon_pack.blend'
# www.blender.org
mtllib wand_1_001.mtl
o wand_1
v 0.015839 -0.000000 0.159956
v 0.022627 -0.000000 0.127962
v 0.022627 0.000000 -0.175940
v 0.033941 0.000000 -0.192100
v 0.033941 -0.000000 0.143994
v 0.008689 -0.000000 0.980571
v 0.000000 0.008689 0.980571
v 0.000000 -0.000000 0.988943
v 0.000000 -0.008689 0.980571
v 0.000000 0.000000 -0.224026
v 0.000000 -0.015839 0.159956
v -0.015839 -0.000000 0.159956
v 0.000000 0.015839 0.159956
v -0.022627 -0.000000 0.127962
v 0.000000 -0.022627 0.127962
v 0.000000 0.022627 0.127962
v -0.022627 0.000000 -0.175940
v 0.000000 -0.022627 -0.175940
v 0.000000 0.022627 -0.175940
v -0.033941 0.000000 -0.192100
v 0.000000 -0.033941 -0.192100
v 0.000000 0.033941 -0.192100
v 0.000000 -0.033941 0.143994
v 0.000000 0.033941 0.143994
v -0.033941 -0.000000 0.143994
v -0.008689 -0.000000 0.980571
vt 0.903542 0.948792
vt 0.923169 0.923081
vt 0.944440 0.944465
vt 0.891252 0.988656
vt 0.860073 0.565792
vt 0.871754 0.624663
vt 0.820717 0.620710
vt 0.906211 0.555275
vt 0.886865 0.585404
vt 0.504750 0.162848
vt 0.870929 0.515090
vt 0.843073 0.552004
vt 0.453514 0.193472
vt 0.808286 0.591568
vt 0.419708 0.160026
vt 0.525072 0.121167
vt 0.492967 0.139321
vt 0.474512 0.063581
vt 0.051844 0.140770
vt 0.013298 0.180487
vt 0.098248 0.093757
vt 0.948714 0.903318
vt 0.988330 0.890927
vt 0.979474 0.530087
vt 0.922609 0.510886
vt 0.982158 0.478967
vt 0.889861 0.536653
vt 0.569032 0.106410
vt 0.536154 0.133790
vt 0.606028 0.059567
vt 0.911137 0.492245
vt 0.577238 0.021717
vt 0.547227 0.091681
vt 0.954870 0.462869
vt 0.144947 0.047042
vt 0.184399 0.008238
vt 0.938589 0.539990
vn 0.9393 0.0000 0.3430
vn 0.0000 0.9393 0.3430
vn 0.0000 0.0000 1.0000
vn 0.0000 -0.9393 0.3430
vn 0.9957 0.0000 0.0922
vn 0.0000 -0.8619 0.5071
vn 0.0000 -0.9957 0.0922
vn 0.0000 0.8619 0.5071
vn 0.8619 0.0000 0.5071
vn 0.9372 0.0000 0.3487
vn 0.0000 0.9363 -0.3511
vn 0.9363 0.0000 -0.3511
vn 0.0000 -0.9372 0.3487
vn 0.0000 -0.9363 -0.3511
vn 0.0000 -0.9967 -0.0813
vn 0.0000 0.9967 -0.0813
vn 0.9967 0.0000 -0.0813
vn 0.0000 0.0000 -1.0000
vn -0.9393 0.0000 0.3430
vn -0.9957 0.0000 0.0922
vn 0.0000 0.9957 0.0922
vn -0.9372 0.0000 0.3487
vn 0.0000 0.9372 0.3487
vn -0.9363 0.0000 -0.3511
vn -0.9967 0.0000 -0.0813
vn -0.8619 0.0000 0.5071
usemtl mat_wand_1
s 1
f 6/1/1 7/2/2 8/3/3
f 9/4/4 6/1/1 8/3/3
f 5/5/5 11/6/6 23/7/7
f 5/5/5 13/8/8 1/9/9
f 3/10/10 16/11/11 2/12/12
f 18/13/13 2/12/12 15/14/14
f 21/15/15 3/10/10 18/13/13
f 22/16/16 3/10/10 4/17/17
f 10/18/18 22/16/16 4/17/17
f 10/18/18 4/17/17 21/15/15
f 16/11/11 5/5/5 2/12/12
f 15/14/14 5/5/5 23/7/7
f 1/19/9 9/4/4 11/20/6
f 13/21/8 6/1/1 1/19/9
f 26/22/19 8/3/3 7/2/2
f 9/23/4 8/3/3 26/22/19
f 11/24/6 25/25/20 23/26/7
f 25/25/20 13/8/8 24/27/21
f 17/28/22 16/11/11 19/29/23
f 18/30/13 14/31/24 17/28/22
f 21/32/15 17/28/22 20/33/25
f 17/28/22 22/16/16 20/33/25
f 10/18/18 20/33/25 22/16/16
f 10/18/18 21/32/15 20/33/25
f 25/25/20 16/11/11 14/31/24
f 15/34/14 25/25/20 14/31/24
f 9/23/4 12/35/26 11/36/6
f 26/22/19 13/21/8 12/35/26
f 5/5/5 1/9/9 11/6/6
f 5/5/5 24/27/21 13/8/8
f 3/10/10 19/29/23 16/11/11
f 18/13/13 3/10/10 2/12/12
f 21/15/15 4/17/17 3/10/10
f 22/16/16 19/29/23 3/10/10
f 16/11/11 24/27/21 5/5/5
f 15/14/14 2/12/12 5/5/5
f 1/19/9 6/1/1 9/4/4
f 13/21/8 7/2/2 6/1/1
f 11/24/6 12/37/26 25/25/20
f 25/25/20 12/37/26 13/8/8
f 17/28/22 14/31/24 16/11/11
f 18/30/13 15/34/14 14/31/24
f 21/32/15 18/30/13 17/28/22
f 17/28/22 19/29/23 22/16/16
f 25/25/20 24/27/21 16/11/11
f 15/34/14 23/26/7 25/25/20
f 9/23/4 26/22/19 12/35/26
f 26/22/19 7/2/2 13/21/8
