# Blender v2.79 (sub 0) OBJ File: ''
# www.blender.org
mtllib object_crystal_011.mtl
o crystal_5_Cylinder.006
v 0.231532 -0.044443 0.054636
v 0.190228 0.837478 0.066465
v 0.095472 -0.044443 0.114687
v -0.002909 -0.044443 0.005253
v 0.018002 0.837478 -0.125110
v 0.013323 -0.044443 -0.188089
v 0.071167 0.837478 -0.341491
v 0.172979 -0.044443 -0.221895
v 0.459444 0.768701 -0.212506
v 0.274072 -0.044443 -0.109444
v 0.385695 0.768701 -0.005323
v 0.229771 1.437740 -0.166957
v 0.305587 0.837478 -0.383648
v 0.106522 -0.057480 0.121137
v -0.269094 0.516189 0.411570
v 0.025112 -0.146133 0.196357
v -0.433571 0.458317 0.251783
v -0.062913 -0.177105 0.110842
v -0.088719 -0.126175 -0.068536
v -0.438900 0.539922 0.031948
v 0.013802 -0.030093 -0.123247
v -0.276708 0.688769 -0.046488
v 0.104254 0.001732 -0.035374
v -0.141312 0.648778 0.310377
v -0.129773 0.740468 0.096256
v -0.430713 0.963787 0.242020
v -0.015392 -0.265954 -0.215012
v -0.023694 0.755301 -0.624307
v 0.098118 -0.245223 -0.111246
v 0.099199 -0.181612 0.021445
v -0.021676 0.927581 -0.376657
v -0.041146 -0.124865 0.142804
v -0.217060 0.984365 -0.254058
v -0.183067 -0.160852 0.070719
v -0.432925 0.931797 -0.349173
v -0.156026 -0.226217 -0.129136
v -0.230427 0.718637 -0.696433
v -0.435734 0.819438 -0.593536
v -0.251033 1.532768 -0.701409
v -0.034699 -0.019148 0.129640
v 0.045029 0.594894 0.152922
v 0.001673 -0.019947 0.056010
v 0.180891 0.517727 0.149401
v 0.080215 -0.037795 0.066782
v 0.241741 0.465845 0.258390
v 0.139507 -0.058735 0.153532
v 0.084297 -0.053654 0.224578
v 0.169829 0.487648 0.381812
v 0.003590 -0.035314 0.213510
v 0.023573 0.513083 0.378143
v -0.026150 0.559506 0.263369
v 0.128327 0.976294 0.328442
vt 0.625000 0.011719
vt 0.562500 0.320312
vt 0.566406 0.003906
vt 0.507812 0.000000
vt 0.898438 0.355469
vt 0.816406 0.011719
vt 0.890625 0.000000
vt 0.812500 0.328125
vt 0.750000 0.019531
vt 0.683594 0.292969
vt 0.691406 0.019531
vt 0.625000 0.292969
vt 0.683594 0.531250
vt 0.742188 0.316406
vt 0.468750 0.355469
vt 0.777344 0.546875
vt 0.714844 0.785156
vt 0.718750 0.535156
vt 0.656250 0.777344
vt 0.667969 0.531250
vt 0.593750 0.539062
vt 0.601562 0.789062
vt 0.531250 0.554688
vt 0.542969 0.824219
vt 0.480469 0.558594
vt 0.843750 0.558594
vt 0.765625 0.816406
vt 0.843750 0.878906
vt 0.656250 0.960938
vt 0.468750 0.875000
vt 0.222656 0.015625
vt 0.171875 0.382812
vt 0.164062 0.000000
vt 0.109375 0.000000
vt 0.085938 0.421875
vt 0.035156 0.007812
vt 0.468750 0.460938
vt 0.371094 0.015625
vt 0.433594 0.007812
vt 0.378906 0.429688
vt 0.285156 0.023438
vt 0.234375 0.382812
vt 0.300781 0.406250
vt 0.234375 0.664062
vt 0.000000 0.464844
vt 0.343750 0.691406
vt 0.132812 0.812500
vt 0.328125 0.664062
vt 0.468750 0.816406
vt 0.308594 0.933594
vt 0.449219 0.792969
vt 0.292969 0.898438
vt 0.417969 0.765625
vt 0.386719 0.742188
vt 0.257812 0.875000
vt 0.363281 0.722656
vt 0.222656 0.851562
vt 0.183594 0.832031
vt 0.132812 1.000000
vt 0.316406 0.992188
vn 0.4038 0.0066 0.9148
vn -0.7387 0.1157 0.6641
vn -0.9964 0.0113 -0.0837
vn -0.2047 -0.1547 -0.9665
vn 0.7207 -0.2464 -0.6479
vn 0.9551 -0.1628 0.2476
vn 0.9022 0.2879 0.3212
vn 0.7661 0.3016 -0.5675
vn -0.1679 0.3159 -0.9338
vn -0.9233 0.3099 -0.2269
vn -0.7105 0.2952 0.6388
vn 0.4210 0.3045 0.8544
vn 0.6519 0.0436 0.7570
vn -0.5271 -0.4652 0.7111
vn -0.8654 -0.5009 -0.0177
vn -0.4108 -0.0789 -0.9083
vn 0.5996 0.3206 -0.7333
vn 0.9469 0.3050 0.1017
vn 0.6601 0.6770 0.3255
vn 0.2894 0.7653 -0.5750
vn -0.6475 0.3484 -0.6778
vn -0.9996 0.0062 0.0265
vn -0.6999 0.0177 0.7140
vn 0.2527 0.4212 0.8710
vn 0.6761 -0.2694 -0.6858
vn 0.9942 0.0938 -0.0531
vn 0.6905 0.3098 0.6536
vn -0.4860 0.2251 0.8445
vn -0.9690 -0.2416 -0.0521
vn -0.5538 -0.4602 -0.6939
vn -0.4546 -0.0169 -0.8905
vn -0.9670 0.2357 -0.0972
vn -0.4453 0.5492 0.7071
vn 0.5532 0.5469 0.6284
vn 0.9476 0.2585 -0.1875
vn 0.3290 0.0026 -0.9443
vn -0.8882 0.1320 -0.4402
vn 0.1609 0.1166 -0.9801
vn 0.8196 -0.0456 -0.5712
vn 0.7516 -0.2670 0.6032
vn -0.1865 -0.2468 0.9510
vn -0.9125 -0.0868 0.3998
vn -0.8506 0.2424 0.4666
vn -0.0061 0.1081 0.9941
vn 0.8667 0.1263 0.4826
vn 0.8912 0.2500 -0.3786
vn 0.1900 0.3759 -0.9070
vn -0.8299 0.3724 -0.4155
vn 0.3459 0.0036 0.9383
vn -0.9709 0.0222 -0.2385
vn -0.1749 -0.1521 -0.9728
vn 0.6759 -0.2300 -0.7001
vn 0.9284 -0.1698 0.3305
vn 0.6172 0.0057 0.7868
vn -0.8847 -0.4435 -0.1432
vn -0.3899 -0.0594 -0.9190
vn 0.9481 0.2706 0.1670
vn 0.3631 -0.3441 -0.8659
vn 0.9942 0.0844 -0.0668
vn 0.5687 0.3556 0.7417
vn -0.4391 0.2330 0.8677
vn -0.9713 -0.2116 0.1085
vn -0.5675 -0.4562 -0.6854
vn -0.8519 0.1298 -0.5074
vn 0.0603 0.1513 -0.9867
vn 0.8541 -0.0783 -0.5142
vn 0.8076 -0.2786 0.5198
vn -0.0734 -0.2843 0.9559
vn -0.9255 -0.0722 0.3717
usemtl crystal.009
s 1
f 1/1/1 2/2/1 3/3/1
f 2/2/2 4/4/2 3/3/2
f 5/5/3 6/6/3 4/7/3
f 7/8/4 8/9/4 6/6/4
f 8/9/5 9/10/5 10/11/5
f 10/11/6 11/12/6 1/1/6
f 11/12/7 9/10/7 12/13/7
f 9/10/8 13/14/8 12/13/8
f 13/14/9 7/8/9 12/13/9
f 7/8/10 5/5/10 12/13/10
f 5/15/11 2/2/11 12/13/11
f 2/2/12 11/12/12 12/13/12
f 14/16/13 15/17/13 16/18/13
f 16/18/14 17/19/14 18/20/14
f 17/19/15 19/21/15 18/20/15
f 20/22/16 21/23/16 19/21/16
f 22/24/17 23/25/17 21/23/17
f 23/26/18 24/27/18 14/16/18
f 24/27/19 25/28/19 26/29/19
f 25/30/20 22/24/20 26/29/20
f 22/24/21 20/22/21 26/29/21
f 20/22/22 17/19/22 26/29/22
f 17/19/23 15/17/23 26/29/23
f 15/17/24 24/27/24 26/29/24
f 27/31/25 28/32/25 29/33/25
f 28/32/26 30/34/26 29/33/26
f 31/35/27 32/36/27 30/34/27
f 33/37/28 34/38/28 32/39/28
f 35/40/29 36/41/29 34/38/29
f 36/41/30 37/42/30 27/31/30
f 37/42/31 38/43/31 39/44/31
f 38/43/32 35/40/32 39/44/32
f 35/40/33 33/37/33 39/44/33
f 33/45/34 31/35/34 39/44/34
f 31/35/35 28/32/35 39/44/35
f 28/32/36 37/42/36 39/44/36
f 40/46/37 41/47/37 42/48/37
f 42/49/38 43/50/38 44/51/38
f 44/51/39 45/52/39 46/53/39
f 45/52/40 47/54/40 46/53/40
f 48/55/41 49/56/41 47/54/41
f 50/57/42 40/46/42 49/56/42
f 51/58/43 50/57/43 52/59/43
f 50/57/44 48/55/44 52/59/44
f 48/55/45 45/52/45 52/59/45
f 45/52/46 43/50/46 52/59/46
f 43/50/47 41/60/47 52/59/47
f 41/47/48 51/58/48 52/59/48
f 1/1/49 11/12/49 2/2/49
f 2/2/2 5/15/2 4/4/2
f 5/5/50 7/8/50 6/6/50
f 7/8/51 13/14/51 8/9/51
f 8/9/52 13/14/52 9/10/52
f 10/11/53 9/10/53 11/12/53
f 14/16/54 24/27/54 15/17/54
f 16/18/14 15/17/14 17/19/14
f 17/19/55 20/22/55 19/21/55
f 20/22/56 22/24/56 21/23/56
f 22/24/17 25/30/17 23/25/17
f 23/26/57 25/28/57 24/27/57
f 27/31/58 37/42/58 28/32/58
f 28/32/59 31/35/59 30/34/59
f 31/35/60 33/45/60 32/36/60
f 33/37/61 35/40/61 34/38/61
f 35/40/62 38/43/62 36/41/62
f 36/41/63 38/43/63 37/42/63
f 40/46/64 51/58/64 41/47/64
f 42/49/65 41/60/65 43/50/65
f 44/51/66 43/50/66 45/52/66
f 45/52/67 48/55/67 47/54/67
f 48/55/68 50/57/68 49/56/68
f 50/57/69 51/58/69 40/46/69
