# Blender v2.79 (sub 0) OBJ File: 'medieval_props_pack.blend'
# www.blender.org
mtllib cabinet_1_001.mtl
o cabinet_wood_small
v 0.553000 0.000000 0.721000
v 0.553000 1.961285 0.721000
v 0.553000 0.000000 0.553000
v 0.553000 1.961285 0.553000
v 0.721000 0.000000 0.721000
v 0.721000 1.961285 0.721000
v 0.721000 0.000000 0.553000
v 0.721000 1.961285 0.553000
v -0.553000 0.000000 0.721000
v -0.553000 1.961285 0.721000
v -0.553000 0.000000 0.553000
v -0.553000 1.961285 0.553000
v -0.721000 0.000000 0.721000
v -0.721000 1.961285 0.721000
v -0.721000 0.000000 0.553000
v -0.721000 1.961285 0.553000
v 0.553000 0.000000 -0.721000
v 0.553000 1.961285 -0.721000
v 0.553000 0.000000 -0.553000
v 0.553000 1.961285 -0.553000
v 0.721000 0.000000 -0.721000
v 0.721000 1.961285 -0.721000
v 0.721000 0.000000 -0.553000
v 0.721000 1.961285 -0.553000
v -0.553000 0.000000 -0.721000
v -0.553000 1.961285 -0.721000
v -0.553000 0.000000 -0.553000
v -0.553000 1.961285 -0.553000
v -0.721000 0.000000 -0.721000
v -0.721000 1.961285 -0.721000
v -0.721000 0.000000 -0.553000
v -0.721000 1.961285 -0.553000
v -0.770000 1.959990 0.770000
v -0.770000 2.084590 0.770000
v -0.770000 1.959990 -0.721000
v -0.770000 2.084590 -0.721000
v 0.770000 1.959990 0.770000
v 0.770000 2.084590 0.770000
v 0.770000 1.959990 -0.721000
v 0.770000 2.084590 -0.721000
v -0.700000 0.173726 0.700000
v -0.700000 1.961285 0.700000
v -0.700000 0.173726 -0.700000
v -0.700000 1.961285 -0.700000
v 0.700000 0.173726 0.700000
v 0.700000 1.961285 0.700000
v 0.700000 0.173726 -0.700000
v 0.700000 1.961285 -0.700000
v 0.553374 0.159726 0.712600
v -0.553374 0.159726 0.712600
v 0.553374 0.159726 0.561400
v -0.553374 0.159726 0.561400
v 0.553374 0.327726 0.712600
v -0.553374 0.327726 0.712600
v 0.553374 0.327726 0.561400
v -0.553374 0.327726 0.561400
v 0.712600 0.159726 -0.553374
v 0.712600 0.159726 0.553374
v 0.561400 0.159726 -0.553374
v 0.561400 0.159726 0.553374
v 0.712600 0.327726 -0.553374
v 0.712600 0.327726 0.553374
v 0.561400 0.327726 -0.553374
v 0.561400 0.327726 0.553374
v -0.553374 0.159726 -0.712600
v 0.553374 0.159726 -0.712600
v -0.553374 0.159726 -0.561400
v 0.553374 0.159726 -0.561400
v -0.553374 0.327726 -0.712600
v 0.553374 0.327726 -0.712600
v -0.553374 0.327726 -0.561400
v 0.553374 0.327726 -0.561400
v -0.712600 0.159726 0.553374
v -0.712600 0.159726 -0.553374
v -0.561400 0.159726 0.553374
v -0.561400 0.159726 -0.553374
v -0.712600 0.327726 0.553374
v -0.712600 0.327726 -0.553374
v -0.561400 0.327726 0.553374
v -0.561400 0.327726 -0.553374
vt 0.755118 0.005956
vt 0.755119 0.497783
vt 0.677059 0.497783
vt 0.677058 0.005956
vt 0.989297 0.005956
vt 0.989296 0.497783
vt 0.911237 0.497783
vt 0.911238 0.005956
vt 0.833178 0.497783
vt 0.833178 0.005956
vt 0.833151 0.067462
vt 0.755091 0.067462
vt 0.755091 0.005978
vt 0.833151 0.005978
vt 0.911235 0.497783
vt 0.989294 0.497783
vt 0.989296 0.005957
vt 0.911236 0.005957
vt 0.677057 0.497783
vt 0.755117 0.497783
vt 0.755117 0.005956
vt 0.677057 0.005956
vt 0.833176 0.497783
vt 0.833177 0.005956
vt 0.833151 0.005978
vt 0.833151 0.067462
vt 0.755091 0.067462
vt 0.755091 0.005978
vt 0.911235 0.497783
vt 0.989294 0.497783
vt 0.989296 0.005957
vt 0.911237 0.005957
vt 0.677057 0.497783
vt 0.755117 0.497783
vt 0.755117 0.005957
vt 0.677057 0.005956
vt 0.833176 0.497783
vt 0.833177 0.005957
vt 0.755091 0.067441
vt 0.755118 0.005956
vt 0.833178 0.005978
vt 0.833151 0.067462
vt 0.755115 0.005956
vt 0.755116 0.497783
vt 0.677057 0.497783
vt 0.677055 0.005956
vt 0.989294 0.005956
vt 0.989294 0.497783
vt 0.911234 0.497783
vt 0.911234 0.005956
vt 0.833175 0.497783
vt 0.833175 0.005956
vt 0.755091 0.005978
vt 0.833151 0.005978
vt 0.833151 0.067462
vt 0.755091 0.067462
vt 0.011590 0.051358
vt 0.070969 0.051358
vt 0.070969 0.452594
vt 0.011590 0.452594
vt 0.070969 0.497559
vt 0.597108 0.452595
vt 0.597108 0.497559
vt 0.656487 0.452595
vt 0.597109 0.051358
vt 0.656487 0.051358
vt 0.597109 0.006394
vt 0.070969 0.006394
vt 0.070969 0.452594
vt 0.597108 0.452595
vt 0.597109 0.051358
vt 0.070969 0.051358
vt 0.490280 0.512800
vt 0.490280 0.993842
vt 0.011971 0.993842
vt 0.011971 0.512800
vt 0.490280 0.512800
vt 0.490280 0.993842
vt 0.011971 0.993842
vt 0.011971 0.512800
vt 0.490280 0.512800
vt 0.490280 0.993842
vt 0.011971 0.993842
vt 0.011971 0.512800
vt 0.989210 0.512800
vt 0.989210 0.993842
vt 0.510902 0.993842
vt 0.510902 0.512800
vt 0.070969 0.051358
vt 0.597109 0.051358
vt 0.597108 0.452595
vt 0.070969 0.452594
vt 0.911234 0.497783
vt 0.911238 0.005956
vt 0.989297 0.005956
vt 0.989296 0.497783
vt 0.677059 0.497783
vt 0.677055 0.005956
vt 0.755115 0.005956
vt 0.755116 0.497783
vt 0.833178 0.005956
vt 0.833178 0.497783
vt 0.989297 0.005956
vt 0.989296 0.497783
vt 0.911237 0.497783
vt 0.911234 0.005956
vt 0.755118 0.005956
vt 0.755116 0.497783
vt 0.677057 0.497783
vt 0.677055 0.005956
vt 0.833178 0.497783
vt 0.833178 0.005956
vt 0.677057 0.497783
vt 0.677061 0.005956
vt 0.755115 0.005956
vt 0.755116 0.497783
vt 0.911239 0.497783
vt 0.911239 0.005956
vt 0.989297 0.005956
vt 0.989296 0.497783
vt 0.833180 0.005956
vt 0.833175 0.497783
vt 0.989297 0.005956
vt 0.989293 0.497783
vt 0.911238 0.497783
vt 0.911238 0.005956
vt 0.755114 0.005957
vt 0.755114 0.497783
vt 0.677056 0.497783
vt 0.677057 0.005957
vt 0.833173 0.497783
vt 0.833178 0.005957
vn -0.5773 -0.5773 0.5773
vn -0.7071 0.0000 0.7071
vn -0.7071 0.0000 -0.7071
vn -0.5773 -0.5773 -0.5773
vn 0.7071 0.0000 -0.7071
vn 0.5773 -0.5773 -0.5773
vn 0.7071 0.0000 0.7071
vn 0.5773 -0.5773 0.5773
vn -0.5773 0.5773 0.5773
vn -0.5773 0.5773 -0.5773
vn 0.5773 0.5773 -0.5773
vn 0.5773 0.5773 0.5773
vn 0.0000 -0.7071 0.7071
vn 0.0000 -0.7071 -0.7071
vn 0.0000 0.7071 -0.7071
vn 0.0000 0.7071 0.7071
vn -0.7071 -0.7071 0.0000
vn -0.7071 0.7071 0.0000
vn 0.7071 -0.7071 0.0000
vn 0.7071 0.7071 0.0000
usemtl mat_cabinet_wood_small
s 1
f 1/1/1 2/2/2 4/3/3 3/4/4
f 3/5/4 4/6/3 8/7/5 7/8/6
f 7/8/6 8/7/5 6/9/7 5/10/8
f 5/10/8 6/9/7 2/2/2 1/1/1
f 3/11/4 7/12/6 5/13/8 1/14/1
f 9/15/8 11/16/6 12/17/5 10/18/7
f 11/19/6 15/20/4 16/21/3 12/22/5
f 15/20/4 13/23/1 14/24/2 16/21/3
f 13/23/1 9/15/8 10/18/7 14/24/2
f 11/25/6 9/26/8 13/27/1 15/28/4
f 17/29/4 19/30/1 20/31/2 18/32/3
f 19/33/1 23/34/8 24/35/7 20/36/2
f 23/34/8 21/37/6 22/38/5 24/35/7
f 21/37/6 17/29/4 18/32/3 22/38/5
f 19/39/1 17/40/4 21/41/6 23/42/8
f 25/43/6 26/44/5 28/45/7 27/46/8
f 27/47/8 28/48/7 32/49/2 31/50/1
f 31/50/1 32/49/2 30/51/3 29/52/4
f 29/52/4 30/51/3 26/44/5 25/43/6
f 27/53/8 31/54/1 29/55/4 25/56/6
f 33/57/1 34/58/9 36/59/10 35/60/4
f 35/61/4 36/59/10 40/62/11 39/63/6
f 39/64/6 40/62/11 38/65/12 37/66/8
f 37/67/8 38/65/12 34/58/9 33/68/1
f 35/69/4 39/70/6 37/71/8 33/72/1
f 40/62/11 36/59/10 34/58/9 38/65/12
f 41/73/1 42/74/2 44/75/3 43/76/4
f 43/77/4 44/78/3 48/79/5 47/80/6
f 47/81/6 48/82/5 46/83/7 45/84/8
f 45/85/8 46/86/7 42/87/2 41/88/1
f 43/89/4 47/90/6 45/91/8 41/92/1
f 49/93/13 50/94/13 52/95/14 51/96/14
f 51/97/14 52/98/14 56/99/15 55/100/15
f 55/100/15 56/99/15 54/101/16 53/102/16
f 53/102/16 54/101/16 50/94/13 49/93/13
f 59/103/17 60/104/17 64/105/18 63/106/18
f 57/107/19 58/108/19 60/109/17 59/110/17
f 63/106/18 64/105/18 62/111/20 61/112/20
f 61/112/20 62/111/20 58/108/19 57/107/19
f 67/113/13 68/114/13 72/115/16 71/116/16
f 65/117/14 66/118/14 68/119/13 67/120/13
f 71/116/16 72/115/16 70/121/15 69/122/15
f 69/122/15 70/121/15 66/118/14 65/117/14
f 75/123/19 76/124/19 80/125/20 79/126/20
f 73/127/17 74/128/17 76/129/19 75/130/19
f 79/126/20 80/125/20 78/131/18 77/132/18
f 77/132/18 78/131/18 74/128/17 73/127/17
