# Blender v2.92.0 OBJ File: 'cemetary.blend'
# www.blender.org
mtllib cemetary_2.mtl
o GraveCoffin2_grave6
v 2.031180 0.393151 -0.800000
v 1.962810 0.399131 -0.700000
v -1.822730 0.730321 -0.700000
v -1.953600 0.741771 -0.800000
v 2.047500 0.197081 -0.800000
v 1.945140 0.197081 -0.700000
v 1.945140 0.197081 0.700000
v 2.047500 0.197081 0.800000
v 2.048610 0.592391 -0.800000
v 2.056170 0.770921 -0.000000
v 2.039890 0.492771 -0.000000
v 2.031180 0.393151 0.800000
v 2.048610 0.592391 0.800000
v -1.936170 0.941011 0.800000
v -1.953600 0.741771 0.800000
v -1.952500 -0.002919 0.800000
v -1.952500 0.197081 0.800000
v -1.952500 0.197081 -0.800000
v -1.952500 -0.002919 -0.800000
v -1.822730 0.730321 0.700000
v -1.936170 0.941011 -0.800000
v -1.869380 0.197081 0.700000
v -1.869380 0.197081 -0.700000
v 2.047500 -0.002919 0.800000
v 1.962810 0.399131 0.700000
v -1.928610 1.119541 0.000000
v -1.944890 0.841391 0.000000
v 2.047500 -0.002919 -0.800000
v 0.381540 0.883831 -0.150000
v 0.384450 0.917171 -0.000000
v 0.381540 0.883831 0.150000
vt 0.696443 0.986914
vt 0.671888 0.969863
vt 0.671888 0.025784
vt 0.696443 -0.006854
vt 0.696443 0.990984
vt 0.671888 0.965457
vt 0.328112 0.965457
vt 0.303557 0.990984
vt 0.696443 0.522494
vt 0.500000 0.567017
vt 0.500000 0.497649
vt 0.696443 0.472805
vt 0.473223 0.986914
vt 0.522147 0.991261
vt 0.607753 -0.002507
vt 0.558828 -0.006854
vt 0.303557 0.374029
vt 0.303557 0.423907
vt 0.696443 0.423907
vt 0.696443 0.374029
vt 0.328112 0.025784
vt 0.303557 -0.006854
vt 0.607753 -0.002507
vt 0.522147 0.991261
vt 0.473223 0.986914
vt 0.558828 -0.006854
vt 0.328112 0.423907
vt 0.328112 0.556892
vt 0.671888 0.556892
vt 0.671888 0.423907
vt 0.375967 -0.006579
vt 0.375967 0.990984
vt 0.425077 0.990984
vt 0.425077 -0.006579
vt 0.303557 0.986914
vt 0.328112 0.969863
vt 0.500000 0.653960
vt 0.500000 0.584592
vt 0.303557 0.559748
vt 0.303557 0.609436
vt 0.556017 0.025784
vt 0.474692 0.969863
vt 0.425077 0.965457
vt 0.425077 0.014150
vt 0.696443 -0.006579
vt 0.671888 0.014150
vt 0.303557 0.472805
vt 0.303557 0.522494
vt 0.425077 0.014150
vt 0.425077 0.965457
vt 0.474692 0.969863
vt 0.556017 0.025784
vt 0.696443 0.559748
vt 0.696443 0.609436
vt 0.671888 0.474296
vt 0.328112 0.474296
vt 0.328112 0.423907
vt 0.671888 0.423907
vt 0.303557 -0.006579
vt 0.328112 0.014150
vt 0.375967 -0.006579
vt 0.425077 -0.006579
vt 0.425077 0.990984
vt 0.375967 0.990984
vt 0.696443 0.374029
vt 0.696443 0.423907
vt 0.303557 0.423907
vt 0.303557 0.374029
vt 0.303557 -0.006579
vt 0.696443 -0.006579
vt 0.696443 0.990984
vt 0.303557 0.990984
vt 0.696443 -0.002507
vt 0.536833 0.575509
vt 0.696443 0.991261
vt 0.500000 0.993146
vt 0.500000 0.576235
vt 0.463167 0.575509
vt 0.303557 0.991261
vt 0.303557 -0.002507
vt 0.500000 -0.000621
vn 0.5286 -0.6202 -0.5796
vn 0.2215 -0.9273 -0.3015
vn -0.3792 -0.8748 -0.3015
vn -0.6226 -0.5307 -0.5751
vn 0.5773 0.5773 -0.5773
vn 0.3061 0.8950 -0.3243
vn 0.3061 0.8950 0.3243
vn 0.5773 0.5773 0.5773
vn 0.6307 0.4574 -0.6269
vn 0.7168 0.6972 0.0000
vn 0.9969 -0.0781 0.0000
vn 0.5286 -0.6202 0.5796
vn 0.6307 0.4574 0.6269
vn -0.5452 0.5490 0.6335
vn -0.6226 -0.5307 0.5751
vn -0.5773 -0.5773 0.5773
vn -0.5773 0.5773 0.5773
vn -0.5773 0.5773 -0.5773
vn -0.5773 -0.5773 -0.5773
vn -0.3792 -0.8748 0.3015
vn -0.5452 0.5490 -0.6335
vn -0.2948 0.9137 0.2795
vn -0.2948 0.9137 -0.2795
vn 0.5773 -0.5773 0.5773
vn 0.2215 -0.9273 0.3015
vn -0.6016 0.7987 0.0000
vn -0.9969 0.0781 0.0000
vn 0.5773 -0.5773 -0.5773
vn 0.0851 0.9723 -0.2177
vn 0.0871 0.9962 0.0000
vn 0.0851 0.9723 0.2177
usemtl Stone
s 1
f 1/1/1 2/2/2 3/3/3 4/4/4
f 5/5/5 6/6/6 7/7/7 8/8/8
f 9/9/9 10/10/10 11/11/11 1/12/1
f 12/13/12 13/14/13 14/15/14 15/16/15
f 16/17/16 17/18/17 18/19/18 19/20/19
f 3/3/3 20/21/20 15/22/15 4/4/4
f 21/23/21 9/24/9 1/25/1 4/26/4
f 22/27/22 20/28/20 3/29/3 23/30/23
f 16/31/16 24/32/24 8/33/8 17/34/17
f 12/35/12 15/22/15 20/21/20 25/36/25
f 26/37/26 27/38/27 15/39/15 14/40/14
f 3/41/3 2/42/2 6/43/6 23/44/23
f 25/36/25 2/2/2 1/1/1 12/35/12
f 5/5/5 18/45/18 23/46/23 6/6/6
f 12/47/12 11/11/11 10/10/10 13/48/13
f 22/49/22 7/50/7 25/51/25 20/52/20
f 4/53/4 27/38/27 26/37/26 21/54/21
f 15/39/15 27/38/27 4/53/4
f 2/55/2 25/56/25 7/57/7 6/58/6
f 17/59/17 8/8/8 7/7/7 22/60/22
f 17/59/17 22/60/22 23/46/23 18/45/18
f 1/12/1 11/11/11 12/47/12
f 19/61/19 18/62/18 5/63/5 28/64/28
f 28/65/28 5/66/5 8/67/8 24/68/24
f 16/69/16 19/70/19 28/71/28 24/72/24
f 21/73/21 29/74/29 9/75/9
f 10/76/10 30/77/30 31/78/31 13/79/13
f 13/79/13 31/78/31 14/80/14
f 9/75/9 29/74/29 30/77/30 10/76/10
f 14/80/14 31/78/31 30/77/30 26/81/26
f 26/81/26 30/77/30 29/74/29 21/73/21
