# Blender v2.79 (sub 0) OBJ File: 'medieval_tavern_props_pack.blend'
# www.blender.org
mtllib chair_2_001.mtl
o chair_wood_2
v -0.000000 -0.000000 -0.477950
v -0.000000 0.520667 -0.429485
v 0.063406 -0.000000 -0.414786
v 0.063406 0.520667 -0.366321
v -0.063406 -0.000000 -0.414786
v -0.063406 0.520667 -0.366321
v 0.000000 -0.000000 -0.351621
v 0.000000 0.520667 -0.303156
v -0.413917 -0.000000 0.238975
v -0.371945 0.520667 0.214743
v -0.390918 -0.000000 0.152482
v -0.348946 0.520667 0.128250
v -0.327512 -0.000000 0.262304
v -0.285540 0.520667 0.238071
v -0.304513 -0.000000 0.175811
v -0.262541 0.520667 0.151578
v 0.413917 -0.000000 0.238975
v 0.371945 0.520667 0.214743
v 0.327512 -0.000000 0.262304
v 0.285540 0.520667 0.238071
v 0.390918 -0.000000 0.152482
v 0.348946 0.520667 0.128250
v 0.304513 -0.000000 0.175811
v 0.262541 0.520667 0.151578
v -0.000000 0.640000 -0.000000
v 0.000000 0.640000 -0.560000
v -0.329160 0.640000 -0.453050
v -0.532592 0.640000 -0.173050
v -0.532592 0.640000 0.173049
v -0.329160 0.640000 0.453050
v 0.000000 0.640000 0.560000
v 0.329160 0.640000 0.453049
v 0.532592 0.640000 0.173050
v 0.532592 0.640000 -0.173050
v 0.329160 0.640000 -0.453050
v -0.000000 0.520000 -0.000000
v -0.000000 0.520000 -0.560000
v -0.329160 0.520000 -0.453050
v -0.532592 0.520000 -0.173050
v -0.532592 0.520000 0.173049
v -0.329160 0.520000 0.453049
v 0.000000 0.520000 0.560000
v 0.329160 0.520000 0.453049
v 0.532592 0.520000 0.173050
v 0.532592 0.520000 -0.173050
v 0.329159 0.520000 -0.453050
vt 0.007289 0.110525
vt 0.989942 0.110525
vt 0.989942 0.161830
vt 0.007289 0.161830
vt 0.989942 0.213136
vt 0.007289 0.213136
vt 0.007289 0.007913
vt 0.989942 0.007913
vt 0.989942 0.059219
vt 0.007289 0.059219
vt 0.989942 0.110525
vt 0.989942 0.161830
vt 0.938911 0.161830
vt 0.938911 0.110525
vt 0.007289 0.110525
vt 0.989942 0.110525
vt 0.989942 0.161830
vt 0.007289 0.161830
vt 0.989942 0.213136
vt 0.007289 0.213136
vt 0.007289 0.007913
vt 0.989942 0.007913
vt 0.989942 0.059219
vt 0.007289 0.059219
vt 0.938911 0.110525
vt 0.989942 0.110525
vt 0.989942 0.161830
vt 0.938911 0.161830
vt 0.007289 0.110525
vt 0.989942 0.110525
vt 0.989942 0.161830
vt 0.007289 0.161830
vt 0.989942 0.213136
vt 0.007289 0.213136
vt 0.007289 0.007913
vt 0.989942 0.007913
vt 0.989942 0.059219
vt 0.007289 0.059219
vt 0.989942 0.161830
vt 0.938911 0.161830
vt 0.938911 0.110525
vt 0.989942 0.110525
vt 0.500481 0.608108
vt 0.262538 0.364414
vt 0.504475 0.309001
vt 0.744886 0.367836
vt 0.891943 0.518447
vt 0.889475 0.703305
vt 0.738425 0.851801
vt 0.496488 0.907214
vt 0.256077 0.848379
vt 0.109020 0.697768
vt 0.111488 0.512910
vt 0.500481 0.608108
vt 0.504475 0.309001
vt 0.262538 0.364414
vt 0.744886 0.367836
vt 0.891943 0.518447
vt 0.889475 0.703305
vt 0.738425 0.851801
vt 0.496488 0.907214
vt 0.256077 0.848379
vt 0.109020 0.697768
vt 0.111488 0.512910
vt 0.195702 0.302306
vt 0.500481 0.230117
vt 0.805261 0.302306
vt 0.993625 0.491302
vt 0.993625 0.724913
vt 0.805261 0.913908
vt 0.500481 0.986098
vt 0.195702 0.913909
vt 0.007338 0.724913
vt 0.007338 0.491302
vn 0.0000 -0.5430 -0.8397
vn 0.0000 0.0927 -0.9957
vn 0.9991 -0.0039 0.0418
vn 0.8170 -0.5755 -0.0342
vn 0.0000 -0.0927 0.9957
vn 0.0000 -0.6119 0.7909
vn -0.9991 -0.0039 0.0418
vn -0.8170 -0.5755 -0.0342
vn -0.7272 -0.5430 0.4198
vn -0.8623 0.0927 0.4978
vn -0.4634 -0.0039 -0.8861
vn -0.4381 -0.5755 -0.6905
vn 0.8623 -0.0927 -0.4978
vn 0.6849 -0.6119 -0.3954
vn 0.5358 -0.0039 0.8444
vn 0.3789 -0.5755 0.7247
vn 0.7272 -0.5430 0.4198
vn 0.8623 0.0927 0.4978
vn -0.5358 -0.0039 0.8444
vn -0.3789 -0.5755 0.7247
vn -0.8623 -0.0927 -0.4978
vn -0.6849 -0.6119 -0.3954
vn 0.4634 -0.0039 -0.8861
vn 0.4381 -0.5755 -0.6905
vn 0.0000 1.0000 0.0000
vn 0.0000 0.6437 -0.7653
vn -0.4498 0.6437 -0.6191
vn -0.7278 0.6437 -0.2365
vn -0.7278 0.6437 0.2365
vn -0.4498 0.6437 0.6191
vn 0.0000 0.6437 0.7653
vn 0.4498 0.6437 0.6191
vn 0.7278 0.6437 0.2365
vn 0.7278 0.6437 -0.2365
vn 0.4498 0.6437 -0.6191
vn 0.0000 -1.0000 0.0000
vn -0.4498 -0.6437 -0.6191
vn 0.0000 -0.6437 -0.7653
vn -0.7278 -0.6437 -0.2365
vn -0.7278 -0.6437 0.2365
vn -0.4498 -0.6437 0.6191
vn 0.0000 -0.6437 0.7653
vn 0.4498 -0.6437 0.6191
vn 0.7278 -0.6437 0.2365
vn 0.7278 -0.6437 -0.2365
vn 0.4498 -0.6437 -0.6191
usemtl mat_chair_wood_2
s 1
f 1/1/1 2/2/2 4/3/3 3/4/4
f 3/4/4 4/3/3 8/5/5 7/6/6
f 7/7/6 8/8/5 6/9/7 5/10/8
f 5/10/8 6/9/7 2/2/2 1/1/1
f 3/11/4 7/12/6 5/13/8 1/14/1
f 9/15/9 10/16/10 12/17/11 11/18/12
f 11/18/12 12/17/11 16/19/13 15/20/14
f 15/21/14 16/22/13 14/23/15 13/24/16
f 13/24/16 14/23/15 10/16/10 9/15/9
f 11/25/12 15/26/14 13/27/16 9/28/9
f 17/29/17 18/30/18 20/31/19 19/32/20
f 19/32/20 20/31/19 24/33/21 23/34/22
f 23/35/22 24/36/21 22/37/23 21/38/24
f 21/38/24 22/37/23 18/30/18 17/29/17
f 19/39/20 23/40/22 21/41/24 17/42/17
f 25/43/25 26/44/26 27/45/27
f 25/43/25 27/45/27 28/46/28
f 25/43/25 28/46/28 29/47/29
f 25/43/25 29/47/29 30/48/30
f 25/43/25 30/48/30 31/49/31
f 25/43/25 31/49/31 32/50/32
f 25/43/25 32/50/32 33/51/33
f 25/43/25 33/51/33 34/52/34
f 25/43/25 34/52/34 35/53/35
f 25/43/25 35/53/35 26/44/26
f 36/54/36 38/55/37 37/56/38
f 36/54/36 39/57/39 38/55/37
f 36/54/36 40/58/40 39/57/39
f 36/54/36 41/59/41 40/58/40
f 36/54/36 42/60/42 41/59/41
f 36/54/36 43/61/43 42/60/42
f 36/54/36 44/62/44 43/61/43
f 36/54/36 45/63/45 44/62/44
f 36/54/36 46/64/46 45/63/45
f 36/54/36 37/56/38 46/64/46
f 27/45/27 26/44/26 37/65/38 38/66/37
f 28/46/28 27/45/27 38/66/37 39/67/39
f 29/47/29 28/46/28 39/67/39 40/68/40
f 30/48/30 29/47/29 40/68/40 41/69/41
f 31/49/31 30/48/30 41/69/41 42/70/42
f 32/50/32 31/49/31 42/70/42 43/71/43
f 33/51/33 32/50/32 43/71/43 44/72/44
f 34/52/34 33/51/33 44/72/44 45/73/45
f 35/53/35 34/52/34 45/73/45 46/74/46
f 26/44/26 35/53/35 46/74/46 37/65/38
