# Blender v2.79 (sub 0) OBJ File: 'medieval_props_pack.blend'
# www.blender.org
mtllib log_1_001.mtl
o wooden_log
v 0.000000 -0.000000 -3.000000
v 0.000000 0.000000 3.000000
v 0.000000 0.600000 -3.000000
v 0.000000 0.600000 3.000000
v 0.352671 0.485410 -3.000000
v 0.352671 0.485410 3.000000
v 0.570634 0.185410 -3.000000
v 0.570634 0.185410 3.000000
v 0.570634 -0.185410 -3.000000
v 0.570634 -0.185410 3.000000
v 0.352671 -0.485410 -3.000000
v 0.352671 -0.485410 3.000000
v -0.000000 -0.600000 -3.000000
v -0.000000 -0.600000 3.000000
v -0.352671 -0.485410 -3.000000
v -0.352671 -0.485410 3.000000
v -0.570634 -0.185410 -3.000000
v -0.570634 -0.185410 3.000000
v -0.570634 0.185410 -3.000000
v -0.570634 0.185410 3.000000
v -0.352671 0.485410 -3.000000
v -0.352671 0.485410 3.000000
vt 0.246223 0.878979
vt 0.321419 0.989528
vt 0.171027 0.989528
vt 0.749335 0.878979
vt 0.824531 0.989528
vt 0.674140 0.989528
vt 0.993845 0.380806
vt 0.006155 0.380806
vt 0.006155 0.306239
vt 0.993845 0.306239
vt 0.049357 0.947302
vt 0.946201 0.947302
vt 0.006155 0.231672
vt 0.993845 0.231673
vt 0.002884 0.878979
vt 0.992674 0.878979
vt 0.006155 0.157105
vt 0.993845 0.157106
vt 0.049358 0.810656
vt 0.946201 0.810656
vt 0.006155 0.082538
vt 0.993845 0.082540
vt 0.171027 0.768430
vt 0.824532 0.768430
vt 0.006155 0.007971
vt 0.993845 0.007973
vt 0.321419 0.768430
vt 0.674140 0.768430
vt 0.993845 0.753639
vt 0.006155 0.753640
vt 0.006155 0.679073
vt 0.993845 0.679072
vt 0.443088 0.810656
vt 0.552470 0.810656
vt 0.006155 0.604506
vt 0.993845 0.604506
vt 0.489562 0.878979
vt 0.505997 0.878979
vt 0.006155 0.529939
vt 0.993845 0.529939
vt 0.443088 0.947302
vt 0.552470 0.947302
vt 0.006155 0.455373
vt 0.993845 0.455372
vn 0.0000 0.0000 -1.0000
vn 0.0000 0.7653 -0.6437
vn 0.4498 0.6191 -0.6437
vn 0.0000 0.0000 1.0000
vn 0.4498 0.6191 0.6437
vn 0.0000 0.7653 0.6437
vn 0.7278 0.2365 -0.6437
vn 0.7278 0.2365 0.6437
vn 0.7278 -0.2365 -0.6437
vn 0.7278 -0.2365 0.6437
vn 0.4498 -0.6191 -0.6437
vn 0.4498 -0.6191 0.6437
vn 0.0000 -0.7653 -0.6437
vn 0.0000 -0.7653 0.6437
vn -0.4498 -0.6191 -0.6437
vn -0.4498 -0.6191 0.6437
vn -0.7278 -0.2365 -0.6437
vn -0.7278 -0.2365 0.6437
vn -0.7278 0.2365 -0.6437
vn -0.7278 0.2365 0.6437
vn -0.4498 0.6191 -0.6437
vn -0.4498 0.6191 0.6437
usemtl mat_wooden_log
s 1
f 1/1/1 3/2/2 5/3/3
f 2/4/4 6/5/5 4/6/6
f 3/7/2 4/8/6 6/9/5 5/10/3
f 1/1/1 5/3/3 7/11/7
f 2/4/4 8/12/8 6/5/5
f 5/10/3 6/9/5 8/13/8 7/14/7
f 1/1/1 7/11/7 9/15/9
f 2/4/4 10/16/10 8/12/8
f 7/14/7 8/13/8 10/17/10 9/18/9
f 1/1/1 9/15/9 11/19/11
f 2/4/4 12/20/12 10/16/10
f 9/18/9 10/17/10 12/21/12 11/22/11
f 1/1/1 11/19/11 13/23/13
f 2/4/4 14/24/14 12/20/12
f 11/22/11 12/21/12 14/25/14 13/26/13
f 1/1/1 13/23/13 15/27/15
f 2/4/4 16/28/16 14/24/14
f 13/29/13 14/30/14 16/31/16 15/32/15
f 1/1/1 15/27/15 17/33/17
f 2/4/4 18/34/18 16/28/16
f 15/32/15 16/31/16 18/35/18 17/36/17
f 1/1/1 17/33/17 19/37/19
f 2/4/4 20/38/20 18/34/18
f 17/36/17 18/35/18 20/39/20 19/40/19
f 1/1/1 19/37/19 21/41/21
f 2/4/4 22/42/22 20/38/20
f 19/40/19 20/39/20 22/43/22 21/44/21
f 1/1/1 21/41/21 3/2/2
f 2/4/4 4/6/6 22/42/22
f 21/44/21 22/43/22 4/8/6 3/7/2
