# Blender v2.79 (sub 0) OBJ File: 'paper_debris_1_001.blend'
# www.blender.org
mtllib paper_debris_1_001.mtl
o Cube.007_Cube.029
v 0.491920 0.021884 -0.311405
v 0.490455 0.032738 -0.311199
v 0.042989 0.021884 0.582162
v 0.045039 0.033230 0.573809
v -0.044220 0.021884 -0.580763
v -0.046276 0.030068 -0.587118
v -0.493151 0.021884 0.312803
v -0.491779 0.031080 0.320082
v 0.270199 0.028372 0.141191
v -0.219459 0.037245 0.447423
v -0.265778 0.025917 -0.131309
v 0.224295 0.031984 -0.445084
v -0.001225 0.037105 -0.001470
v 0.154654 0.031152 0.360113
v -0.357137 0.030700 0.371194
v -0.156921 0.030818 -0.357893
v 0.357951 0.031708 -0.378572
v 0.379185 0.031975 -0.089474
v -0.091296 0.029851 0.518610
v -0.379357 0.025838 0.084905
v 0.092039 0.027916 -0.518812
v 0.109192 0.033110 -0.225785
v -0.109834 0.033768 0.227642
v -0.129041 0.032816 -0.068802
v 0.129309 0.033110 0.069793
v 0.025890 0.025051 0.296278
v -0.246590 0.034822 0.158099
v -0.024179 0.028709 -0.291666
v 0.243125 0.033380 -0.164751
v -0.504551 0.011884 0.563226
v -0.503620 0.022738 0.562076
v -0.785567 0.011884 -0.396477
v -0.781371 0.023230 -0.388971
v 0.071271 0.011884 0.394616
v 0.077108 0.020068 0.397862
v -0.209746 0.011884 -0.565087
v -0.215713 0.021080 -0.569476
v -0.651030 0.018372 0.080994
v -0.501728 0.027245 -0.476905
v -0.073186 0.015917 -0.085207
v -0.217648 0.021984 0.478492
v -0.355223 0.027105 0.000240
v -0.715813 0.021152 -0.157921
v -0.349046 0.020700 -0.515040
v 0.001715 0.020818 0.154752
v -0.360762 0.021708 0.520992
v -0.573442 0.021975 0.324025
v -0.644012 0.019851 -0.441571
v -0.137560 0.015838 -0.320802
v -0.070637 0.017916 0.442226
v -0.283011 0.023110 0.239603
v -0.432029 0.023768 -0.241399
v -0.215822 0.022816 -0.037677
v -0.499294 0.023110 0.037136
v -0.578103 0.015051 -0.199043
v -0.284581 0.024822 -0.283795
v -0.140536 0.018709 0.196836
v -0.422592 0.023380 0.286297
vt 0.000977 0.996094
vt 0.000977 0.990234
vt 0.077393 0.990234
vt 0.153809 0.990234
vt 0.230225 0.990234
vt 0.306641 0.990234
vt 0.305664 0.996094
vt 0.237305 1.000000
vt 0.237305 0.996094
vt 0.296387 0.996094
vt 0.355469 0.996094
vt 0.414551 0.996094
vt 0.473633 0.996094
vt 0.473633 1.000000
vt 0.306641 0.984375
vt 0.305664 0.990234
vt 0.229492 0.990234
vt 0.153320 0.990234
vt 0.077148 0.990234
vt 0.000977 0.990234
vt 0.000977 0.984375
vt 0.237305 0.996094
vt 0.237305 1.000000
vt 0.178223 1.000000
vt 0.119141 1.000000
vt 0.060059 1.000000
vt 0.000977 1.000000
vt 0.500000 0.500000
vt 0.500000 1.000000
vt 0.000000 1.000000
vt 0.000000 0.500000
vt 0.125000 0.875000
vt 0.125000 1.000000
vt 0.000000 1.000000
vt 0.000000 0.875000
vt 0.125000 0.625000
vt 0.125000 0.750000
vt 0.000000 0.750000
vt 0.000000 0.625000
vt 0.375000 0.625000
vt 0.375000 0.750000
vt 0.250000 0.750000
vt 0.250000 0.625000
vt 0.375000 0.875000
vt 0.375000 1.000000
vt 0.250000 1.000000
vt 0.250000 0.875000
vt 0.500000 0.750000
vt 0.500000 0.875000
vt 0.500000 1.000000
vt 0.375000 0.500000
vt 0.250000 0.500000
vt 0.500000 0.500000
vt 0.500000 0.625000
vt 0.125000 0.500000
vt 0.000000 0.500000
vt 0.500977 0.996094
vt 0.500977 0.990234
vt 0.577148 0.990234
vt 0.654297 0.990234
vt 0.730469 0.990234
vt 0.806641 0.990234
vt 0.805664 0.996094
vt 0.737305 1.000000
vt 0.737305 0.996094
vt 0.796875 0.996094
vt 0.855469 0.996094
vt 0.915039 0.996094
vt 0.973633 0.996094
vt 0.973633 1.000000
vt 0.806641 0.984375
vt 0.805664 0.990234
vt 0.729492 0.990234
vt 0.653320 0.990234
vt 0.577148 0.990234
vt 0.500977 0.990234
vt 0.500977 0.984375
vt 0.737305 0.996094
vt 0.737305 1.000000
vt 0.678711 1.000000
vt 0.619141 1.000000
vt 0.560547 1.000000
vt 0.500977 1.000000
vt 1.000000 0.500000
vt 1.000000 1.000000
vt 0.500000 1.000000
vt 0.500000 0.500000
vt 0.625000 0.875000
vt 0.625000 1.000000
vt 0.500000 1.000000
vt 0.500000 0.875000
vt 0.625000 0.625000
vt 0.625000 0.750000
vt 0.500000 0.750000
vt 0.500000 0.625000
vt 0.875000 0.625000
vt 0.875000 0.750000
vt 0.750000 0.750000
vt 0.750000 0.625000
vt 0.875000 0.875000
vt 0.875000 1.000000
vt 0.750000 1.000000
vt 0.750000 0.875000
vt 1.000000 0.750000
vt 1.000000 0.875000
vt 1.000000 1.000000
vt 0.875000 0.500000
vt 0.750000 0.500000
vt 1.000000 0.500000
vt 1.000000 0.625000
vt 0.625000 0.500000
vt 0.500000 0.500000
vn 0.8913 -0.0681 0.4482
vn -0.4348 0.2156 0.8743
vn -0.8924 0.0932 -0.4415
vn 0.4441 -0.1947 -0.8746
vn 0.0000 -1.0000 0.0000
vn 0.0020 1.0000 -0.0011
vn -0.0233 0.9996 -0.0164
vn -0.0109 0.9999 -0.0025
vn -0.0088 0.9999 0.0075
vn 0.0278 0.9989 0.0379
vn 0.0557 0.9984 0.0099
vn -0.0232 0.9993 -0.0278
vn -0.0449 0.9986 -0.0278
vn -0.0252 0.9996 -0.0150
vn -0.0164 0.9998 -0.0068
vn 0.0140 0.9999 0.0036
vn -0.0152 0.9999 -0.0054
vn -0.0193 0.9994 -0.0274
vn 0.0025 1.0000 -0.0051
vn 0.0146 0.9999 -0.0010
vn 0.0142 0.9998 0.0151
vn -0.9576 -0.0681 0.2800
vn -0.2783 0.2156 -0.9360
vn 0.9538 0.0932 -0.2856
vn 0.2716 -0.1947 0.9425
vn -0.0007 1.0000 0.0021
vn 0.0282 0.9996 -0.0039
vn 0.0097 0.9999 -0.0056
vn 0.0013 0.9999 -0.0115
vn -0.0462 0.9989 -0.0088
vn -0.0475 0.9984 0.0308
vn 0.0360 0.9993 0.0045
vn 0.0518 0.9986 -0.0103
vn 0.0287 0.9996 -0.0062
vn 0.0166 0.9998 -0.0062
vn -0.0126 0.9999 0.0069
vn 0.0148 0.9999 -0.0064
vn 0.0328 0.9994 0.0069
vn 0.0017 1.0000 0.0055
vn -0.0100 0.9999 0.0107
vn -0.0207 0.9998 -0.0014
usemtl None
s off
f 1/1/1 2/2/1 18/3/1 9/4/1 14/5/1 4/6/1 3/7/1
f 3/8/2 4/9/2 19/10/2 10/11/2 15/12/2 8/13/2 7/14/2
f 7/15/3 8/16/3 20/17/3 11/18/3 16/19/3 6/20/3 5/21/3
f 5/22/4 6/23/4 21/24/4 12/25/4 17/26/4 2/27/4 1/1/4
f 3/28/5 7/29/5 5/30/5 1/31/5
f 29/32/6 18/33/6 2/34/6 17/35/6
f 28/36/7 22/37/7 12/38/7 21/39/7
f 27/40/8 23/41/8 13/42/8 24/43/8
f 26/44/9 14/45/9 9/46/9 25/47/9
f 23/41/10 26/44/10 25/47/10 13/42/10
f 10/48/11 19/49/11 26/44/11 23/41/11
f 19/49/12 4/50/12 14/45/12 26/44/12
f 20/51/13 27/40/13 24/43/13 11/52/13
f 8/53/14 15/54/14 27/40/14 20/51/14
f 15/54/15 10/48/15 23/41/15 27/40/15
f 16/55/16 28/36/16 21/39/16 6/56/16
f 11/52/17 24/43/17 28/36/17 16/55/17
f 24/43/18 13/42/18 22/37/18 28/36/18
f 22/37/19 29/32/19 17/35/19 12/38/19
f 13/42/20 25/47/20 29/32/20 22/37/20
f 25/47/21 9/46/21 18/33/21 29/32/21
f 30/57/22 31/58/22 47/59/22 38/60/22 43/61/22 33/62/22 32/63/22
f 32/64/23 33/65/23 48/66/23 39/67/23 44/68/23 37/69/23 36/70/23
f 36/71/24 37/72/24 49/73/24 40/74/24 45/75/24 35/76/24 34/77/24
f 34/78/25 35/79/25 50/80/25 41/81/25 46/82/25 31/83/25 30/57/25
f 32/84/5 36/85/5 34/86/5 30/87/5
f 58/88/26 47/89/26 31/90/26 46/91/26
f 57/92/27 51/93/27 41/94/27 50/95/27
f 56/96/28 52/97/28 42/98/28 53/99/28
f 55/100/29 43/101/29 38/102/29 54/103/29
f 52/97/30 55/100/30 54/103/30 42/98/30
f 39/104/31 48/105/31 55/100/31 52/97/31
f 48/105/32 33/106/32 43/101/32 55/100/32
f 49/107/33 56/96/33 53/99/33 40/108/33
f 37/109/34 44/110/34 56/96/34 49/107/34
f 44/110/35 39/104/35 52/97/35 56/96/35
f 45/111/36 57/92/36 50/95/36 35/112/36
f 40/108/37 53/99/37 57/92/37 45/111/37
f 53/99/38 42/98/38 51/93/38 57/92/38
f 51/93/39 58/88/39 46/91/39 41/94/39
f 42/98/40 54/103/40 58/88/40 51/93/40
f 54/103/41 38/102/41 47/89/41 58/88/41
