# Blender v2.83.5 OBJ File: 'biome_tileset_town_001.blend'
# www.blender.org
mtllib town_1_hw_dx_001.mtl
o town_1_hw_dx_001_Cube.061
v -0.500000 3.000000 0.250000
v -0.500000 0.000000 -0.271390
v 0.500000 3.000000 0.250000
v 0.500000 0.000000 -0.271390
v -0.250000 3.000000 -0.500000
v -0.354176 3.000000 -0.370736
v 0.359884 3.000000 0.363130
v 0.360350 0.000000 -0.357078
v -0.500000 0.799845 0.225413
v -0.500000 2.166924 0.209653
v -0.500000 2.625000 0.271390
v -0.500000 2.625000 -0.271390
v -0.500000 2.166924 -0.209653
v -0.500000 1.483385 -0.257035
v -0.500000 0.799845 -0.225413
v 0.500000 2.625000 -0.271390
v 0.500000 2.166924 -0.209653
v 0.500000 1.141615 -0.257035
v 0.500000 0.799845 -0.225413
v 0.500000 0.458076 -0.233495
v 0.500000 2.166924 0.209653
v 0.500000 1.141615 0.257035
v 0.500000 0.458076 0.233495
v 0.233496 0.458076 0.500000
v 0.209653 2.166924 0.500000
v -0.209653 2.166924 0.500000
v -0.257035 1.141615 0.500000
v -0.225413 0.799845 0.500000
v -0.257035 1.141615 -0.500000
v 0.209653 2.166924 -0.500000
v 0.225413 1.825155 -0.500000
v 0.257035 1.483385 -0.500000
v 0.257035 1.141615 -0.500000
v 0.233495 0.458076 -0.500000
v -0.354195 0.383538 0.349965
v -0.350687 0.763458 0.396093
v -0.336827 1.106832 0.377953
v -0.348093 2.633538 -0.374946
v -0.344585 2.263458 -0.328819
v -0.330724 1.481832 -0.346959
v -0.376642 1.116960 -0.400181
v -0.379484 0.714872 -0.390547
v -0.379158 0.428604 -0.357850
v 0.365967 2.633538 0.358919
v 0.369475 1.513458 0.405047
v 0.383336 0.356832 0.386907
v 0.366432 2.633538 -0.361289
v 0.369940 2.263458 -0.315161
v 0.383801 1.856832 -0.333301
v 0.337884 0.366960 -0.386524
v -0.500000 0.000000 0.271390
v -0.500000 3.000000 -0.250000
v 0.500000 0.000000 0.271390
v 0.500000 3.000000 -0.250000
v 0.271390 0.000000 0.500000
v 0.250000 3.000000 0.500000
v -0.271390 0.000000 0.500000
v -0.250000 3.000000 0.500000
v 0.271390 0.000000 -0.500000
v 0.250000 3.000000 -0.500000
v -0.271390 0.000000 -0.500000
v 0.360350 3.000000 -0.357078
v -0.360278 3.000000 0.354176
v -0.360278 0.000000 0.354176
v -0.354176 0.000000 -0.370736
v 0.359884 0.000000 0.363130
v -0.500000 0.458076 0.233495
v -0.500000 1.141615 0.257035
v -0.500000 1.483385 0.257035
v -0.500000 1.825155 0.225413
v -0.500000 1.825155 -0.225413
v -0.500000 1.141615 -0.257035
v -0.500000 0.458076 -0.233495
v 0.500000 1.825155 -0.225413
v 0.500000 1.483385 -0.257035
v 0.500000 2.625000 0.271390
v 0.500000 1.825155 0.225413
v 0.500000 1.483385 0.257035
v 0.500000 0.799845 0.225413
v 0.225414 0.799845 0.500000
v 0.257035 1.141615 0.500000
v 0.257035 1.483385 0.500000
v 0.225414 1.825155 0.500000
v 0.271390 2.625000 0.500000
v -0.271390 2.625000 0.500000
v -0.225413 1.825155 0.500000
v -0.257035 1.483385 0.500000
v -0.233495 0.458076 0.500000
v -0.271390 2.625000 -0.500000
v -0.209653 2.166924 -0.500000
v -0.225413 1.825155 -0.500000
v -0.257035 1.483385 -0.500000
v -0.225413 0.799845 -0.500000
v -0.233495 0.458076 -0.500000
v 0.271390 2.625000 -0.500000
v 0.225413 0.799845 -0.500000
v -0.382744 1.491960 0.324730
v -0.385586 1.839872 0.334365
v -0.385261 2.303604 0.367061
v -0.379263 2.565325 0.348767
v -0.373161 1.815325 -0.376145
v 0.337418 2.241960 0.333685
v 0.334576 1.839872 0.343319
v 0.334902 1.178604 0.376016
v 0.340899 0.690325 0.357721
v 0.335042 1.464872 -0.376889
v 0.335367 1.178604 -0.344193
v 0.341364 0.690325 -0.362487
vt 0.129395 0.667643
vt 0.376465 0.667643
vt 0.376465 0.749023
vt 0.129395 0.749023
vt 0.376465 1.000326
vt 0.129395 1.000326
vt 0.129395 0.915039
vt 0.376465 0.915039
vt 0.130371 0.330404
vt 0.128418 0.405924
vt -0.000488 0.416992
vt -0.000488 0.333659
vt 0.500488 0.915039
vt 0.500488 0.749023
vt 0.007324 0.915039
vt -0.000488 0.749023
vt 0.128418 0.102539
vt -0.000488 0.084310
vt -0.000488 -0.000326
vt 0.128418 -0.000326
vt 0.004395 0.102539
vt 0.004395 -0.000326
vt 0.130371 0.002279
vt 0.130371 0.084310
vt 0.130371 0.583659
vt 0.130371 0.667643
vt -0.000488 0.667643
vt -0.000488 0.583659
vt 0.130371 0.084310
vt -0.000488 0.102539
vt -0.000488 -0.000326
vt 0.130371 0.002279
vt -0.000488 0.583659
vt 0.130371 0.583659
vt 0.130371 0.667643
vt -0.000488 0.667643
vt 0.130371 0.583659
vt 0.130371 0.667643
vt -0.000488 0.667643
vt -0.000488 0.583659
vt 0.130371 0.102539
vt 0.004395 0.084310
vt -0.000488 0.002279
vt 0.130371 -0.000326
vt 0.004395 0.583659
vt 0.130371 0.583659
vt 0.130371 0.667643
vt 0.004395 0.667643
vt -0.000488 -0.000326
vt 0.130371 0.002279
vt 0.130371 0.084310
vt -0.000488 0.102539
vt 0.130371 0.168294
vt 0.004395 0.179362
vt 0.130371 0.251628
vt 0.004395 0.254232
vt 0.130371 0.334310
vt -0.000488 0.330404
vt 0.130371 0.418294
vt -0.000488 0.405924
vt 0.130371 0.500977
vt 0.004395 0.482747
vt 0.130371 0.667643
vt 0.004395 0.667643
vt 0.004395 0.583659
vt 0.130371 0.583659
vt 0.004395 0.500977
vt 0.130371 0.482747
vt 0.004395 0.418294
vt 0.130371 0.405924
vt 0.004395 0.334310
vt 0.130371 0.330404
vt 0.004395 0.251628
vt 0.130371 0.254232
vt 0.004395 0.168294
vt 0.130371 0.179362
vt 0.128418 -0.000326
vt 0.128418 0.102539
vt -0.000488 0.084310
vt -0.000488 -0.000326
vt 0.130371 0.179362
vt -0.000488 0.168294
vt 0.130371 0.254232
vt -0.000488 0.251628
vt 0.130371 0.482747
vt -0.000488 0.500977
vt -0.000488 -0.000326
vt 0.128418 -0.000326
vt 0.128418 0.084310
vt -0.000488 0.102539
vt 0.128418 0.168294
vt -0.000488 0.179362
vt -0.000488 0.254232
vt 0.128418 0.251628
vt 0.128418 0.333659
vt -0.000488 0.330404
vt 0.128418 0.416992
vt -0.000488 0.405924
vt 0.130371 0.500977
vt -0.000488 0.482747
vt 0.130371 0.667643
vt 0.004395 0.667643
vt 0.004395 0.583659
vt 0.130371 0.583659
vt -0.000488 0.482747
vt 0.130371 0.500977
vt -0.000488 0.405924
vt 0.130371 0.418294
vt -0.000488 0.330404
vt 0.130371 0.334310
vt -0.000488 0.254232
vt 0.130371 0.251628
vt -0.000488 0.179362
vt 0.130371 0.168294
vt 0.128418 -0.000326
vt 0.128418 0.102539
vt -0.000488 0.084310
vt -0.000488 -0.000326
vt 0.128418 0.179362
vt -0.000488 0.168294
vt 0.128418 0.254232
vt -0.000488 0.251628
vt 0.128418 0.330404
vt -0.000488 0.333659
vt 0.128418 0.405924
vt -0.000488 0.416992
vt 0.130371 0.482747
vt -0.000488 0.500977
vt 0.004395 0.667643
vt -0.000488 0.583659
vt 0.130371 0.583659
vt 0.130371 0.667643
vt -0.000488 0.482747
vt 0.130371 0.500977
vt -0.000488 0.405924
vt 0.130371 0.418294
vt 0.004395 0.330404
vt 0.004395 0.254232
vt 0.130371 0.251628
vt 0.130371 0.334310
vt 0.004395 0.179362
vt 0.130371 0.168294
vt 0.128418 0.583659
vt -0.000488 0.583659
vt -0.000488 0.500977
vt 0.128418 0.482747
vt -0.000488 0.416992
vt 0.130371 0.405924
vt 0.128418 0.330404
vt -0.000488 0.333659
vt -0.000488 0.251628
vt 0.128418 0.254232
vt -0.000488 0.168294
vt 0.128418 0.179362
vt 0.128418 0.667643
vt -0.000488 0.667643
vn 0.3294 0.8303 0.4495
vn 0.3275 0.8289 -0.4534
vn 0.4671 0.7494 -0.4693
vn 0.4743 0.7420 0.4737
vn -0.3344 0.8316 -0.4434
vn -0.3192 0.8267 0.4634
vn -0.4621 0.7524 0.4694
vn -0.4816 0.7394 -0.4704
vn 0.6700 0.0282 0.7418
vn 0.6383 0.0822 0.7653
vn 0.7071 0.0767 0.7029
vn 0.7115 0.0461 0.7011
vn -0.4548 0.8296 -0.3239
vn 0.4511 0.8294 -0.3295
vn -0.4529 0.8288 0.3285
vn 0.4485 0.8305 0.3304
vn -0.7544 -0.0042 0.6563
vn -0.7053 0.0156 0.7087
vn -0.7035 0.0463 0.7092
vn -0.8205 0.0457 0.5698
vn -0.6551 -0.0049 0.7555
vn -0.5637 0.0453 0.8247
vn -0.5807 -0.0463 -0.8127
vn -0.7163 -0.0395 -0.6966
vn -0.7069 -0.0001 -0.7073
vn -0.6961 -0.0090 -0.7178
vn -0.7660 0.0205 -0.6425
vn -0.7086 0.0232 -0.7052
vn 0.8141 -0.0416 0.5792
vn 0.7039 -0.0381 0.7092
vn 0.5751 -0.0427 0.8170
vn 0.7761 0.0315 -0.6298
vn 0.7201 0.0316 -0.6930
vn 0.7106 0.0311 -0.7029
vn 0.8042 0.0377 -0.5931
vn 0.5760 -0.0389 -0.8165
vn 0.7020 -0.0302 -0.7115
vn 0.6156 0.0248 -0.7877
vn 0.6435 0.0299 -0.7649
vn 0.7122 0.0167 -0.7017
vn 0.6030 0.0056 -0.7977
vn 0.7146 -0.0251 -0.6991
vn 0.5535 -0.0240 -0.8325
vn 0.7247 -0.0055 -0.6890
vn 0.5851 -0.0001 -0.8109
vn 0.6995 0.0385 -0.7135
vn 0.6473 0.0414 -0.7611
vn 0.6895 -0.0468 -0.7227
vn 0.6377 -0.0019 -0.7703
vn 0.8027 -0.0308 -0.5956
vn 0.7578 -0.0040 -0.6525
vn 0.7547 0.0317 -0.6553
vn 0.8222 -0.0006 -0.5692
vn 0.8501 -0.0184 -0.5262
vn 0.8105 0.0004 -0.5857
vn 0.6920 -0.0074 0.7218
vn 0.6884 0.0532 0.7233
vn 0.7071 0.0237 0.7066
vn 0.7073 -0.0074 0.7069
vn 0.6434 0.0011 0.7655
vn 0.7092 0.0416 0.7038
vn 0.6368 -0.0528 0.7692
vn 0.7160 -0.0552 0.6959
vn 0.5842 -0.0231 0.8113
vn 0.7044 -0.0548 0.7077
vn 0.7222 -0.0074 0.6916
vn 0.7246 0.0540 0.6870
vn 0.7800 0.0024 0.6258
vn 0.7873 -0.0498 0.6146
vn 0.7529 0.0237 0.6577
vn 0.7688 0.0797 0.6344
vn 0.8108 -0.0258 0.5846
vn -0.8218 -0.0408 -0.5683
vn -0.7552 0.0190 -0.6552
vn -0.7032 -0.0370 -0.7100
vn -0.7435 0.0253 -0.6682
vn -0.7077 0.0201 -0.7062
vn -0.7893 0.0274 -0.6133
vn -0.7119 0.0302 -0.7016
vn -0.7131 0.0370 -0.7000
vn -0.7055 0.0268 -0.7082
vn -0.6124 -0.0331 -0.7899
vn -0.7038 -0.0303 -0.7098
vn -0.6408 0.0259 -0.7673
vn -0.7189 -0.0031 -0.6951
vn -0.7830 -0.0288 -0.6213
vn -0.7034 0.0381 -0.7097
vn -0.6244 0.0298 -0.7805
vn -0.6708 0.0265 -0.7412
vn -0.6582 0.0168 -0.7526
vn -0.6205 0.0038 0.7841
vn -0.7033 -0.0099 0.7108
vn -0.7391 -0.0203 0.6732
vn -0.7071 -0.0304 0.7064
vn -0.6823 0.0052 0.7310
vn -0.7040 0.0030 0.7102
vn -0.5816 0.0243 0.8131
vn -0.6157 0.0137 0.7878
vn -0.7138 0.0020 0.7003
vn -0.6882 0.0167 0.7253
vn -0.6921 -0.0158 0.7215
vn -0.7092 -0.0193 0.7047
vn -0.7718 0.0060 0.6358
vn -0.6822 -0.0230 0.7307
vn -0.7193 0.0033 0.6947
vn -0.7949 0.0062 0.6067
vn -0.7882 -0.0064 0.6153
vn -0.7275 -0.0154 0.6859
usemtl town_biome_material.017
s 1
f 3/1/1 54/2/2 62/3/3 7/4/4
f 52/5/5 1/6/6 63/7/7 6/8/8
f 78/9/9 77/10/10 103/11/11 45/12/12
f 5/13/13 6/8/8 62/3/3 60/14/14
f 63/7/7 58/15/15 56/16/16 7/4/4
f 62/3/3 6/8/8 63/7/7 7/4/4
f 88/17/17 35/18/18 64/19/19 57/20/20
f 67/21/21 51/22/22 64/23/19 35/24/18
f 12/25/23 52/26/5 6/27/8 38/28/24
f 43/29/25 94/30/26 61/31/27 65/32/28
f 84/33/29 44/34/30 7/35/4 56/36/16
f 76/37/31 3/38/1 7/39/4 44/40/30
f 34/41/32 50/42/33 8/43/34 59/44/35
f 16/45/36 47/46/37 62/47/3 54/48/2
f 4/49/38 8/50/34 50/51/33 20/52/39
f 20/52/39 50/51/33 108/53/40 19/54/41
f 19/54/41 108/53/40 107/55/42 18/56/43
f 18/56/43 107/55/42 106/57/44 75/58/45
f 75/58/45 106/57/44 49/59/46 74/60/47
f 74/60/47 49/59/46 48/61/48 17/62/49
f 17/62/49 48/61/48 47/46/37 16/45/36
f 60/63/14 62/64/3 47/65/37 95/66/50
f 95/66/50 47/65/37 48/67/48 30/68/51
f 30/68/51 48/67/48 49/69/46 31/70/52
f 31/70/52 49/69/46 106/71/44 32/72/53
f 32/72/53 106/71/44 107/73/42 33/74/54
f 33/74/54 107/73/42 108/75/40 96/76/55
f 96/76/55 108/75/40 50/42/33 34/41/32
f 53/77/56 23/78/57 46/79/58 66/80/59
f 23/78/57 79/81/60 105/82/61 46/79/58
f 79/81/60 22/83/62 104/84/63 105/82/61
f 22/83/62 78/9/9 45/12/12 104/84/63
f 77/10/10 21/85/64 102/86/65 103/11/11
f 21/85/64 76/37/31 44/40/30 102/86/65
f 55/87/66 66/88/59 46/89/58 24/90/67
f 24/90/67 46/89/58 105/91/61 80/92/68
f 81/93/69 104/94/63 45/95/12 82/96/70
f 82/96/70 45/95/12 103/97/11 83/98/71
f 83/98/71 103/97/11 102/99/65 25/100/72
f 25/100/72 102/99/65 44/34/30 84/33/29
f 6/101/8 5/102/13 89/103/73 38/104/24
f 38/104/24 89/103/73 90/105/74 39/106/75
f 39/106/75 90/105/74 91/107/76 101/108/77
f 101/108/77 91/107/76 92/109/78 40/110/79
f 40/110/79 92/109/78 29/111/80 41/112/81
f 41/112/81 29/111/80 93/113/82 42/114/83
f 42/114/83 93/113/82 94/30/26 43/29/25
f 2/115/84 73/116/85 43/117/25 65/118/28
f 73/116/85 15/119/86 42/120/83 43/117/25
f 15/119/86 72/121/87 41/122/81 42/120/83
f 72/121/87 14/123/88 40/124/79 41/122/81
f 14/123/88 71/125/89 101/126/77 40/124/79
f 71/125/89 13/127/90 39/128/75 101/126/77
f 13/127/90 12/25/23 38/28/24 39/128/75
f 1/129/6 11/130/91 100/131/92 63/132/7
f 11/130/91 10/133/93 99/134/94 100/131/92
f 10/133/93 70/135/95 98/136/96 99/134/94
f 69/137/97 68/138/98 37/139/99 97/140/100
f 68/138/98 9/141/101 36/142/102 37/139/99
f 9/141/101 67/21/21 35/24/18 36/142/102
f 85/143/103 100/144/92 99/145/94 26/146/104
f 26/146/104 99/145/94 98/147/96 86/148/105
f 87/149/106 97/150/100 37/151/99 27/152/107
f 27/152/107 37/151/99 36/153/102 28/154/108
f 28/154/108 36/153/102 35/18/18 88/17/17
f 80/92/68 105/91/61 104/94/63 81/93/69
f 70/135/95 69/137/97 97/140/100 98/136/96
f 58/155/15 63/156/7 100/144/92 85/143/103
f 86/148/105 98/147/96 97/150/100 87/149/106
