# Blender v2.79 (sub 0) OBJ File: 'dungeon_dev_001.blend'
# www.blender.org
mtllib dungeon_dev_001.mtl
o Cube_Cube.001_Cube_Cube.000
v 0.500000 2.700000 1.500000
v 0.400000 2.850000 -1.500000
v 0.400000 2.850000 1.500000
v -0.200000 2.850000 -1.500000
v -0.400000 2.850000 1.500000
v -0.200000 2.850000 1.500000
v -0.500000 0.150000 1.500000
v -0.500000 0.000000 -1.500000
v -0.500000 0.000000 1.500000
v 0.200000 3.000000 -1.500000
v -0.200000 3.000000 1.500000
v 0.200000 3.000000 1.500000
v 0.200000 2.850000 1.500000
v 0.200000 2.850000 -1.500000
v 0.200000 2.700000 -1.500000
v 0.500000 2.700000 -1.500000
v 0.200000 0.150000 -1.500000
v 0.200000 2.700000 1.500000
v 0.200000 0.150000 1.500000
v 0.500000 -0.000000 1.500000
v 0.500000 0.150000 -1.500000
v 0.500000 0.150000 1.500000
v -0.500000 2.700000 -1.500000
v -0.500000 2.700000 1.500000
v -0.200000 0.150000 1.500000
v -0.500000 0.150000 -1.500000
v -0.200000 2.700000 1.500000
v -0.200000 2.700000 -1.500000
v -0.200000 0.150000 -1.500000
v -0.400000 2.850000 -1.500000
v -0.200000 3.000000 -1.500000
v 0.500000 -0.000000 -1.500000
v 0.200000 0.150000 -0.000000
v -0.200000 0.150000 0.000000
vt 0.333334 0.500000
vt 0.308334 1.000000
vt 0.308334 0.500000
vt 0.966667 0.000000
vt 1.000000 0.500000
vt 0.966667 0.500000
vt 0.258334 1.000000
vt 0.283334 0.500000
vt 0.283334 1.000000
vt 0.916667 0.500000
vt 0.850000 0.000000
vt 0.916666 0.000000
vt 0.208334 1.000000
vt 0.233334 0.500000
vt 0.233334 1.000000
vt 0.050000 1.000000
vt 0.000000 0.500000
vt 0.050000 0.500000
vt 0.208334 0.500000
vt 0.183334 1.000000
vt 0.183334 0.500000
vt 0.850000 0.500000
vt 0.425000 0.000000
vt 0.850000 0.000000
vt 0.233334 1.000000
vt 0.258334 0.500000
vt 0.258334 1.000000
vt 0.308334 0.500000
vt 0.283334 1.000000
vt 0.283334 0.500000
vt 0.150000 0.500000
vt 0.183334 1.000000
vt 0.150000 1.000000
vt 0.150000 0.500000
vt 0.100000 1.000000
vt 0.100000 0.500000
vt 0.916667 0.000000
vt 0.966667 0.500000
vt 0.916667 0.500000
vt 0.425000 0.500000
vt 0.000000 0.000000
vt 0.425000 0.000000
vt 0.050000 1.000000
vt 0.100000 0.500000
vt 0.100000 1.000000
vt 0.333334 1.000000
vt 1.000000 0.000000
vt 0.258334 0.500000
vt 0.850000 0.500000
vt 0.208334 0.500000
vt 0.000000 1.000000
vt 0.208334 1.000000
vt 0.425000 0.500000
vt 0.233334 0.500000
vt 0.308334 1.000000
vt 0.183334 0.500000
vt 0.150000 1.000000
vt 0.966667 0.000000
vt 0.000000 0.500000
vt 0.050000 0.500000
vn 0.8321 0.5547 -0.0000
vn 0.0000 1.0000 -0.0000
vn -1.0000 0.0000 0.0000
vn 1.0000 0.0000 -0.0000
vn 0.0000 -1.0000 0.0000
vn -0.8321 0.5547 0.0000
usemtl None.007
s off
f 1/1/1 2/2/1 3/3/1
f 4/4/2 5/5/2 6/6/2
f 7/7/3 8/8/3 9/9/3
f 10/10/2 11/11/2 12/12/2
f 10/13/4 13/14/4 14/15/4
f 1/16/5 15/17/5 16/18/5
f 11/19/3 4/20/3 6/21/3
f 17/22/4 18/23/4 19/24/4
f 20/25/4 21/26/4 22/27/4
f 5/28/6 23/29/6 24/30/6
f 2/31/2 13/32/2 3/33/2
f 25/34/2 26/35/2 7/36/2
f 23/37/5 27/38/5 24/39/5
f 25/40/3 28/41/3 29/42/3
f 22/43/2 17/44/2 19/45/2
f 1/1/1 16/46/1 2/2/1
f 4/4/2 30/47/2 5/5/2
f 7/7/3 26/48/3 8/8/3
f 10/10/2 31/49/2 11/11/2
f 10/13/4 12/50/4 13/14/4
f 1/16/5 18/51/5 15/17/5
f 11/19/3 31/52/3 4/20/3
f 17/22/4 15/53/4 18/23/4
f 20/25/4 32/54/4 21/26/4
f 5/28/6 30/55/6 23/29/6
f 2/31/2 14/56/2 13/32/2
f 25/34/2 29/57/2 26/35/2
f 23/37/5 28/58/5 27/38/5
f 25/40/3 27/59/3 28/41/3
f 22/43/2 21/60/2 17/44/2
l 25 34
l 33 17
