# Blender v2.79 (sub 0) OBJ File: 'dungeon_dev_001.blend'
# www.blender.org
mtllib dungeon_dev_001.mtl
o Plane
v 3.500000 0.000000 -1.000000
v 0.200000 2.708333 1.000000
v 0.200991 2.708333 -1.000000
v 0.200000 0.150000 -1.000000
v 0.500000 -0.000000 -1.000000
v 0.500000 0.150000 -1.000000
v 3.500000 0.000000 1.000000
v 3.087500 0.375000 1.000000
v 3.500000 0.375000 -1.000000
v 3.087500 0.375000 -1.000000
v 0.612500 2.708333 1.000000
v 0.612500 2.708333 -1.000000
v 0.612500 2.375000 1.000000
v 1.025000 2.375000 1.000000
v 1.025000 2.375000 -1.000000
v 0.612500 2.375000 -1.000000
v 1.025000 2.041667 1.000000
v 1.437500 2.041667 1.000000
v 1.437500 2.041667 -1.000000
v 1.025000 2.041667 -1.000000
v 1.437500 1.708333 1.000000
v 1.850000 1.708333 1.000000
v 1.850000 1.708333 -1.000000
v 1.437500 1.708333 -1.000000
v 1.850000 1.375000 1.000000
v 2.262500 1.375000 1.000000
v 2.262500 1.375000 -1.000000
v 1.850000 1.375000 -1.000000
v 2.262500 1.041667 1.000000
v 2.675000 1.041667 1.000000
v 2.675000 1.041667 -1.000000
v 2.262500 1.041667 -1.000000
v 2.675000 0.708333 1.000000
v 3.087500 0.708333 1.000000
v 3.087500 0.708333 -1.000000
v 2.675000 0.708333 -1.000000
v 0.200000 0.150000 1.000000
v 0.500000 -0.000000 1.000000
v 0.500000 0.150000 1.000000
v 3.500000 0.375000 1.000000
v 0.500000 2.700000 1.500000
v 0.400000 2.850000 -1.500000
v 0.400000 2.850000 1.500000
v -0.200000 2.850000 -1.500000
v -0.400000 2.850000 1.500000
v -0.200000 2.850000 1.500000
v -0.500000 0.150000 1.500000
v -0.500000 0.000000 -1.500000
v -0.500000 0.000000 1.500000
v 0.200000 3.000000 -1.500000
v -0.200000 3.000000 1.500000
v 0.200000 3.000000 1.500000
v 0.200000 2.850000 1.500000
v 0.200000 2.850000 -1.500000
v 0.200000 2.700000 -1.500000
v 0.500000 2.700000 -1.500000
v 0.200000 0.150000 -1.500000
v 0.200000 2.700000 1.500000
v 0.200000 0.150000 1.500000
v 0.500000 -0.000000 1.500000
v 0.500000 0.150000 -1.500000
v 0.500000 0.150000 1.500000
v -0.500000 2.700000 -1.500000
v -0.500000 2.700000 1.500000
v -0.200000 0.150000 1.500000
v -0.500000 0.150000 -1.500000
v -0.200000 2.700000 1.500000
v -0.200000 2.700000 -1.500000
v -0.200000 0.150000 -1.500000
v -0.400000 2.850000 -1.500000
v -0.200000 3.000000 -1.500000
v 0.500000 -0.000000 -1.500000
v -0.200000 0.150000 0.000000
v 3.500000 0.000000 -1.500000
v 0.500000 -0.000000 -1.500000
v 3.500000 0.000000 1.500000
v 0.500000 -0.000000 1.500000
vt 0.248085 0.959998
vt 0.000321 0.918704
vt 0.248085 0.918704
vt 0.868778 0.898555
vt 0.621014 0.847576
vt 0.868778 0.847576
vt 0.372608 0.899319
vt 0.620373 0.940613
vt 0.372608 0.940613
vt 0.372608 0.898677
vt 0.620372 0.847576
vt 0.620373 0.898677
vt 0.372608 0.941254
vt 0.620373 0.982548
vt 0.372608 0.982548
vt 0.000321 0.819223
vt 0.248085 0.768121
vt 0.248085 0.819223
vt 0.621014 0.941254
vt 0.868778 0.982548
vt 0.621014 0.982548
vt 0.000321 0.870965
vt 0.248085 0.819864
vt 0.248085 0.870965
vt 0.751915 0.398417
vt 0.999679 0.439711
vt 0.751915 0.439711
vt 0.000321 0.767480
vt 0.248085 0.716378
vt 0.248085 0.767480
vt 0.868778 0.940613
vt 0.621014 0.899319
vt 0.868778 0.899319
vt 0.000321 0.715737
vt 0.248085 0.664636
vt 0.248085 0.715737
vt 0.999679 0.481646
vt 0.751915 0.440352
vt 0.999679 0.440352
vt 0.000321 0.612252
vt 0.248085 0.561150
vt 0.248085 0.612252
vt 0.248085 0.918063
vt 0.000321 0.871607
vt 0.248085 0.871607
vt 0.554170 0.451945
vt 0.557638 0.454604
vt 0.674557 0.752494
vt 0.248085 0.612893
vt 0.000321 0.663994
vt 0.000321 0.612893
vt 0.587854 0.273894
vt 0.536752 0.315188
vt 0.471714 0.080844
vt 0.727646 0.846935
vt 0.709965 0.787915
vt 0.727668 0.787922
vt 0.062262 0.000321
vt 0.371967 0.017871
vt 0.000321 0.017871
vt 0.674557 0.787901
vt 0.373569 0.846798
vt 0.372608 0.787784
vt 0.434549 0.080844
vt 0.372609 0.396743
vt 0.372608 0.080844
vt 0.372608 0.043679
vt 0.434549 0.025097
vt 0.434549 0.043679
vt 0.257194 0.665320
vt 0.309229 0.620033
vt 0.272064 0.681983
vt 0.309870 0.639257
vt 0.371811 0.640289
vt 0.309870 0.657839
vt 0.692261 0.398417
vt 0.751274 0.752494
vt 0.692261 0.752494
vt 0.471714 0.062262
vt 0.843360 0.000321
vt 0.843360 0.062262
vt 0.000321 0.959998
vt 0.621014 0.898677
vt 0.620373 0.899319
vt 0.372608 0.847576
vt 0.620373 0.941254
vt 0.000321 0.768121
vt 0.868778 0.941254
vt 0.000321 0.819864
vt 0.999679 0.398417
vt 0.000321 0.716378
vt 0.621014 0.940613
vt 0.000321 0.664636
vt 0.751915 0.481646
vt 0.000321 0.561150
vt 0.000321 0.918062
vt 0.403691 0.652065
vt 0.411950 0.739216
vt 0.372608 0.739216
vt 0.411950 0.690531
vt 0.393499 0.457583
vt 0.550656 0.449347
vt 0.554052 0.449201
vt 0.557568 0.451858
vt 0.561037 0.454576
vt 0.561059 0.457323
vt 0.608659 0.447103
vt 0.648001 0.447103
vt 0.648001 0.398417
vt 0.248085 0.663994
vt 0.690056 0.191306
vt 0.792259 0.108718
vt 0.843360 0.108718
vt 0.792259 0.150012
vt 0.741158 0.150012
vt 0.741158 0.191306
vt 0.690056 0.232600
vt 0.638955 0.232600
vt 0.638955 0.273894
vt 0.587854 0.315188
vt 0.536752 0.356482
vt 0.485651 0.356482
vt 0.485651 0.397776
vt 0.434550 0.397776
vt 0.709942 0.846928
vt 0.310026 0.000321
vt 0.674534 0.846914
vt 0.372608 0.025097
vt 0.751273 0.398417
vt 0.471714 0.000321
vt 0.371967 0.086006
vt 0.000321 0.036454
vt 0.371967 0.036453
vt 0.000321 0.104588
vt 0.000321 0.086006
vt 0.371967 0.188863
vt 0.000321 0.151698
vt 0.371967 0.151698
vt 0.371967 0.504762
vt 0.000321 0.541927
vt 0.000321 0.504762
vt 0.309870 0.621065
vt 0.371811 0.620033
vt 0.371811 0.638615
vt 0.371967 0.541927
vt 0.000321 0.560509
vt 0.371967 0.129365
vt 0.000321 0.129365
vt 0.371967 0.104588
vt 0.269837 0.619392
vt 0.248726 0.561150
vt 0.304752 0.606658
vt 0.000321 0.188863
vt 0.313105 0.561150
vt 0.313058 0.585927
vt 0.248726 0.642036
vt 0.309229 0.681983
vt 0.371967 0.560509
vn 1.0000 0.0000 0.0000
vn 0.0000 1.0000 0.0000
vn 0.0000 0.0000 -1.0000
vn 0.0000 0.0000 1.0000
vn 1.0000 -0.0004 -0.0020
vn -0.7472 -0.4981 0.4400
vn 1.0000 0.0087 0.0005
vn -1.0000 0.0000 0.0000
vn 0.0000 -1.0000 0.0000
vn 1.0000 0.0000 -0.0020
vn -0.8321 0.5547 0.0000
vn 0.0000 0.9999 -0.0167
vn 0.0000 -0.9621 -0.2726
vn 0.0000 -0.9621 0.2726
vn -0.7477 -0.4984 -0.4388
vn 0.0000 0.9999 0.0167
usemtl None.007
s off
f 35/1/1 8/2/1 10/3/1
f 3/4/2 11/5/2 12/6/2
f 33/7/1 31/8/1 30/9/1
f 13/10/2 15/11/2 16/12/2
f 29/13/1 27/14/1 26/15/1
f 17/16/2 19/17/2 20/18/2
f 25/19/1 23/20/1 22/21/1
f 21/22/2 23/23/2 24/24/2
f 21/25/1 19/26/1 18/27/1
f 25/28/2 27/29/2 28/30/2
f 15/31/1 17/32/1 20/33/1
f 29/34/2 31/35/2 32/36/2
f 12/37/1 13/38/1 16/39/1
f 33/40/2 35/41/2 36/42/2
f 9/43/1 7/44/1 1/45/1
f 28/46/3 32/47/3 6/48/3
f 9/49/2 8/50/2 40/51/2
f 21/52/4 17/53/4 39/54/4
f 72/55/1 6/56/1 5/57/1
f 2/58/1 54/59/1 53/60/1
f 4/61/5 55/62/5 3/63/5
f 37/64/1 58/65/1 59/66/1
f 62/67/1 38/68/1 39/69/1
f 43/70/6 2/71/6 41/72/6
f 58/73/1 2/74/1 53/75/1
f 1/76/2 75/77/2 5/78/2
f 38/79/2 76/80/2 7/81/2
f 35/1/1 34/82/1 8/2/1
f 3/4/2 2/83/2 11/5/2
f 33/7/1 36/84/1 31/8/1
f 13/10/2 14/85/2 15/11/2
f 29/13/1 32/86/1 27/14/1
f 17/16/2 18/87/2 19/17/2
f 25/19/1 28/88/1 23/20/1
f 21/22/2 22/89/2 23/23/2
f 21/25/1 24/90/1 19/26/1
f 25/28/2 26/91/2 27/29/2
f 15/31/1 14/92/1 17/32/1
f 29/34/2 30/93/2 31/35/2
f 12/37/1 11/94/1 13/38/1
f 33/40/2 34/95/2 35/41/2
f 9/43/1 40/96/1 7/44/1
f 6/48/3 4/61/3 20/97/3
f 4/61/3 3/63/3 16/98/3
f 3/63/3 12/99/3 16/98/3
f 16/98/3 15/100/3 20/97/3
f 20/97/3 19/101/3 24/102/3
f 24/102/3 23/103/3 28/46/3
f 28/46/3 27/104/3 32/47/3
f 32/47/3 31/105/3 36/106/3
f 36/106/3 35/107/3 10/108/3
f 10/108/3 9/109/3 1/76/3
f 1/76/3 5/78/3 10/108/3
f 5/78/3 6/48/3 32/47/3
f 10/108/3 5/78/3 36/106/3
f 4/61/3 16/98/3 20/97/3
f 20/97/3 24/102/3 6/48/3
f 24/102/3 28/46/3 6/48/3
f 36/106/3 5/78/3 32/47/3
f 9/49/2 10/110/2 8/50/2
f 39/54/4 38/79/4 29/111/4
f 38/79/4 7/81/4 8/112/4
f 7/81/4 40/113/4 8/112/4
f 8/112/4 34/114/4 33/115/4
f 33/115/4 30/116/4 29/111/4
f 29/111/4 26/117/4 25/118/4
f 25/118/4 22/119/4 21/52/4
f 21/52/4 18/120/4 17/53/4
f 17/53/4 14/121/4 13/122/4
f 13/122/4 11/123/4 2/124/4
f 2/124/4 37/64/4 13/122/4
f 37/64/4 39/54/4 17/53/4
f 13/122/4 37/64/4 17/53/4
f 38/79/4 8/112/4 33/115/4
f 33/115/4 29/111/4 38/79/4
f 29/111/4 25/118/4 39/54/4
f 25/118/4 21/52/4 39/54/4
f 72/55/1 61/125/1 6/56/1
f 2/58/7 3/126/7 54/59/7
f 4/61/1 57/127/1 55/62/1
f 37/64/1 2/124/1 58/65/1
f 62/67/1 60/128/1 38/68/1
f 1/76/2 74/129/2 75/77/2
f 38/79/2 77/130/2 76/80/2
usemtl None.139
f 71/131/2 52/132/2 50/133/2
f 71/131/8 46/134/8 51/135/8
f 68/136/9 64/137/9 63/138/9
f 69/139/2 47/140/2 65/141/2
f 3/142/10 55/143/10 54/144/10
f 61/125/2 4/61/2 6/56/2
f 66/145/8 49/146/8 47/140/8
f 52/132/1 54/59/1 50/133/1
f 70/147/11 64/137/11 45/148/11
f 70/147/2 46/134/2 44/149/2
f 55/150/12 3/151/12 56/152/12
f 67/153/8 69/139/8 65/141/8
f 62/67/2 37/64/2 59/66/2
f 54/154/13 42/155/13 3/151/13
f 53/156/14 2/71/14 43/70/14
f 3/151/15 42/155/15 56/152/15
f 2/71/16 58/157/16 41/72/16
f 71/131/2 51/135/2 52/132/2
f 71/131/8 44/149/8 46/134/8
f 68/136/9 67/153/9 64/137/9
f 69/139/2 66/145/2 47/140/2
f 61/125/2 57/127/2 4/61/2
f 66/145/8 48/158/8 49/146/8
f 52/132/1 53/60/1 54/59/1
f 70/147/11 63/138/11 64/137/11
f 70/147/2 45/148/2 46/134/2
f 67/153/8 68/136/8 69/139/8
f 62/67/2 39/69/2 37/64/2
l 65 73
