# Blender v2.79 (sub 0) OBJ File: 'dungeon_dev_001.blend'
# www.blender.org
mtllib dungeon_001_wall_tl.mtl
o Cube_Cube.001
v -0.200000 2.850000 0.500000
v -0.400000 2.850000 -0.500000
v -0.400000 2.850000 0.500000
v -0.200000 2.700000 -0.500000
v -0.200000 0.150000 0.500000
v -0.200000 2.700000 0.500000
v 0.500000 0.150000 0.500000
v 0.200000 2.850000 -0.500000
v 0.200000 3.000000 0.500000
v 0.200000 2.850000 0.500000
v -0.200000 3.000000 -0.500000
v -0.200000 3.000000 0.500000
v -0.500000 0.000000 0.500000
v 0.400000 2.850000 0.500000
v -0.500000 2.700000 0.500000
v -0.500000 2.700000 -0.500000
v 0.500000 2.700000 -0.500000
v 0.400000 2.850000 -0.500000
v 0.200000 2.700000 0.500000
v 0.200000 2.700000 -0.500000
v -0.500000 0.150000 0.500000
v -0.200000 2.850000 -0.500000
v 0.200000 0.150000 0.500000
v 0.500000 -0.000000 0.500000
v 0.200000 3.000000 -0.500000
v 0.500000 2.700000 0.500000
vt 0.000000 0.000000
vt 0.000000 0.000000
vt 0.000000 0.000000
vt 0.000000 0.000000
vt 0.749321 0.075090
vt 0.998869 0.120078
vt 0.749321 0.120078
vt 0.998869 0.000226
vt 0.998869 0.075090
vt 0.998869 0.344671
vt 0.749321 0.394580
vt 0.749321 0.344671
vt 0.998869 0.439568
vt 0.749321 0.439568
vt 0.749321 0.169988
vt 0.749321 0.514433
vt 0.998869 0.207420
vt 0.998869 0.169988
vt 0.711437 0.674910
vt 0.674004 0.575091
vt 0.711437 0.575091
vt 0.749321 0.307239
vt 0.998869 0.307239
vt 0.636572 0.674910
vt 0.674004 0.724820
vt 0.636572 0.749775
vt 0.000226 0.575091
vt 0.000226 0.674910
vt 0.749321 0.514884
vt 0.786754 0.764432
vt 0.786753 0.514884
vt 0.674004 0.674910
vt 0.636572 0.575091
vt 0.674004 0.525182
vt 0.636572 0.500227
vt 0.749321 0.207420
vt 0.749321 0.000226
vt 0.998869 0.394581
vt 0.998869 0.514433
vt 0.749321 0.764432
vn 0.0000 -1.0000 0.0000
vn 0.8321 0.5547 -0.0000
vn 0.8320 0.5547 -0.0000
vn 0.0000 1.0000 0.0000
vn -0.8320 0.5547 -0.0000
vn -0.8321 0.5547 0.0000
vn 1.0000 0.0000 -0.0000
vn 0.0000 0.0000 1.0000
vn -1.0000 0.0000 0.0000
vn -0.0000 0.0000 -1.0000
usemtl None.003
s off
f 4/1/1 19/2/1 6/3/1
f 4/1/1 20/4/1 19/2/1
s 1
f 26/5/2 18/6/3 14/7/2
f 26/5/1 20/8/1 17/9/1
f 22/10/4 3/11/4 1/12/4
f 3/11/5 16/13/6 15/14/5
f 18/6/4 10/15/4 14/7/4
f 16/13/1 6/16/1 15/14/1
f 25/17/7 10/15/7 8/18/7
f 12/19/8 10/20/8 9/21/8
f 22/10/9 12/22/9 11/23/9
f 6/24/8 3/25/8 15/26/8
f 6/24/10 23/27/10 5/28/10
f 21/29/10 24/30/10 13/31/10
f 1/32/8 19/33/8 10/20/8
f 14/34/8 19/33/8 26/35/8
f 25/17/4 12/22/4 9/36/4
f 26/5/2 17/9/3 18/6/3
f 26/5/1 19/37/1 20/8/1
f 22/10/4 2/38/4 3/11/4
f 3/11/5 2/38/6 16/13/6
f 18/6/4 8/18/4 10/15/4
f 16/13/1 4/39/1 6/16/1
f 25/17/7 9/36/7 10/15/7
f 12/19/8 1/32/8 10/20/8
f 22/10/9 1/12/9 12/22/9
f 6/24/8 1/32/8 3/25/8
f 6/24/10 19/33/10 23/27/10
f 21/29/10 7/40/10 24/30/10
f 1/32/8 6/24/8 19/33/8
f 14/34/8 10/20/8 19/33/8
f 25/17/4 11/23/4 12/22/4
