# Blender v2.83.5 OBJ File: 'tile_set_001.blend'
# www.blender.org
mtllib tile_set_001_su_001.mtl
o base_model_high.003_Cube.022
v -1.000000 0.000000 1.500000
v -1.000000 0.375000 1.500000
v -1.000000 0.000000 -0.500000
v -1.000000 0.375000 -0.500000
v 1.000000 0.000000 1.500000
v 1.000000 0.375000 1.500000
v 1.000000 0.000000 -0.500000
v 1.000000 0.375000 -0.500000
v -1.000000 1.125000 -0.500000
v -1.000000 0.750000 -0.500000
v 1.000000 0.750000 -0.500000
v 1.000000 1.125000 -0.500000
v 1.000000 0.375000 1.125000
v -1.000000 0.375000 1.125000
v 1.000000 0.750000 1.125000
v -1.000000 0.750000 1.125000
v 1.000000 1.500000 -0.500000
v -1.000000 1.500000 -0.500000
v 1.000000 0.750000 0.750000
v -1.000000 0.750000 0.750000
v 1.000000 1.125000 0.750000
v -1.000000 1.125000 0.750000
v -1.000000 1.875000 -0.500000
v 1.000000 1.875000 -0.500000
v 1.000000 1.125000 0.375000
v -1.000000 1.125000 0.375000
v 1.000000 1.500000 0.375000
v -1.000000 1.500000 0.375000
v 1.000000 1.500000 0.000000
v -1.000000 1.500000 0.000000
v 1.000000 1.875000 0.000000
v -1.000000 1.875000 0.000000
vt 0.375000 0.000000
vt 0.625000 0.000000
vt 0.625000 0.250000
vt 0.375000 0.250000
vt 0.625000 0.500000
vt 0.375000 0.500000
vt 0.625000 0.750000
vt 0.375000 0.750000
vt 0.625000 1.000000
vt 0.375000 1.000000
vt 0.125000 0.500000
vt 0.125000 0.750000
vt 0.625000 1.000000
vt 0.625000 0.750000
vt 0.625000 0.750000
vt 0.625000 1.000000
vt 0.625000 0.500000
vt 0.625000 0.250000
vt 0.625000 0.250000
vt 0.625000 0.500000
vt 0.625000 1.000000
vt 0.625000 0.750000
vt 0.625000 0.750000
vt 0.625000 1.000000
vt 0.625000 0.750000
vt 0.625000 1.000000
vt 0.625000 1.000000
vt 0.625000 0.750000
vt 0.625000 0.750000
vt 0.625000 1.000000
vt 0.625000 0.750000
vt 0.625000 0.500000
vt 0.625000 1.000000
vt 0.625000 0.250000
vt 0.625000 0.250000
vt 0.625000 0.500000
vn -1.0000 0.0000 0.0000
vn 0.0000 0.0000 -1.0000
vn 1.0000 0.0000 0.0000
vn 0.0000 0.0000 1.0000
vn 0.0000 -1.0000 0.0000
vn 0.0000 1.0000 0.0000
usemtl None
s off
f 1/1/1 2/2/1 4/3/1 3/4/1
f 3/4/2 4/3/2 8/5/2 7/6/2
f 7/6/3 8/5/3 6/7/3 5/8/3
f 5/8/4 6/7/4 2/9/4 1/10/4
f 3/11/5 7/6/5 5/8/5 1/12/5
f 14/13/4 13/14/4 15/15/4 16/16/4
f 13/14/3 8/5/3 11/17/3 15/15/3
f 11/17/2 10/18/2 9/19/2 12/20/2
f 8/5/2 4/3/2 10/18/2 11/17/2
f 2/9/6 6/7/6 13/14/6 14/13/6
f 14/13/1 16/16/1 10/18/1 4/3/1
f 30/21/4 29/22/4 31/23/4 32/24/4
f 16/16/6 15/15/6 19/25/6 20/26/6
f 9/19/1 10/18/1 20/26/1 22/27/1
f 20/26/4 19/25/4 21/28/4 22/27/4
f 12/20/3 21/28/3 19/25/3 11/17/3
f 22/27/6 21/28/6 25/29/6 26/30/6
f 27/31/3 25/29/3 12/20/3 17/32/3
f 26/30/4 25/29/4 27/31/4 28/33/4
f 12/20/2 9/19/2 18/34/2 17/32/2
f 18/34/1 9/19/1 26/30/1 28/33/1
f 23/35/6 32/24/6 31/23/6 24/36/6
f 28/33/6 27/31/6 29/22/6 30/21/6
f 17/32/3 24/36/3 31/23/3 29/22/3
f 17/32/2 18/34/2 23/35/2 24/36/2
f 18/34/1 30/21/1 32/24/1 23/35/1
