# Blender v2.83.5 OBJ File: 'tile_set_001.blend'
# www.blender.org
mtllib tile_set_001_pw_dw_1_001.mtl
o wall_hole_double_wall_Cube.031
v -0.500000 2.400000 0.250000
v -0.500000 3.000000 0.250000
v -0.500000 2.400000 -0.250000
v -0.500000 3.000000 -0.250000
v 0.500000 2.400000 0.250000
v 0.500000 3.000000 0.250000
v 0.500000 2.400000 -0.250000
v 0.500000 3.000000 -0.250000
v -0.500000 0.000000 0.250000
v -0.500000 0.600000 0.250000
v -0.500000 0.000000 -0.250000
v -0.500000 0.600000 -0.250000
v 0.500000 0.000000 0.250000
v 0.500000 0.600000 0.250000
v 0.500000 0.000000 -0.250000
v 0.500000 0.600000 -0.250000
v 0.000000 0.600000 -0.050000
v 0.000000 2.600000 -0.050000
v 0.035355 0.600000 -0.035355
v 0.035355 2.600000 -0.035355
v 0.050000 0.600000 0.000000
v 0.050000 2.600000 0.000000
v 0.035355 0.600000 0.035355
v 0.035355 2.600000 0.035355
v 0.000000 0.600000 0.050000
v 0.000000 2.600000 0.050000
v -0.035355 0.600000 0.035355
v -0.035355 2.600000 0.035355
v -0.050000 0.600000 -0.000000
v -0.050000 2.600000 -0.000000
v -0.035355 0.600000 -0.035355
v -0.035355 2.600000 -0.035355
v 0.375000 0.600000 -0.050000
v 0.375000 2.600000 -0.050000
v 0.410355 0.600000 -0.035355
v 0.410355 2.600000 -0.035355
v 0.425000 0.600000 0.000000
v 0.425000 2.600000 0.000000
v 0.410355 0.600000 0.035355
v 0.410355 2.600000 0.035355
v 0.375000 0.600000 0.050000
v 0.375000 2.600000 0.050000
v 0.339645 0.600000 0.035355
v 0.339645 2.600000 0.035355
v 0.325000 0.600000 -0.000000
v 0.325000 2.600000 -0.000000
v 0.339645 0.600000 -0.035355
v 0.339645 2.600000 -0.035355
v -0.375000 0.600000 -0.050000
v -0.375000 2.600000 -0.050000
v -0.339645 0.600000 -0.035355
v -0.339645 2.600000 -0.035355
v -0.325000 0.600000 0.000000
v -0.325000 2.600000 0.000000
v -0.339645 0.600000 0.035355
v -0.339645 2.600000 0.035355
v -0.375000 0.600000 0.050000
v -0.375000 2.600000 0.050000
v -0.410355 0.600000 0.035355
v -0.410355 2.600000 0.035355
v -0.425000 0.600000 -0.000000
v -0.425000 2.600000 -0.000000
v -0.410355 0.600000 -0.035355
v -0.410355 2.600000 -0.035355
vt 0.246582 0.406576
vt 0.246582 0.504883
vt -0.000488 0.504883
vt -0.000488 0.406576
vt -0.000488 0.504883
vt -0.000488 0.406576
vt 0.492676 0.406576
vt 0.492676 0.504883
vt -0.000488 0.504883
vt -0.000488 0.406576
vt 0.246582 0.406576
vt 0.246582 0.504883
vt 0.001465 0.504883
vt 0.001465 0.406576
vt 0.491699 0.407227
vt 0.491699 0.504883
vt 0.501465 0.907227
vt 0.002441 0.907227
vt 0.002441 0.741211
vt 0.501465 0.741211
vt 0.501465 0.907227
vt 0.002441 0.907227
vt 0.002441 0.741211
vt 0.501465 0.741211
vt -0.000488 0.504883
vt -0.000488 0.406576
vt 0.246582 0.406576
vt 0.246582 0.504883
vt -0.000488 0.504883
vt -0.000488 0.406576
vt 0.491699 0.406576
vt 0.491699 0.504883
vt 0.247559 0.406576
vt 0.247559 0.504883
vt -0.000488 0.504883
vt -0.000488 0.406576
vt 0.001465 0.504883
vt 0.001465 0.406576
vt 0.491699 0.406576
vt 0.491699 0.504883
vt 0.501465 0.907227
vt 0.002441 0.907227
vt 0.002441 0.740560
vt 0.501465 0.740560
vt 0.500488 0.907227
vt -0.000488 0.907227
vt -0.000488 0.741211
vt 0.500488 0.741211
vt 0.122559 1.000326
vt 0.122559 0.668945
vt 0.185059 0.668945
vt 0.185059 1.000326
vt 0.244629 0.668945
vt 0.244629 1.000326
vt 0.304199 0.668945
vt 0.304199 1.000326
vt 0.366699 0.668945
vt 0.366699 1.000326
vt 0.429199 0.668945
vt 0.429199 1.000326
vt 0.489746 0.668945
vt 0.489746 1.000326
vt -0.000488 1.000326
vt -0.000488 0.668945
vt 0.062988 0.668945
vt 0.062988 1.000326
vt 0.122559 1.000326
vt 0.122559 0.668945
vt 0.185059 0.668945
vt 0.185059 1.000326
vt 0.244629 0.668945
vt 0.244629 1.000326
vt 0.304199 0.668945
vt 0.304199 1.000326
vt 0.366699 0.668945
vt 0.366699 1.000326
vt 0.429199 0.668945
vt 0.429199 1.000326
vt 0.489746 0.668945
vt 0.489746 1.000326
vt -0.000488 1.000326
vt -0.000488 0.668945
vt 0.062988 0.668945
vt 0.062988 1.000326
vt 0.122559 1.000326
vt 0.122559 0.668945
vt 0.185059 0.668945
vt 0.185059 1.000326
vt 0.244629 0.668945
vt 0.244629 1.000326
vt 0.304199 0.668945
vt 0.304199 1.000326
vt 0.366699 0.668945
vt 0.366699 1.000326
vt 0.429199 0.668945
vt 0.429199 1.000326
vt 0.489746 0.668945
vt 0.489746 1.000326
vt -0.000488 1.000326
vt -0.000488 0.668945
vt 0.062988 0.668945
vt 0.062988 1.000326
vn -1.0000 0.0000 0.0000
vn 0.0000 0.0000 -1.0000
vn 1.0000 0.0000 0.0000
vn 0.0000 0.0000 1.0000
vn 0.0000 -1.0000 0.0000
vn 0.0000 1.0000 0.0000
vn 0.3827 0.0000 -0.9239
vn 0.9239 0.0000 -0.3827
vn 0.9239 0.0000 0.3827
vn 0.3827 0.0000 0.9239
vn -0.3827 0.0000 0.9239
vn -0.9239 0.0000 0.3827
vn -0.9239 0.0000 -0.3827
vn -0.3827 0.0000 -0.9239
usemtl Material.001
s off
f 1/1/1 2/2/1 4/3/1 3/4/1
f 3/5/2 4/6/2 8/7/2 7/8/2
f 7/9/3 8/10/3 6/11/3 5/12/3
f 5/13/4 6/14/4 2/15/4 1/16/4
f 3/17/5 7/18/5 5/19/5 1/20/5
f 8/21/6 4/22/6 2/23/6 6/24/6
f 9/25/1 10/26/1 12/27/1 11/28/1
f 11/29/2 12/30/2 16/31/2 15/32/2
f 15/33/3 16/34/3 14/35/3 13/36/3
f 13/37/4 14/38/4 10/39/4 9/40/4
f 11/41/5 15/42/5 13/43/5 9/44/5
f 16/45/6 12/46/6 10/47/6 14/48/6
f 17/49/7 18/50/7 20/51/7 19/52/7
f 19/52/8 20/51/8 22/53/8 21/54/8
f 21/54/9 22/53/9 24/55/9 23/56/9
f 23/56/10 24/55/10 26/57/10 25/58/10
f 25/58/11 26/57/11 28/59/11 27/60/11
f 27/60/12 28/59/12 30/61/12 29/62/12
f 29/63/13 30/64/13 32/65/13 31/66/13
f 31/66/14 32/65/14 18/50/14 17/49/14
f 33/67/7 34/68/7 36/69/7 35/70/7
f 35/70/8 36/69/8 38/71/8 37/72/8
f 37/72/9 38/71/9 40/73/9 39/74/9
f 39/74/10 40/73/10 42/75/10 41/76/10
f 41/76/11 42/75/11 44/77/11 43/78/11
f 43/78/12 44/77/12 46/79/12 45/80/12
f 45/81/13 46/82/13 48/83/13 47/84/13
f 47/84/14 48/83/14 34/68/14 33/67/14
f 49/85/7 50/86/7 52/87/7 51/88/7
f 51/88/8 52/87/8 54/89/8 53/90/8
f 53/90/9 54/89/9 56/91/9 55/92/9
f 55/92/10 56/91/10 58/93/10 57/94/10
f 57/94/11 58/93/11 60/95/11 59/96/11
f 59/96/12 60/95/12 62/97/12 61/98/12
f 61/99/13 62/100/13 64/101/13 63/102/13
f 63/102/14 64/101/14 50/86/14 49/85/14
