# Blender v2.83.5 OBJ File: 'tile_set_001.blend1'
# www.blender.org
mtllib tile_set_001_hw_dp_1_001.mtl
o wall_high_double_pillar_Cube.011
v -0.250000 0.000000 0.250000
v -0.250000 3.000000 0.250000
v -0.250000 0.000000 -0.250000
v -0.250000 3.000000 -0.250000
v 0.250000 0.000000 0.250000
v 0.250000 3.000000 0.250000
v 0.250000 0.000000 -0.250000
v 0.250000 3.000000 -0.250000
vt 0.000000 0.750000
vt 0.000000 0.000000
vt 0.250000 0.000000
vt 0.250000 0.750000
vt 0.500000 0.000000
vt 0.500000 0.750000
vt 0.250000 0.750000
vt 0.250000 0.000000
vt 1.000000 0.000000
vt 1.000000 0.750000
vt 0.750000 0.750000
vt 0.750000 0.000000
vt 0.500000 0.750000
vt 0.500000 0.000000
vt 0.750000 0.000000
vt 0.750000 0.750000
vt 0.500000 1.000000
vt 0.250000 1.000000
vt 0.250000 0.750000
vt 0.500000 0.750000
vt 0.250000 1.000000
vt 0.000000 1.000000
vt 0.000000 0.750000
vn -1.0000 0.0000 0.0000
vn 0.0000 0.0000 -1.0000
vn 1.0000 0.0000 0.0000
vn 0.0000 0.0000 1.0000
vn 0.0000 -1.0000 0.0000
vn 0.0000 1.0000 0.0000
usemtl None
s off
f 1/1/1 2/2/1 4/3/1 3/4/1
f 3/5/2 4/6/2 8/7/2 7/8/2
f 7/9/3 8/10/3 6/11/3 5/12/3
f 5/13/4 6/14/4 2/15/4 1/16/4
f 3/17/5 7/18/5 5/19/5 1/20/5
f 8/7/6 4/21/6 2/22/6 6/23/6
